<?xml version="1.0" encoding="UTF-8" standalone="no"?>
<!DOCTYPE svg PUBLIC "-//W3C//DTD SVG 1.0//EN" "http://www.w3.org/TR/2001/PR-SVG-20010719/DTD/svg10.dtd">
<svg width="38cm" height="9cm" viewBox="269 -125 752 174" xmlns="http://www.w3.org/2000/svg" xmlns:xlink="http://www.w3.org/1999/xlink">
  <g>
    <path style="fill: #ffffff" d="M 291.312 1.03381 L 310.712,1.03381 L 310.712,25.0338 C 306.832,21.0338 304.892,21.0338 301.012,25.0338 C 297.132,29.0338 295.192,29.0338 291.312,25.0338 L 291.312,1.03381z"/>
    <path style="fill: none; fill-opacity:0; stroke-width: 0.02; stroke: #000000" d="M 291.312 1.03381 L 310.712,1.03381 L 310.712,25.0338 C 306.832,21.0338 304.892,21.0338 301.012,25.0338 C 297.132,29.0338 295.192,29.0338 291.312,25.0338 L 291.312,1.03381"/>
    <text font-size="12.8" style="fill: #000000;text-anchor:middle;font-family:monospace;font-style:normal;font-weight:normal" x="301.012" y="15.0338">
      <tspan x="301.012" y="15.0338">6</tspan>
    </text>
  </g>
  <g>
    <path style="fill: #ffffff" d="M 383.908 1.0356 L 403.308,1.0356 L 403.308,25.0356 C 399.428,21.0356 397.488,21.0356 393.608,25.0356 C 389.728,29.0356 387.788,29.0356 383.908,25.0356 L 383.908,1.0356z"/>
    <path style="fill: none; fill-opacity:0; stroke-width: 0.02; stroke: #000000" d="M 383.908 1.0356 L 403.308,1.0356 L 403.308,25.0356 C 399.428,21.0356 397.488,21.0356 393.608,25.0356 C 389.728,29.0356 387.788,29.0356 383.908,25.0356 L 383.908,1.0356"/>
    <text font-size="12.8" style="fill: #000000;text-anchor:middle;font-family:monospace;font-style:normal;font-weight:normal" x="393.608" y="15.0356">
      <tspan x="393.608" y="15.0356">6</tspan>
    </text>
  </g>
  <g>
    <path style="fill: #ffffff" d="M 463.402 1.50274 L 482.802,1.50274 L 482.802,25.5027 C 478.922,21.5027 476.982,21.5027 473.102,25.5027 C 469.222,29.5027 467.282,29.5027 463.402,25.5027 L 463.402,1.50274z"/>
    <path style="fill: none; fill-opacity:0; stroke-width: 0.02; stroke: #000000" d="M 463.402 1.50274 L 482.802,1.50274 L 482.802,25.5027 C 478.922,21.5027 476.982,21.5027 473.102,25.5027 C 469.222,29.5027 467.282,29.5027 463.402,25.5027 L 463.402,1.50274"/>
    <text font-size="12.8" style="fill: #000000;text-anchor:middle;font-family:monospace;font-style:normal;font-weight:normal" x="473.102" y="15.5027">
      <tspan x="473.102" y="15.5027">2</tspan>
    </text>
  </g>
  <g>
    <rect style="fill: #ffffff" x="271.233" y="-51.403" width="748.743" height="50.9938"/>
    <rect style="fill: none; fill-opacity:0; stroke-width: 2; stroke: #000000" x="271.233" y="-51.403" width="748.743" height="50.9938"/>
    <text font-size="12.8" style="fill: #000000;text-anchor:middle;font-family:sans-serif;font-style:normal;font-weight:normal" x="645.604" y="-21.1061">
      <tspan x="645.604" y="-21.1061"></tspan>
    </text>
  </g>
  <g>
    <path style="fill: #ffffff" d="M 374.26 -49.8658 L 416.66,-49.8658 L 416.66,-6.6658 C 408.18,-13.8658 403.94,-13.8658 395.46,-6.6658 C 386.98,0.5342 382.74,0.5342 374.26,-6.6658 L 374.26,-49.8658z"/>
    <path style="fill: none; fill-opacity:0; stroke-width: 0.02; stroke: #000000" d="M 374.26 -49.8658 L 416.66,-49.8658 L 416.66,-6.6658 C 408.18,-13.8658 403.94,-13.8658 395.46,-6.6658 C 386.98,0.5342 382.74,0.5342 374.26,-6.6658 L 374.26,-49.8658"/>
    <text font-size="12.8" style="fill: #000000;text-anchor:middle;font-family:sans-serif;font-style:normal;font-weight:normal" x="395.46" y="-35.0658">
      <tspan x="395.46" y="-35.0658">以太网</tspan>
      <tspan x="395.46" y="-19.0658">源地址</tspan>
    </text>
  </g>
  <g>
    <path style="fill: #ffffff" d="M 455.84 -49.761 L 485.44,-49.761 L 485.44,-6.561 C 479.52,-13.761 476.56,-13.761 470.64,-6.561 C 464.72,0.639 461.76,0.639 455.84,-6.561 L 455.84,-49.761z"/>
    <path style="fill: none; fill-opacity:0; stroke-width: 0.02; stroke: #000000" d="M 455.84 -49.761 L 485.44,-49.761 L 485.44,-6.561 C 479.52,-13.761 476.56,-13.761 470.64,-6.561 C 464.72,0.639 461.76,0.639 455.84,-6.561 L 455.84,-49.761"/>
    <text font-size="12.8" style="fill: #000000;text-anchor:middle;font-family:sans-serif;font-style:normal;font-weight:normal" x="470.64" y="-34.961">
      <tspan x="470.64" y="-34.961">帧</tspan>
      <tspan x="470.64" y="-18.961">类型</tspan>
    </text>
  </g>
  <g>
    <path style="fill: #ffffff" d="M 516.702 -49.8658 L 546.302,-49.8658 L 546.302,-6.6658 C 540.382,-13.8658 537.422,-13.8658 531.502,-6.6658 C 525.582,0.5342 522.622,0.5342 516.702,-6.6658 L 516.702,-49.8658z"/>
    <path style="fill: none; fill-opacity:0; stroke-width: 0.02; stroke: #000000" d="M 516.702 -49.8658 L 546.302,-49.8658 L 546.302,-6.6658 C 540.382,-13.8658 537.422,-13.8658 531.502,-6.6658 C 525.582,0.5342 522.622,0.5342 516.702,-6.6658 L 516.702,-49.8658"/>
    <text font-size="12.8" style="fill: #000000;text-anchor:middle;font-family:sans-serif;font-style:normal;font-weight:normal" x="531.502" y="-35.0658">
      <tspan x="531.502" y="-35.0658">硬件</tspan>
      <tspan x="531.502" y="-19.0658">类型</tspan>
    </text>
  </g>
  <g>
    <path style="fill: #ffffff" d="M 575.894 -49.8658 L 605.494,-49.8658 L 605.494,-6.6658 C 599.574,-13.8658 596.614,-13.8658 590.694,-6.6658 C 584.774,0.5342 581.814,0.5342 575.894,-6.6658 L 575.894,-49.8658z"/>
    <path style="fill: none; fill-opacity:0; stroke-width: 0.02; stroke: #000000" d="M 575.894 -49.8658 L 605.494,-49.8658 L 605.494,-6.6658 C 599.574,-13.8658 596.614,-13.8658 590.694,-6.6658 C 584.774,0.5342 581.814,0.5342 575.894,-6.6658 L 575.894,-49.8658"/>
    <text font-size="12.8" style="fill: #000000;text-anchor:middle;font-family:sans-serif;font-style:normal;font-weight:normal" x="590.694" y="-35.0658">
      <tspan x="590.694" y="-35.0658">协议</tspan>
      <tspan x="590.694" y="-19.0658">类型</tspan>
    </text>
  </g>
  <g>
    <path style="fill: #ffffff" d="M 711.152 -49.9138 L 779.152,-49.9138 L 779.152,-6.7138 C 765.552,-13.9138 758.752,-13.9138 745.152,-6.7138 C 731.552,0.4862 724.752,0.4862 711.152,-6.7138 L 711.152,-49.9138z"/>
    <path style="fill: none; fill-opacity:0; stroke-width: 0.02; stroke: #000000" d="M 711.152 -49.9138 L 779.152,-49.9138 L 779.152,-6.7138 C 765.552,-13.9138 758.752,-13.9138 745.152,-6.7138 C 731.552,0.4862 724.752,0.4862 711.152,-6.7138 L 711.152,-49.9138"/>
    <text font-size="12.8" style="fill: #000000;text-anchor:middle;font-family:sans-serif;font-style:normal;font-weight:normal" x="745.152" y="-35.1138">
      <tspan x="745.152" y="-35.1138">发送端</tspan>
      <tspan x="745.152" y="-19.1138">以太网地址</tspan>
    </text>
  </g>
  <g>
    <path style="fill: #ffffff" d="M 796.836 -49.8658 L 839.236,-49.8658 L 839.236,-6.6658 C 830.756,-13.8658 826.516,-13.8658 818.036,-6.6658 C 809.556,0.5342 805.316,0.5342 796.836,-6.6658 L 796.836,-49.8658z"/>
    <path style="fill: none; fill-opacity:0; stroke-width: 0.02; stroke: #000000" d="M 796.836 -49.8658 L 839.236,-49.8658 L 839.236,-6.6658 C 830.756,-13.8658 826.516,-13.8658 818.036,-6.6658 C 809.556,0.5342 805.316,0.5342 796.836,-6.6658 L 796.836,-49.8658"/>
    <text font-size="12.8" style="fill: #000000;text-anchor:middle;font-family:sans-serif;font-style:normal;font-weight:normal" x="818.036" y="-35.0658">
      <tspan x="818.036" y="-35.0658">发送端</tspan>
      <tspan x="818.036" y="-19.0658">IP地址</tspan>
    </text>
  </g>
  <g>
    <path style="fill: #ffffff" d="M 869.58 -49.8658 L 937.58,-49.8658 L 937.58,-6.6658 C 923.98,-13.8658 917.18,-13.8658 903.58,-6.6658 C 889.98,0.5342 883.18,0.5342 869.58,-6.6658 L 869.58,-49.8658z"/>
    <path style="fill: none; fill-opacity:0; stroke-width: 0.02; stroke: #000000" d="M 869.58 -49.8658 L 937.58,-49.8658 L 937.58,-6.6658 C 923.98,-13.8658 917.18,-13.8658 903.58,-6.6658 C 889.98,0.5342 883.18,0.5342 869.58,-6.6658 L 869.58,-49.8658"/>
    <text font-size="12.8" style="fill: #000000;text-anchor:middle;font-family:sans-serif;font-style:normal;font-weight:normal" x="903.58" y="-35.0658">
      <tspan x="903.58" y="-35.0658">目的以太网</tspan>
      <tspan x="903.58" y="-19.0658">地址</tspan>
    </text>
  </g>
  <g>
    <path style="fill: #ffffff" d="M 967.954 -49.9854 L 1009.4,-49.9854 L 1009.4,-6.7854 C 1001.11,-13.9854 996.969,-13.9854 988.679,-6.7854 C 980.389,0.4146 976.244,0.4146 967.954,-6.7854 L 967.954,-49.9854z"/>
    <path style="fill: none; fill-opacity:0; stroke-width: 0.02; stroke: #000000" d="M 967.954 -49.9854 L 1009.4,-49.9854 L 1009.4,-6.7854 C 1001.11,-13.9854 996.969,-13.9854 988.679,-6.7854 C 980.389,0.4146 976.244,0.4146 967.954,-6.7854 L 967.954,-49.9854"/>
    <text font-size="12.8" style="fill: #000000;text-anchor:middle;font-family:sans-serif;font-style:normal;font-weight:normal" x="988.679" y="-35.1854">
      <tspan x="988.679" y="-35.1854">目的</tspan>
      <tspan x="988.679" y="-19.1854">IP地址</tspan>
    </text>
  </g>
  <line style="fill: none; fill-opacity:0; stroke-width: 2; stroke: #000000" x1="559.638" y1="-50.9948" x2="559.638" y2="-0.811068"/>
  <line style="fill: none; fill-opacity:0; stroke-width: 2; stroke: #000000" x1="349.996" y1="-50.4236" x2="349.996" y2="-0.239822"/>
  <g>
    <path style="fill: #ffffff" d="M 271.952 -49.708 L 327.152,-49.708 L 327.152,-6.508 C 316.112,-13.708 310.592,-13.708 299.552,-6.508 C 288.512,0.692 282.992,0.692 271.952,-6.508 L 271.952,-49.708z"/>
    <path style="fill: none; fill-opacity:0; stroke-width: 0.02; stroke: #000000" d="M 271.952 -49.708 L 327.152,-49.708 L 327.152,-6.508 C 316.112,-13.708 310.592,-13.708 299.552,-6.508 C 288.512,0.692 282.992,0.692 271.952,-6.508 L 271.952,-49.708"/>
    <text font-size="12.8" style="fill: #000000;text-anchor:middle;font-family:sans-serif;font-style:normal;font-weight:normal" x="299.552" y="-34.908">
      <tspan x="299.552" y="-34.908">以太网</tspan>
      <tspan x="299.552" y="-18.908">目的地址</tspan>
    </text>
  </g>
  <line style="fill: none; fill-opacity:0; stroke-width: 2; stroke: #000000" x1="439.8" y1="-50.8526" x2="439.8" y2="-0.668908"/>
  <line style="fill: none; fill-opacity:0; stroke-width: 2; stroke: #000000" x1="499.848" y1="-50.8526" x2="499.848" y2="-0.668908"/>
  <line style="fill: none; fill-opacity:0; stroke-width: 2; stroke: #000000" x1="619.516" y1="-50.8526" x2="619.516" y2="-0.668908"/>
  <line style="fill: none; fill-opacity:0; stroke-width: 2; stroke: #000000" x1="635.662" y1="-50.4236" x2="635.662" y2="-0.239988"/>
  <line style="fill: none; fill-opacity:0; stroke-width: 2; stroke: #000000" x1="650.344" y1="-50.4236" x2="650.344" y2="-0.239988"/>
  <g>
    <path style="fill: #ffffff" d="M 680.686 -94.0554 L 761.686,-94.0554 L 761.686,-69.8154 C 745.486,-73.8554 737.386,-73.8554 721.186,-69.8154 C 704.986,-65.7754 696.886,-65.7754 680.686,-69.8154 L 680.686,-94.0554z"/>
    <path style="fill: none; fill-opacity:0; stroke-width: 0.2; stroke-dasharray: 4; stroke: #000000" d="M 680.686 -94.0554 L 761.686,-94.0554 L 761.686,-69.8154 C 745.486,-73.8554 737.386,-73.8554 721.186,-69.8154 C 704.986,-65.7754 696.886,-65.7754 680.686,-69.8154 L 680.686,-94.0554"/>
    <text font-size="12.8" style="fill: #000000;text-anchor:middle;font-family:sans-serif;font-style:normal;font-weight:normal" x="721.186" y="-79.1554">
      <tspan x="721.186" y="-79.1554">硬件地址长度</tspan>
    </text>
  </g>
  <g>
    <path style="fill: #ffffff" d="M 639.426 -123.658 L 720.426,-123.658 L 720.426,-99.4184 C 704.226,-103.458 696.126,-103.458 679.926,-99.4184 C 663.726,-95.3784 655.626,-95.3784 639.426,-99.4184 L 639.426,-123.658z"/>
    <path style="fill: none; fill-opacity:0; stroke-width: 0.2; stroke-dasharray: 4; stroke: #000000" d="M 639.426 -123.658 L 720.426,-123.658 L 720.426,-99.4184 C 704.226,-103.458 696.126,-103.458 679.926,-99.4184 C 663.726,-95.3784 655.626,-95.3784 639.426,-99.4184 L 639.426,-123.658"/>
    <text font-size="12.8" style="fill: #000000;text-anchor:middle;font-family:sans-serif;font-style:normal;font-weight:normal" x="679.926" y="-108.758">
      <tspan x="679.926" y="-108.758">协议地址长度</tspan>
    </text>
  </g>
  <line style="fill: none; fill-opacity:0; stroke-width: 2; stroke: #000000" x1="788.384" y1="-50.5658" x2="788.384" y2="-0.382148"/>
  <line style="fill: none; fill-opacity:0; stroke-width: 2; stroke: #000000" x1="849" y1="-50.8526" x2="849" y2="-0.668908"/>
  <line style="fill: none; fill-opacity:0; stroke-width: 2; stroke: #000000" x1="958.35" y1="-50.4236" x2="958.35" y2="-0.239988"/>
  <g>
    <path style="fill: #ffffff" d="M 520.104 0.759824 L 539.504,0.759824 L 539.504,24.7598 C 535.624,20.7598 533.684,20.7598 529.804,24.7598 C 525.924,28.7598 523.984,28.7598 520.104,24.7598 L 520.104,0.759824z"/>
    <path style="fill: none; fill-opacity:0; stroke-width: 0.02; stroke: #000000" d="M 520.104 0.759824 L 539.504,0.759824 L 539.504,24.7598 C 535.624,20.7598 533.684,20.7598 529.804,24.7598 C 525.924,28.7598 523.984,28.7598 520.104,24.7598 L 520.104,0.759824"/>
    <text font-size="12.8" style="fill: #000000;text-anchor:middle;font-family:monospace;font-style:normal;font-weight:normal" x="529.804" y="14.7598">
      <tspan x="529.804" y="14.7598">2</tspan>
    </text>
  </g>
  <g>
    <path style="fill: #ffffff" d="M 584.172 0.759824 L 603.572,0.759824 L 603.572,24.7598 C 599.692,20.7598 597.752,20.7598 593.872,24.7598 C 589.992,28.7598 588.052,28.7598 584.172,24.7598 L 584.172,0.759824z"/>
    <path style="fill: none; fill-opacity:0; stroke-width: 0.02; stroke: #000000" d="M 584.172 0.759824 L 603.572,0.759824 L 603.572,24.7598 C 599.692,20.7598 597.752,20.7598 593.872,24.7598 C 589.992,28.7598 588.052,28.7598 584.172,24.7598 L 584.172,0.759824"/>
    <text font-size="12.8" style="fill: #000000;text-anchor:middle;font-family:monospace;font-style:normal;font-weight:normal" x="593.872" y="14.7598">
      <tspan x="593.872" y="14.7598">2</tspan>
    </text>
  </g>
  <g>
    <path style="fill: #ffffff" d="M 621.334 0.759824 L 633.034,0.759824 L 633.034,24.7598 C 630.694,20.7598 629.524,20.7598 627.184,24.7598 C 624.844,28.7598 623.674,28.7598 621.334,24.7598 L 621.334,0.759824z"/>
    <path style="fill: none; fill-opacity:0; stroke-width: 0.02; stroke: #000000" d="M 621.334 0.759824 L 633.034,0.759824 L 633.034,24.7598 C 630.694,20.7598 629.524,20.7598 627.184,24.7598 C 624.844,28.7598 623.674,28.7598 621.334,24.7598 L 621.334,0.759824"/>
    <text font-size="12.8" style="fill: #000000;text-anchor:middle;font-family:monospace;font-style:normal;font-weight:normal" x="627.184" y="14.7598">
      <tspan x="627.184" y="14.7598">1</tspan>
    </text>
  </g>
  <g>
    <path style="fill: #ffffff" d="M 817.466 1.18695 L 829.166,1.18695 L 829.166,25.187 C 826.826,21.187 825.656,21.187 823.316,25.187 C 820.976,29.187 819.806,29.187 817.466,25.187 L 817.466,1.18695z"/>
    <path style="fill: none; fill-opacity:0; stroke-width: 0.02; stroke: #000000" d="M 817.466 1.18695 L 829.166,1.18695 L 829.166,25.187 C 826.826,21.187 825.656,21.187 823.316,25.187 C 820.976,29.187 819.806,29.187 817.466,25.187 L 817.466,1.18695"/>
    <text font-size="12.8" style="fill: #000000;text-anchor:middle;font-family:monospace;font-style:normal;font-weight:normal" x="823.316" y="15.187">
      <tspan x="823.316" y="15.187">4</tspan>
    </text>
  </g>
  <g>
    <path style="fill: #ffffff" d="M 637.992 0.759824 L 649.692,0.759824 L 649.692,24.7598 C 647.352,20.7598 646.182,20.7598 643.842,24.7598 C 641.502,28.7598 640.332,28.7598 637.992,24.7598 L 637.992,0.759824z"/>
    <path style="fill: none; fill-opacity:0; stroke-width: 0.02; stroke: #000000" d="M 637.992 0.759824 L 649.692,0.759824 L 649.692,24.7598 C 647.352,20.7598 646.182,20.7598 643.842,24.7598 C 641.502,28.7598 640.332,28.7598 637.992,24.7598 L 637.992,0.759824"/>
    <text font-size="12.8" style="fill: #000000;text-anchor:middle;font-family:monospace;font-style:normal;font-weight:normal" x="643.842" y="14.7598">
      <tspan x="643.842" y="14.7598">1</tspan>
    </text>
  </g>
  <g>
    <path style="fill: #ffffff" d="M 739.728 0.759824 L 759.128,0.759824 L 759.128,24.7598 C 755.248,20.7598 753.308,20.7598 749.428,24.7598 C 745.548,28.7598 743.608,28.7598 739.728,24.7598 L 739.728,0.759824z"/>
    <path style="fill: none; fill-opacity:0; stroke-width: 0.02; stroke: #000000" d="M 739.728 0.759824 L 759.128,0.759824 L 759.128,24.7598 C 755.248,20.7598 753.308,20.7598 749.428,24.7598 C 745.548,28.7598 743.608,28.7598 739.728,24.7598 L 739.728,0.759824"/>
    <text font-size="12.8" style="fill: #000000;text-anchor:middle;font-family:monospace;font-style:normal;font-weight:normal" x="749.428" y="14.7598">
      <tspan x="749.428" y="14.7598">6</tspan>
    </text>
  </g>
  <g>
    <path style="fill: #ffffff" d="M 896.486 0.759824 L 915.886,0.759824 L 915.886,24.7598 C 912.006,20.7598 910.066,20.7598 906.186,24.7598 C 902.306,28.7598 900.366,28.7598 896.486,24.7598 L 896.486,0.759824z"/>
    <path style="fill: none; fill-opacity:0; stroke-width: 0.02; stroke: #000000" d="M 896.486 0.759824 L 915.886,0.759824 L 915.886,24.7598 C 912.006,20.7598 910.066,20.7598 906.186,24.7598 C 902.306,28.7598 900.366,28.7598 896.486,24.7598 L 896.486,0.759824"/>
    <text font-size="12.8" style="fill: #000000;text-anchor:middle;font-family:monospace;font-style:normal;font-weight:normal" x="906.186" y="14.7598">
      <tspan x="906.186" y="14.7598">6</tspan>
    </text>
  </g>
  <g>
    <path style="fill: #ffffff" d="M 989.172 1.18695 L 1000.87,1.18695 L 1000.87,25.187 C 998.532,21.187 997.362,21.187 995.022,25.187 C 992.682,29.187 991.512,29.187 989.172,25.187 L 989.172,1.18695z"/>
    <path style="fill: none; fill-opacity:0; stroke-width: 0.02; stroke: #000000" d="M 989.172 1.18695 L 1000.87,1.18695 L 1000.87,25.187 C 998.532,21.187 997.362,21.187 995.022,25.187 C 992.682,29.187 991.512,29.187 989.172,25.187 L 989.172,1.18695"/>
    <text font-size="12.8" style="fill: #000000;text-anchor:middle;font-family:monospace;font-style:normal;font-weight:normal" x="995.022" y="15.187">
      <tspan x="995.022" y="15.187">4</tspan>
    </text>
  </g>
  <path style="fill: none; fill-opacity:0; stroke-width: 0.2; stroke-dasharray: 4; stroke: #000000" d="M 648.108,-97.4704 A 56.6578,56.6578 0 0 0 626.502,-52.2042"/>
  <path style="fill: none; fill-opacity:0; stroke-width: 0.2; stroke-dasharray: 4; stroke: #000000" d="M 680.657,-86.4731 A 51.2012,51.2012 0 0 0 644.44,-51.7772"/>
  <line style="fill: none; fill-opacity:0; stroke-width: 1; stroke: #000000" x1="270.576" y1="29.2292" x2="270.496" y2="40.8274"/>
  <g>
    <path style="fill: #ffffff" d="M 338.722 20.718 L 426.994,20.718 L 426.994,44.718 C 409.34,40.718 400.512,40.718 382.858,44.718 C 365.204,48.718 356.376,48.718 338.722,44.718 L 338.722,20.718z"/>
    <path style="fill: none; fill-opacity:0; stroke-width: 0.02; stroke: #000000" d="M 338.722 20.718 L 426.994,20.718 L 426.994,44.718 C 409.34,40.718 400.512,40.718 382.858,44.718 C 365.204,48.718 356.376,48.718 338.722,44.718 L 338.722,20.718"/>
    <text font-size="12.8" style="fill: #000000;text-anchor:middle;font-family:sans-serif;font-style:normal;font-weight:normal" x="382.858" y="35.518">
      <tspan x="382.858" y="35.518">以太网首部</tspan>
    </text>
  </g>
  <g>
    <line style="fill: none; fill-opacity:0; stroke-width: 1; stroke: #000000" x1="338.735" y1="34.8399" x2="281.036" y2="34.9992"/>
    <polygon style="fill: #000000" points="281.022,29.9992 271.036,35.0268 281.05,39.9992 "/>
    <polygon style="fill: none; fill-opacity:0; stroke-width: 1; stroke: #000000" points="281.022,29.9992 271.036,35.0268 281.05,39.9992 "/>
  </g>
  <line style="fill: none; fill-opacity:0; stroke-width: 1; stroke: #000000" x1="499.93" y1="27.2956" x2="499.852" y2="38.8938"/>
  <g>
    <line style="fill: none; fill-opacity:0; stroke-width: 1; stroke: #000000" x1="426.994" y1="32.718" x2="489.392" y2="33.0404"/>
    <polygon style="fill: #000000" points="489.366,38.0403 499.392,33.092 489.418,28.0404 "/>
    <polygon style="fill: none; fill-opacity:0; stroke-width: 1; stroke: #000000" points="489.366,38.0403 499.392,33.092 489.418,28.0404 "/>
  </g>
  <g>
    <path style="fill: #ffffff" d="M 700.314 19.7525 L 887.571,19.7525 L 887.571,43.7525 C 850.119,39.7525 831.394,39.7525 793.942,43.7525 C 756.491,47.7525 737.765,47.7525 700.314,43.7525 L 700.314,19.7525z"/>
    <path style="fill: none; fill-opacity:0; stroke-width: 0.02; stroke: #000000" d="M 700.314 19.7525 L 887.571,19.7525 L 887.571,43.7525 C 850.119,39.7525 831.394,39.7525 793.942,43.7525 C 756.491,47.7525 737.765,47.7525 700.314,43.7525 L 700.314,19.7525"/>
    <text font-size="12.8" style="fill: #000000;text-anchor:middle;font-family:sans-serif;font-style:normal;font-weight:normal" x="793.942" y="34.5525">
      <tspan x="793.942" y="34.5525">28字节ARP/RARP请求与应答</tspan>
    </text>
  </g>
  <g>
    <line style="fill: none; fill-opacity:0; stroke-width: 1; stroke: #000000" x1="700.32" y1="33.5431" x2="510.392" y2="33.1181"/>
    <polygon style="fill: #000000" points="510.403,28.1181 500.392,33.0957 510.381,38.1181 "/>
    <polygon style="fill: none; fill-opacity:0; stroke-width: 1; stroke: #000000" points="510.403,28.1181 500.392,33.0957 510.381,38.1181 "/>
  </g>
  <line style="fill: none; fill-opacity:0; stroke-width: 1; stroke: #000000" x1="1018.62" y1="25.473" x2="1018.54" y2="37.0712"/>
  <g>
    <line style="fill: none; fill-opacity:0; stroke-width: 1; stroke: #000000" x1="887.57" y1="31.7526" x2="1008.08" y2="31.3105"/>
    <polygon style="fill: #000000" points="1008.1,36.3105 1018.08,31.2738 1008.06,26.3106 "/>
    <polygon style="fill: none; fill-opacity:0; stroke-width: 1; stroke: #000000" points="1008.1,36.3105 1018.08,31.2738 1008.06,26.3106 "/>
  </g>
  <line style="fill: none; fill-opacity:0; stroke-width: 2; stroke: #000000" x1="709.836" y1="-50.3884" x2="709.836" y2="-0.204734"/>
  <g>
    <path style="fill: #ffffff" d="M 658.622 -50.633 L 701.022,-50.633 L 701.022,-7.42141 C 692.542,-14.6233 688.302,-14.6233 679.822,-7.42141 C 671.342,-0.219481 667.102,-0.219481 658.622,-7.42141 L 658.622,-50.633z"/>
    <path style="fill: none; fill-opacity:0; stroke-width: 0.02; stroke: #000000" d="M 658.622 -50.633 L 701.022,-50.633 L 701.022,-7.42141 C 692.542,-14.6233 688.302,-14.6233 679.822,-7.42141 C 671.342,-0.219481 667.102,-0.219481 658.622,-7.42141 L 658.622,-50.633"/>
    <text font-size="12.8" style="fill: #000000;text-anchor:middle;font-family:sans-serif;font-style:normal;font-weight:normal" x="679.822" y="-27.8282">
      <tspan x="679.822" y="-27.8282">操作码</tspan>
    </text>
  </g>
  <g>
    <path style="fill: #ffffff" d="M 671.064 1.49001 L 690.464,1.49001 L 690.464,25.49 C 686.584,21.49 684.644,21.49 680.764,25.49 C 676.884,29.49 674.944,29.49 671.064,25.49 L 671.064,1.49001z"/>
    <path style="fill: none; fill-opacity:0; stroke-width: 0.02; stroke: #000000" d="M 671.064 1.49001 L 690.464,1.49001 L 690.464,25.49 C 686.584,21.49 684.644,21.49 680.764,25.49 C 676.884,29.49 674.944,29.49 671.064,25.49 L 671.064,1.49001"/>
    <text font-size="12.8" style="fill: #000000;text-anchor:middle;font-family:monospace;font-style:normal;font-weight:normal" x="680.764" y="15.49">
      <tspan x="680.764" y="15.49">2</tspan>
    </text>
  </g>
</svg>
