<?xml version="1.0" encoding="UTF-8" standalone="no"?>
<!DOCTYPE svg PUBLIC "-//W3C//DTD SVG 1.0//EN" "http://www.w3.org/TR/2001/PR-SVG-20010719/DTD/svg10.dtd">
<svg width="36cm" height="10cm" viewBox="269 -125 702 184" xmlns="http://www.w3.org/2000/svg" xmlns:xlink="http://www.w3.org/1999/xlink">
  <g>
    <path style="fill: #ffffff" d="M 291.313 1.03381 L 310.713,1.03381 L 310.713,25.0338 C 306.833,21.0338 304.893,21.0338 301.013,25.0338 C 297.133,29.0338 295.193,29.0338 291.313,25.0338 L 291.313,1.03381z"/>
    <path style="fill: none; fill-opacity:0; stroke-width: 0.02; stroke: #000000" d="M 291.313 1.03381 L 310.713,1.03381 L 310.713,25.0338 C 306.833,21.0338 304.893,21.0338 301.013,25.0338 C 297.133,29.0338 295.193,29.0338 291.313,25.0338 L 291.313,1.03381"/>
    <text font-size="12.8" style="fill: #000000;text-anchor:middle;font-family:monospace;font-style:normal;font-weight:normal" x="301.013" y="14.2338">
      <tspan x="301.013" y="14.2338">6</tspan>
    </text>
  </g>
  <g>
    <path style="fill: #ffffff" d="M 383.907 1.0356 L 403.307,1.0356 L 403.307,25.0356 C 399.427,21.0356 397.487,21.0356 393.607,25.0356 C 389.727,29.0356 387.787,29.0356 383.907,25.0356 L 383.907,1.0356z"/>
    <path style="fill: none; fill-opacity:0; stroke-width: 0.02; stroke: #000000" d="M 383.907 1.0356 L 403.307,1.0356 L 403.307,25.0356 C 399.427,21.0356 397.487,21.0356 393.607,25.0356 C 389.727,29.0356 387.787,29.0356 383.907,25.0356 L 383.907,1.0356"/>
    <text font-size="12.8" style="fill: #000000;text-anchor:middle;font-family:monospace;font-style:normal;font-weight:normal" x="393.607" y="14.2356">
      <tspan x="393.607" y="14.2356">6</tspan>
    </text>
  </g>
  <g>
    <path style="fill: #ffffff" d="M 463.402 1.50274 L 482.802,1.50274 L 482.802,25.5027 C 478.922,21.5027 476.982,21.5027 473.102,25.5027 C 469.222,29.5027 467.282,29.5027 463.402,25.5027 L 463.402,1.50274z"/>
    <path style="fill: none; fill-opacity:0; stroke-width: 0.02; stroke: #000000" d="M 463.402 1.50274 L 482.802,1.50274 L 482.802,25.5027 C 478.922,21.5027 476.982,21.5027 473.102,25.5027 C 469.222,29.5027 467.282,29.5027 463.402,25.5027 L 463.402,1.50274"/>
    <text font-size="12.8" style="fill: #000000;text-anchor:middle;font-family:monospace;font-style:normal;font-weight:normal" x="473.102" y="14.7027">
      <tspan x="473.102" y="14.7027">2</tspan>
    </text>
  </g>
  <g>
    <rect style="fill: #ffffff" x="270.702" y="-50.5658" width="699.524" height="50.1837"/>
    <rect style="fill: none; fill-opacity:0; stroke-width: 2; stroke: #000000" x="270.702" y="-50.5658" width="699.524" height="50.1837"/>
    <text font-size="12.7998" style="fill: #000000;text-anchor:middle;font-family:sans-serif;font-style:normal;font-weight:normal" x="620.464" y="-20.674">
      <tspan x="620.464" y="-20.674"></tspan>
    </text>
  </g>
  <g>
    <path style="fill: #ffffff" d="M 374.259 -49.8658 L 416.659,-49.8658 L 416.659,-6.6658 C 408.179,-13.8658 403.939,-13.8658 395.459,-6.6658 C 386.979,0.534201 382.739,0.534201 374.259,-6.6658 L 374.259,-49.8658z"/>
    <path style="fill: none; fill-opacity:0; stroke-width: 0.02; stroke: #000000" d="M 374.259 -49.8658 L 416.659,-49.8658 L 416.659,-6.6658 C 408.179,-13.8658 403.939,-13.8658 395.459,-6.6658 C 386.979,0.534201 382.739,0.534201 374.259,-6.6658 L 374.259,-49.8658"/>
    <text font-size="12.7998" style="fill: #000000;text-anchor:middle;font-family:sans-serif;font-style:normal;font-weight:normal" x="395.459" y="-34.8658">
      <tspan x="395.459" y="-34.8658">以太网</tspan>
      <tspan x="395.459" y="-18.8658">源地址</tspan>
    </text>
  </g>
  <g>
    <path style="fill: #ffffff" d="M 455.839 -49.7609 L 485.439,-49.7609 L 485.439,-6.56092 C 479.519,-13.7609 476.559,-13.7609 470.639,-6.56092 C 464.719,0.639083 461.759,0.639083 455.839,-6.56092 L 455.839,-49.7609z"/>
    <path style="fill: none; fill-opacity:0; stroke-width: 0.02; stroke: #000000" d="M 455.839 -49.7609 L 485.439,-49.7609 L 485.439,-6.56092 C 479.519,-13.7609 476.559,-13.7609 470.639,-6.56092 C 464.719,0.639083 461.759,0.639083 455.839,-6.56092 L 455.839,-49.7609"/>
    <text font-size="12.7998" style="fill: #000000;text-anchor:middle;font-family:sans-serif;font-style:normal;font-weight:normal" x="470.639" y="-34.7609">
      <tspan x="470.639" y="-34.7609">帧</tspan>
      <tspan x="470.639" y="-18.7609">类型</tspan>
    </text>
  </g>
  <g>
    <path style="fill: #ffffff" d="M 516.703 -49.8658 L 546.303,-49.8658 L 546.303,-6.6658 C 540.383,-13.8658 537.423,-13.8658 531.503,-6.6658 C 525.583,0.534201 522.623,0.534201 516.703,-6.6658 L 516.703,-49.8658z"/>
    <path style="fill: none; fill-opacity:0; stroke-width: 0.02; stroke: #000000" d="M 516.703 -49.8658 L 546.303,-49.8658 L 546.303,-6.6658 C 540.383,-13.8658 537.423,-13.8658 531.503,-6.6658 C 525.583,0.534201 522.623,0.534201 516.703,-6.6658 L 516.703,-49.8658"/>
    <text font-size="12.7998" style="fill: #000000;text-anchor:middle;font-family:sans-serif;font-style:normal;font-weight:normal" x="531.503" y="-34.8658">
      <tspan x="531.503" y="-34.8658">硬件</tspan>
      <tspan x="531.503" y="-18.8658">类型</tspan>
    </text>
  </g>
  <g>
    <path style="fill: #ffffff" d="M 575.894 -49.8658 L 605.494,-49.8658 L 605.494,-6.6658 C 599.574,-13.8658 596.614,-13.8658 590.694,-6.6658 C 584.774,0.534201 581.814,0.534201 575.894,-6.6658 L 575.894,-49.8658z"/>
    <path style="fill: none; fill-opacity:0; stroke-width: 0.02; stroke: #000000" d="M 575.894 -49.8658 L 605.494,-49.8658 L 605.494,-6.6658 C 599.574,-13.8658 596.614,-13.8658 590.694,-6.6658 C 584.774,0.534201 581.814,0.534201 575.894,-6.6658 L 575.894,-49.8658"/>
    <text font-size="12.7998" style="fill: #000000;text-anchor:middle;font-family:sans-serif;font-style:normal;font-weight:normal" x="590.694" y="-34.8658">
      <tspan x="590.694" y="-34.8658">协议</tspan>
      <tspan x="590.694" y="-18.8658">类型</tspan>
    </text>
  </g>
  <g>
    <path style="fill: #ffffff" d="M 662.805 -49.9139 L 730.805,-49.9139 L 730.805,-6.71388 C 717.205,-13.9139 710.405,-13.9139 696.805,-6.71388 C 683.205,0.486124 676.405,0.486124 662.805,-6.71388 L 662.805,-49.9139z"/>
    <path style="fill: none; fill-opacity:0; stroke-width: 0.02; stroke: #000000" d="M 662.805 -49.9139 L 730.805,-49.9139 L 730.805,-6.71388 C 717.205,-13.9139 710.405,-13.9139 696.805,-6.71388 C 683.205,0.486124 676.405,0.486124 662.805,-6.71388 L 662.805,-49.9139"/>
    <text font-size="12.7998" style="fill: #000000;text-anchor:middle;font-family:sans-serif;font-style:normal;font-weight:normal" x="696.805" y="-34.9139">
      <tspan x="696.805" y="-34.9139">发送端</tspan>
      <tspan x="696.805" y="-18.9139">以太网地址</tspan>
    </text>
  </g>
  <g>
    <path style="fill: #ffffff" d="M 748.489 -49.8658 L 790.889,-49.8658 L 790.889,-6.6658 C 782.409,-13.8658 778.169,-13.8658 769.689,-6.6658 C 761.209,0.534201 756.969,0.534201 748.489,-6.6658 L 748.489,-49.8658z"/>
    <path style="fill: none; fill-opacity:0; stroke-width: 0.02; stroke: #000000" d="M 748.489 -49.8658 L 790.889,-49.8658 L 790.889,-6.6658 C 782.409,-13.8658 778.169,-13.8658 769.689,-6.6658 C 761.209,0.534201 756.969,0.534201 748.489,-6.6658 L 748.489,-49.8658"/>
    <text font-size="12.7998" style="fill: #000000;text-anchor:middle;font-family:sans-serif;font-style:normal;font-weight:normal" x="769.689" y="-34.8658">
      <tspan x="769.689" y="-34.8658">发送端</tspan>
      <tspan x="769.689" y="-18.8658">IP地址</tspan>
    </text>
  </g>
  <g>
    <path style="fill: #ffffff" d="M 821.235 -49.8658 L 889.235,-49.8658 L 889.235,-6.6658 C 875.635,-13.8658 868.835,-13.8658 855.235,-6.6658 C 841.635,0.534201 834.835,0.534201 821.235,-6.6658 L 821.235,-49.8658z"/>
    <path style="fill: none; fill-opacity:0; stroke-width: 0.02; stroke: #000000" d="M 821.235 -49.8658 L 889.235,-49.8658 L 889.235,-6.6658 C 875.635,-13.8658 868.835,-13.8658 855.235,-6.6658 C 841.635,0.534201 834.835,0.534201 821.235,-6.6658 L 821.235,-49.8658"/>
    <text font-size="12.7998" style="fill: #000000;text-anchor:middle;font-family:sans-serif;font-style:normal;font-weight:normal" x="855.235" y="-34.8658">
      <tspan x="855.235" y="-34.8658">目的以太网</tspan>
      <tspan x="855.235" y="-18.8658">地址</tspan>
    </text>
  </g>
  <g>
    <path style="fill: #ffffff" d="M 919.608 -49.5565 L 961.058,-49.5565 L 961.058,-6.35652 C 952.768,-13.5565 948.623,-13.5565 940.333,-6.35652 C 932.043,0.843482 927.898,0.843482 919.608,-6.35652 L 919.608,-49.5565z"/>
    <path style="fill: none; fill-opacity:0; stroke-width: 0.02; stroke: #000000" d="M 919.608 -49.5565 L 961.058,-49.5565 L 961.058,-6.35652 C 952.768,-13.5565 948.623,-13.5565 940.333,-6.35652 C 932.043,0.843482 927.898,0.843482 919.608,-6.35652 L 919.608,-49.5565"/>
    <text font-size="12.7998" style="fill: #000000;text-anchor:middle;font-family:sans-serif;font-style:normal;font-weight:normal" x="940.333" y="-34.5565">
      <tspan x="940.333" y="-34.5565">目的</tspan>
      <tspan x="940.333" y="-18.5565">IP地址</tspan>
    </text>
  </g>
  <line style="fill: none; fill-opacity:0; stroke-width: 2; stroke: #000000" x1="559.638" y1="-50.9947" x2="559.638" y2="-0.811068"/>
  <line style="fill: none; fill-opacity:0; stroke-width: 2; stroke: #000000" x1="349.995" y1="-49.9947" x2="349.995" y2="0.188932"/>
  <g>
    <path style="fill: #ffffff" d="M 271.953 -49.708 L 327.153,-49.708 L 327.153,-6.50796 C 316.113,-13.708 310.593,-13.708 299.553,-6.50796 C 288.513,0.692041 282.993,0.692041 271.953,-6.50796 L 271.953,-49.708z"/>
    <path style="fill: none; fill-opacity:0; stroke-width: 0.02; stroke: #000000" d="M 271.953 -49.708 L 327.153,-49.708 L 327.153,-6.50796 C 316.113,-13.708 310.593,-13.708 299.553,-6.50796 C 288.513,0.692041 282.993,0.692041 271.953,-6.50796 L 271.953,-49.708"/>
    <text font-size="12.7998" style="fill: #000000;text-anchor:middle;font-family:sans-serif;font-style:normal;font-weight:normal" x="299.553" y="-34.708">
      <tspan x="299.553" y="-34.708">以太网</tspan>
      <tspan x="299.553" y="-18.708">目的地址</tspan>
    </text>
  </g>
  <line style="fill: none; fill-opacity:0; stroke-width: 2; stroke: #000000" x1="439.799" y1="-50.8526" x2="439.799" y2="-0.668908"/>
  <line style="fill: none; fill-opacity:0; stroke-width: 2; stroke: #000000" x1="499.848" y1="-50.8526" x2="499.848" y2="-0.668908"/>
  <line style="fill: none; fill-opacity:0; stroke-width: 2; stroke: #000000" x1="619.517" y1="-50.8526" x2="619.517" y2="-0.668908"/>
  <line style="fill: none; fill-opacity:0; stroke-width: 2; stroke: #000000" x1="635.662" y1="-50.4236" x2="635.662" y2="-0.239988"/>
  <line style="fill: none; fill-opacity:0; stroke-width: 2; stroke: #000000" x1="650.344" y1="-50.4236" x2="650.344" y2="-0.239988"/>
  <g>
    <path style="fill: #ffffff" d="M 680.687 -94.0554 L 761.687,-94.0554 L 761.687,-69.8154 C 745.487,-73.8554 737.387,-73.8554 721.187,-69.8154 C 704.987,-65.7754 696.887,-65.7754 680.687,-69.8154 L 680.687,-94.0554z"/>
    <path style="fill: none; fill-opacity:0; stroke-width: 0.2; stroke-dasharray: 4; stroke: #000000" d="M 680.687 -94.0554 L 761.687,-94.0554 L 761.687,-69.8154 C 745.487,-73.8554 737.387,-73.8554 721.187,-69.8154 C 704.987,-65.7754 696.887,-65.7754 680.687,-69.8154 L 680.687,-94.0554"/>
    <text font-size="12.7998" style="fill: #000000;text-anchor:middle;font-family:sans-serif;font-style:normal;font-weight:normal" x="721.187" y="-78.9554">
      <tspan x="721.187" y="-78.9554">硬件地址长度</tspan>
    </text>
  </g>
  <g>
    <path style="fill: #ffffff" d="M 639.425 -123.658 L 720.425,-123.658 L 720.425,-99.4183 C 704.225,-103.458 696.125,-103.458 679.925,-99.4183 C 663.725,-95.3783 655.625,-95.3783 639.425,-99.4183 L 639.425,-123.658z"/>
    <path style="fill: none; fill-opacity:0; stroke-width: 0.2; stroke-dasharray: 4; stroke: #000000" d="M 639.425 -123.658 L 720.425,-123.658 L 720.425,-99.4183 C 704.225,-103.458 696.125,-103.458 679.925,-99.4183 C 663.725,-95.3783 655.625,-95.3783 639.425,-99.4183 L 639.425,-123.658"/>
    <text font-size="12.7998" style="fill: #000000;text-anchor:middle;font-family:sans-serif;font-style:normal;font-weight:normal" x="679.925" y="-108.558">
      <tspan x="679.925" y="-108.558">协议地址长度</tspan>
    </text>
  </g>
  <line style="fill: none; fill-opacity:0; stroke-width: 2; stroke: #000000" x1="740.038" y1="-50.5658" x2="740.038" y2="-0.382148"/>
  <line style="fill: none; fill-opacity:0; stroke-width: 2; stroke: #000000" x1="800.654" y1="-50.8526" x2="800.654" y2="-0.668908"/>
  <line style="fill: none; fill-opacity:0; stroke-width: 2; stroke: #000000" x1="910.004" y1="-50.4236" x2="910.004" y2="-0.239988"/>
  <g>
    <path style="fill: #ffffff" d="M 520.103 0.759824 L 539.503,0.759824 L 539.503,24.7598 C 535.623,20.7598 533.683,20.7598 529.803,24.7598 C 525.923,28.7598 523.983,28.7598 520.103,24.7598 L 520.103,0.759824z"/>
    <path style="fill: none; fill-opacity:0; stroke-width: 0.02; stroke: #000000" d="M 520.103 0.759824 L 539.503,0.759824 L 539.503,24.7598 C 535.623,20.7598 533.683,20.7598 529.803,24.7598 C 525.923,28.7598 523.983,28.7598 520.103,24.7598 L 520.103,0.759824"/>
    <text font-size="12.8" style="fill: #000000;text-anchor:middle;font-family:monospace;font-style:normal;font-weight:normal" x="529.803" y="13.9598">
      <tspan x="529.803" y="13.9598">2</tspan>
    </text>
  </g>
  <g>
    <path style="fill: #ffffff" d="M 584.173 0.759824 L 603.573,0.759824 L 603.573,24.7598 C 599.693,20.7598 597.753,20.7598 593.873,24.7598 C 589.993,28.7598 588.053,28.7598 584.173,24.7598 L 584.173,0.759824z"/>
    <path style="fill: none; fill-opacity:0; stroke-width: 0.02; stroke: #000000" d="M 584.173 0.759824 L 603.573,0.759824 L 603.573,24.7598 C 599.693,20.7598 597.753,20.7598 593.873,24.7598 C 589.993,28.7598 588.053,28.7598 584.173,24.7598 L 584.173,0.759824"/>
    <text font-size="12.8" style="fill: #000000;text-anchor:middle;font-family:monospace;font-style:normal;font-weight:normal" x="593.873" y="13.9598">
      <tspan x="593.873" y="13.9598">2</tspan>
    </text>
  </g>
  <g>
    <path style="fill: #ffffff" d="M 621.333 0.759824 L 633.033,0.759824 L 633.033,24.7598 C 630.693,20.7598 629.523,20.7598 627.183,24.7598 C 624.843,28.7598 623.673,28.7598 621.333,24.7598 L 621.333,0.759824z"/>
    <path style="fill: none; fill-opacity:0; stroke-width: 0.02; stroke: #000000" d="M 621.333 0.759824 L 633.033,0.759824 L 633.033,24.7598 C 630.693,20.7598 629.523,20.7598 627.183,24.7598 C 624.843,28.7598 623.673,28.7598 621.333,24.7598 L 621.333,0.759824"/>
    <text font-size="12.8" style="fill: #000000;text-anchor:middle;font-family:monospace;font-style:normal;font-weight:normal" x="627.183" y="13.9598">
      <tspan x="627.183" y="13.9598">1</tspan>
    </text>
  </g>
  <g>
    <path style="fill: #ffffff" d="M 769.12 1.18695 L 780.82,1.18695 L 780.82,25.187 C 778.48,21.187 777.31,21.187 774.97,25.187 C 772.63,29.187 771.46,29.187 769.12,25.187 L 769.12,1.18695z"/>
    <path style="fill: none; fill-opacity:0; stroke-width: 0.02; stroke: #000000" d="M 769.12 1.18695 L 780.82,1.18695 L 780.82,25.187 C 778.48,21.187 777.31,21.187 774.97,25.187 C 772.63,29.187 771.46,29.187 769.12,25.187 L 769.12,1.18695"/>
    <text font-size="12.8" style="fill: #000000;text-anchor:middle;font-family:monospace;font-style:normal;font-weight:normal" x="774.97" y="14.387">
      <tspan x="774.97" y="14.387">4</tspan>
    </text>
  </g>
  <g>
    <path style="fill: #ffffff" d="M 637.991 0.759824 L 649.691,0.759824 L 649.691,24.7598 C 647.351,20.7598 646.181,20.7598 643.841,24.7598 C 641.501,28.7598 640.331,28.7598 637.991,24.7598 L 637.991,0.759824z"/>
    <path style="fill: none; fill-opacity:0; stroke-width: 0.02; stroke: #000000" d="M 637.991 0.759824 L 649.691,0.759824 L 649.691,24.7598 C 647.351,20.7598 646.181,20.7598 643.841,24.7598 C 641.501,28.7598 640.331,28.7598 637.991,24.7598 L 637.991,0.759824"/>
    <text font-size="12.8" style="fill: #000000;text-anchor:middle;font-family:monospace;font-style:normal;font-weight:normal" x="643.841" y="13.9598">
      <tspan x="643.841" y="13.9598">1</tspan>
    </text>
  </g>
  <g>
    <path style="fill: #ffffff" d="M 691.382 0.759824 L 710.782,0.759824 L 710.782,24.7598 C 706.902,20.7598 704.962,20.7598 701.082,24.7598 C 697.202,28.7598 695.262,28.7598 691.382,24.7598 L 691.382,0.759824z"/>
    <path style="fill: none; fill-opacity:0; stroke-width: 0.02; stroke: #000000" d="M 691.382 0.759824 L 710.782,0.759824 L 710.782,24.7598 C 706.902,20.7598 704.962,20.7598 701.082,24.7598 C 697.202,28.7598 695.262,28.7598 691.382,24.7598 L 691.382,0.759824"/>
    <text font-size="12.8" style="fill: #000000;text-anchor:middle;font-family:monospace;font-style:normal;font-weight:normal" x="701.082" y="13.9598">
      <tspan x="701.082" y="13.9598">6</tspan>
    </text>
  </g>
  <g>
    <path style="fill: #ffffff" d="M 848.139 0.759824 L 867.539,0.759824 L 867.539,24.7598 C 863.659,20.7598 861.719,20.7598 857.839,24.7598 C 853.959,28.7598 852.019,28.7598 848.139,24.7598 L 848.139,0.759824z"/>
    <path style="fill: none; fill-opacity:0; stroke-width: 0.02; stroke: #000000" d="M 848.139 0.759824 L 867.539,0.759824 L 867.539,24.7598 C 863.659,20.7598 861.719,20.7598 857.839,24.7598 C 853.959,28.7598 852.019,28.7598 848.139,24.7598 L 848.139,0.759824"/>
    <text font-size="12.8" style="fill: #000000;text-anchor:middle;font-family:monospace;font-style:normal;font-weight:normal" x="857.839" y="13.9598">
      <tspan x="857.839" y="13.9598">6</tspan>
    </text>
  </g>
  <g>
    <path style="fill: #ffffff" d="M 940.826 1.18695 L 952.526,1.18695 L 952.526,25.187 C 950.186,21.187 949.016,21.187 946.676,25.187 C 944.336,29.187 943.166,29.187 940.826,25.187 L 940.826,1.18695z"/>
    <path style="fill: none; fill-opacity:0; stroke-width: 0.02; stroke: #000000" d="M 940.826 1.18695 L 952.526,1.18695 L 952.526,25.187 C 950.186,21.187 949.016,21.187 946.676,25.187 C 944.336,29.187 943.166,29.187 940.826,25.187 L 940.826,1.18695"/>
    <text font-size="12.8" style="fill: #000000;text-anchor:middle;font-family:monospace;font-style:normal;font-weight:normal" x="946.676" y="14.387">
      <tspan x="946.676" y="14.387">4</tspan>
    </text>
  </g>
  <path style="fill: none; fill-opacity:0; stroke-width: 0.2; stroke-dasharray: 4; stroke: #000000" d="M 648.107,-97.4705 A 56.6577,56.6577 0 0 0 626.501,-52.2043"/>
  <path style="fill: none; fill-opacity:0; stroke-width: 0.2; stroke-dasharray: 4; stroke: #000000" d="M 680.657,-86.4731 A 51.2011,51.2011 0 0 0 644.441,-51.7772"/>
  <line style="fill: none; fill-opacity:0; stroke-width: 1; stroke: #000000" x1="270.575" y1="39.948" x2="270.497" y2="51.5463"/>
  <g>
    <path style="fill: #ffffff" d="M 338.722 31.4369 L 426.994,31.4369 L 426.994,55.4369 C 409.339,51.4369 400.512,51.4369 382.858,55.4369 C 365.203,59.4369 356.376,59.4369 338.722,55.4369 L 338.722,31.4369z"/>
    <path style="fill: none; fill-opacity:0; stroke-width: 0.02; stroke: #000000" d="M 338.722 31.4369 L 426.994,31.4369 L 426.994,55.4369 C 409.339,51.4369 400.512,51.4369 382.858,55.4369 C 365.203,59.4369 356.376,59.4369 338.722,55.4369 L 338.722,31.4369"/>
    <text font-size="12.7998" style="fill: #000000;text-anchor:middle;font-family:sans-serif;font-style:normal;font-weight:normal" x="382.858" y="46.4369">
      <tspan x="382.858" y="46.4369">以太网首部</tspan>
    </text>
  </g>
  <g>
    <line style="fill: none; fill-opacity:0; stroke-width: 1; stroke: #000000" x1="338.735" y1="45.5588" x2="281.036" y2="45.7182"/>
    <polygon style="fill: #000000" points="281.022,40.7182 271.036,45.7458 281.05,50.7181 "/>
    <polygon style="fill: none; fill-opacity:0; stroke-width: 1; stroke: #000000" points="281.022,40.7182 271.036,45.7458 281.05,50.7181 "/>
  </g>
  <line style="fill: none; fill-opacity:0; stroke-width: 1; stroke: #000000" x1="499.93" y1="38.0143" x2="499.851" y2="49.6126"/>
  <g>
    <line style="fill: none; fill-opacity:0; stroke-width: 1; stroke: #000000" x1="426.994" y1="43.4369" x2="489.391" y2="43.7592"/>
    <polygon style="fill: #000000" points="489.365,48.7591 499.39,43.8109 489.416,38.7593 "/>
    <polygon style="fill: none; fill-opacity:0; stroke-width: 1; stroke: #000000" points="489.365,48.7591 499.39,43.8109 489.416,38.7593 "/>
  </g>
  <g>
    <path style="fill: #ffffff" d="M 636.104 30.4713 L 823.361,30.4713 L 823.361,54.4713 C 785.91,50.4713 767.184,50.4713 729.733,54.4713 C 692.281,58.4713 673.556,58.4713 636.104,54.4713 L 636.104,30.4713z"/>
    <path style="fill: none; fill-opacity:0; stroke-width: 0.02; stroke: #000000" d="M 636.104 30.4713 L 823.361,30.4713 L 823.361,54.4713 C 785.91,50.4713 767.184,50.4713 729.733,54.4713 C 692.281,58.4713 673.556,58.4713 636.104,54.4713 L 636.104,30.4713"/>
    <text font-size="12.7998" style="fill: #000000;text-anchor:middle;font-family:sans-serif;font-style:normal;font-weight:normal" x="729.733" y="45.4713">
      <tspan x="729.733" y="45.4713">28字节ARP/RARP请求与应答</tspan>
    </text>
  </g>
  <g>
    <line style="fill: none; fill-opacity:0; stroke-width: 1; stroke: #000000" x1="636.1" y1="44.2033" x2="510.39" y2="43.8435"/>
    <polygon style="fill: #000000" points="510.405,38.8435 500.39,43.8149 510.376,48.8435 "/>
    <polygon style="fill: none; fill-opacity:0; stroke-width: 1; stroke: #000000" points="510.405,38.8435 500.39,43.8149 510.376,48.8435 "/>
  </g>
  <line style="fill: none; fill-opacity:0; stroke-width: 1; stroke: #000000" x1="970.271" y1="36.1918" x2="970.193" y2="47.7901"/>
  <g>
    <line style="fill: none; fill-opacity:0; stroke-width: 1; stroke: #000000" x1="823.361" y1="42.4713" x2="959.732" y2="42.0253"/>
    <polygon style="fill: #000000" points="959.748,47.0252 969.732,41.9926 959.716,37.0253 "/>
    <polygon style="fill: none; fill-opacity:0; stroke-width: 1; stroke: #000000" points="959.748,47.0252 969.732,41.9926 959.716,37.0253 "/>
  </g>
</svg>
