<?xml version="1.0" encoding="UTF-8" standalone="no"?>
<!DOCTYPE svg PUBLIC "-//W3C//DTD SVG 1.0//EN" "http://www.w3.org/TR/2001/PR-SVG-20010719/DTD/svg10.dtd">
<svg width="36cm" height="9cm" viewBox="269 -125 702 174" xmlns="http://www.w3.org/2000/svg" xmlns:xlink="http://www.w3.org/1999/xlink">
  <g>
    <path style="fill: #ffffff" d="M 291.312 1.03381 L 310.712,1.03381 L 310.712,25.0338 C 306.832,21.0338 304.892,21.0338 301.012,25.0338 C 297.132,29.0338 295.192,29.0338 291.312,25.0338 L 291.312,1.03381z"/>
    <path style="fill: none; fill-opacity:0; stroke-width: 0.02; stroke: #000000" d="M 291.312 1.03381 L 310.712,1.03381 L 310.712,25.0338 C 306.832,21.0338 304.892,21.0338 301.012,25.0338 C 297.132,29.0338 295.192,29.0338 291.312,25.0338 L 291.312,1.03381"/>
    <text font-size="12.8" style="fill: #000000;text-anchor:middle;font-family:monospace;font-style:normal;font-weight:normal" x="301.012" y="14.2338">
      <tspan x="301.012" y="14.2338">6</tspan>
    </text>
  </g>
  <g>
    <path style="fill: #ffffff" d="M 383.908 1.0356 L 403.308,1.0356 L 403.308,25.0356 C 399.428,21.0356 397.488,21.0356 393.608,25.0356 C 389.728,29.0356 387.788,29.0356 383.908,25.0356 L 383.908,1.0356z"/>
    <path style="fill: none; fill-opacity:0; stroke-width: 0.02; stroke: #000000" d="M 383.908 1.0356 L 403.308,1.0356 L 403.308,25.0356 C 399.428,21.0356 397.488,21.0356 393.608,25.0356 C 389.728,29.0356 387.788,29.0356 383.908,25.0356 L 383.908,1.0356"/>
    <text font-size="12.8" style="fill: #000000;text-anchor:middle;font-family:monospace;font-style:normal;font-weight:normal" x="393.608" y="14.2356">
      <tspan x="393.608" y="14.2356">6</tspan>
    </text>
  </g>
  <g>
    <path style="fill: #ffffff" d="M 463.402 1.50274 L 482.802,1.50274 L 482.802,25.5027 C 478.922,21.5027 476.982,21.5027 473.102,25.5027 C 469.222,29.5027 467.282,29.5027 463.402,25.5027 L 463.402,1.50274z"/>
    <path style="fill: none; fill-opacity:0; stroke-width: 0.02; stroke: #000000" d="M 463.402 1.50274 L 482.802,1.50274 L 482.802,25.5027 C 478.922,21.5027 476.982,21.5027 473.102,25.5027 C 469.222,29.5027 467.282,29.5027 463.402,25.5027 L 463.402,1.50274"/>
    <text font-size="12.8" style="fill: #000000;text-anchor:middle;font-family:monospace;font-style:normal;font-weight:normal" x="473.102" y="14.7027">
      <tspan x="473.102" y="14.7027">2</tspan>
    </text>
  </g>
  <g>
    <rect style="fill: #ffffff" x="270.702" y="-51.376" width="699.524" height="50.9938"/>
    <rect style="fill: none; fill-opacity:0; stroke-width: 2; stroke: #000000" x="270.702" y="-51.376" width="699.524" height="50.9938"/>
    <text font-size="12.8" style="fill: #000000;text-anchor:middle;font-family:sans-serif;font-style:normal;font-weight:normal" x="620.464" y="-21.0791">
      <tspan x="620.464" y="-21.0791"></tspan>
    </text>
  </g>
  <g>
    <path style="fill: #ffffff" d="M 374.26 -49.8658 L 416.66,-49.8658 L 416.66,-6.6658 C 408.18,-13.8658 403.94,-13.8658 395.46,-6.6658 C 386.98,0.5342 382.74,0.5342 374.26,-6.6658 L 374.26,-49.8658z"/>
    <path style="fill: none; fill-opacity:0; stroke-width: 0.02; stroke: #000000" d="M 374.26 -49.8658 L 416.66,-49.8658 L 416.66,-6.6658 C 408.18,-13.8658 403.94,-13.8658 395.46,-6.6658 C 386.98,0.5342 382.74,0.5342 374.26,-6.6658 L 374.26,-49.8658"/>
    <text font-size="12.8" style="fill: #000000;text-anchor:middle;font-family:sans-serif;font-style:normal;font-weight:normal" x="395.46" y="-35.0658">
      <tspan x="395.46" y="-35.0658">以太网</tspan>
      <tspan x="395.46" y="-19.0658">源地址</tspan>
    </text>
  </g>
  <g>
    <path style="fill: #ffffff" d="M 455.84 -49.761 L 485.44,-49.761 L 485.44,-6.561 C 479.52,-13.761 476.56,-13.761 470.64,-6.561 C 464.72,0.639 461.76,0.639 455.84,-6.561 L 455.84,-49.761z"/>
    <path style="fill: none; fill-opacity:0; stroke-width: 0.02; stroke: #000000" d="M 455.84 -49.761 L 485.44,-49.761 L 485.44,-6.561 C 479.52,-13.761 476.56,-13.761 470.64,-6.561 C 464.72,0.639 461.76,0.639 455.84,-6.561 L 455.84,-49.761"/>
    <text font-size="12.8" style="fill: #000000;text-anchor:middle;font-family:sans-serif;font-style:normal;font-weight:normal" x="470.64" y="-34.961">
      <tspan x="470.64" y="-34.961">帧</tspan>
      <tspan x="470.64" y="-18.961">类型</tspan>
    </text>
  </g>
  <g>
    <path style="fill: #ffffff" d="M 516.702 -49.8658 L 546.302,-49.8658 L 546.302,-6.6658 C 540.382,-13.8658 537.422,-13.8658 531.502,-6.6658 C 525.582,0.5342 522.622,0.5342 516.702,-6.6658 L 516.702,-49.8658z"/>
    <path style="fill: none; fill-opacity:0; stroke-width: 0.02; stroke: #000000" d="M 516.702 -49.8658 L 546.302,-49.8658 L 546.302,-6.6658 C 540.382,-13.8658 537.422,-13.8658 531.502,-6.6658 C 525.582,0.5342 522.622,0.5342 516.702,-6.6658 L 516.702,-49.8658"/>
    <text font-size="12.8" style="fill: #000000;text-anchor:middle;font-family:sans-serif;font-style:normal;font-weight:normal" x="531.502" y="-35.0658">
      <tspan x="531.502" y="-35.0658">硬件</tspan>
      <tspan x="531.502" y="-19.0658">类型</tspan>
    </text>
  </g>
  <g>
    <path style="fill: #ffffff" d="M 575.894 -49.8658 L 605.494,-49.8658 L 605.494,-6.6658 C 599.574,-13.8658 596.614,-13.8658 590.694,-6.6658 C 584.774,0.5342 581.814,0.5342 575.894,-6.6658 L 575.894,-49.8658z"/>
    <path style="fill: none; fill-opacity:0; stroke-width: 0.02; stroke: #000000" d="M 575.894 -49.8658 L 605.494,-49.8658 L 605.494,-6.6658 C 599.574,-13.8658 596.614,-13.8658 590.694,-6.6658 C 584.774,0.5342 581.814,0.5342 575.894,-6.6658 L 575.894,-49.8658"/>
    <text font-size="12.8" style="fill: #000000;text-anchor:middle;font-family:sans-serif;font-style:normal;font-weight:normal" x="590.694" y="-35.0658">
      <tspan x="590.694" y="-35.0658">协议</tspan>
      <tspan x="590.694" y="-19.0658">类型</tspan>
    </text>
  </g>
  <g>
    <path style="fill: #ffffff" d="M 662.806 -49.9138 L 730.806,-49.9138 L 730.806,-6.7138 C 717.206,-13.9138 710.406,-13.9138 696.806,-6.7138 C 683.206,0.4862 676.406,0.4862 662.806,-6.7138 L 662.806,-49.9138z"/>
    <path style="fill: none; fill-opacity:0; stroke-width: 0.02; stroke: #000000" d="M 662.806 -49.9138 L 730.806,-49.9138 L 730.806,-6.7138 C 717.206,-13.9138 710.406,-13.9138 696.806,-6.7138 C 683.206,0.4862 676.406,0.4862 662.806,-6.7138 L 662.806,-49.9138"/>
    <text font-size="12.8" style="fill: #000000;text-anchor:middle;font-family:sans-serif;font-style:normal;font-weight:normal" x="696.806" y="-35.1138">
      <tspan x="696.806" y="-35.1138">发送端</tspan>
      <tspan x="696.806" y="-19.1138">以太网地址</tspan>
    </text>
  </g>
  <g>
    <path style="fill: #ffffff" d="M 748.49 -49.8658 L 790.89,-49.8658 L 790.89,-6.6658 C 782.41,-13.8658 778.17,-13.8658 769.69,-6.6658 C 761.21,0.5342 756.97,0.5342 748.49,-6.6658 L 748.49,-49.8658z"/>
    <path style="fill: none; fill-opacity:0; stroke-width: 0.02; stroke: #000000" d="M 748.49 -49.8658 L 790.89,-49.8658 L 790.89,-6.6658 C 782.41,-13.8658 778.17,-13.8658 769.69,-6.6658 C 761.21,0.5342 756.97,0.5342 748.49,-6.6658 L 748.49,-49.8658"/>
    <text font-size="12.8" style="fill: #000000;text-anchor:middle;font-family:sans-serif;font-style:normal;font-weight:normal" x="769.69" y="-35.0658">
      <tspan x="769.69" y="-35.0658">发送端</tspan>
      <tspan x="769.69" y="-19.0658">IP地址</tspan>
    </text>
  </g>
  <g>
    <path style="fill: #ffffff" d="M 821.234 -49.8658 L 889.234,-49.8658 L 889.234,-6.6658 C 875.634,-13.8658 868.834,-13.8658 855.234,-6.6658 C 841.634,0.5342 834.834,0.5342 821.234,-6.6658 L 821.234,-49.8658z"/>
    <path style="fill: none; fill-opacity:0; stroke-width: 0.02; stroke: #000000" d="M 821.234 -49.8658 L 889.234,-49.8658 L 889.234,-6.6658 C 875.634,-13.8658 868.834,-13.8658 855.234,-6.6658 C 841.634,0.5342 834.834,0.5342 821.234,-6.6658 L 821.234,-49.8658"/>
    <text font-size="12.8" style="fill: #000000;text-anchor:middle;font-family:sans-serif;font-style:normal;font-weight:normal" x="855.234" y="-35.0658">
      <tspan x="855.234" y="-35.0658">目的以太网</tspan>
      <tspan x="855.234" y="-19.0658">地址</tspan>
    </text>
  </g>
  <g>
    <path style="fill: #ffffff" d="M 919.608 -49.9854 L 961.058,-49.9854 L 961.058,-6.78535 C 952.768,-13.9854 948.623,-13.9854 940.333,-6.78535 C 932.043,0.414646 927.898,0.414646 919.608,-6.78535 L 919.608,-49.9854z"/>
    <path style="fill: none; fill-opacity:0; stroke-width: 0.02; stroke: #000000" d="M 919.608 -49.9854 L 961.058,-49.9854 L 961.058,-6.78535 C 952.768,-13.9854 948.623,-13.9854 940.333,-6.78535 C 932.043,0.414646 927.898,0.414646 919.608,-6.78535 L 919.608,-49.9854"/>
    <text font-size="12.8" style="fill: #000000;text-anchor:middle;font-family:sans-serif;font-style:normal;font-weight:normal" x="940.333" y="-35.1854">
      <tspan x="940.333" y="-35.1854">目的</tspan>
      <tspan x="940.333" y="-19.1854">IP地址</tspan>
    </text>
  </g>
  <line style="fill: none; fill-opacity:0; stroke-width: 2; stroke: #000000" x1="559.638" y1="-50.9948" x2="559.638" y2="-0.811068"/>
  <line style="fill: none; fill-opacity:0; stroke-width: 2; stroke: #000000" x1="349.996" y1="-50.4236" x2="349.996" y2="-0.239823"/>
  <g>
    <path style="fill: #ffffff" d="M 271.952 -49.708 L 327.152,-49.708 L 327.152,-6.508 C 316.112,-13.708 310.592,-13.708 299.552,-6.508 C 288.512,0.692 282.992,0.692 271.952,-6.508 L 271.952,-49.708z"/>
    <path style="fill: none; fill-opacity:0; stroke-width: 0.02; stroke: #000000" d="M 271.952 -49.708 L 327.152,-49.708 L 327.152,-6.508 C 316.112,-13.708 310.592,-13.708 299.552,-6.508 C 288.512,0.692 282.992,0.692 271.952,-6.508 L 271.952,-49.708"/>
    <text font-size="12.8" style="fill: #000000;text-anchor:middle;font-family:sans-serif;font-style:normal;font-weight:normal" x="299.552" y="-34.908">
      <tspan x="299.552" y="-34.908">以太网</tspan>
      <tspan x="299.552" y="-18.908">目的地址</tspan>
    </text>
  </g>
  <line style="fill: none; fill-opacity:0; stroke-width: 2; stroke: #000000" x1="439.8" y1="-50.8526" x2="439.8" y2="-0.668908"/>
  <line style="fill: none; fill-opacity:0; stroke-width: 2; stroke: #000000" x1="499.848" y1="-50.8526" x2="499.848" y2="-0.668908"/>
  <line style="fill: none; fill-opacity:0; stroke-width: 2; stroke: #000000" x1="619.516" y1="-50.8526" x2="619.516" y2="-0.668908"/>
  <line style="fill: none; fill-opacity:0; stroke-width: 2; stroke: #000000" x1="635.662" y1="-50.4236" x2="635.662" y2="-0.239988"/>
  <line style="fill: none; fill-opacity:0; stroke-width: 2; stroke: #000000" x1="650.344" y1="-50.4236" x2="650.344" y2="-0.239988"/>
  <g>
    <path style="fill: #ffffff" d="M 680.686 -94.0554 L 761.686,-94.0554 L 761.686,-69.8154 C 745.486,-73.8554 737.386,-73.8554 721.186,-69.8154 C 704.986,-65.7754 696.886,-65.7754 680.686,-69.8154 L 680.686,-94.0554z"/>
    <path style="fill: none; fill-opacity:0; stroke-width: 0.2; stroke-dasharray: 4; stroke: #000000" d="M 680.686 -94.0554 L 761.686,-94.0554 L 761.686,-69.8154 C 745.486,-73.8554 737.386,-73.8554 721.186,-69.8154 C 704.986,-65.7754 696.886,-65.7754 680.686,-69.8154 L 680.686,-94.0554"/>
    <text font-size="12.8" style="fill: #000000;text-anchor:middle;font-family:sans-serif;font-style:normal;font-weight:normal" x="721.186" y="-79.1554">
      <tspan x="721.186" y="-79.1554">硬件地址长度</tspan>
    </text>
  </g>
  <g>
    <path style="fill: #ffffff" d="M 639.426 -123.658 L 720.426,-123.658 L 720.426,-99.4184 C 704.226,-103.458 696.126,-103.458 679.926,-99.4184 C 663.726,-95.3784 655.626,-95.3784 639.426,-99.4184 L 639.426,-123.658z"/>
    <path style="fill: none; fill-opacity:0; stroke-width: 0.2; stroke-dasharray: 4; stroke: #000000" d="M 639.426 -123.658 L 720.426,-123.658 L 720.426,-99.4184 C 704.226,-103.458 696.126,-103.458 679.926,-99.4184 C 663.726,-95.3784 655.626,-95.3784 639.426,-99.4184 L 639.426,-123.658"/>
    <text font-size="12.8" style="fill: #000000;text-anchor:middle;font-family:sans-serif;font-style:normal;font-weight:normal" x="679.926" y="-108.758">
      <tspan x="679.926" y="-108.758">协议地址长度</tspan>
    </text>
  </g>
  <line style="fill: none; fill-opacity:0; stroke-width: 2; stroke: #000000" x1="740.038" y1="-50.5658" x2="740.038" y2="-0.382148"/>
  <line style="fill: none; fill-opacity:0; stroke-width: 2; stroke: #000000" x1="800.654" y1="-50.8526" x2="800.654" y2="-0.668908"/>
  <line style="fill: none; fill-opacity:0; stroke-width: 2; stroke: #000000" x1="910.004" y1="-50.4236" x2="910.004" y2="-0.239988"/>
  <g>
    <path style="fill: #ffffff" d="M 520.104 0.759824 L 539.504,0.759824 L 539.504,24.7598 C 535.624,20.7598 533.684,20.7598 529.804,24.7598 C 525.924,28.7598 523.984,28.7598 520.104,24.7598 L 520.104,0.759824z"/>
    <path style="fill: none; fill-opacity:0; stroke-width: 0.02; stroke: #000000" d="M 520.104 0.759824 L 539.504,0.759824 L 539.504,24.7598 C 535.624,20.7598 533.684,20.7598 529.804,24.7598 C 525.924,28.7598 523.984,28.7598 520.104,24.7598 L 520.104,0.759824"/>
    <text font-size="12.8" style="fill: #000000;text-anchor:middle;font-family:monospace;font-style:normal;font-weight:normal" x="529.804" y="13.9598">
      <tspan x="529.804" y="13.9598">2</tspan>
    </text>
  </g>
  <g>
    <path style="fill: #ffffff" d="M 584.172 0.759824 L 603.572,0.759824 L 603.572,24.7598 C 599.692,20.7598 597.752,20.7598 593.872,24.7598 C 589.992,28.7598 588.052,28.7598 584.172,24.7598 L 584.172,0.759824z"/>
    <path style="fill: none; fill-opacity:0; stroke-width: 0.02; stroke: #000000" d="M 584.172 0.759824 L 603.572,0.759824 L 603.572,24.7598 C 599.692,20.7598 597.752,20.7598 593.872,24.7598 C 589.992,28.7598 588.052,28.7598 584.172,24.7598 L 584.172,0.759824"/>
    <text font-size="12.8" style="fill: #000000;text-anchor:middle;font-family:monospace;font-style:normal;font-weight:normal" x="593.872" y="13.9598">
      <tspan x="593.872" y="13.9598">2</tspan>
    </text>
  </g>
  <g>
    <path style="fill: #ffffff" d="M 621.334 0.759824 L 633.034,0.759824 L 633.034,24.7598 C 630.694,20.7598 629.524,20.7598 627.184,24.7598 C 624.844,28.7598 623.674,28.7598 621.334,24.7598 L 621.334,0.759824z"/>
    <path style="fill: none; fill-opacity:0; stroke-width: 0.02; stroke: #000000" d="M 621.334 0.759824 L 633.034,0.759824 L 633.034,24.7598 C 630.694,20.7598 629.524,20.7598 627.184,24.7598 C 624.844,28.7598 623.674,28.7598 621.334,24.7598 L 621.334,0.759824"/>
    <text font-size="12.8" style="fill: #000000;text-anchor:middle;font-family:monospace;font-style:normal;font-weight:normal" x="627.184" y="13.9598">
      <tspan x="627.184" y="13.9598">1</tspan>
    </text>
  </g>
  <g>
    <path style="fill: #ffffff" d="M 769.12 1.18695 L 780.82,1.18695 L 780.82,25.187 C 778.48,21.187 777.31,21.187 774.97,25.187 C 772.63,29.187 771.46,29.187 769.12,25.187 L 769.12,1.18695z"/>
    <path style="fill: none; fill-opacity:0; stroke-width: 0.02; stroke: #000000" d="M 769.12 1.18695 L 780.82,1.18695 L 780.82,25.187 C 778.48,21.187 777.31,21.187 774.97,25.187 C 772.63,29.187 771.46,29.187 769.12,25.187 L 769.12,1.18695"/>
    <text font-size="12.8" style="fill: #000000;text-anchor:middle;font-family:monospace;font-style:normal;font-weight:normal" x="774.97" y="14.387">
      <tspan x="774.97" y="14.387">4</tspan>
    </text>
  </g>
  <g>
    <path style="fill: #ffffff" d="M 637.992 0.759824 L 649.692,0.759824 L 649.692,24.7598 C 647.352,20.7598 646.182,20.7598 643.842,24.7598 C 641.502,28.7598 640.332,28.7598 637.992,24.7598 L 637.992,0.759824z"/>
    <path style="fill: none; fill-opacity:0; stroke-width: 0.02; stroke: #000000" d="M 637.992 0.759824 L 649.692,0.759824 L 649.692,24.7598 C 647.352,20.7598 646.182,20.7598 643.842,24.7598 C 641.502,28.7598 640.332,28.7598 637.992,24.7598 L 637.992,0.759824"/>
    <text font-size="12.8" style="fill: #000000;text-anchor:middle;font-family:monospace;font-style:normal;font-weight:normal" x="643.842" y="13.9598">
      <tspan x="643.842" y="13.9598">1</tspan>
    </text>
  </g>
  <g>
    <path style="fill: #ffffff" d="M 691.382 0.759824 L 710.782,0.759824 L 710.782,24.7598 C 706.902,20.7598 704.962,20.7598 701.082,24.7598 C 697.202,28.7598 695.262,28.7598 691.382,24.7598 L 691.382,0.759824z"/>
    <path style="fill: none; fill-opacity:0; stroke-width: 0.02; stroke: #000000" d="M 691.382 0.759824 L 710.782,0.759824 L 710.782,24.7598 C 706.902,20.7598 704.962,20.7598 701.082,24.7598 C 697.202,28.7598 695.262,28.7598 691.382,24.7598 L 691.382,0.759824"/>
    <text font-size="12.8" style="fill: #000000;text-anchor:middle;font-family:monospace;font-style:normal;font-weight:normal" x="701.082" y="13.9598">
      <tspan x="701.082" y="13.9598">6</tspan>
    </text>
  </g>
  <g>
    <path style="fill: #ffffff" d="M 848.14 0.759824 L 867.54,0.759824 L 867.54,24.7598 C 863.66,20.7598 861.72,20.7598 857.84,24.7598 C 853.96,28.7598 852.02,28.7598 848.14,24.7598 L 848.14,0.759824z"/>
    <path style="fill: none; fill-opacity:0; stroke-width: 0.02; stroke: #000000" d="M 848.14 0.759824 L 867.54,0.759824 L 867.54,24.7598 C 863.66,20.7598 861.72,20.7598 857.84,24.7598 C 853.96,28.7598 852.02,28.7598 848.14,24.7598 L 848.14,0.759824"/>
    <text font-size="12.8" style="fill: #000000;text-anchor:middle;font-family:monospace;font-style:normal;font-weight:normal" x="857.84" y="13.9598">
      <tspan x="857.84" y="13.9598">6</tspan>
    </text>
  </g>
  <g>
    <path style="fill: #ffffff" d="M 940.826 1.18695 L 952.526,1.18695 L 952.526,25.187 C 950.186,21.187 949.016,21.187 946.676,25.187 C 944.336,29.187 943.166,29.187 940.826,25.187 L 940.826,1.18695z"/>
    <path style="fill: none; fill-opacity:0; stroke-width: 0.02; stroke: #000000" d="M 940.826 1.18695 L 952.526,1.18695 L 952.526,25.187 C 950.186,21.187 949.016,21.187 946.676,25.187 C 944.336,29.187 943.166,29.187 940.826,25.187 L 940.826,1.18695"/>
    <text font-size="12.8" style="fill: #000000;text-anchor:middle;font-family:monospace;font-style:normal;font-weight:normal" x="946.676" y="14.387">
      <tspan x="946.676" y="14.387">4</tspan>
    </text>
  </g>
  <path style="fill: none; fill-opacity:0; stroke-width: 0.2; stroke-dasharray: 4; stroke: #000000" d="M 648.108,-97.4704 A 56.6578,56.6578 0 0 0 626.502,-52.2042"/>
  <path style="fill: none; fill-opacity:0; stroke-width: 0.2; stroke-dasharray: 4; stroke: #000000" d="M 680.657,-86.4731 A 51.2012,51.2012 0 0 0 644.44,-51.7772"/>
  <line style="fill: none; fill-opacity:0; stroke-width: 1; stroke: #000000" x1="270.576" y1="29.2291" x2="270.496" y2="40.8273"/>
  <g>
    <path style="fill: #ffffff" d="M 338.722 20.7179 L 426.994,20.7179 L 426.994,44.7179 C 409.34,40.7179 400.512,40.7179 382.858,44.7179 C 365.204,48.7179 356.376,48.7179 338.722,44.7179 L 338.722,20.7179z"/>
    <path style="fill: none; fill-opacity:0; stroke-width: 0.02; stroke: #000000" d="M 338.722 20.7179 L 426.994,20.7179 L 426.994,44.7179 C 409.34,40.7179 400.512,40.7179 382.858,44.7179 C 365.204,48.7179 356.376,48.7179 338.722,44.7179 L 338.722,20.7179"/>
    <text font-size="12.8" style="fill: #000000;text-anchor:middle;font-family:sans-serif;font-style:normal;font-weight:normal" x="382.858" y="35.5179">
      <tspan x="382.858" y="35.5179">以太网首部</tspan>
    </text>
  </g>
  <g>
    <line style="fill: none; fill-opacity:0; stroke-width: 1; stroke: #000000" x1="338.735" y1="34.8398" x2="281.036" y2="34.9992"/>
    <polygon style="fill: #000000" points="281.022,29.9993 271.036,35.0269 281.05,39.9992 "/>
    <polygon style="fill: none; fill-opacity:0; stroke-width: 1; stroke: #000000" points="281.022,29.9993 271.036,35.0269 281.05,39.9992 "/>
  </g>
  <line style="fill: none; fill-opacity:0; stroke-width: 1; stroke: #000000" x1="499.93" y1="27.2955" x2="499.852" y2="38.8937"/>
  <g>
    <line style="fill: none; fill-opacity:0; stroke-width: 1; stroke: #000000" x1="426.994" y1="32.7179" x2="489.391" y2="33.0404"/>
    <polygon style="fill: #000000" points="489.365,38.0403 499.391,33.0921 489.417,28.0405 "/>
    <polygon style="fill: none; fill-opacity:0; stroke-width: 1; stroke: #000000" points="489.365,38.0403 499.391,33.0921 489.417,28.0405 "/>
  </g>
  <g>
    <path style="fill: #ffffff" d="M 636.104 19.7525 L 823.361,19.7525 L 823.361,43.7525 C 785.909,39.7525 767.184,39.7525 729.732,43.7525 C 692.281,47.7525 673.555,47.7525 636.104,43.7525 L 636.104,19.7525z"/>
    <path style="fill: none; fill-opacity:0; stroke-width: 0.02; stroke: #000000" d="M 636.104 19.7525 L 823.361,19.7525 L 823.361,43.7525 C 785.909,39.7525 767.184,39.7525 729.732,43.7525 C 692.281,47.7525 673.555,47.7525 636.104,43.7525 L 636.104,19.7525"/>
    <text font-size="12.8" style="fill: #000000;text-anchor:middle;font-family:sans-serif;font-style:normal;font-weight:normal" x="729.732" y="34.5525">
      <tspan x="729.732" y="34.5525">28字节ARP/RARP请求与应答</tspan>
    </text>
  </g>
  <g>
    <line style="fill: none; fill-opacity:0; stroke-width: 1; stroke: #000000" x1="636.1" y1="33.4845" x2="510.391" y2="33.1247"/>
    <polygon style="fill: #000000" points="510.405,28.1247 500.391,33.0961 510.377,38.1247 "/>
    <polygon style="fill: none; fill-opacity:0; stroke-width: 1; stroke: #000000" points="510.405,28.1247 500.391,33.0961 510.377,38.1247 "/>
  </g>
  <line style="fill: none; fill-opacity:0; stroke-width: 1; stroke: #000000" x1="970.272" y1="25.4729" x2="970.192" y2="37.0711"/>
  <g>
    <line style="fill: none; fill-opacity:0; stroke-width: 1; stroke: #000000" x1="823.361" y1="31.7525" x2="959.732" y2="31.3064"/>
    <polygon style="fill: #000000" points="959.748,36.3064 969.732,31.2737 959.716,26.3064 "/>
    <polygon style="fill: none; fill-opacity:0; stroke-width: 1; stroke: #000000" points="959.748,36.3064 969.732,31.2737 959.716,26.3064 "/>
  </g>
</svg>
