<?xml version="1.0" encoding="UTF-8" standalone="no"?>
<!DOCTYPE svg PUBLIC "-//W3C//DTD SVG 1.0//EN" "http://www.w3.org/TR/2001/PR-SVG-20010719/DTD/svg10.dtd">
<svg width="39cm" height="30cm" viewBox="97 22 761 584" xmlns="http://www.w3.org/2000/svg" xmlns:xlink="http://www.w3.org/1999/xlink">
  <g>
    <rect style="fill: #ffffff" x="99" y="441" width="660" height="48"/>
    <rect style="fill: none; fill-opacity:0; stroke-width: 2; stroke: #000000" x="99" y="441" width="660" height="48"/>
    <text font-size="12.8" style="fill: #000000;text-anchor:middle;font-family:monospace;font-style:normal;font-weight:normal" x="429" y="467.65">
      <tspan x="429" y="467.65"></tspan>
    </text>
  </g>
  <g>
    <path style="fill: none; fill-opacity:0; stroke-width: 0.02; stroke: #000000" d="M 110.8 441.8 L 153.2,441.8 L 153.2,485 C 144.72,477.8 140.48,477.8 132,485 C 123.52,492.2 119.28,492.2 110.8,485 L 110.8,441.8"/>
    <text font-size="12.8" style="fill: #000000;text-anchor:middle;font-family:monospace;font-style:normal;font-weight:normal" x="132" y="455">
      <tspan x="132" y="455">以太网</tspan>
      <tspan x="132" y="471">首部</tspan>
    </text>
  </g>
  <line style="fill: none; fill-opacity:0; stroke-width: 2; stroke: #000000" x1="171.457" y1="442" x2="171" y2="488"/>
  <g>
    <path style="fill: #ffffff" d="M 109 492 L 149,492 L 149,516 C 141,512 137,512 129,516 C 121,520 117,520 109,516 L 109,492z"/>
    <path style="fill: none; fill-opacity:0; stroke-width: 0.02; stroke: #000000" d="M 109 492 L 149,492 L 149,516 C 141,512 137,512 129,516 C 121,520 117,520 109,516 L 109,492"/>
    <text font-size="12.8" style="fill: #000000;text-anchor:middle;font-family:monospace;font-style:normal;font-weight:normal" x="129" y="505.2">
      <tspan x="129" y="505.2">14</tspan>
    </text>
  </g>
  <g>
    <path style="fill: #ffffff" d="M 195.5 450 L 240.5,450 L 240.5,474 C 231.5,470 227,470 218,474 C 209,478 204.5,478 195.5,474 L 195.5,450z"/>
    <path style="fill: none; fill-opacity:0; stroke-width: 0.02; stroke: #000000" d="M 195.5 450 L 240.5,450 L 240.5,474 C 231.5,470 227,470 218,474 C 209,478 204.5,478 195.5,474 L 195.5,450"/>
    <text font-size="12.8" style="fill: #000000;text-anchor:middle;font-family:monospace;font-style:normal;font-weight:normal" x="218" y="463.2">
      <tspan x="218" y="463.2">IP首部</tspan>
    </text>
  </g>
  <g>
    <path style="fill: #ffffff" d="M 193.9 493 L 233.9,493 L 233.9,517 C 225.9,513 221.9,513 213.9,517 C 205.9,521 201.9,521 193.9,517 L 193.9,493z"/>
    <path style="fill: none; fill-opacity:0; stroke-width: 0.02; stroke: #000000" d="M 193.9 493 L 233.9,493 L 233.9,517 C 225.9,513 221.9,513 213.9,517 C 205.9,521 201.9,521 193.9,517 L 193.9,493"/>
    <text font-size="12.8" style="fill: #000000;text-anchor:middle;font-family:monospace;font-style:normal;font-weight:normal" x="213.9" y="506.2">
      <tspan x="213.9" y="506.2">20</tspan>
    </text>
  </g>
  <line style="fill: none; fill-opacity:0; stroke-width: 2; stroke: #000000" x1="270.366" y1="442.01" x2="269.91" y2="488.01"/>
  <line style="fill: none; fill-opacity:0; stroke-width: 2; stroke: #000000" x1="371.366" y1="442.01" x2="370.91" y2="488.01"/>
  <g>
    <path style="fill: #ffffff" d="M 288.9 492 L 328.9,492 L 328.9,516 C 320.9,512 316.9,512 308.9,516 C 300.9,520 296.9,520 288.9,516 L 288.9,492z"/>
    <path style="fill: none; fill-opacity:0; stroke-width: 0.02; stroke: #000000" d="M 288.9 492 L 328.9,492 L 328.9,516 C 320.9,512 316.9,512 308.9,516 C 300.9,520 296.9,520 288.9,516 L 288.9,492"/>
    <text font-size="12.8" style="fill: #000000;text-anchor:middle;font-family:monospace;font-style:normal;font-weight:normal" x="308.9" y="505.2">
      <tspan x="308.9" y="505.2">20</tspan>
    </text>
  </g>
  <g>
    <path style="fill: #ffffff" d="M 290.276 450 L 342.976,450 L 342.976,474 C 332.436,470 327.166,470 316.626,474 C 306.086,478 300.816,478 290.276,474 L 290.276,450z"/>
    <path style="fill: none; fill-opacity:0; stroke-width: 0.02; stroke: #000000" d="M 290.276 450 L 342.976,450 L 342.976,474 C 332.436,470 327.166,470 316.626,474 C 306.086,478 300.816,478 290.276,474 L 290.276,450"/>
    <text font-size="12.8" style="fill: #000000;text-anchor:middle;font-family:monospace;font-style:normal;font-weight:normal" x="316.626" y="463.2">
      <tspan x="316.626" y="463.2">TCP首部</tspan>
    </text>
  </g>
  <line style="fill: none; fill-opacity:0; stroke-width: 2; stroke: #000000" x1="701.366" y1="442.01" x2="700.91" y2="488.01"/>
  <g>
    <path style="fill: none; fill-opacity:0; stroke-width: 0.02; stroke: #000000" d="M 702.476 439.8 L 755.176,439.8 L 755.176,483 C 744.636,475.8 739.366,475.8 728.826,483 C 718.286,490.2 713.016,490.2 702.476,483 L 702.476,439.8"/>
    <text font-size="12.8" style="fill: #000000;text-anchor:middle;font-family:monospace;font-style:normal;font-weight:normal" x="728.826" y="453">
      <tspan x="728.826" y="453">以太网</tspan>
      <tspan x="728.826" y="469">尾部FCS</tspan>
    </text>
  </g>
  <g>
    <path style="fill: #ffffff" d="M 497.876 450.7 L 553.076,450.7 L 553.076,474.7 C 542.036,470.7 536.516,470.7 525.476,474.7 C 514.436,478.7 508.916,478.7 497.876,474.7 L 497.876,450.7z"/>
    <path style="fill: none; fill-opacity:0; stroke-width: 0.02; stroke: #000000" d="M 497.876 450.7 L 553.076,450.7 L 553.076,474.7 C 542.036,470.7 536.516,470.7 525.476,474.7 C 514.436,478.7 508.916,478.7 497.876,474.7 L 497.876,450.7"/>
    <text font-size="12.8" style="fill: #000000;text-anchor:middle;font-family:monospace;font-style:normal;font-weight:normal" x="525.476" y="463.9">
      <tspan x="525.476" y="463.9">应用数据</tspan>
    </text>
  </g>
  <g>
    <line style="fill: none; fill-opacity:0; stroke-width: 2; stroke: #000000" x1="483.997" y1="527.505" x2="747.9" y2="526.54"/>
    <polygon style="fill: #000000" points="747.918,531.54 757.9,526.504 747.882,521.54 "/>
    <polygon style="fill: none; fill-opacity:0; stroke-width: 2; stroke: #000000" points="747.918,531.54 757.9,526.504 747.882,521.54 "/>
  </g>
  <g>
    <path style="fill: #ffffff" d="M 377 513.7 L 484,513.7 L 484,537.7 C 462.6,533.7 451.9,533.7 430.5,537.7 C 409.1,541.7 398.4,541.7 377,537.7 L 377,513.7z"/>
    <path style="fill: none; fill-opacity:0; stroke-width: 0.02; stroke: #000000" d="M 377 513.7 L 484,513.7 L 484,537.7 C 462.6,533.7 451.9,533.7 430.5,537.7 C 409.1,541.7 398.4,541.7 377,537.7 L 377,513.7"/>
    <text font-size="12.8" style="fill: #000000;text-anchor:middle;font-family:monospace;font-style:normal;font-weight:normal" x="430.5" y="526.9">
      <tspan x="430.5" y="526.9">以太网帧</tspan>
    </text>
  </g>
  <g>
    <line style="fill: none; fill-opacity:0; stroke-width: 2; stroke: #000000" x1="377" y1="525.7" x2="111" y2="526.468"/>
    <polygon style="fill: #000000" points="110.986,521.468 101,526.497 111.014,531.468 "/>
    <polygon style="fill: none; fill-opacity:0; stroke-width: 2; stroke: #000000" points="110.986,521.468 101,526.497 111.014,531.468 "/>
  </g>
  <line style="fill: none; fill-opacity:0; stroke-width: 1; stroke: #000000" x1="100" y1="513" x2="100" y2="540"/>
  <line style="fill: none; fill-opacity:0; stroke-width: 1; stroke: #000000" x1="758.9" y1="513" x2="758.9" y2="540"/>
  <g>
    <line style="fill: none; fill-opacity:0; stroke-width: 2; stroke: #000000" x1="511.285" y1="562.864" x2="689.046" y2="562.717"/>
    <polygon style="fill: #000000" points="689.05,567.717 699.046,562.709 689.042,557.717 "/>
    <polygon style="fill: none; fill-opacity:0; stroke-width: 2; stroke: #000000" points="689.05,567.717 699.046,562.709 689.042,557.717 "/>
  </g>
  <g>
    <path style="fill: #ffffff" d="M 404.279 548.908 L 511.279,548.908 L 511.279,572.908 C 489.879,568.908 479.179,568.908 457.779,572.908 C 436.379,576.908 425.679,576.908 404.279,572.908 L 404.279,548.908z"/>
    <path style="fill: none; fill-opacity:0; stroke-width: 0.02; stroke: #000000" d="M 404.279 548.908 L 511.279,548.908 L 511.279,572.908 C 489.879,568.908 479.179,568.908 457.779,572.908 C 436.379,576.908 425.679,576.908 404.279,572.908 L 404.279,548.908"/>
    <text font-size="12.8" style="fill: #000000;text-anchor:middle;font-family:monospace;font-style:normal;font-weight:normal" x="457.779" y="562.108">
      <tspan x="457.779" y="562.108">以太网数据帧</tspan>
    </text>
  </g>
  <g>
    <line style="fill: none; fill-opacity:0; stroke-width: 2; stroke: #000000" x1="404.279" y1="560.908" x2="181.75" y2="562.623"/>
    <polygon style="fill: #000000" points="181.711,557.623 171.75,562.7 181.788,567.623 "/>
    <polygon style="fill: none; fill-opacity:0; stroke-width: 2; stroke: #000000" points="181.711,557.623 171.75,562.7 181.788,567.623 "/>
  </g>
  <line style="fill: none; fill-opacity:0; stroke-width: 1; stroke: #000000" x1="170.75" y1="549.208" x2="170.75" y2="576.208"/>
  <line style="fill: none; fill-opacity:0; stroke-width: 1; stroke: #000000" x1="700.046" y1="549.208" x2="700.046" y2="576.208"/>
  <g>
    <path style="fill: #ffffff" d="M 410.929 578 L 501.929,578 L 501.929,602 C 483.729,598 474.629,598 456.429,602 C 438.229,606 429.129,606 410.929,602 L 410.929,578z"/>
    <path style="fill: none; fill-opacity:0; stroke-width: 0.02; stroke: #000000" d="M 410.929 578 L 501.929,578 L 501.929,602 C 483.729,598 474.629,598 456.429,602 C 438.229,606 429.129,606 410.929,602 L 410.929,578"/>
    <text font-size="12.8" style="fill: #000000;text-anchor:middle;font-family:monospace;font-style:normal;font-weight:normal" x="456.429" y="591.2">
      <tspan x="456.429" y="591.2">46～1500字节</tspan>
    </text>
  </g>
  <g>
    <rect style="fill: #ffffff" x="172" y="319.222" width="528" height="48"/>
    <rect style="fill: none; fill-opacity:0; stroke-width: 2; stroke: #000000" x="172" y="319.222" width="528" height="48"/>
    <text font-size="12.8" style="fill: #000000;text-anchor:middle;font-family:monospace;font-style:normal;font-weight:normal" x="436" y="345.872">
      <tspan x="436" y="345.872"></tspan>
    </text>
  </g>
  <g>
    <path style="fill: #ffffff" d="M 194.99 328.222 L 239.99,328.222 L 239.99,352.222 C 230.99,348.222 226.49,348.222 217.49,352.222 C 208.49,356.222 203.99,356.222 194.99,352.222 L 194.99,328.222z"/>
    <path style="fill: none; fill-opacity:0; stroke-width: 0.02; stroke: #000000" d="M 194.99 328.222 L 239.99,328.222 L 239.99,352.222 C 230.99,348.222 226.49,348.222 217.49,352.222 C 208.49,356.222 203.99,356.222 194.99,352.222 L 194.99,328.222"/>
    <text font-size="12.8" style="fill: #000000;text-anchor:middle;font-family:monospace;font-style:normal;font-weight:normal" x="217.49" y="341.422">
      <tspan x="217.49" y="341.422">IP首部</tspan>
    </text>
  </g>
  <g>
    <path style="fill: #ffffff" d="M 193.39 371.222 L 233.39,371.222 L 233.39,395.222 C 225.39,391.222 221.39,391.222 213.39,395.222 C 205.39,399.222 201.39,399.222 193.39,395.222 L 193.39,371.222z"/>
    <path style="fill: none; fill-opacity:0; stroke-width: 0.02; stroke: #000000" d="M 193.39 371.222 L 233.39,371.222 L 233.39,395.222 C 225.39,391.222 221.39,391.222 213.39,395.222 C 205.39,399.222 201.39,399.222 193.39,395.222 L 193.39,371.222"/>
    <text font-size="12.8" style="fill: #000000;text-anchor:middle;font-family:monospace;font-style:normal;font-weight:normal" x="213.39" y="384.422">
      <tspan x="213.39" y="384.422">20</tspan>
    </text>
  </g>
  <line style="fill: none; fill-opacity:0; stroke-width: 2; stroke: #000000" x1="269.856" y1="320.232" x2="269.4" y2="366.232"/>
  <line style="fill: none; fill-opacity:0; stroke-width: 2; stroke: #000000" x1="370.856" y1="320.232" x2="370.4" y2="366.232"/>
  <g>
    <path style="fill: #ffffff" d="M 288.39 370.222 L 328.39,370.222 L 328.39,394.222 C 320.39,390.222 316.39,390.222 308.39,394.222 C 300.39,398.222 296.39,398.222 288.39,394.222 L 288.39,370.222z"/>
    <path style="fill: none; fill-opacity:0; stroke-width: 0.02; stroke: #000000" d="M 288.39 370.222 L 328.39,370.222 L 328.39,394.222 C 320.39,390.222 316.39,390.222 308.39,394.222 C 300.39,398.222 296.39,398.222 288.39,394.222 L 288.39,370.222"/>
    <text font-size="12.8" style="fill: #000000;text-anchor:middle;font-family:monospace;font-style:normal;font-weight:normal" x="308.39" y="383.422">
      <tspan x="308.39" y="383.422">20</tspan>
    </text>
  </g>
  <g>
    <path style="fill: #ffffff" d="M 289.764 329.222 L 342.464,329.222 L 342.464,353.222 C 331.924,349.222 326.654,349.222 316.114,353.222 C 305.574,357.222 300.304,357.222 289.764,353.222 L 289.764,329.222z"/>
    <path style="fill: none; fill-opacity:0; stroke-width: 0.02; stroke: #000000" d="M 289.764 329.222 L 342.464,329.222 L 342.464,353.222 C 331.924,349.222 326.654,349.222 316.114,353.222 C 305.574,357.222 300.304,357.222 289.764,353.222 L 289.764,329.222"/>
    <text font-size="12.8" style="fill: #000000;text-anchor:middle;font-family:monospace;font-style:normal;font-weight:normal" x="316.114" y="342.422">
      <tspan x="316.114" y="342.422">TCP首部</tspan>
    </text>
  </g>
  <g>
    <path style="fill: #ffffff" d="M 497.364 330.922 L 552.564,330.922 L 552.564,354.922 C 541.524,350.922 536.004,350.922 524.964,354.922 C 513.924,358.922 508.404,358.922 497.364,354.922 L 497.364,330.922z"/>
    <path style="fill: none; fill-opacity:0; stroke-width: 0.02; stroke: #000000" d="M 497.364 330.922 L 552.564,330.922 L 552.564,354.922 C 541.524,350.922 536.004,350.922 524.964,354.922 C 513.924,358.922 508.404,358.922 497.364,354.922 L 497.364,330.922"/>
    <text font-size="12.8" style="fill: #000000;text-anchor:middle;font-family:monospace;font-style:normal;font-weight:normal" x="524.964" y="344.122">
      <tspan x="524.964" y="344.122">应用数据</tspan>
    </text>
  </g>
  <g>
    <line style="fill: none; fill-opacity:0; stroke-width: 2; stroke: #000000" x1="483.477" y1="405.683" x2="687.39" y2="404.771"/>
    <polygon style="fill: #000000" points="687.412,409.771 697.39,404.726 687.368,399.771 "/>
    <polygon style="fill: none; fill-opacity:0; stroke-width: 2; stroke: #000000" points="687.412,409.771 697.39,404.726 687.368,399.771 "/>
  </g>
  <g>
    <path style="fill: #ffffff" d="M 376.49 391.922 L 483.49,391.922 L 483.49,415.922 C 462.09,411.922 451.39,411.922 429.99,415.922 C 408.59,419.922 397.89,419.922 376.49,415.922 L 376.49,391.922z"/>
    <path style="fill: none; fill-opacity:0; stroke-width: 0.02; stroke: #000000" d="M 376.49 391.922 L 483.49,391.922 L 483.49,415.922 C 462.09,411.922 451.39,411.922 429.99,415.922 C 408.59,419.922 397.89,419.922 376.49,415.922 L 376.49,391.922"/>
    <text font-size="12.8" style="fill: #000000;text-anchor:middle;font-family:monospace;font-style:normal;font-weight:normal" x="429.99" y="405.122">
      <tspan x="429.99" y="405.122">IP 数据报</tspan>
    </text>
  </g>
  <g>
    <line style="fill: none; fill-opacity:0; stroke-width: 2; stroke: #000000" x1="376.49" y1="403.922" x2="183" y2="403.156"/>
    <polygon style="fill: #000000" points="183.02,398.156 173,403.116 182.98,408.156 "/>
    <polygon style="fill: none; fill-opacity:0; stroke-width: 2; stroke: #000000" points="183.02,398.156 173,403.116 182.98,408.156 "/>
  </g>
  <g>
    <line style="fill: none; fill-opacity:0; stroke-width: 1; stroke-dasharray: 4; stroke: #000000" x1="172" y1="367.222" x2="172" y2="428.5"/>
    <polygon style="fill: #000000" points="167,428.5 172,438.5 177,428.5 "/>
    <polygon style="fill: none; fill-opacity:0; stroke-width: 1; stroke: #000000" points="167,428.5 172,438.5 177,428.5 "/>
  </g>
  <g>
    <line style="fill: none; fill-opacity:0; stroke-width: 1; stroke-dasharray: 4; stroke: #000000" x1="701.4" y1="364.5" x2="701.4" y2="425.778"/>
    <polygon style="fill: #000000" points="696.4,425.778 701.4,435.778 706.4,425.778 "/>
    <polygon style="fill: none; fill-opacity:0; stroke-width: 1; stroke: #000000" points="696.4,425.778 701.4,435.778 706.4,425.778 "/>
  </g>
  <g>
    <rect style="fill: #ffffff" x="271" y="198" width="428.136" height="48"/>
    <rect style="fill: none; fill-opacity:0; stroke-width: 2; stroke: #000000" x="271" y="198" width="428.136" height="48"/>
    <text font-size="12.8" style="fill: #000000;text-anchor:middle;font-family:monospace;font-style:normal;font-weight:normal" x="485.068" y="224.65">
      <tspan x="485.068" y="224.65"></tspan>
    </text>
  </g>
  <line style="fill: none; fill-opacity:0; stroke-width: 2; stroke: #000000" x1="369.992" y1="199.01" x2="369.536" y2="245.01"/>
  <g>
    <path style="fill: #ffffff" d="M 287.526 249 L 327.526,249 L 327.526,273 C 319.526,269 315.526,269 307.526,273 C 299.526,277 295.526,277 287.526,273 L 287.526,249z"/>
    <path style="fill: none; fill-opacity:0; stroke-width: 0.02; stroke: #000000" d="M 287.526 249 L 327.526,249 L 327.526,273 C 319.526,269 315.526,269 307.526,273 C 299.526,277 295.526,277 287.526,273 L 287.526,249"/>
    <text font-size="12.8" style="fill: #000000;text-anchor:middle;font-family:monospace;font-style:normal;font-weight:normal" x="307.526" y="262.2">
      <tspan x="307.526" y="262.2">20</tspan>
    </text>
  </g>
  <g>
    <path style="fill: #ffffff" d="M 288.9 208 L 341.6,208 L 341.6,232 C 331.06,228 325.79,228 315.25,232 C 304.71,236 299.44,236 288.9,232 L 288.9,208z"/>
    <path style="fill: none; fill-opacity:0; stroke-width: 0.02; stroke: #000000" d="M 288.9 208 L 341.6,208 L 341.6,232 C 331.06,228 325.79,228 315.25,232 C 304.71,236 299.44,236 288.9,232 L 288.9,208"/>
    <text font-size="12.8" style="fill: #000000;text-anchor:middle;font-family:monospace;font-style:normal;font-weight:normal" x="315.25" y="221.2">
      <tspan x="315.25" y="221.2">TCP首部</tspan>
    </text>
  </g>
  <g>
    <path style="fill: #ffffff" d="M 496.5 207.7 L 551.7,207.7 L 551.7,231.7 C 540.66,227.7 535.14,227.7 524.1,231.7 C 513.06,235.7 507.54,235.7 496.5,231.7 L 496.5,207.7z"/>
    <path style="fill: none; fill-opacity:0; stroke-width: 0.02; stroke: #000000" d="M 496.5 207.7 L 551.7,207.7 L 551.7,231.7 C 540.66,227.7 535.14,227.7 524.1,231.7 C 513.06,235.7 507.54,235.7 496.5,231.7 L 496.5,207.7"/>
    <text font-size="12.8" style="fill: #000000;text-anchor:middle;font-family:monospace;font-style:normal;font-weight:normal" x="524.1" y="220.9">
      <tspan x="524.1" y="220.9">应用数据</tspan>
    </text>
  </g>
  <g>
    <line style="fill: none; fill-opacity:0; stroke-width: 2; stroke: #000000" x1="551.614" y1="282.387" x2="688.4" y2="282.389"/>
    <polygon style="fill: #000000" points="688.4,287.389 698.4,282.389 688.4,277.389 "/>
    <polygon style="fill: none; fill-opacity:0; stroke-width: 2; stroke: #000000" points="688.4,287.389 698.4,282.389 688.4,277.389 "/>
  </g>
  <g>
    <path style="fill: #ffffff" d="M 444.626 268.387 L 551.626,268.387 L 551.626,292.387 C 530.226,288.387 519.526,288.387 498.126,292.387 C 476.726,296.387 466.026,296.387 444.626,292.387 L 444.626,268.387z"/>
    <path style="fill: none; fill-opacity:0; stroke-width: 0.02; stroke: #000000" d="M 444.626 268.387 L 551.626,268.387 L 551.626,292.387 C 530.226,288.387 519.526,288.387 498.126,292.387 C 476.726,296.387 466.026,296.387 444.626,292.387 L 444.626,268.387"/>
    <text font-size="12.8" style="fill: #000000;text-anchor:middle;font-family:monospace;font-style:normal;font-weight:normal" x="498.126" y="281.587">
      <tspan x="498.126" y="281.587">TCP 报文段</tspan>
    </text>
  </g>
  <g>
    <line style="fill: none; fill-opacity:0; stroke-width: 2; stroke: #000000" x1="444.626" y1="280.387" x2="281.4" y2="280.389"/>
    <polygon style="fill: #000000" points="281.4,275.389 271.4,280.389 281.4,285.389 "/>
    <polygon style="fill: none; fill-opacity:0; stroke-width: 2; stroke: #000000" points="281.4,275.389 271.4,280.389 281.4,285.389 "/>
  </g>
  <g>
    <line style="fill: none; fill-opacity:0; stroke-width: 1; stroke-dasharray: 4; stroke: #000000" x1="270.4" y1="244.5" x2="270.4" y2="305.778"/>
    <polygon style="fill: #000000" points="265.4,305.778 270.4,315.778 275.4,305.778 "/>
    <polygon style="fill: none; fill-opacity:0; stroke-width: 1; stroke: #000000" points="265.4,305.778 270.4,315.778 275.4,305.778 "/>
  </g>
  <g>
    <line style="fill: none; fill-opacity:0; stroke-width: 1; stroke-dasharray: 4; stroke: #000000" x1="699.4" y1="246.5" x2="699.4" y2="307.778"/>
    <polygon style="fill: #000000" points="694.4,307.778 699.4,317.778 704.4,307.778 "/>
    <polygon style="fill: none; fill-opacity:0; stroke-width: 1; stroke: #000000" points="694.4,307.778 699.4,317.778 704.4,307.778 "/>
  </g>
  <g>
    <rect style="fill: #ffffff" x="369" y="107" width="330.136" height="48"/>
    <rect style="fill: none; fill-opacity:0; stroke-width: 2; stroke: #000000" x="369" y="107" width="330.136" height="48"/>
    <text font-size="12.8" style="fill: #000000;text-anchor:middle;font-family:monospace;font-style:normal;font-weight:normal" x="534.068" y="133.65">
      <tspan x="534.068" y="133.65"></tspan>
    </text>
  </g>
  <g>
    <path style="fill: #ffffff" d="M 527.5 115.7 L 582.7,115.7 L 582.7,139.7 C 571.66,135.7 566.14,135.7 555.1,139.7 C 544.06,143.7 538.54,143.7 527.5,139.7 L 527.5,115.7z"/>
    <path style="fill: none; fill-opacity:0; stroke-width: 0.02; stroke: #000000" d="M 527.5 115.7 L 582.7,115.7 L 582.7,139.7 C 571.66,135.7 566.14,135.7 555.1,139.7 C 544.06,143.7 538.54,143.7 527.5,139.7 L 527.5,115.7"/>
    <text font-size="12.8" style="fill: #000000;text-anchor:middle;font-family:monospace;font-style:normal;font-weight:normal" x="555.1" y="128.9">
      <tspan x="555.1" y="128.9">用户数据</tspan>
    </text>
  </g>
  <g>
    <line style="fill: none; fill-opacity:0; stroke-width: 1; stroke-dasharray: 4; stroke: #000000" x1="369" y1="155" x2="369" y2="183.5"/>
    <polygon style="fill: #000000" points="364,183.5 369,193.5 374,183.5 "/>
    <polygon style="fill: none; fill-opacity:0; stroke-width: 1; stroke: #000000" points="364,183.5 369,193.5 374,183.5 "/>
  </g>
  <g>
    <line style="fill: none; fill-opacity:0; stroke-width: 1; stroke-dasharray: 4; stroke: #000000" x1="699.136" y1="155" x2="699.136" y2="187.5"/>
    <polygon style="fill: #000000" points="694.136,187.5 699.136,197.5 704.136,187.5 "/>
    <polygon style="fill: none; fill-opacity:0; stroke-width: 1; stroke: #000000" points="694.136,187.5 699.136,197.5 704.136,187.5 "/>
  </g>
  <g>
    <rect style="fill: #ffffff" x="780.4" y="71" width="73.2" height="38"/>
    <rect style="fill: none; fill-opacity:0; stroke-width: 2; stroke: #000000" x="780.4" y="71" width="73.2" height="38"/>
    <text font-size="12.8" style="fill: #000000;text-anchor:middle;font-family:monospace;font-style:normal;font-weight:normal" x="817" y="93">
      <tspan x="817" y="93">应用程序</tspan>
    </text>
  </g>
  <g>
    <rect style="fill: #ffffff" x="780.9" y="159" width="71.2" height="38"/>
    <rect style="fill: none; fill-opacity:0; stroke-width: 2; stroke: #000000" x="780.9" y="159" width="71.2" height="38"/>
    <text font-size="12.8" style="fill: #000000;text-anchor:middle;font-family:monospace;font-style:normal;font-weight:normal" x="816.5" y="180.65">
      <tspan x="816.5" y="180.65">TCP</tspan>
    </text>
  </g>
  <g>
    <rect style="fill: #ffffff" x="779.9" y="252" width="71.2" height="38"/>
    <rect style="fill: none; fill-opacity:0; stroke-width: 2; stroke: #000000" x="779.9" y="252" width="71.2" height="38"/>
    <text font-size="12.8" style="fill: #000000;text-anchor:middle;font-family:monospace;font-style:normal;font-weight:normal" x="815.5" y="273.65">
      <tspan x="815.5" y="273.65">IP</tspan>
    </text>
  </g>
  <g>
    <rect style="fill: #ffffff" x="778.9" y="362" width="73.2" height="54"/>
    <rect style="fill: none; fill-opacity:0; stroke-width: 2; stroke: #000000" x="778.9" y="362" width="73.2" height="54"/>
    <text font-size="12.8" style="fill: #000000;text-anchor:middle;font-family:monospace;font-style:normal;font-weight:normal" x="815.5" y="384">
      <tspan x="815.5" y="384">以太网</tspan>
      <tspan x="815.5" y="400">驱动程序</tspan>
    </text>
  </g>
  <line style="fill: none; fill-opacity:0; stroke-width: 2; stroke: #000000" x1="438.366" y1="108.01" x2="437.91" y2="154.01"/>
  <g>
    <path style="fill: #ffffff" d="M 372.3 114.5 L 432.7,114.5 L 432.7,138.5 C 420.62,134.5 414.58,134.5 402.5,138.5 C 390.42,142.5 384.38,142.5 372.3,138.5 L 372.3,114.5z"/>
    <path style="fill: none; fill-opacity:0; stroke-width: 0.02; stroke: #000000" d="M 372.3 114.5 L 432.7,114.5 L 432.7,138.5 C 420.62,134.5 414.58,134.5 402.5,138.5 C 390.42,142.5 384.38,142.5 372.3,138.5 L 372.3,114.5"/>
    <text font-size="12.8" style="fill: #000000;text-anchor:middle;font-family:monospace;font-style:normal;font-weight:normal" x="402.5" y="127.7">
      <tspan x="402.5" y="127.7">Appl首部</tspan>
    </text>
  </g>
  <g>
    <rect style="fill: #ffffff" x="438" y="24" width="262.036" height="48"/>
    <rect style="fill: none; fill-opacity:0; stroke-width: 2; stroke: #000000" x="438" y="24" width="262.036" height="48"/>
    <text font-size="12.8" style="fill: #000000;text-anchor:middle;font-family:monospace;font-style:normal;font-weight:normal" x="569.018" y="50.65">
      <tspan x="569.018" y="50.65"></tspan>
    </text>
  </g>
  <g>
    <path style="fill: #ffffff" d="M 528.4 33.7 L 583.6,33.7 L 583.6,57.7 C 572.56,53.7 567.04,53.7 556,57.7 C 544.96,61.7 539.44,61.7 528.4,57.7 L 528.4,33.7z"/>
    <path style="fill: none; fill-opacity:0; stroke-width: 0.02; stroke: #000000" d="M 528.4 33.7 L 583.6,33.7 L 583.6,57.7 C 572.56,53.7 567.04,53.7 556,57.7 C 544.96,61.7 539.44,61.7 528.4,57.7 L 528.4,33.7"/>
    <text font-size="12.8" style="fill: #000000;text-anchor:middle;font-family:monospace;font-style:normal;font-weight:normal" x="556" y="46.9">
      <tspan x="556" y="46.9">用户数据</tspan>
    </text>
  </g>
  <g>
    <line style="fill: none; fill-opacity:0; stroke-width: 1; stroke-dasharray: 4; stroke: #000000" x1="438" y1="72" x2="438" y2="93.5"/>
    <polygon style="fill: #000000" points="433,93.5 438,103.5 443,93.5 "/>
    <polygon style="fill: none; fill-opacity:0; stroke-width: 1; stroke: #000000" points="433,93.5 438,103.5 443,93.5 "/>
  </g>
  <g>
    <line style="fill: none; fill-opacity:0; stroke-width: 1; stroke-dasharray: 4; stroke: #000000" x1="697.71" y1="73.5" x2="697.71" y2="95"/>
    <polygon style="fill: #000000" points="692.71,95 697.71,105 702.71,95 "/>
    <polygon style="fill: none; fill-opacity:0; stroke-width: 1; stroke: #000000" points="692.71,95 697.71,105 702.71,95 "/>
  </g>
  <line style="fill: none; fill-opacity:0; stroke-width: 4; stroke: #000000" x1="776" y1="464" x2="856" y2="464"/>
  <g>
    <line style="fill: none; fill-opacity:0; stroke-width: 2; stroke: #000000" x1="817" y1="109" x2="816.724" y2="147.021"/>
    <polygon style="fill: #000000" points="811.725,146.985 816.652,157.021 821.724,147.058 "/>
    <polygon style="fill: none; fill-opacity:0; stroke-width: 2; stroke: #000000" points="811.725,146.985 816.652,157.021 821.724,147.058 "/>
  </g>
  <g>
    <line style="fill: none; fill-opacity:0; stroke-width: 2; stroke: #000000" x1="816.5" y1="197" x2="815.7" y2="241.002"/>
    <polygon style="fill: #000000" points="810.701,240.911 815.518,251 820.699,241.093 "/>
    <polygon style="fill: none; fill-opacity:0; stroke-width: 2; stroke: #000000" points="810.701,240.911 815.518,251 820.699,241.093 "/>
  </g>
  <g>
    <line style="fill: none; fill-opacity:0; stroke-width: 2; stroke: #000000" x1="815.5" y1="290" x2="815.5" y2="351"/>
    <polygon style="fill: #000000" points="810.5,351 815.5,361 820.5,351 "/>
    <polygon style="fill: none; fill-opacity:0; stroke-width: 2; stroke: #000000" points="810.5,351 815.5,361 820.5,351 "/>
  </g>
  <g>
    <line style="fill: none; fill-opacity:0; stroke-width: 2; stroke: #000000" x1="815.5" y1="416" x2="815.885" y2="453.001"/>
    <polygon style="fill: #000000" points="810.886,453.053 815.99,463 820.885,452.949 "/>
    <polygon style="fill: none; fill-opacity:0; stroke-width: 2; stroke: #000000" points="810.886,453.053 815.99,463 820.885,452.949 "/>
  </g>
  <g>
    <path style="fill: #ffffff" d="M 711.123 493.186 L 751.123,493.186 L 751.123,517.186 C 743.123,513.186 739.123,513.186 731.123,517.186 C 723.123,521.186 719.123,521.186 711.123,517.186 L 711.123,493.186z"/>
    <path style="fill: none; fill-opacity:0; stroke-width: 0.02; stroke: #000000" d="M 711.123 493.186 L 751.123,493.186 L 751.123,517.186 C 743.123,513.186 739.123,513.186 731.123,517.186 C 723.123,521.186 719.123,521.186 711.123,517.186 L 711.123,493.186"/>
    <text font-size="12.8" style="fill: #000000;text-anchor:middle;font-family:monospace;font-style:normal;font-weight:normal" x="731.123" y="506.386">
      <tspan x="731.123" y="506.386">4</tspan>
    </text>
  </g>
</svg>
