<?xml version="1.0" encoding="UTF-8" standalone="no"?>
<!DOCTYPE svg PUBLIC "-//W3C//DTD SVG 1.0//EN" "http://www.w3.org/TR/2001/PR-SVG-20010719/DTD/svg10.dtd">
<svg width="19cm" height="7cm" viewBox="314 138 370 139" xmlns="http://www.w3.org/2000/svg" xmlns:xlink="http://www.w3.org/1999/xlink">
  <g>
    <path style="fill: #ffffff" d="M 314.789 140.222 L 325.789,140.222 L 325.789,164.222 C 323.589,160.222 322.489,160.222 320.289,164.222 C 318.089,168.222 316.989,168.222 314.789,164.222 L 314.789,140.222z"/>
    <path style="fill: none; fill-opacity:0; stroke-width: 0.02; stroke: #000000" d="M 314.789 140.222 L 325.789,140.222 L 325.789,164.222 C 323.589,160.222 322.489,160.222 320.289,164.222 C 318.089,168.222 316.989,168.222 314.789,164.222 L 314.789,140.222"/>
    <text font-size="12.7998" style="fill: #000000;text-anchor:middle;font-family:sans-serif;font-style:normal;font-weight:normal" x="320.289" y="155.222">
      <tspan x="320.289" y="155.222">0</tspan>
    </text>
  </g>
  <g>
    <path style="fill: #ffffff" d="M 388.551 138.955 L 399.551,138.955 L 399.551,162.955 C 397.351,158.955 396.251,158.955 394.051,162.955 C 391.851,166.955 390.751,166.955 388.551,162.955 L 388.551,138.955z"/>
    <path style="fill: none; fill-opacity:0; stroke-width: 0.02; stroke: #000000" d="M 388.551 138.955 L 399.551,138.955 L 399.551,162.955 C 397.351,158.955 396.251,158.955 394.051,162.955 C 391.851,166.955 390.751,166.955 388.551,162.955 L 388.551,138.955"/>
    <text font-size="12.7998" style="fill: #000000;text-anchor:middle;font-family:sans-serif;font-style:normal;font-weight:normal" x="394.051" y="153.955">
      <tspan x="394.051" y="153.955">7</tspan>
    </text>
  </g>
  <g>
    <path style="fill: #ffffff" d="M 399.953 138.955 L 410.953,138.955 L 410.953,162.955 C 408.753,158.955 407.653,158.955 405.453,162.955 C 403.253,166.955 402.153,166.955 399.953,162.955 L 399.953,138.955z"/>
    <path style="fill: none; fill-opacity:0; stroke-width: 0.02; stroke: #000000" d="M 399.953 138.955 L 410.953,138.955 L 410.953,162.955 C 408.753,158.955 407.653,158.955 405.453,162.955 C 403.253,166.955 402.153,166.955 399.953,162.955 L 399.953,138.955"/>
    <text font-size="12.7998" style="fill: #000000;text-anchor:middle;font-family:sans-serif;font-style:normal;font-weight:normal" x="405.453" y="153.955">
      <tspan x="405.453" y="153.955">8</tspan>
    </text>
  </g>
  <g>
    <path style="fill: #ffffff" d="M 477.531 139.588 L 495.531,139.588 L 495.531,163.588 C 491.931,159.588 490.131,159.588 486.531,163.588 C 482.931,167.588 481.131,167.588 477.531,163.588 L 477.531,139.588z"/>
    <path style="fill: none; fill-opacity:0; stroke-width: 0.02; stroke: #000000" d="M 477.531 139.588 L 495.531,139.588 L 495.531,163.588 C 491.931,159.588 490.131,159.588 486.531,163.588 C 482.931,167.588 481.131,167.588 477.531,163.588 L 477.531,139.588"/>
    <text font-size="12.7998" style="fill: #000000;text-anchor:middle;font-family:sans-serif;font-style:normal;font-weight:normal" x="486.531" y="154.588">
      <tspan x="486.531" y="154.588">16</tspan>
    </text>
  </g>
  <g>
    <path style="fill: #ffffff" d="M 462.345 139.588 L 480.345,139.588 L 480.345,163.588 C 476.745,159.588 474.945,159.588 471.345,163.588 C 467.745,167.588 465.945,167.588 462.345,163.588 L 462.345,139.588z"/>
    <path style="fill: none; fill-opacity:0; stroke-width: 0.02; stroke: #000000" d="M 462.345 139.588 L 480.345,139.588 L 480.345,163.588 C 476.745,159.588 474.945,159.588 471.345,163.588 C 467.745,167.588 465.945,167.588 462.345,163.588 L 462.345,139.588"/>
    <text font-size="12.7998" style="fill: #000000;text-anchor:middle;font-family:sans-serif;font-style:normal;font-weight:normal" x="471.345" y="154.588">
      <tspan x="471.345" y="154.588">15</tspan>
    </text>
  </g>
  <g>
    <path style="fill: #ffffff" d="M 625.451 139.905 L 643.451,139.905 L 643.451,163.905 C 639.851,159.905 638.051,159.905 634.451,163.905 C 630.851,167.905 629.051,167.905 625.451,163.905 L 625.451,139.905z"/>
    <path style="fill: none; fill-opacity:0; stroke-width: 0.02; stroke: #000000" d="M 625.451 139.905 L 643.451,139.905 L 643.451,163.905 C 639.851,159.905 638.051,159.905 634.451,163.905 C 630.851,167.905 629.051,167.905 625.451,163.905 L 625.451,139.905"/>
    <text font-size="12.7998" style="fill: #000000;text-anchor:middle;font-family:sans-serif;font-style:normal;font-weight:normal" x="634.451" y="154.905">
      <tspan x="634.451" y="154.905">31</tspan>
    </text>
  </g>
  <g>
    <rect style="fill: #ffffff" x="320.811" y="162.242" width="319.24" height="38"/>
    <rect style="fill: none; fill-opacity:0; stroke-width: 2; stroke: #000000" x="320.811" y="162.242" width="319.24" height="38"/>
    <text font-size="12.7998" style="fill: #000000;text-anchor:middle;font-family:sans-serif;font-style:normal;font-weight:normal" x="480.431" y="186.042">
      <tspan x="480.431" y="186.042"></tspan>
    </text>
  </g>
  <g>
    <rect style="fill: #ffffff" x="320.825" y="200.447" width="319.24" height="38"/>
    <rect style="fill: none; fill-opacity:0; stroke-width: 2; stroke: #000000" x="320.825" y="200.447" width="319.24" height="38"/>
    <text font-size="12.7998" style="fill: #000000;text-anchor:middle;font-family:sans-serif;font-style:normal;font-weight:normal" x="480.445" y="224.247">
      <tspan x="480.445" y="224.247"></tspan>
    </text>
  </g>
  <line style="fill: none; fill-opacity:0; stroke-width: 2; stroke: #000000" x1="480.431" y1="162.242" x2="480.438" y2="199.445"/>
  <line style="fill: none; fill-opacity:0; stroke-width: 2; stroke: #000000" x1="400.003" y1="162.326" x2="400.009" y2="199.528"/>
  <g>
    <path style="fill: #ffffff" d="M 322.445 168.409 L 394.745,168.409 L 394.745,192.409 C 380.285,188.409 373.055,188.409 358.595,192.409 C 344.135,196.409 336.905,196.409 322.445,192.409 L 322.445,168.409z"/>
    <path style="fill: none; fill-opacity:0; stroke-width: 0.02; stroke: #000000" d="M 322.445 168.409 L 394.745,168.409 L 394.745,192.409 C 380.285,188.409 373.055,188.409 358.595,192.409 C 344.135,196.409 336.905,196.409 322.445,192.409 L 322.445,168.409"/>
    <text font-size="12.7998" style="fill: #000000;text-anchor:middle;font-family:sans-serif;font-style:normal;font-weight:normal" x="358.595" y="183.409">
      <tspan x="358.595" y="183.409">类型(17/18)</tspan>
    </text>
  </g>
  <g>
    <path style="fill: #ffffff" d="M 413.254 167.842 L 462.654,167.842 L 462.654,191.842 C 452.774,187.842 447.834,187.842 437.954,191.842 C 428.074,195.842 423.134,195.842 413.254,191.842 L 413.254,167.842z"/>
    <path style="fill: none; fill-opacity:0; stroke-width: 0.02; stroke: #000000" d="M 413.254 167.842 L 462.654,167.842 L 462.654,191.842 C 452.774,187.842 447.834,187.842 437.954,191.842 C 428.074,195.842 423.134,195.842 413.254,191.842 L 413.254,167.842"/>
    <text font-size="12.7998" style="fill: #000000;text-anchor:middle;font-family:sans-serif;font-style:normal;font-weight:normal" x="437.954" y="182.842">
      <tspan x="437.954" y="182.842">代码(0)</tspan>
    </text>
  </g>
  <g>
    <path style="fill: #ffffff" d="M 541.807 167.459 L 584.207,167.459 L 584.207,191.459 C 575.727,187.459 571.487,187.459 563.007,191.459 C 554.527,195.459 550.287,195.459 541.807,191.459 L 541.807,167.459z"/>
    <path style="fill: none; fill-opacity:0; stroke-width: 0.02; stroke: #000000" d="M 541.807 167.459 L 584.207,167.459 L 584.207,191.459 C 575.727,187.459 571.487,187.459 563.007,191.459 C 554.527,195.459 550.287,195.459 541.807,191.459 L 541.807,167.459"/>
    <text font-size="12.7998" style="fill: #000000;text-anchor:middle;font-family:sans-serif;font-style:normal;font-weight:normal" x="563.007" y="182.459">
      <tspan x="563.007" y="182.459">校验和</tspan>
    </text>
  </g>
  <g>
    <rect style="fill: #ffffff" x="320.802" y="238.384" width="319.24" height="38"/>
    <rect style="fill: none; fill-opacity:0; stroke-width: 2; stroke: #000000" x="320.802" y="238.384" width="319.24" height="38"/>
    <text font-size="12.7998" style="fill: #000000;text-anchor:middle;font-family:sans-serif;font-style:normal;font-weight:normal" x="480.422" y="262.184">
      <tspan x="480.422" y="262.184"></tspan>
    </text>
  </g>
  <line style="fill: none; fill-opacity:0; stroke-width: 2; stroke: #000000" x1="480.401" y1="200.241" x2="480.408" y2="237.444"/>
  <g>
    <path style="fill: #ffffff" d="M 379.049 205.866 L 421.449,205.866 L 421.449,229.866 C 412.969,225.866 408.729,225.866 400.249,229.866 C 391.769,233.866 387.529,233.866 379.049,229.866 L 379.049,205.866z"/>
    <path style="fill: none; fill-opacity:0; stroke-width: 0.02; stroke: #000000" d="M 379.049 205.866 L 421.449,205.866 L 421.449,229.866 C 412.969,225.866 408.729,225.866 400.249,229.866 C 391.769,233.866 387.529,233.866 379.049,229.866 L 379.049,205.866"/>
    <text font-size="12.7998" style="fill: #000000;text-anchor:middle;font-family:sans-serif;font-style:normal;font-weight:normal" x="400.249" y="220.866">
      <tspan x="400.249" y="220.866">标识符</tspan>
    </text>
  </g>
  <g>
    <path style="fill: #ffffff" d="M 544.244 206.766 L 586.644,206.766 L 586.644,230.766 C 578.164,226.766 573.924,226.766 565.444,230.766 C 556.964,234.766 552.724,234.766 544.244,230.766 L 544.244,206.766z"/>
    <path style="fill: none; fill-opacity:0; stroke-width: 0.02; stroke: #000000" d="M 544.244 206.766 L 586.644,206.766 L 586.644,230.766 C 578.164,226.766 573.924,226.766 565.444,230.766 C 556.964,234.766 552.724,234.766 544.244,230.766 L 544.244,206.766"/>
    <text font-size="12.7998" style="fill: #000000;text-anchor:middle;font-family:sans-serif;font-style:normal;font-weight:normal" x="565.444" y="221.766">
      <tspan x="565.444" y="221.766">序列号</tspan>
    </text>
  </g>
  <g>
    <path style="fill: #ffffff" d="M 441.533 245.512 L 523.533,245.512 L 523.533,269.512 C 507.133,265.512 498.933,265.512 482.533,269.512 C 466.133,273.512 457.933,273.512 441.533,269.512 L 441.533,245.512z"/>
    <path style="fill: none; fill-opacity:0; stroke-width: 0.02; stroke: #000000" d="M 441.533 245.512 L 523.533,245.512 L 523.533,269.512 C 507.133,265.512 498.933,265.512 482.533,269.512 C 466.133,273.512 457.933,273.512 441.533,269.512 L 441.533,245.512"/>
    <text font-size="12.7998" style="fill: #000000;text-anchor:middle;font-family:sans-serif;font-style:normal;font-weight:normal" x="482.533" y="260.512">
      <tspan x="482.533" y="260.512">32位子网掩码</tspan>
    </text>
  </g>
  <line style="fill: none; fill-opacity:0; stroke-width: 1; stroke: #000000" x1="655.781" y1="275.882" x2="670.404" y2="275.882"/>
  <line style="fill: none; fill-opacity:0; stroke-width: 1; stroke: #000000" x1="655.727" y1="161.859" x2="670.35" y2="161.859"/>
  <g>
    <path style="fill: #ffffff" d="M 641.181 200.077 L 684.781,200.077 L 684.781,229.53 C 676.061,224.621 671.701,224.621 662.981,229.53 C 654.261,234.439 649.901,234.439 641.181,229.53 L 641.181,200.077z"/>
    <path style="fill: none; fill-opacity:0; stroke-width: 0.02; stroke: #000000" d="M 641.181 200.077 L 684.781,200.077 L 684.781,229.53 C 676.061,224.621 671.701,224.621 662.981,229.53 C 654.261,234.439 649.901,234.439 641.181,229.53 L 641.181,200.077"/>
    <text font-size="12.7998" style="fill: #000000;text-anchor:middle;font-family:sans-serif;font-style:normal;font-weight:normal" x="662.981" y="217.349">
      <tspan x="662.981" y="217.349">12字节</tspan>
    </text>
  </g>
  <g>
    <line style="fill: none; fill-opacity:0; stroke-width: 1; stroke: #000000" x1="662.981" y1="200.077" x2="663.022" y2="172.359"/>
    <polygon style="fill: #000000" points="668.022,172.367 663.038,162.359 658.022,172.352 "/>
    <polygon style="fill: none; fill-opacity:0; stroke-width: 1; stroke: #000000" points="668.022,172.367 663.038,162.359 658.022,172.352 "/>
  </g>
  <g>
    <line style="fill: none; fill-opacity:0; stroke-width: 1; stroke: #000000" x1="663.004" y1="229.524" x2="663.073" y2="265.382"/>
    <polygon style="fill: #000000" points="658.073,265.392 663.092,275.382 668.073,265.373 "/>
    <polygon style="fill: none; fill-opacity:0; stroke-width: 1; stroke: #000000" points="658.073,265.392 663.092,275.382 668.073,265.373 "/>
  </g>
</svg>
