<?xml version="1.0" encoding="UTF-8" standalone="no"?>
<!DOCTYPE svg PUBLIC "-//W3C//DTD SVG 1.0//EN" "http://www.w3.org/TR/2001/PR-SVG-20010719/DTD/svg10.dtd">
<svg width="18cm" height="14cm" viewBox="314 58 347 263" xmlns="http://www.w3.org/2000/svg" xmlns:xlink="http://www.w3.org/1999/xlink">
  <line style="fill: none; fill-opacity:0; stroke-width: 1; stroke: #000000" x1="320.38" y1="65.7392" x2="320.38" y2="78.1816"/>
  <line style="fill: none; fill-opacity:0; stroke-width: 1; stroke: #000000" x1="659.612" y1="65.995" x2="659.612" y2="78.4374"/>
  <g>
    <path style="fill: #ffffff" d="M 457.214 58.4068 L 522.863,58.4068 L 522.863,82.4068 C 509.733,78.4068 503.168,78.4068 490.039,82.4068 C 476.909,86.4068 470.344,86.4068 457.214,82.4068 L 457.214,58.4068z"/>
    <path style="fill: none; fill-opacity:0; stroke-width: 0.02; stroke: #000000" d="M 457.214 58.4068 L 522.863,58.4068 L 522.863,82.4068 C 509.733,78.4068 503.168,78.4068 490.039,82.4068 C 476.909,86.4068 470.344,86.4068 457.214,82.4068 L 457.214,58.4068"/>
    <text font-size="12.8" style="fill: #000000;text-anchor:middle;font-family:monospace;font-style:normal;font-weight:normal" x="490.039" y="71.6068">
      <tspan x="490.039" y="71.6068">IP数据报</tspan>
    </text>
  </g>
  <g>
    <line style="fill: none; fill-opacity:0; stroke-width: 1; stroke: #000000" x1="457.223" y1="72.3205" x2="330.88" y2="71.988"/>
    <polygon style="fill: #000000" points="330.893,66.988 320.88,71.9617 330.867,76.988 "/>
    <polygon style="fill: none; fill-opacity:0; stroke-width: 1; stroke: #000000" points="330.893,66.988 320.88,71.9617 330.867,76.988 "/>
  </g>
  <g>
    <line style="fill: none; fill-opacity:0; stroke-width: 1; stroke: #000000" x1="522.848" y1="72.3699" x2="649.112" y2="72.228"/>
    <polygon style="fill: #000000" points="649.118,77.228 659.112,72.2168 649.106,67.228 "/>
    <polygon style="fill: none; fill-opacity:0; stroke-width: 1; stroke: #000000" points="649.118,77.228 659.112,72.2168 649.106,67.228 "/>
  </g>
  <g>
    <rect style="fill: #ffffff" x="319.67" y="82.578" width="340.029" height="38.9743"/>
    <rect style="fill: none; fill-opacity:0; stroke-width: 2; stroke: #000000" x="319.67" y="82.578" width="340.029" height="38.9743"/>
    <text font-size="12.8" style="fill: #000000;text-anchor:middle;font-family:monospace;font-style:normal;font-weight:normal" x="489.685" y="104.715">
      <tspan x="489.685" y="104.715"></tspan>
    </text>
  </g>
  <g>
    <path style="fill: #ffffff" d="M 332.811 88.491 L 377.811,88.491 L 377.811,112.491 C 368.811,108.491 364.311,108.491 355.311,112.491 C 346.311,116.491 341.811,116.491 332.811,112.491 L 332.811,88.491z"/>
    <path style="fill: none; fill-opacity:0; stroke-width: 0.02; stroke: #000000" d="M 332.811 88.491 L 377.811,88.491 L 377.811,112.491 C 368.811,108.491 364.311,108.491 355.311,112.491 C 346.311,116.491 341.811,116.491 332.811,112.491 L 332.811,88.491"/>
    <text font-size="12.8" style="fill: #000000;text-anchor:middle;font-family:monospace;font-style:normal;font-weight:normal" x="355.311" y="101.691">
      <tspan x="355.311" y="101.691">IP首部</tspan>
    </text>
  </g>
  <line style="fill: none; fill-opacity:0; stroke-width: 2; stroke: #000000" x1="400.012" y1="82.4476" x2="400.012" y2="121.552"/>
  <g>
    <path style="fill: #ffffff" d="M 458.424 88.1356 L 518.824,88.1356 L 518.824,112.136 C 506.744,108.136 500.704,108.136 488.624,112.136 C 476.544,116.136 470.504,116.136 458.424,112.136 L 458.424,88.1356z"/>
    <path style="fill: none; fill-opacity:0; stroke-width: 0.02; stroke: #000000" d="M 458.424 88.1356 L 518.824,88.1356 L 518.824,112.136 C 506.744,108.136 500.704,108.136 488.624,112.136 C 476.544,116.136 470.504,116.136 458.424,112.136 L 458.424,88.1356"/>
    <text font-size="12.8" style="fill: #000000;text-anchor:middle;font-family:monospace;font-style:normal;font-weight:normal" x="488.624" y="101.336">
      <tspan x="488.624" y="101.336">ICMP报文</tspan>
    </text>
  </g>
  <g>
    <path style="fill: #ffffff" d="M 314.44 151.311 L 326.14,151.311 L 326.14,175.311 C 323.8,171.311 322.63,171.311 320.29,175.311 C 317.95,179.311 316.78,179.311 314.44,175.311 L 314.44,151.311z"/>
    <path style="fill: none; fill-opacity:0; stroke-width: 0.02; stroke: #000000" d="M 314.44 151.311 L 326.14,151.311 L 326.14,175.311 C 323.8,171.311 322.63,171.311 320.29,175.311 C 317.95,179.311 316.78,179.311 314.44,175.311 L 314.44,151.311"/>
    <text font-size="12.8" style="fill: #000000;text-anchor:middle;font-family:monospace;font-style:normal;font-weight:normal" x="320.29" y="164.511">
      <tspan x="320.29" y="164.511">0</tspan>
    </text>
  </g>
  <g>
    <path style="fill: #ffffff" d="M 388.202 150.044 L 399.902,150.044 L 399.902,174.044 C 397.562,170.044 396.392,170.044 394.052,174.044 C 391.712,178.044 390.542,178.044 388.202,174.044 L 388.202,150.044z"/>
    <path style="fill: none; fill-opacity:0; stroke-width: 0.02; stroke: #000000" d="M 388.202 150.044 L 399.902,150.044 L 399.902,174.044 C 397.562,170.044 396.392,170.044 394.052,174.044 C 391.712,178.044 390.542,178.044 388.202,174.044 L 388.202,150.044"/>
    <text font-size="12.8" style="fill: #000000;text-anchor:middle;font-family:monospace;font-style:normal;font-weight:normal" x="394.052" y="163.244">
      <tspan x="394.052" y="163.244">7</tspan>
    </text>
  </g>
  <g>
    <path style="fill: #ffffff" d="M 399.602 150.044 L 411.302,150.044 L 411.302,174.044 C 408.962,170.044 407.792,170.044 405.452,174.044 C 403.112,178.044 401.942,178.044 399.602,174.044 L 399.602,150.044z"/>
    <path style="fill: none; fill-opacity:0; stroke-width: 0.02; stroke: #000000" d="M 399.602 150.044 L 411.302,150.044 L 411.302,174.044 C 408.962,170.044 407.792,170.044 405.452,174.044 C 403.112,178.044 401.942,178.044 399.602,174.044 L 399.602,150.044"/>
    <text font-size="12.8" style="fill: #000000;text-anchor:middle;font-family:monospace;font-style:normal;font-weight:normal" x="405.452" y="163.244">
      <tspan x="405.452" y="163.244">8</tspan>
    </text>
  </g>
  <g>
    <path style="fill: #ffffff" d="M 476.83 150.678 L 496.23,150.678 L 496.23,174.678 C 492.35,170.678 490.41,170.678 486.53,174.678 C 482.65,178.678 480.71,178.678 476.83,174.678 L 476.83,150.678z"/>
    <path style="fill: none; fill-opacity:0; stroke-width: 0.02; stroke: #000000" d="M 476.83 150.678 L 496.23,150.678 L 496.23,174.678 C 492.35,170.678 490.41,170.678 486.53,174.678 C 482.65,178.678 480.71,178.678 476.83,174.678 L 476.83,150.678"/>
    <text font-size="12.8" style="fill: #000000;text-anchor:middle;font-family:monospace;font-style:normal;font-weight:normal" x="486.53" y="163.878">
      <tspan x="486.53" y="163.878">16</tspan>
    </text>
  </g>
  <g>
    <path style="fill: #ffffff" d="M 461.644 150.678 L 481.044,150.678 L 481.044,174.678 C 477.164,170.678 475.224,170.678 471.344,174.678 C 467.464,178.678 465.524,178.678 461.644,174.678 L 461.644,150.678z"/>
    <path style="fill: none; fill-opacity:0; stroke-width: 0.02; stroke: #000000" d="M 461.644 150.678 L 481.044,150.678 L 481.044,174.678 C 477.164,170.678 475.224,170.678 471.344,174.678 C 467.464,178.678 465.524,178.678 461.644,174.678 L 461.644,150.678"/>
    <text font-size="12.8" style="fill: #000000;text-anchor:middle;font-family:monospace;font-style:normal;font-weight:normal" x="471.344" y="163.878">
      <tspan x="471.344" y="163.878">15</tspan>
    </text>
  </g>
  <g>
    <path style="fill: #ffffff" d="M 624.75 150.994 L 644.15,150.994 L 644.15,174.994 C 640.27,170.994 638.33,170.994 634.45,174.994 C 630.57,178.994 628.63,178.994 624.75,174.994 L 624.75,150.994z"/>
    <path style="fill: none; fill-opacity:0; stroke-width: 0.02; stroke: #000000" d="M 624.75 150.994 L 644.15,150.994 L 644.15,174.994 C 640.27,170.994 638.33,170.994 634.45,174.994 C 630.57,178.994 628.63,178.994 624.75,174.994 L 624.75,150.994"/>
    <text font-size="12.8" style="fill: #000000;text-anchor:middle;font-family:monospace;font-style:normal;font-weight:normal" x="634.45" y="164.194">
      <tspan x="634.45" y="164.194">31</tspan>
    </text>
  </g>
  <g>
    <rect style="fill: #ffffff" x="320.81" y="173.332" width="319.24" height="38"/>
    <rect style="fill: none; fill-opacity:0; stroke-width: 2; stroke: #000000" x="320.81" y="173.332" width="319.24" height="38"/>
    <text font-size="12.8" style="fill: #000000;text-anchor:middle;font-family:monospace;font-style:normal;font-weight:normal" x="480.43" y="194.982">
      <tspan x="480.43" y="194.982"></tspan>
    </text>
  </g>
  <g>
    <rect style="fill: #ffffff" x="320.824" y="211.535" width="319.24" height="79.7612"/>
    <rect style="fill: none; fill-opacity:0; stroke-width: 2; stroke: #000000" x="320.824" y="211.535" width="319.24" height="79.7612"/>
    <text font-size="12.8" style="fill: #000000;text-anchor:middle;font-family:monospace;font-style:normal;font-weight:normal" x="480.444" y="254.416">
      <tspan x="480.444" y="254.416">(不同类型和代码有不同的内容)</tspan>
    </text>
  </g>
  <line style="fill: none; fill-opacity:0; stroke-width: 2; stroke: #000000" x1="480.43" y1="173.332" x2="480.438" y2="210.534"/>
  <line style="fill: none; fill-opacity:0; stroke-width: 2; stroke: #000000" x1="400.002" y1="173.214" x2="400.01" y2="210.417"/>
  <g>
    <path style="fill: #ffffff" d="M 333.544 179.498 L 383.644,179.498 L 383.644,203.498 C 373.624,199.498 368.614,199.498 358.594,203.498 C 348.574,207.498 343.564,207.498 333.544,203.498 L 333.544,179.498z"/>
    <path style="fill: none; fill-opacity:0; stroke-width: 0.02; stroke: #000000" d="M 333.544 179.498 L 383.644,179.498 L 383.644,203.498 C 373.624,199.498 368.614,199.498 358.594,203.498 C 348.574,207.498 343.564,207.498 333.544,203.498 L 333.544,179.498"/>
    <text font-size="12.8" style="fill: #000000;text-anchor:middle;font-family:monospace;font-style:normal;font-weight:normal" x="358.594" y="192.698">
      <tspan x="358.594" y="192.698">8位类型</tspan>
    </text>
  </g>
  <g>
    <path style="fill: #ffffff" d="M 412.904 178.931 L 463.004,178.931 L 463.004,202.931 C 452.984,198.931 447.974,198.931 437.954,202.931 C 427.934,206.931 422.924,206.931 412.904,202.931 L 412.904,178.931z"/>
    <path style="fill: none; fill-opacity:0; stroke-width: 0.02; stroke: #000000" d="M 412.904 178.931 L 463.004,178.931 L 463.004,202.931 C 452.984,198.931 447.974,198.931 437.954,202.931 C 427.934,206.931 422.924,206.931 412.904,202.931 L 412.904,178.931"/>
    <text font-size="12.8" style="fill: #000000;text-anchor:middle;font-family:monospace;font-style:normal;font-weight:normal" x="437.954" y="192.131">
      <tspan x="437.954" y="192.131">8位代码</tspan>
    </text>
  </g>
  <g>
    <path style="fill: #ffffff" d="M 522.136 178.548 L 592.736,178.548 L 592.736,202.548 C 578.616,198.548 571.556,198.548 557.436,202.548 C 543.316,206.548 536.256,206.548 522.136,202.548 L 522.136,178.548z"/>
    <path style="fill: none; fill-opacity:0; stroke-width: 0.02; stroke: #000000" d="M 522.136 178.548 L 592.736,178.548 L 592.736,202.548 C 578.616,198.548 571.556,198.548 557.436,202.548 C 543.316,206.548 536.256,206.548 522.136,202.548 L 522.136,178.548"/>
    <text font-size="12.8" style="fill: #000000;text-anchor:middle;font-family:monospace;font-style:normal;font-weight:normal" x="557.436" y="191.748">
      <tspan x="557.436" y="191.748">16位校验和</tspan>
    </text>
  </g>
  <g>
    <path style="fill: #ffffff" d="M 404.166 122.653 L 569.566,122.653 L 569.566,146.653 C 536.486,142.653 519.946,142.653 486.866,146.653 C 453.786,150.653 437.246,150.653 404.166,146.653 L 404.166,122.653z"/>
    <path style="fill: none; fill-opacity:0; stroke-width: 0.02; stroke: #000000" d="M 404.166 122.653 L 569.566,122.653 L 569.566,146.653 C 536.486,142.653 519.946,142.653 486.866,146.653 C 453.786,150.653 437.246,150.653 404.166,146.653 L 404.166,122.653"/>
    <text font-size="12.8" style="fill: #000000;text-anchor:middle;font-family:monospace;font-style:normal;font-weight:700" x="486.866" y="135.053">
      <tspan x="486.866" y="135.053">ICMP封装在IP数据报文内部</tspan>
    </text>
  </g>
  <g>
    <path style="fill: #ffffff" d="M 451.28 292.58 L 511.68,292.58 L 511.68,316.58 C 499.6,312.58 493.56,312.58 481.48,316.58 C 469.4,320.58 463.36,320.58 451.28,316.58 L 451.28,292.58z"/>
    <path style="fill: none; fill-opacity:0; stroke-width: 0.02; stroke: #000000" d="M 451.28 292.58 L 511.68,292.58 L 511.68,316.58 C 499.6,312.58 493.56,312.58 481.48,316.58 C 469.4,320.58 463.36,320.58 451.28,316.58 L 451.28,292.58"/>
    <text font-size="12.8" style="fill: #000000;text-anchor:middle;font-family:monospace;font-style:normal;font-weight:700" x="481.48" y="304.98">
      <tspan x="481.48" y="304.98">ICMP报文</tspan>
    </text>
  </g>
</svg>
