<?xml version="1.0" encoding="UTF-8" standalone="no"?>
<!DOCTYPE svg PUBLIC "-//W3C//DTD SVG 1.0//EN" "http://www.w3.org/TR/2001/PR-SVG-20010719/DTD/svg10.dtd">
<svg width="18cm" height="12cm" viewBox="314 57 346 224" xmlns="http://www.w3.org/2000/svg" xmlns:xlink="http://www.w3.org/1999/xlink">
  <line style="fill: none; fill-opacity:0; stroke-width: 1; stroke: #000000" x1="320.381" y1="65.7393" x2="320.381" y2="78.1817"/>
  <line style="fill: none; fill-opacity:0; stroke-width: 1; stroke: #000000" x1="659.611" y1="65.995" x2="659.611" y2="78.4375"/>
  <g>
    <path style="fill: #ffffff" d="M 457.214 58.4068 L 522.863,58.4068 L 522.863,82.4068 C 509.734,78.4068 503.169,78.4068 490.039,82.4068 C 476.909,86.4068 470.344,86.4068 457.214,82.4068 L 457.214,58.4068z"/>
    <path style="fill: none; fill-opacity:0; stroke-width: 0.02; stroke: #000000" d="M 457.214 58.4068 L 522.863,58.4068 L 522.863,82.4068 C 509.734,78.4068 503.169,78.4068 490.039,82.4068 C 476.909,86.4068 470.344,86.4068 457.214,82.4068 L 457.214,58.4068"/>
    <text font-size="12.7998" style="fill: #000000;text-anchor:middle;font-family:sans-serif;font-style:normal;font-weight:normal" x="490.039" y="73.4068">
      <tspan x="490.039" y="73.4068">IP数据报</tspan>
    </text>
  </g>
  <g>
    <line style="fill: none; fill-opacity:0; stroke-width: 1; stroke: #000000" x1="457.224" y1="72.3204" x2="330.881" y2="71.9881"/>
    <polygon style="fill: #000000" points="330.894,66.9881 320.881,71.9618 330.868,76.9881 "/>
    <polygon style="fill: none; fill-opacity:0; stroke-width: 1; stroke: #000000" points="330.894,66.9881 320.881,71.9618 330.868,76.9881 "/>
  </g>
  <g>
    <line style="fill: none; fill-opacity:0; stroke-width: 1; stroke: #000000" x1="522.848" y1="72.3699" x2="649.111" y2="72.2281"/>
    <polygon style="fill: #000000" points="649.117,77.228 659.111,72.2168 649.105,67.2281 "/>
    <polygon style="fill: none; fill-opacity:0; stroke-width: 1; stroke: #000000" points="649.117,77.228 659.111,72.2168 649.105,67.2281 "/>
  </g>
  <g>
    <rect style="fill: #ffffff" x="319.67" y="82.578" width="340.029" height="38.9743"/>
    <rect style="fill: none; fill-opacity:0; stroke-width: 2; stroke: #000000" x="319.67" y="82.578" width="340.029" height="38.9743"/>
    <text font-size="12.7998" style="fill: #000000;text-anchor:middle;font-family:sans-serif;font-style:normal;font-weight:normal" x="489.684" y="106.865">
      <tspan x="489.684" y="106.865"></tspan>
    </text>
  </g>
  <g>
    <path style="fill: #ffffff" d="M 334.587 88.4911 L 376.037,88.4911 L 376.037,112.491 C 367.747,108.491 363.602,108.491 355.312,112.491 C 347.022,116.491 342.877,116.491 334.587,112.491 L 334.587,88.4911z"/>
    <path style="fill: none; fill-opacity:0; stroke-width: 0.02; stroke: #000000" d="M 334.587 88.4911 L 376.037,88.4911 L 376.037,112.491 C 367.747,108.491 363.602,108.491 355.312,112.491 C 347.022,116.491 342.877,116.491 334.587,112.491 L 334.587,88.4911"/>
    <text font-size="12.7998" style="fill: #000000;text-anchor:middle;font-family:sans-serif;font-style:normal;font-weight:normal" x="355.312" y="103.491">
      <tspan x="355.312" y="103.491">IP首部</tspan>
    </text>
  </g>
  <line style="fill: none; fill-opacity:0; stroke-width: 2; stroke: #000000" x1="400.012" y1="82.4476" x2="400.012" y2="121.552"/>
  <g>
    <path style="fill: #ffffff" d="M 459.123 88.1356 L 518.123,88.1356 L 518.123,112.136 C 506.323,108.136 500.423,108.136 488.623,112.136 C 476.823,116.136 470.923,116.136 459.123,112.136 L 459.123,88.1356z"/>
    <path style="fill: none; fill-opacity:0; stroke-width: 0.02; stroke: #000000" d="M 459.123 88.1356 L 518.123,88.1356 L 518.123,112.136 C 506.323,108.136 500.423,108.136 488.623,112.136 C 476.823,116.136 470.923,116.136 459.123,112.136 L 459.123,88.1356"/>
    <text font-size="12.7998" style="fill: #000000;text-anchor:middle;font-family:sans-serif;font-style:normal;font-weight:normal" x="488.623" y="103.136">
      <tspan x="488.623" y="103.136">ICMP报文</tspan>
    </text>
  </g>
  <g>
    <path style="fill: #ffffff" d="M 314.789 140.222 L 325.789,140.222 L 325.789,164.222 C 323.589,160.222 322.489,160.222 320.289,164.222 C 318.089,168.222 316.989,168.222 314.789,164.222 L 314.789,140.222z"/>
    <path style="fill: none; fill-opacity:0; stroke-width: 0.02; stroke: #000000" d="M 314.789 140.222 L 325.789,140.222 L 325.789,164.222 C 323.589,160.222 322.489,160.222 320.289,164.222 C 318.089,168.222 316.989,168.222 314.789,164.222 L 314.789,140.222"/>
    <text font-size="12.7998" style="fill: #000000;text-anchor:middle;font-family:sans-serif;font-style:normal;font-weight:normal" x="320.289" y="155.222">
      <tspan x="320.289" y="155.222">0</tspan>
    </text>
  </g>
  <g>
    <path style="fill: #ffffff" d="M 388.551 138.955 L 399.551,138.955 L 399.551,162.955 C 397.351,158.955 396.251,158.955 394.051,162.955 C 391.851,166.955 390.751,166.955 388.551,162.955 L 388.551,138.955z"/>
    <path style="fill: none; fill-opacity:0; stroke-width: 0.02; stroke: #000000" d="M 388.551 138.955 L 399.551,138.955 L 399.551,162.955 C 397.351,158.955 396.251,158.955 394.051,162.955 C 391.851,166.955 390.751,166.955 388.551,162.955 L 388.551,138.955"/>
    <text font-size="12.7998" style="fill: #000000;text-anchor:middle;font-family:sans-serif;font-style:normal;font-weight:normal" x="394.051" y="153.955">
      <tspan x="394.051" y="153.955">7</tspan>
    </text>
  </g>
  <g>
    <path style="fill: #ffffff" d="M 399.953 138.955 L 410.953,138.955 L 410.953,162.955 C 408.753,158.955 407.653,158.955 405.453,162.955 C 403.253,166.955 402.153,166.955 399.953,162.955 L 399.953,138.955z"/>
    <path style="fill: none; fill-opacity:0; stroke-width: 0.02; stroke: #000000" d="M 399.953 138.955 L 410.953,138.955 L 410.953,162.955 C 408.753,158.955 407.653,158.955 405.453,162.955 C 403.253,166.955 402.153,166.955 399.953,162.955 L 399.953,138.955"/>
    <text font-size="12.7998" style="fill: #000000;text-anchor:middle;font-family:sans-serif;font-style:normal;font-weight:normal" x="405.453" y="153.955">
      <tspan x="405.453" y="153.955">8</tspan>
    </text>
  </g>
  <g>
    <path style="fill: #ffffff" d="M 477.531 139.588 L 495.531,139.588 L 495.531,163.588 C 491.931,159.588 490.131,159.588 486.531,163.588 C 482.931,167.588 481.131,167.588 477.531,163.588 L 477.531,139.588z"/>
    <path style="fill: none; fill-opacity:0; stroke-width: 0.02; stroke: #000000" d="M 477.531 139.588 L 495.531,139.588 L 495.531,163.588 C 491.931,159.588 490.131,159.588 486.531,163.588 C 482.931,167.588 481.131,167.588 477.531,163.588 L 477.531,139.588"/>
    <text font-size="12.7998" style="fill: #000000;text-anchor:middle;font-family:sans-serif;font-style:normal;font-weight:normal" x="486.531" y="154.588">
      <tspan x="486.531" y="154.588">16</tspan>
    </text>
  </g>
  <g>
    <path style="fill: #ffffff" d="M 462.345 139.588 L 480.345,139.588 L 480.345,163.588 C 476.745,159.588 474.945,159.588 471.345,163.588 C 467.745,167.588 465.945,167.588 462.345,163.588 L 462.345,139.588z"/>
    <path style="fill: none; fill-opacity:0; stroke-width: 0.02; stroke: #000000" d="M 462.345 139.588 L 480.345,139.588 L 480.345,163.588 C 476.745,159.588 474.945,159.588 471.345,163.588 C 467.745,167.588 465.945,167.588 462.345,163.588 L 462.345,139.588"/>
    <text font-size="12.7998" style="fill: #000000;text-anchor:middle;font-family:sans-serif;font-style:normal;font-weight:normal" x="471.345" y="154.588">
      <tspan x="471.345" y="154.588">15</tspan>
    </text>
  </g>
  <g>
    <path style="fill: #ffffff" d="M 625.451 139.905 L 643.451,139.905 L 643.451,163.905 C 639.851,159.905 638.051,159.905 634.451,163.905 C 630.851,167.905 629.051,167.905 625.451,163.905 L 625.451,139.905z"/>
    <path style="fill: none; fill-opacity:0; stroke-width: 0.02; stroke: #000000" d="M 625.451 139.905 L 643.451,139.905 L 643.451,163.905 C 639.851,159.905 638.051,159.905 634.451,163.905 C 630.851,167.905 629.051,167.905 625.451,163.905 L 625.451,139.905"/>
    <text font-size="12.7998" style="fill: #000000;text-anchor:middle;font-family:sans-serif;font-style:normal;font-weight:normal" x="634.451" y="154.905">
      <tspan x="634.451" y="154.905">31</tspan>
    </text>
  </g>
  <g>
    <rect style="fill: #ffffff" x="320.811" y="162.242" width="319.24" height="38"/>
    <rect style="fill: none; fill-opacity:0; stroke-width: 2; stroke: #000000" x="320.811" y="162.242" width="319.24" height="38"/>
    <text font-size="12.7998" style="fill: #000000;text-anchor:middle;font-family:sans-serif;font-style:normal;font-weight:normal" x="480.431" y="186.042">
      <tspan x="480.431" y="186.042"></tspan>
    </text>
  </g>
  <g>
    <rect style="fill: #ffffff" x="320.825" y="200.447" width="319.24" height="79.7612"/>
    <rect style="fill: none; fill-opacity:0; stroke-width: 2; stroke: #000000" x="320.825" y="200.447" width="319.24" height="79.7612"/>
    <text font-size="12.7998" style="fill: #000000;text-anchor:middle;font-family:sans-serif;font-style:normal;font-weight:normal" x="480.445" y="246.027">
      <tspan x="480.445" y="246.027">(不同类型和代码有不同的内容)</tspan>
    </text>
  </g>
  <line style="fill: none; fill-opacity:0; stroke-width: 2; stroke: #000000" x1="480.431" y1="162.242" x2="480.438" y2="199.445"/>
  <line style="fill: none; fill-opacity:0; stroke-width: 2; stroke: #000000" x1="400.003" y1="162.125" x2="400.009" y2="199.328"/>
  <g>
    <path style="fill: #ffffff" d="M 333.895 168.409 L 383.295,168.409 L 383.295,192.409 C 373.415,188.409 368.475,188.409 358.595,192.409 C 348.715,196.409 343.775,196.409 333.895,192.409 L 333.895,168.409z"/>
    <path style="fill: none; fill-opacity:0; stroke-width: 0.02; stroke: #000000" d="M 333.895 168.409 L 383.295,168.409 L 383.295,192.409 C 373.415,188.409 368.475,188.409 358.595,192.409 C 348.715,196.409 343.775,196.409 333.895,192.409 L 333.895,168.409"/>
    <text font-size="12.7998" style="fill: #000000;text-anchor:middle;font-family:sans-serif;font-style:normal;font-weight:normal" x="358.595" y="183.409">
      <tspan x="358.595" y="183.409">8位类型</tspan>
    </text>
  </g>
  <g>
    <path style="fill: #ffffff" d="M 413.254 167.842 L 462.654,167.842 L 462.654,191.842 C 452.774,187.842 447.834,187.842 437.954,191.842 C 428.074,195.842 423.134,195.842 413.254,191.842 L 413.254,167.842z"/>
    <path style="fill: none; fill-opacity:0; stroke-width: 0.02; stroke: #000000" d="M 413.254 167.842 L 462.654,167.842 L 462.654,191.842 C 452.774,187.842 447.834,187.842 437.954,191.842 C 428.074,195.842 423.134,195.842 413.254,191.842 L 413.254,167.842"/>
    <text font-size="12.7998" style="fill: #000000;text-anchor:middle;font-family:sans-serif;font-style:normal;font-weight:normal" x="437.954" y="182.842">
      <tspan x="437.954" y="182.842">8位代码</tspan>
    </text>
  </g>
  <g>
    <path style="fill: #ffffff" d="M 522.837 167.459 L 592.037,167.459 L 592.037,191.459 C 578.197,187.459 571.277,187.459 557.437,191.459 C 543.597,195.459 536.677,195.459 522.837,191.459 L 522.837,167.459z"/>
    <path style="fill: none; fill-opacity:0; stroke-width: 0.02; stroke: #000000" d="M 522.837 167.459 L 592.037,167.459 L 592.037,191.459 C 578.197,187.459 571.277,187.459 557.437,191.459 C 543.597,195.459 536.677,195.459 522.837,191.459 L 522.837,167.459"/>
    <text font-size="12.7998" style="fill: #000000;text-anchor:middle;font-family:sans-serif;font-style:normal;font-weight:normal" x="557.437" y="182.459">
      <tspan x="557.437" y="182.459">16位校验和</tspan>
    </text>
  </g>
</svg>
