<?xml version="1.0" encoding="UTF-8" standalone="no"?>
<!DOCTYPE svg PUBLIC "-//W3C//DTD SVG 1.0//EN" "http://www.w3.org/TR/2001/PR-SVG-20010719/DTD/svg10.dtd">
<svg width="27cm" height="19cm" viewBox="294 -25 539 369" xmlns="http://www.w3.org/2000/svg" xmlns:xlink="http://www.w3.org/1999/xlink">
  <g>
    <path style="fill: #ffffff" d="M 294.494 140.222 L 306.194,140.222 L 306.194,164.222 C 303.854,160.222 302.684,160.222 300.344,164.222 C 298.004,168.222 296.834,168.222 294.494,164.222 L 294.494,140.222z"/>
    <path style="fill: none; fill-opacity:0; stroke-width: 0.02; stroke: #000000" d="M 294.494 140.222 L 306.194,140.222 L 306.194,164.222 C 303.854,160.222 302.684,160.222 300.344,164.222 C 298.004,168.222 296.834,168.222 294.494,164.222 L 294.494,140.222"/>
    <text font-size="12.8" style="fill: #000000;text-anchor:middle;font-family:monospace;font-style:normal;font-weight:normal" x="300.344" y="153.422">
      <tspan x="300.344" y="153.422">0</tspan>
    </text>
  </g>
  <g>
    <path style="fill: #ffffff" d="M 368.256 138.955 L 379.956,138.955 L 379.956,162.955 C 377.616,158.955 376.446,158.955 374.106,162.955 C 371.766,166.955 370.596,166.955 368.256,162.955 L 368.256,138.955z"/>
    <path style="fill: none; fill-opacity:0; stroke-width: 0.02; stroke: #000000" d="M 368.256 138.955 L 379.956,138.955 L 379.956,162.955 C 377.616,158.955 376.446,158.955 374.106,162.955 C 371.766,166.955 370.596,166.955 368.256,162.955 L 368.256,138.955"/>
    <text font-size="12.8" style="fill: #000000;text-anchor:middle;font-family:monospace;font-style:normal;font-weight:normal" x="374.106" y="152.155">
      <tspan x="374.106" y="152.155">7</tspan>
    </text>
  </g>
  <g>
    <path style="fill: #ffffff" d="M 379.658 138.955 L 391.358,138.955 L 391.358,162.955 C 389.018,158.955 387.848,158.955 385.508,162.955 C 383.168,166.955 381.998,166.955 379.658,162.955 L 379.658,138.955z"/>
    <path style="fill: none; fill-opacity:0; stroke-width: 0.02; stroke: #000000" d="M 379.658 138.955 L 391.358,138.955 L 391.358,162.955 C 389.018,158.955 387.848,158.955 385.508,162.955 C 383.168,166.955 381.998,166.955 379.658,162.955 L 379.658,138.955"/>
    <text font-size="12.8" style="fill: #000000;text-anchor:middle;font-family:monospace;font-style:normal;font-weight:normal" x="385.508" y="152.155">
      <tspan x="385.508" y="152.155">8</tspan>
    </text>
  </g>
  <g>
    <path style="fill: #ffffff" d="M 456.886 139.588 L 476.286,139.588 L 476.286,163.588 C 472.406,159.588 470.466,159.588 466.586,163.588 C 462.706,167.588 460.766,167.588 456.886,163.588 L 456.886,139.588z"/>
    <path style="fill: none; fill-opacity:0; stroke-width: 0.02; stroke: #000000" d="M 456.886 139.588 L 476.286,139.588 L 476.286,163.588 C 472.406,159.588 470.466,159.588 466.586,163.588 C 462.706,167.588 460.766,167.588 456.886,163.588 L 456.886,139.588"/>
    <text font-size="12.8" style="fill: #000000;text-anchor:middle;font-family:monospace;font-style:normal;font-weight:normal" x="466.586" y="152.788">
      <tspan x="466.586" y="152.788">16</tspan>
    </text>
  </g>
  <g>
    <path style="fill: #ffffff" d="M 441.7 139.588 L 461.1,139.588 L 461.1,163.588 C 457.22,159.588 455.28,159.588 451.4,163.588 C 447.52,167.588 445.58,167.588 441.7,163.588 L 441.7,139.588z"/>
    <path style="fill: none; fill-opacity:0; stroke-width: 0.02; stroke: #000000" d="M 441.7 139.588 L 461.1,139.588 L 461.1,163.588 C 457.22,159.588 455.28,159.588 451.4,163.588 C 447.52,167.588 445.58,167.588 441.7,163.588 L 441.7,139.588"/>
    <text font-size="12.8" style="fill: #000000;text-anchor:middle;font-family:monospace;font-style:normal;font-weight:normal" x="451.4" y="152.788">
      <tspan x="451.4" y="152.788">15</tspan>
    </text>
  </g>
  <g>
    <path style="fill: #ffffff" d="M 604.806 139.905 L 624.206,139.905 L 624.206,163.905 C 620.326,159.905 618.386,159.905 614.506,163.905 C 610.626,167.905 608.686,167.905 604.806,163.905 L 604.806,139.905z"/>
    <path style="fill: none; fill-opacity:0; stroke-width: 0.02; stroke: #000000" d="M 604.806 139.905 L 624.206,139.905 L 624.206,163.905 C 620.326,159.905 618.386,159.905 614.506,163.905 C 610.626,167.905 608.686,167.905 604.806,163.905 L 604.806,139.905"/>
    <text font-size="12.8" style="fill: #000000;text-anchor:middle;font-family:monospace;font-style:normal;font-weight:normal" x="614.506" y="153.105">
      <tspan x="614.506" y="153.105">31</tspan>
    </text>
  </g>
  <g>
    <rect style="fill: #ffffff" x="300.866" y="162.242" width="319.24" height="38"/>
    <rect style="fill: none; fill-opacity:0; stroke-width: 2; stroke: #000000" x="300.866" y="162.242" width="319.24" height="38"/>
    <text font-size="12.8" style="fill: #000000;text-anchor:middle;font-family:monospace;font-style:normal;font-weight:normal" x="460.486" y="183.892">
      <tspan x="460.486" y="183.892"></tspan>
    </text>
  </g>
  <g>
    <rect style="fill: #ffffff" x="300.88" y="200.447" width="319.24" height="38"/>
    <rect style="fill: none; fill-opacity:0; stroke-width: 2; stroke: #000000" x="300.88" y="200.447" width="319.24" height="38"/>
    <text font-size="12.8" style="fill: #000000;text-anchor:middle;font-family:monospace;font-style:normal;font-weight:normal" x="460.5" y="222.447">
      <tspan x="460.5" y="222.447">未用(必须为0)</tspan>
    </text>
  </g>
  <line style="fill: none; fill-opacity:0; stroke-width: 2; stroke: #000000" x1="460.486" y1="162.242" x2="460.493" y2="199.445"/>
  <line style="fill: none; fill-opacity:0; stroke-width: 2; stroke: #000000" x1="380.058" y1="162.326" x2="380.064" y2="199.528"/>
  <g>
    <path style="fill: #ffffff" d="M 302.5 168.409 L 374.8,168.409 L 374.8,192.409 C 360.34,188.409 353.11,188.409 338.65,192.409 C 324.19,196.409 316.96,196.409 302.5,192.409 L 302.5,168.409z"/>
    <path style="fill: none; fill-opacity:0; stroke-width: 0.02; stroke: #000000" d="M 302.5 168.409 L 374.8,168.409 L 374.8,192.409 C 360.34,188.409 353.11,188.409 338.65,192.409 C 324.19,196.409 316.96,196.409 302.5,192.409 L 302.5,168.409"/>
    <text font-size="12.8" style="fill: #000000;text-anchor:middle;font-family:monospace;font-style:normal;font-weight:normal" x="338.65" y="181.609">
      <tspan x="338.65" y="181.609">类型(3)</tspan>
    </text>
  </g>
  <g>
    <path style="fill: #ffffff" d="M 380.11 167.842 L 455.91,167.842 L 455.91,191.842 C 440.75,187.842 433.17,187.842 418.01,191.842 C 402.85,195.842 395.27,195.842 380.11,191.842 L 380.11,167.842z"/>
    <path style="fill: none; fill-opacity:0; stroke-width: 0.02; stroke: #000000" d="M 380.11 167.842 L 455.91,167.842 L 455.91,191.842 C 440.75,187.842 433.17,187.842 418.01,191.842 C 402.85,195.842 395.27,195.842 380.11,191.842 L 380.11,167.842"/>
    <text font-size="12.8" style="fill: #000000;text-anchor:middle;font-family:monospace;font-style:normal;font-weight:normal" x="418.01" y="181.042">
      <tspan x="418.01" y="181.042">代码(0-15)</tspan>
    </text>
  </g>
  <g>
    <path style="fill: #ffffff" d="M 511.151 168.567 L 553.551,168.567 L 553.551,192.567 C 545.071,188.567 540.831,188.567 532.351,192.567 C 523.871,196.567 519.631,196.567 511.151,192.567 L 511.151,168.567z"/>
    <path style="fill: none; fill-opacity:0; stroke-width: 0.02; stroke: #000000" d="M 511.151 168.567 L 553.551,168.567 L 553.551,192.567 C 545.071,188.567 540.831,188.567 532.351,192.567 C 523.871,196.567 519.631,196.567 511.151,192.567 L 511.151,168.567"/>
    <text font-size="12.8" style="fill: #000000;text-anchor:middle;font-family:monospace;font-style:normal;font-weight:normal" x="532.351" y="181.767">
      <tspan x="532.351" y="181.767">校验和</tspan>
    </text>
  </g>
  <g>
    <rect style="fill: #ffffff" x="300.857" y="238.384" width="319.24" height="73.8948"/>
    <rect style="fill: none; fill-opacity:0; stroke-width: 2; stroke: #000000" x="300.857" y="238.384" width="319.24" height="73.8948"/>
    <text font-size="12.8" style="fill: #000000;text-anchor:middle;font-family:monospace;font-style:normal;font-weight:normal" x="460.477" y="277.981">
      <tspan x="460.477" y="277.981"></tspan>
    </text>
  </g>
  <g>
    <path style="fill: #ffffff" d="M 305.603 263.241 L 614.403,263.241 L 614.403,287.241 C 552.643,283.241 521.763,283.241 460.003,287.241 C 398.243,291.241 367.363,291.241 305.603,287.241 L 305.603,263.241z"/>
    <path style="fill: none; fill-opacity:0; stroke-width: 0.02; stroke: #000000" d="M 305.603 263.241 L 614.403,263.241 L 614.403,287.241 C 552.643,283.241 521.763,283.241 460.003,287.241 C 398.243,291.241 367.363,291.241 305.603,287.241 L 305.603,263.241"/>
    <text font-size="12.8" style="fill: #000000;text-anchor:middle;font-family:monospace;font-style:normal;font-weight:normal" x="460.003" y="276.441">
      <tspan x="460.003" y="276.441">IP首部(包括选项)+原始IP数据报中数据的前8个字节</tspan>
    </text>
  </g>
  <line style="fill: none; fill-opacity:0; stroke-width: 1; stroke: #000000" x1="635.837" y1="238.947" x2="650.46" y2="238.947"/>
  <line style="fill: none; fill-opacity:0; stroke-width: 1; stroke: #000000" x1="635.782" y1="161.859" x2="650.405" y2="161.859"/>
  <g>
    <path style="fill: #ffffff" d="M 621.236 187.972 L 664.836,187.972 L 664.836,211.972 C 656.116,207.972 651.756,207.972 643.036,211.972 C 634.316,215.972 629.956,215.972 621.236,211.972 L 621.236,187.972z"/>
    <path style="fill: none; fill-opacity:0; stroke-width: 0.02; stroke: #000000" d="M 621.236 187.972 L 664.836,187.972 L 664.836,211.972 C 656.116,207.972 651.756,207.972 643.036,211.972 C 634.316,215.972 629.956,215.972 621.236,211.972 L 621.236,187.972"/>
    <text font-size="12.8" style="fill: #000000;text-anchor:middle;font-family:monospace;font-style:normal;font-weight:normal" x="643.036" y="201.172">
      <tspan x="643.036" y="201.172">8字节</tspan>
    </text>
  </g>
  <g>
    <line style="fill: none; fill-opacity:0; stroke-width: 1; stroke: #000000" x1="643.036" y1="187.972" x2="643.07" y2="172.359"/>
    <polygon style="fill: #000000" points="648.07,172.37 643.092,162.359 638.07,172.348 "/>
    <polygon style="fill: none; fill-opacity:0; stroke-width: 1; stroke: #000000" points="648.07,172.37 643.092,162.359 638.07,172.348 "/>
  </g>
  <g>
    <line style="fill: none; fill-opacity:0; stroke-width: 1; stroke: #000000" x1="643.066" y1="211.956" x2="643.116" y2="228.447"/>
    <polygon style="fill: #000000" points="638.116,228.462 643.147,238.447 648.116,228.432 "/>
    <polygon style="fill: none; fill-opacity:0; stroke-width: 1; stroke: #000000" points="638.116,228.462 643.147,238.447 648.116,228.432 "/>
  </g>
  <line style="fill: none; fill-opacity:0; stroke-width: 1; stroke: #000000" x1="548.302" y1="4.52896" x2="548.224" y2="16.1272"/>
  <g>
    <path style="fill: #ffffff" d="M 664.089 -3.32934 L 738.347,-3.32934 L 738.347,20.6707 C 723.495,16.6707 716.069,16.6707 701.218,20.6707 C 686.366,24.6707 678.941,24.6707 664.089,20.6707 L 664.089,-3.32934z"/>
    <path style="fill: none; fill-opacity:0; stroke-width: 0.02; stroke: #000000" d="M 664.089 -3.32934 L 738.347,-3.32934 L 738.347,20.6707 C 723.495,16.6707 716.069,16.6707 701.218,20.6707 C 686.366,24.6707 678.941,24.6707 664.089,20.6707 L 664.089,-3.32934"/>
    <text font-size="12.8" style="fill: #000000;text-anchor:middle;font-family:monospace;font-style:normal;font-weight:normal" x="701.218" y="9.87066">
      <tspan x="701.218" y="9.87066">ICMP报文</tspan>
    </text>
  </g>
  <g>
    <line style="fill: none; fill-opacity:0; stroke-width: 1; stroke: #000000" x1="738.347" y1="8.67066" x2="821.383" y2="8.524"/>
    <polygon style="fill: #000000" points="821.392,13.524 831.383,8.50634 821.374,3.52401 "/>
    <polygon style="fill: none; fill-opacity:0; stroke-width: 1; stroke: #000000" points="821.392,13.524 831.383,8.50634 821.374,3.52401 "/>
  </g>
  <line style="fill: none; fill-opacity:0; stroke-width: 1; stroke: #000000" x1="388.637" y1="-16.0578" x2="388.559" y2="-4.45962"/>
  <g>
    <path style="fill: #ffffff" d="M 565.591 -24.2314 L 639.849,-24.2314 L 639.849,-0.231411 C 624.997,-4.23141 617.572,-4.23141 602.72,-0.231411 C 587.869,3.76859 580.443,3.76859 565.591,-0.231411 L 565.591,-24.2314z"/>
    <path style="fill: none; fill-opacity:0; stroke-width: 0.02; stroke: #000000" d="M 565.591 -24.2314 L 639.849,-24.2314 L 639.849,-0.231411 C 624.997,-4.23141 617.572,-4.23141 602.72,-0.231411 C 587.869,3.76859 580.443,3.76859 565.591,-0.231411 L 565.591,-24.2314"/>
    <text font-size="12.8" style="fill: #000000;text-anchor:middle;font-family:monospace;font-style:normal;font-weight:normal" x="602.72" y="-11.0314">
      <tspan x="602.72" y="-11.0314">IP报文</tspan>
    </text>
  </g>
  <g>
    <line style="fill: none; fill-opacity:0; stroke-width: 1; stroke: #000000" x1="565.591" y1="-10.2361" x2="399.098" y2="-10.2574"/>
    <polygon style="fill: #000000" points="399.099,-15.2574 389.098,-10.2587 399.098,-5.25738 "/>
    <polygon style="fill: none; fill-opacity:0; stroke-width: 1; stroke: #000000" points="399.099,-15.2574 389.098,-10.2587 399.098,-5.25738 "/>
  </g>
  <line style="fill: none; fill-opacity:0; stroke-width: 1; stroke: #000000" x1="832.112" y1="-17.8804" x2="832.032" y2="-6.28222"/>
  <g>
    <line style="fill: none; fill-opacity:0; stroke-width: 1; stroke: #000000" x1="639.849" y1="-12.2314" x2="821.572" y2="-12.0895"/>
    <polygon style="fill: #000000" points="821.568,-7.08952 831.572,-12.0817 821.576,-17.0895 "/>
    <polygon style="fill: none; fill-opacity:0; stroke-width: 1; stroke: #000000" points="821.568,-7.08952 831.572,-12.0817 821.576,-17.0895 "/>
  </g>
  <g>
    <path style="fill: #ffffff" d="M 351.472 316.083 L 549.85,316.083 L 549.85,340.083 C 510.174,336.083 490.337,336.083 450.661,340.083 C 410.986,344.083 391.148,344.083 351.472,340.083 L 351.472,316.083z"/>
    <path style="fill: none; fill-opacity:0; stroke-width: 0.02; stroke: #000000" d="M 351.472 316.083 L 549.85,316.083 L 549.85,340.083 C 510.174,336.083 490.337,336.083 450.661,340.083 C 410.986,344.083 391.148,344.083 351.472,340.083 L 351.472,316.083"/>
    <text font-size="12.8" style="fill: #000000;text-anchor:middle;font-family:monospace;font-style:normal;font-weight:700" x="450.661" y="328.483">
      <tspan x="450.661" y="328.483">ICMP不可达报文</tspan>
    </text>
  </g>
  <g>
    <path style="fill: #ffffff" d="M 659.627 16.933 L 784.027,16.933 L 784.027,40.933 C 759.147,36.933 746.707,36.933 721.827,40.933 C 696.947,44.933 684.507,44.933 659.627,40.933 L 659.627,16.933z"/>
    <path style="fill: none; fill-opacity:0; stroke-width: 0.02; stroke: #000000" d="M 659.627 16.933 L 784.027,16.933 L 784.027,40.933 C 759.147,36.933 746.707,36.933 721.827,40.933 C 696.947,44.933 684.507,44.933 659.627,40.933 L 659.627,16.933"/>
    <text font-size="12.8" style="fill: #000000;text-anchor:middle;font-family:monospace;font-style:normal;font-weight:normal" x="721.827" y="30.133">
      <tspan x="721.827" y="30.133">ICMP报文的数据部分</tspan>
    </text>
  </g>
  <g>
    <line style="fill: none; fill-opacity:0; stroke-width: 1; stroke: #000000" x1="664.09" y1="10.5875" x2="558.763" y2="10.3516"/>
    <polygon style="fill: #000000" points="558.774,5.35159 548.763,10.3292 558.752,15.3516 "/>
    <polygon style="fill: none; fill-opacity:0; stroke-width: 1; stroke: #000000" points="558.774,5.35159 548.763,10.3292 558.752,15.3516 "/>
  </g>
  <line style="fill: none; fill-opacity:0; stroke-width: 1; stroke: #000000" x1="831.923" y1="2.70636" x2="831.843" y2="14.3046"/>
  <g>
    <path style="fill: #ffffff" d="M 331.617 80.0791 L 351.017,80.0791 L 351.017,104.079 C 347.137,100.079 345.197,100.079 341.317,104.079 C 337.437,108.079 335.497,108.079 331.617,104.079 L 331.617,80.0791z"/>
    <path style="fill: none; fill-opacity:0; stroke-width: 0.02; stroke: #000000" d="M 331.617 80.0791 L 351.017,80.0791 L 351.017,104.079 C 347.137,100.079 345.197,100.079 341.317,104.079 C 337.437,108.079 335.497,108.079 331.617,104.079 L 331.617,80.0791"/>
    <text font-size="12.8" style="fill: #000000;text-anchor:middle;font-family:monospace;font-style:normal;font-weight:normal" x="341.317" y="93.2791">
      <tspan x="341.317" y="93.2791">14</tspan>
    </text>
  </g>
  <g>
    <path style="fill: #ffffff" d="M 462.824 80.3648 L 482.224,80.3648 L 482.224,104.365 C 478.344,100.365 476.404,100.365 472.524,104.365 C 468.644,108.365 466.704,108.365 462.824,104.365 L 462.824,80.3648z"/>
    <path style="fill: none; fill-opacity:0; stroke-width: 0.02; stroke: #000000" d="M 462.824 80.3648 L 482.224,80.3648 L 482.224,104.365 C 478.344,100.365 476.404,100.365 472.524,104.365 C 468.644,108.365 466.704,108.365 462.824,104.365 L 462.824,80.3648"/>
    <text font-size="12.8" style="fill: #000000;text-anchor:middle;font-family:monospace;font-style:normal;font-weight:normal" x="472.524" y="93.5648">
      <tspan x="472.524" y="93.5648">20</tspan>
    </text>
  </g>
  <g>
    <rect style="fill: #ffffff" x="301.071" y="40.3792" width="531.168" height="38"/>
    <rect style="fill: none; fill-opacity:0; stroke-width: 2; stroke: #000000" x="301.071" y="40.3792" width="531.168" height="38"/>
    <text font-size="12.8" style="fill: #000000;text-anchor:middle;font-family:monospace;font-style:normal;font-weight:normal" x="566.656" y="62.0292">
      <tspan x="566.656" y="62.0292"></tspan>
    </text>
  </g>
  <g>
    <path style="fill: #ffffff" d="M 577.159 80.089 L 588.859,80.089 L 588.859,104.089 C 586.519,100.089 585.349,100.089 583.009,104.089 C 580.669,108.089 579.499,108.089 577.159,104.089 L 577.159,80.089z"/>
    <path style="fill: none; fill-opacity:0; stroke-width: 0.02; stroke: #000000" d="M 577.159 80.089 L 588.859,80.089 L 588.859,104.089 C 586.519,100.089 585.349,100.089 583.009,104.089 C 580.669,108.089 579.499,108.089 577.159,104.089 L 577.159,80.089"/>
    <text font-size="12.8" style="fill: #000000;text-anchor:middle;font-family:monospace;font-style:normal;font-weight:normal" x="583.009" y="93.289">
      <tspan x="583.009" y="93.289">8</tspan>
    </text>
  </g>
  <g>
    <path style="fill: #ffffff" d="M 692.615 79.8051 L 712.015,79.8051 L 712.015,103.805 C 708.135,99.8051 706.195,99.8051 702.315,103.805 C 698.435,107.805 696.495,107.805 692.615,103.805 L 692.615,79.8051z"/>
    <path style="fill: none; fill-opacity:0; stroke-width: 0.02; stroke: #000000" d="M 692.615 79.8051 L 712.015,79.8051 L 712.015,103.805 C 708.135,99.8051 706.195,99.8051 702.315,103.805 C 698.435,107.805 696.495,107.805 692.615,103.805 L 692.615,79.8051"/>
    <text font-size="12.8" style="fill: #000000;text-anchor:middle;font-family:monospace;font-style:normal;font-weight:normal" x="702.315" y="93.0051">
      <tspan x="702.315" y="93.0051">20</tspan>
    </text>
  </g>
  <g>
    <path style="fill: #ffffff" d="M 799.772 80.5162 L 811.472,80.5162 L 811.472,104.516 C 809.132,100.516 807.962,100.516 805.622,104.516 C 803.282,108.516 802.112,108.516 799.772,104.516 L 799.772,80.5162z"/>
    <path style="fill: none; fill-opacity:0; stroke-width: 0.02; stroke: #000000" d="M 799.772 80.5162 L 811.472,80.5162 L 811.472,104.516 C 809.132,100.516 807.962,100.516 805.622,104.516 C 803.282,108.516 802.112,108.516 799.772,104.516 L 799.772,80.5162"/>
    <text font-size="12.8" style="fill: #000000;text-anchor:middle;font-family:monospace;font-style:normal;font-weight:normal" x="805.622" y="93.7162">
      <tspan x="805.622" y="93.7162">8</tspan>
    </text>
  </g>
  <g>
    <path style="fill: #ffffff" d="M 311.196 46.3867 L 379.196,46.3867 L 379.196,70.3867 C 365.596,66.3867 358.796,66.3867 345.196,70.3867 C 331.596,74.3867 324.796,74.3867 311.196,70.3867 L 311.196,46.3867z"/>
    <path style="fill: none; fill-opacity:0; stroke-width: 0.02; stroke: #000000" d="M 311.196 46.3867 L 379.196,46.3867 L 379.196,70.3867 C 365.596,66.3867 358.796,66.3867 345.196,70.3867 C 331.596,74.3867 324.796,74.3867 311.196,70.3867 L 311.196,46.3867"/>
    <text font-size="12.8" style="fill: #000000;text-anchor:middle;font-family:monospace;font-style:normal;font-weight:normal" x="345.196" y="59.5867">
      <tspan x="345.196" y="59.5867">以太网首部</tspan>
    </text>
  </g>
  <line style="fill: none; fill-opacity:0; stroke-width: 1; stroke: #000000" x1="616.299" y1="24.7913" x2="616.221" y2="36.3895"/>
  <g>
    <line style="fill: none; fill-opacity:0; stroke-width: 1; stroke: #000000" x1="659.636" y1="30.7311" x2="626.76" y2="30.6244"/>
    <polygon style="fill: #000000" points="626.776,25.6245 616.76,30.592 626.743,35.6244 "/>
    <polygon style="fill: none; fill-opacity:0; stroke-width: 1; stroke: #000000" points="626.776,25.6245 616.76,30.592 626.743,35.6244 "/>
  </g>
  <line style="fill: none; fill-opacity:0; stroke-width: 1; stroke: #000000" x1="831.817" y1="22.9687" x2="831.737" y2="34.5669"/>
  <g>
    <line style="fill: none; fill-opacity:0; stroke-width: 1; stroke: #000000" x1="784.027" y1="28.933" x2="821.277" y2="28.8041"/>
    <polygon style="fill: #000000" points="821.294,33.8041 831.277,28.7695 821.259,23.8041 "/>
    <polygon style="fill: none; fill-opacity:0; stroke-width: 1; stroke: #000000" points="821.294,33.8041 831.277,28.7695 821.259,23.8041 "/>
  </g>
  <line style="fill: none; fill-opacity:0; stroke-width: 2; stroke: #000000" x1="388.67" y1="40.8434" x2="388.677" y2="78.0462"/>
  <line style="fill: none; fill-opacity:0; stroke-width: 2; stroke: #000000" x1="548.735" y1="40.2756" x2="548.741" y2="77.4784"/>
  <g>
    <path style="fill: #ffffff" d="M 442.728 45.8536 L 487.728,45.8536 L 487.728,69.8536 C 478.728,65.8536 474.228,65.8536 465.228,69.8536 C 456.228,73.8536 451.728,73.8536 442.728,69.8536 L 442.728,45.8536z"/>
    <path style="fill: none; fill-opacity:0; stroke-width: 0.02; stroke: #000000" d="M 442.728 45.8536 L 487.728,45.8536 L 487.728,69.8536 C 478.728,65.8536 474.228,65.8536 465.228,69.8536 C 456.228,73.8536 451.728,73.8536 442.728,69.8536 L 442.728,45.8536"/>
    <text font-size="12.8" style="fill: #000000;text-anchor:middle;font-family:monospace;font-style:normal;font-weight:normal" x="465.228" y="59.0536">
      <tspan x="465.228" y="59.0536">IP首部</tspan>
    </text>
  </g>
  <line style="fill: none; fill-opacity:0; stroke-width: 2; stroke: #000000" x1="616.131" y1="40.8434" x2="616.138" y2="78.0462"/>
  <g>
    <path style="fill: #ffffff" d="M 552.832 46.4214 L 613.232,46.4214 L 613.232,70.4214 C 601.152,66.4214 595.112,66.4214 583.032,70.4214 C 570.952,74.4214 564.912,74.4214 552.832,70.4214 L 552.832,46.4214z"/>
    <path style="fill: none; fill-opacity:0; stroke-width: 0.02; stroke: #000000" d="M 552.832 46.4214 L 613.232,46.4214 L 613.232,70.4214 C 601.152,66.4214 595.112,66.4214 583.032,70.4214 C 570.952,74.4214 564.912,74.4214 552.832,70.4214 L 552.832,46.4214"/>
    <text font-size="12.8" style="fill: #000000;text-anchor:middle;font-family:monospace;font-style:normal;font-weight:normal" x="583.032" y="59.6214">
      <tspan x="583.032" y="59.6214">ICMP首部</tspan>
    </text>
  </g>
  <line style="fill: none; fill-opacity:0; stroke-width: 2; stroke: #000000" x1="776.417" y1="40.2756" x2="776.424" y2="77.4784"/>
  <g>
    <path style="fill: #ffffff" d="M 622.493 46.7053 L 769.893,46.7053 L 769.893,70.7053 C 740.413,66.7053 725.673,66.7053 696.193,70.7053 C 666.713,74.7053 651.973,74.7053 622.493,70.7053 L 622.493,46.7053z"/>
    <path style="fill: none; fill-opacity:0; stroke-width: 0.02; stroke: #000000" d="M 622.493 46.7053 L 769.893,46.7053 L 769.893,70.7053 C 740.413,66.7053 725.673,66.7053 696.193,70.7053 C 666.713,74.7053 651.973,74.7053 622.493,70.7053 L 622.493,46.7053"/>
    <text font-size="12.8" style="fill: #000000;text-anchor:middle;font-family:monospace;font-style:normal;font-weight:normal" x="696.193" y="59.9053">
      <tspan x="696.193" y="59.9053">产生差错的数据报IP首部</tspan>
    </text>
  </g>
  <g>
    <path style="fill: #ffffff" d="M 777.434 46.7053 L 831.184,46.7053 L 831.184,70.7053 C 820.434,66.7053 815.059,66.7053 804.309,70.7053 C 793.559,74.7053 788.184,74.7053 777.434,70.7053 L 777.434,46.7053z"/>
    <path style="fill: none; fill-opacity:0; stroke-width: 0.02; stroke: #000000" d="M 777.434 46.7053 L 831.184,46.7053 L 831.184,70.7053 C 820.434,66.7053 815.059,66.7053 804.309,70.7053 C 793.559,74.7053 788.184,74.7053 777.434,70.7053 L 777.434,46.7053"/>
    <text font-size="12.8" style="fill: #000000;text-anchor:middle;font-family:monospace;font-style:normal;font-weight:normal" x="804.309" y="59.9053">
      <tspan x="804.309" y="59.9053">UDP首部</tspan>
    </text>
  </g>
  <g>
    <path style="fill: #ffffff" d="M 455.564 99.533 L 662.714,99.533 L 662.714,123.533 C 621.284,119.533 600.569,119.533 559.139,123.533 C 517.709,127.533 496.994,127.533 455.564,123.533 L 455.564,99.533z"/>
    <path style="fill: none; fill-opacity:0; stroke-width: 0.02; stroke: #000000" d="M 455.564 99.533 L 662.714,99.533 L 662.714,123.533 C 621.284,119.533 600.569,119.533 559.139,123.533 C 517.709,127.533 496.994,127.533 455.564,123.533 L 455.564,99.533"/>
    <text font-size="12.8" style="fill: #000000;text-anchor:middle;font-family:monospace;font-style:normal;font-weight:700" x="559.139" y="111.933">
      <tspan x="559.139" y="111.933">“UDP”端口不可达返回的ICMP报文</tspan>
    </text>
  </g>
</svg>
