<?xml version="1.0" encoding="UTF-8" standalone="no"?>
<!DOCTYPE svg PUBLIC "-//W3C//DTD SVG 1.0//EN" "http://www.w3.org/TR/2001/PR-SVG-20010719/DTD/svg10.dtd">
<svg width="36cm" height="30cm" viewBox="59 -216 718 584" xmlns="http://www.w3.org/2000/svg" xmlns:xlink="http://www.w3.org/1999/xlink">
  <g>
    <path style="fill: none; fill-opacity:0; stroke-width: 0.02; stroke: #000000" d="M 91.0504 117.756 L 146.25,117.756 L 146.25,141.756 C 135.21,137.756 129.69,137.756 118.65,141.756 C 107.61,145.756 102.09,145.756 91.0504,141.756 L 91.0504,117.756"/>
    <text font-size="12.8" style="fill: #000000;text-anchor:middle;font-family:monospace;font-style:normal;font-weight:normal" x="118.65" y="130.956">
      <tspan x="118.65" y="130.956">目的地址</tspan>
    </text>
  </g>
  <line style="fill: none; fill-opacity:0; stroke-width: 2; stroke: #000000" x1="299.758" y1="150.897" x2="300.048" y2="111.697"/>
  <g>
    <path style="fill: none; fill-opacity:0; stroke-width: 0.02; stroke: #000000" d="M 198.643 118.476 L 241.043,118.476 L 241.043,142.476 C 232.563,138.476 228.323,138.476 219.843,142.476 C 211.363,146.476 207.123,146.476 198.643,142.476 L 198.643,118.476"/>
    <text font-size="12.8" style="fill: #000000;text-anchor:middle;font-family:monospace;font-style:normal;font-weight:normal" x="219.843" y="131.676">
      <tspan x="219.843" y="131.676">源地址</tspan>
    </text>
  </g>
  <g>
    <path style="fill: #ffffff" d="M 102.941 152.194 L 122.341,152.194 L 122.341,176.194 C 118.461,172.194 116.521,172.194 112.641,176.194 C 108.761,180.194 106.821,180.194 102.941,176.194 L 102.941,152.194z"/>
    <path style="fill: none; fill-opacity:0; stroke-width: 0.02; stroke: #000000" d="M 102.941 152.194 L 122.341,152.194 L 122.341,176.194 C 118.461,172.194 116.521,172.194 112.641,176.194 C 108.761,180.194 106.821,180.194 102.941,176.194 L 102.941,152.194"/>
    <text font-size="12.8" style="fill: #000000;text-anchor:middle;font-family:monospace;font-style:normal;font-weight:normal" x="112.641" y="165.394">
      <tspan x="112.641" y="165.394">6</tspan>
    </text>
  </g>
  <g>
    <path style="fill: #ffffff" d="M 222.986 152.194 L 242.386,152.194 L 242.386,176.194 C 238.506,172.194 236.566,172.194 232.686,176.194 C 228.806,180.194 226.866,180.194 222.986,176.194 L 222.986,152.194z"/>
    <path style="fill: none; fill-opacity:0; stroke-width: 0.02; stroke: #000000" d="M 222.986 152.194 L 242.386,152.194 L 242.386,176.194 C 238.506,172.194 236.566,172.194 232.686,176.194 C 228.806,180.194 226.866,180.194 222.986,176.194 L 222.986,152.194"/>
    <text font-size="12.8" style="fill: #000000;text-anchor:middle;font-family:monospace;font-style:normal;font-weight:normal" x="232.686" y="165.394">
      <tspan x="232.686" y="165.394">6</tspan>
    </text>
  </g>
  <line style="fill: none; fill-opacity:0; stroke-width: 2; stroke: #000000" x1="180.326" y1="150.897" x2="180.26" y2="112.35"/>
  <g>
    <path style="fill: none; fill-opacity:0; stroke-width: 0.02; stroke: #000000" d="M 305.924 118.476 L 335.524,118.476 L 335.524,142.476 C 329.604,138.476 326.644,138.476 320.724,142.476 C 314.804,146.476 311.844,146.476 305.924,142.476 L 305.924,118.476"/>
    <text font-size="12.8" style="fill: #000000;text-anchor:middle;font-family:monospace;font-style:normal;font-weight:normal" x="320.724" y="131.676">
      <tspan x="320.724" y="131.676">类型</tspan>
    </text>
  </g>
  <line style="fill: none; fill-opacity:0; stroke-width: 2; stroke: #000000" x1="340.736" y1="150.093" x2="341.024" y2="113.487"/>
  <g>
    <path style="fill: #ffffff" d="M 308.096 151.7 L 327.496,151.7 L 327.496,175.7 C 323.616,171.7 321.676,171.7 317.796,175.7 C 313.916,179.7 311.976,179.7 308.096,175.7 L 308.096,151.7z"/>
    <path style="fill: none; fill-opacity:0; stroke-width: 0.02; stroke: #000000" d="M 308.096 151.7 L 327.496,151.7 L 327.496,175.7 C 323.616,171.7 321.676,171.7 317.796,175.7 C 313.916,179.7 311.976,179.7 308.096,175.7 L 308.096,151.7"/>
    <text font-size="12.8" style="fill: #000000;text-anchor:middle;font-family:monospace;font-style:normal;font-weight:normal" x="317.796" y="164.9">
      <tspan x="317.796" y="164.9">2</tspan>
    </text>
  </g>
  <line style="fill: none; fill-opacity:0; stroke-width: 2; stroke: #000000" x1="720.812" y1="150.042" x2="721.1" y2="113.436"/>
  <g>
    <path style="fill: none; fill-opacity:0; stroke-width: 0.02; stroke: #000000" d="M 729.186 119.334 L 756.286,119.334 L 756.286,143.334 C 750.866,139.334 748.156,139.334 742.736,143.334 C 737.316,147.334 734.606,147.334 729.186,143.334 L 729.186,119.334"/>
    <text font-size="12.8" style="fill: #000000;text-anchor:middle;font-family:monospace;font-style:normal;font-weight:normal" x="742.736" y="132.534">
      <tspan x="742.736" y="132.534">CRC</tspan>
    </text>
  </g>
  <g>
    <path style="fill: #ffffff" d="M 732.136 152.238 L 751.536,152.238 L 751.536,176.238 C 747.656,172.238 745.716,172.238 741.836,176.238 C 737.956,180.238 736.016,180.238 732.136,176.238 L 732.136,152.238z"/>
    <path style="fill: none; fill-opacity:0; stroke-width: 0.02; stroke: #000000" d="M 732.136 152.238 L 751.536,152.238 L 751.536,176.238 C 747.656,172.238 745.716,172.238 741.836,176.238 C 737.956,180.238 736.016,180.238 732.136,176.238 L 732.136,152.238"/>
    <text font-size="12.8" style="fill: #000000;text-anchor:middle;font-family:monospace;font-style:normal;font-weight:normal" x="741.836" y="165.438">
      <tspan x="741.836" y="165.438">4</tspan>
    </text>
  </g>
  <g>
    <path style="fill: none; fill-opacity:0; stroke-width: 0.02; stroke: #000000" d="M 499.536 118.84 L 529.136,118.84 L 529.136,142.84 C 523.216,138.84 520.256,138.84 514.336,142.84 C 508.416,146.84 505.456,146.84 499.536,142.84 L 499.536,118.84"/>
    <text font-size="12.8" style="fill: #000000;text-anchor:middle;font-family:monospace;font-style:normal;font-weight:normal" x="514.336" y="132.04">
      <tspan x="514.336" y="132.04">数据</tspan>
    </text>
  </g>
  <g>
    <path style="fill: none; fill-opacity:0; stroke-width: 0.02; stroke: #000000" d="M 484.58 152.384 L 547.58,152.384 L 547.58,176.384 C 534.98,172.384 528.68,172.384 516.08,176.384 C 503.48,180.384 497.18,180.384 484.58,176.384 L 484.58,152.384"/>
    <text font-size="12.8" style="fill: #000000;text-anchor:middle;font-family:monospace;font-style:normal;font-weight:normal" x="516.08" y="165.584">
      <tspan x="516.08" y="165.584">46～1500</tspan>
    </text>
  </g>
  <g>
    <rect style="fill: #ffffff" x="60.791" y="-130.558" width="700.203" height="38"/>
    <rect style="fill: none; fill-opacity:0; stroke-width: 2; stroke: #000000" x="60.791" y="-130.558" width="700.203" height="38"/>
    <text font-size="12.8" style="fill: #000000;text-anchor:middle;font-family:monospace;font-style:normal;font-weight:normal" x="410.893" y="-108.908">
      <tspan x="410.893" y="-108.908"></tspan>
    </text>
  </g>
  <g>
    <path style="fill: none; fill-opacity:0; stroke-width: 0.02; stroke: #000000" d="M 78.3062 -125.668 L 133.506,-125.668 L 133.506,-101.668 C 122.466,-105.668 116.946,-105.668 105.906,-101.668 C 94.8662,-97.6676 89.3462,-97.6676 78.3062,-101.668 L 78.3062,-125.668"/>
    <text font-size="12.8" style="fill: #000000;text-anchor:middle;font-family:monospace;font-style:normal;font-weight:normal" x="105.906" y="-112.468">
      <tspan x="105.906" y="-112.468">目的地址</tspan>
    </text>
  </g>
  <line style="fill: none; fill-opacity:0; stroke-width: 2; stroke: #000000" x1="299.346" y1="-92.527" x2="299.636" y2="-131.727"/>
  <g>
    <path style="fill: none; fill-opacity:0; stroke-width: 0.02; stroke: #000000" d="M 221.416 -124.455 L 263.816,-124.455 L 263.816,-100.455 C 255.336,-104.455 251.096,-104.455 242.616,-100.455 C 234.136,-96.4548 229.896,-96.4548 221.416,-100.455 L 221.416,-124.455"/>
    <text font-size="12.8" style="fill: #000000;text-anchor:middle;font-family:monospace;font-style:normal;font-weight:normal" x="242.616" y="-111.255">
      <tspan x="242.616" y="-111.255">源地址</tspan>
    </text>
  </g>
  <g>
    <path style="fill: #ffffff" d="M 102.035 -91.2302 L 121.435,-91.2302 L 121.435,-67.2302 C 117.555,-71.2302 115.615,-71.2302 111.735,-67.2302 C 107.855,-63.2302 105.915,-63.2302 102.035,-67.2302 L 102.035,-91.2302z"/>
    <path style="fill: none; fill-opacity:0; stroke-width: 0.02; stroke: #000000" d="M 102.035 -91.2302 L 121.435,-91.2302 L 121.435,-67.2302 C 117.555,-71.2302 115.615,-71.2302 111.735,-67.2302 C 107.855,-63.2302 105.915,-63.2302 102.035,-67.2302 L 102.035,-91.2302"/>
    <text font-size="12.8" style="fill: #000000;text-anchor:middle;font-family:monospace;font-style:normal;font-weight:normal" x="111.735" y="-78.0302">
      <tspan x="111.735" y="-78.0302">6</tspan>
    </text>
  </g>
  <g>
    <path style="fill: #ffffff" d="M 229.972 -91.2302 L 249.372,-91.2302 L 249.372,-67.2302 C 245.492,-71.2302 243.552,-71.2302 239.672,-67.2302 C 235.792,-63.2302 233.852,-63.2302 229.972,-67.2302 L 229.972,-91.2302z"/>
    <path style="fill: none; fill-opacity:0; stroke-width: 0.02; stroke: #000000" d="M 229.972 -91.2302 L 249.372,-91.2302 L 249.372,-67.2302 C 245.492,-71.2302 243.552,-71.2302 239.672,-67.2302 C 235.792,-63.2302 233.852,-63.2302 229.972,-67.2302 L 229.972,-91.2302"/>
    <text font-size="12.8" style="fill: #000000;text-anchor:middle;font-family:monospace;font-style:normal;font-weight:normal" x="239.672" y="-78.0302">
      <tspan x="239.672" y="-78.0302">6</tspan>
    </text>
  </g>
  <line style="fill: none; fill-opacity:0; stroke-width: 2; stroke: #000000" x1="179.913" y1="-92.527" x2="179.848" y2="-131.073"/>
  <g>
    <path style="fill: none; fill-opacity:0; stroke-width: 0.02; stroke: #000000" d="M 306.448 -124.948 L 336.048,-124.948 L 336.048,-100.948 C 330.128,-104.948 327.168,-104.948 321.248,-100.948 C 315.328,-96.948 312.368,-96.948 306.448,-100.948 L 306.448,-124.948"/>
    <text font-size="12.8" style="fill: #000000;text-anchor:middle;font-family:monospace;font-style:normal;font-weight:normal" x="321.248" y="-111.748">
      <tspan x="321.248" y="-111.748">长度</tspan>
    </text>
  </g>
  <line style="fill: none; fill-opacity:0; stroke-width: 2; stroke: #000000" x1="340.818" y1="-93.3306" x2="341.106" y2="-129.937"/>
  <g>
    <path style="fill: #ffffff" d="M 313.11 -91.2302 L 332.51,-91.2302 L 332.51,-67.2302 C 328.63,-71.2302 326.69,-71.2302 322.81,-67.2302 C 318.93,-63.2302 316.99,-63.2302 313.11,-67.2302 L 313.11,-91.2302z"/>
    <path style="fill: none; fill-opacity:0; stroke-width: 0.02; stroke: #000000" d="M 313.11 -91.2302 L 332.51,-91.2302 L 332.51,-67.2302 C 328.63,-71.2302 326.69,-71.2302 322.81,-67.2302 C 318.93,-63.2302 316.99,-63.2302 313.11,-67.2302 L 313.11,-91.2302"/>
    <text font-size="12.8" style="fill: #000000;text-anchor:middle;font-family:monospace;font-style:normal;font-weight:normal" x="322.81" y="-78.0302">
      <tspan x="322.81" y="-78.0302">2</tspan>
    </text>
  </g>
  <line style="fill: none; fill-opacity:0; stroke-width: 2; stroke: #000000" x1="719.906" y1="-93.3816" x2="720.196" y2="-129.988"/>
  <g>
    <path style="fill: none; fill-opacity:0; stroke-width: 0.02; stroke: #000000" d="M 728.28 -124.09 L 755.38,-124.09 L 755.38,-100.09 C 749.96,-104.09 747.25,-104.09 741.83,-100.09 C 736.41,-96.0902 733.7,-96.0902 728.28,-100.09 L 728.28,-124.09"/>
    <text font-size="12.8" style="fill: #000000;text-anchor:middle;font-family:monospace;font-style:normal;font-weight:normal" x="741.83" y="-110.89">
      <tspan x="741.83" y="-110.89">CRC</tspan>
    </text>
  </g>
  <g>
    <path style="fill: #ffffff" d="M 731.232 -90.6924 L 750.632,-90.6924 L 750.632,-66.6924 C 746.752,-70.6924 744.812,-70.6924 740.932,-66.6924 C 737.052,-62.6924 735.112,-62.6924 731.232,-66.6924 L 731.232,-90.6924z"/>
    <path style="fill: none; fill-opacity:0; stroke-width: 0.02; stroke: #000000" d="M 731.232 -90.6924 L 750.632,-90.6924 L 750.632,-66.6924 C 746.752,-70.6924 744.812,-70.6924 740.932,-66.6924 C 737.052,-62.6924 735.112,-62.6924 731.232,-66.6924 L 731.232,-90.6924"/>
    <text font-size="12.8" style="fill: #000000;text-anchor:middle;font-family:monospace;font-style:normal;font-weight:normal" x="740.932" y="-77.4924">
      <tspan x="740.932" y="-77.4924">4</tspan>
    </text>
  </g>
  <g>
    <path style="fill: none; fill-opacity:0; stroke-width: 0.02; stroke: #000000" d="M 589.888 -124.583 L 619.488,-124.583 L 619.488,-100.583 C 613.568,-104.583 610.608,-104.583 604.688,-100.583 C 598.768,-96.5834 595.808,-96.5834 589.888,-100.583 L 589.888,-124.583"/>
    <text font-size="12.8" style="fill: #000000;text-anchor:middle;font-family:monospace;font-style:normal;font-weight:normal" x="604.688" y="-111.383">
      <tspan x="604.688" y="-111.383">数据</tspan>
    </text>
  </g>
  <g>
    <path style="fill: none; fill-opacity:0; stroke-width: 0.02; stroke: #000000" d="M 569.012 -91.5334 L 632.012,-91.5334 L 632.012,-67.5334 C 619.412,-71.5334 613.112,-71.5334 600.512,-67.5334 C 587.912,-63.5334 581.612,-63.5334 569.012,-67.5334 L 569.012,-91.5334"/>
    <text font-size="12.8" style="fill: #000000;text-anchor:middle;font-family:monospace;font-style:normal;font-weight:normal" x="600.512" y="-78.3334">
      <tspan x="600.512" y="-78.3334">38～1492</tspan>
    </text>
  </g>
  <g>
    <line style="fill: none; fill-opacity:0; stroke-width: 1; stroke: #000000" x1="238.417" y1="-146.472" x2="329.742" y2="-147.255"/>
    <polygon style="fill: #000000" points="329.785,-142.255 339.742,-147.341 329.7,-152.255 "/>
    <polygon style="fill: none; fill-opacity:0; stroke-width: 1; stroke: #000000" points="329.785,-142.255 339.742,-147.341 329.7,-152.255 "/>
  </g>
  <g>
    <path style="fill: #ffffff" d="M 165.109 -160.158 L 238.409,-160.158 L 238.409,-136.158 C 223.749,-140.158 216.419,-140.158 201.759,-136.158 C 187.099,-132.158 179.769,-132.158 165.109,-136.158 L 165.109,-160.158z"/>
    <path style="fill: none; fill-opacity:0; stroke-width: 0.02; stroke: #000000" d="M 165.109 -160.158 L 238.409,-160.158 L 238.409,-136.158 C 223.749,-140.158 216.419,-140.158 201.759,-136.158 C 187.099,-132.158 179.769,-132.158 165.109,-136.158 L 165.109,-160.158"/>
    <text font-size="12.8" style="fill: #000000;text-anchor:middle;font-family:monospace;font-style:normal;font-weight:normal" x="201.759" y="-146.958">
      <tspan x="201.759" y="-146.958">802.3 MAC</tspan>
    </text>
  </g>
  <g>
    <line style="fill: none; fill-opacity:0; stroke-width: 1; stroke: #000000" x1="165.109" y1="-148.158" x2="72.0338" y2="-148.314"/>
    <polygon style="fill: #000000" points="72.0421,-153.314 62.0338,-148.331 72.0254,-143.314 "/>
    <polygon style="fill: none; fill-opacity:0; stroke-width: 1; stroke: #000000" points="72.0421,-153.314 62.0338,-148.331 72.0254,-143.314 "/>
  </g>
  <line style="fill: none; fill-opacity:0; stroke-width: 1; stroke: #000000" x1="61.5338" y1="-161.831" x2="61.5338" y2="-134.831"/>
  <line style="fill: none; fill-opacity:0; stroke-width: 1; stroke: #000000" x1="340.242" y1="-160.845" x2="340.242" y2="-133.845"/>
  <line style="fill: none; fill-opacity:0; stroke-width: 2; stroke: #000000" x1="359.728" y1="-93.1468" x2="360.018" y2="-129.753"/>
  <line style="fill: none; fill-opacity:0; stroke-width: 2; stroke: #000000" x1="380.89" y1="-93.1468" x2="381.18" y2="-129.753"/>
  <line style="fill: none; fill-opacity:0; stroke-width: 2; stroke: #000000" x1="400.572" y1="-93.64" x2="400.862" y2="-130.247"/>
  <line style="fill: none; fill-opacity:0; stroke-width: 2; stroke: #000000" x1="459.718" y1="-93.64" x2="460.006" y2="-130.247"/>
  <line style="fill: none; fill-opacity:0; stroke-width: 2; stroke: #000000" x1="499.13" y1="-93.64" x2="499.42" y2="-130.247"/>
  <g>
    <path style="fill: none; fill-opacity:0; stroke-width: 0.2; stroke-dasharray: 4; stroke: #000000" d="M 341.464 -179.736 L 376.464,-179.736 L 376.464,-155.496 C 369.464,-159.536 365.964,-159.536 358.964,-155.496 C 351.964,-151.456 348.464,-151.456 341.464,-155.496 L 341.464,-179.736"/>
    <text font-size="12.8" style="fill: #000000;text-anchor:middle;font-family:monospace;font-style:normal;font-weight:normal" x="358.964" y="-166.436">
      <tspan x="358.964" y="-166.436">DSAP</tspan>
    </text>
  </g>
  <line style="fill: none; fill-opacity:0; stroke-width: 0.2; stroke-dasharray: 4; stroke: #000000" x1="355.412" y1="-153.577" x2="349.398" y2="-133.228"/>
  <g>
    <path style="fill: none; fill-opacity:0; stroke-width: 0.2; stroke-dasharray: 4; stroke: #000000" d="M 394.138 -180.23 L 429.138,-180.23 L 429.138,-155.99 C 422.138,-160.03 418.638,-160.03 411.638,-155.99 C 404.638,-151.95 401.138,-151.95 394.138,-155.99 L 394.138,-180.23"/>
    <text font-size="12.8" style="fill: #000000;text-anchor:middle;font-family:monospace;font-style:normal;font-weight:normal" x="411.638" y="-166.93">
      <tspan x="411.638" y="-166.93">SSAP</tspan>
    </text>
  </g>
  <g>
    <path style="fill: none; fill-opacity:0; stroke-width: 0.2; stroke-dasharray: 4; stroke: #000000" d="M 450.864 -180.23 L 485.864,-180.23 L 485.864,-155.99 C 478.864,-160.03 475.364,-160.03 468.364,-155.99 C 461.364,-151.95 457.864,-151.95 450.864,-155.99 L 450.864,-180.23"/>
    <text font-size="12.8" style="fill: #000000;text-anchor:middle;font-family:monospace;font-style:normal;font-weight:normal" x="468.364" y="-166.93">
      <tspan x="468.364" y="-166.93">cntl</tspan>
    </text>
  </g>
  <line style="fill: none; fill-opacity:0; stroke-width: 0.2; stroke-dasharray: 4; stroke: #000000" x1="397.512" y1="-154.148" x2="371.596" y2="-132.241"/>
  <line style="fill: none; fill-opacity:0; stroke-width: 0.2; stroke-dasharray: 4; stroke: #000000" x1="450.835" y1="-158.275" x2="391.326" y2="-131.748"/>
  <g>
    <line style="fill: none; fill-opacity:0; stroke-width: 1; stroke: #000000" x1="453.357" y1="-200.051" x2="476.609" y2="-200.443"/>
    <polygon style="fill: #000000" points="476.694,-195.444 486.608,-200.612 476.525,-205.442 "/>
    <polygon style="fill: none; fill-opacity:0; stroke-width: 1; stroke: #000000" points="476.694,-195.444 486.608,-200.612 476.525,-205.442 "/>
  </g>
  <g>
    <path style="fill: #ffffff" d="M 380.05 -213.432 L 453.35,-213.432 L 453.35,-189.432 C 438.69,-193.432 431.36,-193.432 416.7,-189.432 C 402.04,-185.432 394.71,-185.432 380.05,-189.432 L 380.05,-213.432z"/>
    <path style="fill: none; fill-opacity:0; stroke-width: 0.02; stroke: #000000" d="M 380.05 -213.432 L 453.35,-213.432 L 453.35,-189.432 C 438.69,-193.432 431.36,-193.432 416.7,-189.432 C 402.04,-185.432 394.71,-185.432 380.05,-189.432 L 380.05,-213.432"/>
    <text font-size="12.8" style="fill: #000000;text-anchor:middle;font-family:monospace;font-style:normal;font-weight:normal" x="416.7" y="-200.232">
      <tspan x="416.7" y="-200.232">802.2 LLC</tspan>
    </text>
  </g>
  <g>
    <line style="fill: none; fill-opacity:0; stroke-width: 1; stroke: #000000" x1="380.05" y1="-201.432" x2="351.594" y2="-201.559"/>
    <polygon style="fill: #000000" points="351.616,-206.559 341.594,-201.604 351.572,-196.559 "/>
    <polygon style="fill: none; fill-opacity:0; stroke-width: 1; stroke: #000000" points="351.616,-206.559 341.594,-201.604 351.572,-196.559 "/>
  </g>
  <line style="fill: none; fill-opacity:0; stroke-width: 1; stroke: #000000" x1="341.094" y1="-215.106" x2="341.094" y2="-188.106"/>
  <line style="fill: none; fill-opacity:0; stroke-width: 1; stroke: #000000" x1="487.108" y1="-214.12" x2="487.108" y2="-187.119"/>
  <g>
    <path style="fill: none; fill-opacity:0; stroke-width: 0.2; stroke-dasharray: 4; stroke: #000000" d="M 498.112 -180.23 L 563.912,-180.23 L 563.912,-155.99 C 550.752,-160.03 544.172,-160.03 531.012,-155.99 C 517.852,-151.95 511.272,-151.95 498.112,-155.99 L 498.112,-180.23"/>
    <text font-size="12.8" style="fill: #000000;text-anchor:middle;font-family:monospace;font-style:normal;font-weight:normal" x="531.012" y="-166.93">
      <tspan x="531.012" y="-166.93">org code</tspan>
    </text>
  </g>
  <line style="fill: none; fill-opacity:0; stroke-width: 0.2; stroke-dasharray: 4; stroke: #000000" x1="499.477" y1="-155.491" x2="430.296" y2="-132.241"/>
  <g>
    <path style="fill: none; fill-opacity:0; stroke-width: 0.02; stroke: #000000" d="M 615.722 -180.583 L 645.322,-180.583 L 645.322,-156.583 C 639.402,-160.583 636.442,-160.583 630.522,-156.583 C 624.602,-152.583 621.642,-152.583 615.722,-156.583 L 615.722,-180.583"/>
    <text font-size="12.8" style="fill: #000000;text-anchor:middle;font-family:monospace;font-style:normal;font-weight:normal" x="630.522" y="-167.383">
      <tspan x="630.522" y="-167.383">类型</tspan>
    </text>
  </g>
  <g>
    <path style="fill: #ffffff" d="M 472.176 -91.2986 L 491.576,-91.2986 L 491.576,-67.2986 C 487.696,-71.2986 485.756,-71.2986 481.876,-67.2986 C 477.996,-63.2986 476.056,-63.2986 472.176,-67.2986 L 472.176,-91.2986z"/>
    <path style="fill: none; fill-opacity:0; stroke-width: 0.02; stroke: #000000" d="M 472.176 -91.2986 L 491.576,-91.2986 L 491.576,-67.2986 C 487.696,-71.2986 485.756,-71.2986 481.876,-67.2986 C 477.996,-63.2986 476.056,-63.2986 472.176,-67.2986 L 472.176,-91.2986"/>
    <text font-size="12.8" style="fill: #000000;text-anchor:middle;font-family:monospace;font-style:normal;font-weight:normal" x="481.876" y="-78.0986">
      <tspan x="481.876" y="-78.0986">2</tspan>
    </text>
  </g>
  <g>
    <path style="fill: #ffffff" d="M 340.47 -91.2986 L 359.87,-91.2986 L 359.87,-67.2986 C 355.99,-71.2986 354.05,-71.2986 350.17,-67.2986 C 346.29,-63.2986 344.35,-63.2986 340.47,-67.2986 L 340.47,-91.2986z"/>
    <path style="fill: none; fill-opacity:0; stroke-width: 0.02; stroke: #000000" d="M 340.47 -91.2986 L 359.87,-91.2986 L 359.87,-67.2986 C 355.99,-71.2986 354.05,-71.2986 350.17,-67.2986 C 346.29,-63.2986 344.35,-63.2986 340.47,-67.2986 L 340.47,-91.2986"/>
    <text font-size="12.8" style="fill: #000000;text-anchor:middle;font-family:monospace;font-style:normal;font-weight:normal" x="350.17" y="-78.0986">
      <tspan x="350.17" y="-78.0986">1</tspan>
    </text>
  </g>
  <g>
    <path style="fill: #ffffff" d="M 380.918 -91.2986 L 400.318,-91.2986 L 400.318,-67.2986 C 396.438,-71.2986 394.498,-71.2986 390.618,-67.2986 C 386.738,-63.2986 384.798,-63.2986 380.918,-67.2986 L 380.918,-91.2986z"/>
    <path style="fill: none; fill-opacity:0; stroke-width: 0.02; stroke: #000000" d="M 380.918 -91.2986 L 400.318,-91.2986 L 400.318,-67.2986 C 396.438,-71.2986 394.498,-71.2986 390.618,-67.2986 C 386.738,-63.2986 384.798,-63.2986 380.918,-67.2986 L 380.918,-91.2986"/>
    <text font-size="12.8" style="fill: #000000;text-anchor:middle;font-family:monospace;font-style:normal;font-weight:normal" x="390.618" y="-78.0986">
      <tspan x="390.618" y="-78.0986">1</tspan>
    </text>
  </g>
  <g>
    <path style="fill: #ffffff" d="M 360.596 -91.2986 L 379.996,-91.2986 L 379.996,-67.2986 C 376.116,-71.2986 374.176,-71.2986 370.296,-67.2986 C 366.416,-63.2986 364.476,-63.2986 360.596,-67.2986 L 360.596,-91.2986z"/>
    <path style="fill: none; fill-opacity:0; stroke-width: 0.02; stroke: #000000" d="M 360.596 -91.2986 L 379.996,-91.2986 L 379.996,-67.2986 C 376.116,-71.2986 374.176,-71.2986 370.296,-67.2986 C 366.416,-63.2986 364.476,-63.2986 360.596,-67.2986 L 360.596,-91.2986"/>
    <text font-size="12.8" style="fill: #000000;text-anchor:middle;font-family:monospace;font-style:normal;font-weight:normal" x="370.296" y="-78.0986">
      <tspan x="370.296" y="-78.0986">1</tspan>
    </text>
  </g>
  <g>
    <path style="fill: #ffffff" d="M 421.22 -90.8052 L 440.62,-90.8052 L 440.62,-66.8052 C 436.74,-70.8052 434.8,-70.8052 430.92,-66.8052 C 427.04,-62.8052 425.1,-62.8052 421.22,-66.8052 L 421.22,-90.8052z"/>
    <path style="fill: none; fill-opacity:0; stroke-width: 0.02; stroke: #000000" d="M 421.22 -90.8052 L 440.62,-90.8052 L 440.62,-66.8052 C 436.74,-70.8052 434.8,-70.8052 430.92,-66.8052 C 427.04,-62.8052 425.1,-62.8052 421.22,-66.8052 L 421.22,-90.8052"/>
    <text font-size="12.8" style="fill: #000000;text-anchor:middle;font-family:monospace;font-style:normal;font-weight:normal" x="430.92" y="-77.6052">
      <tspan x="430.92" y="-77.6052">3</tspan>
    </text>
  </g>
  <line style="fill: none; fill-opacity:0; stroke-width: 0.2; stroke-dasharray: 4; stroke: #000000" x1="615.717" y1="-163.187" x2="478.638" y2="-131.748"/>
  <g>
    <line style="fill: none; fill-opacity:0; stroke-width: 1; stroke: #000000" x1="613.573" y1="-198.613" x2="635.447" y2="-198.969"/>
    <polygon style="fill: #000000" points="635.529,-193.969 645.446,-199.131 635.366,-203.968 "/>
    <polygon style="fill: none; fill-opacity:0; stroke-width: 1; stroke: #000000" points="635.529,-193.969 645.446,-199.131 635.366,-203.968 "/>
  </g>
  <g>
    <path style="fill: #ffffff" d="M 532.57 -211.954 L 613.57,-211.954 L 613.57,-187.954 C 597.37,-191.954 589.27,-191.954 573.07,-187.954 C 556.87,-183.954 548.77,-183.954 532.57,-187.954 L 532.57,-211.954z"/>
    <path style="fill: none; fill-opacity:0; stroke-width: 0.02; stroke: #000000" d="M 532.57 -211.954 L 613.57,-211.954 L 613.57,-187.954 C 597.37,-191.954 589.27,-191.954 573.07,-187.954 C 556.87,-183.954 548.77,-183.954 532.57,-187.954 L 532.57,-211.954"/>
    <text font-size="12.8" style="fill: #000000;text-anchor:middle;font-family:monospace;font-style:normal;font-weight:normal" x="573.07" y="-198.754">
      <tspan x="573.07" y="-198.754">802.2 SNAP</tspan>
    </text>
  </g>
  <g>
    <line style="fill: none; fill-opacity:0; stroke-width: 1; stroke: #000000" x1="532.57" y1="-199.953" x2="509.444" y2="-200.072"/>
    <polygon style="fill: #000000" points="509.47,-205.072 499.444,-200.123 509.418,-195.072 "/>
    <polygon style="fill: none; fill-opacity:0; stroke-width: 1; stroke: #000000" points="509.47,-205.072 499.444,-200.123 509.418,-195.072 "/>
  </g>
  <line style="fill: none; fill-opacity:0; stroke-width: 1; stroke: #000000" x1="498.944" y1="-213.626" x2="498.944" y2="-186.626"/>
  <line style="fill: none; fill-opacity:0; stroke-width: 1; stroke: #000000" x1="645.946" y1="-212.64" x2="645.946" y2="-185.64"/>
  <line style="fill: none; fill-opacity:0; stroke-width: 0.2; stroke-dasharray: 4; stroke: #000000" x1="340.43" y1="-115.743" x2="340.518" y2="143.011"/>
  <g>
    <rect style="fill: #ffffff" x="461.374" y="-69.391" width="258.974" height="38"/>
    <rect style="fill: none; fill-opacity:0; stroke-width: 2; stroke: #000000" x="461.374" y="-69.391" width="258.974" height="38"/>
    <text font-size="12.8" style="fill: #000000;text-anchor:middle;font-family:monospace;font-style:normal;font-weight:normal" x="590.861" y="-47.741">
      <tspan x="590.861" y="-47.741"></tspan>
    </text>
  </g>
  <g>
    <path style="fill: none; fill-opacity:0; stroke-width: 0.02; stroke: #000000" d="M 565.538 -63.4162 L 643.838,-63.4162 L 643.838,-39.4162 C 628.178,-43.4162 620.348,-43.4162 604.688,-39.4162 C 589.028,-35.4162 581.198,-35.4162 565.538,-39.4162 L 565.538,-63.4162"/>
    <text font-size="12.8" style="fill: #000000;text-anchor:middle;font-family:monospace;font-style:normal;font-weight:normal" x="604.688" y="-50.2162">
      <tspan x="604.688" y="-50.2162">IP 数据报</tspan>
    </text>
  </g>
  <g>
    <path style="fill: none; fill-opacity:0; stroke-width: 0.02; stroke: #000000" d="M 569.012 -30.3662 L 632.012,-30.3662 L 632.012,-6.3662 C 619.412,-10.3662 613.112,-10.3662 600.512,-6.3662 C 587.912,-2.3662 581.612,-2.3662 569.012,-6.3662 L 569.012,-30.3662"/>
    <text font-size="12.8" style="fill: #000000;text-anchor:middle;font-family:monospace;font-style:normal;font-weight:normal" x="600.512" y="-17.1662">
      <tspan x="600.512" y="-17.1662">38～1492</tspan>
    </text>
  </g>
  <line style="fill: none; fill-opacity:0; stroke-width: 2; stroke: #000000" x1="499.13" y1="-32.4728" x2="499.42" y2="-69.0794"/>
  <g>
    <path style="fill: #ffffff" d="M 472.176 -30.1314 L 491.576,-30.1314 L 491.576,-6.1314 C 487.696,-10.1314 485.756,-10.1314 481.876,-6.1314 C 477.996,-2.1314 476.056,-2.1314 472.176,-6.1314 L 472.176,-30.1314z"/>
    <path style="fill: none; fill-opacity:0; stroke-width: 0.02; stroke: #000000" d="M 472.176 -30.1314 L 491.576,-30.1314 L 491.576,-6.1314 C 487.696,-10.1314 485.756,-10.1314 481.876,-6.1314 C 477.996,-2.1314 476.056,-2.1314 472.176,-6.1314 L 472.176,-30.1314"/>
    <text font-size="12.8" style="fill: #000000;text-anchor:middle;font-family:monospace;font-style:normal;font-weight:normal" x="481.876" y="-16.9314">
      <tspan x="481.876" y="-16.9314">2</tspan>
    </text>
  </g>
  <g>
    <path style="fill: none; fill-opacity:0; stroke-width: 0.02; stroke: #000000" d="M 462.176 -68.9552 L 496.976,-68.9552 L 496.976,-25.7552 C 490.016,-32.9552 486.536,-32.9552 479.576,-25.7552 C 472.616,-18.5552 469.136,-18.5552 462.176,-25.7552 L 462.176,-68.9552"/>
    <text font-size="12.8" style="fill: #000000;text-anchor:middle;font-family:monospace;font-style:normal;font-weight:normal" x="479.576" y="-55.7552">
      <tspan x="479.576" y="-55.7552">类型</tspan>
      <tspan x="479.576" y="-39.7552">0800</tspan>
    </text>
  </g>
  <g>
    <rect style="fill: #ffffff" x="461.338" y="-8.90668" width="198.336" height="38"/>
    <rect style="fill: none; fill-opacity:0; stroke-width: 2; stroke: #000000" x="461.338" y="-8.90668" width="198.336" height="38"/>
    <text font-size="12.8" style="fill: #000000;text-anchor:middle;font-family:monospace;font-style:normal;font-weight:normal" x="560.506" y="12.7433">
      <tspan x="560.506" y="12.7433"></tspan>
    </text>
  </g>
  <g>
    <path style="fill: none; fill-opacity:0; stroke-width: 0.02; stroke: #000000" d="M 519.326 -2.932 L 613.026,-2.932 L 613.026,21.068 C 594.286,17.068 584.916,17.068 566.176,21.068 C 547.436,25.068 538.066,25.068 519.326,21.068 L 519.326,-2.932"/>
    <text font-size="12.8" style="fill: #000000;text-anchor:middle;font-family:monospace;font-style:normal;font-weight:normal" x="566.176" y="10.268">
      <tspan x="566.176" y="10.268">ARP 请求/应答</tspan>
    </text>
  </g>
  <g>
    <path style="fill: none; fill-opacity:0; stroke-width: 0.02; stroke: #000000" d="M 534.446 30.118 L 597.446,30.118 L 597.446,54.118 C 584.846,50.118 578.546,50.118 565.946,54.118 C 553.346,58.118 547.046,58.118 534.446,54.118 L 534.446,30.118"/>
    <text font-size="12.8" style="fill: #000000;text-anchor:middle;font-family:monospace;font-style:normal;font-weight:normal" x="565.946" y="43.318">
      <tspan x="565.946" y="43.318">28</tspan>
    </text>
  </g>
  <line style="fill: none; fill-opacity:0; stroke-width: 2; stroke: #000000" x1="499.094" y1="28.0114" x2="499.384" y2="-8.59522"/>
  <g>
    <path style="fill: #ffffff" d="M 472.14 30.353 L 491.54,30.353 L 491.54,54.353 C 487.66,50.353 485.72,50.353 481.84,54.353 C 477.96,58.353 476.02,58.353 472.14,54.353 L 472.14,30.353z"/>
    <path style="fill: none; fill-opacity:0; stroke-width: 0.02; stroke: #000000" d="M 472.14 30.353 L 491.54,30.353 L 491.54,54.353 C 487.66,50.353 485.72,50.353 481.84,54.353 C 477.96,58.353 476.02,58.353 472.14,54.353 L 472.14,30.353"/>
    <text font-size="12.8" style="fill: #000000;text-anchor:middle;font-family:monospace;font-style:normal;font-weight:normal" x="481.84" y="43.553">
      <tspan x="481.84" y="43.553">2</tspan>
    </text>
  </g>
  <g>
    <path style="fill: none; fill-opacity:0; stroke-width: 0.02; stroke: #000000" d="M 462.142 -8.47098 L 496.942,-8.47098 L 496.942,34.729 C 489.982,27.529 486.502,27.529 479.542,34.729 C 472.582,41.929 469.102,41.929 462.142,34.729 L 462.142,-8.47098"/>
    <text font-size="12.8" style="fill: #000000;text-anchor:middle;font-family:monospace;font-style:normal;font-weight:normal" x="479.542" y="4.72902">
      <tspan x="479.542" y="4.72902">类型</tspan>
      <tspan x="479.542" y="20.729">0806</tspan>
    </text>
  </g>
  <line style="fill: none; fill-opacity:0; stroke-width: 2; stroke: #000000" x1="631.034" y1="28.6944" x2="631.324" y2="-7.91228"/>
  <g>
    <path style="fill: none; fill-opacity:0; stroke-width: 0.02; stroke: #000000" d="M 632.698 -2.01414 L 659.798,-2.01414 L 659.798,21.9859 C 654.378,17.9859 651.668,17.9859 646.248,21.9859 C 640.828,25.9859 638.118,25.9859 632.698,21.9859 L 632.698,-2.01414"/>
    <text font-size="12.8" style="fill: #000000;text-anchor:middle;font-family:monospace;font-style:normal;font-weight:normal" x="646.248" y="11.1859">
      <tspan x="646.248" y="11.1859">PAD</tspan>
    </text>
  </g>
  <g>
    <path style="fill: #ffffff" d="M 635.946 30.5426 L 655.346,30.5426 L 655.346,54.5426 C 651.466,50.5426 649.526,50.5426 645.646,54.5426 C 641.766,58.5426 639.826,58.5426 635.946,54.5426 L 635.946,30.5426z"/>
    <path style="fill: none; fill-opacity:0; stroke-width: 0.02; stroke: #000000" d="M 635.946 30.5426 L 655.346,30.5426 L 655.346,54.5426 C 651.466,50.5426 649.526,50.5426 645.646,54.5426 C 641.766,58.5426 639.826,58.5426 635.946,54.5426 L 635.946,30.5426"/>
    <text font-size="12.8" style="fill: #000000;text-anchor:middle;font-family:monospace;font-style:normal;font-weight:normal" x="645.646" y="43.7426">
      <tspan x="645.646" y="43.7426">10</tspan>
    </text>
  </g>
  <g>
    <rect style="fill: #ffffff" x="461.818" y="50.7806" width="198.336" height="38"/>
    <rect style="fill: none; fill-opacity:0; stroke-width: 2; stroke: #000000" x="461.818" y="50.7806" width="198.336" height="38"/>
    <text font-size="12.8" style="fill: #000000;text-anchor:middle;font-family:monospace;font-style:normal;font-weight:normal" x="560.986" y="72.4306">
      <tspan x="560.986" y="72.4306"></tspan>
    </text>
  </g>
  <g>
    <path style="fill: none; fill-opacity:0; stroke-width: 0.02; stroke: #000000" d="M 515.956 56.7554 L 617.356,56.7554 L 617.356,80.7554 C 597.076,76.7554 586.936,76.7554 566.656,80.7554 C 546.376,84.7554 536.236,84.7554 515.956,80.7554 L 515.956,56.7554"/>
    <text font-size="12.8" style="fill: #000000;text-anchor:middle;font-family:monospace;font-style:normal;font-weight:normal" x="566.656" y="69.9554">
      <tspan x="566.656" y="69.9554">RARP 请求/应答</tspan>
    </text>
  </g>
  <g>
    <path style="fill: #ffffff" d="M 534.926 89.8054 L 597.926,89.8054 L 597.926,113.805 C 585.326,109.805 579.026,109.805 566.426,113.805 C 553.826,117.805 547.526,117.805 534.926,113.805 L 534.926,89.8054z"/>
    <path style="fill: none; fill-opacity:0; stroke-width: 0.02; stroke: #000000" d="M 534.926 89.8054 L 597.926,89.8054 L 597.926,113.805 C 585.326,109.805 579.026,109.805 566.426,113.805 C 553.826,117.805 547.526,117.805 534.926,113.805 L 534.926,89.8054"/>
    <text font-size="12.8" style="fill: #000000;text-anchor:middle;font-family:monospace;font-style:normal;font-weight:normal" x="566.426" y="103.005">
      <tspan x="566.426" y="103.005">28</tspan>
    </text>
  </g>
  <line style="fill: none; fill-opacity:0; stroke-width: 2; stroke: #000000" x1="499.574" y1="87.6988" x2="499.864" y2="51.0922"/>
  <g>
    <path style="fill: #ffffff" d="M 473.62 90.0402 L 493.02,90.0402 L 493.02,114.04 C 489.14,110.04 487.2,110.04 483.32,114.04 C 479.44,118.04 477.5,118.04 473.62,114.04 L 473.62,90.0402z"/>
    <path style="fill: none; fill-opacity:0; stroke-width: 0.02; stroke: #000000" d="M 473.62 90.0402 L 493.02,90.0402 L 493.02,114.04 C 489.14,110.04 487.2,110.04 483.32,114.04 C 479.44,118.04 477.5,118.04 473.62,114.04 L 473.62,90.0402"/>
    <text font-size="12.8" style="fill: #000000;text-anchor:middle;font-family:monospace;font-style:normal;font-weight:normal" x="483.32" y="103.24">
      <tspan x="483.32" y="103.24">2</tspan>
    </text>
  </g>
  <g>
    <path style="fill: none; fill-opacity:0; stroke-width: 0.02; stroke: #000000" d="M 462.62 51.2164 L 497.42,51.2164 L 497.42,94.4164 C 490.46,87.2164 486.98,87.2164 480.02,94.4164 C 473.06,101.616 469.58,101.616 462.62,94.4164 L 462.62,51.2164"/>
    <text font-size="12.8" style="fill: #000000;text-anchor:middle;font-family:monospace;font-style:normal;font-weight:normal" x="480.02" y="64.4164">
      <tspan x="480.02" y="64.4164">类型</tspan>
      <tspan x="480.02" y="80.4164">0835</tspan>
    </text>
  </g>
  <line style="fill: none; fill-opacity:0; stroke-width: 2; stroke: #000000" x1="631.514" y1="88.3816" x2="631.804" y2="51.775"/>
  <g>
    <path style="fill: none; fill-opacity:0; stroke-width: 0.02; stroke: #000000" d="M 633.178 57.6732 L 660.278,57.6732 L 660.278,81.6732 C 654.858,77.6732 652.148,77.6732 646.728,81.6732 C 641.308,85.6732 638.598,85.6732 633.178,81.6732 L 633.178,57.6732"/>
    <text font-size="12.8" style="fill: #000000;text-anchor:middle;font-family:monospace;font-style:normal;font-weight:normal" x="646.728" y="70.8732">
      <tspan x="646.728" y="70.8732">PAD</tspan>
    </text>
  </g>
  <g>
    <path style="fill: #ffffff" d="M 636.426 90.23 L 655.826,90.23 L 655.826,114.23 C 651.946,110.23 650.006,110.23 646.126,114.23 C 642.246,118.23 640.306,118.23 636.426,114.23 L 636.426,90.23z"/>
    <path style="fill: none; fill-opacity:0; stroke-width: 0.02; stroke: #000000" d="M 636.426 90.23 L 655.826,90.23 L 655.826,114.23 C 651.946,110.23 650.006,110.23 646.126,114.23 C 642.246,118.23 640.306,118.23 636.426,114.23 L 636.426,90.23"/>
    <text font-size="12.8" style="fill: #000000;text-anchor:middle;font-family:monospace;font-style:normal;font-weight:normal" x="646.126" y="103.43">
      <tspan x="646.126" y="103.43">10</tspan>
    </text>
  </g>
  <line style="fill: none; fill-opacity:0; stroke-width: 0.2; stroke-dasharray: 4; stroke: #000000" x1="720.892" y1="-94.1582" x2="720.98" y2="164.596"/>
  <g>
    <rect style="fill: #ffffff" x="301.056" y="177.555" width="419.291" height="38"/>
    <rect style="fill: none; fill-opacity:0; stroke-width: 2; stroke: #000000" x="301.056" y="177.555" width="419.291" height="38"/>
    <text font-size="12.8" style="fill: #000000;text-anchor:middle;font-family:monospace;font-style:normal;font-weight:normal" x="510.702" y="199.205">
      <tspan x="510.702" y="199.205"></tspan>
    </text>
  </g>
  <g>
    <path style="fill: none; fill-opacity:0; stroke-width: 0.02; stroke: #000000" d="M 505.358 185.009 L 583.658,185.009 L 583.658,209.009 C 567.998,205.009 560.168,205.009 544.508,209.009 C 528.848,213.009 521.018,213.009 505.358,209.009 L 505.358,185.009"/>
    <text font-size="12.8" style="fill: #000000;text-anchor:middle;font-family:monospace;font-style:normal;font-weight:normal" x="544.508" y="198.209">
      <tspan x="544.508" y="198.209">IP 数据报</tspan>
    </text>
  </g>
  <g>
    <path style="fill: none; fill-opacity:0; stroke-width: 0.02; stroke: #000000" d="M 510.804 217.566 L 573.804,217.566 L 573.804,241.566 C 561.204,237.566 554.904,237.566 542.304,241.566 C 529.704,245.566 523.404,245.566 510.804,241.566 L 510.804,217.566"/>
    <text font-size="12.8" style="fill: #000000;text-anchor:middle;font-family:monospace;font-style:normal;font-weight:normal" x="542.304" y="230.766">
      <tspan x="542.304" y="230.766">46～1492</tspan>
    </text>
  </g>
  <line style="fill: none; fill-opacity:0; stroke-width: 2; stroke: #000000" x1="338.814" y1="214.966" x2="339.102" y2="178.359"/>
  <g>
    <path style="fill: #ffffff" d="M 311.858 216.814 L 331.258,216.814 L 331.258,240.814 C 327.378,236.814 325.438,236.814 321.558,240.814 C 317.678,244.814 315.738,244.814 311.858,240.814 L 311.858,216.814z"/>
    <path style="fill: none; fill-opacity:0; stroke-width: 0.02; stroke: #000000" d="M 311.858 216.814 L 331.258,216.814 L 331.258,240.814 C 327.378,236.814 325.438,236.814 321.558,240.814 C 317.678,244.814 315.738,244.814 311.858,240.814 L 311.858,216.814"/>
    <text font-size="12.8" style="fill: #000000;text-anchor:middle;font-family:monospace;font-style:normal;font-weight:normal" x="321.558" y="230.014">
      <tspan x="321.558" y="230.014">2</tspan>
    </text>
  </g>
  <g>
    <path style="fill: none; fill-opacity:0; stroke-width: 0.02; stroke: #000000" d="M 301.86 177.99 L 336.66,177.99 L 336.66,221.19 C 329.7,213.99 326.22,213.99 319.26,221.19 C 312.3,228.39 308.82,228.39 301.86,221.19 L 301.86,177.99"/>
    <text font-size="12.8" style="fill: #000000;text-anchor:middle;font-family:monospace;font-style:normal;font-weight:normal" x="319.26" y="191.19">
      <tspan x="319.26" y="191.19">类型</tspan>
      <tspan x="319.26" y="207.19">0800</tspan>
    </text>
  </g>
  <g>
    <rect style="fill: #ffffff" x="301.02" y="239.026" width="198.336" height="38"/>
    <rect style="fill: none; fill-opacity:0; stroke-width: 2; stroke: #000000" x="301.02" y="239.026" width="198.336" height="38"/>
    <text font-size="12.8" style="fill: #000000;text-anchor:middle;font-family:monospace;font-style:normal;font-weight:normal" x="400.188" y="260.676">
      <tspan x="400.188" y="260.676"></tspan>
    </text>
  </g>
  <g>
    <path style="fill: none; fill-opacity:0; stroke-width: 0.02; stroke: #000000" d="M 359.01 245 L 452.71,245 L 452.71,269 C 433.97,265 424.6,265 405.86,269 C 387.12,273 377.75,273 359.01,269 L 359.01,245"/>
    <text font-size="12.8" style="fill: #000000;text-anchor:middle;font-family:monospace;font-style:normal;font-weight:normal" x="405.86" y="258.2">
      <tspan x="405.86" y="258.2">ARP 请求/应答</tspan>
    </text>
  </g>
  <g>
    <path style="fill: none; fill-opacity:0; stroke-width: 0.02; stroke: #000000" d="M 374.13 278.05 L 437.13,278.05 L 437.13,302.05 C 424.53,298.05 418.23,298.05 405.63,302.05 C 393.03,306.05 386.73,306.05 374.13,302.05 L 374.13,278.05"/>
    <text font-size="12.8" style="fill: #000000;text-anchor:middle;font-family:monospace;font-style:normal;font-weight:normal" x="405.63" y="291.25">
      <tspan x="405.63" y="291.25">28</tspan>
    </text>
  </g>
  <line style="fill: none; fill-opacity:0; stroke-width: 2; stroke: #000000" x1="338.778" y1="276.436" x2="339.066" y2="239.83"/>
  <g>
    <path style="fill: #ffffff" d="M 311.824 278.284 L 331.224,278.284 L 331.224,302.284 C 327.344,298.284 325.404,298.284 321.524,302.284 C 317.644,306.284 315.704,306.284 311.824,302.284 L 311.824,278.284z"/>
    <path style="fill: none; fill-opacity:0; stroke-width: 0.02; stroke: #000000" d="M 311.824 278.284 L 331.224,278.284 L 331.224,302.284 C 327.344,298.284 325.404,298.284 321.524,302.284 C 317.644,306.284 315.704,306.284 311.824,302.284 L 311.824,278.284"/>
    <text font-size="12.8" style="fill: #000000;text-anchor:middle;font-family:monospace;font-style:normal;font-weight:normal" x="321.524" y="291.484">
      <tspan x="321.524" y="291.484">2</tspan>
    </text>
  </g>
  <g>
    <path style="fill: none; fill-opacity:0; stroke-width: 0.02; stroke: #000000" d="M 301.824 239.462 L 336.624,239.462 L 336.624,282.662 C 329.664,275.462 326.184,275.462 319.224,282.662 C 312.264,289.862 308.784,289.862 301.824,282.662 L 301.824,239.462"/>
    <text font-size="12.8" style="fill: #000000;text-anchor:middle;font-family:monospace;font-style:normal;font-weight:normal" x="319.224" y="252.662">
      <tspan x="319.224" y="252.662">类型</tspan>
      <tspan x="319.224" y="268.662">0806</tspan>
    </text>
  </g>
  <line style="fill: none; fill-opacity:0; stroke-width: 2; stroke: #000000" x1="470.718" y1="276.626" x2="471.006" y2="240.02"/>
  <g>
    <path style="fill: none; fill-opacity:0; stroke-width: 0.02; stroke: #000000" d="M 472.38 245.918 L 499.48,245.918 L 499.48,269.918 C 494.06,265.918 491.35,265.918 485.93,269.918 C 480.51,273.918 477.8,273.918 472.38,269.918 L 472.38,245.918"/>
    <text font-size="12.8" style="fill: #000000;text-anchor:middle;font-family:monospace;font-style:normal;font-weight:normal" x="485.93" y="259.118">
      <tspan x="485.93" y="259.118">PAD</tspan>
    </text>
  </g>
  <g>
    <path style="fill: #ffffff" d="M 475.63 278.474 L 495.03,278.474 L 495.03,302.474 C 491.15,298.474 489.21,298.474 485.33,302.474 C 481.45,306.474 479.51,306.474 475.63,302.474 L 475.63,278.474z"/>
    <path style="fill: none; fill-opacity:0; stroke-width: 0.02; stroke: #000000" d="M 475.63 278.474 L 495.03,278.474 L 495.03,302.474 C 491.15,298.474 489.21,298.474 485.33,302.474 C 481.45,306.474 479.51,306.474 475.63,302.474 L 475.63,278.474"/>
    <text font-size="12.8" style="fill: #000000;text-anchor:middle;font-family:monospace;font-style:normal;font-weight:normal" x="485.33" y="291.674">
      <tspan x="485.33" y="291.674">18</tspan>
    </text>
  </g>
  <g>
    <rect style="fill: #ffffff" x="301.5" y="300.192" width="198.336" height="38"/>
    <rect style="fill: none; fill-opacity:0; stroke-width: 2; stroke: #000000" x="301.5" y="300.192" width="198.336" height="38"/>
    <text font-size="12.8" style="fill: #000000;text-anchor:middle;font-family:monospace;font-style:normal;font-weight:normal" x="400.668" y="321.842">
      <tspan x="400.668" y="321.842"></tspan>
    </text>
  </g>
  <g>
    <path style="fill: none; fill-opacity:0; stroke-width: 0.02; stroke: #000000" d="M 355.64 306.168 L 457.04,306.168 L 457.04,330.168 C 436.76,326.168 426.62,326.168 406.34,330.168 C 386.06,334.168 375.92,334.168 355.64,330.168 L 355.64,306.168"/>
    <text font-size="12.8" style="fill: #000000;text-anchor:middle;font-family:monospace;font-style:normal;font-weight:normal" x="406.34" y="319.368">
      <tspan x="406.34" y="319.368">RARP 请求/应答</tspan>
    </text>
  </g>
  <g>
    <path style="fill: none; fill-opacity:0; stroke-width: 0.02; stroke: #000000" d="M 374.61 339.218 L 437.61,339.218 L 437.61,363.218 C 425.01,359.218 418.71,359.218 406.11,363.218 C 393.51,367.218 387.21,367.218 374.61,363.218 L 374.61,339.218"/>
    <text font-size="12.8" style="fill: #000000;text-anchor:middle;font-family:monospace;font-style:normal;font-weight:normal" x="406.11" y="352.418">
      <tspan x="406.11" y="352.418">28</tspan>
    </text>
  </g>
  <line style="fill: none; fill-opacity:0; stroke-width: 2; stroke: #000000" x1="340.258" y1="337.604" x2="340.546" y2="300.998"/>
  <g>
    <path style="fill: #ffffff" d="M 312.302 339.452 L 331.702,339.452 L 331.702,363.452 C 327.822,359.452 325.882,359.452 322.002,363.452 C 318.122,367.452 316.182,367.452 312.302,363.452 L 312.302,339.452z"/>
    <path style="fill: none; fill-opacity:0; stroke-width: 0.02; stroke: #000000" d="M 312.302 339.452 L 331.702,339.452 L 331.702,363.452 C 327.822,359.452 325.882,359.452 322.002,363.452 C 318.122,367.452 316.182,367.452 312.302,363.452 L 312.302,339.452"/>
    <text font-size="12.8" style="fill: #000000;text-anchor:middle;font-family:monospace;font-style:normal;font-weight:normal" x="322.002" y="352.652">
      <tspan x="322.002" y="352.652">2</tspan>
    </text>
  </g>
  <g>
    <path style="fill: none; fill-opacity:0; stroke-width: 0.02; stroke: #000000" d="M 302.304 300.628 L 337.104,300.628 L 337.104,343.828 C 330.144,336.628 326.664,336.628 319.704,343.828 C 312.744,351.028 309.264,351.028 302.304,343.828 L 302.304,300.628"/>
    <text font-size="12.8" style="fill: #000000;text-anchor:middle;font-family:monospace;font-style:normal;font-weight:normal" x="319.704" y="313.828">
      <tspan x="319.704" y="313.828">类型</tspan>
      <tspan x="319.704" y="329.828">0835</tspan>
    </text>
  </g>
  <line style="fill: none; fill-opacity:0; stroke-width: 2; stroke: #000000" x1="472.198" y1="337.794" x2="472.486" y2="301.186"/>
  <g>
    <path style="fill: none; fill-opacity:0; stroke-width: 0.02; stroke: #000000" d="M 472.86 307.086 L 499.96,307.086 L 499.96,331.086 C 494.54,327.086 491.83,327.086 486.41,331.086 C 480.99,335.086 478.28,335.086 472.86,331.086 L 472.86,307.086"/>
    <text font-size="12.8" style="fill: #000000;text-anchor:middle;font-family:monospace;font-style:normal;font-weight:normal" x="486.41" y="320.286">
      <tspan x="486.41" y="320.286">PAD</tspan>
    </text>
  </g>
  <g>
    <path style="fill: #ffffff" d="M 476.11 339.642 L 495.51,339.642 L 495.51,363.642 C 491.63,359.642 489.69,359.642 485.81,363.642 C 481.93,367.642 479.99,367.642 476.11,363.642 L 476.11,339.642z"/>
    <path style="fill: none; fill-opacity:0; stroke-width: 0.02; stroke: #000000" d="M 476.11 339.642 L 495.51,339.642 L 495.51,363.642 C 491.63,359.642 489.69,359.642 485.81,363.642 C 481.93,367.642 479.99,367.642 476.11,363.642 L 476.11,339.642"/>
    <text font-size="12.8" style="fill: #000000;text-anchor:middle;font-family:monospace;font-style:normal;font-weight:normal" x="485.81" y="352.842">
      <tspan x="485.81" y="352.842">18</tspan>
    </text>
  </g>
  <g>
    <rect style="fill: none; fill-opacity:0; stroke-width: 2; stroke: #000000" x="61.6966" y="112.866" width="700.203" height="38"/>
    <text font-size="12.8" style="fill: #000000;text-anchor:middle;font-family:monospace;font-style:normal;font-weight:normal" x="411.798" y="134.516">
      <tspan x="411.798" y="134.516"></tspan>
    </text>
  </g>
  <g>
    <path style="fill: #ffffff" d="M 737 8 L 777,8 L 777,42.2857 C 769,36.5714 765,36.5714 757,42.2857 C 749,48 745,48 737,42.2857 L 737,8z"/>
    <path style="fill: none; fill-opacity:0; stroke-width: 0.2; stroke-dasharray: 4; stroke: #000000" d="M 737 8 L 777,8 L 777,42.2857 C 769,36.5714 765,36.5714 757,42.2857 C 749,48 745,48 737,42.2857 L 737,8"/>
    <text font-size="12.8" style="fill: #000000;text-anchor:middle;font-family:sans-serif;font-style:normal;font-weight:normal" x="757" y="27.0857">
      <tspan x="757" y="27.0857">MTU</tspan>
    </text>
  </g>
  <line style="fill: none; fill-opacity:0; stroke-width: 0.2; stroke-dasharray: 4; stroke: #000000" x1="736.901" y1="41.7547" x2="539.941" y2="176.545"/>
  <line style="fill: none; fill-opacity:0; stroke-width: 0.2; stroke-dasharray: 4; stroke: #000000" x1="737.206" y1="18.6604" x2="633.248" y2="-30.3913"/>
</svg>
