<?xml version="1.0" encoding="UTF-8" standalone="no"?>
<!DOCTYPE svg PUBLIC "-//W3C//DTD SVG 1.0//EN" "http://www.w3.org/TR/2001/PR-SVG-20010719/DTD/svg10.dtd">
<svg width="36cm" height="30cm" viewBox="59 -216 704 584" xmlns="http://www.w3.org/2000/svg" xmlns:xlink="http://www.w3.org/1999/xlink">
  <g>
    <path style="fill: none; fill-opacity:0; stroke-width: 0.02; stroke: #000000" d="M 91.0505 117.756 L 146.25,117.756 L 146.25,141.756 C 135.21,137.756 129.69,137.756 118.65,141.756 C 107.61,145.756 102.09,145.756 91.0505,141.756 L 91.0505,117.756"/>
    <text font-size="12.8" style="fill: #000000;text-anchor:middle;font-family:monospace;font-style:normal;font-weight:normal" x="118.65" y="130.956">
      <tspan x="118.65" y="130.956">目的地址</tspan>
    </text>
  </g>
  <line style="fill: none; fill-opacity:0; stroke-width: 2; stroke: #000000" x1="299.758" y1="150.897" x2="300.047" y2="111.697"/>
  <g>
    <path style="fill: none; fill-opacity:0; stroke-width: 0.02; stroke: #000000" d="M 198.643 118.476 L 241.043,118.476 L 241.043,142.476 C 232.563,138.476 228.323,138.476 219.843,142.476 C 211.363,146.476 207.123,146.476 198.643,142.476 L 198.643,118.476"/>
    <text font-size="12.8" style="fill: #000000;text-anchor:middle;font-family:monospace;font-style:normal;font-weight:normal" x="219.843" y="131.676">
      <tspan x="219.843" y="131.676">源地址</tspan>
    </text>
  </g>
  <g>
    <path style="fill: #ffffff" d="M 102.941 152.194 L 122.341,152.194 L 122.341,176.194 C 118.461,172.194 116.521,172.194 112.641,176.194 C 108.761,180.194 106.821,180.194 102.941,176.194 L 102.941,152.194z"/>
    <path style="fill: none; fill-opacity:0; stroke-width: 0.02; stroke: #000000" d="M 102.941 152.194 L 122.341,152.194 L 122.341,176.194 C 118.461,172.194 116.521,172.194 112.641,176.194 C 108.761,180.194 106.821,180.194 102.941,176.194 L 102.941,152.194"/>
    <text font-size="12.8" style="fill: #000000;text-anchor:middle;font-family:monospace;font-style:normal;font-weight:normal" x="112.641" y="165.394">
      <tspan x="112.641" y="165.394">6</tspan>
    </text>
  </g>
  <g>
    <path style="fill: #ffffff" d="M 222.985 152.194 L 242.385,152.194 L 242.385,176.194 C 238.505,172.194 236.565,172.194 232.685,176.194 C 228.805,180.194 226.865,180.194 222.985,176.194 L 222.985,152.194z"/>
    <path style="fill: none; fill-opacity:0; stroke-width: 0.02; stroke: #000000" d="M 222.985 152.194 L 242.385,152.194 L 242.385,176.194 C 238.505,172.194 236.565,172.194 232.685,176.194 C 228.805,180.194 226.865,180.194 222.985,176.194 L 222.985,152.194"/>
    <text font-size="12.8" style="fill: #000000;text-anchor:middle;font-family:monospace;font-style:normal;font-weight:normal" x="232.685" y="165.394">
      <tspan x="232.685" y="165.394">6</tspan>
    </text>
  </g>
  <line style="fill: none; fill-opacity:0; stroke-width: 2; stroke: #000000" x1="180.326" y1="150.897" x2="180.26" y2="112.35"/>
  <g>
    <path style="fill: none; fill-opacity:0; stroke-width: 0.02; stroke: #000000" d="M 305.923 118.476 L 335.523,118.476 L 335.523,142.476 C 329.603,138.476 326.643,138.476 320.723,142.476 C 314.803,146.476 311.843,146.476 305.923,142.476 L 305.923,118.476"/>
    <text font-size="12.8" style="fill: #000000;text-anchor:middle;font-family:monospace;font-style:normal;font-weight:normal" x="320.723" y="131.676">
      <tspan x="320.723" y="131.676">类型</tspan>
    </text>
  </g>
  <line style="fill: none; fill-opacity:0; stroke-width: 2; stroke: #000000" x1="340.736" y1="150.093" x2="341.025" y2="113.487"/>
  <g>
    <path style="fill: #ffffff" d="M 308.095 151.7 L 327.495,151.7 L 327.495,175.7 C 323.615,171.7 321.675,171.7 317.795,175.7 C 313.915,179.7 311.975,179.7 308.095,175.7 L 308.095,151.7z"/>
    <path style="fill: none; fill-opacity:0; stroke-width: 0.02; stroke: #000000" d="M 308.095 151.7 L 327.495,151.7 L 327.495,175.7 C 323.615,171.7 321.675,171.7 317.795,175.7 C 313.915,179.7 311.975,179.7 308.095,175.7 L 308.095,151.7"/>
    <text font-size="12.8" style="fill: #000000;text-anchor:middle;font-family:monospace;font-style:normal;font-weight:normal" x="317.795" y="164.9">
      <tspan x="317.795" y="164.9">2</tspan>
    </text>
  </g>
  <line style="fill: none; fill-opacity:0; stroke-width: 2; stroke: #000000" x1="720.812" y1="150.042" x2="721.101" y2="113.436"/>
  <g>
    <path style="fill: none; fill-opacity:0; stroke-width: 0.02; stroke: #000000" d="M 729.185 119.334 L 756.285,119.334 L 756.285,143.334 C 750.865,139.334 748.155,139.334 742.735,143.334 C 737.315,147.334 734.605,147.334 729.185,143.334 L 729.185,119.334"/>
    <text font-size="12.8" style="fill: #000000;text-anchor:middle;font-family:monospace;font-style:normal;font-weight:normal" x="742.735" y="132.534">
      <tspan x="742.735" y="132.534">CRC</tspan>
    </text>
  </g>
  <g>
    <path style="fill: #ffffff" d="M 732.137 152.238 L 751.537,152.238 L 751.537,176.238 C 747.657,172.238 745.717,172.238 741.837,176.238 C 737.957,180.238 736.017,180.238 732.137,176.238 L 732.137,152.238z"/>
    <path style="fill: none; fill-opacity:0; stroke-width: 0.02; stroke: #000000" d="M 732.137 152.238 L 751.537,152.238 L 751.537,176.238 C 747.657,172.238 745.717,172.238 741.837,176.238 C 737.957,180.238 736.017,180.238 732.137,176.238 L 732.137,152.238"/>
    <text font-size="12.8" style="fill: #000000;text-anchor:middle;font-family:monospace;font-style:normal;font-weight:normal" x="741.837" y="165.438">
      <tspan x="741.837" y="165.438">4</tspan>
    </text>
  </g>
  <g>
    <path style="fill: none; fill-opacity:0; stroke-width: 0.02; stroke: #000000" d="M 499.537 118.84 L 529.137,118.84 L 529.137,142.84 C 523.217,138.84 520.257,138.84 514.337,142.84 C 508.417,146.84 505.457,146.84 499.537,142.84 L 499.537,118.84"/>
    <text font-size="12.8" style="fill: #000000;text-anchor:middle;font-family:monospace;font-style:normal;font-weight:normal" x="514.337" y="132.04">
      <tspan x="514.337" y="132.04">数据</tspan>
    </text>
  </g>
  <g>
    <path style="fill: none; fill-opacity:0; stroke-width: 0.02; stroke: #000000" d="M 484.58 152.384 L 547.58,152.384 L 547.58,176.384 C 534.98,172.384 528.68,172.384 516.08,176.384 C 503.48,180.384 497.18,180.384 484.58,176.384 L 484.58,152.384"/>
    <text font-size="12.8" style="fill: #000000;text-anchor:middle;font-family:monospace;font-style:normal;font-weight:normal" x="516.08" y="165.584">
      <tspan x="516.08" y="165.584">46～1500</tspan>
    </text>
  </g>
  <g>
    <rect style="fill: #ffffff" x="60.791" y="-130.558" width="700.203" height="38"/>
    <rect style="fill: none; fill-opacity:0; stroke-width: 2; stroke: #000000" x="60.791" y="-130.558" width="700.203" height="38"/>
    <text font-size="12.8" style="fill: #000000;text-anchor:middle;font-family:monospace;font-style:normal;font-weight:normal" x="410.893" y="-108.908">
      <tspan x="410.893" y="-108.908"></tspan>
    </text>
  </g>
  <g>
    <path style="fill: none; fill-opacity:0; stroke-width: 0.02; stroke: #000000" d="M 78.3061 -125.668 L 133.506,-125.668 L 133.506,-101.668 C 122.466,-105.668 116.946,-105.668 105.906,-101.668 C 94.8661,-97.6676 89.3461,-97.6676 78.3061,-101.668 L 78.3061,-125.668"/>
    <text font-size="12.8" style="fill: #000000;text-anchor:middle;font-family:monospace;font-style:normal;font-weight:normal" x="105.906" y="-112.468">
      <tspan x="105.906" y="-112.468">目的地址</tspan>
    </text>
  </g>
  <line style="fill: none; fill-opacity:0; stroke-width: 2; stroke: #000000" x1="299.346" y1="-92.5271" x2="299.635" y2="-131.727"/>
  <g>
    <path style="fill: none; fill-opacity:0; stroke-width: 0.02; stroke: #000000" d="M 221.415 -124.455 L 263.815,-124.455 L 263.815,-100.455 C 255.335,-104.455 251.095,-104.455 242.615,-100.455 C 234.135,-96.4548 229.895,-96.4548 221.415,-100.455 L 221.415,-124.455"/>
    <text font-size="12.8" style="fill: #000000;text-anchor:middle;font-family:monospace;font-style:normal;font-weight:normal" x="242.615" y="-111.255">
      <tspan x="242.615" y="-111.255">源地址</tspan>
    </text>
  </g>
  <g>
    <path style="fill: #ffffff" d="M 102.035 -91.2303 L 121.435,-91.2303 L 121.435,-67.2303 C 117.555,-71.2303 115.615,-71.2303 111.735,-67.2303 C 107.855,-63.2303 105.915,-63.2303 102.035,-67.2303 L 102.035,-91.2303z"/>
    <path style="fill: none; fill-opacity:0; stroke-width: 0.02; stroke: #000000" d="M 102.035 -91.2303 L 121.435,-91.2303 L 121.435,-67.2303 C 117.555,-71.2303 115.615,-71.2303 111.735,-67.2303 C 107.855,-63.2303 105.915,-63.2303 102.035,-67.2303 L 102.035,-91.2303"/>
    <text font-size="12.8" style="fill: #000000;text-anchor:middle;font-family:monospace;font-style:normal;font-weight:normal" x="111.735" y="-78.0303">
      <tspan x="111.735" y="-78.0303">6</tspan>
    </text>
  </g>
  <g>
    <path style="fill: #ffffff" d="M 229.972 -91.2303 L 249.372,-91.2303 L 249.372,-67.2303 C 245.492,-71.2303 243.552,-71.2303 239.672,-67.2303 C 235.792,-63.2303 233.852,-63.2303 229.972,-67.2303 L 229.972,-91.2303z"/>
    <path style="fill: none; fill-opacity:0; stroke-width: 0.02; stroke: #000000" d="M 229.972 -91.2303 L 249.372,-91.2303 L 249.372,-67.2303 C 245.492,-71.2303 243.552,-71.2303 239.672,-67.2303 C 235.792,-63.2303 233.852,-63.2303 229.972,-67.2303 L 229.972,-91.2303"/>
    <text font-size="12.8" style="fill: #000000;text-anchor:middle;font-family:monospace;font-style:normal;font-weight:normal" x="239.672" y="-78.0303">
      <tspan x="239.672" y="-78.0303">6</tspan>
    </text>
  </g>
  <line style="fill: none; fill-opacity:0; stroke-width: 2; stroke: #000000" x1="179.913" y1="-92.5271" x2="179.848" y2="-131.073"/>
  <g>
    <path style="fill: none; fill-opacity:0; stroke-width: 0.02; stroke: #000000" d="M 306.448 -124.948 L 336.048,-124.948 L 336.048,-100.948 C 330.128,-104.948 327.168,-104.948 321.248,-100.948 C 315.328,-96.948 312.368,-96.948 306.448,-100.948 L 306.448,-124.948"/>
    <text font-size="12.8" style="fill: #000000;text-anchor:middle;font-family:monospace;font-style:normal;font-weight:normal" x="321.248" y="-111.748">
      <tspan x="321.248" y="-111.748">长度</tspan>
    </text>
  </g>
  <line style="fill: none; fill-opacity:0; stroke-width: 2; stroke: #000000" x1="340.817" y1="-93.3306" x2="341.106" y2="-129.937"/>
  <g>
    <path style="fill: #ffffff" d="M 313.109 -91.2303 L 332.509,-91.2303 L 332.509,-67.2303 C 328.629,-71.2303 326.689,-71.2303 322.809,-67.2303 C 318.929,-63.2303 316.989,-63.2303 313.109,-67.2303 L 313.109,-91.2303z"/>
    <path style="fill: none; fill-opacity:0; stroke-width: 0.02; stroke: #000000" d="M 313.109 -91.2303 L 332.509,-91.2303 L 332.509,-67.2303 C 328.629,-71.2303 326.689,-71.2303 322.809,-67.2303 C 318.929,-63.2303 316.989,-63.2303 313.109,-67.2303 L 313.109,-91.2303"/>
    <text font-size="12.8" style="fill: #000000;text-anchor:middle;font-family:monospace;font-style:normal;font-weight:normal" x="322.809" y="-78.0303">
      <tspan x="322.809" y="-78.0303">2</tspan>
    </text>
  </g>
  <line style="fill: none; fill-opacity:0; stroke-width: 2; stroke: #000000" x1="719.907" y1="-93.3817" x2="720.195" y2="-129.988"/>
  <g>
    <path style="fill: none; fill-opacity:0; stroke-width: 0.02; stroke: #000000" d="M 728.28 -124.09 L 755.38,-124.09 L 755.38,-100.09 C 749.96,-104.09 747.25,-104.09 741.83,-100.09 C 736.41,-96.0901 733.7,-96.0901 728.28,-100.09 L 728.28,-124.09"/>
    <text font-size="12.8" style="fill: #000000;text-anchor:middle;font-family:monospace;font-style:normal;font-weight:normal" x="741.83" y="-110.89">
      <tspan x="741.83" y="-110.89">CRC</tspan>
    </text>
  </g>
  <g>
    <path style="fill: #ffffff" d="M 731.231 -90.6924 L 750.631,-90.6924 L 750.631,-66.6924 C 746.751,-70.6924 744.811,-70.6924 740.931,-66.6924 C 737.051,-62.6924 735.111,-62.6924 731.231,-66.6924 L 731.231,-90.6924z"/>
    <path style="fill: none; fill-opacity:0; stroke-width: 0.02; stroke: #000000" d="M 731.231 -90.6924 L 750.631,-90.6924 L 750.631,-66.6924 C 746.751,-70.6924 744.811,-70.6924 740.931,-66.6924 C 737.051,-62.6924 735.111,-62.6924 731.231,-66.6924 L 731.231,-90.6924"/>
    <text font-size="12.8" style="fill: #000000;text-anchor:middle;font-family:monospace;font-style:normal;font-weight:normal" x="740.931" y="-77.4924">
      <tspan x="740.931" y="-77.4924">4</tspan>
    </text>
  </g>
  <g>
    <path style="fill: none; fill-opacity:0; stroke-width: 0.02; stroke: #000000" d="M 589.889 -124.583 L 619.489,-124.583 L 619.489,-100.583 C 613.569,-104.583 610.609,-104.583 604.689,-100.583 C 598.769,-96.5834 595.809,-96.5834 589.889,-100.583 L 589.889,-124.583"/>
    <text font-size="12.8" style="fill: #000000;text-anchor:middle;font-family:monospace;font-style:normal;font-weight:normal" x="604.689" y="-111.383">
      <tspan x="604.689" y="-111.383">数据</tspan>
    </text>
  </g>
  <g>
    <path style="fill: none; fill-opacity:0; stroke-width: 0.02; stroke: #000000" d="M 569.012 -91.5334 L 632.012,-91.5334 L 632.012,-67.5334 C 619.412,-71.5334 613.112,-71.5334 600.512,-67.5334 C 587.912,-63.5334 581.612,-63.5334 569.012,-67.5334 L 569.012,-91.5334"/>
    <text font-size="12.8" style="fill: #000000;text-anchor:middle;font-family:monospace;font-style:normal;font-weight:normal" x="600.512" y="-78.3334">
      <tspan x="600.512" y="-78.3334">38～1492</tspan>
    </text>
  </g>
  <g>
    <line style="fill: none; fill-opacity:0; stroke-width: 1; stroke: #000000" x1="238.417" y1="-146.472" x2="329.742" y2="-147.255"/>
    <polygon style="fill: #000000" points="329.785,-142.255 339.741,-147.341 329.699,-152.255 "/>
    <polygon style="fill: none; fill-opacity:0; stroke-width: 1; stroke: #000000" points="329.785,-142.255 339.741,-147.341 329.699,-152.255 "/>
  </g>
  <g>
    <path style="fill: #ffffff" d="M 165.109 -160.158 L 238.409,-160.158 L 238.409,-136.158 C 223.749,-140.158 216.419,-140.158 201.759,-136.158 C 187.099,-132.158 179.769,-132.158 165.109,-136.158 L 165.109,-160.158z"/>
    <path style="fill: none; fill-opacity:0; stroke-width: 0.02; stroke: #000000" d="M 165.109 -160.158 L 238.409,-160.158 L 238.409,-136.158 C 223.749,-140.158 216.419,-140.158 201.759,-136.158 C 187.099,-132.158 179.769,-132.158 165.109,-136.158 L 165.109,-160.158"/>
    <text font-size="12.8" style="fill: #000000;text-anchor:middle;font-family:monospace;font-style:normal;font-weight:normal" x="201.759" y="-146.958">
      <tspan x="201.759" y="-146.958">802.3 MAC</tspan>
    </text>
  </g>
  <g>
    <line style="fill: none; fill-opacity:0; stroke-width: 1; stroke: #000000" x1="165.109" y1="-148.158" x2="72.0337" y2="-148.314"/>
    <polygon style="fill: #000000" points="72.0421,-153.314 62.0337,-148.331 72.0253,-143.314 "/>
    <polygon style="fill: none; fill-opacity:0; stroke-width: 1; stroke: #000000" points="72.0421,-153.314 62.0337,-148.331 72.0253,-143.314 "/>
  </g>
  <line style="fill: none; fill-opacity:0; stroke-width: 1; stroke: #000000" x1="61.5337" y1="-161.831" x2="61.5337" y2="-134.831"/>
  <line style="fill: none; fill-opacity:0; stroke-width: 1; stroke: #000000" x1="340.241" y1="-160.845" x2="340.241" y2="-133.845"/>
  <line style="fill: none; fill-opacity:0; stroke-width: 2; stroke: #000000" x1="359.729" y1="-93.1468" x2="360.017" y2="-129.753"/>
  <line style="fill: none; fill-opacity:0; stroke-width: 2; stroke: #000000" x1="380.891" y1="-93.1468" x2="381.179" y2="-129.753"/>
  <line style="fill: none; fill-opacity:0; stroke-width: 2; stroke: #000000" x1="400.573" y1="-93.64" x2="400.861" y2="-130.247"/>
  <line style="fill: none; fill-opacity:0; stroke-width: 2; stroke: #000000" x1="459.717" y1="-93.64" x2="460.006" y2="-130.247"/>
  <line style="fill: none; fill-opacity:0; stroke-width: 2; stroke: #000000" x1="499.131" y1="-93.64" x2="499.419" y2="-130.247"/>
  <g>
    <path style="fill: none; fill-opacity:0; stroke-width: 0.2; stroke-dasharray: 4; stroke: #000000" d="M 341.464 -179.736 L 376.464,-179.736 L 376.464,-155.496 C 369.464,-159.536 365.964,-159.536 358.964,-155.496 C 351.964,-151.456 348.464,-151.456 341.464,-155.496 L 341.464,-179.736"/>
    <text font-size="12.8" style="fill: #000000;text-anchor:middle;font-family:monospace;font-style:normal;font-weight:normal" x="358.964" y="-166.436">
      <tspan x="358.964" y="-166.436">DSAP</tspan>
    </text>
  </g>
  <line style="fill: none; fill-opacity:0; stroke-width: 0.2; stroke-dasharray: 4; stroke: #000000" x1="355.41" y1="-153.569" x2="349.398" y2="-133.228"/>
  <g>
    <path style="fill: none; fill-opacity:0; stroke-width: 0.2; stroke-dasharray: 4; stroke: #000000" d="M 394.137 -180.23 L 429.137,-180.23 L 429.137,-155.99 C 422.137,-160.03 418.637,-160.03 411.637,-155.99 C 404.637,-151.95 401.137,-151.95 394.137,-155.99 L 394.137,-180.23"/>
    <text font-size="12.8" style="fill: #000000;text-anchor:middle;font-family:monospace;font-style:normal;font-weight:normal" x="411.637" y="-166.93">
      <tspan x="411.637" y="-166.93">SSAP</tspan>
    </text>
  </g>
  <g>
    <path style="fill: none; fill-opacity:0; stroke-width: 0.2; stroke-dasharray: 4; stroke: #000000" d="M 450.865 -180.23 L 485.865,-180.23 L 485.865,-155.99 C 478.865,-160.03 475.365,-160.03 468.365,-155.99 C 461.365,-151.95 457.865,-151.95 450.865,-155.99 L 450.865,-180.23"/>
    <text font-size="12.8" style="fill: #000000;text-anchor:middle;font-family:monospace;font-style:normal;font-weight:normal" x="468.365" y="-166.93">
      <tspan x="468.365" y="-166.93">cntl</tspan>
    </text>
  </g>
  <line style="fill: none; fill-opacity:0; stroke-width: 0.2; stroke-dasharray: 4; stroke: #000000" x1="397.511" y1="-154.148" x2="371.596" y2="-132.241"/>
  <line style="fill: none; fill-opacity:0; stroke-width: 0.2; stroke-dasharray: 4; stroke: #000000" x1="450.836" y1="-158.275" x2="391.327" y2="-131.748"/>
  <g>
    <line style="fill: none; fill-opacity:0; stroke-width: 1; stroke: #000000" x1="453.356" y1="-200.051" x2="476.61" y2="-200.443"/>
    <polygon style="fill: #000000" points="476.694,-195.443 486.609,-200.611 476.526,-205.442 "/>
    <polygon style="fill: none; fill-opacity:0; stroke-width: 1; stroke: #000000" points="476.694,-195.443 486.609,-200.611 476.526,-205.442 "/>
  </g>
  <g>
    <path style="fill: #ffffff" d="M 380.049 -213.433 L 453.349,-213.433 L 453.349,-189.433 C 438.689,-193.433 431.359,-193.433 416.699,-189.433 C 402.039,-185.433 394.709,-185.433 380.049,-189.433 L 380.049,-213.433z"/>
    <path style="fill: none; fill-opacity:0; stroke-width: 0.02; stroke: #000000" d="M 380.049 -213.433 L 453.349,-213.433 L 453.349,-189.433 C 438.689,-193.433 431.359,-193.433 416.699,-189.433 C 402.039,-185.433 394.709,-185.433 380.049,-189.433 L 380.049,-213.433"/>
    <text font-size="12.8" style="fill: #000000;text-anchor:middle;font-family:monospace;font-style:normal;font-weight:normal" x="416.699" y="-200.233">
      <tspan x="416.699" y="-200.233">802.2 LLC</tspan>
    </text>
  </g>
  <g>
    <line style="fill: none; fill-opacity:0; stroke-width: 1; stroke: #000000" x1="380.049" y1="-201.433" x2="351.594" y2="-201.559"/>
    <polygon style="fill: #000000" points="351.616,-206.559 341.594,-201.604 351.572,-196.559 "/>
    <polygon style="fill: none; fill-opacity:0; stroke-width: 1; stroke: #000000" points="351.616,-206.559 341.594,-201.604 351.572,-196.559 "/>
  </g>
  <line style="fill: none; fill-opacity:0; stroke-width: 1; stroke: #000000" x1="341.094" y1="-215.106" x2="341.094" y2="-188.106"/>
  <line style="fill: none; fill-opacity:0; stroke-width: 1; stroke: #000000" x1="487.109" y1="-214.119" x2="487.109" y2="-187.119"/>
  <g>
    <path style="fill: none; fill-opacity:0; stroke-width: 0.2; stroke-dasharray: 4; stroke: #000000" d="M 498.112 -180.23 L 563.912,-180.23 L 563.912,-155.99 C 550.752,-160.03 544.172,-160.03 531.012,-155.99 C 517.852,-151.95 511.272,-151.95 498.112,-155.99 L 498.112,-180.23"/>
    <text font-size="12.8" style="fill: #000000;text-anchor:middle;font-family:monospace;font-style:normal;font-weight:normal" x="531.012" y="-166.93">
      <tspan x="531.012" y="-166.93">org code</tspan>
    </text>
  </g>
  <line style="fill: none; fill-opacity:0; stroke-width: 0.2; stroke-dasharray: 4; stroke: #000000" x1="499.477" y1="-155.491" x2="430.296" y2="-132.241"/>
  <g>
    <path style="fill: none; fill-opacity:0; stroke-width: 0.02; stroke: #000000" d="M 615.722 -180.583 L 645.322,-180.583 L 645.322,-156.583 C 639.402,-160.583 636.442,-160.583 630.522,-156.583 C 624.602,-152.583 621.642,-152.583 615.722,-156.583 L 615.722,-180.583"/>
    <text font-size="12.8" style="fill: #000000;text-anchor:middle;font-family:monospace;font-style:normal;font-weight:normal" x="630.522" y="-167.383">
      <tspan x="630.522" y="-167.383">类型</tspan>
    </text>
  </g>
  <g>
    <path style="fill: #ffffff" d="M 472.176 -91.2985 L 491.576,-91.2985 L 491.576,-67.2985 C 487.696,-71.2985 485.756,-71.2985 481.876,-67.2985 C 477.996,-63.2985 476.056,-63.2985 472.176,-67.2985 L 472.176,-91.2985z"/>
    <path style="fill: none; fill-opacity:0; stroke-width: 0.02; stroke: #000000" d="M 472.176 -91.2985 L 491.576,-91.2985 L 491.576,-67.2985 C 487.696,-71.2985 485.756,-71.2985 481.876,-67.2985 C 477.996,-63.2985 476.056,-63.2985 472.176,-67.2985 L 472.176,-91.2985"/>
    <text font-size="12.8" style="fill: #000000;text-anchor:middle;font-family:monospace;font-style:normal;font-weight:normal" x="481.876" y="-78.0985">
      <tspan x="481.876" y="-78.0985">2</tspan>
    </text>
  </g>
  <g>
    <path style="fill: #ffffff" d="M 340.469 -91.2985 L 359.869,-91.2985 L 359.869,-67.2985 C 355.989,-71.2985 354.049,-71.2985 350.169,-67.2985 C 346.289,-63.2985 344.349,-63.2985 340.469,-67.2985 L 340.469,-91.2985z"/>
    <path style="fill: none; fill-opacity:0; stroke-width: 0.02; stroke: #000000" d="M 340.469 -91.2985 L 359.869,-91.2985 L 359.869,-67.2985 C 355.989,-71.2985 354.049,-71.2985 350.169,-67.2985 C 346.289,-63.2985 344.349,-63.2985 340.469,-67.2985 L 340.469,-91.2985"/>
    <text font-size="12.8" style="fill: #000000;text-anchor:middle;font-family:monospace;font-style:normal;font-weight:normal" x="350.169" y="-78.0985">
      <tspan x="350.169" y="-78.0985">1</tspan>
    </text>
  </g>
  <g>
    <path style="fill: #ffffff" d="M 380.919 -91.2985 L 400.319,-91.2985 L 400.319,-67.2985 C 396.439,-71.2985 394.499,-71.2985 390.619,-67.2985 C 386.739,-63.2985 384.799,-63.2985 380.919,-67.2985 L 380.919,-91.2985z"/>
    <path style="fill: none; fill-opacity:0; stroke-width: 0.02; stroke: #000000" d="M 380.919 -91.2985 L 400.319,-91.2985 L 400.319,-67.2985 C 396.439,-71.2985 394.499,-71.2985 390.619,-67.2985 C 386.739,-63.2985 384.799,-63.2985 380.919,-67.2985 L 380.919,-91.2985"/>
    <text font-size="12.8" style="fill: #000000;text-anchor:middle;font-family:monospace;font-style:normal;font-weight:normal" x="390.619" y="-78.0985">
      <tspan x="390.619" y="-78.0985">1</tspan>
    </text>
  </g>
  <g>
    <path style="fill: #ffffff" d="M 360.595 -91.2985 L 379.995,-91.2985 L 379.995,-67.2985 C 376.115,-71.2985 374.175,-71.2985 370.295,-67.2985 C 366.415,-63.2985 364.475,-63.2985 360.595,-67.2985 L 360.595,-91.2985z"/>
    <path style="fill: none; fill-opacity:0; stroke-width: 0.02; stroke: #000000" d="M 360.595 -91.2985 L 379.995,-91.2985 L 379.995,-67.2985 C 376.115,-71.2985 374.175,-71.2985 370.295,-67.2985 C 366.415,-63.2985 364.475,-63.2985 360.595,-67.2985 L 360.595,-91.2985"/>
    <text font-size="12.8" style="fill: #000000;text-anchor:middle;font-family:monospace;font-style:normal;font-weight:normal" x="370.295" y="-78.0985">
      <tspan x="370.295" y="-78.0985">1</tspan>
    </text>
  </g>
  <g>
    <path style="fill: #ffffff" d="M 421.22 -90.8052 L 440.62,-90.8052 L 440.62,-66.8052 C 436.74,-70.8052 434.8,-70.8052 430.92,-66.8052 C 427.04,-62.8052 425.1,-62.8052 421.22,-66.8052 L 421.22,-90.8052z"/>
    <path style="fill: none; fill-opacity:0; stroke-width: 0.02; stroke: #000000" d="M 421.22 -90.8052 L 440.62,-90.8052 L 440.62,-66.8052 C 436.74,-70.8052 434.8,-70.8052 430.92,-66.8052 C 427.04,-62.8052 425.1,-62.8052 421.22,-66.8052 L 421.22,-90.8052"/>
    <text font-size="12.8" style="fill: #000000;text-anchor:middle;font-family:monospace;font-style:normal;font-weight:normal" x="430.92" y="-77.6052">
      <tspan x="430.92" y="-77.6052">3</tspan>
    </text>
  </g>
  <line style="fill: none; fill-opacity:0; stroke-width: 0.2; stroke-dasharray: 4; stroke: #000000" x1="615.717" y1="-163.187" x2="478.638" y2="-131.748"/>
  <g>
    <line style="fill: none; fill-opacity:0; stroke-width: 1; stroke: #000000" x1="613.574" y1="-198.613" x2="635.447" y2="-198.969"/>
    <polygon style="fill: #000000" points="635.529,-193.969 645.446,-199.131 635.366,-203.968 "/>
    <polygon style="fill: none; fill-opacity:0; stroke-width: 1; stroke: #000000" points="635.529,-193.969 645.446,-199.131 635.366,-203.968 "/>
  </g>
  <g>
    <path style="fill: #ffffff" d="M 532.57 -211.953 L 613.57,-211.953 L 613.57,-187.953 C 597.37,-191.953 589.27,-191.953 573.07,-187.953 C 556.87,-183.953 548.77,-183.953 532.57,-187.953 L 532.57,-211.953z"/>
    <path style="fill: none; fill-opacity:0; stroke-width: 0.02; stroke: #000000" d="M 532.57 -211.953 L 613.57,-211.953 L 613.57,-187.953 C 597.37,-191.953 589.27,-191.953 573.07,-187.953 C 556.87,-183.953 548.77,-183.953 532.57,-187.953 L 532.57,-211.953"/>
    <text font-size="12.8" style="fill: #000000;text-anchor:middle;font-family:monospace;font-style:normal;font-weight:normal" x="573.07" y="-198.753">
      <tspan x="573.07" y="-198.753">802.2 SNAP</tspan>
    </text>
  </g>
  <g>
    <line style="fill: none; fill-opacity:0; stroke-width: 1; stroke: #000000" x1="532.57" y1="-199.953" x2="509.445" y2="-200.072"/>
    <polygon style="fill: #000000" points="509.471,-205.072 499.445,-200.124 509.419,-195.072 "/>
    <polygon style="fill: none; fill-opacity:0; stroke-width: 1; stroke: #000000" points="509.471,-205.072 499.445,-200.124 509.419,-195.072 "/>
  </g>
  <line style="fill: none; fill-opacity:0; stroke-width: 1; stroke: #000000" x1="498.945" y1="-213.626" x2="498.945" y2="-186.626"/>
  <line style="fill: none; fill-opacity:0; stroke-width: 1; stroke: #000000" x1="645.946" y1="-212.64" x2="645.946" y2="-185.64"/>
  <line style="fill: none; fill-opacity:0; stroke-width: 0.2; stroke-dasharray: 4; stroke: #000000" x1="340.431" y1="-115.743" x2="340.519" y2="143.011"/>
  <g>
    <rect style="fill: #ffffff" x="461.373" y="-69.3909" width="258.974" height="38"/>
    <rect style="fill: none; fill-opacity:0; stroke-width: 2; stroke: #000000" x="461.373" y="-69.3909" width="258.974" height="38"/>
    <text font-size="12.8" style="fill: #000000;text-anchor:middle;font-family:monospace;font-style:normal;font-weight:normal" x="590.86" y="-47.7409">
      <tspan x="590.86" y="-47.7409"></tspan>
    </text>
  </g>
  <g>
    <path style="fill: none; fill-opacity:0; stroke-width: 0.02; stroke: #000000" d="M 565.539 -63.4162 L 643.839,-63.4162 L 643.839,-39.4162 C 628.179,-43.4162 620.349,-43.4162 604.689,-39.4162 C 589.029,-35.4162 581.199,-35.4162 565.539,-39.4162 L 565.539,-63.4162"/>
    <text font-size="12.8" style="fill: #000000;text-anchor:middle;font-family:monospace;font-style:normal;font-weight:normal" x="604.689" y="-50.2162">
      <tspan x="604.689" y="-50.2162">IP 数据报</tspan>
    </text>
  </g>
  <g>
    <path style="fill: none; fill-opacity:0; stroke-width: 0.02; stroke: #000000" d="M 569.012 -30.3662 L 632.012,-30.3662 L 632.012,-6.36622 C 619.412,-10.3662 613.112,-10.3662 600.512,-6.36622 C 587.912,-2.36622 581.612,-2.36622 569.012,-6.36622 L 569.012,-30.3662"/>
    <text font-size="12.8" style="fill: #000000;text-anchor:middle;font-family:monospace;font-style:normal;font-weight:normal" x="600.512" y="-17.1662">
      <tspan x="600.512" y="-17.1662">38～1492</tspan>
    </text>
  </g>
  <line style="fill: none; fill-opacity:0; stroke-width: 2; stroke: #000000" x1="499.131" y1="-32.4729" x2="499.419" y2="-69.0795"/>
  <g>
    <path style="fill: #ffffff" d="M 472.176 -30.1313 L 491.576,-30.1313 L 491.576,-6.13132 C 487.696,-10.1313 485.756,-10.1313 481.876,-6.13132 C 477.996,-2.13132 476.056,-2.13132 472.176,-6.13132 L 472.176,-30.1313z"/>
    <path style="fill: none; fill-opacity:0; stroke-width: 0.02; stroke: #000000" d="M 472.176 -30.1313 L 491.576,-30.1313 L 491.576,-6.13132 C 487.696,-10.1313 485.756,-10.1313 481.876,-6.13132 C 477.996,-2.13132 476.056,-2.13132 472.176,-6.13132 L 472.176,-30.1313"/>
    <text font-size="12.8" style="fill: #000000;text-anchor:middle;font-family:monospace;font-style:normal;font-weight:normal" x="481.876" y="-16.9313">
      <tspan x="481.876" y="-16.9313">2</tspan>
    </text>
  </g>
  <g>
    <path style="fill: none; fill-opacity:0; stroke-width: 0.02; stroke: #000000" d="M 462.177 -68.9552 L 496.977,-68.9552 L 496.977,-25.7552 C 490.017,-32.9552 486.537,-32.9552 479.577,-25.7552 C 472.617,-18.5552 469.137,-18.5552 462.177,-25.7552 L 462.177,-68.9552"/>
    <text font-size="12.8" style="fill: #000000;text-anchor:middle;font-family:monospace;font-style:normal;font-weight:normal" x="479.577" y="-55.7552">
      <tspan x="479.577" y="-55.7552">类型</tspan>
      <tspan x="479.577" y="-39.7552">0800</tspan>
    </text>
  </g>
  <g>
    <rect style="fill: #ffffff" x="461.337" y="-8.90669" width="198.336" height="38"/>
    <rect style="fill: none; fill-opacity:0; stroke-width: 2; stroke: #000000" x="461.337" y="-8.90669" width="198.336" height="38"/>
    <text font-size="12.8" style="fill: #000000;text-anchor:middle;font-family:monospace;font-style:normal;font-weight:normal" x="560.505" y="12.7433">
      <tspan x="560.505" y="12.7433"></tspan>
    </text>
  </g>
  <g>
    <path style="fill: none; fill-opacity:0; stroke-width: 0.02; stroke: #000000" d="M 519.327 -2.932 L 613.027,-2.932 L 613.027,21.068 C 594.287,17.068 584.917,17.068 566.177,21.068 C 547.437,25.068 538.067,25.068 519.327,21.068 L 519.327,-2.932"/>
    <text font-size="12.8" style="fill: #000000;text-anchor:middle;font-family:monospace;font-style:normal;font-weight:normal" x="566.177" y="10.268">
      <tspan x="566.177" y="10.268">ARP 请求/应答</tspan>
    </text>
  </g>
  <g>
    <path style="fill: none; fill-opacity:0; stroke-width: 0.02; stroke: #000000" d="M 534.447 30.118 L 597.447,30.118 L 597.447,54.118 C 584.847,50.118 578.547,50.118 565.947,54.118 C 553.347,58.118 547.047,58.118 534.447,54.118 L 534.447,30.118"/>
    <text font-size="12.8" style="fill: #000000;text-anchor:middle;font-family:monospace;font-style:normal;font-weight:normal" x="565.947" y="43.318">
      <tspan x="565.947" y="43.318">28</tspan>
    </text>
  </g>
  <line style="fill: none; fill-opacity:0; stroke-width: 2; stroke: #000000" x1="499.095" y1="28.0114" x2="499.383" y2="-8.59522"/>
  <g>
    <path style="fill: #ffffff" d="M 472.14 30.3529 L 491.54,30.3529 L 491.54,54.3529 C 487.66,50.3529 485.72,50.3529 481.84,54.3529 C 477.96,58.3529 476.02,58.3529 472.14,54.3529 L 472.14,30.3529z"/>
    <path style="fill: none; fill-opacity:0; stroke-width: 0.02; stroke: #000000" d="M 472.14 30.3529 L 491.54,30.3529 L 491.54,54.3529 C 487.66,50.3529 485.72,50.3529 481.84,54.3529 C 477.96,58.3529 476.02,58.3529 472.14,54.3529 L 472.14,30.3529"/>
    <text font-size="12.8" style="fill: #000000;text-anchor:middle;font-family:monospace;font-style:normal;font-weight:normal" x="481.84" y="43.5529">
      <tspan x="481.84" y="43.5529">2</tspan>
    </text>
  </g>
  <g>
    <path style="fill: none; fill-opacity:0; stroke-width: 0.02; stroke: #000000" d="M 462.141 -8.47098 L 496.941,-8.47098 L 496.941,34.729 C 489.981,27.529 486.501,27.529 479.541,34.729 C 472.581,41.929 469.101,41.929 462.141,34.729 L 462.141,-8.47098"/>
    <text font-size="12.8" style="fill: #000000;text-anchor:middle;font-family:monospace;font-style:normal;font-weight:normal" x="479.541" y="4.72902">
      <tspan x="479.541" y="4.72902">类型</tspan>
      <tspan x="479.541" y="20.729">0806</tspan>
    </text>
  </g>
  <line style="fill: none; fill-opacity:0; stroke-width: 2; stroke: #000000" x1="631.035" y1="28.6943" x2="631.323" y2="-7.91227"/>
  <g>
    <path style="fill: none; fill-opacity:0; stroke-width: 0.02; stroke: #000000" d="M 632.698 -2.01415 L 659.798,-2.01415 L 659.798,21.9859 C 654.378,17.9859 651.668,17.9859 646.248,21.9859 C 640.828,25.9859 638.118,25.9859 632.698,21.9859 L 632.698,-2.01415"/>
    <text font-size="12.8" style="fill: #000000;text-anchor:middle;font-family:monospace;font-style:normal;font-weight:normal" x="646.248" y="11.1859">
      <tspan x="646.248" y="11.1859">PAD</tspan>
    </text>
  </g>
  <g>
    <path style="fill: #ffffff" d="M 635.946 30.5426 L 655.346,30.5426 L 655.346,54.5426 C 651.466,50.5426 649.526,50.5426 645.646,54.5426 C 641.766,58.5426 639.826,58.5426 635.946,54.5426 L 635.946,30.5426z"/>
    <path style="fill: none; fill-opacity:0; stroke-width: 0.02; stroke: #000000" d="M 635.946 30.5426 L 655.346,30.5426 L 655.346,54.5426 C 651.466,50.5426 649.526,50.5426 645.646,54.5426 C 641.766,58.5426 639.826,58.5426 635.946,54.5426 L 635.946,30.5426"/>
    <text font-size="12.8" style="fill: #000000;text-anchor:middle;font-family:monospace;font-style:normal;font-weight:normal" x="645.646" y="43.7426">
      <tspan x="645.646" y="43.7426">10</tspan>
    </text>
  </g>
  <g>
    <rect style="fill: #ffffff" x="462.817" y="50.7806" width="198.336" height="38"/>
    <rect style="fill: none; fill-opacity:0; stroke-width: 2; stroke: #000000" x="462.817" y="50.7806" width="198.336" height="38"/>
    <text font-size="12.8" style="fill: #000000;text-anchor:middle;font-family:monospace;font-style:normal;font-weight:normal" x="561.985" y="72.4306">
      <tspan x="561.985" y="72.4306"></tspan>
    </text>
  </g>
  <g>
    <path style="fill: none; fill-opacity:0; stroke-width: 0.02; stroke: #000000" d="M 516.956 56.7553 L 618.356,56.7553 L 618.356,80.7553 C 598.076,76.7553 587.936,76.7553 567.656,80.7553 C 547.376,84.7553 537.236,84.7553 516.956,80.7553 L 516.956,56.7553"/>
    <text font-size="12.8" style="fill: #000000;text-anchor:middle;font-family:monospace;font-style:normal;font-weight:normal" x="567.656" y="69.9553">
      <tspan x="567.656" y="69.9553">RARP 请求/应答</tspan>
    </text>
  </g>
  <g>
    <path style="fill: #ffffff" d="M 535.927 89.8053 L 598.927,89.8053 L 598.927,113.805 C 586.327,109.805 580.027,109.805 567.427,113.805 C 554.827,117.805 548.527,117.805 535.927,113.805 L 535.927,89.8053z"/>
    <path style="fill: none; fill-opacity:0; stroke-width: 0.02; stroke: #000000" d="M 535.927 89.8053 L 598.927,89.8053 L 598.927,113.805 C 586.327,109.805 580.027,109.805 567.427,113.805 C 554.827,117.805 548.527,117.805 535.927,113.805 L 535.927,89.8053"/>
    <text font-size="12.8" style="fill: #000000;text-anchor:middle;font-family:monospace;font-style:normal;font-weight:normal" x="567.427" y="103.005">
      <tspan x="567.427" y="103.005">28</tspan>
    </text>
  </g>
  <line style="fill: none; fill-opacity:0; stroke-width: 2; stroke: #000000" x1="500.575" y1="87.6987" x2="500.863" y2="51.0921"/>
  <g>
    <path style="fill: #ffffff" d="M 473.62 90.0402 L 493.02,90.0402 L 493.02,114.04 C 489.14,110.04 487.2,110.04 483.32,114.04 C 479.44,118.04 477.5,118.04 473.62,114.04 L 473.62,90.0402z"/>
    <path style="fill: none; fill-opacity:0; stroke-width: 0.02; stroke: #000000" d="M 473.62 90.0402 L 493.02,90.0402 L 493.02,114.04 C 489.14,110.04 487.2,110.04 483.32,114.04 C 479.44,118.04 477.5,118.04 473.62,114.04 L 473.62,90.0402"/>
    <text font-size="12.8" style="fill: #000000;text-anchor:middle;font-family:monospace;font-style:normal;font-weight:normal" x="483.32" y="103.24">
      <tspan x="483.32" y="103.24">2</tspan>
    </text>
  </g>
  <g>
    <path style="fill: none; fill-opacity:0; stroke-width: 0.02; stroke: #000000" d="M 463.621 51.2164 L 498.421,51.2164 L 498.421,94.4164 C 491.461,87.2164 487.981,87.2164 481.021,94.4164 C 474.061,101.616 470.581,101.616 463.621,94.4164 L 463.621,51.2164"/>
    <text font-size="12.8" style="fill: #000000;text-anchor:middle;font-family:monospace;font-style:normal;font-weight:normal" x="481.021" y="64.4164">
      <tspan x="481.021" y="64.4164">类型</tspan>
      <tspan x="481.021" y="80.4164">0835</tspan>
    </text>
  </g>
  <line style="fill: none; fill-opacity:0; stroke-width: 2; stroke: #000000" x1="632.515" y1="88.3817" x2="632.803" y2="51.7751"/>
  <g>
    <path style="fill: none; fill-opacity:0; stroke-width: 0.02; stroke: #000000" d="M 634.178 57.6732 L 661.278,57.6732 L 661.278,81.6732 C 655.858,77.6732 653.148,77.6732 647.728,81.6732 C 642.308,85.6732 639.598,85.6732 634.178,81.6732 L 634.178,57.6732"/>
    <text font-size="12.8" style="fill: #000000;text-anchor:middle;font-family:monospace;font-style:normal;font-weight:normal" x="647.728" y="70.8732">
      <tspan x="647.728" y="70.8732">PAD</tspan>
    </text>
  </g>
  <g>
    <path style="fill: #ffffff" d="M 637.426 90.2299 L 656.826,90.2299 L 656.826,114.23 C 652.946,110.23 651.006,110.23 647.126,114.23 C 643.246,118.23 641.306,118.23 637.426,114.23 L 637.426,90.2299z"/>
    <path style="fill: none; fill-opacity:0; stroke-width: 0.02; stroke: #000000" d="M 637.426 90.2299 L 656.826,90.2299 L 656.826,114.23 C 652.946,110.23 651.006,110.23 647.126,114.23 C 643.246,118.23 641.306,118.23 637.426,114.23 L 637.426,90.2299"/>
    <text font-size="12.8" style="fill: #000000;text-anchor:middle;font-family:monospace;font-style:normal;font-weight:normal" x="647.126" y="103.43">
      <tspan x="647.126" y="103.43">10</tspan>
    </text>
  </g>
  <line style="fill: none; fill-opacity:0; stroke-width: 0.2; stroke-dasharray: 4; stroke: #000000" x1="720.891" y1="-94.1582" x2="720.979" y2="164.596"/>
  <g>
    <rect style="fill: #ffffff" x="301.056" y="177.555" width="419.291" height="38"/>
    <rect style="fill: none; fill-opacity:0; stroke-width: 2; stroke: #000000" x="301.056" y="177.555" width="419.291" height="38"/>
    <text font-size="12.8" style="fill: #000000;text-anchor:middle;font-family:monospace;font-style:normal;font-weight:normal" x="510.702" y="199.205">
      <tspan x="510.702" y="199.205"></tspan>
    </text>
  </g>
  <g>
    <path style="fill: none; fill-opacity:0; stroke-width: 0.02; stroke: #000000" d="M 505.358 185.009 L 583.658,185.009 L 583.658,209.009 C 567.998,205.009 560.168,205.009 544.508,209.009 C 528.848,213.009 521.018,213.009 505.358,209.009 L 505.358,185.009"/>
    <text font-size="12.8" style="fill: #000000;text-anchor:middle;font-family:monospace;font-style:normal;font-weight:normal" x="544.508" y="198.209">
      <tspan x="544.508" y="198.209">IP 数据报</tspan>
    </text>
  </g>
  <g>
    <path style="fill: none; fill-opacity:0; stroke-width: 0.02; stroke: #000000" d="M 510.805 217.566 L 573.805,217.566 L 573.805,241.566 C 561.205,237.566 554.905,237.566 542.305,241.566 C 529.705,245.566 523.405,245.566 510.805,241.566 L 510.805,217.566"/>
    <text font-size="12.8" style="fill: #000000;text-anchor:middle;font-family:monospace;font-style:normal;font-weight:normal" x="542.305" y="230.766">
      <tspan x="542.305" y="230.766">46～1492</tspan>
    </text>
  </g>
  <line style="fill: none; fill-opacity:0; stroke-width: 2; stroke: #000000" x1="338.814" y1="214.966" x2="339.102" y2="178.359"/>
  <g>
    <path style="fill: #ffffff" d="M 311.859 216.814 L 331.259,216.814 L 331.259,240.814 C 327.379,236.814 325.439,236.814 321.559,240.814 C 317.679,244.814 315.739,244.814 311.859,240.814 L 311.859,216.814z"/>
    <path style="fill: none; fill-opacity:0; stroke-width: 0.02; stroke: #000000" d="M 311.859 216.814 L 331.259,216.814 L 331.259,240.814 C 327.379,236.814 325.439,236.814 321.559,240.814 C 317.679,244.814 315.739,244.814 311.859,240.814 L 311.859,216.814"/>
    <text font-size="12.8" style="fill: #000000;text-anchor:middle;font-family:monospace;font-style:normal;font-weight:normal" x="321.559" y="230.014">
      <tspan x="321.559" y="230.014">2</tspan>
    </text>
  </g>
  <g>
    <path style="fill: none; fill-opacity:0; stroke-width: 0.02; stroke: #000000" d="M 301.86 177.99 L 336.66,177.99 L 336.66,221.19 C 329.7,213.99 326.22,213.99 319.26,221.19 C 312.3,228.39 308.82,228.39 301.86,221.19 L 301.86,177.99"/>
    <text font-size="12.8" style="fill: #000000;text-anchor:middle;font-family:monospace;font-style:normal;font-weight:normal" x="319.26" y="191.19">
      <tspan x="319.26" y="191.19">类型</tspan>
      <tspan x="319.26" y="207.19">0800</tspan>
    </text>
  </g>
  <g>
    <rect style="fill: #ffffff" x="301.02" y="239.025" width="198.336" height="38"/>
    <rect style="fill: none; fill-opacity:0; stroke-width: 2; stroke: #000000" x="301.02" y="239.025" width="198.336" height="38"/>
    <text font-size="12.8" style="fill: #000000;text-anchor:middle;font-family:monospace;font-style:normal;font-weight:normal" x="400.188" y="260.675">
      <tspan x="400.188" y="260.675"></tspan>
    </text>
  </g>
  <g>
    <path style="fill: none; fill-opacity:0; stroke-width: 0.02; stroke: #000000" d="M 359.009 245 L 452.709,245 L 452.709,269 C 433.969,265 424.599,265 405.859,269 C 387.119,273 377.749,273 359.009,269 L 359.009,245"/>
    <text font-size="12.8" style="fill: #000000;text-anchor:middle;font-family:monospace;font-style:normal;font-weight:normal" x="405.859" y="258.2">
      <tspan x="405.859" y="258.2">ARP 请求/应答</tspan>
    </text>
  </g>
  <g>
    <path style="fill: none; fill-opacity:0; stroke-width: 0.02; stroke: #000000" d="M 374.13 278.05 L 437.13,278.05 L 437.13,302.05 C 424.53,298.05 418.23,298.05 405.63,302.05 C 393.03,306.05 386.73,306.05 374.13,302.05 L 374.13,278.05"/>
    <text font-size="12.8" style="fill: #000000;text-anchor:middle;font-family:monospace;font-style:normal;font-weight:normal" x="405.63" y="291.25">
      <tspan x="405.63" y="291.25">28</tspan>
    </text>
  </g>
  <line style="fill: none; fill-opacity:0; stroke-width: 2; stroke: #000000" x1="338.778" y1="276.437" x2="339.066" y2="239.83"/>
  <g>
    <path style="fill: #ffffff" d="M 311.823 278.285 L 331.223,278.285 L 331.223,302.285 C 327.343,298.285 325.403,298.285 321.523,302.285 C 317.643,306.285 315.703,306.285 311.823,302.285 L 311.823,278.285z"/>
    <path style="fill: none; fill-opacity:0; stroke-width: 0.02; stroke: #000000" d="M 311.823 278.285 L 331.223,278.285 L 331.223,302.285 C 327.343,298.285 325.403,298.285 321.523,302.285 C 317.643,306.285 315.703,306.285 311.823,302.285 L 311.823,278.285"/>
    <text font-size="12.8" style="fill: #000000;text-anchor:middle;font-family:monospace;font-style:normal;font-weight:normal" x="321.523" y="291.485">
      <tspan x="321.523" y="291.485">2</tspan>
    </text>
  </g>
  <g>
    <path style="fill: none; fill-opacity:0; stroke-width: 0.02; stroke: #000000" d="M 301.824 239.461 L 336.624,239.461 L 336.624,282.661 C 329.664,275.461 326.184,275.461 319.224,282.661 C 312.264,289.861 308.784,289.861 301.824,282.661 L 301.824,239.461"/>
    <text font-size="12.8" style="fill: #000000;text-anchor:middle;font-family:monospace;font-style:normal;font-weight:normal" x="319.224" y="252.661">
      <tspan x="319.224" y="252.661">类型</tspan>
      <tspan x="319.224" y="268.661">0806</tspan>
    </text>
  </g>
  <line style="fill: none; fill-opacity:0; stroke-width: 2; stroke: #000000" x1="470.718" y1="276.626" x2="471.006" y2="240.02"/>
  <g>
    <path style="fill: none; fill-opacity:0; stroke-width: 0.02; stroke: #000000" d="M 472.381 245.918 L 499.481,245.918 L 499.481,269.918 C 494.061,265.918 491.351,265.918 485.931,269.918 C 480.511,273.918 477.801,273.918 472.381,269.918 L 472.381,245.918"/>
    <text font-size="12.8" style="fill: #000000;text-anchor:middle;font-family:monospace;font-style:normal;font-weight:normal" x="485.931" y="259.118">
      <tspan x="485.931" y="259.118">PAD</tspan>
    </text>
  </g>
  <g>
    <path style="fill: #ffffff" d="M 475.629 278.475 L 495.029,278.475 L 495.029,302.475 C 491.149,298.475 489.209,298.475 485.329,302.475 C 481.449,306.475 479.509,306.475 475.629,302.475 L 475.629,278.475z"/>
    <path style="fill: none; fill-opacity:0; stroke-width: 0.02; stroke: #000000" d="M 475.629 278.475 L 495.029,278.475 L 495.029,302.475 C 491.149,298.475 489.209,298.475 485.329,302.475 C 481.449,306.475 479.509,306.475 475.629,302.475 L 475.629,278.475"/>
    <text font-size="12.8" style="fill: #000000;text-anchor:middle;font-family:monospace;font-style:normal;font-weight:normal" x="485.329" y="291.675">
      <tspan x="485.329" y="291.675">10</tspan>
    </text>
  </g>
  <g>
    <rect style="fill: #ffffff" x="302.5" y="300.193" width="198.336" height="38"/>
    <rect style="fill: none; fill-opacity:0; stroke-width: 2; stroke: #000000" x="302.5" y="300.193" width="198.336" height="38"/>
    <text font-size="12.8" style="fill: #000000;text-anchor:middle;font-family:monospace;font-style:normal;font-weight:normal" x="401.668" y="321.843">
      <tspan x="401.668" y="321.843"></tspan>
    </text>
  </g>
  <g>
    <path style="fill: none; fill-opacity:0; stroke-width: 0.02; stroke: #000000" d="M 356.639 306.167 L 458.039,306.167 L 458.039,330.167 C 437.759,326.167 427.619,326.167 407.339,330.167 C 387.059,334.167 376.919,334.167 356.639,330.167 L 356.639,306.167"/>
    <text font-size="12.8" style="fill: #000000;text-anchor:middle;font-family:monospace;font-style:normal;font-weight:normal" x="407.339" y="319.367">
      <tspan x="407.339" y="319.367">RARP 请求/应答</tspan>
    </text>
  </g>
  <g>
    <path style="fill: none; fill-opacity:0; stroke-width: 0.02; stroke: #000000" d="M 375.609 339.217 L 438.609,339.217 L 438.609,363.217 C 426.009,359.217 419.709,359.217 407.109,363.217 C 394.509,367.217 388.209,367.217 375.609,363.217 L 375.609,339.217"/>
    <text font-size="12.8" style="fill: #000000;text-anchor:middle;font-family:monospace;font-style:normal;font-weight:normal" x="407.109" y="352.417">
      <tspan x="407.109" y="352.417">28</tspan>
    </text>
  </g>
  <line style="fill: none; fill-opacity:0; stroke-width: 2; stroke: #000000" x1="340.258" y1="337.604" x2="340.546" y2="300.997"/>
  <g>
    <path style="fill: #ffffff" d="M 313.303 339.452 L 332.703,339.452 L 332.703,363.452 C 328.823,359.452 326.883,359.452 323.003,363.452 C 319.123,367.452 317.183,367.452 313.303,363.452 L 313.303,339.452z"/>
    <path style="fill: none; fill-opacity:0; stroke-width: 0.02; stroke: #000000" d="M 313.303 339.452 L 332.703,339.452 L 332.703,363.452 C 328.823,359.452 326.883,359.452 323.003,363.452 C 319.123,367.452 317.183,367.452 313.303,363.452 L 313.303,339.452"/>
    <text font-size="12.8" style="fill: #000000;text-anchor:middle;font-family:monospace;font-style:normal;font-weight:normal" x="323.003" y="352.652">
      <tspan x="323.003" y="352.652">2</tspan>
    </text>
  </g>
  <g>
    <path style="fill: none; fill-opacity:0; stroke-width: 0.02; stroke: #000000" d="M 303.304 300.628 L 338.104,300.628 L 338.104,343.828 C 331.144,336.628 327.664,336.628 320.704,343.828 C 313.744,351.028 310.264,351.028 303.304,343.828 L 303.304,300.628"/>
    <text font-size="12.8" style="fill: #000000;text-anchor:middle;font-family:monospace;font-style:normal;font-weight:normal" x="320.704" y="313.828">
      <tspan x="320.704" y="313.828">类型</tspan>
      <tspan x="320.704" y="329.828">0835</tspan>
    </text>
  </g>
  <line style="fill: none; fill-opacity:0; stroke-width: 2; stroke: #000000" x1="472.197" y1="337.794" x2="472.486" y2="301.187"/>
  <g>
    <path style="fill: none; fill-opacity:0; stroke-width: 0.02; stroke: #000000" d="M 473.861 307.085 L 500.961,307.085 L 500.961,331.085 C 495.541,327.085 492.831,327.085 487.411,331.085 C 481.991,335.085 479.281,335.085 473.861,331.085 L 473.861,307.085"/>
    <text font-size="12.8" style="fill: #000000;text-anchor:middle;font-family:monospace;font-style:normal;font-weight:normal" x="487.411" y="320.285">
      <tspan x="487.411" y="320.285">PAD</tspan>
    </text>
  </g>
  <g>
    <path style="fill: #ffffff" d="M 477.109 339.642 L 496.509,339.642 L 496.509,363.642 C 492.629,359.642 490.689,359.642 486.809,363.642 C 482.929,367.642 480.989,367.642 477.109,363.642 L 477.109,339.642z"/>
    <path style="fill: none; fill-opacity:0; stroke-width: 0.02; stroke: #000000" d="M 477.109 339.642 L 496.509,339.642 L 496.509,363.642 C 492.629,359.642 490.689,359.642 486.809,363.642 C 482.929,367.642 480.989,367.642 477.109,363.642 L 477.109,339.642"/>
    <text font-size="12.8" style="fill: #000000;text-anchor:middle;font-family:monospace;font-style:normal;font-weight:normal" x="486.809" y="352.842">
      <tspan x="486.809" y="352.842">10</tspan>
    </text>
  </g>
  <g>
    <rect style="fill: none; fill-opacity:0; stroke-width: 2; stroke: #000000" x="61.6965" y="112.866" width="700.203" height="38"/>
    <text font-size="12.8" style="fill: #000000;text-anchor:middle;font-family:monospace;font-style:normal;font-weight:normal" x="411.798" y="134.516">
      <tspan x="411.798" y="134.516"></tspan>
    </text>
  </g>
</svg>
