<?xml version="1.0" encoding="UTF-8" standalone="no"?>
<!DOCTYPE svg PUBLIC "-//W3C//DTD SVG 1.0//EN" "http://www.w3.org/TR/2001/PR-SVG-20010719/DTD/svg10.dtd">
<svg width="34cm" height="16cm" viewBox="398 177 680 304" xmlns="http://www.w3.org/2000/svg" xmlns:xlink="http://www.w3.org/1999/xlink">
  <g>
    <rect style="fill: #ffffff" x="400.341" y="301.464" width="639.405" height="74.0923"/>
    <rect style="fill: none; fill-opacity:0; stroke-width: 2; stroke: #000000" x="400.341" y="301.464" width="639.405" height="74.0923"/>
    <text font-size="12.8" style="fill: #000000;text-anchor:middle;font-family:monospace;font-style:normal;font-weight:normal" x="720.044" y="341.16">
      <tspan x="720.044" y="341.16"></tspan>
    </text>
  </g>
  <g>
    <path style="fill: #ffffff" d="M 424.855 302.485 L 461.655,302.485 L 461.655,367.285 C 454.295,356.485 450.615,356.485 443.255,367.285 C 435.895,378.085 432.215,378.085 424.855,367.285 L 424.855,302.485z"/>
    <path style="fill: none; fill-opacity:0; stroke-width: 2.35099e-037; stroke: #000000" d="M 424.855 302.485 L 461.655,302.485 L 461.655,367.285 C 454.295,356.485 450.615,356.485 443.255,367.285 C 435.895,378.085 432.215,378.085 424.855,367.285 L 424.855,302.485"/>
    <text font-size="12.8" style="fill: #000000;text-anchor:middle;font-family:monospace;font-style:normal;font-weight:normal" x="443.255" y="316.685">
      <tspan x="443.255" y="316.685">4位</tspan>
      <tspan x="443.255" y="332.685">IGMP</tspan>
      <tspan x="443.255" y="348.685">版本</tspan>
    </text>
  </g>
  <g>
    <path style="fill: #ffffff" d="M 483.015 302.163 L 553.115,302.163 L 553.115,366.963 C 539.095,356.163 532.085,356.163 518.065,366.963 C 504.045,377.763 497.035,377.763 483.015,366.963 L 483.015,302.163z"/>
    <path style="fill: none; fill-opacity:0; stroke-width: 2.35099e-037; stroke: #000000" d="M 483.015 302.163 L 553.115,302.163 L 553.115,366.963 C 539.095,356.163 532.085,356.163 518.065,366.963 C 504.045,377.763 497.035,377.763 483.015,366.963 L 483.015,302.163"/>
    <text font-size="12.8" style="fill: #000000;text-anchor:middle;font-family:monospace;font-style:normal;font-weight:normal" x="518.065" y="316.363">
      <tspan x="518.065" y="316.363">4位</tspan>
      <tspan x="518.065" y="332.363">IGMP</tspan>
      <tspan x="518.065" y="348.363">类型(1-2)</tspan>
    </text>
  </g>
  <g>
    <path style="fill: #ffffff" d="M 622.366 303.147 L 656.616,303.147 L 656.616,365.547 C 649.766,355.147 646.341,355.147 639.491,365.547 C 632.641,375.947 629.216,375.947 622.366,365.547 L 622.366,303.147z"/>
    <path style="fill: none; fill-opacity:0; stroke-width: 2.35099e-037; stroke: #000000" d="M 622.366 303.147 L 656.616,303.147 L 656.616,365.547 C 649.766,355.147 646.341,355.147 639.491,365.547 C 632.641,375.947 629.216,375.947 622.366,365.547 L 622.366,303.147"/>
    <text font-size="12.8" style="fill: #000000;text-anchor:middle;font-family:monospace;font-style:normal;font-weight:normal" x="639.491" y="332.347">
      <tspan x="639.491" y="332.347">未用</tspan>
    </text>
  </g>
  <g>
    <path style="fill: #ffffff" d="M 858.604 304.853 L 903.004,304.853 L 903.004,367.253 C 894.124,356.853 889.684,356.853 880.804,367.253 C 871.924,377.653 867.484,377.653 858.604,367.253 L 858.604,304.853z"/>
    <path style="fill: none; fill-opacity:0; stroke-width: 2.35099e-037; stroke: #000000" d="M 858.604 304.853 L 903.004,304.853 L 903.004,367.253 C 894.124,356.853 889.684,356.853 880.804,367.253 C 871.924,377.653 867.484,377.653 858.604,367.253 L 858.604,304.853"/>
    <text font-size="12.8" style="fill: #000000;text-anchor:middle;font-family:monospace;font-style:normal;font-weight:normal" x="880.804" y="334.053">
      <tspan x="880.804" y="334.053">校验和</tspan>
    </text>
  </g>
  <g>
    <path style="fill: #ffffff" d="M 657.6 451.016 L 784,451.016 L 784,477.416 C 758.72,473.016 746.08,473.016 720.8,477.416 C 695.52,481.816 682.88,481.816 657.6,477.416 L 657.6,451.016z"/>
    <path style="fill: none; fill-opacity:0; stroke-width: 2.35099e-037; stroke: #000000" d="M 657.6 451.016 L 784,451.016 L 784,477.416 C 758.72,473.016 746.08,473.016 720.8,477.416 C 695.52,481.816 682.88,481.816 657.6,477.416 L 657.6,451.016"/>
    <text font-size="12.8" style="fill: #000000;text-anchor:middle;font-family:monospace;font-style:normal;font-weight:700" x="720.8" y="464.416">
      <tspan x="720.8" y="464.416">IGMP报文的字段格式</tspan>
    </text>
  </g>
  <line style="fill: none; fill-opacity:0; stroke-width: 2; stroke: #000000" x1="719.275" y1="302.901" x2="719.275" y2="374.373"/>
  <g>
    <path style="fill: none; fill-opacity:0; stroke-width: 1; stroke-linecap: round; stroke: #000000" d="M 402.431 279.77 C 401.806,279.77 401.259,280.239 400.946,281.098 C 400.477,282.036 400.321,283.208 400.399,284.692 C 400.321,286.255 400.477,287.505 400.946,288.364 C 401.259,289.301 401.806,289.77 402.431,289.692 C 403.056,289.77 403.524,289.301 403.915,288.364 C 404.227,287.505 404.384,286.255 404.462,284.692 C 404.384,283.208 404.227,282.036 403.915,281.098 C 403.524,280.239 403.056,279.77 402.431,279.77 L 402.431,279.77"/>
    <path style="fill: none; fill-opacity:0; stroke-width: 1; stroke-linecap: round; stroke: #000000" d="M 402.431 290.161 C 401.493,290.239 400.712,289.77 400.165,288.755 C 399.462,287.895 399.149,286.489 399.227,284.692 C 399.149,283.13 399.462,281.88 400.087,280.786 C 400.712,279.848 401.493,279.301 402.431,279.223 C 403.368,279.301 404.071,279.77 404.696,280.708 C 405.243,281.645 405.556,282.973 405.634,284.692 C 405.556,286.411 405.243,287.817 404.696,288.755 C 404.071,289.77 403.368,290.239 402.431,290.161 L 402.431,290.161"/>
  </g>
  <path style="fill: none; fill-opacity:0; stroke-width: 1; stroke-linecap: round; stroke: #000000" d="M 554.982 283.215 C 554.122,284.7 553.419,286.028 552.95,287.356 C 552.403,288.762 552.169,289.934 552.169,290.872 C 552.169,291.028 552.169,291.262 552.169,291.575 C 552.169,291.887 552.169,292.278 552.169,292.668 C 552.169,293.059 552.091,293.293 552.013,293.372 C 551.857,293.528 551.7,293.606 551.544,293.528 C 551.31,293.606 551.153,293.528 550.997,293.372 C 550.841,293.293 550.763,293.059 550.763,292.59 C 550.763,291.809 550.919,290.793 551.31,289.622 C 551.622,288.528 552.56,286.575 554.122,283.684 L 550.997,283.684 C 550.528,283.762 550.138,283.918 549.903,284.153 C 549.591,284.465 549.435,284.856 549.357,285.403 L 548.966,285.403 L 549.357,282.747 L 554.982,282.747 L 554.982,283.215"/>
  <g>
    <path style="fill: none; fill-opacity:0; stroke-width: 1; stroke-linecap: round; stroke: #000000" d="M 564.506 291.028 C 564.427,291.731 564.662,292.278 565.131,292.668 C 565.521,293.137 566.068,293.372 566.849,293.293 C 567.552,293.372 568.099,293.137 568.49,292.668 C 568.802,292.278 569.037,291.809 569.037,291.106 C 569.037,290.637 568.724,290.09 568.256,289.543 C 567.709,289.075 567.006,288.606 566.068,288.137 C 565.521,288.528 565.131,288.997 564.896,289.465 C 564.584,290.012 564.427,290.481 564.506,291.028 L 564.506,291.028"/>
    <path style="fill: none; fill-opacity:0; stroke-width: 1; stroke-linecap: round; stroke: #000000" d="M 569.974 290.872 C 569.974,291.809 569.662,292.434 569.115,292.903 C 568.49,293.45 567.709,293.762 566.849,293.684 C 565.912,293.762 565.209,293.45 564.584,292.903 C 563.959,292.434 563.646,291.809 563.646,291.028 C 563.646,290.325 563.802,289.778 564.115,289.231 C 564.427,288.762 564.896,288.293 565.677,287.903 C 565.052,287.668 564.662,287.278 564.349,286.809 C 564.037,286.418 563.881,285.95 563.881,285.325 C 563.881,284.7 564.115,284.075 564.662,283.528 C 565.209,283.059 565.99,282.825 566.927,282.747 C 567.787,282.825 568.49,283.059 569.037,283.528 C 569.584,284.075 569.818,284.7 569.896,285.325 C 569.818,285.872 569.662,286.34 569.427,286.809 C 569.037,287.278 568.568,287.668 567.943,287.903 C 568.646,288.372 569.193,288.84 569.506,289.309 C 569.818,289.856 569.974,290.403 569.974,290.872 L 569.974,290.872"/>
    <path style="fill: none; fill-opacity:0; stroke-width: 1; stroke-linecap: round; stroke: #000000" d="M 569.037 285.403 C 569.037,284.856 568.802,284.387 568.49,283.918 C 568.099,283.528 567.631,283.293 566.927,283.215 C 566.146,283.293 565.521,283.528 565.209,283.84 C 564.818,284.309 564.662,284.7 564.74,285.168 C 564.662,285.637 564.896,286.106 565.443,286.497 C 565.912,286.965 566.615,287.356 567.474,287.668 C 567.943,287.434 568.334,287.122 568.646,286.731 C 568.881,286.418 569.037,285.95 569.037,285.403 L 569.037,285.403"/>
  </g>
  <g>
    <path style="fill: none; fill-opacity:0; stroke-width: 1; stroke-linecap: round; stroke: #000000" d="M 703.142 282.159 L 703.142,291.612 C 703.064,292.003 703.142,292.316 703.454,292.394 C 703.61,292.628 703.923,292.706 704.392,292.628 L 705.017,292.628 L 705.017,293.019 L 700.407,293.019 L 700.407,292.628 L 700.954,292.628 C 701.345,292.706 701.657,292.628 701.892,292.394 C 702.048,292.316 702.126,292.003 702.204,291.612 L 702.204,284.034 C 702.126,283.956 702.048,283.8 702.048,283.644 C 701.892,283.566 701.735,283.566 701.579,283.487 L 700.407,283.487 L 700.407,283.097 L 700.954,283.097 C 701.423,283.175 701.814,283.097 702.204,282.862 C 702.439,282.784 702.673,282.55 702.907,282.159 L 703.142,282.159"/>
    <path style="fill: none; fill-opacity:0; stroke-width: 1; stroke-linecap: round; stroke: #000000" d="M 710.876 286.144 C 711.579,286.222 712.204,286.534 712.829,287.081 C 713.298,287.706 713.61,288.487 713.61,289.425 C 713.61,290.597 713.298,291.534 712.829,292.159 C 712.204,292.862 711.423,293.175 710.407,293.097 C 709.548,293.175 708.845,292.941 708.376,292.472 C 707.751,292.081 707.517,291.534 707.517,290.909 C 707.517,290.675 707.595,290.519 707.751,290.284 C 707.907,290.128 708.064,289.972 708.298,289.972 C 708.532,289.972 708.689,290.05 708.767,290.206 C 708.845,290.362 708.923,290.519 708.923,290.597 C 708.923,290.909 708.845,291.144 708.767,291.222 C 708.61,291.456 708.532,291.612 708.61,291.691 C 708.532,292.081 708.767,292.316 709.157,292.472 C 709.548,292.706 709.939,292.784 710.485,292.706 C 711.032,292.784 711.579,292.55 711.97,291.925 C 712.282,291.456 712.439,290.675 712.517,289.581 C 712.439,288.8 712.282,288.097 712.048,287.55 C 711.657,287.081 711.189,286.847 710.642,286.769 C 710.095,286.847 709.704,286.925 709.392,287.003 C 709.079,287.237 708.767,287.55 708.532,288.097 L 707.985,288.019 L 708.298,282.316 L 713.376,282.316 L 713.22,283.253 L 708.689,283.253 L 708.454,287.394 C 708.845,286.847 709.235,286.534 709.626,286.378 C 710.017,286.3 710.407,286.222 710.876,286.144 L 710.876,286.144"/>
  </g>
  <g>
    <path style="fill: none; fill-opacity:0; stroke-width: 1; stroke-linecap: round; stroke: #000000" d="M 724.222 283.334 L 724.222,292.787 C 724.144,293.178 724.222,293.49 724.535,293.568 C 724.691,293.803 725.004,293.881 725.472,293.803 L 726.097,293.803 L 726.097,294.193 L 721.488,294.193 L 721.488,293.803 L 722.035,293.803 C 722.426,293.881 722.738,293.803 722.972,293.568 C 723.129,293.49 723.207,293.178 723.285,292.787 L 723.285,285.209 C 723.207,285.131 723.129,284.974 723.129,284.818 C 722.972,284.74 722.816,284.74 722.66,284.662 L 721.488,284.662 L 721.488,284.271 L 722.035,284.271 C 722.504,284.349 722.894,284.271 723.285,284.037 C 723.519,283.959 723.754,283.724 723.988,283.334 L 724.222,283.334"/>
    <path style="fill: none; fill-opacity:0; stroke-width: 1; stroke-linecap: round; stroke: #000000" d="M 729.613 289.896 C 729.535,291.224 729.769,292.24 730.238,292.865 C 730.707,293.646 731.254,293.959 731.879,293.881 C 732.504,293.959 732.972,293.724 733.285,293.178 C 733.597,292.787 733.754,291.928 733.754,290.599 C 733.754,289.818 733.519,289.193 733.207,288.724 C 732.816,288.334 732.426,288.099 731.957,288.021 C 731.41,288.099 730.941,288.256 730.629,288.412 C 730.16,288.724 729.847,289.193 729.613,289.896 L 729.613,289.896"/>
    <path style="fill: none; fill-opacity:0; stroke-width: 1; stroke-linecap: round; stroke: #000000" d="M 732.035 287.396 C 732.972,287.396 733.676,287.787 734.144,288.412 C 734.535,289.115 734.769,289.818 734.847,290.599 C 734.769,291.928 734.457,292.865 733.91,293.412 C 733.285,294.037 732.66,294.349 731.879,294.271 C 730.707,294.349 729.847,293.881 729.301,293.021 C 728.676,292.24 728.363,290.99 728.441,289.271 C 728.363,287.396 728.676,285.99 729.457,284.896 C 730.082,283.959 731.097,283.412 732.347,283.334 C 732.894,283.412 733.363,283.568 733.754,283.881 C 734.066,284.193 734.222,284.506 734.301,284.74 C 734.222,285.053 734.144,285.287 734.144,285.365 C 733.988,285.521 733.832,285.521 733.597,285.521 C 733.363,285.521 733.207,285.521 733.129,285.365 C 732.972,285.365 732.894,285.209 732.972,284.896 C 732.894,284.896 732.972,284.74 733.051,284.584 C 733.051,284.584 733.051,284.506 733.051,284.349 C 733.051,284.193 732.972,284.115 732.816,283.959 C 732.66,283.959 732.426,283.881 732.191,283.803 C 731.41,283.881 730.785,284.193 730.316,284.818 C 729.769,285.443 729.535,286.849 729.613,288.959 C 729.847,288.49 730.16,288.099 730.629,287.787 C 730.941,287.553 731.41,287.396 732.035,287.396 L 732.035,287.396"/>
  </g>
  <g>
    <path style="fill: none; fill-opacity:0; stroke-width: 1; stroke-linecap: round; stroke: #000000" d="M 866.185 285.559 C 866.107,284.856 865.951,284.309 865.717,283.84 C 865.326,283.528 864.857,283.293 864.232,283.215 C 863.685,283.293 863.217,283.45 862.904,283.606 C 862.513,283.918 862.357,284.231 862.435,284.622 C 862.357,284.934 862.435,285.168 862.67,285.247 C 862.67,285.559 862.748,285.715 862.826,285.793 C 862.748,286.028 862.67,286.184 862.67,286.262 C 862.513,286.418 862.357,286.497 862.201,286.418 C 861.888,286.497 861.732,286.418 861.576,286.184 C 861.42,286.106 861.342,285.872 861.42,285.481 C 861.342,284.7 861.654,283.997 862.357,283.45 C 862.904,283.059 863.529,282.825 864.31,282.747 C 865.248,282.825 866.029,283.059 866.576,283.528 C 866.967,284.075 867.201,284.7 867.279,285.403 C 867.201,285.95 867.045,286.497 866.888,286.965 C 866.576,287.512 866.263,287.981 865.873,288.372 C 864.545,289.543 863.607,290.481 863.06,291.184 C 862.357,291.965 861.967,292.434 861.888,292.668 L 865.56,292.668 C 865.951,292.668 866.263,292.59 866.498,292.278 C 866.732,292.043 866.888,291.575 867.045,290.872 L 867.435,290.872 L 867.045,293.606 L 861.185,293.606 L 861.185,292.747 C 861.342,292.434 861.654,291.965 862.201,291.34 C 862.67,290.872 863.373,290.168 864.154,289.309 C 864.857,288.606 865.326,287.903 865.717,287.278 C 865.951,286.653 866.107,286.106 866.185,285.559 L 866.185,285.559"/>
    <path style="fill: none; fill-opacity:0; stroke-width: 1; stroke-linecap: round; stroke: #000000" d="M 875.404 290.715 C 875.404,291.575 875.092,292.278 874.467,292.825 C 873.842,293.45 872.982,293.762 872.045,293.684 C 871.263,293.762 870.638,293.528 870.092,293.059 C 869.545,292.668 869.31,292.2 869.31,291.653 C 869.31,291.418 869.388,291.184 869.545,291.028 C 869.701,290.872 869.857,290.793 870.092,290.715 C 870.248,290.793 870.404,290.872 870.56,291.028 C 870.638,291.184 870.717,291.34 870.717,291.497 C 870.717,291.731 870.638,291.887 870.638,291.965 C 870.482,292.122 870.482,292.278 870.482,292.434 C 870.482,292.668 870.638,292.903 870.951,293.059 C 871.263,293.293 871.576,293.372 871.967,293.293 C 872.67,293.372 873.217,293.137 873.685,292.668 C 873.998,292.2 874.232,291.497 874.232,290.559 C 874.232,289.856 873.998,289.309 873.607,288.762 C 873.217,288.372 872.513,288.137 871.42,288.059 L 871.42,287.668 C 872.201,287.747 872.748,287.59 873.217,287.122 C 873.529,286.809 873.763,286.184 873.842,285.403 C 873.763,284.856 873.607,284.387 873.373,283.918 C 872.982,283.528 872.513,283.293 871.967,283.215 C 871.576,283.293 871.263,283.372 870.951,283.45 C 870.638,283.684 870.482,283.918 870.482,284.153 C 870.482,284.543 870.482,284.778 870.638,284.778 C 870.638,284.934 870.717,285.012 870.717,285.09 C 870.717,285.325 870.638,285.481 870.56,285.637 C 870.482,285.793 870.326,285.872 870.17,285.793 C 869.935,285.872 869.779,285.793 869.701,285.637 C 869.467,285.481 869.388,285.247 869.467,284.934 C 869.388,284.309 869.701,283.84 870.248,283.372 C 870.795,283.059 871.42,282.825 872.201,282.747 C 872.982,282.825 873.607,283.059 874.154,283.528 C 874.623,284.075 874.935,284.7 874.935,285.247 C 874.935,285.95 874.779,286.418 874.467,286.809 C 874.154,287.278 873.607,287.59 872.982,287.747 C 873.842,288.137 874.467,288.606 874.857,289.153 C 875.17,289.7 875.404,290.247 875.404,290.715 L 875.404,290.715"/>
  </g>
  <g>
    <path style="fill: none; fill-opacity:0; stroke-width: 1; stroke-linecap: round; stroke: #000000" d="M 889.615 286.733 C 889.537,286.03 889.381,285.483 889.146,285.015 C 888.756,284.702 888.287,284.468 887.662,284.39 C 887.115,284.468 886.646,284.624 886.334,284.78 C 885.943,285.093 885.787,285.405 885.865,285.796 C 885.787,286.108 885.865,286.343 886.099,286.421 C 886.099,286.733 886.177,286.89 886.256,286.968 C 886.177,287.202 886.099,287.358 886.099,287.437 C 885.943,287.593 885.787,287.671 885.631,287.593 C 885.318,287.671 885.162,287.593 885.006,287.358 C 884.849,287.28 884.771,287.046 884.849,286.655 C 884.771,285.874 885.084,285.171 885.787,284.624 C 886.334,284.233 886.959,283.999 887.74,283.921 C 888.677,283.999 889.459,284.233 890.006,284.702 C 890.396,285.249 890.631,285.874 890.709,286.577 C 890.631,287.124 890.474,287.671 890.318,288.14 C 890.006,288.687 889.693,289.155 889.302,289.546 C 887.974,290.718 887.037,291.655 886.49,292.358 C 885.787,293.14 885.396,293.608 885.318,293.843 L 888.99,293.843 C 889.381,293.843 889.693,293.765 889.927,293.452 C 890.162,293.218 890.318,292.749 890.474,292.046 L 890.865,292.046 L 890.474,294.78 L 884.615,294.78 L 884.615,293.921 C 884.771,293.608 885.084,293.14 885.631,292.515 C 886.099,292.046 886.802,291.343 887.584,290.483 C 888.287,289.78 888.756,289.077 889.146,288.452 C 889.381,287.827 889.537,287.28 889.615,286.733 L 889.615,286.733"/>
    <path style="fill: none; fill-opacity:0; stroke-width: 1; stroke-linecap: round; stroke: #000000" d="M 897.584 293.608 C 897.506,293.921 897.584,294.155 897.818,294.233 C 897.896,294.39 898.131,294.468 898.521,294.39 L 899.068,294.39 L 899.068,294.78 L 894.927,294.78 L 894.927,294.39 L 895.631,294.39 C 895.865,294.468 896.099,294.39 896.334,294.233 C 896.412,294.155 896.49,293.921 896.568,293.608 L 896.568,291.499 L 892.349,291.499 L 892.349,291.187 L 896.959,283.921 L 897.584,283.921 L 897.584,291.108 L 899.224,291.108 L 899.224,291.499 L 897.584,291.499 L 897.584,293.608"/>
    <path style="fill: none; fill-opacity:0; stroke-width: 1; stroke-linecap: round; stroke: #000000" d="M 896.49 285.483 L 892.896,291.108 L 896.568,291.108 L 896.568,285.483 L 896.49,285.483"/>
  </g>
  <g>
    <path style="fill: none; fill-opacity:0; stroke-width: 1; stroke-linecap: round; stroke: #000000" d="M 1032.46 293.064 C 1032.46,293.924 1032.15,294.627 1031.52,295.174 C 1030.9,295.799 1030.04,296.111 1029.1,296.033 C 1028.32,296.111 1027.7,295.877 1027.15,295.408 C 1026.6,295.017 1026.37,294.549 1026.37,294.002 C 1026.37,293.767 1026.45,293.533 1026.6,293.377 C 1026.76,293.22 1026.91,293.142 1027.15,293.064 C 1027.3,293.142 1027.46,293.22 1027.62,293.377 C 1027.7,293.533 1027.77,293.689 1027.77,293.845 C 1027.77,294.08 1027.7,294.236 1027.7,294.314 C 1027.54,294.47 1027.54,294.627 1027.54,294.783 C 1027.54,295.017 1027.7,295.252 1028.01,295.408 C 1028.32,295.642 1028.63,295.72 1029.02,295.642 C 1029.73,295.72 1030.27,295.486 1030.74,295.017 C 1031.05,294.549 1031.29,293.845 1031.29,292.908 C 1031.29,292.205 1031.05,291.658 1030.66,291.111 C 1030.27,290.72 1029.57,290.486 1028.48,290.408 L 1028.48,290.017 C 1029.26,290.095 1029.8,289.939 1030.27,289.47 C 1030.59,289.158 1030.82,288.533 1030.9,287.752 C 1030.82,287.205 1030.66,286.736 1030.43,286.267 C 1030.04,285.877 1029.57,285.642 1029.02,285.564 C 1028.63,285.642 1028.32,285.72 1028.01,285.799 C 1027.7,286.033 1027.54,286.267 1027.54,286.502 C 1027.54,286.892 1027.54,287.127 1027.7,287.127 C 1027.7,287.283 1027.77,287.361 1027.77,287.439 C 1027.77,287.674 1027.7,287.83 1027.62,287.986 C 1027.54,288.142 1027.38,288.22 1027.23,288.142 C 1026.99,288.22 1026.84,288.142 1026.76,287.986 C 1026.52,287.83 1026.45,287.595 1026.52,287.283 C 1026.45,286.658 1026.76,286.189 1027.3,285.72 C 1027.85,285.408 1028.48,285.174 1029.26,285.095 C 1030.04,285.174 1030.66,285.408 1031.21,285.877 C 1031.68,286.424 1031.99,287.049 1031.99,287.595 C 1031.99,288.299 1031.84,288.767 1031.52,289.158 C 1031.21,289.627 1030.66,289.939 1030.04,290.095 C 1030.9,290.486 1031.52,290.955 1031.91,291.502 C 1032.23,292.049 1032.46,292.595 1032.46,293.064 L 1032.46,293.064"/>
    <path style="fill: none; fill-opacity:0; stroke-width: 1; stroke-linecap: round; stroke: #000000" d="M 1037.93 285.095 L 1037.93,294.549 C 1037.85,294.939 1037.93,295.252 1038.24,295.33 C 1038.4,295.564 1038.71,295.642 1039.18,295.564 L 1039.8,295.564 L 1039.8,295.955 L 1035.2,295.955 L 1035.2,295.564 L 1035.74,295.564 C 1036.13,295.642 1036.45,295.564 1036.68,295.33 C 1036.84,295.252 1036.91,294.939 1036.99,294.549 L 1036.99,286.97 C 1036.91,286.892 1036.84,286.736 1036.84,286.58 C 1036.68,286.502 1036.52,286.502 1036.37,286.424 L 1035.2,286.424 L 1035.2,286.033 L 1035.74,286.033 C 1036.21,286.111 1036.6,286.033 1036.99,285.799 C 1037.23,285.72 1037.46,285.486 1037.7,285.095 L 1037.93,285.095"/>
  </g>
  <line style="fill: none; fill-opacity:0; stroke-width: 2; stroke: #000000" x1="478.653" y1="302.901" x2="478.653" y2="374.373"/>
  <line style="fill: none; fill-opacity:0; stroke-width: 2; stroke: #000000" x1="560.884" y1="302.901" x2="560.884" y2="374.373"/>
  <g>
    <rect style="fill: #ffffff" x="400.265" y="375.556" width="639.405" height="74.0923"/>
    <rect style="fill: none; fill-opacity:0; stroke-width: 2; stroke: #000000" x="400.265" y="375.556" width="639.405" height="74.0923"/>
    <text font-size="12.8" style="fill: #000000;text-anchor:middle;font-family:monospace;font-style:normal;font-weight:normal" x="719.967" y="415.252">
      <tspan x="719.967" y="415.252"></tspan>
    </text>
  </g>
  <g>
    <path style="fill: #ffffff" d="M 645.312 392.601 L 794.812,392.601 L 794.812,419.001 C 764.912,414.601 749.962,414.601 720.062,419.001 C 690.162,423.401 675.212,423.401 645.312,419.001 L 645.312,392.601z"/>
    <path style="fill: none; fill-opacity:0; stroke-width: 2.35099e-037; stroke: #000000" d="M 645.312 392.601 L 794.812,392.601 L 794.812,419.001 C 764.912,414.601 749.962,414.601 720.062,419.001 C 690.162,423.401 675.212,423.401 645.312,419.001 L 645.312,392.601"/>
    <text font-size="12.8" style="fill: #000000;text-anchor:middle;font-family:monospace;font-style:normal;font-weight:normal" x="720.062" y="406.801">
      <tspan x="720.062" y="406.801">32位组地址(D类IP地址)</tspan>
    </text>
  </g>
  <line style="fill: none; fill-opacity:0; stroke-width: 1; stroke: #000000" x1="403.244" y1="185.278" x2="403.244" y2="197.72"/>
  <line style="fill: none; fill-opacity:0; stroke-width: 1; stroke: #000000" x1="742.476" y1="185.534" x2="742.564" y2="202.117"/>
  <g>
    <path style="fill: #ffffff" d="M 540.078 177.946 L 605.728,177.946 L 605.728,201.946 C 592.598,197.946 586.033,197.946 572.903,201.946 C 559.773,205.946 553.208,205.946 540.078,201.946 L 540.078,177.946z"/>
    <path style="fill: none; fill-opacity:0; stroke-width: 0.02; stroke: #000000" d="M 540.078 177.946 L 605.728,177.946 L 605.728,201.946 C 592.598,197.946 586.033,197.946 572.903,201.946 C 559.773,205.946 553.208,205.946 540.078,201.946 L 540.078,177.946"/>
    <text font-size="12.8" style="fill: #000000;text-anchor:middle;font-family:monospace;font-style:normal;font-weight:normal" x="572.903" y="191.146">
      <tspan x="572.903" y="191.146">IP数据报</tspan>
    </text>
  </g>
  <g>
    <line style="fill: none; fill-opacity:0; stroke-width: 1; stroke: #000000" x1="540.088" y1="191.859" x2="413.744" y2="191.527"/>
    <polygon style="fill: #000000" points="413.758,186.527 403.744,191.5 413.731,196.527 "/>
    <polygon style="fill: none; fill-opacity:0; stroke-width: 1; stroke: #000000" points="413.758,186.527 403.744,191.5 413.731,196.527 "/>
  </g>
  <g>
    <line style="fill: none; fill-opacity:0; stroke-width: 1; stroke: #000000" x1="605.712" y1="191.909" x2="731.976" y2="191.767"/>
    <polygon style="fill: #000000" points="731.982,196.767 741.976,191.755 731.971,186.767 "/>
    <polygon style="fill: none; fill-opacity:0; stroke-width: 1; stroke: #000000" points="731.982,196.767 741.976,191.755 731.971,186.767 "/>
  </g>
  <g>
    <rect style="fill: #ffffff" x="402.534" y="202.117" width="340.029" height="38.9743"/>
    <rect style="fill: none; fill-opacity:0; stroke-width: 2; stroke: #000000" x="402.534" y="202.117" width="340.029" height="38.9743"/>
    <text font-size="12.8" style="fill: #000000;text-anchor:middle;font-family:monospace;font-style:normal;font-weight:normal" x="572.549" y="224.254">
      <tspan x="572.549" y="224.254"></tspan>
    </text>
  </g>
  <g>
    <path style="fill: #ffffff" d="M 415.674 208.03 L 460.674,208.03 L 460.674,232.03 C 451.674,228.03 447.174,228.03 438.174,232.03 C 429.174,236.03 424.674,236.03 415.674,232.03 L 415.674,208.03z"/>
    <path style="fill: none; fill-opacity:0; stroke-width: 0.02; stroke: #000000" d="M 415.674 208.03 L 460.674,208.03 L 460.674,232.03 C 451.674,228.03 447.174,228.03 438.174,232.03 C 429.174,236.03 424.674,236.03 415.674,232.03 L 415.674,208.03"/>
    <text font-size="12.8" style="fill: #000000;text-anchor:middle;font-family:monospace;font-style:normal;font-weight:normal" x="438.174" y="221.23">
      <tspan x="438.174" y="221.23">IP首部</tspan>
    </text>
  </g>
  <line style="fill: none; fill-opacity:0; stroke-width: 2; stroke: #000000" x1="482.876" y1="201.986" x2="482.876" y2="241.091"/>
  <g>
    <path style="fill: #ffffff" d="M 541.288 207.674 L 601.688,207.674 L 601.688,231.674 C 589.608,227.674 583.568,227.674 571.488,231.674 C 559.408,235.674 553.368,235.674 541.288,231.674 L 541.288,207.674z"/>
    <path style="fill: none; fill-opacity:0; stroke-width: 0.02; stroke: #000000" d="M 541.288 207.674 L 601.688,207.674 L 601.688,231.674 C 589.608,227.674 583.568,227.674 571.488,231.674 C 559.408,235.674 553.368,235.674 541.288,231.674 L 541.288,207.674"/>
    <text font-size="12.8" style="fill: #000000;text-anchor:middle;font-family:monospace;font-style:normal;font-weight:normal" x="571.488" y="220.874">
      <tspan x="571.488" y="220.874">IGMP报文</tspan>
    </text>
  </g>
  <g>
    <path style="fill: #ffffff" d="M 487.03 242.192 L 652.43,242.192 L 652.43,266.192 C 619.35,262.192 602.81,262.192 569.73,266.192 C 536.65,270.192 520.11,270.192 487.03,266.192 L 487.03,242.192z"/>
    <path style="fill: none; fill-opacity:0; stroke-width: 0.02; stroke: #000000" d="M 487.03 242.192 L 652.43,242.192 L 652.43,266.192 C 619.35,262.192 602.81,262.192 569.73,266.192 C 536.65,270.192 520.11,270.192 487.03,266.192 L 487.03,242.192"/>
    <text font-size="12.8" style="fill: #000000;text-anchor:middle;font-family:monospace;font-style:normal;font-weight:700" x="569.73" y="254.592">
      <tspan x="569.73" y="254.592">IGMP封装在IP数据报文内部</tspan>
    </text>
  </g>
  <line style="fill: none; fill-opacity:0; stroke-width: 1; stroke: #000000" x1="1052.94" y1="451.232" x2="1067.56" y2="451.232"/>
  <line style="fill: none; fill-opacity:0; stroke-width: 1; stroke: #000000" x1="1053.03" y1="299.862" x2="1067.65" y2="299.862"/>
  <g>
    <path style="fill: #ffffff" d="M 1041.92 355.085 L 1078.52,355.085 L 1078.52,387.988 C 1071.2,382.505 1067.54,382.505 1060.22,387.988 C 1052.9,393.472 1049.24,393.472 1041.92,387.988 L 1041.92,355.085z"/>
    <path style="fill: none; fill-opacity:0; stroke-width: 0.02; stroke: #000000" d="M 1041.92 355.085 L 1078.52,355.085 L 1078.52,387.988 C 1071.2,382.505 1067.54,382.505 1060.22,387.988 C 1052.9,393.472 1049.24,393.472 1041.92,387.988 L 1041.92,355.085"/>
    <text font-size="12.8" style="fill: #000000;text-anchor:middle;font-family:sans-serif;font-style:normal;font-weight:normal" x="1060.22" y="373.595">
      <tspan x="1060.22" y="373.595">8字节</tspan>
    </text>
  </g>
  <g>
    <line style="fill: none; fill-opacity:0; stroke-width: 1; stroke: #000000" x1="1060.22" y1="355.085" x2="1060.32" y2="310.362"/>
    <polygon style="fill: #000000" points="1065.32,310.373 1060.34,300.362 1055.32,310.351 "/>
    <polygon style="fill: none; fill-opacity:0; stroke-width: 1; stroke: #000000" points="1065.32,310.373 1060.34,300.362 1055.32,310.351 "/>
  </g>
  <g>
    <line style="fill: none; fill-opacity:0; stroke-width: 1; stroke: #000000" x1="1060.22" y1="387.975" x2="1060.24" y2="440.732"/>
    <polygon style="fill: #000000" points="1055.24,440.734 1060.25,450.732 1065.24,440.731 "/>
    <polygon style="fill: none; fill-opacity:0; stroke-width: 1; stroke: #000000" points="1055.24,440.734 1060.25,450.732 1065.24,440.731 "/>
  </g>
</svg>
