<?xml version="1.0" encoding="UTF-8" standalone="no"?>
<!DOCTYPE svg PUBLIC "-//W3C//DTD SVG 1.0//EN" "http://www.w3.org/TR/2001/PR-SVG-20010719/DTD/svg10.dtd">
<svg width="58cm" height="32cm" viewBox="6 -141 1157 623" xmlns="http://www.w3.org/2000/svg" xmlns:xlink="http://www.w3.org/1999/xlink">
  <g>
    <rect style="fill: #ffffff" x="57.3373" y="117.591" width="79.1613" height="38"/>
    <rect style="fill: none; fill-opacity:0; stroke-width: 2; stroke: #000000" x="57.3373" y="117.591" width="79.1613" height="38"/>
    <text font-size="12.8" style="fill: #000000;text-anchor:middle;font-family:monospace;font-style:normal;font-weight:normal" x="96.9179" y="139.591">
      <tspan x="96.9179" y="139.591">接口卡</tspan>
    </text>
  </g>
  <g>
    <rect style="fill: #ffffff" x="57.3094" y="24.5423" width="79.1892" height="54"/>
    <rect style="fill: none; fill-opacity:0; stroke-width: 2; stroke: #000000" x="57.3094" y="24.5423" width="79.1892" height="54"/>
    <text font-size="12.8" style="fill: #000000;text-anchor:middle;font-family:monospace;font-style:normal;font-weight:normal" x="96.904" y="46.5423">
      <tspan x="96.904" y="46.5423">设备驱</tspan>
      <tspan x="96.904" y="62.5423">动程序</tspan>
    </text>
  </g>
  <g>
    <rect style="fill: #ffffff" x="57.4531" y="-139.353" width="79.5754" height="38"/>
    <rect style="fill: none; fill-opacity:0; stroke-width: 2; stroke: #000000" x="57.4531" y="-139.353" width="79.5754" height="38"/>
    <text font-size="12.8" style="fill: #000000;text-anchor:middle;font-family:monospace;font-style:normal;font-weight:normal" x="97.2408" y="-117.703">
      <tspan x="97.2408" y="-117.703">IP</tspan>
    </text>
  </g>
  <g>
    <rect style="fill: #ffffff" x="57.5214" y="-57.5465" width="79.5071" height="38"/>
    <rect style="fill: none; fill-opacity:0; stroke-width: 2; stroke: #000000" x="57.5214" y="-57.5465" width="79.5071" height="38"/>
    <text font-size="12.8" style="fill: #000000;text-anchor:middle;font-family:monospace;font-style:normal;font-weight:normal" x="97.275" y="-35.8965">
      <tspan x="97.275" y="-35.8965">UDP</tspan>
    </text>
  </g>
  <line style="fill: none; fill-opacity:0; stroke-width: 4; stroke: #000000" x1="17.101" y1="201.374" x2="176.848" y2="201.608"/>
  <g>
    <line style="fill: none; fill-opacity:0; stroke-width: 2; stroke: #000000" x1="96.9746" y1="201.491" x2="96.945" y2="167.595"/>
    <polygon style="fill: #000000" points="101.945,167.59 96.9363,157.595 91.945,167.599 "/>
    <polygon style="fill: none; fill-opacity:0; stroke-width: 2; stroke: #000000" points="101.945,167.59 96.9363,157.595 91.945,167.599 "/>
  </g>
  <g>
    <line style="fill: none; fill-opacity:0; stroke-width: 2; stroke: #000000" x1="96.9147" y1="116.616" x2="96.9104" y2="90.5422"/>
    <polygon style="fill: #000000" points="101.91,90.5414 96.9087,80.5422 91.9104,90.543 "/>
    <polygon style="fill: none; fill-opacity:0; stroke-width: 2; stroke: #000000" points="101.91,90.5414 96.9087,80.5422 91.9104,90.543 "/>
  </g>
  <g>
    <line style="fill: none; fill-opacity:0; stroke-width: 2; stroke: #000000" x1="97.0193" y1="23.538" x2="97.1473" y2="-7.55375"/>
    <polygon style="fill: #000000" points="102.147,-7.53316 97.1885,-17.5537 92.1474,-7.57434 "/>
    <polygon style="fill: none; fill-opacity:0; stroke-width: 2; stroke: #000000" points="102.147,-7.53316 97.1885,-17.5537 92.1474,-7.57434 "/>
  </g>
  <g>
    <line style="fill: none; fill-opacity:0; stroke-width: 2; stroke: #000000" x1="97.2666" y1="-58.5387" x2="97.2538" y2="-89.3605"/>
    <polygon style="fill: #000000" points="102.254,-89.3626 97.2496,-99.3605 92.2538,-89.3585 "/>
    <polygon style="fill: none; fill-opacity:0; stroke-width: 2; stroke: #000000" points="102.254,-89.3626 97.2496,-99.3605 92.2538,-89.3585 "/>
  </g>
  <g>
    <path style="fill: #ffffff" d="M 6.8065 213.301 L 190.707,213.301 L 190.707,237.301 C 153.927,233.301 135.537,233.301 98.7565,237.301 C 61.9765,241.301 43.5865,241.301 6.8065,237.301 L 6.8065,213.301z"/>
    <path style="fill: none; fill-opacity:0; stroke-width: 0.02; stroke: #000000" d="M 6.8065 213.301 L 190.707,213.301 L 190.707,237.301 C 153.927,233.301 135.537,233.301 98.7565,237.301 C 61.9765,241.301 43.5865,241.301 6.8065,237.301 L 6.8065,213.301"/>
    <text font-size="12.8" style="fill: #000000;text-anchor:middle;font-family:monospace;font-style:normal;font-weight:700" x="98.7565" y="225.701">
      <tspan x="98.7565" y="225.701">协议栈各层对收到帧的过滤过程</tspan>
    </text>
  </g>
  <g>
    <rect style="fill: #ffffff" x="199.318" y="161.326" width="959.346" height="38"/>
    <rect style="fill: none; fill-opacity:0; stroke-width: 2; stroke: #000000" x="199.318" y="161.326" width="959.346" height="38"/>
    <text font-size="12.8" style="fill: #000000;text-anchor:middle;font-family:monospace;font-style:normal;font-weight:normal" x="678.991" y="182.976">
      <tspan x="678.991" y="182.976"></tspan>
    </text>
  </g>
  <path style="fill: none; fill-opacity:0; stroke-width: 1; stroke-linecap: round; stroke: #000000" d="M 349.707 175.305 L 349.707,184.759 C 349.629,185.149 349.707,185.462 350.02,185.54 C 350.176,185.774 350.488,185.852 350.957,185.774 L 351.582,185.774 L 351.582,186.165 L 346.973,186.165 L 346.973,185.774 L 347.52,185.774 C 347.91,185.852 348.223,185.774 348.457,185.54 C 348.613,185.462 348.692,185.149 348.77,184.759 L 348.77,177.18 C 348.692,177.102 348.613,176.946 348.613,176.79 C 348.457,176.712 348.301,176.712 348.145,176.634 L 346.973,176.634 L 346.973,176.243 L 347.52,176.243 C 347.988,176.321 348.379,176.243 348.77,176.009 C 349.004,175.93 349.238,175.696 349.473,175.305 L 349.707,175.305"/>
  <g>
    <path style="fill: none; fill-opacity:0; stroke-width: 1; stroke-linecap: round; stroke: #000000" d="M 208.637 176.681 C 208.012,176.681 207.465,177.15 207.153,178.009 C 206.684,178.947 206.528,180.119 206.606,181.603 C 206.528,183.166 206.684,184.416 207.153,185.275 C 207.465,186.213 208.012,186.681 208.637,186.603 C 209.262,186.681 209.731,186.213 210.122,185.275 C 210.434,184.416 210.59,183.166 210.669,181.603 C 210.59,180.119 210.434,178.947 210.122,178.009 C 209.731,177.15 209.262,176.681 208.637,176.681 L 208.637,176.681"/>
    <path style="fill: none; fill-opacity:0; stroke-width: 1; stroke-linecap: round; stroke: #000000" d="M 208.637 187.072 C 207.7,187.15 206.919,186.681 206.372,185.666 C 205.669,184.806 205.356,183.4 205.434,181.603 C 205.356,180.041 205.669,178.791 206.294,177.697 C 206.919,176.759 207.7,176.213 208.637,176.134 C 209.575,176.213 210.278,176.681 210.903,177.619 C 211.45,178.556 211.762,179.884 211.84,181.603 C 211.762,183.322 211.45,184.728 210.903,185.666 C 210.278,186.681 209.575,187.15 208.637,187.072 L 208.637,187.072"/>
  </g>
  <line style="fill: none; fill-opacity:0; stroke-width: 2; stroke: #000000" x1="358.627" y1="161.759" x2="358.627" y2="200.101"/>
  <line style="fill: none; fill-opacity:0; stroke-width: 2; stroke: #000000" x1="518.68" y1="160.842" x2="518.68" y2="199.184"/>
  <line style="fill: none; fill-opacity:0; stroke-width: 2; stroke: #000000" x1="680.155" y1="160.577" x2="680.155" y2="198.919"/>
  <line style="fill: none; fill-opacity:0; stroke-width: 2; stroke: #000000" x1="839.438" y1="160.577" x2="839.438" y2="198.919"/>
  <line style="fill: none; fill-opacity:0; stroke-width: 2; stroke: #000000" x1="1000.41" y1="161.344" x2="1000.41" y2="199.685"/>
  <line style="fill: none; fill-opacity:0; stroke-width: 2; stroke: #000000" x1="218.34" y1="194.796" x2="218.33" y2="198.956"/>
  <line style="fill: none; fill-opacity:0; stroke-width: 2; stroke: #000000" x1="238.306" y1="194.917" x2="238.296" y2="199.077"/>
  <line style="fill: none; fill-opacity:0; stroke-width: 2; stroke: #000000" x1="258.595" y1="194.979" x2="258.585" y2="199.139"/>
  <line style="fill: none; fill-opacity:0; stroke-width: 2; stroke: #000000" x1="279.151" y1="194.979" x2="279.14" y2="199.139"/>
  <line style="fill: none; fill-opacity:0; stroke-width: 2; stroke: #000000" x1="298.912" y1="194.979" x2="298.902" y2="199.139"/>
  <line style="fill: none; fill-opacity:0; stroke-width: 2; stroke: #000000" x1="318.969" y1="194.683" x2="318.959" y2="198.843"/>
  <line style="fill: none; fill-opacity:0; stroke-width: 2; stroke: #000000" x1="339.026" y1="195.274" x2="339.016" y2="199.434"/>
  <g>
    <path style="fill: none; fill-opacity:0; stroke-width: 1; stroke-linecap: round; stroke: #000000" d="M 227.814 176.709 C 227.189,176.709 226.642,177.178 226.329,178.037 C 225.861,178.975 225.704,180.146 225.782,181.631 C 225.704,183.193 225.861,184.443 226.329,185.303 C 226.642,186.24 227.189,186.709 227.814,186.631 C 228.439,186.709 228.907,186.24 229.298,185.303 C 229.611,184.443 229.767,183.193 229.845,181.631 C 229.767,180.146 229.611,178.975 229.298,178.037 C 228.907,177.178 228.439,176.709 227.814,176.709 L 227.814,176.709"/>
    <path style="fill: none; fill-opacity:0; stroke-width: 1; stroke-linecap: round; stroke: #000000" d="M 227.814 187.1 C 226.876,187.178 226.095,186.709 225.548,185.693 C 224.845,184.834 224.532,183.428 224.611,181.631 C 224.532,180.068 224.845,178.818 225.47,177.725 C 226.095,176.787 226.876,176.24 227.814,176.162 C 228.751,176.24 229.454,176.709 230.079,177.646 C 230.626,178.584 230.939,179.912 231.017,181.631 C 230.939,183.35 230.626,184.756 230.079,185.693 C 229.454,186.709 228.751,187.178 227.814,187.1 L 227.814,187.1"/>
  </g>
  <g>
    <path style="fill: none; fill-opacity:0; stroke-width: 1; stroke-linecap: round; stroke: #000000" d="M 249.082 177.3 C 248.457,177.3 247.91,177.768 247.598,178.628 C 247.129,179.565 246.973,180.737 247.051,182.222 C 246.973,183.784 247.129,185.034 247.598,185.893 C 247.91,186.831 248.457,187.3 249.082,187.222 C 249.707,187.3 250.176,186.831 250.566,185.893 C 250.879,185.034 251.035,183.784 251.113,182.222 C 251.035,180.737 250.879,179.565 250.566,178.628 C 250.176,177.768 249.707,177.3 249.082,177.3 L 249.082,177.3"/>
    <path style="fill: none; fill-opacity:0; stroke-width: 1; stroke-linecap: round; stroke: #000000" d="M 249.082 187.69 C 248.144,187.768 247.363,187.3 246.816,186.284 C 246.113,185.425 245.801,184.018 245.879,182.222 C 245.801,180.659 246.113,179.409 246.738,178.315 C 247.363,177.378 248.144,176.831 249.082,176.753 C 250.019,176.831 250.723,177.3 251.348,178.237 C 251.894,179.175 252.207,180.503 252.285,182.222 C 252.207,183.94 251.894,185.347 251.348,186.284 C 250.723,187.3 250.019,187.768 249.082,187.69 L 249.082,187.69"/>
  </g>
  <g>
    <path style="fill: none; fill-opacity:0; stroke-width: 1; stroke-linecap: round; stroke: #000000" d="M 269.169 176.414 C 268.544,176.414 267.997,176.882 267.684,177.742 C 267.215,178.679 267.059,179.851 267.137,181.335 C 267.059,182.898 267.215,184.148 267.684,185.007 C 267.997,185.945 268.544,186.414 269.169,186.335 C 269.794,186.414 270.262,185.945 270.653,185.007 C 270.965,184.148 271.122,182.898 271.2,181.335 C 271.122,179.851 270.965,178.679 270.653,177.742 C 270.262,176.882 269.794,176.414 269.169,176.414 L 269.169,176.414"/>
    <path style="fill: none; fill-opacity:0; stroke-width: 1; stroke-linecap: round; stroke: #000000" d="M 269.169 186.804 C 268.231,186.882 267.45,186.414 266.903,185.398 C 266.2,184.539 265.887,183.132 265.965,181.335 C 265.887,179.773 266.2,178.523 266.825,177.429 C 267.45,176.492 268.231,175.945 269.169,175.867 C 270.106,175.945 270.809,176.414 271.434,177.351 C 271.981,178.289 272.294,179.617 272.372,181.335 C 272.294,183.054 271.981,184.46 271.434,185.398 C 270.809,186.414 270.106,186.882 269.169,186.804 L 269.169,186.804"/>
  </g>
  <g>
    <path style="fill: none; fill-opacity:0; stroke-width: 1; stroke-linecap: round; stroke: #000000" d="M 290.141 176.709 C 289.516,176.709 288.969,177.178 288.657,178.037 C 288.188,178.975 288.032,180.146 288.11,181.631 C 288.032,183.193 288.188,184.443 288.657,185.303 C 288.969,186.24 289.516,186.709 290.141,186.631 C 290.766,186.709 291.235,186.24 291.626,185.303 C 291.938,184.443 292.094,183.193 292.173,181.631 C 292.094,180.146 291.938,178.975 291.626,178.037 C 291.235,177.178 290.766,176.709 290.141,176.709 L 290.141,176.709"/>
    <path style="fill: none; fill-opacity:0; stroke-width: 1; stroke-linecap: round; stroke: #000000" d="M 290.141 187.1 C 289.204,187.178 288.423,186.709 287.876,185.693 C 287.173,184.834 286.86,183.428 286.938,181.631 C 286.86,180.068 287.173,178.818 287.798,177.725 C 288.423,176.787 289.204,176.24 290.141,176.162 C 291.079,176.24 291.782,176.709 292.407,177.646 C 292.954,178.584 293.266,179.912 293.344,181.631 C 293.266,183.35 292.954,184.756 292.407,185.693 C 291.782,186.709 291.079,187.178 290.141,187.1 L 290.141,187.1"/>
  </g>
  <g>
    <path style="fill: none; fill-opacity:0; stroke-width: 1; stroke-linecap: round; stroke: #000000" d="M 309.608 176.118 C 308.983,176.118 308.436,176.587 308.123,177.446 C 307.655,178.384 307.498,179.556 307.576,181.04 C 307.498,182.603 307.655,183.853 308.123,184.712 C 308.436,185.649 308.983,186.118 309.608,186.04 C 310.233,186.118 310.701,185.649 311.092,184.712 C 311.405,183.853 311.561,182.603 311.639,181.04 C 311.561,179.556 311.405,178.384 311.092,177.446 C 310.701,176.587 310.233,176.118 309.608,176.118 L 309.608,176.118"/>
    <path style="fill: none; fill-opacity:0; stroke-width: 1; stroke-linecap: round; stroke: #000000" d="M 309.608 186.509 C 308.67,186.587 307.889,186.118 307.342,185.103 C 306.639,184.243 306.326,182.837 306.405,181.04 C 306.326,179.478 306.639,178.228 307.264,177.134 C 307.889,176.196 308.67,175.649 309.608,175.571 C 310.545,175.649 311.248,176.118 311.873,177.056 C 312.42,177.993 312.733,179.321 312.811,181.04 C 312.733,182.759 312.42,184.165 311.873,185.103 C 311.248,186.118 310.545,186.587 309.608,186.509 L 309.608,186.509"/>
  </g>
  <g>
    <path style="fill: none; fill-opacity:0; stroke-width: 1; stroke-linecap: round; stroke: #000000" d="M 329.369 175.823 C 328.744,175.823 328.197,176.292 327.885,177.151 C 327.416,178.088 327.26,179.26 327.338,180.745 C 327.26,182.307 327.416,183.557 327.885,184.417 C 328.197,185.354 328.744,185.823 329.369,185.745 C 329.994,185.823 330.463,185.354 330.854,184.417 C 331.166,183.557 331.322,182.307 331.401,180.745 C 331.322,179.26 331.166,178.088 330.854,177.151 C 330.463,176.292 329.994,175.823 329.369,175.823 L 329.369,175.823"/>
    <path style="fill: none; fill-opacity:0; stroke-width: 1; stroke-linecap: round; stroke: #000000" d="M 329.369 186.213 C 328.432,186.292 327.651,185.823 327.104,184.807 C 326.401,183.948 326.088,182.542 326.166,180.745 C 326.088,179.182 326.401,177.932 327.026,176.838 C 327.651,175.901 328.432,175.354 329.369,175.276 C 330.307,175.354 331.01,175.823 331.635,176.76 C 332.182,177.698 332.494,179.026 332.572,180.745 C 332.494,182.463 332.182,183.87 331.635,184.807 C 331.01,185.823 330.307,186.292 329.369,186.213 L 329.369,186.213"/>
  </g>
  <g>
    <path style="fill: none; fill-opacity:0; stroke-width: 1; stroke-linecap: round; stroke: #000000" d="M 368.42 176.074 C 367.795,176.074 367.248,176.543 366.936,177.403 C 366.467,178.34 366.311,179.512 366.389,180.996 C 366.311,182.559 366.467,183.809 366.936,184.668 C 367.248,185.606 367.795,186.074 368.42,185.996 C 369.045,186.074 369.514,185.606 369.904,184.668 C 370.217,183.809 370.373,182.559 370.451,180.996 C 370.373,179.512 370.217,178.34 369.904,177.403 C 369.514,176.543 369.045,176.074 368.42,176.074 L 368.42,176.074"/>
    <path style="fill: none; fill-opacity:0; stroke-width: 1; stroke-linecap: round; stroke: #000000" d="M 368.42 186.465 C 367.483,186.543 366.701,186.074 366.154,185.059 C 365.451,184.199 365.139,182.793 365.217,180.996 C 365.139,179.434 365.451,178.184 366.076,177.09 C 366.701,176.153 367.483,175.606 368.42,175.528 C 369.358,175.606 370.061,176.074 370.686,177.012 C 371.233,177.949 371.545,179.278 371.623,180.996 C 371.545,182.715 371.233,184.121 370.686,185.059 C 370.061,186.074 369.358,186.543 368.42,186.465 L 368.42,186.465"/>
  </g>
  <line style="fill: none; fill-opacity:0; stroke-width: 2; stroke: #000000" x1="378.123" y1="194.189" x2="378.112" y2="198.349"/>
  <line style="fill: none; fill-opacity:0; stroke-width: 2; stroke: #000000" x1="398.089" y1="194.31" x2="398.079" y2="198.47"/>
  <line style="fill: none; fill-opacity:0; stroke-width: 2; stroke: #000000" x1="418.378" y1="194.372" x2="418.368" y2="198.532"/>
  <line style="fill: none; fill-opacity:0; stroke-width: 2; stroke: #000000" x1="438.933" y1="194.372" x2="438.923" y2="198.532"/>
  <line style="fill: none; fill-opacity:0; stroke-width: 2; stroke: #000000" x1="458.695" y1="194.372" x2="458.685" y2="198.532"/>
  <line style="fill: none; fill-opacity:0; stroke-width: 2; stroke: #000000" x1="478.752" y1="194.076" x2="478.742" y2="198.236"/>
  <line style="fill: none; fill-opacity:0; stroke-width: 2; stroke: #000000" x1="498.809" y1="194.667" x2="498.799" y2="198.827"/>
  <g>
    <path style="fill: none; fill-opacity:0; stroke-width: 1; stroke-linecap: round; stroke: #000000" d="M 408.865 176.693 C 408.24,176.693 407.693,177.162 407.38,178.021 C 406.912,178.958 406.755,180.13 406.833,181.615 C 406.755,183.177 406.912,184.427 407.38,185.287 C 407.693,186.224 408.24,186.693 408.865,186.615 C 409.49,186.693 409.958,186.224 410.349,185.287 C 410.662,184.427 410.818,183.177 410.896,181.615 C 410.818,180.13 410.662,178.958 410.349,178.021 C 409.958,177.162 409.49,176.693 408.865,176.693 L 408.865,176.693"/>
    <path style="fill: none; fill-opacity:0; stroke-width: 1; stroke-linecap: round; stroke: #000000" d="M 408.865 187.083 C 407.927,187.162 407.146,186.693 406.599,185.677 C 405.896,184.818 405.583,183.412 405.662,181.615 C 405.583,180.052 405.896,178.802 406.521,177.708 C 407.146,176.771 407.927,176.224 408.865,176.146 C 409.802,176.224 410.505,176.693 411.13,177.63 C 411.677,178.568 411.99,179.896 412.068,181.615 C 411.99,183.333 411.677,184.74 411.13,185.677 C 410.505,186.693 409.802,187.162 408.865,187.083 L 408.865,187.083"/>
  </g>
  <g>
    <path style="fill: none; fill-opacity:0; stroke-width: 1; stroke-linecap: round; stroke: #000000" d="M 428.951 175.807 C 428.326,175.807 427.779,176.275 427.467,177.135 C 426.998,178.072 426.842,179.244 426.92,180.728 C 426.842,182.291 426.998,183.541 427.467,184.4 C 427.779,185.338 428.326,185.807 428.951,185.728 C 429.576,185.807 430.045,185.338 430.436,184.4 C 430.748,183.541 430.904,182.291 430.983,180.728 C 430.904,179.244 430.748,178.072 430.436,177.135 C 430.045,176.275 429.576,175.807 428.951,175.807 L 428.951,175.807"/>
    <path style="fill: none; fill-opacity:0; stroke-width: 1; stroke-linecap: round; stroke: #000000" d="M 428.951 186.197 C 428.014,186.275 427.233,185.807 426.686,184.791 C 425.983,183.932 425.67,182.525 425.748,180.728 C 425.67,179.166 425.983,177.916 426.608,176.822 C 427.233,175.885 428.014,175.338 428.951,175.26 C 429.889,175.338 430.592,175.807 431.217,176.744 C 431.764,177.682 432.076,179.01 432.154,180.728 C 432.076,182.447 431.764,183.853 431.217,184.791 C 430.592,185.807 429.889,186.275 428.951,186.197 L 428.951,186.197"/>
  </g>
  <g>
    <path style="fill: none; fill-opacity:0; stroke-width: 1; stroke-linecap: round; stroke: #000000" d="M 449.924 176.102 C 449.299,176.102 448.752,176.571 448.44,177.43 C 447.971,178.368 447.815,179.539 447.893,181.024 C 447.815,182.586 447.971,183.836 448.44,184.696 C 448.752,185.633 449.299,186.102 449.924,186.024 C 450.549,186.102 451.018,185.633 451.408,184.696 C 451.721,183.836 451.877,182.586 451.955,181.024 C 451.877,179.539 451.721,178.368 451.408,177.43 C 451.018,176.571 450.549,176.102 449.924,176.102 L 449.924,176.102"/>
    <path style="fill: none; fill-opacity:0; stroke-width: 1; stroke-linecap: round; stroke: #000000" d="M 449.924 186.493 C 448.987,186.571 448.205,186.102 447.658,185.086 C 446.955,184.227 446.643,182.821 446.721,181.024 C 446.643,179.461 446.955,178.211 447.58,177.118 C 448.205,176.18 448.987,175.633 449.924,175.555 C 450.862,175.633 451.565,176.102 452.19,177.039 C 452.737,177.977 453.049,179.305 453.127,181.024 C 453.049,182.743 452.737,184.149 452.19,185.086 C 451.565,186.102 450.862,186.571 449.924,186.493 L 449.924,186.493"/>
  </g>
  <g>
    <path style="fill: none; fill-opacity:0; stroke-width: 1; stroke-linecap: round; stroke: #000000" d="M 469.39 175.511 C 468.765,175.511 468.218,175.98 467.906,176.839 C 467.437,177.777 467.281,178.949 467.359,180.433 C 467.281,181.996 467.437,183.246 467.906,184.105 C 468.218,185.042 468.765,185.511 469.39,185.433 C 470.015,185.511 470.484,185.042 470.875,184.105 C 471.187,183.246 471.343,181.996 471.422,180.433 C 471.343,178.949 471.187,177.777 470.875,176.839 C 470.484,175.98 470.015,175.511 469.39,175.511 L 469.39,175.511"/>
    <path style="fill: none; fill-opacity:0; stroke-width: 1; stroke-linecap: round; stroke: #000000" d="M 469.39 185.902 C 468.453,185.98 467.672,185.511 467.125,184.496 C 466.422,183.636 466.109,182.23 466.187,180.433 C 466.109,178.871 466.422,177.621 467.047,176.527 C 467.672,175.589 468.453,175.042 469.39,174.964 C 470.328,175.042 471.031,175.511 471.656,176.449 C 472.203,177.386 472.515,178.714 472.593,180.433 C 472.515,182.152 472.203,183.558 471.656,184.496 C 471.031,185.511 470.328,185.98 469.39,185.902 L 469.39,185.902"/>
  </g>
  <g>
    <path style="fill: none; fill-opacity:0; stroke-width: 1; stroke-linecap: round; stroke: #000000" d="M 489.152 175.216 C 488.527,175.216 487.98,175.685 487.668,176.544 C 487.199,177.481 487.043,178.653 487.121,180.138 C 487.043,181.7 487.199,182.95 487.668,183.81 C 487.98,184.747 488.527,185.216 489.152,185.138 C 489.777,185.216 490.246,184.747 490.636,183.81 C 490.949,182.95 491.105,181.7 491.183,180.138 C 491.105,178.653 490.949,177.481 490.636,176.544 C 490.246,175.685 489.777,175.216 489.152,175.216 L 489.152,175.216"/>
    <path style="fill: none; fill-opacity:0; stroke-width: 1; stroke-linecap: round; stroke: #000000" d="M 489.152 185.606 C 488.215,185.685 487.433,185.216 486.886,184.2 C 486.183,183.341 485.871,181.935 485.949,180.138 C 485.871,178.575 486.183,177.325 486.808,176.231 C 487.433,175.294 488.215,174.747 489.152,174.669 C 490.09,174.747 490.793,175.216 491.418,176.153 C 491.965,177.091 492.277,178.419 492.355,180.138 C 492.277,181.856 491.965,183.263 491.418,184.2 C 490.793,185.216 490.09,185.685 489.152,185.606 L 489.152,185.606"/>
  </g>
  <line style="fill: none; fill-opacity:0; stroke-width: 2; stroke: #000000" x1="538.108" y1="194.267" x2="538.097" y2="198.427"/>
  <line style="fill: none; fill-opacity:0; stroke-width: 2; stroke: #000000" x1="558.074" y1="194.388" x2="558.064" y2="198.548"/>
  <line style="fill: none; fill-opacity:0; stroke-width: 2; stroke: #000000" x1="578.363" y1="194.45" x2="578.353" y2="198.61"/>
  <line style="fill: none; fill-opacity:0; stroke-width: 2; stroke: #000000" x1="598.918" y1="194.45" x2="598.908" y2="198.61"/>
  <line style="fill: none; fill-opacity:0; stroke-width: 2; stroke: #000000" x1="618.68" y1="194.45" x2="618.67" y2="198.61"/>
  <line style="fill: none; fill-opacity:0; stroke-width: 2; stroke: #000000" x1="638.737" y1="194.155" x2="638.727" y2="198.315"/>
  <line style="fill: none; fill-opacity:0; stroke-width: 2; stroke: #000000" x1="658.794" y1="194.746" x2="658.784" y2="198.906"/>
  <line style="fill: none; fill-opacity:0; stroke-width: 2; stroke: #000000" x1="700.088" y1="194.244" x2="700.077" y2="198.404"/>
  <line style="fill: none; fill-opacity:0; stroke-width: 2; stroke: #000000" x1="720.054" y1="194.365" x2="720.044" y2="198.525"/>
  <line style="fill: none; fill-opacity:0; stroke-width: 2; stroke: #000000" x1="740.343" y1="194.427" x2="740.333" y2="198.587"/>
  <line style="fill: none; fill-opacity:0; stroke-width: 2; stroke: #000000" x1="760.898" y1="194.427" x2="760.888" y2="198.587"/>
  <line style="fill: none; fill-opacity:0; stroke-width: 2; stroke: #000000" x1="780.66" y1="194.427" x2="780.65" y2="198.587"/>
  <line style="fill: none; fill-opacity:0; stroke-width: 2; stroke: #000000" x1="800.717" y1="194.131" x2="800.707" y2="198.291"/>
  <line style="fill: none; fill-opacity:0; stroke-width: 2; stroke: #000000" x1="820.774" y1="194.722" x2="820.764" y2="198.882"/>
  <line style="fill: none; fill-opacity:0; stroke-width: 2; stroke: #000000" x1="859.871" y1="193.637" x2="859.86" y2="197.797"/>
  <line style="fill: none; fill-opacity:0; stroke-width: 2; stroke: #000000" x1="879.837" y1="193.758" x2="879.827" y2="197.918"/>
  <line style="fill: none; fill-opacity:0; stroke-width: 2; stroke: #000000" x1="900.126" y1="193.82" x2="900.116" y2="197.98"/>
  <line style="fill: none; fill-opacity:0; stroke-width: 2; stroke: #000000" x1="920.36" y1="193.197" x2="920.671" y2="197.98"/>
  <line style="fill: none; fill-opacity:0; stroke-width: 2; stroke: #000000" x1="940.443" y1="193.82" x2="940.432" y2="197.98"/>
  <line style="fill: none; fill-opacity:0; stroke-width: 2; stroke: #000000" x1="960.5" y1="193.524" x2="960.49" y2="197.684"/>
  <line style="fill: none; fill-opacity:0; stroke-width: 2; stroke: #000000" x1="980.557" y1="194.115" x2="980.547" y2="198.275"/>
  <line style="fill: none; fill-opacity:0; stroke-width: 2; stroke: #000000" x1="1019.86" y1="193.715" x2="1019.85" y2="197.875"/>
  <line style="fill: none; fill-opacity:0; stroke-width: 2; stroke: #000000" x1="1039.82" y1="193.836" x2="1039.81" y2="197.996"/>
  <line style="fill: none; fill-opacity:0; stroke-width: 2; stroke: #000000" x1="1060.11" y1="193.898" x2="1060.1" y2="198.058"/>
  <line style="fill: none; fill-opacity:0; stroke-width: 2; stroke: #000000" x1="1080.67" y1="193.898" x2="1080.66" y2="198.058"/>
  <line style="fill: none; fill-opacity:0; stroke-width: 2; stroke: #000000" x1="1100.43" y1="193.898" x2="1100.42" y2="198.058"/>
  <line style="fill: none; fill-opacity:0; stroke-width: 2; stroke: #000000" x1="1120.48" y1="193.603" x2="1120.47" y2="197.763"/>
  <line style="fill: none; fill-opacity:0; stroke-width: 2; stroke: #000000" x1="1140.54" y1="194.194" x2="1140.53" y2="198.354"/>
  <g>
    <path style="fill: none; fill-opacity:0; stroke-width: 1; stroke-linecap: round; stroke: #000000" d="M 388.732 176.675 C 388.107,176.675 387.561,177.144 387.248,178.003 C 386.779,178.941 386.623,180.113 386.701,181.597 C 386.623,183.159 386.779,184.409 387.248,185.269 C 387.561,186.206 388.107,186.675 388.732,186.597 C 389.357,186.675 389.826,186.206 390.217,185.269 C 390.529,184.409 390.686,183.159 390.764,181.597 C 390.686,180.113 390.529,178.941 390.217,178.003 C 389.826,177.144 389.357,176.675 388.732,176.675 L 388.732,176.675"/>
    <path style="fill: none; fill-opacity:0; stroke-width: 1; stroke-linecap: round; stroke: #000000" d="M 388.732 187.066 C 387.795,187.144 387.014,186.675 386.467,185.659 C 385.764,184.8 385.451,183.394 385.529,181.597 C 385.451,180.034 385.764,178.784 386.389,177.691 C 387.014,176.753 387.795,176.206 388.732,176.128 C 389.67,176.206 390.373,176.675 390.998,177.613 C 391.545,178.55 391.857,179.878 391.936,181.597 C 391.857,183.316 391.545,184.722 390.998,185.659 C 390.373,186.675 389.67,187.144 388.732,187.066 L 388.732,187.066"/>
  </g>
  <g>
    <path style="fill: none; fill-opacity:0; stroke-width: 1; stroke-linecap: round; stroke: #000000" d="M 507.936 176.088 C 507.311,176.088 506.764,176.557 506.452,177.416 C 505.983,178.354 505.827,179.525 505.905,181.01 C 505.827,182.572 505.983,183.822 506.452,184.682 C 506.764,185.619 507.311,186.088 507.936,186.01 C 508.561,186.088 509.03,185.619 509.42,184.682 C 509.733,183.822 509.889,182.572 509.967,181.01 C 509.889,179.525 509.733,178.354 509.42,177.416 C 509.03,176.557 508.561,176.088 507.936,176.088 L 507.936,176.088"/>
    <path style="fill: none; fill-opacity:0; stroke-width: 1; stroke-linecap: round; stroke: #000000" d="M 507.936 186.479 C 506.998,186.557 506.217,186.088 505.67,185.072 C 504.967,184.213 504.655,182.807 504.733,181.01 C 504.655,179.447 504.967,178.197 505.592,177.104 C 506.217,176.166 506.998,175.619 507.936,175.541 C 508.873,175.619 509.577,176.088 510.202,177.025 C 510.748,177.963 511.061,179.291 511.139,181.01 C 511.061,182.729 510.748,184.135 510.202,185.072 C 509.577,186.088 508.873,186.557 507.936,186.479 L 507.936,186.479"/>
  </g>
  <g>
    <path style="fill: none; fill-opacity:0; stroke-width: 1; stroke-linecap: round; stroke: #000000" d="M 528.842 177.278 C 528.217,177.278 527.67,177.747 527.358,178.607 C 526.889,179.544 526.733,180.716 526.811,182.2 C 526.733,183.763 526.889,185.013 527.358,185.872 C 527.67,186.81 528.217,187.278 528.842,187.2 C 529.467,187.278 529.936,186.81 530.326,185.872 C 530.639,185.013 530.795,183.763 530.873,182.2 C 530.795,180.716 530.639,179.544 530.326,178.607 C 529.936,177.747 529.467,177.278 528.842,177.278 L 528.842,177.278"/>
    <path style="fill: none; fill-opacity:0; stroke-width: 1; stroke-linecap: round; stroke: #000000" d="M 528.842 187.669 C 527.905,187.747 527.123,187.278 526.576,186.263 C 525.873,185.403 525.561,183.997 525.639,182.2 C 525.561,180.638 525.873,179.388 526.498,178.294 C 527.123,177.357 527.905,176.81 528.842,176.732 C 529.78,176.81 530.483,177.278 531.108,178.216 C 531.655,179.153 531.967,180.482 532.045,182.2 C 531.967,183.919 531.655,185.325 531.108,186.263 C 530.483,187.278 529.78,187.747 528.842,187.669 L 528.842,187.669"/>
  </g>
  <g>
    <path style="fill: none; fill-opacity:0; stroke-width: 1; stroke-linecap: round; stroke: #000000" d="M 567.893 177.53 C 567.268,177.53 566.721,177.999 566.409,178.858 C 565.94,179.796 565.784,180.968 565.862,182.452 C 565.784,184.014 565.94,185.264 566.409,186.124 C 566.721,187.061 567.268,187.53 567.893,187.452 C 568.518,187.53 568.987,187.061 569.377,186.124 C 569.69,185.264 569.846,184.014 569.924,182.452 C 569.846,180.968 569.69,179.796 569.377,178.858 C 568.987,177.999 568.518,177.53 567.893,177.53 L 567.893,177.53"/>
    <path style="fill: none; fill-opacity:0; stroke-width: 1; stroke-linecap: round; stroke: #000000" d="M 567.893 187.921 C 566.955,187.999 566.174,187.53 565.627,186.514 C 564.924,185.655 564.612,184.249 564.69,182.452 C 564.612,180.889 564.924,179.639 565.549,178.546 C 566.174,177.608 566.955,177.061 567.893,176.983 C 568.83,177.061 569.534,177.53 570.159,178.468 C 570.705,179.405 571.018,180.733 571.096,182.452 C 571.018,184.171 570.705,185.577 570.159,186.514 C 569.534,187.53 568.83,187.999 567.893,187.921 L 567.893,187.921"/>
  </g>
  <g>
    <path style="fill: none; fill-opacity:0; stroke-width: 1; stroke-linecap: round; stroke: #000000" d="M 667.767 177.85 C 667.142,177.85 666.595,178.318 666.283,179.178 C 665.814,180.115 665.658,181.287 665.736,182.771 C 665.658,184.334 665.814,185.584 666.283,186.443 C 666.595,187.381 667.142,187.85 667.767,187.771 C 668.392,187.85 668.861,187.381 669.251,186.443 C 669.564,185.584 669.72,184.334 669.798,182.771 C 669.72,181.287 669.564,180.115 669.251,179.178 C 668.861,178.318 668.392,177.85 667.767,177.85 L 667.767,177.85"/>
    <path style="fill: none; fill-opacity:0; stroke-width: 1; stroke-linecap: round; stroke: #000000" d="M 667.767 188.24 C 666.83,188.318 666.048,187.85 665.501,186.834 C 664.798,185.975 664.486,184.568 664.564,182.771 C 664.486,181.209 664.798,179.959 665.423,178.865 C 666.048,177.928 666.83,177.381 667.767,177.303 C 668.705,177.381 669.408,177.85 670.033,178.787 C 670.58,179.725 670.892,181.053 670.97,182.771 C 670.892,184.49 670.58,185.896 670.033,186.834 C 669.408,187.85 668.705,188.318 667.767,188.24 L 667.767,188.24"/>
  </g>
  <path style="fill: none; fill-opacity:0; stroke-width: 1; stroke-linecap: round; stroke: #000000" d="M 548.926 178.477 L 548.926,187.93 C 548.848,188.321 548.926,188.633 549.238,188.711 C 549.394,188.946 549.707,189.024 550.176,188.946 L 550.801,188.946 L 550.801,189.336 L 546.191,189.336 L 546.191,188.946 L 546.738,188.946 C 547.129,189.024 547.441,188.946 547.676,188.711 C 547.832,188.633 547.91,188.321 547.988,187.93 L 547.988,180.352 C 547.91,180.274 547.832,180.118 547.832,179.961 C 547.676,179.883 547.519,179.883 547.363,179.805 L 546.191,179.805 L 546.191,179.415 L 546.738,179.415 C 547.207,179.493 547.598,179.415 547.988,179.18 C 548.223,179.102 548.457,178.868 548.691,178.477 L 548.926,178.477"/>
  <path style="fill: none; fill-opacity:0; stroke-width: 1; stroke-linecap: round; stroke: #000000" d="M 589.326 179.064 L 589.326,188.517 C 589.248,188.908 589.326,189.221 589.638,189.299 C 589.794,189.533 590.107,189.611 590.576,189.533 L 591.201,189.533 L 591.201,189.924 L 586.591,189.924 L 586.591,189.533 L 587.138,189.533 C 587.529,189.611 587.841,189.533 588.076,189.299 C 588.232,189.221 588.31,188.908 588.388,188.517 L 588.388,180.939 C 588.31,180.861 588.232,180.705 588.232,180.549 C 588.076,180.471 587.919,180.471 587.763,180.392 L 586.591,180.392 L 586.591,180.002 L 587.138,180.002 C 587.607,180.08 587.998,180.002 588.388,179.767 C 588.623,179.689 588.857,179.455 589.091,179.064 L 589.326,179.064"/>
  <path style="fill: none; fill-opacity:0; stroke-width: 1; stroke-linecap: round; stroke: #000000" d="M 608.058 177.89 L 608.058,187.343 C 607.98,187.734 608.058,188.046 608.37,188.124 C 608.526,188.359 608.839,188.437 609.308,188.359 L 609.933,188.359 L 609.933,188.749 L 605.323,188.749 L 605.323,188.359 L 605.87,188.359 C 606.261,188.437 606.573,188.359 606.808,188.124 C 606.964,188.046 607.042,187.734 607.12,187.343 L 607.12,179.765 C 607.042,179.687 606.964,179.53 606.964,179.374 C 606.808,179.296 606.651,179.296 606.495,179.218 L 605.323,179.218 L 605.323,178.827 L 605.87,178.827 C 606.339,178.905 606.73,178.827 607.12,178.593 C 607.355,178.515 607.589,178.28 607.823,177.89 L 608.058,177.89"/>
  <path style="fill: none; fill-opacity:0; stroke-width: 1; stroke-linecap: round; stroke: #000000" d="M 627.905 177.89 L 627.905,187.343 C 627.827,187.734 627.905,188.046 628.218,188.124 C 628.374,188.359 628.687,188.437 629.155,188.359 L 629.78,188.359 L 629.78,188.749 L 625.171,188.749 L 625.171,188.359 L 625.718,188.359 C 626.109,188.437 626.421,188.359 626.655,188.124 C 626.812,188.046 626.89,187.734 626.968,187.343 L 626.968,179.765 C 626.89,179.687 626.812,179.53 626.812,179.374 C 626.655,179.296 626.499,179.296 626.343,179.218 L 625.171,179.218 L 625.171,178.827 L 625.718,178.827 C 626.187,178.905 626.577,178.827 626.968,178.593 C 627.202,178.515 627.437,178.28 627.671,177.89 L 627.905,177.89"/>
  <path style="fill: none; fill-opacity:0; stroke-width: 1; stroke-linecap: round; stroke: #000000" d="M 649.573 177.89 L 649.573,187.343 C 649.495,187.734 649.573,188.046 649.886,188.124 C 650.042,188.359 650.355,188.437 650.823,188.359 L 651.448,188.359 L 651.448,188.749 L 646.839,188.749 L 646.839,188.359 L 647.386,188.359 C 647.777,188.437 648.089,188.359 648.323,188.124 C 648.48,188.046 648.558,187.734 648.636,187.343 L 648.636,179.765 C 648.558,179.687 648.48,179.53 648.48,179.374 C 648.323,179.296 648.167,179.296 648.011,179.218 L 646.839,179.218 L 646.839,178.827 L 647.386,178.827 C 647.855,178.905 648.245,178.827 648.636,178.593 C 648.87,178.515 649.105,178.28 649.339,177.89 L 649.573,177.89"/>
  <g>
    <rect style="fill: #ffffff" x="518.786" y="17.1885" width="639.749" height="38"/>
    <rect style="fill: none; fill-opacity:0; stroke-width: 2; stroke-linecap: round; stroke: #000000" x="518.786" y="17.1885" width="639.749" height="38"/>
    <text font-size="12.8" style="fill: #000000;text-anchor:middle;font-family:monospace;font-style:normal;font-weight:normal" x="838.661" y="38.8385">
      <tspan x="838.661" y="38.8385"></tspan>
    </text>
  </g>
  <line style="fill: none; fill-opacity:0; stroke-width: 2; stroke: #000000" x1="678.095" y1="17.6219" x2="678.095" y2="55.9634"/>
  <line style="fill: none; fill-opacity:0; stroke-width: 2; stroke: #000000" x1="838.148" y1="16.7048" x2="838.148" y2="55.0463"/>
  <line style="fill: none; fill-opacity:0; stroke-width: 2; stroke: #000000" x1="999.623" y1="16.44" x2="999.623" y2="54.7815"/>
  <line style="fill: none; fill-opacity:0; stroke-width: 2; stroke: #000000" x1="537.808" y1="50.6582" x2="537.798" y2="54.8182"/>
  <line style="fill: none; fill-opacity:0; stroke-width: 2; stroke: #000000" x1="557.774" y1="50.7792" x2="557.764" y2="54.9392"/>
  <line style="fill: none; fill-opacity:0; stroke-width: 2; stroke: #000000" x1="578.063" y1="50.8415" x2="578.053" y2="55.0015"/>
  <line style="fill: none; fill-opacity:0; stroke-width: 2; stroke: #000000" x1="598.618" y1="50.8415" x2="598.608" y2="55.0015"/>
  <line style="fill: none; fill-opacity:0; stroke-width: 2; stroke: #000000" x1="618.38" y1="50.8415" x2="618.37" y2="55.0015"/>
  <line style="fill: none; fill-opacity:0; stroke-width: 2; stroke: #000000" x1="638.437" y1="50.5461" x2="638.427" y2="54.7061"/>
  <line style="fill: none; fill-opacity:0; stroke-width: 2; stroke: #000000" x1="658.494" y1="51.1368" x2="658.484" y2="55.2968"/>
  <line style="fill: none; fill-opacity:0; stroke-width: 2; stroke: #000000" x1="697.591" y1="50.0513" x2="697.58" y2="54.2113"/>
  <line style="fill: none; fill-opacity:0; stroke-width: 2; stroke: #000000" x1="717.557" y1="50.1723" x2="717.547" y2="54.3323"/>
  <line style="fill: none; fill-opacity:0; stroke-width: 2; stroke: #000000" x1="737.846" y1="50.2345" x2="737.836" y2="54.3945"/>
  <line style="fill: none; fill-opacity:0; stroke-width: 2; stroke: #000000" x1="758.401" y1="50.2345" x2="758.391" y2="54.3945"/>
  <line style="fill: none; fill-opacity:0; stroke-width: 2; stroke: #000000" x1="778.163" y1="50.2345" x2="778.153" y2="54.3945"/>
  <line style="fill: none; fill-opacity:0; stroke-width: 2; stroke: #000000" x1="798.22" y1="49.9391" x2="798.21" y2="54.0991"/>
  <line style="fill: none; fill-opacity:0; stroke-width: 2; stroke: #000000" x1="818.277" y1="50.5299" x2="818.267" y2="54.6899"/>
  <line style="fill: none; fill-opacity:0; stroke-width: 2; stroke: #000000" x1="857.576" y1="50.1297" x2="857.565" y2="54.2897"/>
  <line style="fill: none; fill-opacity:0; stroke-width: 2; stroke: #000000" x1="877.542" y1="50.2507" x2="877.532" y2="54.4107"/>
  <line style="fill: none; fill-opacity:0; stroke-width: 2; stroke: #000000" x1="897.831" y1="50.3129" x2="897.821" y2="54.4729"/>
  <line style="fill: none; fill-opacity:0; stroke-width: 2; stroke: #000000" x1="918.386" y1="50.3129" x2="918.376" y2="54.4729"/>
  <line style="fill: none; fill-opacity:0; stroke-width: 2; stroke: #000000" x1="938.148" y1="50.3129" x2="938.137" y2="54.4729"/>
  <line style="fill: none; fill-opacity:0; stroke-width: 2; stroke: #000000" x1="958.205" y1="50.0175" x2="958.194" y2="54.1775"/>
  <line style="fill: none; fill-opacity:0; stroke-width: 2; stroke: #000000" x1="978.262" y1="50.6083" x2="978.252" y2="54.7683"/>
  <line style="fill: none; fill-opacity:0; stroke-width: 2; stroke: #000000" x1="1018.56" y1="50.0256" x2="1018.55" y2="54.1856"/>
  <line style="fill: none; fill-opacity:0; stroke-width: 2; stroke: #000000" x1="1038.53" y1="50.1467" x2="1038.52" y2="54.3067"/>
  <line style="fill: none; fill-opacity:0; stroke-width: 2; stroke: #000000" x1="1058.81" y1="50.2089" x2="1058.8" y2="54.3689"/>
  <line style="fill: none; fill-opacity:0; stroke-width: 2; stroke: #000000" x1="1079.37" y1="50.2089" x2="1079.36" y2="54.3689"/>
  <line style="fill: none; fill-opacity:0; stroke-width: 2; stroke: #000000" x1="1099.13" y1="50.2089" x2="1099.12" y2="54.3689"/>
  <line style="fill: none; fill-opacity:0; stroke-width: 2; stroke: #000000" x1="1119.19" y1="49.9135" x2="1119.18" y2="54.0735"/>
  <line style="fill: none; fill-opacity:0; stroke-width: 2; stroke: #000000" x1="1139.25" y1="50.5042" x2="1139.24" y2="54.6642"/>
  <path style="fill: none; fill-opacity:0; stroke-width: 1; stroke-linecap: round; stroke: #000000" d="M 530.461 31.2075 L 530.461,40.6606 C 530.383,41.0512 530.461,41.3637 530.773,41.4419 C 530.93,41.6762 531.242,41.7544 531.711,41.6762 L 532.336,41.6762 L 532.336,42.0669 L 527.726,42.0669 L 527.726,41.6762 L 528.273,41.6762 C 528.664,41.7544 528.976,41.6762 529.211,41.4419 C 529.367,41.3637 529.445,41.0512 529.523,40.6606 L 529.523,33.0825 C 529.445,33.0044 529.367,32.8481 529.367,32.6919 C 529.211,32.6137 529.055,32.6137 528.898,32.5356 L 527.726,32.5356 L 527.726,32.145 L 528.273,32.145 C 528.742,32.2231 529.133,32.145 529.523,31.9106 C 529.758,31.8325 529.992,31.5981 530.226,31.2075 L 530.461,31.2075"/>
  <path style="fill: none; fill-opacity:0; stroke-width: 1; stroke-linecap: round; stroke: #000000" d="M 548.606 32.9691 L 548.606,42.4222 C 548.527,42.8129 548.606,43.1254 548.918,43.2035 C 549.074,43.4379 549.387,43.516 549.856,43.4379 L 550.481,43.4379 L 550.481,43.8285 L 545.871,43.8285 L 545.871,43.4379 L 546.418,43.4379 C 546.809,43.516 547.121,43.4379 547.356,43.2035 C 547.512,43.1254 547.59,42.8129 547.668,42.4222 L 547.668,34.8441 C 547.59,34.766 547.512,34.6097 547.512,34.4535 C 547.356,34.3754 547.199,34.3754 547.043,34.2972 L 545.871,34.2972 L 545.871,33.9066 L 546.418,33.9066 C 546.887,33.9847 547.277,33.9066 547.668,33.6722 C 547.902,33.5941 548.137,33.3597 548.371,32.9691 L 548.606,32.9691"/>
  <path style="fill: none; fill-opacity:0; stroke-width: 1; stroke-linecap: round; stroke: #000000" d="M 566.75 31.2075 L 566.75,40.6606 C 566.672,41.0512 566.75,41.3637 567.063,41.4419 C 567.219,41.6762 567.532,41.7544 568,41.6762 L 568.625,41.6762 L 568.625,42.0669 L 564.016,42.0669 L 564.016,41.6762 L 564.563,41.6762 C 564.953,41.7544 565.266,41.6762 565.5,41.4419 C 565.657,41.3637 565.735,41.0512 565.813,40.6606 L 565.813,33.0825 C 565.735,33.0044 565.657,32.8481 565.657,32.6919 C 565.5,32.6137 565.344,32.6137 565.188,32.5356 L 564.016,32.5356 L 564.016,32.145 L 564.563,32.145 C 565.032,32.2231 565.422,32.145 565.813,31.9106 C 566.047,31.8325 566.282,31.5981 566.516,31.2075 L 566.75,31.2075"/>
  <g>
    <path style="fill: none; fill-opacity:0; stroke-width: 1; stroke-linecap: round; stroke: #000000" d="M 587.889 32.3416 C 587.264,32.3416 586.717,32.8103 586.405,33.6697 C 585.936,34.6072 585.78,35.7791 585.858,37.2634 C 585.78,38.8259 585.936,40.0759 586.405,40.9353 C 586.717,41.8728 587.264,42.3416 587.889,42.2634 C 588.514,42.3416 588.983,41.8728 589.373,40.9353 C 589.686,40.0759 589.842,38.8259 589.92,37.2634 C 589.842,35.7791 589.686,34.6072 589.373,33.6697 C 588.983,32.8103 588.514,32.3416 587.889,32.3416 L 587.889,32.3416"/>
    <path style="fill: none; fill-opacity:0; stroke-width: 1; stroke-linecap: round; stroke: #000000" d="M 587.889 42.7322 C 586.951,42.8103 586.17,42.3416 585.623,41.3259 C 584.92,40.4666 584.608,39.0603 584.686,37.2634 C 584.608,35.7009 584.92,34.4509 585.545,33.3572 C 586.17,32.4197 586.951,31.8728 587.889,31.7947 C 588.826,31.8728 589.53,32.3416 590.155,33.2791 C 590.701,34.2166 591.014,35.5447 591.092,37.2634 C 591.014,38.9822 590.701,40.3884 590.155,41.3259 C 589.53,42.3416 588.826,42.8103 587.889,42.7322 L 587.889,42.7322"/>
  </g>
  <g>
    <path style="fill: none; fill-opacity:0; stroke-width: 1; stroke-linecap: round; stroke: #000000" d="M 520.947 -4.65264 C 520.322,-4.65264 519.775,-4.18389 519.463,-3.32452 C 518.994,-2.38702 518.838,-1.21514 518.916,0.269233 C 518.838,1.83173 518.994,3.08173 519.463,3.94111 C 519.775,4.87861 520.322,5.34736 520.947,5.26923 C 521.572,5.34736 522.041,4.87861 522.431,3.94111 C 522.744,3.08173 522.9,1.83173 522.978,0.269233 C 522.9,-1.21514 522.744,-2.38702 522.431,-3.32452 C 522.041,-4.18389 521.572,-4.65264 520.947,-4.65264 L 520.947,-4.65264"/>
    <path style="fill: none; fill-opacity:0; stroke-width: 1; stroke-linecap: round; stroke: #000000" d="M 520.947 5.73798 C 520.01,5.81611 519.228,5.34736 518.681,4.33173 C 517.978,3.47236 517.666,2.06611 517.744,0.269233 C 517.666,-1.29327 517.978,-2.54327 518.603,-3.63702 C 519.228,-4.57452 520.01,-5.12139 520.947,-5.19952 C 521.885,-5.12139 522.588,-4.65264 523.213,-3.71514 C 523.76,-2.77764 524.072,-1.44952 524.15,0.269233 C 524.072,1.98798 523.76,3.39423 523.213,4.33173 C 522.588,5.34736 521.885,5.81611 520.947,5.73798 L 520.947,5.73798"/>
  </g>
  <path style="fill: none; fill-opacity:0; stroke-width: 1; stroke-linecap: round; stroke: #000000" d="M 673.498 -1.20751 C 672.639,0.276865 671.935,1.60499 671.467,2.93312 C 670.92,4.33937 670.685,5.51124 670.685,6.44874 C 670.685,6.60499 670.685,6.83937 670.685,7.15187 C 670.685,7.46437 670.685,7.85499 670.685,8.24562 C 670.685,8.63624 670.607,8.87062 670.529,8.94874 C 670.373,9.10499 670.217,9.18312 670.06,9.10499 C 669.826,9.18312 669.67,9.10499 669.514,8.94874 C 669.357,8.87062 669.279,8.63624 669.279,8.16749 C 669.279,7.38624 669.435,6.37062 669.826,5.19874 C 670.139,4.10499 671.076,2.15187 672.639,-0.73876 L 669.514,-0.73876 C 669.045,-0.660635 668.654,-0.504385 668.42,-0.27001 C 668.107,0.0424904 667.951,0.433115 667.873,0.97999 L 667.482,0.97999 L 667.873,-1.67626 L 673.498,-1.67626 L 673.498,-1.20751"/>
  <g>
    <path style="fill: none; fill-opacity:0; stroke-width: 1; stroke-linecap: round; stroke: #000000" d="M 683.022 6.60499 C 682.944,7.30812 683.178,7.85499 683.647,8.24562 C 684.038,8.71437 684.584,8.94874 685.366,8.87062 C 686.069,8.94874 686.616,8.71437 687.006,8.24562 C 687.319,7.85499 687.553,7.38624 687.553,6.68312 C 687.553,6.21437 687.241,5.66749 686.772,5.12062 C 686.225,4.65187 685.522,4.18312 684.584,3.71437 C 684.038,4.10499 683.647,4.57374 683.413,5.04249 C 683.1,5.58937 682.944,6.05812 683.022,6.60499 L 683.022,6.60499"/>
    <path style="fill: none; fill-opacity:0; stroke-width: 1; stroke-linecap: round; stroke: #000000" d="M 688.491 6.44874 C 688.491,7.38624 688.178,8.01124 687.631,8.47999 C 687.006,9.02687 686.225,9.33937 685.366,9.26124 C 684.428,9.33937 683.725,9.02687 683.1,8.47999 C 682.475,8.01124 682.163,7.38624 682.163,6.60499 C 682.163,5.90187 682.319,5.35499 682.631,4.80812 C 682.944,4.33937 683.413,3.87062 684.194,3.47999 C 683.569,3.24562 683.178,2.85499 682.866,2.38624 C 682.553,1.99562 682.397,1.52687 682.397,0.901865 C 682.397,0.276865 682.631,-0.348135 683.178,-0.89501 C 683.725,-1.36376 684.506,-1.59813 685.444,-1.67626 C 686.303,-1.59813 687.006,-1.36376 687.553,-0.89501 C 688.1,-0.348135 688.334,0.276865 688.413,0.901865 C 688.334,1.44874 688.178,1.91749 687.944,2.38624 C 687.553,2.85499 687.084,3.24562 686.459,3.47999 C 687.163,3.94874 687.709,4.41749 688.022,4.88624 C 688.334,5.43312 688.491,5.97999 688.491,6.44874 L 688.491,6.44874"/>
    <path style="fill: none; fill-opacity:0; stroke-width: 1; stroke-linecap: round; stroke: #000000" d="M 687.553 0.97999 C 687.553,0.433115 687.319,-0.0356346 687.006,-0.504385 C 686.616,-0.89501 686.147,-1.12938 685.444,-1.20751 C 684.663,-1.12938 684.038,-0.89501 683.725,-0.58251 C 683.334,-0.11376 683.178,0.276865 683.256,0.745615 C 683.178,1.21437 683.413,1.68312 683.959,2.07374 C 684.428,2.54249 685.131,2.93312 685.991,3.24562 C 686.459,3.01124 686.85,2.69874 687.163,2.30812 C 687.397,1.99562 687.553,1.52687 687.553,0.97999 L 687.553,0.97999"/>
  </g>
  <g>
    <path style="fill: none; fill-opacity:0; stroke-width: 1; stroke-linecap: round; stroke: #000000" d="M 821.658 -2.26347 L 821.658,7.18966 C 821.58,7.58028 821.658,7.89278 821.971,7.97091 C 822.127,8.20528 822.439,8.28341 822.908,8.20528 L 823.533,8.20528 L 823.533,8.59591 L 818.924,8.59591 L 818.924,8.20528 L 819.471,8.20528 C 819.861,8.28341 820.174,8.20528 820.408,7.97091 C 820.564,7.89278 820.642,7.58028 820.721,7.18966 L 820.721,-0.388469 C 820.642,-0.466594 820.564,-0.622844 820.564,-0.779094 C 820.408,-0.857219 820.252,-0.857219 820.096,-0.935344 L 818.924,-0.935344 L 818.924,-1.32597 L 819.471,-1.32597 C 819.939,-1.24784 820.33,-1.32597 820.721,-1.56034 C 820.955,-1.63847 821.189,-1.87284 821.424,-2.26347 L 821.658,-2.26347"/>
    <path style="fill: none; fill-opacity:0; stroke-width: 1; stroke-linecap: round; stroke: #000000" d="M 829.392 1.72091 C 830.096,1.79903 830.721,2.11153 831.346,2.65841 C 831.814,3.28341 832.127,4.06466 832.127,5.00216 C 832.127,6.17403 831.814,7.11153 831.346,7.73653 C 830.721,8.43966 829.939,8.75216 828.924,8.67403 C 828.064,8.75216 827.361,8.51778 826.892,8.04903 C 826.267,7.65841 826.033,7.11153 826.033,6.48653 C 826.033,6.25216 826.111,6.09591 826.267,5.86153 C 826.424,5.70528 826.58,5.54903 826.814,5.54903 C 827.049,5.54903 827.205,5.62716 827.283,5.78341 C 827.361,5.93966 827.439,6.09591 827.439,6.17403 C 827.439,6.48653 827.361,6.72091 827.283,6.79903 C 827.127,7.03341 827.049,7.18966 827.127,7.26778 C 827.049,7.65841 827.283,7.89278 827.674,8.04903 C 828.064,8.28341 828.455,8.36153 829.002,8.28341 C 829.549,8.36153 830.096,8.12716 830.486,7.50216 C 830.799,7.03341 830.955,6.25216 831.033,5.15841 C 830.955,4.37716 830.799,3.67403 830.564,3.12716 C 830.174,2.65841 829.705,2.42403 829.158,2.34591 C 828.611,2.42403 828.221,2.50216 827.908,2.58028 C 827.596,2.81466 827.283,3.12716 827.049,3.67403 L 826.502,3.59591 L 826.814,-2.10722 L 831.892,-2.10722 L 831.736,-1.16972 L 827.205,-1.16972 L 826.971,2.97091 C 827.361,2.42403 827.752,2.11153 828.142,1.95528 C 828.533,1.87716 828.924,1.79903 829.392,1.72091 L 829.392,1.72091"/>
  </g>
  <g>
    <path style="fill: none; fill-opacity:0; stroke-width: 1; stroke-linecap: round; stroke: #000000" d="M 842.739 -1.08905 L 842.739,8.36408 C 842.661,8.7547 842.739,9.0672 843.051,9.14533 C 843.208,9.3797 843.52,9.45783 843.989,9.3797 L 844.614,9.3797 L 844.614,9.77033 L 840.005,9.77033 L 840.005,9.3797 L 840.551,9.3797 C 840.942,9.45783 841.255,9.3797 841.489,9.14533 C 841.645,9.0672 841.723,8.7547 841.801,8.36408 L 841.801,0.78595 C 841.723,0.707825 841.645,0.551575 841.645,0.395325 C 841.489,0.3172 841.333,0.3172 841.176,0.239075 L 840.005,0.239075 L 840.005,-0.15155 L 840.551,-0.15155 C 841.02,-0.073425 841.411,-0.15155 841.801,-0.385925 C 842.036,-0.46405 842.27,-0.698425 842.505,-1.08905 L 842.739,-1.08905"/>
    <path style="fill: none; fill-opacity:0; stroke-width: 1; stroke-linecap: round; stroke: #000000" d="M 848.13 5.47345 C 848.051,6.80158 848.286,7.8172 848.755,8.4422 C 849.223,9.22345 849.77,9.53595 850.395,9.45783 C 851.02,9.53595 851.489,9.30158 851.801,8.7547 C 852.114,8.36408 852.27,7.5047 852.27,6.17658 C 852.27,5.39533 852.036,4.77033 851.723,4.30158 C 851.333,3.91095 850.942,3.67658 850.473,3.59845 C 849.926,3.67658 849.458,3.83283 849.145,3.98908 C 848.676,4.30158 848.364,4.77033 848.13,5.47345 L 848.13,5.47345"/>
    <path style="fill: none; fill-opacity:0; stroke-width: 1; stroke-linecap: round; stroke: #000000" d="M 850.551 2.97345 C 851.489,2.97345 852.192,3.36408 852.661,3.98908 C 853.051,4.6922 853.286,5.39533 853.364,6.17658 C 853.286,7.5047 852.973,8.4422 852.426,8.98908 C 851.801,9.61408 851.176,9.92658 850.395,9.84845 C 849.223,9.92658 848.364,9.45783 847.817,8.59845 C 847.192,7.8172 846.88,6.5672 846.958,4.84845 C 846.88,2.97345 847.192,1.5672 847.973,0.47345 C 848.598,-0.46405 849.614,-1.01092 850.864,-1.08905 C 851.411,-1.01092 851.88,-0.854675 852.27,-0.542175 C 852.583,-0.229675 852.739,0.082825 852.817,0.3172 C 852.739,0.6297 852.661,0.864075 852.661,0.9422 C 852.505,1.09845 852.348,1.09845 852.114,1.09845 C 851.88,1.09845 851.723,1.09845 851.645,0.9422 C 851.489,0.9422 851.411,0.78595 851.489,0.47345 C 851.411,0.47345 851.489,0.3172 851.567,0.16095 C 851.567,0.16095 851.567,0.082825 851.567,-0.073425 C 851.567,-0.229675 851.489,-0.3078 851.333,-0.46405 C 851.176,-0.46405 850.942,-0.542175 850.708,-0.6203 C 849.926,-0.542175 849.301,-0.229675 848.833,0.395325 C 848.286,1.02033 848.051,2.42658 848.13,4.53595 C 848.364,4.0672 848.676,3.67658 849.145,3.36408 C 849.458,3.1297 849.926,2.97345 850.551,2.97345 L 850.551,2.97345"/>
  </g>
  <g>
    <path style="fill: none; fill-opacity:0; stroke-width: 1; stroke-linecap: round; stroke: #000000" d="M 984.702 1.13624 C 984.624,0.433115 984.467,-0.11376 984.233,-0.58251 C 983.842,-0.89501 983.374,-1.12938 982.749,-1.20751 C 982.202,-1.12938 981.733,-0.973135 981.42,-0.816885 C 981.03,-0.504385 980.874,-0.191885 980.952,0.19874 C 980.874,0.51124 980.952,0.745615 981.186,0.82374 C 981.186,1.13624 981.264,1.29249 981.342,1.37062 C 981.264,1.60499 981.186,1.76124 981.186,1.83937 C 981.03,1.99562 980.874,2.07374 980.717,1.99562 C 980.405,2.07374 980.249,1.99562 980.092,1.76124 C 979.936,1.68312 979.858,1.44874 979.936,1.05812 C 979.858,0.276865 980.17,-0.42626 980.874,-0.973135 C 981.42,-1.36376 982.045,-1.59813 982.827,-1.67626 C 983.764,-1.59813 984.545,-1.36376 985.092,-0.89501 C 985.483,-0.348135 985.717,0.276865 985.795,0.97999 C 985.717,1.52687 985.561,2.07374 985.405,2.54249 C 985.092,3.08937 984.78,3.55812 984.389,3.94874 C 983.061,5.12062 982.124,6.05812 981.577,6.76124 C 980.874,7.54249 980.483,8.01124 980.405,8.24562 L 984.077,8.24562 C 984.467,8.24562 984.78,8.16749 985.014,7.85499 C 985.249,7.62062 985.405,7.15187 985.561,6.44874 L 985.952,6.44874 L 985.561,9.18312 L 979.702,9.18312 L 979.702,8.32374 C 979.858,8.01124 980.17,7.54249 980.717,6.91749 C 981.186,6.44874 981.889,5.74562 982.67,4.88624 C 983.374,4.18312 983.842,3.47999 984.233,2.85499 C 984.467,2.22999 984.624,1.68312 984.702,1.13624 L 984.702,1.13624"/>
    <path style="fill: none; fill-opacity:0; stroke-width: 1; stroke-linecap: round; stroke: #000000" d="M 993.92 6.29249 C 993.92,7.15187 993.608,7.85499 992.983,8.40187 C 992.358,9.02687 991.499,9.33937 990.561,9.26124 C 989.78,9.33937 989.155,9.10499 988.608,8.63624 C 988.061,8.24562 987.827,7.77687 987.827,7.22999 C 987.827,6.99562 987.905,6.76124 988.061,6.60499 C 988.217,6.44874 988.374,6.37062 988.608,6.29249 C 988.764,6.37062 988.92,6.44874 989.077,6.60499 C 989.155,6.76124 989.233,6.91749 989.233,7.07374 C 989.233,7.30812 989.155,7.46437 989.155,7.54249 C 988.999,7.69874 988.999,7.85499 988.999,8.01124 C 988.999,8.24562 989.155,8.47999 989.467,8.63624 C 989.78,8.87062 990.092,8.94874 990.483,8.87062 C 991.186,8.94874 991.733,8.71437 992.202,8.24562 C 992.514,7.77687 992.749,7.07374 992.749,6.13624 C 992.749,5.43312 992.514,4.88624 992.124,4.33937 C 991.733,3.94874 991.03,3.71437 989.936,3.63624 L 989.936,3.24562 C 990.717,3.32374 991.264,3.16749 991.733,2.69874 C 992.045,2.38624 992.28,1.76124 992.358,0.97999 C 992.28,0.433115 992.124,-0.0356346 991.889,-0.504385 C 991.499,-0.89501 991.03,-1.12938 990.483,-1.20751 C 990.092,-1.12938 989.78,-1.05126 989.467,-0.973135 C 989.155,-0.73876 988.999,-0.504385 988.999,-0.27001 C 988.999,0.120615 988.999,0.35499 989.155,0.35499 C 989.155,0.51124 989.233,0.589365 989.233,0.66749 C 989.233,0.901865 989.155,1.05812 989.077,1.21437 C 988.999,1.37062 988.842,1.44874 988.686,1.37062 C 988.452,1.44874 988.295,1.37062 988.217,1.21437 C 987.983,1.05812 987.905,0.82374 987.983,0.51124 C 987.905,-0.11376 988.217,-0.58251 988.764,-1.05126 C 989.311,-1.36376 989.936,-1.59813 990.717,-1.67626 C 991.499,-1.59813 992.124,-1.36376 992.67,-0.89501 C 993.139,-0.348135 993.452,0.276865 993.452,0.82374 C 993.452,1.52687 993.295,1.99562 992.983,2.38624 C 992.67,2.85499 992.124,3.16749 991.499,3.32374 C 992.358,3.71437 992.983,4.18312 993.374,4.72999 C 993.686,5.27687 993.92,5.82374 993.92,6.29249 L 993.92,6.29249"/>
  </g>
  <g>
    <path style="fill: none; fill-opacity:0; stroke-width: 1; stroke-linecap: round; stroke: #000000" d="M 1008.13 2.31066 C 1008.05,1.60753 1007.9,1.06066 1007.66,0.59191 C 1007.27,0.27941 1006.8,0.0450346 1006.18,-0.0330904 C 1005.63,0.0450346 1005.16,0.201285 1004.85,0.357535 C 1004.46,0.670035 1004.3,0.982535 1004.38,1.37316 C 1004.3,1.68566 1004.38,1.92003 1004.62,1.99816 C 1004.62,2.31066 1004.69,2.46691 1004.77,2.54503 C 1004.69,2.77941 1004.62,2.93566 1004.62,3.01378 C 1004.46,3.17003 1004.3,3.24816 1004.15,3.17003 C 1003.83,3.24816 1003.68,3.17003 1003.52,2.93566 C 1003.37,2.85753 1003.29,2.62316 1003.37,2.23253 C 1003.29,1.45128 1003.6,0.74816 1004.3,0.201285 C 1004.85,-0.18934 1005.48,-0.423715 1006.26,-0.50184 C 1007.19,-0.423715 1007.98,-0.18934 1008.52,0.27941 C 1008.91,0.826285 1009.15,1.45128 1009.23,2.15441 C 1009.15,2.70128 1008.99,3.24816 1008.83,3.71691 C 1008.52,4.26378 1008.21,4.73253 1007.82,5.12316 C 1006.49,6.29503 1005.55,7.23253 1005.01,7.93566 C 1004.3,8.71691 1003.91,9.18566 1003.83,9.42003 L 1007.51,9.42003 C 1007.9,9.42003 1008.21,9.34191 1008.44,9.02941 C 1008.68,8.79503 1008.83,8.32628 1008.99,7.62316 L 1009.38,7.62316 L 1008.99,10.3575 L 1003.13,10.3575 L 1003.13,9.49816 C 1003.29,9.18566 1003.6,8.71691 1004.15,8.09191 C 1004.62,7.62316 1005.32,6.92003 1006.1,6.06066 C 1006.8,5.35753 1007.27,4.65441 1007.66,4.02941 C 1007.9,3.40441 1008.05,2.85753 1008.13,2.31066 L 1008.13,2.31066"/>
    <path style="fill: none; fill-opacity:0; stroke-width: 1; stroke-linecap: round; stroke: #000000" d="M 1016.1 9.18566 C 1016.02,9.49816 1016.1,9.73253 1016.33,9.81066 C 1016.41,9.96691 1016.65,10.045 1017.04,9.96691 L 1017.58,9.96691 L 1017.58,10.3575 L 1013.44,10.3575 L 1013.44,9.96691 L 1014.15,9.96691 C 1014.38,10.045 1014.62,9.96691 1014.85,9.81066 C 1014.93,9.73253 1015.01,9.49816 1015.08,9.18566 L 1015.08,7.07628 L 1010.87,7.07628 L 1010.87,6.76378 L 1015.48,-0.50184 L 1016.1,-0.50184 L 1016.1,6.68566 L 1017.74,6.68566 L 1017.74,7.07628 L 1016.1,7.07628 L 1016.1,9.18566"/>
    <path style="fill: none; fill-opacity:0; stroke-width: 1; stroke-linecap: round; stroke: #000000" d="M 1015.01 1.06066 L 1011.41,6.68566 L 1015.08,6.68566 L 1015.08,1.06066 L 1015.01,1.06066"/>
  </g>
  <g>
    <path style="fill: none; fill-opacity:0; stroke-width: 1; stroke-linecap: round; stroke: #000000" d="M 1150.98 8.64133 C 1150.98,9.5007 1150.66,10.2038 1150.04,10.7507 C 1149.41,11.3757 1148.56,11.6882 1147.62,11.6101 C 1146.84,11.6882 1146.21,11.4538 1145.66,10.9851 C 1145.12,10.5945 1144.88,10.1257 1144.88,9.57883 C 1144.88,9.34445 1144.96,9.11008 1145.12,8.95383 C 1145.27,8.79758 1145.43,8.71945 1145.66,8.64133 C 1145.82,8.71945 1145.98,8.79758 1146.13,8.95383 C 1146.21,9.11008 1146.29,9.26633 1146.29,9.42258 C 1146.29,9.65695 1146.21,9.8132 1146.21,9.89133 C 1146.06,10.0476 1146.06,10.2038 1146.06,10.3601 C 1146.06,10.5945 1146.21,10.8288 1146.52,10.9851 C 1146.84,11.2195 1147.15,11.2976 1147.54,11.2195 C 1148.24,11.2976 1148.79,11.0632 1149.26,10.5945 C 1149.57,10.1257 1149.81,9.42258 1149.81,8.48508 C 1149.81,7.78195 1149.57,7.23508 1149.18,6.6882 C 1148.79,6.29758 1148.09,6.0632 1146.99,5.98508 L 1146.99,5.59445 C 1147.77,5.67258 1148.32,5.51633 1148.79,5.04758 C 1149.1,4.73508 1149.34,4.11008 1149.41,3.32883 C 1149.34,2.78195 1149.18,2.3132 1148.95,1.84445 C 1148.56,1.45383 1148.09,1.21945 1147.54,1.14133 C 1147.15,1.21945 1146.84,1.29758 1146.52,1.3757 C 1146.21,1.61008 1146.06,1.84445 1146.06,2.07883 C 1146.06,2.46945 1146.06,2.70383 1146.21,2.70383 C 1146.21,2.86008 1146.29,2.9382 1146.29,3.01633 C 1146.29,3.2507 1146.21,3.40695 1146.13,3.5632 C 1146.06,3.71945 1145.9,3.79758 1145.74,3.71945 C 1145.51,3.79758 1145.35,3.71945 1145.27,3.5632 C 1145.04,3.40695 1144.96,3.17258 1145.04,2.86008 C 1144.96,2.23508 1145.27,1.76633 1145.82,1.29758 C 1146.37,0.985079 1146.99,0.750704 1147.77,0.672579 C 1148.56,0.750704 1149.18,0.985079 1149.73,1.45383 C 1150.2,2.0007 1150.51,2.6257 1150.51,3.17258 C 1150.51,3.8757 1150.35,4.34445 1150.04,4.73508 C 1149.73,5.20383 1149.18,5.51633 1148.56,5.67258 C 1149.41,6.0632 1150.04,6.53195 1150.43,7.07883 C 1150.74,7.6257 1150.98,8.17258 1150.98,8.64133 L 1150.98,8.64133"/>
    <path style="fill: none; fill-opacity:0; stroke-width: 1; stroke-linecap: round; stroke: #000000" d="M 1156.45 0.672579 L 1156.45,10.1257 C 1156.37,10.5163 1156.45,10.8288 1156.76,10.907 C 1156.91,11.1413 1157.23,11.2195 1157.7,11.1413 L 1158.32,11.1413 L 1158.32,11.532 L 1153.71,11.532 L 1153.71,11.1413 L 1154.26,11.1413 C 1154.65,11.2195 1154.96,11.1413 1155.2,10.907 C 1155.35,10.8288 1155.43,10.5163 1155.51,10.1257 L 1155.51,2.54758 C 1155.43,2.46945 1155.35,2.3132 1155.35,2.15695 C 1155.2,2.07883 1155.04,2.07883 1154.88,2.0007 L 1153.71,2.0007 L 1153.71,1.61008 L 1154.26,1.61008 C 1154.73,1.6882 1155.12,1.61008 1155.51,1.3757 C 1155.74,1.29758 1155.98,1.0632 1156.21,0.672579 L 1156.45,0.672579"/>
  </g>
  <g>
    <line style="fill: none; fill-opacity:0; stroke-width: 1; stroke-dasharray: 4; stroke: #000000" x1="696.853" y1="63.5587" x2="696.853" y2="146.529"/>
    <polygon style="fill: #000000" points="691.853,146.529 696.853,156.529 701.853,146.529 "/>
    <polygon style="fill: none; fill-opacity:0; stroke-width: 1; stroke: #000000" points="691.853,146.529 696.853,156.529 701.853,146.529 "/>
  </g>
  <g>
    <path style="fill: none; fill-opacity:0; stroke-width: 1; stroke-linecap: round; stroke: #000000" d="M 688.987 177.23 C 688.362,177.23 687.815,177.699 687.503,178.558 C 687.034,179.496 686.878,180.668 686.956,182.152 C 686.878,183.714 687.034,184.964 687.503,185.824 C 687.815,186.761 688.362,187.23 688.987,187.152 C 689.612,187.23 690.081,186.761 690.472,185.824 C 690.784,184.964 690.94,183.714 691.019,182.152 C 690.94,180.668 690.784,179.496 690.472,178.558 C 690.081,177.699 689.612,177.23 688.987,177.23 L 688.987,177.23"/>
    <path style="fill: none; fill-opacity:0; stroke-width: 1; stroke-linecap: round; stroke: #000000" d="M 688.987 187.621 C 688.05,187.699 687.269,187.23 686.722,186.214 C 686.019,185.355 685.706,183.949 685.784,182.152 C 685.706,180.589 686.019,179.339 686.644,178.246 C 687.269,177.308 688.05,176.761 688.987,176.683 C 689.925,176.761 690.628,177.23 691.253,178.168 C 691.8,179.105 692.112,180.433 692.19,182.152 C 692.112,183.871 691.8,185.277 691.253,186.214 C 690.628,187.23 689.925,187.699 688.987,187.621 L 688.987,187.621"/>
  </g>
  <g>
    <path style="fill: #ffffff" d="M 855.602 91.3033 L 1028.6,91.3033 L 1028.6,134.503 C 994.002,127.303 976.702,127.303 942.102,134.503 C 907.502,141.703 890.202,141.703 855.602,134.503 L 855.602,91.3033z"/>
    <path style="fill: none; fill-opacity:0; stroke-width: 0.02; stroke: #000000" d="M 855.602 91.3033 L 1028.6,91.3033 L 1028.6,134.503 C 994.002,127.303 976.702,127.303 942.102,134.503 C 907.502,141.703 890.202,141.703 855.602,134.503 L 855.602,91.3033"/>
    <text font-size="12.8" style="fill: #000000;text-anchor:middle;font-family:monospace;font-style:normal;font-weight:normal" x="942.102" y="104.503">
      <tspan x="942.102" y="104.503">多播组地址中的低23位复制到</tspan>
      <tspan x="942.102" y="120.503">对应的以太网地址中</tspan>
    </text>
  </g>
  <line style="fill: none; fill-opacity:0; stroke-width: 1; stroke-dasharray: 4; stroke: #000000" x1="696.853" y1="110.294" x2="1157.72" y2="110.528"/>
  <g>
    <line style="fill: none; fill-opacity:0; stroke-width: 1; stroke-dasharray: 4; stroke: #000000" x1="1157.72" y1="63.7926" x2="1157.72" y2="146.763"/>
    <polygon style="fill: #000000" points="1152.72,146.763 1157.72,156.763 1162.72,146.763 "/>
    <polygon style="fill: none; fill-opacity:0; stroke-width: 1; stroke: #000000" points="1152.72,146.763 1157.72,156.763 1162.72,146.763 "/>
  </g>
  <g>
    <line style="fill: none; fill-opacity:0; stroke-width: 1; stroke: #000000" x1="607.132" y1="-18.4222" x2="693.144" y2="-18.3603"/>
    <polygon style="fill: #000000" points="607.134,-21.4222 601.132,-18.4265 607.13,-15.4222 "/>
    <polygon style="fill: none; fill-opacity:0; stroke-width: 1; stroke: #000000" points="607.134,-21.4222 601.132,-18.4265 607.13,-15.4222 "/>
    <polygon style="fill: #000000" points="693.141,-15.3603 699.144,-18.356 693.146,-21.3603 "/>
    <polygon style="fill: none; fill-opacity:0; stroke-width: 1; stroke: #000000" points="693.141,-15.3603 699.144,-18.356 693.146,-21.3603 "/>
  </g>
  <line style="fill: none; fill-opacity:0; stroke-width: 1; stroke-dasharray: 4; stroke: #000000" x1="599.092" y1="-14.2494" x2="599.11" y2="13.2581"/>
  <line style="fill: none; fill-opacity:0; stroke-width: 1; stroke-dasharray: 4; stroke: #000000" x1="698.866" y1="-14.4335" x2="698.884" y2="13.074"/>
  <path style="fill: none; fill-opacity:0; stroke-width: 1; stroke-dasharray: 4; stroke: #000000" d="M 714.403,-73.0156 A 95.9523,95.9523 0 0 0 649.34,-21.7663"/>
  <g>
    <path style="fill: #ffffff" d="M 714.403 -94.7356 L 867.103,-94.7356 L 867.103,-51.2956 C 836.563,-58.5356 821.293,-58.5356 790.753,-51.2956 C 760.213,-44.0556 744.943,-44.0556 714.403,-51.2956 L 714.403,-94.7356z"/>
    <path style="fill: none; fill-opacity:0; stroke-width: 0.2; stroke-dasharray: 4; stroke: #000000" d="M 714.403 -94.7356 L 867.103,-94.7356 L 867.103,-51.2956 C 836.563,-58.5356 821.293,-58.5356 790.753,-51.2956 C 760.213,-44.0556 744.943,-44.0556 714.403,-51.2956 L 714.403,-94.7356"/>
    <text font-size="12.8" style="fill: #000000;text-anchor:middle;font-family:monospace;font-style:normal;font-weight:normal" x="790.753" y="-81.4356">
      <tspan x="790.753" y="-81.4356">多播组地址中的这5位未用</tspan>
      <tspan x="790.753" y="-65.4356">作形成以太网地址</tspan>
    </text>
  </g>
  <g>
    <path style="fill: #ffffff" d="M 631.844 202.64 L 729.244,202.64 L 729.244,236.926 C 709.764,231.212 700.024,231.212 680.544,236.926 C 661.064,242.64 651.324,242.64 631.844,236.926 L 631.844,202.64z"/>
    <path style="fill: none; fill-opacity:0; stroke-width: 0.02; stroke: #000000" d="M 631.844 202.64 L 729.244,202.64 L 729.244,236.926 C 709.764,231.212 700.024,231.212 680.544,236.926 C 661.064,242.64 651.324,242.64 631.844,236.926 L 631.844,202.64"/>
    <text font-size="12.8" style="fill: #000000;text-anchor:middle;font-family:monospace;font-style:normal;font-weight:700" x="680.544" y="219.326">
      <tspan x="680.544" y="219.326">48位以太网地址</tspan>
    </text>
  </g>
  <g>
    <path style="fill: #ffffff" d="M 576.188 225.875 L 784.388,225.875 L 784.388,249.875 C 742.748,245.875 721.928,245.875 680.288,249.875 C 638.648,253.875 617.828,253.875 576.188,249.875 L 576.188,225.875z"/>
    <path style="fill: none; fill-opacity:0; stroke-width: 0.02; stroke: #000000" d="M 576.188 225.875 L 784.388,225.875 L 784.388,249.875 C 742.748,245.875 721.928,245.875 680.288,249.875 C 638.648,253.875 617.828,253.875 576.188,249.875 L 576.188,225.875"/>
    <text font-size="12.8" style="fill: #000000;text-anchor:middle;font-family:monospace;font-style:normal;font-weight:700" x="680.288" y="238.275">
      <tspan x="680.288" y="238.275">D类IP地址到以太网多播地址的映射</tspan>
    </text>
  </g>
  <path style="fill: none; fill-opacity:0; stroke-width: 2; stroke-dasharray: 4; stroke: #000000" d="M 336.25,130.152 A 70.148,70.148 0 0 0 349.619,156.529"/>
  <g>
    <path style="fill: #ffffff" d="M 203.187 28.3204 L 473.987,28.3204 L 473.987,129.36 C 419.827,112.52 392.747,112.52 338.587,129.36 C 284.427,146.2 257.347,146.2 203.187,129.36 L 203.187,28.3204z"/>
    <path style="fill: none; fill-opacity:0; stroke-width: 0.2; stroke-dasharray: 4; stroke: #000000" d="M 203.187 28.3204 L 473.987,28.3204 L 473.987,129.36 C 419.827,112.52 392.747,112.52 338.587,129.36 C 284.427,146.2 257.347,146.2 203.187,129.36 L 203.187,28.3204"/>
    <text font-size="12.8" style="fill: #000000;text-anchor:middle;font-family:monospace;font-style:normal;font-weight:normal" x="338.587" y="41.6204">
      <tspan x="338.587" y="41.6204">最高字节的最低位设置为1时表示地址是</tspan>
      <tspan x="338.587" y="57.6204">一个多播地址，</tspan>
      <tspan x="338.587" y="73.6204">用十六进制可以表示为 01:00:00:00:00:00</tspan>
      <tspan x="338.587" y="89.6204"> (以太网广播地址 ff:ff:ff:ff:ff:ff </tspan>
      <tspan x="338.587" y="105.62">可以看作是以太网多播地址的特例)</tspan>
    </text>
  </g>
  <g>
    <rect style="fill: #ffffff" x="400.341" y="301.464" width="639.405" height="74.0923"/>
    <rect style="fill: none; fill-opacity:0; stroke-width: 2; stroke: #000000" x="400.341" y="301.464" width="639.405" height="74.0923"/>
    <text font-size="12.8" style="fill: #000000;text-anchor:middle;font-family:monospace;font-style:normal;font-weight:normal" x="720.044" y="341.16">
      <tspan x="720.044" y="341.16"></tspan>
    </text>
  </g>
  <g>
    <path style="fill: #ffffff" d="M 424.855 301.655 L 461.655,301.655 L 461.655,366.455 C 454.295,355.655 450.615,355.655 443.255,366.455 C 435.895,377.255 432.215,377.255 424.855,366.455 L 424.855,301.655z"/>
    <path style="fill: none; fill-opacity:0; stroke-width: 2.35099e-037; stroke: #000000" d="M 424.855 301.655 L 461.655,301.655 L 461.655,366.455 C 454.295,355.655 450.615,355.655 443.255,366.455 C 435.895,377.255 432.215,377.255 424.855,366.455 L 424.855,301.655"/>
    <text font-size="12.8" style="fill: #000000;text-anchor:middle;font-family:monospace;font-style:normal;font-weight:normal" x="443.255" y="315.855">
      <tspan x="443.255" y="315.855">4位</tspan>
      <tspan x="443.255" y="331.855">IGMP</tspan>
      <tspan x="443.255" y="347.855">版本</tspan>
    </text>
  </g>
  <g>
    <path style="fill: #ffffff" d="M 483.015 301.747 L 553.115,301.747 L 553.115,366.547 C 539.095,355.747 532.085,355.747 518.065,366.547 C 504.045,377.347 497.035,377.347 483.015,366.547 L 483.015,301.747z"/>
    <path style="fill: none; fill-opacity:0; stroke-width: 2.35099e-037; stroke: #000000" d="M 483.015 301.747 L 553.115,301.747 L 553.115,366.547 C 539.095,355.747 532.085,355.747 518.065,366.547 C 504.045,377.347 497.035,377.347 483.015,366.547 L 483.015,301.747"/>
    <text font-size="12.8" style="fill: #000000;text-anchor:middle;font-family:monospace;font-style:normal;font-weight:normal" x="518.065" y="315.947">
      <tspan x="518.065" y="315.947">4位</tspan>
      <tspan x="518.065" y="331.947">IGMP</tspan>
      <tspan x="518.065" y="347.947">类型(1-2)</tspan>
    </text>
  </g>
  <g>
    <path style="fill: #ffffff" d="M 622.366 303.147 L 656.616,303.147 L 656.616,365.547 C 649.766,355.147 646.341,355.147 639.491,365.547 C 632.641,375.947 629.216,375.947 622.366,365.547 L 622.366,303.147z"/>
    <path style="fill: none; fill-opacity:0; stroke-width: 2.35099e-037; stroke: #000000" d="M 622.366 303.147 L 656.616,303.147 L 656.616,365.547 C 649.766,355.147 646.341,355.147 639.491,365.547 C 632.641,375.947 629.216,375.947 622.366,365.547 L 622.366,303.147"/>
    <text font-size="12.8" style="fill: #000000;text-anchor:middle;font-family:monospace;font-style:normal;font-weight:normal" x="639.491" y="332.347">
      <tspan x="639.491" y="332.347">未用</tspan>
    </text>
  </g>
  <g>
    <path style="fill: #ffffff" d="M 858.604 304.853 L 903.004,304.853 L 903.004,367.253 C 894.124,356.853 889.684,356.853 880.804,367.253 C 871.924,377.653 867.484,377.653 858.604,367.253 L 858.604,304.853z"/>
    <path style="fill: none; fill-opacity:0; stroke-width: 2.35099e-037; stroke: #000000" d="M 858.604 304.853 L 903.004,304.853 L 903.004,367.253 C 894.124,356.853 889.684,356.853 880.804,367.253 C 871.924,377.653 867.484,377.653 858.604,367.253 L 858.604,304.853"/>
    <text font-size="12.8" style="fill: #000000;text-anchor:middle;font-family:monospace;font-style:normal;font-weight:normal" x="880.804" y="334.053">
      <tspan x="880.804" y="334.053">校验和</tspan>
    </text>
  </g>
  <g>
    <path style="fill: #ffffff" d="M 657.6 451.016 L 784,451.016 L 784,477.416 C 758.72,473.016 746.08,473.016 720.8,477.416 C 695.52,481.816 682.88,481.816 657.6,477.416 L 657.6,451.016z"/>
    <path style="fill: none; fill-opacity:0; stroke-width: 2.35099e-037; stroke: #000000" d="M 657.6 451.016 L 784,451.016 L 784,477.416 C 758.72,473.016 746.08,473.016 720.8,477.416 C 695.52,481.816 682.88,481.816 657.6,477.416 L 657.6,451.016"/>
    <text font-size="12.8" style="fill: #000000;text-anchor:middle;font-family:monospace;font-style:normal;font-weight:700" x="720.8" y="464.416">
      <tspan x="720.8" y="464.416">IGMP报文的字段格式</tspan>
    </text>
  </g>
  <line style="fill: none; fill-opacity:0; stroke-width: 2; stroke: #000000" x1="719.275" y1="303.316" x2="719.275" y2="374.788"/>
  <g>
    <path style="fill: none; fill-opacity:0; stroke-width: 1; stroke-linecap: round; stroke: #000000" d="M 402.431 279.77 C 401.806,279.77 401.259,280.239 400.946,281.098 C 400.477,282.036 400.321,283.208 400.399,284.692 C 400.321,286.255 400.477,287.505 400.946,288.364 C 401.259,289.301 401.806,289.77 402.431,289.692 C 403.056,289.77 403.524,289.301 403.915,288.364 C 404.227,287.505 404.384,286.255 404.462,284.692 C 404.384,283.208 404.227,282.036 403.915,281.098 C 403.524,280.239 403.056,279.77 402.431,279.77 L 402.431,279.77"/>
    <path style="fill: none; fill-opacity:0; stroke-width: 1; stroke-linecap: round; stroke: #000000" d="M 402.431 290.161 C 401.493,290.239 400.712,289.77 400.165,288.755 C 399.462,287.895 399.149,286.489 399.227,284.692 C 399.149,283.13 399.462,281.88 400.087,280.786 C 400.712,279.848 401.493,279.301 402.431,279.223 C 403.368,279.301 404.071,279.77 404.696,280.708 C 405.243,281.645 405.556,282.973 405.634,284.692 C 405.556,286.411 405.243,287.817 404.696,288.755 C 404.071,289.77 403.368,290.239 402.431,290.161 L 402.431,290.161"/>
  </g>
  <path style="fill: none; fill-opacity:0; stroke-width: 1; stroke-linecap: round; stroke: #000000" d="M 554.982 283.215 C 554.122,284.7 553.419,286.028 552.95,287.356 C 552.403,288.762 552.169,289.934 552.169,290.872 C 552.169,291.028 552.169,291.262 552.169,291.575 C 552.169,291.887 552.169,292.278 552.169,292.668 C 552.169,293.059 552.091,293.293 552.013,293.372 C 551.857,293.528 551.7,293.606 551.544,293.528 C 551.31,293.606 551.153,293.528 550.997,293.372 C 550.841,293.293 550.763,293.059 550.763,292.59 C 550.763,291.809 550.919,290.793 551.31,289.622 C 551.622,288.528 552.56,286.575 554.122,283.684 L 550.997,283.684 C 550.528,283.762 550.138,283.918 549.903,284.153 C 549.591,284.465 549.435,284.856 549.357,285.403 L 548.966,285.403 L 549.357,282.747 L 554.982,282.747 L 554.982,283.215"/>
  <g>
    <path style="fill: none; fill-opacity:0; stroke-width: 1; stroke-linecap: round; stroke: #000000" d="M 564.506 291.028 C 564.427,291.731 564.662,292.278 565.131,292.668 C 565.521,293.137 566.068,293.372 566.849,293.293 C 567.552,293.372 568.099,293.137 568.49,292.668 C 568.802,292.278 569.037,291.809 569.037,291.106 C 569.037,290.637 568.724,290.09 568.256,289.543 C 567.709,289.075 567.006,288.606 566.068,288.137 C 565.521,288.528 565.131,288.997 564.896,289.465 C 564.584,290.012 564.427,290.481 564.506,291.028 L 564.506,291.028"/>
    <path style="fill: none; fill-opacity:0; stroke-width: 1; stroke-linecap: round; stroke: #000000" d="M 569.974 290.872 C 569.974,291.809 569.662,292.434 569.115,292.903 C 568.49,293.45 567.709,293.762 566.849,293.684 C 565.912,293.762 565.209,293.45 564.584,292.903 C 563.959,292.434 563.646,291.809 563.646,291.028 C 563.646,290.325 563.802,289.778 564.115,289.231 C 564.427,288.762 564.896,288.293 565.677,287.903 C 565.052,287.668 564.662,287.278 564.349,286.809 C 564.037,286.418 563.881,285.95 563.881,285.325 C 563.881,284.7 564.115,284.075 564.662,283.528 C 565.209,283.059 565.99,282.825 566.927,282.747 C 567.787,282.825 568.49,283.059 569.037,283.528 C 569.584,284.075 569.818,284.7 569.896,285.325 C 569.818,285.872 569.662,286.34 569.427,286.809 C 569.037,287.278 568.568,287.668 567.943,287.903 C 568.646,288.372 569.193,288.84 569.506,289.309 C 569.818,289.856 569.974,290.403 569.974,290.872 L 569.974,290.872"/>
    <path style="fill: none; fill-opacity:0; stroke-width: 1; stroke-linecap: round; stroke: #000000" d="M 569.037 285.403 C 569.037,284.856 568.802,284.387 568.49,283.918 C 568.099,283.528 567.631,283.293 566.927,283.215 C 566.146,283.293 565.521,283.528 565.209,283.84 C 564.818,284.309 564.662,284.7 564.74,285.168 C 564.662,285.637 564.896,286.106 565.443,286.497 C 565.912,286.965 566.615,287.356 567.474,287.668 C 567.943,287.434 568.334,287.122 568.646,286.731 C 568.881,286.418 569.037,285.95 569.037,285.403 L 569.037,285.403"/>
  </g>
  <g>
    <path style="fill: none; fill-opacity:0; stroke-width: 1; stroke-linecap: round; stroke: #000000" d="M 703.142 282.159 L 703.142,291.612 C 703.064,292.003 703.142,292.316 703.454,292.394 C 703.61,292.628 703.923,292.706 704.392,292.628 L 705.017,292.628 L 705.017,293.019 L 700.407,293.019 L 700.407,292.628 L 700.954,292.628 C 701.345,292.706 701.657,292.628 701.892,292.394 C 702.048,292.316 702.126,292.003 702.204,291.612 L 702.204,284.034 C 702.126,283.956 702.048,283.8 702.048,283.644 C 701.892,283.566 701.735,283.566 701.579,283.487 L 700.407,283.487 L 700.407,283.097 L 700.954,283.097 C 701.423,283.175 701.814,283.097 702.204,282.862 C 702.439,282.784 702.673,282.55 702.907,282.159 L 703.142,282.159"/>
    <path style="fill: none; fill-opacity:0; stroke-width: 1; stroke-linecap: round; stroke: #000000" d="M 710.876 286.144 C 711.579,286.222 712.204,286.534 712.829,287.081 C 713.298,287.706 713.61,288.487 713.61,289.425 C 713.61,290.597 713.298,291.534 712.829,292.159 C 712.204,292.862 711.423,293.175 710.407,293.097 C 709.548,293.175 708.845,292.941 708.376,292.472 C 707.751,292.081 707.517,291.534 707.517,290.909 C 707.517,290.675 707.595,290.519 707.751,290.284 C 707.907,290.128 708.064,289.972 708.298,289.972 C 708.532,289.972 708.689,290.05 708.767,290.206 C 708.845,290.362 708.923,290.519 708.923,290.597 C 708.923,290.909 708.845,291.144 708.767,291.222 C 708.61,291.456 708.532,291.612 708.61,291.691 C 708.532,292.081 708.767,292.316 709.157,292.472 C 709.548,292.706 709.939,292.784 710.485,292.706 C 711.032,292.784 711.579,292.55 711.97,291.925 C 712.282,291.456 712.439,290.675 712.517,289.581 C 712.439,288.8 712.282,288.097 712.048,287.55 C 711.657,287.081 711.189,286.847 710.642,286.769 C 710.095,286.847 709.704,286.925 709.392,287.003 C 709.079,287.237 708.767,287.55 708.532,288.097 L 707.985,288.019 L 708.298,282.316 L 713.376,282.316 L 713.22,283.253 L 708.689,283.253 L 708.454,287.394 C 708.845,286.847 709.235,286.534 709.626,286.378 C 710.017,286.3 710.407,286.222 710.876,286.144 L 710.876,286.144"/>
  </g>
  <g>
    <path style="fill: none; fill-opacity:0; stroke-width: 1; stroke-linecap: round; stroke: #000000" d="M 724.222 283.334 L 724.222,292.787 C 724.144,293.178 724.222,293.49 724.535,293.568 C 724.691,293.803 725.004,293.881 725.472,293.803 L 726.097,293.803 L 726.097,294.193 L 721.488,294.193 L 721.488,293.803 L 722.035,293.803 C 722.426,293.881 722.738,293.803 722.972,293.568 C 723.129,293.49 723.207,293.178 723.285,292.787 L 723.285,285.209 C 723.207,285.131 723.129,284.974 723.129,284.818 C 722.972,284.74 722.816,284.74 722.66,284.662 L 721.488,284.662 L 721.488,284.271 L 722.035,284.271 C 722.504,284.349 722.894,284.271 723.285,284.037 C 723.519,283.959 723.754,283.724 723.988,283.334 L 724.222,283.334"/>
    <path style="fill: none; fill-opacity:0; stroke-width: 1; stroke-linecap: round; stroke: #000000" d="M 729.613 289.896 C 729.535,291.224 729.769,292.24 730.238,292.865 C 730.707,293.646 731.254,293.959 731.879,293.881 C 732.504,293.959 732.972,293.724 733.285,293.178 C 733.597,292.787 733.754,291.928 733.754,290.599 C 733.754,289.818 733.519,289.193 733.207,288.724 C 732.816,288.334 732.426,288.099 731.957,288.021 C 731.41,288.099 730.941,288.256 730.629,288.412 C 730.16,288.724 729.847,289.193 729.613,289.896 L 729.613,289.896"/>
    <path style="fill: none; fill-opacity:0; stroke-width: 1; stroke-linecap: round; stroke: #000000" d="M 732.035 287.396 C 732.972,287.396 733.676,287.787 734.144,288.412 C 734.535,289.115 734.769,289.818 734.847,290.599 C 734.769,291.928 734.457,292.865 733.91,293.412 C 733.285,294.037 732.66,294.349 731.879,294.271 C 730.707,294.349 729.847,293.881 729.301,293.021 C 728.676,292.24 728.363,290.99 728.441,289.271 C 728.363,287.396 728.676,285.99 729.457,284.896 C 730.082,283.959 731.097,283.412 732.347,283.334 C 732.894,283.412 733.363,283.568 733.754,283.881 C 734.066,284.193 734.222,284.506 734.301,284.74 C 734.222,285.053 734.144,285.287 734.144,285.365 C 733.988,285.521 733.832,285.521 733.597,285.521 C 733.363,285.521 733.207,285.521 733.129,285.365 C 732.972,285.365 732.894,285.209 732.972,284.896 C 732.894,284.896 732.972,284.74 733.051,284.584 C 733.051,284.584 733.051,284.506 733.051,284.349 C 733.051,284.193 732.972,284.115 732.816,283.959 C 732.66,283.959 732.426,283.881 732.191,283.803 C 731.41,283.881 730.785,284.193 730.316,284.818 C 729.769,285.443 729.535,286.849 729.613,288.959 C 729.847,288.49 730.16,288.099 730.629,287.787 C 730.941,287.553 731.41,287.396 732.035,287.396 L 732.035,287.396"/>
  </g>
  <g>
    <path style="fill: none; fill-opacity:0; stroke-width: 1; stroke-linecap: round; stroke: #000000" d="M 866.185 285.559 C 866.107,284.856 865.951,284.309 865.717,283.84 C 865.326,283.528 864.857,283.293 864.232,283.215 C 863.685,283.293 863.217,283.45 862.904,283.606 C 862.513,283.918 862.357,284.231 862.435,284.622 C 862.357,284.934 862.435,285.168 862.67,285.247 C 862.67,285.559 862.748,285.715 862.826,285.793 C 862.748,286.028 862.67,286.184 862.67,286.262 C 862.513,286.418 862.357,286.497 862.201,286.418 C 861.888,286.497 861.732,286.418 861.576,286.184 C 861.42,286.106 861.342,285.872 861.42,285.481 C 861.342,284.7 861.654,283.997 862.357,283.45 C 862.904,283.059 863.529,282.825 864.31,282.747 C 865.248,282.825 866.029,283.059 866.576,283.528 C 866.967,284.075 867.201,284.7 867.279,285.403 C 867.201,285.95 867.045,286.497 866.888,286.965 C 866.576,287.512 866.263,287.981 865.873,288.372 C 864.545,289.543 863.607,290.481 863.06,291.184 C 862.357,291.965 861.967,292.434 861.888,292.668 L 865.56,292.668 C 865.951,292.668 866.263,292.59 866.498,292.278 C 866.732,292.043 866.888,291.575 867.045,290.872 L 867.435,290.872 L 867.045,293.606 L 861.185,293.606 L 861.185,292.747 C 861.342,292.434 861.654,291.965 862.201,291.34 C 862.67,290.872 863.373,290.168 864.154,289.309 C 864.857,288.606 865.326,287.903 865.717,287.278 C 865.951,286.653 866.107,286.106 866.185,285.559 L 866.185,285.559"/>
    <path style="fill: none; fill-opacity:0; stroke-width: 1; stroke-linecap: round; stroke: #000000" d="M 875.404 290.715 C 875.404,291.575 875.092,292.278 874.467,292.825 C 873.842,293.45 872.982,293.762 872.045,293.684 C 871.263,293.762 870.638,293.528 870.092,293.059 C 869.545,292.668 869.31,292.2 869.31,291.653 C 869.31,291.418 869.388,291.184 869.545,291.028 C 869.701,290.872 869.857,290.793 870.092,290.715 C 870.248,290.793 870.404,290.872 870.56,291.028 C 870.638,291.184 870.717,291.34 870.717,291.497 C 870.717,291.731 870.638,291.887 870.638,291.965 C 870.482,292.122 870.482,292.278 870.482,292.434 C 870.482,292.668 870.638,292.903 870.951,293.059 C 871.263,293.293 871.576,293.372 871.967,293.293 C 872.67,293.372 873.217,293.137 873.685,292.668 C 873.998,292.2 874.232,291.497 874.232,290.559 C 874.232,289.856 873.998,289.309 873.607,288.762 C 873.217,288.372 872.513,288.137 871.42,288.059 L 871.42,287.668 C 872.201,287.747 872.748,287.59 873.217,287.122 C 873.529,286.809 873.763,286.184 873.842,285.403 C 873.763,284.856 873.607,284.387 873.373,283.918 C 872.982,283.528 872.513,283.293 871.967,283.215 C 871.576,283.293 871.263,283.372 870.951,283.45 C 870.638,283.684 870.482,283.918 870.482,284.153 C 870.482,284.543 870.482,284.778 870.638,284.778 C 870.638,284.934 870.717,285.012 870.717,285.09 C 870.717,285.325 870.638,285.481 870.56,285.637 C 870.482,285.793 870.326,285.872 870.17,285.793 C 869.935,285.872 869.779,285.793 869.701,285.637 C 869.467,285.481 869.388,285.247 869.467,284.934 C 869.388,284.309 869.701,283.84 870.248,283.372 C 870.795,283.059 871.42,282.825 872.201,282.747 C 872.982,282.825 873.607,283.059 874.154,283.528 C 874.623,284.075 874.935,284.7 874.935,285.247 C 874.935,285.95 874.779,286.418 874.467,286.809 C 874.154,287.278 873.607,287.59 872.982,287.747 C 873.842,288.137 874.467,288.606 874.857,289.153 C 875.17,289.7 875.404,290.247 875.404,290.715 L 875.404,290.715"/>
  </g>
  <g>
    <path style="fill: none; fill-opacity:0; stroke-width: 1; stroke-linecap: round; stroke: #000000" d="M 889.615 286.733 C 889.537,286.03 889.381,285.483 889.146,285.015 C 888.756,284.702 888.287,284.468 887.662,284.39 C 887.115,284.468 886.646,284.624 886.334,284.78 C 885.943,285.093 885.787,285.405 885.865,285.796 C 885.787,286.108 885.865,286.343 886.099,286.421 C 886.099,286.733 886.177,286.89 886.256,286.968 C 886.177,287.202 886.099,287.358 886.099,287.437 C 885.943,287.593 885.787,287.671 885.631,287.593 C 885.318,287.671 885.162,287.593 885.006,287.358 C 884.849,287.28 884.771,287.046 884.849,286.655 C 884.771,285.874 885.084,285.171 885.787,284.624 C 886.334,284.233 886.959,283.999 887.74,283.921 C 888.677,283.999 889.459,284.233 890.006,284.702 C 890.396,285.249 890.631,285.874 890.709,286.577 C 890.631,287.124 890.474,287.671 890.318,288.14 C 890.006,288.687 889.693,289.155 889.302,289.546 C 887.974,290.718 887.037,291.655 886.49,292.358 C 885.787,293.14 885.396,293.608 885.318,293.843 L 888.99,293.843 C 889.381,293.843 889.693,293.765 889.927,293.452 C 890.162,293.218 890.318,292.749 890.474,292.046 L 890.865,292.046 L 890.474,294.78 L 884.615,294.78 L 884.615,293.921 C 884.771,293.608 885.084,293.14 885.631,292.515 C 886.099,292.046 886.802,291.343 887.584,290.483 C 888.287,289.78 888.756,289.077 889.146,288.452 C 889.381,287.827 889.537,287.28 889.615,286.733 L 889.615,286.733"/>
    <path style="fill: none; fill-opacity:0; stroke-width: 1; stroke-linecap: round; stroke: #000000" d="M 897.584 293.608 C 897.506,293.921 897.584,294.155 897.818,294.233 C 897.896,294.39 898.131,294.468 898.521,294.39 L 899.068,294.39 L 899.068,294.78 L 894.927,294.78 L 894.927,294.39 L 895.631,294.39 C 895.865,294.468 896.099,294.39 896.334,294.233 C 896.412,294.155 896.49,293.921 896.568,293.608 L 896.568,291.499 L 892.349,291.499 L 892.349,291.187 L 896.959,283.921 L 897.584,283.921 L 897.584,291.108 L 899.224,291.108 L 899.224,291.499 L 897.584,291.499 L 897.584,293.608"/>
    <path style="fill: none; fill-opacity:0; stroke-width: 1; stroke-linecap: round; stroke: #000000" d="M 896.49 285.483 L 892.896,291.108 L 896.568,291.108 L 896.568,285.483 L 896.49,285.483"/>
  </g>
  <g>
    <path style="fill: none; fill-opacity:0; stroke-width: 1; stroke-linecap: round; stroke: #000000" d="M 1032.46 293.064 C 1032.46,293.924 1032.15,294.627 1031.52,295.174 C 1030.9,295.799 1030.04,296.111 1029.1,296.033 C 1028.32,296.111 1027.7,295.877 1027.15,295.408 C 1026.6,295.017 1026.37,294.549 1026.37,294.002 C 1026.37,293.767 1026.45,293.533 1026.6,293.377 C 1026.76,293.22 1026.91,293.142 1027.15,293.064 C 1027.3,293.142 1027.46,293.22 1027.62,293.377 C 1027.7,293.533 1027.77,293.689 1027.77,293.845 C 1027.77,294.08 1027.7,294.236 1027.7,294.314 C 1027.54,294.47 1027.54,294.627 1027.54,294.783 C 1027.54,295.017 1027.7,295.252 1028.01,295.408 C 1028.32,295.642 1028.63,295.72 1029.02,295.642 C 1029.73,295.72 1030.27,295.486 1030.74,295.017 C 1031.05,294.549 1031.29,293.845 1031.29,292.908 C 1031.29,292.205 1031.05,291.658 1030.66,291.111 C 1030.27,290.72 1029.57,290.486 1028.48,290.408 L 1028.48,290.017 C 1029.26,290.095 1029.8,289.939 1030.27,289.47 C 1030.59,289.158 1030.82,288.533 1030.9,287.752 C 1030.82,287.205 1030.66,286.736 1030.43,286.267 C 1030.04,285.877 1029.57,285.642 1029.02,285.564 C 1028.63,285.642 1028.32,285.72 1028.01,285.799 C 1027.7,286.033 1027.54,286.267 1027.54,286.502 C 1027.54,286.892 1027.54,287.127 1027.7,287.127 C 1027.7,287.283 1027.77,287.361 1027.77,287.439 C 1027.77,287.674 1027.7,287.83 1027.62,287.986 C 1027.54,288.142 1027.38,288.22 1027.23,288.142 C 1026.99,288.22 1026.84,288.142 1026.76,287.986 C 1026.52,287.83 1026.45,287.595 1026.52,287.283 C 1026.45,286.658 1026.76,286.189 1027.3,285.72 C 1027.85,285.408 1028.48,285.174 1029.26,285.095 C 1030.04,285.174 1030.66,285.408 1031.21,285.877 C 1031.68,286.424 1031.99,287.049 1031.99,287.595 C 1031.99,288.299 1031.84,288.767 1031.52,289.158 C 1031.21,289.627 1030.66,289.939 1030.04,290.095 C 1030.9,290.486 1031.52,290.955 1031.91,291.502 C 1032.23,292.049 1032.46,292.595 1032.46,293.064 L 1032.46,293.064"/>
    <path style="fill: none; fill-opacity:0; stroke-width: 1; stroke-linecap: round; stroke: #000000" d="M 1037.93 285.095 L 1037.93,294.549 C 1037.85,294.939 1037.93,295.252 1038.24,295.33 C 1038.4,295.564 1038.71,295.642 1039.18,295.564 L 1039.8,295.564 L 1039.8,295.955 L 1035.2,295.955 L 1035.2,295.564 L 1035.74,295.564 C 1036.13,295.642 1036.45,295.564 1036.68,295.33 C 1036.84,295.252 1036.91,294.939 1036.99,294.549 L 1036.99,286.97 C 1036.91,286.892 1036.84,286.736 1036.84,286.58 C 1036.68,286.502 1036.52,286.502 1036.37,286.424 L 1035.2,286.424 L 1035.2,286.033 L 1035.74,286.033 C 1036.21,286.111 1036.6,286.033 1036.99,285.799 C 1037.23,285.72 1037.46,285.486 1037.7,285.095 L 1037.93,285.095"/>
  </g>
  <line style="fill: none; fill-opacity:0; stroke-width: 2; stroke: #000000" x1="478.653" y1="303.316" x2="478.653" y2="374.788"/>
  <line style="fill: none; fill-opacity:0; stroke-width: 2; stroke: #000000" x1="560.884" y1="303.316" x2="560.884" y2="374.788"/>
  <g>
    <rect style="fill: #ffffff" x="400.265" y="375.556" width="639.405" height="74.0923"/>
    <rect style="fill: none; fill-opacity:0; stroke-width: 2; stroke: #000000" x="400.265" y="375.556" width="639.405" height="74.0923"/>
    <text font-size="12.8" style="fill: #000000;text-anchor:middle;font-family:monospace;font-style:normal;font-weight:normal" x="719.967" y="415.252">
      <tspan x="719.967" y="415.252"></tspan>
    </text>
  </g>
  <g>
    <path style="fill: #ffffff" d="M 645.312 392.601 L 794.812,392.601 L 794.812,419.001 C 764.912,414.601 749.962,414.601 720.062,419.001 C 690.162,423.401 675.212,423.401 645.312,419.001 L 645.312,392.601z"/>
    <path style="fill: none; fill-opacity:0; stroke-width: 2.35099e-037; stroke: #000000" d="M 645.312 392.601 L 794.812,392.601 L 794.812,419.001 C 764.912,414.601 749.962,414.601 720.062,419.001 C 690.162,423.401 675.212,423.401 645.312,419.001 L 645.312,392.601"/>
    <text font-size="12.8" style="fill: #000000;text-anchor:middle;font-family:monospace;font-style:normal;font-weight:normal" x="720.062" y="406.801">
      <tspan x="720.062" y="406.801">32位组地址(D类IP地址)</tspan>
    </text>
  </g>
  <line style="fill: none; fill-opacity:0; stroke-width: 1; stroke: #000000" x1="29.2445" y1="295.278" x2="29.2445" y2="307.72"/>
  <line style="fill: none; fill-opacity:0; stroke-width: 1; stroke: #000000" x1="368.476" y1="295.534" x2="368.476" y2="307.976"/>
  <g>
    <path style="fill: #ffffff" d="M 166.078 287.946 L 231.728,287.946 L 231.728,311.946 C 218.598,307.946 212.033,307.946 198.903,311.946 C 185.773,315.946 179.208,315.946 166.078,311.946 L 166.078,287.946z"/>
    <path style="fill: none; fill-opacity:0; stroke-width: 0.02; stroke: #000000" d="M 166.078 287.946 L 231.728,287.946 L 231.728,311.946 C 218.598,307.946 212.033,307.946 198.903,311.946 C 185.773,315.946 179.208,315.946 166.078,311.946 L 166.078,287.946"/>
    <text font-size="12.8" style="fill: #000000;text-anchor:middle;font-family:monospace;font-style:normal;font-weight:normal" x="198.903" y="301.146">
      <tspan x="198.903" y="301.146">IP数据报</tspan>
    </text>
  </g>
  <g>
    <line style="fill: none; fill-opacity:0; stroke-width: 1; stroke: #000000" x1="166.088" y1="301.859" x2="39.7444" y2="301.527"/>
    <polygon style="fill: #000000" points="39.7576,296.527 29.7445,301.5 39.7313,306.527 "/>
    <polygon style="fill: none; fill-opacity:0; stroke-width: 1; stroke: #000000" points="39.7576,296.527 29.7445,301.5 39.7313,306.527 "/>
  </g>
  <g>
    <line style="fill: none; fill-opacity:0; stroke-width: 1; stroke: #000000" x1="231.712" y1="301.909" x2="357.976" y2="301.767"/>
    <polygon style="fill: #000000" points="357.982,306.767 367.976,301.755 357.971,296.767 "/>
    <polygon style="fill: none; fill-opacity:0; stroke-width: 1; stroke: #000000" points="357.982,306.767 367.976,301.755 357.971,296.767 "/>
  </g>
  <g>
    <rect style="fill: #ffffff" x="28.5345" y="312.117" width="340.029" height="38.9743"/>
    <rect style="fill: none; fill-opacity:0; stroke-width: 2; stroke: #000000" x="28.5345" y="312.117" width="340.029" height="38.9743"/>
    <text font-size="12.8" style="fill: #000000;text-anchor:middle;font-family:monospace;font-style:normal;font-weight:normal" x="198.549" y="334.254">
      <tspan x="198.549" y="334.254"></tspan>
    </text>
  </g>
  <g>
    <path style="fill: #ffffff" d="M 41.6745 318.03 L 86.6745,318.03 L 86.6745,342.03 C 77.6745,338.03 73.1745,338.03 64.1745,342.03 C 55.1745,346.03 50.6745,346.03 41.6745,342.03 L 41.6745,318.03z"/>
    <path style="fill: none; fill-opacity:0; stroke-width: 0.02; stroke: #000000" d="M 41.6745 318.03 L 86.6745,318.03 L 86.6745,342.03 C 77.6745,338.03 73.1745,338.03 64.1745,342.03 C 55.1745,346.03 50.6745,346.03 41.6745,342.03 L 41.6745,318.03"/>
    <text font-size="12.8" style="fill: #000000;text-anchor:middle;font-family:monospace;font-style:normal;font-weight:normal" x="64.1745" y="331.23">
      <tspan x="64.1745" y="331.23">IP首部</tspan>
    </text>
  </g>
  <line style="fill: none; fill-opacity:0; stroke-width: 2; stroke: #000000" x1="108.876" y1="311.986" x2="108.876" y2="351.091"/>
  <g>
    <path style="fill: #ffffff" d="M 167.288 317.674 L 227.688,317.674 L 227.688,341.674 C 215.608,337.674 209.568,337.674 197.488,341.674 C 185.408,345.674 179.368,345.674 167.288,341.674 L 167.288,317.674z"/>
    <path style="fill: none; fill-opacity:0; stroke-width: 0.02; stroke: #000000" d="M 167.288 317.674 L 227.688,317.674 L 227.688,341.674 C 215.608,337.674 209.568,337.674 197.488,341.674 C 185.408,345.674 179.368,345.674 167.288,341.674 L 167.288,317.674"/>
    <text font-size="12.8" style="fill: #000000;text-anchor:middle;font-family:monospace;font-style:normal;font-weight:normal" x="197.488" y="330.874">
      <tspan x="197.488" y="330.874">IGMP报文</tspan>
    </text>
  </g>
  <g>
    <path style="fill: #ffffff" d="M 113.03 352.192 L 278.43,352.192 L 278.43,376.192 C 245.35,372.192 228.81,372.192 195.73,376.192 C 162.65,380.192 146.11,380.192 113.03,376.192 L 113.03,352.192z"/>
    <path style="fill: none; fill-opacity:0; stroke-width: 0.02; stroke: #000000" d="M 113.03 352.192 L 278.43,352.192 L 278.43,376.192 C 245.35,372.192 228.81,372.192 195.73,376.192 C 162.65,380.192 146.11,380.192 113.03,376.192 L 113.03,352.192"/>
    <text font-size="12.8" style="fill: #000000;text-anchor:middle;font-family:monospace;font-style:normal;font-weight:700" x="195.73" y="364.592">
      <tspan x="195.73" y="364.592">IGMP封装在IP数据报文内部</tspan>
    </text>
  </g>
  <line style="fill: none; fill-opacity:0; stroke-width: 1; stroke: #000000" x1="1052.94" y1="451.232" x2="1067.56" y2="451.232"/>
  <line style="fill: none; fill-opacity:0; stroke-width: 1; stroke: #000000" x1="1053.03" y1="299.862" x2="1067.65" y2="299.862"/>
  <g>
    <path style="fill: #ffffff" d="M 1041.92 355.085 L 1078.52,355.085 L 1078.52,387.988 C 1071.2,382.505 1067.54,382.505 1060.22,387.988 C 1052.9,393.472 1049.24,393.472 1041.92,387.988 L 1041.92,355.085z"/>
    <path style="fill: none; fill-opacity:0; stroke-width: 0.02; stroke: #000000" d="M 1041.92 355.085 L 1078.52,355.085 L 1078.52,387.988 C 1071.2,382.505 1067.54,382.505 1060.22,387.988 C 1052.9,393.472 1049.24,393.472 1041.92,387.988 L 1041.92,355.085"/>
    <text font-size="12.8" style="fill: #000000;text-anchor:middle;font-family:sans-serif;font-style:normal;font-weight:normal" x="1060.22" y="373.595">
      <tspan x="1060.22" y="373.595">8字节</tspan>
    </text>
  </g>
  <g>
    <line style="fill: none; fill-opacity:0; stroke-width: 1; stroke: #000000" x1="1060.22" y1="355.085" x2="1060.32" y2="310.362"/>
    <polygon style="fill: #000000" points="1065.32,310.373 1060.34,300.362 1055.32,310.351 "/>
    <polygon style="fill: none; fill-opacity:0; stroke-width: 1; stroke: #000000" points="1065.32,310.373 1060.34,300.362 1055.32,310.351 "/>
  </g>
  <g>
    <line style="fill: none; fill-opacity:0; stroke-width: 1; stroke: #000000" x1="1060.22" y1="387.975" x2="1060.24" y2="440.732"/>
    <polygon style="fill: #000000" points="1055.24,440.734 1060.25,450.732 1065.24,440.731 "/>
    <polygon style="fill: none; fill-opacity:0; stroke-width: 1; stroke: #000000" points="1055.24,440.734 1060.25,450.732 1065.24,440.731 "/>
  </g>
</svg>
