<?xml version="1.0" encoding="UTF-8" standalone="no"?>
<!DOCTYPE svg PUBLIC "-//W3C//DTD SVG 1.0//EN" "http://www.w3.org/TR/2001/PR-SVG-20010719/DTD/svg10.dtd">
<svg width="48cm" height="19cm" viewBox="152 -27 953 365" xmlns="http://www.w3.org/2000/svg" xmlns:xlink="http://www.w3.org/1999/xlink">
  <g>
    <rect style="fill: #ffffff" x="200.252" y="0.0965964" width="647.825" height="38"/>
    <rect style="fill: none; fill-opacity:0; stroke-width: 2; stroke: #000000" x="200.252" y="0.0965964" width="647.825" height="38"/>
    <text font-size="12.8" style="fill: #000000;text-anchor:middle;font-family:monospace;font-style:normal;font-weight:normal" x="524.165" y="21.7466">
      <tspan x="524.165" y="21.7466"></tspan>
    </text>
  </g>
  <line style="fill: none; fill-opacity:0; stroke-width: 0.02; stroke: #000000" x1="524.165" y1="19.0966" x2="524.165" y2="19.0966"/>
  <line style="fill: none; fill-opacity:0; stroke-width: 2; stroke: #000000" x1="221.512" y1="-0.0779117" x2="221.512" y2="37.3986"/>
  <line style="fill: none; fill-opacity:0; stroke-width: 2; stroke: #000000" x1="361.448" y1="-0.785017" x2="361.448" y2="36.6915"/>
  <g>
    <path style="fill: #ffffff" d="M 204.271 4.85104 L 215.971,4.85104 L 215.971,28.851 C 213.631,24.851 212.461,24.851 210.121,28.851 C 207.781,32.851 206.611,32.851 204.271,28.851 L 204.271,4.85104z"/>
    <path style="fill: none; fill-opacity:0; stroke-width: 0.02; stroke: #000000" d="M 204.271 4.85104 L 215.971,4.85104 L 215.971,28.851 C 213.631,24.851 212.461,24.851 210.121,28.851 C 207.781,32.851 206.611,32.851 204.271,28.851 L 204.271,4.85104"/>
    <text font-size="12.8" style="fill: #000000;text-anchor:middle;font-family:monospace;font-style:normal;font-weight:normal" x="210.121" y="18.051">
      <tspan x="210.121" y="18.051">0</tspan>
    </text>
  </g>
  <g>
    <path style="fill: #ffffff" d="M 261.394 4.87182 L 303.794,4.87182 L 303.794,30.3276 C 295.314,26.085 291.074,26.085 282.594,30.3276 C 274.114,34.5702 269.874,34.5702 261.394,30.3276 L 261.394,4.87182z"/>
    <path style="fill: none; fill-opacity:0; stroke-width: 0.02; stroke: #000000" d="M 261.394 4.87182 L 303.794,4.87182 L 303.794,30.3276 C 295.314,26.085 291.074,26.085 282.594,30.3276 C 274.114,34.5702 269.874,34.5702 261.394,30.3276 L 261.394,4.87182"/>
    <text font-size="12.8" style="fill: #000000;text-anchor:middle;font-family:monospace;font-style:normal;font-weight:normal" x="282.594" y="18.6784">
      <tspan x="282.594" y="18.6784">网络号</tspan>
    </text>
  </g>
  <g>
    <path style="fill: #ffffff" d="M 152.993 0.629193 L 192.993,0.629193 L 192.993,34.9149 C 184.993,29.2006 180.993,29.2006 172.993,34.9149 C 164.993,40.6292 160.993,40.6292 152.993,34.9149 L 152.993,0.629193z"/>
    <path style="fill: none; fill-opacity:0; stroke-width: 0.02; stroke: #000000" d="M 152.993 0.629193 L 192.993,0.629193 L 192.993,34.9149 C 184.993,29.2006 180.993,29.2006 172.993,34.9149 C 164.993,40.6292 160.993,40.6292 152.993,34.9149 L 152.993,0.629193"/>
    <text font-size="12.8" style="fill: #000000;text-anchor:middle;font-family:monospace;font-style:normal;font-weight:normal" x="172.993" y="18.1149">
      <tspan x="172.993" y="18.1149">A 类</tspan>
    </text>
  </g>
  <g>
    <path style="fill: none; fill-opacity:0; stroke-width: 0.02; stroke: #000000" d="M 278.752 -26.7559 L 310.952,-26.7559 L 310.952,-2.7559 C 304.512,-6.7559 301.292,-6.7559 294.852,-2.7559 C 288.412,1.2441 285.192,1.2441 278.752,-2.7559 L 278.752,-26.7559"/>
    <text font-size="12.8" style="fill: #000000;text-anchor:middle;font-family:monospace;font-style:normal;font-weight:normal" x="294.852" y="-13.5559">
      <tspan x="294.852" y="-13.5559">7 位</tspan>
    </text>
  </g>
  <g>
    <path style="fill: #ffffff" d="M 544.63 6.59354 L 587.03,6.59354 L 587.03,30.5935 C 578.55,26.5935 574.31,26.5935 565.83,30.5935 C 557.35,34.5935 553.11,34.5935 544.63,30.5935 L 544.63,6.59354z"/>
    <path style="fill: none; fill-opacity:0; stroke-width: 0.02; stroke: #000000" d="M 544.63 6.59354 L 587.03,6.59354 L 587.03,30.5935 C 578.55,26.5935 574.31,26.5935 565.83,30.5935 C 557.35,34.5935 553.11,34.5935 544.63,30.5935 L 544.63,6.59354"/>
    <text font-size="12.8" style="fill: #000000;text-anchor:middle;font-family:monospace;font-style:normal;font-weight:normal" x="565.83" y="19.7935">
      <tspan x="565.83" y="19.7935">主机号</tspan>
    </text>
  </g>
  <g>
    <rect style="fill: #ffffff" x="196.646" y="72.9284" width="647.825" height="38"/>
    <rect style="fill: none; fill-opacity:0; stroke-width: 2; stroke: #000000" x="196.646" y="72.9284" width="647.825" height="38"/>
    <text font-size="12.8" style="fill: #000000;text-anchor:middle;font-family:monospace;font-style:normal;font-weight:normal" x="520.559" y="94.5784">
      <tspan x="520.559" y="94.5784"></tspan>
    </text>
  </g>
  <line style="fill: none; fill-opacity:0; stroke-width: 0.02; stroke: #000000" x1="520.559" y1="91.9284" x2="520.559" y2="91.9284"/>
  <line style="fill: none; fill-opacity:0; stroke-width: 2; stroke: #000000" x1="520.559" y1="72.9284" x2="521.324" y2="109.523"/>
  <line style="fill: none; fill-opacity:0; stroke-width: 2; stroke: #000000" x1="219.899" y1="72.0468" x2="219.899" y2="109.523"/>
  <line style="fill: none; fill-opacity:0; stroke-width: 2; stroke: #000000" x1="238.202" y1="72.2213" x2="238.202" y2="110.221"/>
  <g>
    <path style="fill: #ffffff" d="M 221.164 78.5179 L 232.864,78.5179 L 232.864,102.518 C 230.524,98.5179 229.354,98.5179 227.014,102.518 C 224.674,106.518 223.504,106.518 221.164,102.518 L 221.164,78.5179z"/>
    <path style="fill: none; fill-opacity:0; stroke-width: 0.02; stroke: #000000" d="M 221.164 78.5179 L 232.864,78.5179 L 232.864,102.518 C 230.524,98.5179 229.354,98.5179 227.014,102.518 C 224.674,106.518 223.504,106.518 221.164,102.518 L 221.164,78.5179"/>
    <text font-size="12.8" style="fill: #000000;text-anchor:middle;font-family:monospace;font-style:normal;font-weight:normal" x="227.014" y="91.7179">
      <tspan x="227.014" y="91.7179">0</tspan>
    </text>
  </g>
  <g>
    <path style="fill: #ffffff" d="M 344.603 76.9965 L 387.003,76.9965 L 387.003,102.452 C 378.523,98.2097 374.283,98.2097 365.803,102.452 C 357.323,106.695 353.083,106.695 344.603,102.452 L 344.603,76.9965z"/>
    <path style="fill: none; fill-opacity:0; stroke-width: 0.02; stroke: #000000" d="M 344.603 76.9965 L 387.003,76.9965 L 387.003,102.452 C 378.523,98.2097 374.283,98.2097 365.803,102.452 C 357.323,106.695 353.083,106.695 344.603,102.452 L 344.603,76.9965"/>
    <text font-size="12.8" style="fill: #000000;text-anchor:middle;font-family:monospace;font-style:normal;font-weight:normal" x="365.803" y="90.8031">
      <tspan x="365.803" y="90.8031">网络号</tspan>
    </text>
  </g>
  <g>
    <path style="fill: #ffffff" d="M 152.923 72.7539 L 192.923,72.7539 L 192.923,107.04 C 184.923,101.325 180.923,101.325 172.923,107.04 C 164.923,112.754 160.923,112.754 152.923,107.04 L 152.923,72.7539z"/>
    <path style="fill: none; fill-opacity:0; stroke-width: 0.02; stroke: #000000" d="M 152.923 72.7539 L 192.923,72.7539 L 192.923,107.04 C 184.923,101.325 180.923,101.325 172.923,107.04 C 164.923,112.754 160.923,112.754 152.923,107.04 L 152.923,72.7539"/>
    <text font-size="12.8" style="fill: #000000;text-anchor:middle;font-family:monospace;font-style:normal;font-weight:normal" x="172.923" y="90.2396">
      <tspan x="172.923" y="90.2396">B 类</tspan>
    </text>
  </g>
  <g>
    <path style="fill: #ffffff" d="M 202.194 78.5262 L 213.894,78.5262 L 213.894,102.526 C 211.554,98.5262 210.384,98.5262 208.044,102.526 C 205.704,106.526 204.534,106.526 202.194,102.526 L 202.194,78.5262z"/>
    <path style="fill: none; fill-opacity:0; stroke-width: 0.02; stroke: #000000" d="M 202.194 78.5262 L 213.894,78.5262 L 213.894,102.526 C 211.554,98.5262 210.384,98.5262 208.044,102.526 C 205.704,106.526 204.534,106.526 202.194,102.526 L 202.194,78.5262"/>
    <text font-size="12.8" style="fill: #000000;text-anchor:middle;font-family:monospace;font-style:normal;font-weight:normal" x="208.044" y="91.7262">
      <tspan x="208.044" y="91.7262">1</tspan>
    </text>
  </g>
  <g>
    <path style="fill: none; fill-opacity:0; stroke-width: 0.02; stroke: #000000" d="M 644.511 47.8741 L 684.411,47.8741 L 684.411,71.8741 C 676.431,67.8741 672.441,67.8741 664.461,71.8741 C 656.481,75.8741 652.491,75.8741 644.511,71.8741 L 644.511,47.8741"/>
    <text font-size="12.8" style="fill: #000000;text-anchor:middle;font-family:monospace;font-style:normal;font-weight:normal" x="664.461" y="61.0741">
      <tspan x="664.461" y="61.0741">16 位</tspan>
    </text>
  </g>
  <g>
    <path style="fill: none; fill-opacity:0; stroke-width: 0.02; stroke: #000000" d="M 544.98 -24.9271 L 587.38,-24.9271 L 587.38,-0.927083 C 578.9,-4.92708 574.66,-4.92708 566.18,-0.927083 C 557.7,3.07292 553.46,3.07292 544.98,-0.927083 L 544.98,-24.9271"/>
    <text font-size="12.8" style="fill: #000000;text-anchor:middle;font-family:monospace;font-style:normal;font-weight:normal" x="566.18" y="-11.7271">
      <tspan x="566.18" y="-11.7271">24 位</tspan>
    </text>
  </g>
  <g>
    <path style="fill: #ffffff" d="M 643.681 78.7673 L 686.081,78.7673 L 686.081,102.767 C 677.601,98.7673 673.361,98.7673 664.881,102.767 C 656.401,106.767 652.161,106.767 643.681,102.767 L 643.681,78.7673z"/>
    <path style="fill: none; fill-opacity:0; stroke-width: 0.02; stroke: #000000" d="M 643.681 78.7673 L 686.081,78.7673 L 686.081,102.767 C 677.601,98.7673 673.361,98.7673 664.881,102.767 C 656.401,106.767 652.161,106.767 643.681,102.767 L 643.681,78.7673"/>
    <text font-size="12.8" style="fill: #000000;text-anchor:middle;font-family:monospace;font-style:normal;font-weight:normal" x="664.881" y="91.9673">
      <tspan x="664.881" y="91.9673">主机号</tspan>
    </text>
  </g>
  <g>
    <path style="fill: none; fill-opacity:0; stroke-width: 0.02; stroke: #000000" d="M 345.028 46.381 L 384.928,46.381 L 384.928,70.381 C 376.948,66.381 372.958,66.381 364.978,70.381 C 356.998,74.381 353.008,74.381 345.028,70.381 L 345.028,46.381"/>
    <text font-size="12.8" style="fill: #000000;text-anchor:middle;font-family:monospace;font-style:normal;font-weight:normal" x="364.978" y="59.581">
      <tspan x="364.978" y="59.581">14 位</tspan>
    </text>
  </g>
  <g>
    <rect style="fill: #ffffff" x="197.754" y="144.641" width="647.825" height="38"/>
    <rect style="fill: none; fill-opacity:0; stroke-width: 2; stroke: #000000" x="197.754" y="144.641" width="647.825" height="38"/>
    <text font-size="12.8" style="fill: #000000;text-anchor:middle;font-family:monospace;font-style:normal;font-weight:normal" x="521.667" y="166.291">
      <tspan x="521.667" y="166.291"></tspan>
    </text>
  </g>
  <line style="fill: none; fill-opacity:0; stroke-width: 0.02; stroke: #000000" x1="521.667" y1="163.641" x2="521.667" y2="163.641"/>
  <line style="fill: none; fill-opacity:0; stroke-width: 2; stroke: #000000" x1="221.007" y1="143.759" x2="221.007" y2="181.236"/>
  <line style="fill: none; fill-opacity:0; stroke-width: 2; stroke: #000000" x1="239.311" y1="143.934" x2="239.311" y2="181.934"/>
  <g>
    <path style="fill: #ffffff" d="M 242.321 151.002 L 254.021,151.002 L 254.021,175.002 C 251.681,171.002 250.511,171.002 248.171,175.002 C 245.831,179.002 244.661,179.002 242.321,175.002 L 242.321,151.002z"/>
    <path style="fill: none; fill-opacity:0; stroke-width: 0.02; stroke: #000000" d="M 242.321 151.002 L 254.021,151.002 L 254.021,175.002 C 251.681,171.002 250.511,171.002 248.171,175.002 C 245.831,179.002 244.661,179.002 242.321,175.002 L 242.321,151.002"/>
    <text font-size="12.8" style="fill: #000000;text-anchor:middle;font-family:monospace;font-style:normal;font-weight:normal" x="248.171" y="164.202">
      <tspan x="248.171" y="164.202">0</tspan>
    </text>
  </g>
  <g>
    <path style="fill: #ffffff" d="M 443.641 149.48 L 486.041,149.48 L 486.041,174.936 C 477.561,170.693 473.321,170.693 464.841,174.936 C 456.361,179.179 452.121,179.179 443.641,174.936 L 443.641,149.48z"/>
    <path style="fill: none; fill-opacity:0; stroke-width: 0.02; stroke: #000000" d="M 443.641 149.48 L 486.041,149.48 L 486.041,174.936 C 477.561,170.693 473.321,170.693 464.841,174.936 C 456.361,179.179 452.121,179.179 443.641,174.936 L 443.641,149.48"/>
    <text font-size="12.8" style="fill: #000000;text-anchor:middle;font-family:monospace;font-style:normal;font-weight:normal" x="464.841" y="163.287">
      <tspan x="464.841" y="163.287">网络号</tspan>
    </text>
  </g>
  <g>
    <path style="fill: #ffffff" d="M 154.031 144.466 L 194.031,144.466 L 194.031,178.752 C 186.031,173.038 182.031,173.038 174.031,178.752 C 166.031,184.466 162.031,184.466 154.031,178.752 L 154.031,144.466z"/>
    <path style="fill: none; fill-opacity:0; stroke-width: 0.02; stroke: #000000" d="M 154.031 144.466 L 194.031,144.466 L 194.031,178.752 C 186.031,173.038 182.031,173.038 174.031,178.752 C 166.031,184.466 162.031,184.466 154.031,178.752 L 154.031,144.466"/>
    <text font-size="12.8" style="fill: #000000;text-anchor:middle;font-family:monospace;font-style:normal;font-weight:normal" x="174.031" y="161.952">
      <tspan x="174.031" y="161.952">C 类</tspan>
    </text>
  </g>
  <g>
    <path style="fill: #ffffff" d="M 203.302 151.781 L 215.002,151.781 L 215.002,175.781 C 212.662,171.781 211.492,171.781 209.152,175.781 C 206.812,179.781 205.642,179.781 203.302,175.781 L 203.302,151.781z"/>
    <path style="fill: none; fill-opacity:0; stroke-width: 0.02; stroke: #000000" d="M 203.302 151.781 L 215.002,151.781 L 215.002,175.781 C 212.662,171.781 211.492,171.781 209.152,175.781 C 206.812,179.781 205.642,179.781 203.302,175.781 L 203.302,151.781"/>
    <text font-size="12.8" style="fill: #000000;text-anchor:middle;font-family:monospace;font-style:normal;font-weight:normal" x="209.152" y="164.981">
      <tspan x="209.152" y="164.981">1</tspan>
    </text>
  </g>
  <g>
    <path style="fill: none; fill-opacity:0; stroke-width: 0.02; stroke: #000000" d="M 739.93 120.358 L 774.73,120.358 L 774.73,144.358 C 767.77,140.358 764.29,140.358 757.33,144.358 C 750.37,148.358 746.89,148.358 739.93,144.358 L 739.93,120.358"/>
    <text font-size="12.8" style="fill: #000000;text-anchor:middle;font-family:monospace;font-style:normal;font-weight:normal" x="757.33" y="133.558">
      <tspan x="757.33" y="133.558">8 位</tspan>
    </text>
  </g>
  <g>
    <path style="fill: #ffffff" d="M 738.864 151.251 L 781.264,151.251 L 781.264,175.251 C 772.784,171.251 768.544,171.251 760.064,175.251 C 751.584,179.251 747.344,179.251 738.864,175.251 L 738.864,151.251z"/>
    <path style="fill: none; fill-opacity:0; stroke-width: 0.02; stroke: #000000" d="M 738.864 151.251 L 781.264,151.251 L 781.264,175.251 C 772.784,171.251 768.544,171.251 760.064,175.251 C 751.584,179.251 747.344,179.251 738.864,175.251 L 738.864,151.251"/>
    <text font-size="12.8" style="fill: #000000;text-anchor:middle;font-family:monospace;font-style:normal;font-weight:normal" x="760.064" y="164.451">
      <tspan x="760.064" y="164.451">主机号</tspan>
    </text>
  </g>
  <g>
    <path style="fill: none; fill-opacity:0; stroke-width: 0.02; stroke: #000000" d="M 444.066 120.407 L 483.966,120.407 L 483.966,144.407 C 475.986,140.407 471.996,140.407 464.016,144.407 C 456.036,148.407 452.046,148.407 444.066,144.407 L 444.066,120.407"/>
    <text font-size="12.8" style="fill: #000000;text-anchor:middle;font-family:monospace;font-style:normal;font-weight:normal" x="464.016" y="133.607">
      <tspan x="464.016" y="133.607">21 位</tspan>
    </text>
  </g>
  <line style="fill: none; fill-opacity:0; stroke-width: 2; stroke: #000000" x1="678.972" y1="144.641" x2="678.972" y2="182.641"/>
  <line style="fill: none; fill-opacity:0; stroke-width: 2; stroke: #000000" x1="259.901" y1="145.382" x2="259.901" y2="183.382"/>
  <g>
    <path style="fill: #ffffff" d="M 223.08 151.322 L 234.78,151.322 L 234.78,175.322 C 232.44,171.322 231.27,171.322 228.93,175.322 C 226.59,179.322 225.42,179.322 223.08,175.322 L 223.08,151.322z"/>
    <path style="fill: none; fill-opacity:0; stroke-width: 0.02; stroke: #000000" d="M 223.08 151.322 L 234.78,151.322 L 234.78,175.322 C 232.44,171.322 231.27,171.322 228.93,175.322 C 226.59,179.322 225.42,179.322 223.08,175.322 L 223.08,151.322"/>
    <text font-size="12.8" style="fill: #000000;text-anchor:middle;font-family:monospace;font-style:normal;font-weight:normal" x="228.93" y="164.522">
      <tspan x="228.93" y="164.522">1</tspan>
    </text>
  </g>
  <g>
    <rect style="fill: #ffffff" x="198.525" y="216.403" width="647.825" height="38"/>
    <rect style="fill: none; fill-opacity:0; stroke-width: 2; stroke: #000000" x="198.525" y="216.403" width="647.825" height="38"/>
    <text font-size="12.8" style="fill: #000000;text-anchor:middle;font-family:monospace;font-style:normal;font-weight:normal" x="522.438" y="238.053">
      <tspan x="522.438" y="238.053"></tspan>
    </text>
  </g>
  <line style="fill: none; fill-opacity:0; stroke-width: 0.02; stroke: #000000" x1="522.438" y1="235.403" x2="522.438" y2="235.403"/>
  <line style="fill: none; fill-opacity:0; stroke-width: 2; stroke: #000000" x1="221.778" y1="215.521" x2="221.778" y2="252.998"/>
  <line style="fill: none; fill-opacity:0; stroke-width: 2; stroke: #000000" x1="240.082" y1="215.696" x2="240.082" y2="253.696"/>
  <g>
    <path style="fill: #ffffff" d="M 262.37 222.763 L 274.07,222.763 L 274.07,246.763 C 271.73,242.763 270.56,242.763 268.22,246.763 C 265.88,250.763 264.71,250.763 262.37,246.763 L 262.37,222.763z"/>
    <path style="fill: none; fill-opacity:0; stroke-width: 0.02; stroke: #000000" d="M 262.37 222.763 L 274.07,222.763 L 274.07,246.763 C 271.73,242.763 270.56,242.763 268.22,246.763 C 265.88,250.763 264.71,250.763 262.37,246.763 L 262.37,222.763"/>
    <text font-size="12.8" style="fill: #000000;text-anchor:middle;font-family:monospace;font-style:normal;font-weight:normal" x="268.22" y="235.963">
      <tspan x="268.22" y="235.963">0</tspan>
    </text>
  </g>
  <g>
    <path style="fill: #ffffff" d="M 560.618 220.471 L 615.818,220.471 L 615.818,245.927 C 604.778,241.684 599.258,241.684 588.218,245.927 C 577.178,250.169 571.658,250.169 560.618,245.927 L 560.618,220.471z"/>
    <path style="fill: none; fill-opacity:0; stroke-width: 0.02; stroke: #000000" d="M 560.618 220.471 L 615.818,220.471 L 615.818,245.927 C 604.778,241.684 599.258,241.684 588.218,245.927 C 577.178,250.169 571.658,250.169 560.618,245.927 L 560.618,220.471"/>
    <text font-size="12.8" style="fill: #000000;text-anchor:middle;font-family:monospace;font-style:normal;font-weight:normal" x="588.218" y="234.277">
      <tspan x="588.218" y="234.277">多播组号</tspan>
    </text>
  </g>
  <g>
    <path style="fill: #ffffff" d="M 154.802 216.228 L 194.802,216.228 L 194.802,250.514 C 186.802,244.8 182.802,244.8 174.802,250.514 C 166.802,256.228 162.802,256.228 154.802,250.514 L 154.802,216.228z"/>
    <path style="fill: none; fill-opacity:0; stroke-width: 0.02; stroke: #000000" d="M 154.802 216.228 L 194.802,216.228 L 194.802,250.514 C 186.802,244.8 182.802,244.8 174.802,250.514 C 166.802,256.228 162.802,256.228 154.802,250.514 L 154.802,216.228"/>
    <text font-size="12.8" style="fill: #000000;text-anchor:middle;font-family:monospace;font-style:normal;font-weight:normal" x="174.802" y="233.714">
      <tspan x="174.802" y="233.714">D 类</tspan>
    </text>
  </g>
  <g>
    <path style="fill: #ffffff" d="M 204.073 223.543 L 215.773,223.543 L 215.773,247.543 C 213.433,243.543 212.263,243.543 209.923,247.543 C 207.583,251.543 206.413,251.543 204.073,247.543 L 204.073,223.543z"/>
    <path style="fill: none; fill-opacity:0; stroke-width: 0.02; stroke: #000000" d="M 204.073 223.543 L 215.773,223.543 L 215.773,247.543 C 213.433,243.543 212.263,243.543 209.923,247.543 C 207.583,251.543 206.413,251.543 204.073,247.543 L 204.073,223.543"/>
    <text font-size="12.8" style="fill: #000000;text-anchor:middle;font-family:monospace;font-style:normal;font-weight:normal" x="209.923" y="236.743">
      <tspan x="209.923" y="236.743">1</tspan>
    </text>
  </g>
  <g>
    <path style="fill: none; fill-opacity:0; stroke-width: 0.02; stroke: #000000" d="M 563.587 193.711 L 603.487,193.711 L 603.487,217.711 C 595.507,213.711 591.517,213.711 583.537,217.711 C 575.557,221.711 571.567,221.711 563.587,217.711 L 563.587,193.711"/>
    <text font-size="12.8" style="fill: #000000;text-anchor:middle;font-family:monospace;font-style:normal;font-weight:normal" x="583.537" y="206.911">
      <tspan x="583.537" y="206.911">28 位</tspan>
    </text>
  </g>
  <line style="fill: none; fill-opacity:0; stroke-width: 2; stroke: #000000" x1="260.672" y1="217.144" x2="260.672" y2="255.144"/>
  <g>
    <path style="fill: #ffffff" d="M 223.851 223.084 L 235.551,223.084 L 235.551,247.084 C 233.211,243.084 232.041,243.084 229.701,247.084 C 227.361,251.084 226.191,251.084 223.851,247.084 L 223.851,223.084z"/>
    <path style="fill: none; fill-opacity:0; stroke-width: 0.02; stroke: #000000" d="M 223.851 223.084 L 235.551,223.084 L 235.551,247.084 C 233.211,243.084 232.041,243.084 229.701,247.084 C 227.361,251.084 226.191,251.084 223.851,247.084 L 223.851,223.084"/>
    <text font-size="12.8" style="fill: #000000;text-anchor:middle;font-family:monospace;font-style:normal;font-weight:normal" x="229.701" y="236.284">
      <tspan x="229.701" y="236.284">1</tspan>
    </text>
  </g>
  <line style="fill: none; fill-opacity:0; stroke-width: 2; stroke: #000000" x1="279.178" y1="216.324" x2="279.178" y2="254.324"/>
  <g>
    <path style="fill: #ffffff" d="M 242.357 223.806 L 254.057,223.806 L 254.057,247.806 C 251.717,243.806 250.547,243.806 248.207,247.806 C 245.867,251.806 244.697,251.806 242.357,247.806 L 242.357,223.806z"/>
    <path style="fill: none; fill-opacity:0; stroke-width: 0.02; stroke: #000000" d="M 242.357 223.806 L 254.057,223.806 L 254.057,247.806 C 251.717,243.806 250.547,243.806 248.207,247.806 C 245.867,251.806 244.697,251.806 242.357,247.806 L 242.357,223.806"/>
    <text font-size="12.8" style="fill: #000000;text-anchor:middle;font-family:monospace;font-style:normal;font-weight:normal" x="248.207" y="237.006">
      <tspan x="248.207" y="237.006">1</tspan>
    </text>
  </g>
  <g>
    <rect style="fill: #ffffff" x="197.754" y="285.753" width="647.825" height="38"/>
    <rect style="fill: none; fill-opacity:0; stroke-width: 2; stroke: #000000" x="197.754" y="285.753" width="647.825" height="38"/>
    <text font-size="12.8" style="fill: #000000;text-anchor:middle;font-family:monospace;font-style:normal;font-weight:normal" x="521.667" y="307.403">
      <tspan x="521.667" y="307.403"></tspan>
    </text>
  </g>
  <line style="fill: none; fill-opacity:0; stroke-width: 0.02; stroke: #000000" x1="521.667" y1="304.753" x2="521.667" y2="304.753"/>
  <line style="fill: none; fill-opacity:0; stroke-width: 2; stroke: #000000" x1="221.007" y1="284.871" x2="221.007" y2="322.348"/>
  <line style="fill: none; fill-opacity:0; stroke-width: 2; stroke: #000000" x1="239.311" y1="285.046" x2="239.311" y2="323.046"/>
  <g>
    <path style="fill: #ffffff" d="M 282.418 292.885 L 294.118,292.885 L 294.118,316.885 C 291.778,312.885 290.608,312.885 288.268,316.885 C 285.928,320.885 284.758,320.885 282.418,316.885 L 282.418,292.885z"/>
    <path style="fill: none; fill-opacity:0; stroke-width: 0.02; stroke: #000000" d="M 282.418 292.885 L 294.118,292.885 L 294.118,316.885 C 291.778,312.885 290.608,312.885 288.268,316.885 C 285.928,320.885 284.758,320.885 282.418,316.885 L 282.418,292.885"/>
    <text font-size="12.8" style="fill: #000000;text-anchor:middle;font-family:monospace;font-style:normal;font-weight:normal" x="288.268" y="306.085">
      <tspan x="288.268" y="306.085">0</tspan>
    </text>
  </g>
  <g>
    <path style="fill: #ffffff" d="M 552.147 289.821 L 622.747,289.821 L 622.747,315.277 C 608.627,311.034 601.567,311.034 587.447,315.277 C 573.327,319.519 566.267,319.519 552.147,315.277 L 552.147,289.821z"/>
    <path style="fill: none; fill-opacity:0; stroke-width: 0.02; stroke: #000000" d="M 552.147 289.821 L 622.747,289.821 L 622.747,315.277 C 608.627,311.034 601.567,311.034 587.447,315.277 C 573.327,319.519 566.267,319.519 552.147,315.277 L 552.147,289.821"/>
    <text font-size="12.8" style="fill: #000000;text-anchor:middle;font-family:monospace;font-style:normal;font-weight:normal" x="587.447" y="303.628">
      <tspan x="587.447" y="303.628">(留待后用)</tspan>
    </text>
  </g>
  <g>
    <path style="fill: #ffffff" d="M 154.031 285.578 L 194.031,285.578 L 194.031,319.864 C 186.031,314.15 182.031,314.15 174.031,319.864 C 166.031,325.578 162.031,325.578 154.031,319.864 L 154.031,285.578z"/>
    <path style="fill: none; fill-opacity:0; stroke-width: 0.02; stroke: #000000" d="M 154.031 285.578 L 194.031,285.578 L 194.031,319.864 C 186.031,314.15 182.031,314.15 174.031,319.864 C 166.031,325.578 162.031,325.578 154.031,319.864 L 154.031,285.578"/>
    <text font-size="12.8" style="fill: #000000;text-anchor:middle;font-family:monospace;font-style:normal;font-weight:normal" x="174.031" y="303.064">
      <tspan x="174.031" y="303.064">E 类</tspan>
    </text>
  </g>
  <g>
    <path style="fill: #ffffff" d="M 203.302 292.893 L 215.002,292.893 L 215.002,316.893 C 212.662,312.893 211.492,312.893 209.152,316.893 C 206.812,320.893 205.642,320.893 203.302,316.893 L 203.302,292.893z"/>
    <path style="fill: none; fill-opacity:0; stroke-width: 0.02; stroke: #000000" d="M 203.302 292.893 L 215.002,292.893 L 215.002,316.893 C 212.662,312.893 211.492,312.893 209.152,316.893 C 206.812,320.893 205.642,320.893 203.302,316.893 L 203.302,292.893"/>
    <text font-size="12.8" style="fill: #000000;text-anchor:middle;font-family:monospace;font-style:normal;font-weight:normal" x="209.152" y="306.093">
      <tspan x="209.152" y="306.093">1</tspan>
    </text>
  </g>
  <g>
    <path style="fill: none; fill-opacity:0; stroke-width: 0.02; stroke: #000000" d="M 562.816 263.061 L 602.716,263.061 L 602.716,287.061 C 594.736,283.061 590.746,283.061 582.766,287.061 C 574.786,291.061 570.796,291.061 562.816,287.061 L 562.816,263.061"/>
    <text font-size="12.8" style="fill: #000000;text-anchor:middle;font-family:monospace;font-style:normal;font-weight:normal" x="582.766" y="276.261">
      <tspan x="582.766" y="276.261">27 位</tspan>
    </text>
  </g>
  <line style="fill: none; fill-opacity:0; stroke-width: 2; stroke: #000000" x1="259.901" y1="286.494" x2="259.901" y2="324.494"/>
  <g>
    <path style="fill: #ffffff" d="M 223.08 292.434 L 234.78,292.434 L 234.78,316.434 C 232.44,312.434 231.27,312.434 228.93,316.434 C 226.59,320.434 225.42,320.434 223.08,316.434 L 223.08,292.434z"/>
    <path style="fill: none; fill-opacity:0; stroke-width: 0.02; stroke: #000000" d="M 223.08 292.434 L 234.78,292.434 L 234.78,316.434 C 232.44,312.434 231.27,312.434 228.93,316.434 C 226.59,320.434 225.42,320.434 223.08,316.434 L 223.08,292.434"/>
    <text font-size="12.8" style="fill: #000000;text-anchor:middle;font-family:monospace;font-style:normal;font-weight:normal" x="228.93" y="305.634">
      <tspan x="228.93" y="305.634">1</tspan>
    </text>
  </g>
  <line style="fill: none; fill-opacity:0; stroke-width: 2; stroke: #000000" x1="278.407" y1="285.674" x2="278.407" y2="323.674"/>
  <g>
    <path style="fill: #ffffff" d="M 241.586 293.156 L 253.286,293.156 L 253.286,317.156 C 250.946,313.156 249.776,313.156 247.436,317.156 C 245.096,321.156 243.926,321.156 241.586,317.156 L 241.586,293.156z"/>
    <path style="fill: none; fill-opacity:0; stroke-width: 0.02; stroke: #000000" d="M 241.586 293.156 L 253.286,293.156 L 253.286,317.156 C 250.946,313.156 249.776,313.156 247.436,317.156 C 245.096,321.156 243.926,321.156 241.586,317.156 L 241.586,293.156"/>
    <text font-size="12.8" style="fill: #000000;text-anchor:middle;font-family:monospace;font-style:normal;font-weight:normal" x="247.436" y="306.356">
      <tspan x="247.436" y="306.356">1</tspan>
    </text>
  </g>
  <line style="fill: none; fill-opacity:0; stroke-width: 2; stroke: #000000" x1="299.998" y1="285.723" x2="299.998" y2="323.723"/>
  <g>
    <path style="fill: #ffffff" d="M 262.406 293.205 L 274.106,293.205 L 274.106,317.205 C 271.766,313.205 270.596,313.205 268.256,317.205 C 265.916,321.205 264.746,321.205 262.406,317.205 L 262.406,293.205z"/>
    <path style="fill: none; fill-opacity:0; stroke-width: 0.02; stroke: #000000" d="M 262.406 293.205 L 274.106,293.205 L 274.106,317.205 C 271.766,313.205 270.596,313.205 268.256,317.205 C 265.916,321.205 264.746,321.205 262.406,317.205 L 262.406,293.205"/>
    <text font-size="12.8" style="fill: #000000;text-anchor:middle;font-family:monospace;font-style:normal;font-weight:normal" x="268.256" y="306.405">
      <tspan x="268.256" y="306.405">1</tspan>
    </text>
  </g>
  <g>
    <path style="fill: #ffffff" d="M 867.638 0.917472 L 1094.94,0.917472 L 1094.94,42.9173 C 1049.48,35.9173 1026.75,35.9173 981.288,42.9173 C 935.828,49.9172 913.098,49.9172 867.638,42.9173 L 867.638,0.917472z"/>
    <path style="fill: none; fill-opacity:0; stroke-width: 0.02; stroke: #000000" d="M 867.638 0.917472 L 1094.94,0.917472 L 1094.94,42.9173 C 1049.48,35.9173 1026.75,35.9173 981.288,42.9173 C 935.828,49.9172 913.098,49.9172 867.638,42.9173 L 867.638,0.917472"/>
    <text font-size="12.8" style="fill: #000000;text-anchor:middle;font-family:monospace;font-style:normal;font-weight:normal" x="981.288" y="21.6174">
      <tspan x="981.288" y="21.6174">0.0.0.0 ~ 127.255.255.255.255</tspan>
    </text>
  </g>
  <g>
    <path style="fill: #ffffff" d="M 861.838 70.9172 L 1104.54,70.9172 L 1104.54,112.917 C 1056,105.917 1031.73,105.917 983.188,112.917 C 934.648,119.917 910.378,119.917 861.838,112.917 L 861.838,70.9172z"/>
    <path style="fill: none; fill-opacity:0; stroke-width: 0.02; stroke: #000000" d="M 861.838 70.9172 L 1104.54,70.9172 L 1104.54,112.917 C 1056,105.917 1031.73,105.917 983.188,112.917 C 934.648,119.917 910.378,119.917 861.838,112.917 L 861.838,70.9172"/>
    <text font-size="12.8" style="fill: #000000;text-anchor:middle;font-family:monospace;font-style:normal;font-weight:normal" x="983.188" y="91.6171">
      <tspan x="983.188" y="91.6171">128.0.0.0 ~ 191.255.255.255.255</tspan>
    </text>
  </g>
  <g>
    <path style="fill: #ffffff" d="M 862.838 143.917 L 1105.54,143.917 L 1105.54,185.917 C 1057,178.917 1032.73,178.917 984.188,185.917 C 935.648,192.917 911.378,192.917 862.838,185.917 L 862.838,143.917z"/>
    <path style="fill: none; fill-opacity:0; stroke-width: 0.02; stroke: #000000" d="M 862.838 143.917 L 1105.54,143.917 L 1105.54,185.917 C 1057,178.917 1032.73,178.917 984.188,185.917 C 935.648,192.917 911.378,192.917 862.838,185.917 L 862.838,143.917"/>
    <text font-size="12.8" style="fill: #000000;text-anchor:middle;font-family:monospace;font-style:normal;font-weight:normal" x="984.188" y="164.617">
      <tspan x="984.188" y="164.617">192.0.0.0 ~ 223.255.255.255.255</tspan>
    </text>
  </g>
  <g>
    <path style="fill: #ffffff" d="M 861.838 219.916 L 1104.54,219.916 L 1104.54,261.916 C 1056,254.916 1031.73,254.916 983.188,261.916 C 934.648,268.916 910.378,268.916 861.838,261.916 L 861.838,219.916z"/>
    <path style="fill: none; fill-opacity:0; stroke-width: 0.02; stroke: #000000" d="M 861.838 219.916 L 1104.54,219.916 L 1104.54,261.916 C 1056,254.916 1031.73,254.916 983.188,261.916 C 934.648,268.916 910.378,268.916 861.838,261.916 L 861.838,219.916"/>
    <text font-size="12.8" style="fill: #000000;text-anchor:middle;font-family:monospace;font-style:normal;font-weight:normal" x="983.188" y="240.616">
      <tspan x="983.188" y="240.616">224.0.0.0 ~ 239.255.255.255.255</tspan>
    </text>
  </g>
  <g>
    <path style="fill: #ffffff" d="M 861.838 288.916 L 1104.54,288.916 L 1104.54,330.916 C 1056,323.916 1031.73,323.916 983.188,330.916 C 934.648,337.916 910.378,337.916 861.838,330.916 L 861.838,288.916z"/>
    <path style="fill: none; fill-opacity:0; stroke-width: 0.02; stroke: #000000" d="M 861.838 288.916 L 1104.54,288.916 L 1104.54,330.916 C 1056,323.916 1031.73,323.916 983.188,330.916 C 934.648,337.916 910.378,337.916 861.838,330.916 L 861.838,288.916"/>
    <text font-size="12.8" style="fill: #000000;text-anchor:middle;font-family:monospace;font-style:normal;font-weight:normal" x="983.188" y="309.616">
      <tspan x="983.188" y="309.616">240.0.0.0 ~ 247.255.255.255.255</tspan>
    </text>
  </g>
</svg>
