<?xml version="1.0" encoding="UTF-8" standalone="no"?>
<!DOCTYPE svg PUBLIC "-//W3C//DTD SVG 1.0//EN" "http://www.w3.org/TR/2001/PR-SVG-20010719/DTD/svg10.dtd">
<svg width="35cm" height="21cm" viewBox="196 154 689 414" xmlns="http://www.w3.org/2000/svg" xmlns:xlink="http://www.w3.org/1999/xlink">
  <g>
    <rect style="fill: #ffffff" x="197.902" y="227.02" width="642" height="42"/>
    <rect style="fill: none; fill-opacity:0; stroke-width: 2; stroke: #000000" x="197.902" y="227.02" width="642" height="42"/>
    <text font-size="12.8" style="fill: #000000;text-anchor:middle;font-family:monospace;font-style:normal;font-weight:normal" x="518.902" y="250.67">
      <tspan x="518.902" y="250.67"></tspan>
    </text>
  </g>
  <line style="fill: none; fill-opacity:0; stroke-width: 2; stroke: #000000" x1="518.988" y1="268.02" x2="518.965" y2="228"/>
  <line style="fill: none; fill-opacity:0; stroke-width: 2; stroke: #000000" x1="577.652" y1="268.533" x2="577.652" y2="226.533"/>
  <g>
    <rect style="fill: #ffffff" x="198.092" y="269.02" width="641.819" height="42"/>
    <rect style="fill: none; fill-opacity:0; stroke-width: 2; stroke: #000000" x="198.092" y="269.02" width="641.819" height="42"/>
    <text font-size="12.8" style="fill: #000000;text-anchor:middle;font-family:monospace;font-style:normal;font-weight:normal" x="519.001" y="292.67">
      <tspan x="519.001" y="292.67"></tspan>
    </text>
  </g>
  <line style="fill: none; fill-opacity:0; stroke-width: 2; stroke: #000000" x1="518.856" y1="311.038" x2="518.791" y2="268.719"/>
  <line style="fill: none; fill-opacity:0; stroke-width: 2; stroke: #000000" x1="362.652" y1="311.507" x2="362.652" y2="269.507"/>
  <g>
    <rect style="fill: #ffffff" x="198.306" y="311.038" width="641.1" height="42"/>
    <rect style="fill: none; fill-opacity:0; stroke-width: 2; stroke: #000000" x="198.306" y="311.038" width="641.1" height="42"/>
    <text font-size="12.8" style="fill: #000000;text-anchor:middle;font-family:monospace;font-style:normal;font-weight:normal" x="518.856" y="334.688">
      <tspan x="518.856" y="334.688"></tspan>
    </text>
  </g>
  <g>
    <rect style="fill: #ffffff" x="198.002" y="352.02" width="640.9" height="42"/>
    <rect style="fill: none; fill-opacity:0; stroke-width: 2; stroke: #000000" x="198.002" y="352.02" width="640.9" height="42"/>
    <text font-size="12.8" style="fill: #000000;text-anchor:middle;font-family:monospace;font-style:normal;font-weight:normal" x="518.452" y="375.67">
      <tspan x="518.452" y="375.67"></tspan>
    </text>
  </g>
  <g>
    <rect style="fill: #ffffff" x="197.902" y="394.038" width="641" height="78.962"/>
    <rect style="fill: none; fill-opacity:0; stroke-width: 2; stroke: #000000" x="197.902" y="394.038" width="641" height="78.962"/>
    <text font-size="12.8" style="fill: #000000;text-anchor:middle;font-family:monospace;font-style:normal;font-weight:normal" x="518.402" y="436.169">
      <tspan x="518.402" y="436.169"></tspan>
    </text>
  </g>
  <g>
    <rect style="fill: #ffffff" x="197.902" y="472" width="641.084" height="95"/>
    <rect style="fill: none; fill-opacity:0; stroke-width: 2; stroke: #000000" x="197.902" y="472" width="641.084" height="95"/>
    <text font-size="12.8" style="fill: #000000;text-anchor:middle;font-family:monospace;font-style:normal;font-weight:normal" x="518.444" y="522.5">
      <tspan x="518.444" y="522.5">数据</tspan>
    </text>
  </g>
  <g>
    <rect style="fill: #ffffff" x="198.002" y="185" width="641.9" height="42"/>
    <rect style="fill: none; fill-opacity:0; stroke-width: 2; stroke: #000000" x="198.002" y="185" width="641.9" height="42"/>
    <text font-size="12.8" style="fill: #000000;text-anchor:middle;font-family:monospace;font-style:normal;font-weight:normal" x="518.952" y="208.65">
      <tspan x="518.952" y="208.65"></tspan>
    </text>
  </g>
  <g>
    <path style="fill: #ffffff" d="M 282.15 191.8 L 357.85,191.8 L 357.85,215.8 C 342.71,211.8 335.14,211.8 320,215.8 C 304.86,219.8 297.29,219.8 282.15,215.8 L 282.15,191.8z"/>
    <path style="fill: none; fill-opacity:0; stroke-width: 0.02; stroke: #000000" d="M 282.15 191.8 L 357.85,191.8 L 357.85,215.8 C 342.71,211.8 335.14,211.8 320,215.8 C 304.86,219.8 297.29,219.8 282.15,215.8 L 282.15,191.8"/>
    <text font-size="12.8" style="fill: #000000;text-anchor:middle;font-family:monospace;font-style:normal;font-weight:normal" x="320" y="205">
      <tspan x="320" y="205">4位首部长度</tspan>
    </text>
  </g>
  <g>
    <path style="fill: #ffffff" d="M 200.552 191.7 L 250.652,191.7 L 250.652,215.7 C 240.632,211.7 235.622,211.7 225.602,215.7 C 215.582,219.7 210.572,219.7 200.552,215.7 L 200.552,191.7z"/>
    <path style="fill: none; fill-opacity:0; stroke-width: 0.02; stroke: #000000" d="M 200.552 191.7 L 250.652,191.7 L 250.652,215.7 C 240.632,211.7 235.622,211.7 225.602,215.7 C 215.582,219.7 210.572,219.7 200.552,215.7 L 200.552,191.7"/>
    <text font-size="12.8" style="fill: #000000;text-anchor:middle;font-family:monospace;font-style:normal;font-weight:normal" x="225.602" y="204.9">
      <tspan x="225.602" y="204.9">4位版本</tspan>
    </text>
  </g>
  <g>
    <path style="fill: #ffffff" d="M 379.552 191.8 L 493.752,191.8 L 493.752,215.8 C 470.912,211.8 459.492,211.8 436.652,215.8 C 413.812,219.8 402.392,219.8 379.552,215.8 L 379.552,191.8z"/>
    <path style="fill: none; fill-opacity:0; stroke-width: 0.02; stroke: #000000" d="M 379.552 191.8 L 493.752,191.8 L 493.752,215.8 C 470.912,211.8 459.492,211.8 436.652,215.8 C 413.812,219.8 402.392,219.8 379.552,215.8 L 379.552,191.8"/>
    <text font-size="12.8" style="fill: #000000;text-anchor:middle;font-family:monospace;font-style:normal;font-weight:normal" x="436.652" y="205">
      <tspan x="436.652" y="205">8位服务类型(TOS)</tspan>
    </text>
  </g>
  <g>
    <path style="fill: #ffffff" d="M 596.102 192 L 707.702,192 L 707.702,216 C 685.382,212 674.222,212 651.902,216 C 629.582,220 618.422,220 596.102,216 L 596.102,192z"/>
    <path style="fill: none; fill-opacity:0; stroke-width: 0.02; stroke: #000000" d="M 596.102 192 L 707.702,192 L 707.702,216 C 685.382,212 674.222,212 651.902,216 C 629.582,220 618.422,220 596.102,216 L 596.102,192"/>
    <text font-size="12.8" style="fill: #000000;text-anchor:middle;font-family:monospace;font-style:normal;font-weight:normal" x="651.902" y="205.2">
      <tspan x="651.902" y="205.2">16总长度(字节数)</tspan>
    </text>
  </g>
  <g>
    <path style="fill: #ffffff" d="M 332.002 233 L 389.802,233 L 389.802,257 C 378.242,253 372.462,253 360.902,257 C 349.342,261 343.562,261 332.002,257 L 332.002,233z"/>
    <path style="fill: none; fill-opacity:0; stroke-width: 0.02; stroke: #000000" d="M 332.002 233 L 389.802,233 L 389.802,257 C 378.242,253 372.462,253 360.902,257 C 349.342,261 343.562,261 332.002,257 L 332.002,233"/>
    <text font-size="12.8" style="fill: #000000;text-anchor:middle;font-family:monospace;font-style:normal;font-weight:normal" x="360.902" y="246.2">
      <tspan x="360.902" y="246.2">16位标识</tspan>
    </text>
  </g>
  <g>
    <path style="fill: #ffffff" d="M 520.852 235 L 570.952,235 L 570.952,259 C 560.932,255 555.922,255 545.902,259 C 535.882,263 530.872,263 520.852,259 L 520.852,235z"/>
    <path style="fill: none; fill-opacity:0; stroke-width: 0.02; stroke: #000000" d="M 520.852 235 L 570.952,235 L 570.952,259 C 560.932,255 555.922,255 545.902,259 C 535.882,263 530.872,263 520.852,259 L 520.852,235"/>
    <text font-size="12.8" style="fill: #000000;text-anchor:middle;font-family:monospace;font-style:normal;font-weight:normal" x="545.902" y="248.2">
      <tspan x="545.902" y="248.2">3位标志</tspan>
    </text>
  </g>
  <g>
    <path style="fill: #ffffff" d="M 672.602 234 L 743.202,234 L 743.202,258 C 729.082,254 722.022,254 707.902,258 C 693.782,262 686.722,262 672.602,258 L 672.602,234z"/>
    <path style="fill: none; fill-opacity:0; stroke-width: 0.02; stroke: #000000" d="M 672.602 234 L 743.202,234 L 743.202,258 C 729.082,254 722.022,254 707.902,258 C 693.782,262 686.722,262 672.602,258 L 672.602,234"/>
    <text font-size="12.8" style="fill: #000000;text-anchor:middle;font-family:monospace;font-style:normal;font-weight:normal" x="707.902" y="247.2">
      <tspan x="707.902" y="247.2">13位片偏移</tspan>
    </text>
  </g>
  <g>
    <path style="fill: #ffffff" d="M 207.374 276 L 321.574,276 L 321.574,300 C 298.734,296 287.314,296 264.474,300 C 241.634,304 230.214,304 207.374,300 L 207.374,276z"/>
    <path style="fill: none; fill-opacity:0; stroke-width: 0.02; stroke: #000000" d="M 207.374 276 L 321.574,276 L 321.574,300 C 298.734,296 287.314,296 264.474,300 C 241.634,304 230.214,304 207.374,300 L 207.374,276"/>
    <text font-size="12.8" style="fill: #000000;text-anchor:middle;font-family:monospace;font-style:normal;font-weight:normal" x="264.474" y="289.2">
      <tspan x="264.474" y="289.2">8位生存时间(TTL)</tspan>
    </text>
  </g>
  <g>
    <path style="fill: #ffffff" d="M 420.852 276 L 470.952,276 L 470.952,300 C 460.932,296 455.922,296 445.902,300 C 435.882,304 430.872,304 420.852,300 L 420.852,276z"/>
    <path style="fill: none; fill-opacity:0; stroke-width: 0.02; stroke: #000000" d="M 420.852 276 L 470.952,276 L 470.952,300 C 460.932,296 455.922,296 445.902,300 C 435.882,304 430.872,304 420.852,300 L 420.852,276"/>
    <text font-size="12.8" style="fill: #000000;text-anchor:middle;font-family:monospace;font-style:normal;font-weight:normal" x="445.902" y="289.2">
      <tspan x="445.902" y="289.2">8位协议</tspan>
    </text>
  </g>
  <g>
    <path style="fill: #ffffff" d="M 616.802 278 L 713.002,278 L 713.002,302 C 693.762,298 684.142,298 664.902,302 C 645.662,306 636.042,306 616.802,302 L 616.802,278z"/>
    <path style="fill: none; fill-opacity:0; stroke-width: 0.02; stroke: #000000" d="M 616.802 278 L 713.002,278 L 713.002,302 C 693.762,298 684.142,298 664.902,302 C 645.662,306 636.042,306 616.802,302 L 616.802,278"/>
    <text font-size="12.8" style="fill: #000000;text-anchor:middle;font-family:monospace;font-style:normal;font-weight:normal" x="664.902" y="291.2">
      <tspan x="664.902" y="291.2">16位首部校验和</tspan>
    </text>
  </g>
  <g>
    <path style="fill: #ffffff" d="M 476.902 319 L 562.902,319 L 562.902,343 C 545.702,339 537.102,339 519.902,343 C 502.702,347 494.102,347 476.902,343 L 476.902,319z"/>
    <path style="fill: none; fill-opacity:0; stroke-width: 0.02; stroke: #000000" d="M 476.902 319 L 562.902,319 L 562.902,343 C 545.702,339 537.102,339 519.902,343 C 502.702,347 494.102,347 476.902,343 L 476.902,319"/>
    <text font-size="12.8" style="fill: #000000;text-anchor:middle;font-family:monospace;font-style:normal;font-weight:normal" x="519.902" y="332.2">
      <tspan x="519.902" y="332.2">32位源IP地址</tspan>
    </text>
  </g>
  <g>
    <path style="fill: #ffffff" d="M 475.502 362 L 574.302,362 L 574.302,386 C 554.542,382 544.662,382 524.902,386 C 505.142,390 495.262,390 475.502,386 L 475.502,362z"/>
    <path style="fill: none; fill-opacity:0; stroke-width: 0.02; stroke: #000000" d="M 475.502 362 L 574.302,362 L 574.302,386 C 554.542,382 544.662,382 524.902,386 C 505.142,390 495.262,390 475.502,386 L 475.502,362"/>
    <text font-size="12.8" style="fill: #000000;text-anchor:middle;font-family:monospace;font-style:normal;font-weight:normal" x="524.902" y="375.2">
      <tspan x="524.902" y="375.2">32位目的IP地址</tspan>
    </text>
  </g>
  <g>
    <path style="fill: #ffffff" d="M 474.202 423 L 557.602,423 L 557.602,447 C 540.922,443 532.582,443 515.902,447 C 499.222,451 490.882,451 474.202,447 L 474.202,423z"/>
    <path style="fill: none; fill-opacity:0; stroke-width: 0.02; stroke: #000000" d="M 474.202 423 L 557.602,423 L 557.602,447 C 540.922,443 532.582,443 515.902,447 C 499.222,451 490.882,451 474.202,447 L 474.202,423"/>
    <text font-size="12.8" style="fill: #000000;text-anchor:middle;font-family:monospace;font-style:normal;font-weight:normal" x="515.902" y="436.2">
      <tspan x="515.902" y="436.2">选项(如果有)</tspan>
    </text>
  </g>
  <g>
    <path style="fill: #ffffff" d="M 196.552 155 L 208.252,155 L 208.252,179 C 205.912,175 204.742,175 202.402,179 C 200.062,183 198.892,183 196.552,179 L 196.552,155z"/>
    <path style="fill: none; fill-opacity:0; stroke-width: 0.02; stroke: #000000" d="M 196.552 155 L 208.252,155 L 208.252,179 C 205.912,175 204.742,175 202.402,179 C 200.062,183 198.892,183 196.552,179 L 196.552,155"/>
    <text font-size="12.8" style="fill: #000000;text-anchor:middle;font-family:monospace;font-style:normal;font-weight:normal" x="202.402" y="168.2">
      <tspan x="202.402" y="168.2">0</tspan>
    </text>
  </g>
  <g>
    <path style="fill: #ffffff" d="M 498.689 156 L 518.089,156 L 518.089,180 C 514.209,176 512.269,176 508.389,180 C 504.509,184 502.569,184 498.689,180 L 498.689,156z"/>
    <path style="fill: none; fill-opacity:0; stroke-width: 0.02; stroke: #000000" d="M 498.689 156 L 518.089,156 L 518.089,180 C 514.209,176 512.269,176 508.389,180 C 504.509,184 502.569,184 498.689,180 L 498.689,156"/>
    <text font-size="12.8" style="fill: #000000;text-anchor:middle;font-family:monospace;font-style:normal;font-weight:normal" x="508.389" y="169.2">
      <tspan x="508.389" y="169.2">15</tspan>
    </text>
  </g>
  <g>
    <path style="fill: #ffffff" d="M 518.219 156 L 537.619,156 L 537.619,180 C 533.739,176 531.799,176 527.919,180 C 524.039,184 522.099,184 518.219,180 L 518.219,156z"/>
    <path style="fill: none; fill-opacity:0; stroke-width: 0.02; stroke: #000000" d="M 518.219 156 L 537.619,156 L 537.619,180 C 533.739,176 531.799,176 527.919,180 C 524.039,184 522.099,184 518.219,180 L 518.219,156"/>
    <text font-size="12.8" style="fill: #000000;text-anchor:middle;font-family:monospace;font-style:normal;font-weight:normal" x="527.919" y="169.2">
      <tspan x="527.919" y="169.2">16</tspan>
    </text>
  </g>
  <g>
    <path style="fill: #ffffff" d="M 830.202 155 L 849.602,155 L 849.602,179 C 845.722,175 843.782,175 839.902,179 C 836.022,183 834.082,183 830.202,179 L 830.202,155z"/>
    <path style="fill: none; fill-opacity:0; stroke-width: 0.02; stroke: #000000" d="M 830.202 155 L 849.602,155 L 849.602,179 C 845.722,175 843.782,175 839.902,179 C 836.022,183 834.082,183 830.202,179 L 830.202,155"/>
    <text font-size="12.8" style="fill: #000000;text-anchor:middle;font-family:monospace;font-style:normal;font-weight:normal" x="839.902" y="168.2">
      <tspan x="839.902" y="168.2">31</tspan>
    </text>
  </g>
  <line style="fill: none; fill-opacity:0; stroke-width: 2; stroke: #000000" x1="518.799" y1="231.36" x2="518.952" y2="183.992"/>
  <line style="fill: none; fill-opacity:0; stroke-width: 2; stroke: #000000" x1="279.72" y1="226.502" x2="279.72" y2="184.502"/>
  <line style="fill: none; fill-opacity:0; stroke-width: 2; stroke: #000000" x1="360.853" y1="225.998" x2="360.853" y2="183.998"/>
  <line style="fill: none; fill-opacity:0; stroke-width: 1; stroke: #000000" x1="856.13" y1="394.276" x2="870.753" y2="394.276"/>
  <line style="fill: none; fill-opacity:0; stroke-width: 1; stroke: #000000" x1="856.076" y1="185.515" x2="870.699" y2="185.515"/>
  <g>
    <path style="fill: #ffffff" d="M 841.22 255.609 L 884.82,255.609 L 884.82,299.403 C 876.1,292.104 871.74,292.104 863.02,299.403 C 854.3,306.702 849.94,306.702 841.22,299.403 L 841.22,255.609z"/>
    <path style="fill: none; fill-opacity:0; stroke-width: 0.02; stroke: #000000" d="M 841.22 255.609 L 884.82,255.609 L 884.82,299.403 C 876.1,292.104 871.74,292.104 863.02,299.403 C 854.3,306.702 849.94,306.702 841.22,299.403 L 841.22,255.609"/>
    <text font-size="12.7998" style="fill: #000000;text-anchor:middle;font-family:sans-serif;font-style:normal;font-weight:normal" x="863.02" y="278.856">
      <tspan x="863.02" y="278.856">20字节</tspan>
    </text>
  </g>
  <g>
    <line style="fill: none; fill-opacity:0; stroke-width: 1; stroke: #000000" x1="863.02" y1="255.609" x2="863.332" y2="196.014"/>
    <polygon style="fill: #000000" points="868.332,196.041 863.385,186.015 858.332,195.988 "/>
    <polygon style="fill: none; fill-opacity:0; stroke-width: 1; stroke: #000000" points="868.332,196.041 863.385,186.015 858.332,195.988 "/>
  </g>
  <g>
    <line style="fill: none; fill-opacity:0; stroke-width: 1; stroke: #000000" x1="863.088" y1="299.341" x2="863.403" y2="383.776"/>
    <polygon style="fill: #000000" points="858.403,383.795 863.44,393.776 868.403,383.757 "/>
    <polygon style="fill: none; fill-opacity:0; stroke-width: 1; stroke: #000000" points="858.403,383.795 863.44,393.776 868.403,383.757 "/>
  </g>
</svg>
