<?xml version="1.0" encoding="UTF-8" standalone="no"?>
<!DOCTYPE svg PUBLIC "-//W3C//DTD SVG 1.0//EN" "http://www.w3.org/TR/2001/PR-SVG-20010719/DTD/svg10.dtd">
<svg width="32cm" height="24cm" viewBox="626 112 629 477" xmlns="http://www.w3.org/2000/svg" xmlns:xlink="http://www.w3.org/1999/xlink">
  <g>
    <rect style="fill: #ffffff" x="731.026" y="230.331" width="523.629" height="296.282"/>
    <rect style="fill: none; fill-opacity:0; stroke-width: 1; stroke-dasharray: 4; stroke: #000000" x="731.026" y="230.331" width="523.629" height="296.282"/>
    <text font-size="12.8" style="fill: #000000;text-anchor:middle;font-family:monospace;font-style:normal;font-weight:normal" x="992.84" y="381.122">
      <tspan x="992.84" y="381.122"></tspan>
    </text>
  </g>
  <g>
    <path style="fill: none; fill-opacity:0; stroke-width: 0.4; stroke-linecap: round; stroke: #000000" d="M 857.023 325.518 L 856.891,325.269 L 859.764,323.285 L 859.904,323.457 L 859.055,324.077 C 859.047,324.154 859.039,324.232 858.953,324.302 C 858.937,324.457 858.922,324.613 858.922,324.613 L 862.556,329.775 C 862.626,329.861 862.703,329.869 862.781,329.877 C 862.859,329.884 862.937,329.892 863.1,329.831 L 863.949,329.211 L 864.08,329.46 L 861.207,331.443 L 861.068,331.272 L 861.839,330.644 C 861.917,330.652 862.002,330.582 862.096,330.435 C 862.026,330.349 861.956,330.263 861.964,330.186 L 858.33,325.024 C 858.33,325.024 858.338,324.946 858.19,324.852 C 858.182,324.93 858.027,324.914 857.871,324.898 L 857.023,325.518"/>
    <path style="fill: none; fill-opacity:0; stroke-width: 0.4; stroke-linecap: round; stroke: #000000" d="M 867.529 327.221 C 866.766,327.771 866.051,327.855 865.375,327.55 C 864.606,327.393 863.962,326.777 863.141,325.594 C 862.598,324.753 862.219,323.851 862.159,322.902 C 862.161,322.117 862.551,321.372 863.245,320.736 C 863.486,320.682 863.649,320.62 863.82,320.48 C 864.054,320.504 864.217,320.442 864.311,320.295 C 864.388,320.303 864.474,320.233 864.482,320.155 C 864.568,320.086 864.576,320.008 864.591,319.852 L 866.027,321.177 L 865.847,321.394 C 865.405,321.114 864.954,320.91 864.496,320.785 C 864.107,320.745 863.789,320.791 863.368,321.062 C 862.932,321.489 862.713,322.095 862.805,322.732 C 862.959,323.534 863.276,324.273 863.74,325.106 C 864.438,325.962 865.004,326.57 865.594,326.944 C 866.106,327.311 866.658,327.289 867.336,326.808 C 867.67,326.607 867.943,326.242 867.991,325.776 C 868.039,325.309 867.931,324.827 867.831,324.267 L 868.072,324.213 C 868.242,324.859 868.342,325.419 868.286,325.963 C 868.153,326.499 867.872,326.942 867.529,327.221 L 867.529,327.221"/>
    <path style="fill: none; fill-opacity:0; stroke-width: 0.4; stroke-linecap: round; stroke: #000000" d="M 873.215 322.305 C 873.199,322.46 873.269,322.546 873.432,322.484 C 873.424,322.562 873.588,322.5 873.759,322.36 L 873.922,322.299 L 874.062,322.47 L 872.536,323.57 L 872.326,323.313 L 872.49,323.252 C 872.653,323.19 872.739,323.12 872.747,323.042 C 872.755,322.965 872.685,322.879 872.623,322.716 L 869.338,317.982 L 869.252,318.052 L 871.695,324.113 L 871.524,324.252 L 866.784,319.919 L 866.698,319.989 L 869.914,324.637 C 869.906,324.715 869.975,324.801 870.139,324.739 C 870.131,324.817 870.294,324.755 870.458,324.693 L 870.543,324.623 L 870.761,324.802 L 869.663,325.554 L 869.523,325.383 L 869.609,325.313 C 869.695,325.243 869.703,325.166 869.796,325.018 C 869.726,324.932 869.734,324.855 869.742,324.777 L 866.108,319.615 C 866.108,319.615 866.038,319.529 865.891,319.436 C 865.883,319.513 865.719,319.575 865.564,319.559 L 865.4,319.621 L 865.261,319.45 L 866.359,318.698 L 870.734,322.758 L 870.82,322.688 L 868.562,317.117 L 869.746,316.296 L 869.877,316.545 L 869.714,316.607 C 869.698,316.762 869.604,316.91 869.604,316.91 C 869.588,317.065 869.58,317.143 869.58,317.143 L 873.215,322.305"/>
    <path style="fill: none; fill-opacity:0; stroke-width: 0.4; stroke-linecap: round; stroke: #000000" d="M 873.527 318.489 L 875.247,320.863 C 875.231,321.019 875.301,321.105 875.464,321.043 C 875.534,321.128 875.62,321.059 875.713,320.911 L 875.962,320.78 L 876.18,320.959 L 874.404,322.191 L 874.265,322.02 L 874.522,321.81 C 874.53,321.732 874.616,321.663 874.701,321.593 C 874.631,321.507 874.639,321.43 874.655,321.274 L 871.021,316.112 C 871.021,316.112 870.951,316.026 870.804,315.933 C 870.796,316.01 870.632,316.072 870.477,316.056 L 870.306,316.196 L 870.088,316.017 L 872.284,314.513 C 872.876,314.103 873.443,313.925 873.987,313.981 C 874.531,314.036 874.896,314.309 875.237,314.815 C 875.578,315.321 875.756,315.889 875.622,316.425 C 875.411,316.954 875.13,317.396 874.624,317.737 L 873.527,318.489"/>
    <path style="fill: none; fill-opacity:0; stroke-width: 0.4; stroke-linecap: round; stroke: #000000" d="M 874.321 317.627 C 874.648,317.504 874.843,317.131 874.969,316.673 C 875.086,316.292 875.056,315.818 874.645,315.226 C 874.374,314.806 874.002,314.611 873.621,314.493 C 873.232,314.453 872.75,314.561 872.252,314.824 L 871.746,315.165 C 871.652,315.313 871.636,315.468 871.559,315.46 C 871.543,315.616 871.535,315.693 871.613,315.701 L 873.387,318.317 L 874.321,317.627"/>
    <path style="fill: none; fill-opacity:0; stroke-width: 0.4; stroke-linecap: round; stroke: #000000" d="M 881.43 312.621 L 882.112,313.634 L 883.973,312.332 L 883.283,311.397 L 881.43,312.621"/>
    <path style="fill: none; fill-opacity:0; stroke-width: 0.4; stroke-linecap: round; stroke: #000000" d="M 879.805 316.225 C 879.472,315.641 879.139,315.057 878.72,314.543 C 878.302,314.029 877.883,313.515 877.472,312.924 L 878.266,312.848 L 880.041,311.616 L 879.421,310.767 L 877.139,312.34 C 876.875,312.627 876.618,312.836 876.353,313.123 L 875.816,312.99 L 879.289,310.518 L 878.669,309.669 C 877.547,310.654 876.699,311.274 876.029,311.677 L 875.967,311.513 C 877.073,310.684 878.101,309.847 878.896,308.985 C 879.761,308.21 880.221,307.55 880.51,307.03 L 881.504,307.289 C 881.169,307.49 880.912,307.7 880.655,307.909 C 880.235,308.18 879.791,308.684 879.105,309.242 L 879.717,310.169 L 882.162,308.534 L 882.327,307.687 L 883.485,307.884 L 879.927,310.426 L 880.469,311.267 L 882.244,310.035 L 882.222,309.483 L 883.085,309.492 L 882.96,309.951 C 883.633,311.041 884.176,311.881 884.75,312.411 L 884.375,313.001 L 884.104,312.581 L 882.251,313.805 L 882.933,314.817 L 884.88,313.445 L 885.045,312.598 L 886.195,312.873 L 883.15,314.996 L 883.902,316.094 L 886.612,314.172 L 886.785,313.248 L 888.012,313.53 L 880.826,318.528 C 880.406,318.799 880.141,319.086 880.039,319.312 L 879.503,319.178 L 883.396,316.435 L 882.644,315.337 L 880.784,316.639 C 880.441,316.918 880.176,317.205 880.005,317.345 L 879.469,317.211 L 882.513,315.088 L 881.823,314.154 L 880.048,315.386 L 880.179,315.635 L 879.805,316.225"/>
    <path style="fill: none; fill-opacity:0; stroke-width: 0.4; stroke-linecap: round; stroke: #000000" d="M 878.405 313.019 L 879.095,313.953 L 880.792,312.713 L 880.18,311.787 L 878.405,313.019"/>
    <path style="fill: none; fill-opacity:0; stroke-width: 0.4; stroke-linecap: round; stroke: #000000" d="M 879.226 314.202 L 879.916,315.137 L 881.691,313.905 L 881.002,312.97 L 879.226,314.202"/>
    <path style="fill: none; fill-opacity:0; stroke-width: 0.4; stroke-linecap: round; stroke: #000000" d="M 880.609 311.438 L 881.298,312.372 L 883.074,311.14 L 882.461,310.214 L 880.609,311.438"/>
    <path style="fill: none; fill-opacity:0; stroke-width: 0.4; stroke-linecap: round; stroke: #000000" d="M 889.252 308.317 C 889.282,308.791 889.406,309.118 889.545,309.289 C 890.066,309.578 890.602,309.711 891.076,309.681 C 891.542,309.729 891.947,309.613 892.351,309.497 L 889.748,305.776 L 887.715,307.217 C 887.45,307.504 887.193,307.714 886.936,307.923 L 886.392,307.867 L 891.983,303.884 L 892.148,303.037 L 893.384,303.242 L 890.254,305.435 L 891.486,307.21 L 893.09,306.118 L 893.255,305.271 L 894.413,305.467 L 891.617,307.459 L 892.997,309.328 C 893.658,309.003 894.328,308.6 895.005,308.12 C 895.683,307.639 896.274,307.228 896.796,306.732 L 896.858,306.896 C 896.422,307.322 896.304,307.703 896.506,308.037 C 895.245,308.851 894.24,309.455 893.579,309.78 C 892.762,310.089 892.124,310.181 891.58,310.125 C 890.881,310.054 890.267,309.913 889.677,309.538 C 889.753,310.331 889.767,310.961 889.875,311.443 C 889.811,312.065 889.678,312.601 889.451,313.285 L 889.303,313.191 C 889.375,312.491 889.361,311.862 889.355,311.154 C 889.255,310.594 889.077,310.027 888.9,309.459 C 888.629,309.038 888.443,308.548 888.188,307.972 L 889.3,307.85 L 889.252,308.317"/>
    <path style="fill: none; fill-opacity:0; stroke-width: 0.4; stroke-linecap: round; stroke: #000000" d="M 886.925 302.66 L 886.941,302.505 C 887.57,302.49 887.967,302.452 888.2,302.476 C 888.433,302.5 888.581,302.594 888.643,302.757 C 888.704,302.921 888.689,303.076 888.673,303.231 C 888.657,303.387 888.641,303.542 888.641,303.542 C 888.547,303.69 888.4,303.596 888.19,303.339 C 887.903,303.074 887.531,302.879 886.925,302.66 L 886.925,302.66"/>
    <path style="fill: none; fill-opacity:0; stroke-width: 0.4; stroke-linecap: round; stroke: #000000" d="M 891.907 303.091 L 891.723,301.816 L 885.969,305.861 C 886.45,306.538 886.651,306.873 886.48,307.012 C 886.464,307.168 886.37,307.315 886.215,307.299 C 886.199,307.455 886.044,307.439 885.888,307.423 C 885.733,307.407 885.655,307.399 885.655,307.399 C 885.585,307.314 885.601,307.158 885.641,306.769 C 885.75,306.467 885.651,305.907 885.325,305.245 L 885.489,305.183 L 885.83,305.689 L 891.498,301.714 L 891.647,301.023 L 892.719,301.289 C 892.299,301.56 892.08,302.166 892.062,303.107 L 891.907,303.091"/>
    <path style="fill: none; fill-opacity:0; stroke-width: 0.4; stroke-linecap: round; stroke: #000000" d="M 898.273 299.972 L 899.575,301.833 L 901.599,300.469 L 900.297,298.609 L 898.273,299.972"/>
    <path style="fill: none; fill-opacity:0; stroke-width: 0.4; stroke-linecap: round; stroke: #000000" d="M 903.243 302.051 C 903.664,301.78 904.006,301.501 904.341,301.3 C 904.598,301.09 904.622,300.857 904.421,300.522 L 900.934,295.454 L 895.343,299.437 L 899.659,305.611 L 899.277,306.279 C 898.797,305.602 898.378,305.088 898.115,304.59 L 895.449,300.704 C 895.186,300.206 894.759,299.77 894.341,299.256 L 895.212,299.188 L 896.738,298.088 C 896.445,297.115 896.205,296.384 896.012,295.972 L 897.046,295.842 C 896.928,296.222 896.935,296.93 896.987,297.956 L 900.708,295.352 L 900.694,294.723 L 901.627,294.818 L 901.502,295.276 L 905.144,300.361 C 905.547,301.03 905.569,301.582 905.124,302.086 C 904.845,301.744 904.216,301.758 903.305,302.215 L 903.243,302.051"/>
    <path style="fill: none; fill-opacity:0; stroke-width: 0.4; stroke-linecap: round; stroke: #000000" d="M 901.973 299.879 C 902.027,300.121 902.236,300.378 902.601,300.65 L 902.219,301.318 L 901.738,300.641 L 899.784,302.09 L 900.125,302.596 L 899.75,303.186 C 899.262,302.586 898.851,301.995 898.449,301.325 C 898.03,300.811 897.689,300.305 897.348,299.799 L 898.133,299.801 L 900.088,298.352 L 900.143,297.808 L 900.998,297.895 L 900.951,298.361 L 901.973,299.879"/>
  </g>
  <g>
    <ellipse style="fill: #ffffff" cx="794.02" cy="382.76" rx="31.9802" ry="32.2401"/>
    <ellipse style="fill: none; fill-opacity:0; stroke-width: 1; stroke-linecap: round; stroke-dasharray: 4; stroke: #000000" cx="794.02" cy="382.76" rx="31.9802" ry="32.2401"/>
    <text font-size="12.8" style="fill: #000000;text-anchor:middle;font-family:monospace;font-style:normal;font-weight:normal" x="794.02" y="385.76">
      <tspan x="794.02" y="385.76">路由表</tspan>
    </text>
  </g>
  <g>
    <rect style="fill: #ffffff" x="931.3" y="259" width="62.7" height="38"/>
    <rect style="fill: none; fill-opacity:0; stroke-width: 2; stroke-linecap: round; stroke: #000000" x="931.3" y="259" width="62.7" height="38"/>
    <text font-size="12.8" style="fill: #000000;text-anchor:middle;font-family:monospace;font-style:normal;font-weight:normal" x="962.65" y="280.65">
      <tspan x="962.65" y="280.65">ICMP</tspan>
    </text>
  </g>
  <g>
    <rect style="fill: #ffffff" x="905.5" y="348" width="114.2" height="70"/>
    <rect style="fill: none; fill-opacity:0; stroke-width: 2; stroke-linecap: round; stroke: #000000" x="905.5" y="348" width="114.2" height="70"/>
    <text font-size="12.8" style="fill: #000000;text-anchor:middle;font-family:monospace;font-style:normal;font-weight:normal" x="962.6" y="370">
      <tspan x="962.6" y="370">IP输出:</tspan>
      <tspan x="962.6" y="386">计算下一站路</tspan>
      <tspan x="962.6" y="402">由器(如果需要)</tspan>
    </text>
  </g>
  <g>
    <rect style="fill: #ffffff" x="1150.79" y="159.968" width="67.8718" height="38"/>
    <rect style="fill: none; fill-opacity:0; stroke-width: 2; stroke-linecap: round; stroke: #000000" x="1150.79" y="159.968" width="67.8718" height="38"/>
    <text font-size="12.8" style="fill: #000000;text-anchor:middle;font-family:monospace;font-style:normal;font-weight:normal" x="1184.73" y="181.618">
      <tspan x="1184.73" y="181.618">TCP</tspan>
    </text>
  </g>
  <g>
    <rect style="fill: #ffffff" x="1050.49" y="160.93" width="70.5475" height="38"/>
    <rect style="fill: none; fill-opacity:0; stroke-width: 2; stroke-linecap: round; stroke: #000000" x="1050.49" y="160.93" width="70.5475" height="38"/>
    <text font-size="12.8" style="fill: #000000;text-anchor:middle;font-family:monospace;font-style:normal;font-weight:normal" x="1085.77" y="182.58">
      <tspan x="1085.77" y="182.58">UDP</tspan>
    </text>
  </g>
  <g>
    <rect style="fill: #ffffff" x="699.8" y="113.121" width="60.4" height="54"/>
    <rect style="fill: none; fill-opacity:0; stroke-width: 2; stroke-linecap: round; stroke: #000000" x="699.8" y="113.121" width="60.4" height="54"/>
    <text font-size="12.8" style="fill: #000000;text-anchor:middle;font-family:monospace;font-style:normal;font-weight:normal" x="730" y="135.121">
      <tspan x="730" y="135.121">路由守</tspan>
      <tspan x="730" y="151.121">护程序</tspan>
    </text>
  </g>
  <g>
    <rect style="fill: #ffffff" x="794.35" y="113.121" width="73.3" height="54"/>
    <rect style="fill: none; fill-opacity:0; stroke-width: 2; stroke-linecap: round; stroke: #000000" x="794.35" y="113.121" width="73.3" height="54"/>
    <text font-size="12.8" style="fill: #000000;text-anchor:middle;font-family:monospace;font-style:normal;font-weight:normal" x="831" y="135.121">
      <tspan x="831" y="135.121">route命</tspan>
      <tspan x="831" y="151.121">令</tspan>
    </text>
  </g>
  <g>
    <rect style="fill: #ffffff" x="895.05" y="113.944" width="75.9" height="54"/>
    <rect style="fill: none; fill-opacity:0; stroke-width: 2; stroke-linecap: round; stroke: #000000" x="895.05" y="113.944" width="75.9" height="54"/>
    <text font-size="12.8" style="fill: #000000;text-anchor:middle;font-family:monospace;font-style:normal;font-weight:normal" x="933" y="135.769">
      <tspan x="933" y="135.769">netstat</tspan>
      <tspan x="933" y="151.769">命令</tspan>
    </text>
  </g>
  <g>
    <rect style="fill: #ffffff" x="1104.53" y="473.292" width="95.9588" height="38"/>
    <rect style="fill: none; fill-opacity:0; stroke-width: 2; stroke-linecap: round; stroke: #000000" x="1104.53" y="473.292" width="95.9588" height="38"/>
    <text font-size="12.8" style="fill: #000000;text-anchor:middle;font-family:monospace;font-style:normal;font-weight:normal" x="1152.51" y="495.292">
      <tspan x="1152.51" y="495.292">IP输入队列</tspan>
    </text>
  </g>
  <g>
    <rect style="fill: #ffffff" x="1102.51" y="400.975" width="99.525" height="38"/>
    <rect style="fill: none; fill-opacity:0; stroke-width: 2; stroke-linecap: round; stroke: #000000" x="1102.51" y="400.975" width="99.525" height="38"/>
    <text font-size="12.8" style="fill: #000000;text-anchor:middle;font-family:monospace;font-style:normal;font-weight:normal" x="1152.27" y="422.975">
      <tspan x="1152.27" y="422.975">处理IP选项</tspan>
    </text>
  </g>
  <g>
    <rect style="fill: #ffffff" x="1097.96" y="297.927" width="109.1" height="70"/>
    <rect style="fill: none; fill-opacity:0; stroke-width: 2; stroke-linecap: round; stroke: #000000" x="1097.96" y="297.927" width="109.1" height="70"/>
    <text font-size="12.8" style="fill: #000000;text-anchor:middle;font-family:monospace;font-style:normal;font-weight:normal" x="1152.51" y="319.927">
      <tspan x="1152.51" y="319.927">是分组(IP地址</tspan>
      <tspan x="1152.51" y="335.927">之一或是广播</tspan>
      <tspan x="1152.51" y="351.927">地址)</tspan>
    </text>
  </g>
  <g>
    <line style="fill: none; fill-opacity:0; stroke-width: 1; stroke: #000000" x1="895" y1="382.977" x2="826.489" y2="382.83"/>
    <polygon style="fill: #000000" points="894.989,387.977 905,382.999 895.011,377.977 "/>
    <polygon style="fill: none; fill-opacity:0; stroke-width: 1; stroke: #000000" points="894.989,387.977 905,382.999 895.011,377.977 "/>
  </g>
  <g>
    <line style="fill: none; fill-opacity:0; stroke-width: 1; stroke-dasharray: 4; stroke: #000000" x1="811.749" y1="355.357" x2="927.296" y2="176.76"/>
    <polygon style="fill: #000000" points="931.494,179.476 932.728,168.364 923.098,174.044 "/>
    <polygon style="fill: none; fill-opacity:0; stroke-width: 1; stroke: #000000" points="931.494,179.476 932.728,168.364 923.098,174.044 "/>
  </g>
  <g>
    <line style="fill: none; fill-opacity:0; stroke-width: 1; stroke-dasharray: 4; stroke: #000000" x1="737.385" y1="168.111" x2="782.993" y2="340.967"/>
    <polygon style="fill: #000000" points="778.158,342.242 785.544,350.636 787.827,339.691 "/>
    <polygon style="fill: none; fill-opacity:0; stroke-width: 1; stroke: #000000" points="778.158,342.242 785.544,350.636 787.827,339.691 "/>
  </g>
  <g>
    <line style="fill: none; fill-opacity:0; stroke-width: 1; stroke-dasharray: 4; stroke: #000000" x1="826.734" y1="168.111" x2="800.534" y2="340.021"/>
    <polygon style="fill: #000000" points="795.591,339.268 799.027,349.907 805.476,340.774 "/>
    <polygon style="fill: none; fill-opacity:0; stroke-width: 1; stroke: #000000" points="795.591,339.268 799.027,349.907 805.476,340.774 "/>
  </g>
  <g>
    <line style="fill: none; fill-opacity:0; stroke-width: 1; stroke: #000000" x1="962.622" y1="336.496" x2="962.64" y2="298.002"/>
    <polygon style="fill: #000000" points="957.622,336.494 962.617,346.496 967.622,336.498 "/>
    <polygon style="fill: none; fill-opacity:0; stroke-width: 1; stroke: #000000" points="957.622,336.494 962.617,346.496 967.622,336.498 "/>
  </g>
  <g>
    <line style="fill: none; fill-opacity:0; stroke-width: 1; stroke-dasharray: 4; stroke: #000000" x1="930.497" y1="297.975" x2="829.946" y2="360.441"/>
    <polygon style="fill: #000000" points="827.307,356.194 821.452,365.718 832.584,364.688 "/>
    <polygon style="fill: none; fill-opacity:0; stroke-width: 1; stroke: #000000" points="827.307,356.194 821.452,365.718 832.584,364.688 "/>
  </g>
  <g>
    <line style="fill: none; fill-opacity:0; stroke-width: 1; stroke: #000000" x1="1030.55" y1="357.863" x2="1097.96" y2="332.927"/>
    <polygon style="fill: #000000" points="1028.82,353.173 1021.17,361.332 1032.29,362.552 "/>
    <polygon style="fill: none; fill-opacity:0; stroke-width: 1; stroke: #000000" points="1028.82,353.173 1021.17,361.332 1032.29,362.552 "/>
  </g>
  <g>
    <line style="fill: none; fill-opacity:0; stroke-width: 1; stroke: #000000" x1="1152.38" y1="379.406" x2="1152.33" y2="399.977"/>
    <polygon style="fill: #000000" points="1157.38,379.42 1152.41,369.406 1147.38,379.393 "/>
    <polygon style="fill: none; fill-opacity:0; stroke-width: 1; stroke: #000000" points="1157.38,379.42 1152.41,369.406 1147.38,379.393 "/>
  </g>
  <g>
    <line style="fill: none; fill-opacity:0; stroke-width: 1; stroke: #000000" x1="1031" y1="396.333" x2="1101.51" y2="410.079"/>
    <polygon style="fill: #000000" points="1031.95,391.426 1021.18,394.42 1030.04,401.241 "/>
    <polygon style="fill: none; fill-opacity:0; stroke-width: 1; stroke: #000000" points="1031.95,391.426 1021.18,394.42 1030.04,401.241 "/>
  </g>
  <g>
    <line style="fill: none; fill-opacity:0; stroke-width: 1; stroke: #000000" x1="1152.37" y1="450.47" x2="1152.44" y2="472.297"/>
    <polygon style="fill: #000000" points="1157.37,450.454 1152.34,440.47 1147.37,450.486 "/>
    <polygon style="fill: none; fill-opacity:0; stroke-width: 1; stroke: #000000" points="1157.37,450.454 1152.34,440.47 1147.37,450.486 "/>
  </g>
  <g>
    <line style="fill: none; fill-opacity:0; stroke-width: 1; stroke: #000000" x1="1152.53" y1="259.033" x2="1152.52" y2="296.952"/>
    <polygon style="fill: #000000" points="1157.53,259.035 1152.54,249.033 1147.53,259.032 "/>
    <polygon style="fill: none; fill-opacity:0; stroke-width: 1; stroke: #000000" points="1157.53,259.035 1152.54,249.033 1147.53,259.032 "/>
  </g>
  <g>
    <line style="fill: none; fill-opacity:0; stroke-width: 1; stroke: #000000" x1="1005.34" y1="271.376" x2="1152.54" y2="248.533"/>
    <polygon style="fill: #000000" points="1004.57,266.435 995.456,272.909 1006.1,276.316 "/>
    <polygon style="fill: none; fill-opacity:0; stroke-width: 1; stroke: #000000" points="1004.57,266.435 995.456,272.909 1006.1,276.316 "/>
  </g>
  <line style="fill: none; fill-opacity:0; stroke-width: 0.02; stroke: #000000" x1="1152.27" y1="248.533" x2="1152.8" y2="248.533"/>
  <g>
    <line style="fill: none; fill-opacity:0; stroke-width: 1; stroke: #000000" x1="989.883" y1="338.017" x2="1073.64" y2="199.922"/>
    <polygon style="fill: #000000" points="985.608,335.424 984.698,346.567 994.159,340.609 "/>
    <polygon style="fill: none; fill-opacity:0; stroke-width: 1; stroke: #000000" points="985.608,335.424 984.698,346.567 994.159,340.609 "/>
  </g>
  <g>
    <line style="fill: none; fill-opacity:0; stroke-width: 1; stroke: #000000" x1="1009.51" y1="339.907" x2="1162.95" y2="198.974"/>
    <polygon style="fill: #000000" points="1006.13,336.225 1002.15,346.672 1012.9,343.59 "/>
    <polygon style="fill: none; fill-opacity:0; stroke-width: 1; stroke: #000000" points="1006.13,336.225 1002.15,346.672 1012.9,343.59 "/>
  </g>
  <g>
    <line style="fill: none; fill-opacity:0; stroke-width: 1; stroke: #000000" x1="1112.56" y1="207.461" x2="1152.54" y2="248.533"/>
    <polygon style="fill: #000000" points="1116.14,203.974 1105.59,200.295 1108.98,210.948 "/>
    <polygon style="fill: none; fill-opacity:0; stroke-width: 1; stroke: #000000" points="1116.14,203.974 1105.59,200.295 1108.98,210.948 "/>
  </g>
  <g>
    <line style="fill: none; fill-opacity:0; stroke-width: 1; stroke: #000000" x1="1171.07" y1="208.487" x2="1152.54" y2="248.533"/>
    <polygon style="fill: #000000" points="1175.61,210.586 1175.27,199.411 1166.53,206.387 "/>
    <polygon style="fill: none; fill-opacity:0; stroke-width: 1; stroke: #000000" points="1175.61,210.586 1175.27,199.411 1166.53,206.387 "/>
  </g>
  <g>
    <line style="fill: none; fill-opacity:0; stroke-width: 1; stroke: #000000" x1="962.527" y1="485.847" x2="962.574" y2="418.988"/>
    <polygon style="fill: #000000" points="957.527,485.843 962.52,495.847 967.527,485.85 "/>
    <polygon style="fill: none; fill-opacity:0; stroke-width: 1; stroke: #000000" points="957.527,485.843 962.52,495.847 967.527,485.85 "/>
  </g>
  <line style="fill: none; fill-opacity:0; stroke-width: 0.02; stroke: #000000" x1="962.52" y1="496.347" x2="962.52" y2="496.347"/>
  <g>
    <line style="fill: none; fill-opacity:0; stroke-width: 1; stroke: #000000" x1="1021.58" y1="546.003" x2="962.52" y2="496.347"/>
    <polygon style="fill: #000000" points="1018.36,549.83 1029.23,552.439 1024.8,542.176 "/>
    <polygon style="fill: none; fill-opacity:0; stroke-width: 1; stroke: #000000" points="1018.36,549.83 1029.23,552.439 1024.8,542.176 "/>
  </g>
  <g>
    <line style="fill: none; fill-opacity:0; stroke-width: 1; stroke: #000000" x1="1143.45" y1="516.6" x2="1081.64" y2="552.811"/>
    <polygon style="fill: #000000" points="1145.97,520.914 1152.07,511.545 1140.92,512.286 "/>
    <polygon style="fill: none; fill-opacity:0; stroke-width: 1; stroke: #000000" points="1145.97,520.914 1152.07,511.545 1140.92,512.286 "/>
  </g>
  <g>
    <path style="fill: #ffffff" d="M 731.905 496.395 L 764.105,496.395 L 764.105,520.395 C 757.665,516.395 754.445,516.395 748.005,520.395 C 741.565,524.395 738.345,524.395 731.905,520.395 L 731.905,496.395z"/>
    <path style="fill: none; fill-opacity:0; stroke-width: 0.02; stroke: #000000" d="M 731.905 496.395 L 764.105,496.395 L 764.105,520.395 C 757.665,516.395 754.445,516.395 748.005,520.395 C 741.565,524.395 738.345,524.395 731.905,520.395 L 731.905,496.395"/>
    <text font-size="12.8" style="fill: #000000;text-anchor:middle;font-family:monospace;font-style:normal;font-weight:normal" x="748.005" y="509.595">
      <tspan x="748.005" y="509.595">IP层</tspan>
    </text>
  </g>
  <g>
    <path style="fill: none; fill-opacity:0; stroke-width: 0.4; stroke-linecap: round; stroke: #000000" d="M 1038.95 350.106 C 1038.44,349.09 1038.14,348.193 1037.9,347.353 C 1036.92,348.253 1036.46,348.786 1036.45,348.897 L 1035.71,348.313 C 1036.44,347.956 1037.12,347.432 1037.7,346.903 L 1037,345.215 L 1035.98,345.615 L 1035.74,346.047 L 1035.04,345.631 C 1035.21,345.583 1035.28,345.309 1035.24,344.81 C 1035.26,344.479 1035.17,343.812 1035.05,342.867 C 1034.71,343.074 1034.42,343.228 1034.14,343.382 L 1033.65,343.196 L 1035,342.588 C 1034.92,342.032 1034.78,341.418 1034.7,340.641 L 1035.63,340.735 C 1035.51,340.951 1035.45,341.114 1035.5,341.282 C 1035.43,341.556 1035.47,341.944 1035.62,342.338 L 1036.63,341.938 L 1036.94,341.231 L 1037.92,341.714 L 1035.61,342.669 L 1035.88,345.39 L 1036.89,344.989 C 1036.69,344.539 1036.38,343.973 1036.14,343.244 L 1037.24,343.29 L 1037,343.722 L 1037.4,344.734 L 1037.96,344.536 L 1038.21,343.883 L 1039.13,344.309 L 1037.5,344.959 L 1038.15,346.59 L 1039.8,345.497 L 1039.91,345.612 L 1038.3,346.983 C 1038.75,348.163 1039.1,349.007 1039.47,349.63 L 1038.95,350.106"/>
    <path style="fill: none; fill-opacity:0; stroke-width: 0.4; stroke-linecap: round; stroke: #000000" d="M 1040.41 338.888 L 1040.11,339.373 L 1040.28,340.707 L 1041.63,340.21 L 1041.94,339.394 L 1042.97,339.934 L 1040.38,340.932 L 1040.63,342.823 L 1042.77,342.027 L 1043.13,341.268 L 1044.16,341.698 L 1040.68,343.101 L 1040.78,344.709 L 1042.86,343.855 L 1043.04,343.365 L 1044.08,343.796 C 1043.68,343.945 1043.44,344.377 1043.36,344.982 C 1043.12,345.525 1042.99,346.072 1042.96,346.624 C 1043.68,346.709 1044.12,346.838 1044.33,346.958 C 1044.38,347.126 1044.43,347.293 1044.53,347.519 C 1044.47,347.682 1044.46,347.793 1044.46,347.793 C 1044.29,347.841 1044.18,347.836 1044.08,347.721 C 1043.64,347.592 1043.15,347.406 1042.66,347.22 C 1042.06,347.029 1041.4,346.891 1040.74,346.864 L 1040.75,346.643 C 1041.19,346.661 1041.8,346.631 1042.69,346.668 L 1042.96,344.081 L 1040.93,344.881 L 1040.8,345.428 L 1039.99,345.118 C 1040.04,345.065 1040.1,344.902 1040.18,344.518 C 1040.13,344.239 1040.09,343.851 1040.06,343.352 L 1040,343.405 C 1039.66,343.612 1039.38,343.766 1039.09,343.92 L 1038.55,343.676 L 1040.13,343.078 L 1039.81,341.241 L 1039.48,341.337 C 1039.08,341.597 1038.8,341.751 1038.57,341.852 L 1038.03,341.609 L 1039.77,340.962 C 1039.64,340.238 1039.45,339.456 1039.31,338.732 L 1040.41,338.888"/>
    <path style="fill: none; fill-opacity:0; stroke-width: 0.4; stroke-linecap: round; stroke: #000000" d="M 1047.83 338.533 C 1047.74,338.087 1047.65,337.641 1047.51,337.027 C 1047.42,336.581 1047.27,336.077 1047.12,335.684 L 1048.06,335.668 L 1047.94,336.105 C 1048.22,337.333 1048.35,338.057 1048.4,338.225 L 1052.5,336.572 L 1052.87,335.813 L 1053.95,336.3 L 1048.44,338.504 C 1048.58,339.118 1048.67,339.674 1048.71,340.173 L 1052.25,338.717 L 1052.38,338.17 L 1053.31,338.485 L 1053.07,338.917 C 1052.91,340.127 1052.65,341.111 1052.33,342.038 C 1053.53,342.42 1054.86,342.475 1056.47,342.155 L 1056.53,342.213 C 1056.02,342.468 1055.89,342.795 1055.99,343.13 C 1054.49,343.234 1053.23,343.016 1052.2,342.586 C 1051.48,343.883 1050.38,345.108 1048.96,346.1 L 1048.85,345.985 C 1050.17,344.768 1051.16,343.538 1051.66,342.342 C 1050.74,341.806 1049.94,341.164 1049.14,340.302 L 1048.81,340.399 C 1048.81,341.56 1048.77,342.553 1048.62,343.542 C 1048.36,344.527 1047.88,345.502 1047.34,346.419 L 1047.18,346.357 C 1047.37,345.757 1047.67,345.161 1047.87,344.34 C 1048.06,343.74 1048.15,342.915 1048.19,342.031 C 1048.22,341.148 1048.1,340.093 1047.94,338.759 L 1045.97,339.506 L 1045.84,340.054 L 1045.08,339.69 L 1045.31,339.368 C 1045.3,338.428 1045.27,337.598 1045.19,337.041 L 1046.18,337.193 L 1045.94,337.515 C 1046.01,338.402 1045.99,338.954 1045.93,339.228 L 1047.83,338.533"/>
    <path style="fill: none; fill-opacity:0; stroke-width: 0.4; stroke-linecap: round; stroke: #000000" d="M 1049.37 340.201 C 1050.17,340.953 1050.97,341.484 1051.84,341.852 C 1052.1,340.978 1052.3,340.047 1052.4,339 L 1049.37,340.201"/>
    <path style="fill: none; fill-opacity:0; stroke-width: 0.4; stroke-linecap: round; stroke: #000000" d="M 1049.25 334.999 C 1050.14,335.035 1050.8,335.063 1051.12,335.187 C 1051.45,335.311 1051.66,335.541 1051.77,335.656 C 1051.82,335.824 1051.81,335.935 1051.81,336.045 C 1051.85,336.323 1051.85,336.434 1051.68,336.372 C 1051.68,336.482 1051.52,336.42 1051.25,336.132 C 1050.82,335.893 1050.17,335.534 1049.19,335.162 L 1049.25,334.999"/>
    <path style="fill: none; fill-opacity:0; stroke-width: 0.4; stroke-linecap: round; stroke: #000000" d="M 1058.91 338 C 1058.84,338.494 1058.77,338.878 1058.7,339.262 C 1059.08,339.223 1059.53,339.131 1060.09,339.044 C 1060.21,338.717 1060.29,338.223 1060.27,337.392 L 1058.91,338"/>
    <path style="fill: none; fill-opacity:0; stroke-width: 0.4; stroke-linecap: round; stroke: #000000" d="M 1054.97 333.136 C 1055.63,333.274 1056.01,333.455 1056.17,333.517 C 1056.38,333.747 1056.55,333.809 1056.55,333.809 C 1056.59,333.977 1056.53,334.141 1056.53,334.251 C 1056.46,334.525 1056.46,334.635 1056.4,334.578 C 1056.29,334.683 1056.18,334.568 1056.03,334.286 C 1055.76,333.998 1055.34,333.648 1054.91,333.299 L 1054.97,333.136"/>
    <path style="fill: none; fill-opacity:0; stroke-width: 0.4; stroke-linecap: round; stroke: #000000" d="M 1058.46 331.622 L 1059.39,331.827 C 1059.16,332.039 1058.99,332.197 1058.98,332.418 C 1058.8,332.797 1058.67,333.234 1058.43,333.777 L 1058.32,333.773 C 1058.52,332.841 1058.55,332.068 1058.46,331.622 L 1058.46,331.622"/>
    <path style="fill: none; fill-opacity:0; stroke-width: 0.4; stroke-linecap: round; stroke: #000000" d="M 1056.4 331.924 L 1057.51,331.97 L 1057.27,332.402 L 1058.02,334.258 L 1059.03,333.858 L 1059.28,333.205 L 1060.31,333.635 L 1058.12,334.483 L 1058.27,334.876 C 1058.94,334.794 1059.38,334.812 1059.6,334.821 C 1059.76,334.994 1059.92,335.056 1060.03,335.171 C 1060.02,335.281 1060.02,335.392 1060.12,335.507 C 1060.17,335.674 1060.17,335.785 1060.06,335.67 C 1060,335.833 1059.84,335.771 1059.62,335.541 C 1059.3,335.417 1058.92,335.235 1058.37,335.102 L 1058.87,336.339 L 1058.52,336.877 L 1059.18,336.905 C 1059.06,337.121 1058.99,337.395 1058.93,337.668 L 1060.17,337.167 L 1060.29,336.73 L 1061.17,336.988 L 1060.88,337.362 C 1060.79,338.078 1060.72,338.572 1060.64,338.956 C 1061.09,338.864 1061.42,338.878 1061.64,338.887 C 1061.81,338.949 1061.91,339.064 1062.07,339.347 C 1062.11,339.515 1062.11,339.625 1062.05,339.678 C 1061.89,339.616 1061.78,339.612 1061.72,339.554 C 1061.23,339.478 1060.85,339.407 1060.46,339.446 C 1059.8,340.58 1058.88,341.537 1057.68,342.316 L 1057.58,342.201 C 1058.61,341.249 1059.37,340.341 1059.91,339.423 C 1059.19,339.448 1058.68,339.593 1058.13,339.681 C 1058.24,339.575 1058.26,339.133 1058.3,338.25 L 1057.73,338.448 C 1057.45,338.713 1057.16,338.867 1056.83,338.963 L 1056.34,338.777 L 1058.31,337.919 C 1058.32,337.698 1058.28,337.31 1058.25,336.811 L 1058.47,336.82 L 1057.76,335.132 C 1057.38,336.332 1056.84,337.36 1056.03,338.101 L 1055.87,338.039 C 1056.63,337.02 1057.12,335.934 1057.28,334.835 L 1056.49,335.134 C 1056.26,335.346 1055.92,335.553 1055.58,335.649 L 1055.09,335.463 L 1057.46,334.456 C 1057.11,333.501 1056.76,332.657 1056.4,331.924 L 1056.4,331.924"/>
    <path style="fill: none; fill-opacity:0; stroke-width: 0.4; stroke-linecap: round; stroke: #000000" d="M 1060.93 333.384 C 1061.7,334.909 1062.48,336.102 1063.49,336.974 C 1063.54,335.87 1063.32,334.478 1062.68,332.627 L 1060.93,333.384"/>
    <path style="fill: none; fill-opacity:0; stroke-width: 0.4; stroke-linecap: round; stroke: #000000" d="M 1059.95 330.468 L 1061.16,330.629 C 1060.98,330.898 1060.86,331.114 1060.85,331.335 C 1060.78,331.719 1060.81,332.328 1060.89,333.106 L 1063.19,332.151 L 1063.5,331.445 L 1064.47,331.928 L 1063.3,332.376 C 1063.92,334.559 1064.13,336.171 1064.09,337.275 C 1064.95,337.864 1065.88,338.068 1066.88,337.889 L 1066.93,338.057 C 1066.42,338.312 1066.24,338.581 1066.29,338.859 C 1065.3,338.597 1064.49,338.287 1063.9,337.875 C 1063.24,339.119 1062.42,340.191 1061.44,341.09 L 1061.28,341.028 C 1062.26,339.908 1062.92,338.774 1063.36,337.521 C 1062.24,336.534 1061.52,335.288 1060.86,333.658 C 1060.88,334.598 1060.68,335.419 1060.49,336.13 L 1060.32,336.178 C 1060.54,334.805 1060.4,332.919 1059.95,330.468 L 1059.95,330.468"/>
    <path style="fill: none; fill-opacity:0; stroke-width: 0.4; stroke-linecap: round; stroke: #000000" d="M 1072.91 336.481 C 1072.66,335.863 1072.36,335.186 1072.16,334.515 C 1071.75,333.834 1071.55,333.273 1071.41,332.769 L 1072.12,332.855 L 1073.24,332.459 L 1072.54,330.771 L 1070.63,331.576 C 1071.21,333.59 1071.13,335.467 1070.39,337.206 L 1070.23,337.144 C 1070.5,336.049 1070.59,335.003 1070.53,333.894 C 1070.41,332.838 1070.13,331.61 1069.63,330.263 C 1069.08,328.968 1068.67,328.066 1068.48,327.395 L 1069.25,327.538 L 1072.57,326.183 L 1072.75,325.693 L 1073.57,326.003 L 1073.33,326.325 C 1073.74,327.227 1073.94,327.788 1074.03,328.124 L 1073.63,328.604 L 1073.42,328.154 L 1069.99,329.504 C 1070.19,330.065 1070.39,330.626 1070.58,331.298 L 1072.44,330.546 C 1072.24,330.095 1072.03,329.644 1071.84,329.083 L 1072.89,329.071 L 1072.71,329.451 L 1073,330.348 L 1074.35,329.741 L 1074.65,329.145 L 1075.58,329.57 L 1073.1,330.573 L 1073.75,332.204 L 1074.82,331.751 L 1075.01,331.261 L 1075.82,331.571 L 1075.53,331.946 C 1075.93,333.068 1076.34,333.859 1076.65,334.425 L 1076.23,335.016 L 1075.88,334.172 L 1073.07,335.272 L 1073.32,336.001 L 1072.91,336.481"/>
    <path style="fill: none; fill-opacity:0; stroke-width: 0.4; stroke-linecap: round; stroke: #000000" d="M 1069.29 327.816 L 1069.89,329.278 L 1073.27,327.871 L 1072.72,326.355 L 1069.29,327.816"/>
    <path style="fill: none; fill-opacity:0; stroke-width: 0.4; stroke-linecap: round; stroke: #000000" d="M 1072.17 333.133 L 1072.97,335.046 L 1075.78,333.947 L 1074.98,332.033 L 1072.17,333.133"/>
    <path style="fill: none; fill-opacity:0; stroke-width: 0.4; stroke-linecap: round; stroke: #000000" d="M 1068.49 332.372 L 1069.49,331.031 L 1069.65,331.203 L 1068.64,332.765 L 1070,336.083 C 1070.03,336.583 1069.85,337.072 1069.55,337.558 C 1069.39,337.275 1068.96,337.146 1068.13,337.056 L 1068.08,336.888 C 1068.64,336.801 1068.98,336.704 1069.2,336.603 C 1069.26,336.55 1069.37,336.445 1069.38,336.224 L 1068.18,333.299 C 1067.58,334.269 1067.29,334.754 1067.39,334.869 L 1066.53,334.391 C 1066.59,334.338 1067.1,333.862 1067.98,332.848 L 1067.12,330.766 L 1066.17,331.114 L 1065.77,331.374 L 1065.28,331.187 L 1067.08,330.488 C 1066.63,329.419 1066.27,328.575 1066.07,328.124 L 1067.17,328.28 L 1066.99,328.66 L 1067.64,330.29 L 1068.09,330.088 L 1068.45,329.439 L 1069.31,329.918 L 1067.74,330.516 L 1068.49,332.372"/>
    <path style="fill: none; fill-opacity:0; stroke-width: 0.4; stroke-linecap: round; stroke: #000000" d="M 1081.55 326.944 L 1083.25,331.217 C 1083.56,330.4 1083.87,329.584 1084.23,328.825 C 1083.42,328.404 1082.73,327.767 1082,326.741 L 1081.55,326.944"/>
    <path style="fill: none; fill-opacity:0; stroke-width: 0.4; stroke-linecap: round; stroke: #000000" d="M 1081.91 324.913 C 1082.35,324.931 1082.63,324.888 1082.86,324.676 C 1082.97,324.681 1083.08,324.575 1083.2,324.469 C 1083.25,324.416 1083.26,324.195 1083.11,323.802 C 1083.02,323.466 1082.82,323.016 1082.68,322.402 L 1080.09,323.4 L 1081.44,326.718 L 1084.2,325.561 L 1084.39,325.072 L 1085.26,325.44 L 1084.97,325.814 C 1085.03,327.033 1084.88,327.912 1084.74,328.57 C 1085.77,329 1086.76,329.151 1087.65,328.967 L 1087.76,329.082 C 1087.25,329.338 1087.07,329.607 1087.12,329.885 C 1086.24,329.738 1085.37,329.48 1084.66,329.064 C 1084.19,329.929 1083.77,330.741 1083.35,331.442 L 1083.5,331.725 L 1082.93,332.254 C 1082.53,331.242 1082.23,330.456 1081.98,329.837 L 1080.08,325.003 C 1079.83,324.384 1079.58,323.766 1079.27,323.089 L 1080.05,323.122 L 1082.46,322.172 L 1082.71,321.629 L 1083.52,322.05 L 1083.28,322.372 C 1083.38,322.818 1083.53,323.211 1083.68,323.604 C 1083.82,324.108 1083.86,324.497 1083.8,324.66 C 1083.73,325.044 1083.55,325.313 1083.27,325.467 C 1083,325.29 1082.62,325.108 1082.07,325.086 L 1081.91,324.913"/>
    <path style="fill: none; fill-opacity:0; stroke-width: 0.4; stroke-linecap: round; stroke: #000000" d="M 1082.22 326.64 C 1082.85,327.44 1083.49,328.02 1084.31,328.33 C 1084.34,327.558 1084.43,326.732 1084.36,325.844 L 1082.22,326.64"/>
    <path style="fill: none; fill-opacity:0; stroke-width: 0.4; stroke-linecap: round; stroke: #000000" d="M 1076.94 329.904 C 1077.17,329.913 1077.74,329.494 1078.61,328.48 L 1077.81,326.456 L 1076.57,326.958 L 1076.11,327.271 L 1075.68,327.031 L 1077.71,326.231 C 1077.35,325.387 1077,324.653 1076.7,323.867 L 1077.8,323.913 L 1077.56,324.345 L 1078.21,325.976 L 1078.77,325.778 L 1079.02,325.125 L 1080.06,325.555 L 1078.37,326.259 L 1079.12,328.114 L 1080.38,326.951 L 1080.49,327.066 L 1079.27,328.508 L 1080.72,332.162 C 1080.87,332.666 1080.68,333.045 1080.22,333.468 C 1080.02,333.128 1079.52,333.052 1078.63,333.126 L 1078.53,332.9 C 1079.2,332.817 1079.59,332.668 1079.88,332.514 C 1079.99,332.408 1080.05,332.245 1079.96,331.909 L 1078.8,329.041 C 1078.05,329.839 1077.7,330.267 1077.75,330.435 L 1076.94,329.904"/>
  </g>
  <g>
    <path style="fill: none; fill-opacity:0; stroke-width: 0.4; stroke-linecap: round; stroke: #000000" d="M 1048.06 390.11 L 1048.06,391.438 L 1050.96,391.438 L 1050.96,390.11 L 1048.06,390.11"/>
    <path style="fill: none; fill-opacity:0; stroke-width: 0.4; stroke-linecap: round; stroke: #000000" d="M 1048.06 391.672 L 1048.06,393.001 L 1050.96,393.001 L 1050.96,391.672 L 1048.06,391.672"/>
    <path style="fill: none; fill-opacity:0; stroke-width: 0.4; stroke-linecap: round; stroke: #000000" d="M 1047.67 394.016 L 1048.46,394.641 C 1048.06,394.876 1047.75,395.188 1047.44,395.501 C 1047.05,395.969 1046.5,396.36 1045.72,396.907 L 1045.64,396.829 C 1046.66,395.813 1047.36,394.876 1047.67,394.016 L 1047.67,394.016"/>
    <path style="fill: none; fill-opacity:0; stroke-width: 0.4; stroke-linecap: round; stroke: #000000" d="M 1050.17 394.329 L 1050.33,394.172 C 1051.19,394.876 1051.74,395.266 1051.97,395.422 C 1052.05,395.657 1052.13,395.891 1052.21,395.969 C 1052.13,396.204 1052.13,396.282 1052.05,396.516 C 1051.97,396.672 1051.89,396.829 1051.89,396.829 C 1051.74,396.829 1051.58,396.672 1051.5,396.282 C 1051.19,395.813 1050.8,395.188 1050.17,394.329 L 1050.17,394.329"/>
    <path style="fill: none; fill-opacity:0; stroke-width: 0.4; stroke-linecap: round; stroke: #000000" d="M 1047.44 393.782 C 1047.36,393.001 1047.36,392.297 1047.44,391.594 C 1047.36,390.969 1047.36,390.266 1047.44,389.563 L 1048.06,389.876 L 1048.69,389.876 C 1048.85,389.251 1049,388.704 1049.16,388.313 L 1046.5,388.313 C 1046.42,389.563 1046.42,390.735 1046.42,391.829 C 1046.42,393.001 1046.19,394.016 1045.8,394.797 C 1045.41,395.735 1044.78,396.516 1044,397.297 L 1043.92,397.219 C 1044.63,396.282 1045.1,395.422 1045.41,394.407 C 1045.64,393.547 1045.8,392.376 1045.88,390.891 C 1045.8,389.563 1045.8,388.469 1045.8,387.61 L 1046.5,388.079 L 1051.11,388.079 L 1051.74,387.454 L 1052.52,388.313 L 1049.39,388.313 L 1050.1,388.704 C 1049.78,388.86 1049.63,388.938 1049.55,389.094 C 1049.39,389.251 1049.16,389.563 1048.92,389.876 L 1050.88,389.876 L 1051.19,389.407 L 1051.89,390.032 L 1051.5,390.344 C 1051.42,392.219 1051.5,393.235 1051.58,393.391 L 1050.96,393.704 L 1050.96,393.235 L 1049.78,393.235 L 1049.78,396.204 C 1049.78,396.829 1049.47,397.141 1048.85,397.297 C 1048.77,396.907 1048.46,396.594 1047.83,396.516 L 1047.83,396.282 C 1048.14,396.36 1048.46,396.36 1048.77,396.36 C 1049,396.36 1049.08,396.282 1049.16,396.047 L 1049.16,393.235 L 1048.06,393.235 L 1048.06,393.469 L 1047.44,393.782"/>
    <path style="fill: none; fill-opacity:0; stroke-width: 0.4; stroke-linecap: round; stroke: #000000" d="M 1045.56 388.86 C 1044.55,392.141 1044,393.938 1044,394.251 C 1043.85,394.641 1043.85,395.11 1043.92,395.657 C 1043.85,396.126 1043.85,396.438 1043.92,396.751 C 1043.85,396.751 1043.77,396.829 1043.77,396.907 C 1043.61,396.829 1043.46,396.751 1043.3,396.751 C 1043.06,396.594 1042.99,396.516 1043.06,396.282 C 1042.99,396.126 1043.06,395.969 1043.14,395.735 C 1043.22,395.501 1043.22,395.266 1043.3,395.032 C 1043.22,394.876 1043.14,394.719 1043.06,394.563 C 1042.91,394.563 1042.67,394.407 1042.21,394.172 L 1042.21,394.016 C 1042.67,394.094 1042.99,394.172 1043.14,394.094 C 1043.3,394.172 1043.46,394.016 1043.61,393.704 C 1043.77,393.469 1044.31,391.829 1045.33,388.782 L 1045.56,388.86"/>
    <path style="fill: none; fill-opacity:0; stroke-width: 0.4; stroke-linecap: round; stroke: #000000" d="M 1042.21 390.032 C 1043.22,390.501 1043.69,390.891 1043.77,391.204 C 1043.69,391.516 1043.61,391.751 1043.53,391.907 C 1043.38,392.063 1043.3,392.141 1043.3,392.063 C 1043.14,392.141 1043.06,391.985 1043.06,391.594 C 1042.83,391.282 1042.52,390.813 1042.13,390.188 L 1042.21,390.032"/>
    <path style="fill: none; fill-opacity:0; stroke-width: 0.4; stroke-linecap: round; stroke: #000000" d="M 1043.22 387.532 C 1044,387.922 1044.47,388.157 1044.55,388.391 C 1044.63,388.704 1044.55,388.938 1044.47,389.094 C 1044.31,389.251 1044.24,389.329 1044.24,389.329 C 1044.08,389.329 1044,389.251 1044,389.016 C 1043.77,388.626 1043.46,388.157 1043.06,387.61 L 1043.22,387.532"/>
    <path style="fill: none; fill-opacity:0; stroke-width: 0.4; stroke-linecap: round; stroke: #000000" d="M 1055.1 387.532 C 1055.72,388.157 1056.03,388.469 1056.19,388.626 C 1056.19,388.782 1056.27,388.938 1056.35,389.016 C 1056.27,389.251 1056.19,389.407 1056.11,389.563 C 1055.96,389.719 1055.88,389.797 1055.88,389.797 C 1055.72,389.797 1055.64,389.641 1055.64,389.251 C 1055.49,388.86 1055.25,388.313 1054.94,387.61 L 1055.1,387.532"/>
    <path style="fill: none; fill-opacity:0; stroke-width: 0.4; stroke-linecap: round; stroke: #000000" d="M 1053.46 390.11 L 1057.28,390.11 L 1057.83,389.485 L 1058.61,390.344 L 1054.94,390.344 C 1054.47,390.422 1054.08,390.422 1053.85,390.501 L 1053.46,390.11"/>
    <path style="fill: none; fill-opacity:0; stroke-width: 0.4; stroke-linecap: round; stroke: #000000" d="M 1054.47 391.126 C 1055.02,392.297 1055.33,393.001 1055.49,393.157 C 1055.49,393.469 1055.56,393.626 1055.56,393.704 C 1055.56,394.094 1055.49,394.329 1055.33,394.407 C 1055.17,394.563 1055.1,394.641 1055.1,394.563 C 1054.94,394.641 1054.86,394.407 1054.86,394.016 C 1054.78,393.547 1054.71,393.079 1054.63,392.61 C 1054.55,392.219 1054.39,391.751 1054.31,391.204 L 1054.47,391.126"/>
    <path style="fill: none; fill-opacity:0; stroke-width: 0.4; stroke-linecap: round; stroke: #000000" d="M 1053.61 395.579 C 1053.92,395.657 1054.71,395.501 1055.96,395.188 C 1056.35,393.313 1056.66,391.907 1056.74,390.813 L 1057.75,391.282 L 1057.36,391.594 C 1056.97,392.844 1056.66,394.016 1056.27,395.11 L 1058.3,394.641 L 1058.3,394.797 C 1057.13,395.266 1055.88,395.657 1054.47,396.126 L 1054.08,396.516 L 1053.61,395.579"/>
    <path style="fill: none; fill-opacity:0; stroke-width: 0.4; stroke-linecap: round; stroke: #000000" d="M 1060.1 387.376 L 1061.11,387.766 L 1060.72,388.079 L 1060.72,389.954 L 1062.36,389.954 L 1062.91,389.407 L 1063.69,390.266 L 1060.72,390.266 L 1060.72,392.688 L 1062.05,392.688 L 1062.44,392.219 L 1063.14,392.766 L 1062.75,393.079 C 1062.67,395.266 1062.67,396.516 1062.75,396.829 L 1062.13,397.141 L 1062.13,396.204 L 1059.08,396.204 L 1059.08,397.063 L 1058.53,397.297 C 1058.46,396.594 1058.46,395.735 1058.53,394.719 C 1058.46,393.782 1058.46,393.001 1058.53,392.376 L 1059.08,392.688 L 1060.17,392.688 C 1060.1,389.641 1060.1,387.844 1060.1,387.376 L 1060.1,387.376"/>
    <path style="fill: none; fill-opacity:0; stroke-width: 0.4; stroke-linecap: round; stroke: #000000" d="M 1059.08 393.001 L 1059.08,395.891 L 1062.13,395.891 L 1062.13,393.001 L 1059.08,393.001"/>
    <path style="fill: none; fill-opacity:0; stroke-width: 0.4; stroke-linecap: round; stroke: #000000" d="M 1069.24 387.922 L 1070.17,388.391 L 1069.78,388.626 C 1069.63,388.938 1069.47,389.251 1069.39,389.485 L 1070.88,389.485 C 1070.88,388.469 1070.8,387.688 1070.8,387.219 L 1071.81,387.61 L 1071.42,388.001 L 1071.42,389.485 L 1072.6,389.485 L 1073.14,388.938 L 1073.92,389.719 L 1071.42,389.719 L 1071.42,391.516 L 1073.3,391.516 L 1073.85,390.969 L 1074.63,391.829 L 1072.13,391.829 L 1072.13,394.563 C 1072.05,395.032 1072.28,395.188 1072.75,395.11 L 1073.46,395.11 C 1073.69,395.188 1073.85,395.11 1073.92,394.797 C 1073.92,394.641 1073.92,394.172 1074.08,393.391 L 1074.31,393.391 C 1074.24,394.016 1074.24,394.407 1074.31,394.563 C 1074.31,394.876 1074.47,395.032 1074.78,395.032 C 1074.63,395.501 1074.31,395.657 1073.77,395.579 L 1072.36,395.579 C 1071.81,395.657 1071.58,395.422 1071.58,394.797 L 1071.58,391.829 L 1070.56,391.829 C 1070.41,393.86 1069.55,395.188 1067.91,395.813 L 1067.83,395.657 C 1069.08,394.876 1069.78,393.626 1069.94,391.829 L 1068.92,391.829 C 1068.61,391.907 1068.38,391.985 1068.14,391.985 L 1067.67,391.516 L 1070.88,391.516 L 1070.88,389.719 L 1069.31,389.719 C 1069,390.266 1068.69,390.735 1068.3,391.204 L 1068.14,391.126 C 1068.46,390.501 1068.69,389.876 1068.92,389.251 C 1069.08,388.704 1069.24,388.235 1069.24,387.922 L 1069.24,387.922"/>
    <path style="fill: none; fill-opacity:0; stroke-width: 0.4; stroke-linecap: round; stroke: #000000" d="M 1067.13 395.11 C 1067.36,395.501 1067.67,395.813 1068.22,396.047 C 1068.61,396.282 1069.47,396.36 1070.8,396.438 C 1072.05,396.438 1073.53,396.438 1075.17,396.282 L 1075.17,396.438 C 1074.47,396.594 1074.16,396.829 1074.24,397.219 C 1072.83,397.063 1071.74,397.063 1070.88,397.063 C 1070.02,397.063 1069.31,396.907 1068.85,396.751 C 1068.3,396.516 1067.83,396.36 1067.52,395.969 C 1067.05,395.735 1066.81,395.501 1066.74,395.422 C 1066.58,395.344 1066.35,395.501 1066.03,395.813 C 1065.64,396.204 1065.41,396.438 1065.41,396.751 L 1064.71,396.204 C 1065.17,395.813 1065.8,395.422 1066.5,395.032 L 1066.5,391.516 L 1065.96,391.516 C 1065.72,391.594 1065.41,391.594 1065.17,391.672 L 1064.78,391.282 L 1066.5,391.282 L 1066.81,390.813 L 1067.52,391.36 L 1067.13,391.672 L 1067.13,395.11"/>
    <path style="fill: none; fill-opacity:0; stroke-width: 0.4; stroke-linecap: round; stroke: #000000" d="M 1065.96 387.766 L 1066.11,387.766 C 1066.5,388.157 1066.81,388.391 1067.05,388.626 C 1067.13,388.86 1067.21,389.094 1067.21,389.251 C 1067.13,389.485 1067.05,389.641 1067.05,389.719 C 1066.89,389.797 1066.81,389.797 1066.81,389.797 C 1066.66,389.797 1066.58,389.641 1066.58,389.329 C 1066.42,389.016 1066.27,388.547 1065.96,387.766 L 1065.96,387.766"/>
    <path style="fill: none; fill-opacity:0; stroke-width: 0.4; stroke-linecap: round; stroke: #000000" d="M 1081.97 389.251 C 1082.21,389.954 1082.6,390.579 1083.22,391.047 C 1083.53,390.501 1083.92,389.797 1084.39,388.938 L 1082.13,388.938 L 1081.97,389.251"/>
    <path style="fill: none; fill-opacity:0; stroke-width: 0.4; stroke-linecap: round; stroke: #000000" d="M 1082.05 393.626 L 1082.05,396.204 L 1084.39,396.204 L 1084.39,393.626 L 1082.05,393.626"/>
    <path style="fill: none; fill-opacity:0; stroke-width: 0.4; stroke-linecap: round; stroke: #000000" d="M 1084.94 393.782 C 1084.94,395.11 1084.94,396.126 1085.02,396.985 L 1084.39,397.297 L 1084.39,396.516 L 1082.05,396.516 L 1082.05,397.141 L 1081.42,397.532 C 1081.42,396.594 1081.42,395.188 1081.5,393.235 C 1081.03,393.626 1080.41,393.938 1079.71,394.094 L 1079.63,394.016 C 1080.8,393.391 1081.89,392.532 1082.83,391.36 C 1082.44,390.813 1082.05,390.188 1081.81,389.485 C 1081.35,390.344 1080.88,391.047 1080.41,391.594 L 1080.25,391.516 C 1081.11,390.188 1081.66,388.704 1082.05,387.141 L 1082.91,387.61 L 1082.6,387.922 C 1082.52,388.079 1082.36,388.313 1082.21,388.626 L 1084.47,388.626 L 1084.78,388.235 L 1085.49,388.782 L 1085.1,389.094 C 1084.55,389.954 1084.08,390.735 1083.61,391.36 C 1084.39,392.141 1085.33,392.61 1086.42,392.766 L 1086.42,393.001 C 1086.03,393.079 1085.8,393.235 1085.64,393.469 C 1084.71,393.079 1083.85,392.532 1083.22,391.829 C 1082.75,392.219 1082.28,392.61 1081.81,393.079 L 1082.21,393.391 L 1084.31,393.391 L 1084.63,393.001 L 1085.25,393.547 L 1084.94,393.782"/>
    <path style="fill: none; fill-opacity:0; stroke-width: 0.4; stroke-linecap: round; stroke: #000000" d="M 1077.44 388.469 L 1077.44,390.735 L 1079.47,390.735 L 1079.47,388.469 L 1077.44,388.469"/>
    <path style="fill: none; fill-opacity:0; stroke-width: 0.4; stroke-linecap: round; stroke: #000000" d="M 1077.36 395.735 L 1078.22,395.501 L 1078.22,391.047 L 1077.44,391.047 L 1077.44,391.36 L 1076.81,391.594 C 1076.81,390.891 1076.81,390.188 1076.89,389.563 C 1076.81,388.938 1076.81,388.391 1076.81,387.922 L 1077.44,388.235 L 1079.39,388.235 L 1079.71,387.766 L 1080.41,388.313 L 1080.02,388.626 C 1080.02,389.876 1080.02,390.735 1080.1,391.126 L 1079.47,391.438 L 1079.47,391.047 L 1078.77,391.047 L 1078.77,392.688 L 1079.24,392.688 L 1079.78,392.219 L 1080.49,393.001 L 1078.77,393.001 L 1078.77,395.422 L 1080.41,395.032 L 1080.41,395.188 C 1079.31,395.579 1078.14,395.969 1076.81,396.516 L 1076.5,396.751 L 1076.11,396.047 L 1076.81,395.891 C 1076.74,394.094 1076.74,392.922 1076.74,392.297 L 1077.67,392.688 L 1077.36,393.001 L 1077.36,395.735"/>
  </g>
  <g>
    <path style="fill: none; fill-opacity:0; stroke-width: 0.4; stroke-linecap: round; stroke: #000000" d="M 1058.76 360.622 C 1058.86,360.958 1059.06,361.409 1059.42,362.032 L 1058.91,362.508 L 1058.5,361.606 L 1056.2,362.561 L 1056.55,363.405 L 1056.08,363.938 C 1055.73,363.094 1055.53,362.533 1055.49,362.255 L 1053.83,358.26 C 1053.68,357.867 1053.43,357.359 1053.23,356.798 L 1053.94,356.883 L 1056.19,355.981 L 1056.33,355.434 L 1057.15,355.634 L 1056.91,356.066 L 1058.76,360.622"/>
    <path style="fill: none; fill-opacity:0; stroke-width: 0.4; stroke-linecap: round; stroke: #000000" d="M 1054.05 357.108 L 1056.1,362.225 L 1058.46,361.328 L 1056.35,356.154 L 1054.05,357.108"/>
    <path style="fill: none; fill-opacity:0; stroke-width: 0.4; stroke-linecap: round; stroke: #000000" d="M 1049.22 356.244 L 1050.37,356.347 L 1050.08,356.722 C 1050.17,357.278 1050.31,357.892 1050.44,358.727 L 1051.96,358.072 L 1052.04,357.577 L 1052.91,357.725 L 1052.73,358.214 C 1053.19,360.335 1053.46,361.784 1053.48,362.614 C 1054.2,362.589 1054.7,362.664 1054.91,362.894 C 1055.07,363.067 1055.12,363.235 1055.28,363.407 C 1055.21,363.57 1055.21,363.681 1055.21,363.681 C 1055.04,363.729 1054.93,363.725 1054.83,363.61 C 1054.5,363.485 1054.01,363.299 1053.46,363.166 C 1052.96,364.472 1052.2,365.601 1051,366.602 L 1050.89,366.487 C 1051.93,365.314 1052.64,364.237 1052.86,363.085 C 1051.92,363.101 1051.14,363.18 1050.58,363.267 C 1050.51,362.379 1050.29,360.988 1049.92,359.203 L 1049.64,359.357 C 1049.24,359.617 1048.96,359.771 1048.68,359.815 L 1048.19,359.629 L 1049.88,358.925 C 1049.59,357.918 1049.4,357.025 1049.22,356.244 L 1049.22,356.244"/>
    <path style="fill: none; fill-opacity:0; stroke-width: 0.4; stroke-linecap: round; stroke: #000000" d="M 1051.09 362.901 C 1051.37,362.858 1051.98,362.828 1052.87,362.644 C 1052.85,361.814 1052.58,360.365 1052.11,358.355 L 1050.48,359.006 C 1050.61,359.951 1050.83,361.232 1051.09,362.901 L 1051.09,362.901"/>
    <path style="fill: none; fill-opacity:0; stroke-width: 0.4; stroke-linecap: round; stroke: #000000" d="M 1060.14 352.773 L 1060.69,354.178 L 1062.83,353.272 L 1062.22,351.92 L 1060.14,352.773"/>
    <path style="fill: none; fill-opacity:0; stroke-width: 0.4; stroke-linecap: round; stroke: #000000" d="M 1062.84 351.669 L 1063.45,353.021 L 1065.64,352.172 L 1065.03,350.82 L 1062.84,351.669"/>
    <path style="fill: none; fill-opacity:0; stroke-width: 0.4; stroke-linecap: round; stroke: #000000" d="M 1060.79 354.403 L 1061.4,355.866 L 1063.48,355.013 L 1062.93,353.497 L 1060.79,354.403"/>
    <path style="fill: none; fill-opacity:0; stroke-width: 0.4; stroke-linecap: round; stroke: #000000" d="M 1063.49 353.299 L 1064.1,354.762 L 1066.29,353.913 L 1065.68,352.451 L 1063.49,353.299"/>
    <path style="fill: none; fill-opacity:0; stroke-width: 0.4; stroke-linecap: round; stroke: #000000" d="M 1061.13 356.961 C 1060.88,356.342 1060.58,355.556 1060.23,354.712 C 1059.92,354.035 1059.62,353.249 1059.27,352.405 L 1060.04,352.547 L 1064.88,350.537 L 1065.12,349.995 L 1065.99,350.362 L 1065.7,350.737 C 1066.45,352.704 1066.9,353.883 1067.16,354.171 L 1066.59,354.7 L 1066.39,354.139 L 1064.25,355.045 L 1064.7,356.225 L 1067.46,355.068 L 1067.82,354.198 L 1069.07,354.748 L 1064.86,356.397 C 1066.64,357.411 1068.34,357.758 1070.23,357.505 L 1070.28,357.673 C 1069.77,357.929 1069.48,358.193 1069.58,358.529 C 1067.43,358.274 1065.91,357.657 1064.85,356.618 C 1065.54,358.527 1066.05,359.654 1066.31,360.051 L 1065.73,360.691 C 1065.28,359.621 1064.83,358.442 1064.28,356.926 C 1063.81,358.842 1062.75,360.456 1061.31,362 L 1061.26,361.832 C 1062.43,360.332 1063.21,358.761 1063.62,356.899 L 1061.37,357.8 C 1061.03,358.007 1060.69,358.214 1060.46,358.315 L 1059.97,358.129 L 1064.08,356.475 L 1063.63,355.296 L 1061.5,356.091 L 1061.65,356.485 L 1061.13,356.961"/>
    <path style="fill: none; fill-opacity:0; stroke-width: 0.4; stroke-linecap: round; stroke: #000000" d="M 1068.4 349.744 L 1076.44,346.485 L 1076.81,345.615 L 1078,346.107 L 1076.03,346.965 L 1078.74,353.602 C 1078.93,354.274 1078.85,354.879 1078.39,355.412 C 1078.13,355.015 1077.58,354.881 1076.64,355.008 L 1076.53,354.782 C 1076.87,354.686 1077.26,354.536 1077.71,354.444 C 1078.1,354.295 1078.22,354.079 1078.07,353.685 L 1075.47,347.163 L 1069.79,349.415 C 1069.39,349.675 1069.11,349.829 1068.89,349.93 L 1068.4,349.744"/>
    <path style="fill: none; fill-opacity:0; stroke-width: 0.4; stroke-linecap: round; stroke: #000000" d="M 1072.41 355.495 C 1072.06,354.651 1071.71,353.807 1071.41,353.021 C 1071.11,352.345 1070.81,351.558 1070.46,350.714 L 1071.28,350.804 L 1073.53,349.902 L 1073.61,349.408 L 1074.48,349.665 L 1074.3,350.045 L 1075,351.843 C 1075.25,352.351 1075.4,352.855 1075.71,353.421 L 1075.19,353.897 L 1074.89,353.221 L 1072.53,354.118 L 1072.98,355.077 L 1072.41,355.495"/>
    <path style="fill: none; fill-opacity:0; stroke-width: 0.4; stroke-linecap: round; stroke: #000000" d="M 1071.33 351.082 L 1072.43,353.892 L 1074.84,352.943 L 1073.63,350.128 L 1071.33,351.082"/>
    <path style="fill: none; fill-opacity:0; stroke-width: 0.4; stroke-linecap: round; stroke: #000000" d="M 1083.18 350.47 C 1083.53,350.042 1084.24,349.076 1085.24,347.515 L 1085.4,347.577 C 1084.68,348.984 1084.26,349.907 1084.02,350.339 C 1083.72,350.935 1083.48,351.367 1083.46,351.808 L 1082.48,351.326 C 1082.6,351.22 1082.56,350.941 1082.41,350.548 L 1080.81,346.501 C 1080.45,345.767 1080.15,345.091 1079.95,344.53 L 1081.16,344.58 L 1080.92,345.013 L 1083.18,350.47"/>
    <path style="fill: none; fill-opacity:0; stroke-width: 0.4; stroke-linecap: round; stroke: #000000" d="M 1082.45 344.136 C 1083.82,344.47 1084.53,344.776 1084.68,345.059 C 1084.78,345.394 1084.82,345.673 1084.76,345.836 C 1084.69,346.11 1084.63,346.162 1084.58,346.105 C 1084.47,346.211 1084.36,346.096 1084.1,345.698 C 1083.78,345.353 1083.14,344.884 1082.39,344.3 L 1082.45,344.136"/>
    <path style="fill: none; fill-opacity:0; stroke-width: 0.4; stroke-linecap: round; stroke: #000000" d="M 1085.53 341.832 L 1086.69,341.825 L 1086.51,342.204 C 1087.11,343.888 1087.5,345.01 1087.75,345.739 C 1087.94,346.521 1088.02,347.188 1088.1,347.855 C 1088.81,348.05 1089.41,348.241 1089.91,348.317 C 1090.29,348.499 1090.56,348.676 1090.77,348.906 C 1090.81,349.184 1090.91,349.41 1090.85,349.573 C 1090.79,349.736 1090.73,349.789 1090.78,349.846 C 1090.56,349.837 1090.35,349.718 1090.19,349.435 C 1089.71,349.028 1089.01,348.612 1088.09,348.076 C 1087.83,349.17 1087.4,350.093 1086.76,350.895 C 1085.95,351.746 1085.03,352.482 1083.96,353.156 L 1083.85,353.041 C 1084.43,352.512 1085.05,352.041 1085.63,351.512 C 1086.15,351.036 1086.56,350.445 1086.92,349.686 C 1087.23,348.98 1087.37,348.211 1087.35,347.271 C 1087.22,346.436 1086.63,344.642 1085.53,341.832 L 1085.53,341.832"/>
  </g>
  <g>
    <path style="fill: #ffffff" d="M 626.969 177.148 L 707.769,177.148 L 707.769,220.348 C 691.609,213.148 683.529,213.148 667.369,220.348 C 651.209,227.548 643.129,227.548 626.969,220.348 L 626.969,177.148z"/>
    <path style="fill: none; fill-opacity:0; stroke-width: 0.02; stroke: #000000" d="M 626.969 177.148 L 707.769,177.148 L 707.769,220.348 C 691.609,213.148 683.529,213.148 667.369,220.348 C 651.209,227.548 643.129,227.548 626.969,220.348 L 626.969,177.148"/>
    <text font-size="12.8" style="fill: #000000;text-anchor:middle;font-family:monospace;font-style:normal;font-weight:normal" x="667.369" y="190.348">
      <tspan x="667.369" y="190.348">根据相邻路由</tspan>
      <tspan x="667.369" y="206.348">器更新路由表</tspan>
    </text>
  </g>
  <g>
    <rect style="fill: #ffffff" x="1015.41" y="552.754" width="71.2" height="36"/>
    <rect style="fill: none; fill-opacity:0; stroke-width: 0.02; stroke: #000000" x="1015.41" y="552.754" width="71.2" height="36"/>
    <text font-size="12.8" style="fill: #000000;text-anchor:middle;font-family:monospace;font-style:normal;font-weight:normal" x="1051.01" y="573.754">
      <tspan x="1051.01" y="573.754">网络接口</tspan>
    </text>
  </g>
</svg>
