<?xml version="1.0" encoding="UTF-8" standalone="no"?>
<!DOCTYPE svg PUBLIC "-//W3C//DTD SVG 1.0//EN" "http://www.w3.org/TR/2001/PR-SVG-20010719/DTD/svg10.dtd">
<svg width="33cm" height="28cm" viewBox="248 136 656 554" xmlns="http://www.w3.org/2000/svg" xmlns:xlink="http://www.w3.org/1999/xlink">
  <g>
    <rect style="fill: #ffffff" x="400.7" y="198" width="94.3" height="54"/>
    <rect style="fill: none; fill-opacity:0; stroke-width: 2; stroke: #000000" x="400.7" y="198" width="94.3" height="54"/>
    <text font-size="12.8" style="fill: #000000;text-anchor:middle;font-family:monospace;font-style:normal;font-weight:normal" x="447.85" y="220">
      <tspan x="447.85" y="220">IP 输出</tspan>
      <tspan x="447.85" y="236">函数</tspan>
    </text>
  </g>
  <g>
    <rect style="fill: #ffffff" x="639.6" y="199" width="96.9" height="54"/>
    <rect style="fill: none; fill-opacity:0; stroke-width: 2; stroke: #000000" x="639.6" y="199" width="96.9" height="54"/>
    <text font-size="12.8" style="fill: #000000;text-anchor:middle;font-family:monospace;font-style:normal;font-weight:normal" x="688.05" y="221">
      <tspan x="688.05" y="221">IP 输入</tspan>
      <tspan x="688.05" y="237">函数</tspan>
    </text>
  </g>
  <g>
    <line style="fill: none; fill-opacity:0; stroke-width: 2; stroke: #000000" x1="448" y1="138" x2="447.917" y2="185.995"/>
    <polygon style="fill: #000000" points="442.917,185.986 447.9,195.995 452.917,186.003 "/>
    <polygon style="fill: none; fill-opacity:0; stroke-width: 2; stroke: #000000" points="442.917,185.986 447.9,195.995 452.917,186.003 "/>
  </g>
  <g>
    <line style="fill: none; fill-opacity:0; stroke-width: 2; stroke: #000000" x1="688.009" y1="150" x2="688.05" y2="199"/>
    <polygon style="fill: #000000" points="693.009,149.996 688.001,140 683.009,150.004 "/>
    <polygon style="fill: none; fill-opacity:0; stroke-width: 2; stroke: #000000" points="693.009,149.996 688.001,140 683.009,150.004 "/>
  </g>
  <g>
    <rect style="fill: none; fill-opacity:0; stroke-width: 0.2; stroke-dasharray: 4; stroke: #000000" x="347" y="173" width="429" height="104"/>
    <text font-size="12.8" style="fill: #000000;text-anchor:middle;font-family:monospace;font-style:normal;font-weight:normal" x="561.5" y="227.65">
      <tspan x="561.5" y="227.65"></tspan>
    </text>
  </g>
  <g>
    <rect style="fill: #ffffff" x="273" y="322" width="104" height="54"/>
    <rect style="fill: none; fill-opacity:0; stroke-width: 2; stroke: #000000" x="273" y="322" width="104" height="54"/>
    <text font-size="12.8" style="fill: #000000;text-anchor:middle;font-family:monospace;font-style:normal;font-weight:normal" x="325" y="344">
      <tspan x="325" y="344">放入 IP 输入</tspan>
      <tspan x="325" y="360">队列中</tspan>
    </text>
  </g>
  <g>
    <rect style="fill: #ffffff" x="723.9" y="323" width="104" height="54"/>
    <rect style="fill: none; fill-opacity:0; stroke-width: 2; stroke: #000000" x="723.9" y="323" width="104" height="54"/>
    <text font-size="12.8" style="fill: #000000;text-anchor:middle;font-family:monospace;font-style:normal;font-weight:normal" x="775.9" y="345">
      <tspan x="775.9" y="345">放入 IP 输入</tspan>
      <tspan x="775.9" y="361">队列中</tspan>
    </text>
  </g>
  <g>
    <rect style="fill: none; fill-opacity:0; stroke-width: 0.2; stroke-dasharray: 4; stroke: #000000" x="249" y="302" width="167" height="90"/>
    <text font-size="12.8" style="fill: #000000;text-anchor:middle;font-family:monospace;font-style:normal;font-weight:normal" x="332.5" y="349.65">
      <tspan x="332.5" y="349.65"></tspan>
    </text>
  </g>
  <g>
    <rect style="fill: #ffffff" x="540" y="322" width="160" height="54"/>
    <rect style="fill: none; fill-opacity:0; stroke-width: 2; stroke: #000000" x="540" y="322" width="160" height="54"/>
    <text font-size="12.8" style="fill: #000000;text-anchor:middle;font-family:monospace;font-style:normal;font-weight:normal" x="620" y="344">
      <tspan x="620" y="344">目的地址是否与广播</tspan>
      <tspan x="620" y="360">地址或多播地址相同?</tspan>
    </text>
  </g>
  <g>
    <rect style="fill: #ffffff" x="539.8" y="427" width="159.2" height="54"/>
    <rect style="fill: none; fill-opacity:0; stroke-width: 2; stroke: #000000" x="539.8" y="427" width="159.2" height="54"/>
    <text font-size="12.8" style="fill: #000000;text-anchor:middle;font-family:monospace;font-style:normal;font-weight:normal" x="619.4" y="449">
      <tspan x="619.4" y="449">目的地址是否与接</tspan>
      <tspan x="619.4" y="465">口IP地址相同?</tspan>
    </text>
  </g>
  <g>
    <rect style="fill: #ffffff" x="593.45" y="544" width="45.1" height="38"/>
    <rect style="fill: none; fill-opacity:0; stroke-width: 2; stroke: #000000" x="593.45" y="544" width="45.1" height="38"/>
    <text font-size="12.8" style="fill: #000000;text-anchor:middle;font-family:monospace;font-style:normal;font-weight:normal" x="616" y="565.65">
      <tspan x="616" y="565.65">ARP</tspan>
    </text>
  </g>
  <g>
    <rect style="fill: #ffffff" x="726.6" y="533" width="98.8" height="54"/>
    <rect style="fill: none; fill-opacity:0; stroke-width: 2; stroke: #000000" x="726.6" y="533" width="98.8" height="54"/>
    <text font-size="12.8" style="fill: #000000;text-anchor:middle;font-family:monospace;font-style:normal;font-weight:normal" x="776" y="555">
      <tspan x="776" y="555">基于以太网帧</tspan>
      <tspan x="776" y="571">类型进行分用</tspan>
    </text>
  </g>
  <g>
    <line style="fill: none; fill-opacity:0; stroke-width: 2; stroke: #000000" x1="775.987" y1="531.994" x2="775.919" y2="389.006"/>
    <polygon style="fill: #000000" points="780.919,389.004 775.914,379.006 770.919,389.008 "/>
    <polygon style="fill: none; fill-opacity:0; stroke-width: 2; stroke: #000000" points="780.919,389.004 775.914,379.006 770.919,389.008 "/>
  </g>
  <line style="fill: none; fill-opacity:0; stroke-width: 4; stroke: #000000" x1="262.25" y1="648" x2="902" y2="647"/>
  <g>
    <line style="fill: none; fill-opacity:0; stroke-width: 2; stroke: #000000" x1="618.527" y1="482.002" x2="616.961" y2="532.207"/>
    <polygon style="fill: #000000" points="611.963,532.051 616.649,542.202 621.958,532.362 "/>
    <polygon style="fill: none; fill-opacity:0; stroke-width: 2; stroke: #000000" points="611.963,532.051 616.649,542.202 621.958,532.362 "/>
  </g>
  <g>
    <line style="fill: none; fill-opacity:0; stroke-width: 2; stroke: #000000" x1="615.818" y1="582.939" x2="615.351" y2="634"/>
    <polygon style="fill: #000000" points="610.351,633.955 615.259,644 620.35,634.046 "/>
    <polygon style="fill: none; fill-opacity:0; stroke-width: 2; stroke: #000000" points="610.351,633.955 615.259,644 620.35,634.046 "/>
  </g>
  <g>
    <line style="fill: none; fill-opacity:0; stroke-width: 2; stroke: #000000" x1="620" y1="376" x2="619.529" y2="416.001"/>
    <polygon style="fill: #000000" points="614.53,415.942 619.412,426 624.529,416.06 "/>
    <polygon style="fill: none; fill-opacity:0; stroke-width: 2; stroke: #000000" points="614.53,415.942 619.412,426 624.529,416.06 "/>
  </g>
  <g>
    <line style="fill: none; fill-opacity:0; stroke-width: 2; stroke: #000000" x1="378.006" y1="332.825" x2="629.079" y2="256.21"/>
    <polygon style="fill: #000000" points="630.538,260.993 638.644,253.292 627.62,251.428 "/>
    <polygon style="fill: none; fill-opacity:0; stroke-width: 2; stroke: #000000" points="630.538,260.993 638.644,253.292 627.62,251.428 "/>
  </g>
  <g>
    <line style="fill: none; fill-opacity:0; stroke-width: 2; stroke: #000000" x1="400.7" y1="252" x2="353.622" y2="312.325"/>
    <polygon style="fill: #000000" points="349.68,309.248 347.47,320.208 357.564,315.401 "/>
    <polygon style="fill: none; fill-opacity:0; stroke-width: 2; stroke: #000000" points="349.68,309.248 347.47,320.208 357.564,315.401 "/>
  </g>
  <g>
    <path style="fill: #ffffff" d="M 279.6 395 L 360.4,395 L 360.4,429.286 C 344.24,423.571 336.16,423.571 320,429.286 C 303.84,435 295.76,435 279.6,429.286 L 279.6,395z"/>
    <path style="fill: none; fill-opacity:0; stroke-width: 0.02; stroke: #000000" d="M 279.6 395 L 360.4,395 L 360.4,429.286 C 344.24,423.571 336.16,423.571 320,429.286 C 303.84,435 295.76,435 279.6,429.286 L 279.6,395"/>
    <text font-size="12.8" style="fill: #000000;text-anchor:middle;font-family:monospace;font-style:normal;font-weight:normal" x="320" y="412.486">
      <tspan x="320" y="412.486">环回驱动程序</tspan>
    </text>
  </g>
  <g>
    <path style="fill: #ffffff" d="M 617 586 L 657,586 L 657,620.286 C 649,614.571 645,614.571 637,620.286 C 629,626 625,626 617,620.286 L 617,586z"/>
    <path style="fill: none; fill-opacity:0; stroke-width: 0.02; stroke: #000000" d="M 617 586 L 657,586 L 657,620.286 C 649,614.571 645,614.571 637,620.286 C 629,626 625,626 617,620.286 L 617,586"/>
    <text font-size="12.8" style="fill: #000000;text-anchor:middle;font-family:monospace;font-style:normal;font-weight:normal" x="637" y="603.486">
      <tspan x="637" y="603.486">发送</tspan>
    </text>
  </g>
  <g>
    <path style="fill: #ffffff" d="M 843.4 422.8 L 898.6,422.8 L 898.6,466 C 887.56,458.8 882.04,458.8 871,466 C 859.96,473.2 854.44,473.2 843.4,466 L 843.4,422.8z"/>
    <path style="fill: none; fill-opacity:0; stroke-width: 0.02; stroke: #000000" d="M 843.4 422.8 L 898.6,422.8 L 898.6,466 C 887.56,458.8 882.04,458.8 871,466 C 859.96,473.2 854.44,473.2 843.4,466 L 843.4,422.8"/>
    <text font-size="12.8" style="fill: #000000;text-anchor:middle;font-family:monospace;font-style:normal;font-weight:normal" x="871" y="436">
      <tspan x="871" y="436">以太网驱</tspan>
      <tspan x="871" y="452">动程序</tspan>
    </text>
  </g>
  <g>
    <path style="fill: #ffffff" d="M 544.8 650 L 587.2,650 L 587.2,684.286 C 578.72,678.571 574.48,678.571 566,684.286 C 557.52,690 553.28,690 544.8,684.286 L 544.8,650z"/>
    <path style="fill: none; fill-opacity:0; stroke-width: 0.02; stroke: #000000" d="M 544.8 650 L 587.2,650 L 587.2,684.286 C 578.72,678.571 574.48,678.571 566,684.286 C 557.52,690 553.28,690 544.8,684.286 L 544.8,650"/>
    <text font-size="12.8" style="fill: #000000;text-anchor:middle;font-family:monospace;font-style:normal;font-weight:normal" x="566" y="667.486">
      <tspan x="566" y="667.486">以太网</tspan>
    </text>
  </g>
  <g>
    <path style="fill: #ffffff" d="M 467 418 L 507,418 L 507,452.286 C 499,446.571 495,446.571 487,452.286 C 479,458 475,458 467,452.286 L 467,418z"/>
    <path style="fill: none; fill-opacity:0; stroke-width: 0.02; stroke: #000000" d="M 467 418 L 507,418 L 507,452.286 C 499,446.571 495,446.571 487,452.286 C 479,458 475,458 467,452.286 L 467,418"/>
    <text font-size="12.8" style="fill: #000000;text-anchor:middle;font-family:monospace;font-style:normal;font-weight:normal" x="487" y="435.486">
      <tspan x="487" y="435.486">是</tspan>
    </text>
  </g>
  <g>
    <path style="fill: #ffffff" d="M 469.6 483.8 L 614.4,483.8 L 614.4,527 C 585.44,519.8 570.96,519.8 542,527 C 513.04,534.2 498.56,534.2 469.6,527 L 469.6,483.8z"/>
    <path style="fill: none; fill-opacity:0; stroke-width: 0.02; stroke: #000000" d="M 469.6 483.8 L 614.4,483.8 L 614.4,527 C 585.44,519.8 570.96,519.8 542,527 C 513.04,534.2 498.56,534.2 469.6,527 L 469.6,483.8"/>
    <text font-size="12.8" style="fill: #000000;text-anchor:middle;font-family:monospace;font-style:normal;font-weight:normal" x="542" y="497">
      <tspan x="542" y="497">否，用 ARP 获</tspan>
      <tspan x="542" y="513">取目的主机的以太网地址</tspan>
    </text>
  </g>
  <g>
    <path style="fill: #ffffff" d="M 777.25 489 L 817.25,489 L 817.25,523.286 C 809.25,517.571 805.25,517.571 797.25,523.286 C 789.25,529 785.25,529 777.25,523.286 L 777.25,489z"/>
    <path style="fill: none; fill-opacity:0; stroke-width: 0.02; stroke: #000000" d="M 777.25 489 L 817.25,489 L 817.25,523.286 C 809.25,517.571 805.25,517.571 797.25,523.286 C 789.25,529 785.25,529 777.25,523.286 L 777.25,489"/>
    <text font-size="12.8" style="fill: #000000;text-anchor:middle;font-family:monospace;font-style:normal;font-weight:normal" x="797.25" y="506.486">
      <tspan x="797.25" y="506.486">IP</tspan>
    </text>
  </g>
  <g>
    <path style="fill: #ffffff" d="M 667.25 534 L 707.25,534 L 707.25,568.286 C 699.25,562.571 695.25,562.571 687.25,568.286 C 679.25,574 675.25,574 667.25,568.286 L 667.25,534z"/>
    <path style="fill: none; fill-opacity:0; stroke-width: 0.02; stroke: #000000" d="M 667.25 534 L 707.25,534 L 707.25,568.286 C 699.25,562.571 695.25,562.571 687.25,568.286 C 679.25,574 675.25,574 667.25,568.286 L 667.25,534"/>
    <text font-size="12.8" style="fill: #000000;text-anchor:middle;font-family:monospace;font-style:normal;font-weight:normal" x="687.25" y="551.486">
      <tspan x="687.25" y="551.486">ARP</tspan>
    </text>
  </g>
  <g>
    <path style="fill: #ffffff" d="M 578.15 377 L 618.15,377 L 618.15,411.286 C 610.15,405.571 606.15,405.571 598.15,411.286 C 590.15,417 586.15,417 578.15,411.286 L 578.15,377z"/>
    <path style="fill: none; fill-opacity:0; stroke-width: 0.02; stroke: #000000" d="M 578.15 377 L 618.15,377 L 618.15,411.286 C 610.15,405.571 606.15,405.571 598.15,411.286 C 590.15,417 586.15,417 578.15,411.286 L 578.15,377"/>
    <text font-size="12.8" style="fill: #000000;text-anchor:middle;font-family:monospace;font-style:normal;font-weight:normal" x="598.15" y="394.486">
      <tspan x="598.15" y="394.486">否</tspan>
    </text>
  </g>
  <g>
    <path style="fill: #ffffff" d="M 493.15 318 L 533.15,318 L 533.15,352.286 C 525.15,346.571 521.15,346.571 513.15,352.286 C 505.15,358 501.15,358 493.15,352.286 L 493.15,318z"/>
    <path style="fill: none; fill-opacity:0; stroke-width: 0.02; stroke: #000000" d="M 493.15 318 L 533.15,318 L 533.15,352.286 C 525.15,346.571 521.15,346.571 513.15,352.286 C 505.15,358 501.15,358 493.15,352.286 L 493.15,318"/>
    <text font-size="12.8" style="fill: #000000;text-anchor:middle;font-family:monospace;font-style:normal;font-weight:normal" x="513.15" y="335.486">
      <tspan x="513.15" y="335.486">是</tspan>
    </text>
  </g>
  <g>
    <line style="fill: none; fill-opacity:0; stroke-width: 2; stroke: #000000" x1="539.003" y1="349" x2="387.855" y2="349"/>
    <polygon style="fill: #000000" points="387.855,344 377.855,349 387.855,354 "/>
    <polygon style="fill: none; fill-opacity:0; stroke-width: 2; stroke: #000000" points="387.855,344 377.855,349 387.855,354 "/>
  </g>
  <g>
    <line style="fill: none; fill-opacity:0; stroke-width: 2; stroke: #000000" x1="540.877" y1="425.994" x2="388.351" y2="371.594"/>
    <polygon style="fill: #000000" points="390.03,366.885 378.932,368.235 386.671,376.304 "/>
    <polygon style="fill: none; fill-opacity:0; stroke-width: 2; stroke: #000000" points="390.03,366.885 378.932,368.235 386.671,376.304 "/>
  </g>
  <g>
    <line style="fill: none; fill-opacity:0; stroke-width: 2; stroke: #000000" x1="725.6" y1="560.945" x2="650.533" y2="562.353"/>
    <polygon style="fill: #000000" points="650.439,557.353 640.535,562.54 650.627,567.352 "/>
    <polygon style="fill: none; fill-opacity:0; stroke-width: 2; stroke: #000000" points="650.439,557.353 640.535,562.54 650.627,567.352 "/>
  </g>
  <g>
    <line style="fill: none; fill-opacity:0; stroke-width: 2; stroke: #000000" x1="438.25" y1="348" x2="438.25" y2="634"/>
    <polygon style="fill: #000000" points="433.25,634 438.25,644 443.25,634 "/>
    <polygon style="fill: none; fill-opacity:0; stroke-width: 2; stroke: #000000" points="433.25,634 438.25,644 443.25,634 "/>
  </g>
  <g>
    <path style="fill: #ffffff" d="M 780 593 L 820,593 L 820,627.286 C 812,621.571 808,621.571 800,627.286 C 792,633 788,633 780,627.286 L 780,593z"/>
    <path style="fill: none; fill-opacity:0; stroke-width: 0.02; stroke: #000000" d="M 780 593 L 820,593 L 820,627.286 C 812,621.571 808,621.571 800,627.286 C 792,633 788,633 780,627.286 L 780,593"/>
    <text font-size="12.8" style="fill: #000000;text-anchor:middle;font-family:monospace;font-style:normal;font-weight:normal" x="800" y="610.486">
      <tspan x="800" y="610.486">接收</tspan>
    </text>
  </g>
  <g>
    <line style="fill: none; fill-opacity:0; stroke-width: 2; stroke: #000000" x1="777.25" y1="644" x2="776.58" y2="598.992"/>
    <polygon style="fill: #000000" points="781.58,598.918 776.431,588.993 771.581,599.066 "/>
    <polygon style="fill: none; fill-opacity:0; stroke-width: 2; stroke: #000000" points="781.58,598.918 776.431,588.993 771.581,599.066 "/>
  </g>
  <g>
    <rect style="fill: none; fill-opacity:0; stroke-width: 0.2; stroke-dasharray: 4; stroke: #000000" x="465" y="309" width="376.25" height="320"/>
    <text font-size="12.8" style="fill: #000000;text-anchor:middle;font-family:monospace;font-style:normal;font-weight:normal" x="653.125" y="471.65">
      <tspan x="653.125" y="471.65"></tspan>
    </text>
  </g>
  <g>
    <line style="fill: none; fill-opacity:0; stroke-width: 2; stroke: #000000" x1="756.072" y1="322.012" x2="714.237" y2="262.963"/>
    <polygon style="fill: #000000" points="718.317,260.073 708.457,254.804 710.158,265.854 "/>
    <polygon style="fill: none; fill-opacity:0; stroke-width: 2; stroke: #000000" points="718.317,260.073 708.457,254.804 710.158,265.854 "/>
  </g>
  <g>
    <line style="fill: none; fill-opacity:0; stroke-width: 2; stroke: #000000" x1="486.706" y1="252.988" x2="572.219" y2="314.583"/>
    <polygon style="fill: #000000" points="569.296,318.64 580.333,320.428 575.141,310.526 "/>
    <polygon style="fill: none; fill-opacity:0; stroke-width: 2; stroke: #000000" points="569.296,318.64 580.333,320.428 575.141,310.526 "/>
  </g>
</svg>
