<?xml version="1.0" encoding="UTF-8" standalone="no"?>
<!DOCTYPE svg PUBLIC "-//W3C//DTD SVG 1.0//EN" "http://www.w3.org/TR/2001/PR-SVG-20010719/DTD/svg10.dtd">
<svg width="36cm" height="15cm" viewBox="199 180 703 300" xmlns="http://www.w3.org/2000/svg" xmlns:xlink="http://www.w3.org/1999/xlink">
  <g>
    <rect style="fill: #ffffff" x="200.743" y="181.958" width="700.113" height="56.4702"/>
    <rect style="fill: none; fill-opacity:0; stroke-width: 2; stroke: #000000" x="200.743" y="181.958" width="700.113" height="56.4702"/>
    <text font-size="12.7998" style="fill: #000000;text-anchor:middle;font-family:sans-serif;font-style:normal;font-weight:normal" x="550.8" y="214.993">
      <tspan x="550.8" y="214.993"></tspan>
    </text>
  </g>
  <line style="fill: none; fill-opacity:0; stroke-width: 2; stroke: #000000" x1="240.136" y1="181.958" x2="240.136" y2="237.622"/>
  <g>
    <path style="fill: #ffffff" d="M 205.025 186.606 L 234.625,186.606 L 234.625,229.806 C 228.705,222.606 225.745,222.606 219.825,229.806 C 213.905,237.006 210.945,237.006 205.025,229.806 L 205.025,186.606z"/>
    <path style="fill: none; fill-opacity:0; stroke-width: 0.02; stroke: #000000" d="M 205.025 186.606 L 234.625,186.606 L 234.625,229.806 C 228.705,222.606 225.745,222.606 219.825,229.806 C 213.905,237.006 210.945,237.006 205.025,229.806 L 205.025,186.606"/>
    <text font-size="12.7998" style="fill: #000000;text-anchor:middle;font-family:sans-serif;font-style:normal;font-weight:normal" x="219.825" y="201.606">
      <tspan x="219.825" y="201.606">标志</tspan>
      <tspan x="219.825" y="217.606">7E</tspan>
    </text>
  </g>
  <line style="fill: none; fill-opacity:0; stroke-width: 2; stroke: #000000" x1="280.058" y1="182.102" x2="280.058" y2="237.766"/>
  <line style="fill: none; fill-opacity:0; stroke-width: 2; stroke: #000000" x1="320.693" y1="182.102" x2="320.693" y2="237.766"/>
  <line style="fill: none; fill-opacity:0; stroke-width: 2; stroke: #000000" x1="861.448" y1="182.53" x2="861.448" y2="238.194"/>
  <line style="fill: none; fill-opacity:0; stroke-width: 2; stroke: #000000" x1="780.478" y1="182.53" x2="780.478" y2="238.194"/>
  <line style="fill: none; fill-opacity:0; stroke-width: 2; stroke: #000000" x1="389.502" y1="182.102" x2="389.502" y2="237.766"/>
  <g>
    <path style="fill: #ffffff" d="M 244.804 186.49 L 274.404,186.49 L 274.404,229.69 C 268.484,222.49 265.524,222.49 259.604,229.69 C 253.684,236.89 250.724,236.89 244.804,229.69 L 244.804,186.49z"/>
    <path style="fill: none; fill-opacity:0; stroke-width: 0.02; stroke: #000000" d="M 244.804 186.49 L 274.404,186.49 L 274.404,229.69 C 268.484,222.49 265.524,222.49 259.604,229.69 C 253.684,236.89 250.724,236.89 244.804,229.69 L 244.804,186.49"/>
    <text font-size="12.7998" style="fill: #000000;text-anchor:middle;font-family:sans-serif;font-style:normal;font-weight:normal" x="259.604" y="201.49">
      <tspan x="259.604" y="201.49">地址</tspan>
      <tspan x="259.604" y="217.49">FF</tspan>
    </text>
  </g>
  <g>
    <path style="fill: #ffffff" d="M 284.481 186.918 L 316.081,186.918 L 316.081,230.118 C 309.761,222.918 306.601,222.918 300.281,230.118 C 293.961,237.318 290.801,237.318 284.481,230.118 L 284.481,186.918z"/>
    <path style="fill: none; fill-opacity:0; stroke-width: 0.02; stroke: #000000" d="M 284.481 186.918 L 316.081,186.918 L 316.081,230.118 C 309.761,222.918 306.601,222.918 300.281,230.118 C 293.961,237.318 290.801,237.318 284.481,230.118 L 284.481,186.918"/>
    <text font-size="12.7998" style="fill: #000000;text-anchor:middle;font-family:sans-serif;font-style:normal;font-weight:normal" x="300.281" y="201.918">
      <tspan x="300.281" y="201.918">控制</tspan>
      <tspan x="300.281" y="217.918">03</tspan>
    </text>
  </g>
  <g>
    <path style="fill: #ffffff" d="M 339.004 186.49 L 370.604,186.49 L 370.604,229.69 C 364.284,222.49 361.124,222.49 354.804,229.69 C 348.484,236.89 345.324,236.89 339.004,229.69 L 339.004,186.49z"/>
    <path style="fill: none; fill-opacity:0; stroke-width: 0.02; stroke: #000000" d="M 339.004 186.49 L 370.604,186.49 L 370.604,229.69 C 364.284,222.49 361.124,222.49 354.804,229.69 C 348.484,236.89 345.324,236.89 339.004,229.69 L 339.004,186.49"/>
    <text font-size="12.7998" style="fill: #000000;text-anchor:middle;font-family:sans-serif;font-style:normal;font-weight:normal" x="354.804" y="209.49">
      <tspan x="354.804" y="209.49">协议</tspan>
    </text>
  </g>
  <g>
    <path style="fill: #ffffff" d="M 804.87 185.812 L 836.47,185.812 L 836.47,229.012 C 830.15,221.812 826.99,221.812 820.67,229.012 C 814.35,236.212 811.19,236.212 804.87,229.012 L 804.87,185.812z"/>
    <path style="fill: none; fill-opacity:0; stroke-width: 0.02; stroke: #000000" d="M 804.87 185.812 L 836.47,185.812 L 836.47,229.012 C 830.15,221.812 826.99,221.812 820.67,229.012 C 814.35,236.212 811.19,236.212 804.87,229.012 L 804.87,185.812"/>
    <text font-size="12.7998" style="fill: #000000;text-anchor:middle;font-family:sans-serif;font-style:normal;font-weight:normal" x="820.67" y="208.812">
      <tspan x="820.67" y="208.812">CRC</tspan>
    </text>
  </g>
  <g>
    <path style="fill: #ffffff" d="M 865.629 184.955 L 897.229,184.955 L 897.229,228.155 C 890.909,220.955 887.749,220.955 881.429,228.155 C 875.109,235.355 871.949,235.355 865.629,228.155 L 865.629,184.955z"/>
    <path style="fill: none; fill-opacity:0; stroke-width: 0.02; stroke: #000000" d="M 865.629 184.955 L 897.229,184.955 L 897.229,228.155 C 890.909,220.955 887.749,220.955 881.429,228.155 C 875.109,235.355 871.949,235.355 865.629,228.155 L 865.629,184.955"/>
    <text font-size="12.7998" style="fill: #000000;text-anchor:middle;font-family:sans-serif;font-style:normal;font-weight:normal" x="881.429" y="199.955">
      <tspan x="881.429" y="199.955">标志</tspan>
      <tspan x="881.429" y="215.955">7E</tspan>
    </text>
  </g>
  <g>
    <path style="fill: #ffffff" d="M 875.991 240.619 L 886.991,240.619 L 886.991,264.619 C 884.791,260.619 883.691,260.619 881.491,264.619 C 879.291,268.619 878.191,268.619 875.991,264.619 L 875.991,240.619z"/>
    <path style="fill: none; fill-opacity:0; stroke-width: 0.02; stroke: #000000" d="M 875.991 240.619 L 886.991,240.619 L 886.991,264.619 C 884.791,260.619 883.691,260.619 881.491,264.619 C 879.291,268.619 878.191,268.619 875.991,264.619 L 875.991,240.619"/>
    <text font-size="12.7998" style="fill: #000000;text-anchor:middle;font-family:sans-serif;font-style:normal;font-weight:normal" x="881.491" y="255.619">
      <tspan x="881.491" y="255.619">1</tspan>
    </text>
  </g>
  <g>
    <path style="fill: #ffffff" d="M 348.853 240.619 L 359.853,240.619 L 359.853,264.619 C 357.653,260.619 356.553,260.619 354.353,264.619 C 352.153,268.619 351.053,268.619 348.853,264.619 L 348.853,240.619z"/>
    <path style="fill: none; fill-opacity:0; stroke-width: 0.02; stroke: #000000" d="M 348.853 240.619 L 359.853,240.619 L 359.853,264.619 C 357.653,260.619 356.553,260.619 354.353,264.619 C 352.153,268.619 351.053,268.619 348.853,264.619 L 348.853,240.619"/>
    <text font-size="12.7998" style="fill: #000000;text-anchor:middle;font-family:sans-serif;font-style:normal;font-weight:normal" x="354.353" y="255.619">
      <tspan x="354.353" y="255.619">2</tspan>
    </text>
  </g>
  <g>
    <path style="fill: #ffffff" d="M 255.08 240.619 L 266.08,240.619 L 266.08,264.619 C 263.88,260.619 262.78,260.619 260.58,264.619 C 258.38,268.619 257.28,268.619 255.08,264.619 L 255.08,240.619z"/>
    <path style="fill: none; fill-opacity:0; stroke-width: 0.02; stroke: #000000" d="M 255.08 240.619 L 266.08,240.619 L 266.08,264.619 C 263.88,260.619 262.78,260.619 260.58,264.619 C 258.38,268.619 257.28,268.619 255.08,264.619 L 255.08,240.619"/>
    <text font-size="12.7998" style="fill: #000000;text-anchor:middle;font-family:sans-serif;font-style:normal;font-weight:normal" x="260.58" y="255.619">
      <tspan x="260.58" y="255.619">1</tspan>
    </text>
  </g>
  <g>
    <path style="fill: #ffffff" d="M 294.473 240.619 L 305.473,240.619 L 305.473,264.619 C 303.273,260.619 302.173,260.619 299.973,264.619 C 297.773,268.619 296.673,268.619 294.473,264.619 L 294.473,240.619z"/>
    <path style="fill: none; fill-opacity:0; stroke-width: 0.02; stroke: #000000" d="M 294.473 240.619 L 305.473,240.619 L 305.473,264.619 C 303.273,260.619 302.173,260.619 299.973,264.619 C 297.773,268.619 296.673,268.619 294.473,264.619 L 294.473,240.619"/>
    <text font-size="12.7998" style="fill: #000000;text-anchor:middle;font-family:sans-serif;font-style:normal;font-weight:normal" x="299.973" y="255.619">
      <tspan x="299.973" y="255.619">1</tspan>
    </text>
  </g>
  <g>
    <path style="fill: #ffffff" d="M 216.115 240.619 L 227.115,240.619 L 227.115,264.619 C 224.915,260.619 223.815,260.619 221.615,264.619 C 219.415,268.619 218.315,268.619 216.115,264.619 L 216.115,240.619z"/>
    <path style="fill: none; fill-opacity:0; stroke-width: 0.02; stroke: #000000" d="M 216.115 240.619 L 227.115,240.619 L 227.115,264.619 C 224.915,260.619 223.815,260.619 221.615,264.619 C 219.415,268.619 218.315,268.619 216.115,264.619 L 216.115,240.619"/>
    <text font-size="12.7998" style="fill: #000000;text-anchor:middle;font-family:sans-serif;font-style:normal;font-weight:normal" x="221.615" y="255.619">
      <tspan x="221.615" y="255.619">1</tspan>
    </text>
  </g>
  <g>
    <path style="fill: #ffffff" d="M 819.856 240.619 L 830.856,240.619 L 830.856,264.619 C 828.656,260.619 827.556,260.619 825.356,264.619 C 823.156,268.619 822.056,268.619 819.856,264.619 L 819.856,240.619z"/>
    <path style="fill: none; fill-opacity:0; stroke-width: 0.02; stroke: #000000" d="M 819.856 240.619 L 830.856,240.619 L 830.856,264.619 C 828.656,260.619 827.556,260.619 825.356,264.619 C 823.156,268.619 822.056,268.619 819.856,264.619 L 819.856,240.619"/>
    <text font-size="12.7998" style="fill: #000000;text-anchor:middle;font-family:sans-serif;font-style:normal;font-weight:normal" x="825.356" y="255.619">
      <tspan x="825.356" y="255.619">2</tspan>
    </text>
  </g>
  <g>
    <path style="fill: #ffffff" d="M 539.247 239.763 L 622.447,239.763 L 622.447,263.763 C 605.807,259.763 597.487,259.763 580.847,263.763 C 564.207,267.763 555.887,267.763 539.247,263.763 L 539.247,239.763z"/>
    <path style="fill: none; fill-opacity:0; stroke-width: 0.02; stroke: #000000" d="M 539.247 239.763 L 622.447,239.763 L 622.447,263.763 C 605.807,259.763 597.487,259.763 580.847,263.763 C 564.207,267.763 555.887,267.763 539.247,263.763 L 539.247,239.763"/>
    <text font-size="12.7998" style="fill: #000000;text-anchor:middle;font-family:sans-serif;font-style:normal;font-weight:normal" x="580.847" y="254.763">
      <tspan x="580.847" y="254.763">最多1500字节</tspan>
    </text>
  </g>
  <g>
    <rect style="fill: #ffffff" x="320.207" y="281.869" width="460.148" height="56.4702"/>
    <rect style="fill: none; fill-opacity:0; stroke-width: 2; stroke: #000000" x="320.207" y="281.869" width="460.148" height="56.4702"/>
    <text font-size="12.7998" style="fill: #000000;text-anchor:middle;font-family:sans-serif;font-style:normal;font-weight:normal" x="550.281" y="315.804">
      <tspan x="550.281" y="315.804">IP数据报</tspan>
    </text>
  </g>
  <line style="fill: none; fill-opacity:0; stroke-width: 2; stroke: #000000" x1="390.46" y1="282.012" x2="390.46" y2="337.676"/>
  <g>
    <path style="fill: #ffffff" d="M 339.761 286.401 L 371.761,286.401 L 371.761,329.601 C 365.361,322.401 362.161,322.401 355.761,329.601 C 349.361,336.801 346.161,336.801 339.761,329.601 L 339.761,286.401z"/>
    <path style="fill: none; fill-opacity:0; stroke-width: 0.02; stroke: #000000" d="M 339.761 286.401 L 371.761,286.401 L 371.761,329.601 C 365.361,322.401 362.161,322.401 355.761,329.601 C 349.361,336.801 346.161,336.801 339.761,329.601 L 339.761,286.401"/>
    <text font-size="12.7998" style="fill: #000000;text-anchor:middle;font-family:sans-serif;font-style:normal;font-weight:normal" x="355.761" y="301.401">
      <tspan x="355.761" y="301.401">协议</tspan>
      <tspan x="355.761" y="317.401">0021</tspan>
    </text>
  </g>
  <g>
    <rect style="fill: #ffffff" x="321.013" y="351.663" width="289.78" height="56.4702"/>
    <rect style="fill: none; fill-opacity:0; stroke-width: 2; stroke: #000000" x="321.013" y="351.663" width="289.78" height="56.4702"/>
    <text font-size="12.7998" style="fill: #000000;text-anchor:middle;font-family:sans-serif;font-style:normal;font-weight:normal" x="465.903" y="385.598">
      <tspan x="465.903" y="385.598">LCP链路控制数据</tspan>
    </text>
  </g>
  <line style="fill: none; fill-opacity:0; stroke-width: 2; stroke: #000000" x1="391.266" y1="351.806" x2="391.266" y2="407.471"/>
  <g>
    <path style="fill: #ffffff" d="M 340.217 356.195 L 372.917,356.195 L 372.917,399.395 C 366.377,392.195 363.107,392.195 356.567,399.395 C 350.027,406.595 346.757,406.595 340.217,399.395 L 340.217,356.195z"/>
    <path style="fill: none; fill-opacity:0; stroke-width: 0.02; stroke: #000000" d="M 340.217 356.195 L 372.917,356.195 L 372.917,399.395 C 366.377,392.195 363.107,392.195 356.567,399.395 C 350.027,406.595 346.757,406.595 340.217,399.395 L 340.217,356.195"/>
    <text font-size="12.7998" style="fill: #000000;text-anchor:middle;font-family:sans-serif;font-style:normal;font-weight:normal" x="356.567" y="371.195">
      <tspan x="356.567" y="371.195">协议</tspan>
      <tspan x="356.567" y="387.195">C021</tspan>
    </text>
  </g>
  <g>
    <rect style="fill: #ffffff" x="321.441" y="422.742" width="288.068" height="56.4702"/>
    <rect style="fill: none; fill-opacity:0; stroke-width: 2; stroke: #000000" x="321.441" y="422.742" width="288.068" height="56.4702"/>
    <text font-size="12.7998" style="fill: #000000;text-anchor:middle;font-family:sans-serif;font-style:normal;font-weight:normal" x="465.475" y="456.677">
      <tspan x="465.475" y="456.677">NCP网络控制数据</tspan>
    </text>
  </g>
  <line style="fill: none; fill-opacity:0; stroke-width: 2; stroke: #000000" x1="391.694" y1="422.885" x2="391.694" y2="478.549"/>
  <g>
    <path style="fill: #ffffff" d="M 340.646 427.273 L 373.346,427.273 L 373.346,470.473 C 366.806,463.273 363.536,463.273 356.996,470.473 C 350.456,477.673 347.186,477.673 340.646,470.473 L 340.646,427.273z"/>
    <path style="fill: none; fill-opacity:0; stroke-width: 0.02; stroke: #000000" d="M 340.646 427.273 L 373.346,427.273 L 373.346,470.473 C 366.806,463.273 363.536,463.273 356.996,470.473 C 350.456,477.673 347.186,477.673 340.646,470.473 L 340.646,427.273"/>
    <text font-size="12.7998" style="fill: #000000;text-anchor:middle;font-family:sans-serif;font-style:normal;font-weight:normal" x="356.996" y="442.273">
      <tspan x="356.996" y="442.273">协议</tspan>
      <tspan x="356.996" y="458.273">8021</tspan>
    </text>
  </g>
</svg>
