<?xml version="1.0" encoding="UTF-8" standalone="no"?>
<!DOCTYPE svg PUBLIC "-//W3C//DTD SVG 1.0//EN" "http://www.w3.org/TR/2001/PR-SVG-20010719/DTD/svg10.dtd">
<svg width="35cm" height="45cm" viewBox="171 88 692 884" xmlns="http://www.w3.org/2000/svg" xmlns:xlink="http://www.w3.org/1999/xlink">
  <g>
    <path style="fill: #ffffff" d="M 452.43 579.01 L 543.53,579.01 L 543.53,603.01 C 525.31,599.01 516.2,599.01 497.98,603.01 C 479.76,607.01 470.65,607.01 452.43,603.01 L 452.43,579.01z"/>
    <path style="fill: none; fill-opacity:0; stroke-width: 0.02; stroke: #000000" d="M 452.43 579.01 L 543.53,579.01 L 543.53,603.01 C 525.31,599.01 516.2,599.01 497.98,603.01 C 479.76,607.01 470.65,607.01 452.43,603.01 L 452.43,579.01"/>
    <text font-size="12.8" style="fill: #000000;text-anchor:middle;font-family:monospace;font-style:normal;font-weight:700" x="497.98" y="591.41">
      <tspan x="497.98" y="591.41">RIP(v1)报文</tspan>
    </text>
  </g>
  <g>
    <path style="fill: #ffffff" d="M 288.828 88.0404 L 354.477,88.0404 L 354.477,112.04 C 341.347,108.04 334.782,108.04 321.653,112.04 C 308.523,116.04 301.958,116.04 288.828,112.04 L 288.828,88.0404z"/>
    <path style="fill: none; fill-opacity:0; stroke-width: 0.02; stroke: #000000" d="M 288.828 88.0404 L 354.477,88.0404 L 354.477,112.04 C 341.347,108.04 334.782,108.04 321.653,112.04 C 308.523,116.04 301.958,116.04 288.828,112.04 L 288.828,88.0404"/>
    <text font-size="12.8" style="fill: #000000;text-anchor:middle;font-family:monospace;font-style:normal;font-weight:normal" x="321.653" y="101.24">
      <tspan x="321.653" y="101.24">IP数据报</tspan>
    </text>
  </g>
  <g>
    <rect style="fill: #ffffff" x="176.298" y="432.14" width="640.277" height="38.6806"/>
    <rect style="fill: none; fill-opacity:0; stroke-width: 2; stroke: #000000" x="176.298" y="432.14" width="640.277" height="38.6806"/>
    <text font-size="12.8" style="fill: #000000;text-anchor:middle;font-family:monospace;font-style:normal;font-weight:normal" x="496.437" y="454.13">
      <tspan x="496.437" y="454.13"></tspan>
    </text>
  </g>
  <g>
    <rect style="fill: #ffffff" x="176.53" y="470.718" width="640.52" height="38.6806"/>
    <rect style="fill: none; fill-opacity:0; stroke-width: 2; stroke: #000000" x="176.53" y="470.718" width="640.52" height="38.6806"/>
    <text font-size="12.8" style="fill: #000000;text-anchor:middle;font-family:monospace;font-style:normal;font-weight:normal" x="496.79" y="492.708">
      <tspan x="496.79" y="492.708"></tspan>
    </text>
  </g>
  <g>
    <rect style="fill: #ffffff" x="176.53" y="509.284" width="640.928" height="66.2152"/>
    <rect style="fill: none; fill-opacity:0; stroke-width: 2; stroke: #000000" x="176.53" y="509.284" width="640.928" height="66.2152"/>
    <text font-size="12.8" style="fill: #000000;text-anchor:middle;font-family:monospace;font-style:normal;font-weight:normal" x="496.994" y="545.392">
      <tspan x="496.994" y="545.392">(最多可有24个另外的路由，与前20字节具有相同的格式)</tspan>
    </text>
  </g>
  <g>
    <rect style="fill: #ffffff" x="175.78" y="316.66" width="640.364" height="38.6806"/>
    <rect style="fill: none; fill-opacity:0; stroke-width: 2; stroke: #000000" x="175.78" y="316.66" width="640.364" height="38.6806"/>
    <text font-size="12.8" style="fill: #000000;text-anchor:middle;font-family:monospace;font-style:normal;font-weight:normal" x="495.962" y="338.65">
      <tspan x="495.962" y="338.65"></tspan>
    </text>
  </g>
  <g>
    <path style="fill: #ffffff" d="M 287.004 323.404 L 383.204,323.404 L 383.204,347.404 C 363.964,343.404 354.344,343.404 335.104,347.404 C 315.864,351.404 306.244,351.404 287.004,347.404 L 287.004,323.404z"/>
    <path style="fill: none; fill-opacity:0; stroke-width: 0.02; stroke: #000000" d="M 287.004 323.404 L 383.204,323.404 L 383.204,347.404 C 363.964,343.404 354.344,343.404 335.104,347.404 C 315.864,351.404 306.244,351.404 287.004,347.404 L 287.004,323.404"/>
    <text font-size="12.8" style="fill: #000000;text-anchor:middle;font-family:monospace;font-style:normal;font-weight:normal" x="335.104" y="336.604">
      <tspan x="335.104" y="336.604">地址系列(2)</tspan>
    </text>
  </g>
  <g>
    <rect style="fill: #ffffff" x="175.918" y="355.238" width="640.226" height="38.6806"/>
    <rect style="fill: none; fill-opacity:0; stroke-width: 2; stroke: #000000" x="175.918" y="355.238" width="640.226" height="38.6806"/>
    <text font-size="12.8" style="fill: #000000;text-anchor:middle;font-family:monospace;font-style:normal;font-weight:normal" x="496.031" y="377.228">
      <tspan x="496.031" y="377.228"></tspan>
    </text>
  </g>
  <g>
    <path style="fill: #ffffff" d="M 445.996 361.468 L 544.796,361.468 L 544.796,385.468 C 525.036,381.468 515.156,381.468 495.396,385.468 C 475.636,389.468 465.756,389.468 445.996,385.468 L 445.996,361.468z"/>
    <path style="fill: none; fill-opacity:0; stroke-width: 0.02; stroke: #000000" d="M 445.996 361.468 L 544.796,361.468 L 544.796,385.468 C 525.036,381.468 515.156,381.468 495.396,385.468 C 475.636,389.468 465.756,389.468 445.996,385.468 L 445.996,361.468"/>
    <text font-size="12.8" style="fill: #000000;text-anchor:middle;font-family:monospace;font-style:normal;font-weight:normal" x="495.396" y="374.668">
      <tspan x="495.396" y="374.668">32IP地址</tspan>
    </text>
  </g>
  <g>
    <rect style="fill: #ffffff" x="175.918" y="394.096" width="640.226" height="38"/>
    <rect style="fill: none; fill-opacity:0; stroke-width: 2; stroke: #000000" x="175.918" y="394.096" width="640.226" height="38"/>
    <text font-size="12.8" style="fill: #000000;text-anchor:middle;font-family:monospace;font-style:normal;font-weight:normal" x="496.031" y="415.746">
      <tspan x="496.031" y="415.746"></tspan>
    </text>
  </g>
  <g>
    <path style="fill: #ffffff" d="M 171.9 248.594 L 182.9,248.594 L 182.9,272.594 C 180.7,268.594 179.6,268.594 177.4,272.594 C 175.2,276.594 174.1,276.594 171.9,272.594 L 171.9,248.594z"/>
    <path style="fill: none; fill-opacity:0; stroke-width: 0.02; stroke: #000000" d="M 171.9 248.594 L 182.9,248.594 L 182.9,272.594 C 180.7,268.594 179.6,268.594 177.4,272.594 C 175.2,276.594 174.1,276.594 171.9,272.594 L 171.9,248.594"/>
    <text font-size="12.8" style="fill: #000000;text-anchor:middle;font-family:sans-serif;font-style:normal;font-weight:normal" x="177.4" y="263.394">
      <tspan x="177.4" y="263.394">0</tspan>
    </text>
  </g>
  <g>
    <path style="fill: #ffffff" d="M 477.05 247.354 L 495.05,247.354 L 495.05,271.354 C 491.45,267.354 489.65,267.354 486.05,271.354 C 482.45,275.354 480.65,275.354 477.05,271.354 L 477.05,247.354z"/>
    <path style="fill: none; fill-opacity:0; stroke-width: 0.02; stroke: #000000" d="M 477.05 247.354 L 495.05,247.354 L 495.05,271.354 C 491.45,267.354 489.65,267.354 486.05,271.354 C 482.45,275.354 480.65,275.354 477.05,271.354 L 477.05,247.354"/>
    <text font-size="12.8" style="fill: #000000;text-anchor:middle;font-family:sans-serif;font-style:normal;font-weight:normal" x="486.05" y="262.154">
      <tspan x="486.05" y="262.154">15</tspan>
    </text>
  </g>
  <g>
    <path style="fill: #ffffff" d="M 496.064 246.732 L 514.064,246.732 L 514.064,270.732 C 510.464,266.732 508.664,266.732 505.064,270.732 C 501.464,274.732 499.664,274.732 496.064,270.732 L 496.064,246.732z"/>
    <path style="fill: none; fill-opacity:0; stroke-width: 0.02; stroke: #000000" d="M 496.064 246.732 L 514.064,246.732 L 514.064,270.732 C 510.464,266.732 508.664,266.732 505.064,270.732 C 501.464,274.732 499.664,274.732 496.064,270.732 L 496.064,246.732"/>
    <text font-size="12.8" style="fill: #000000;text-anchor:middle;font-family:sans-serif;font-style:normal;font-weight:normal" x="505.064" y="261.532">
      <tspan x="505.064" y="261.532">16</tspan>
    </text>
  </g>
  <g>
    <path style="fill: #ffffff" d="M 797.704 247.17 L 815.704,247.17 L 815.704,271.17 C 812.104,267.17 810.304,267.17 806.704,271.17 C 803.104,275.17 801.304,275.17 797.704,271.17 L 797.704,247.17z"/>
    <path style="fill: none; fill-opacity:0; stroke-width: 0.02; stroke: #000000" d="M 797.704 247.17 L 815.704,247.17 L 815.704,271.17 C 812.104,267.17 810.304,267.17 806.704,271.17 C 803.104,275.17 801.304,275.17 797.704,271.17 L 797.704,247.17"/>
    <text font-size="12.8" style="fill: #000000;text-anchor:middle;font-family:sans-serif;font-style:normal;font-weight:normal" x="806.704" y="261.97">
      <tspan x="806.704" y="261.97">31</tspan>
    </text>
  </g>
  <line style="fill: none; fill-opacity:0; stroke-width: 1; stroke: #000000" x1="832.092" y1="507.646" x2="846.716" y2="507.646"/>
  <line style="fill: none; fill-opacity:0; stroke-width: 1; stroke: #000000" x1="831.816" y1="317.042" x2="846.438" y2="317.042"/>
  <g>
    <path style="fill: #ffffff" d="M 817.482 383.6 L 861.082,383.6 L 861.082,416.504 C 852.362,411.02 848.002,411.02 839.282,416.504 C 830.562,421.988 826.202,421.988 817.482,416.504 L 817.482,383.6z"/>
    <path style="fill: none; fill-opacity:0; stroke-width: 0.02; stroke: #000000" d="M 817.482 383.6 L 861.082,383.6 L 861.082,416.504 C 852.362,411.02 848.002,411.02 839.282,416.504 C 830.562,421.988 826.202,421.988 817.482,416.504 L 817.482,383.6"/>
    <text font-size="12.8" style="fill: #000000;text-anchor:middle;font-family:sans-serif;font-style:normal;font-weight:normal" x="839.282" y="402.11">
      <tspan x="839.282" y="402.11">20字节</tspan>
    </text>
  </g>
  <g>
    <line style="fill: none; fill-opacity:0; stroke-width: 1; stroke: #000000" x1="839.282" y1="383.6" x2="839.152" y2="327.542"/>
    <polygon style="fill: #000000" points="844.152,327.53 839.129,317.542 834.152,327.554 "/>
    <polygon style="fill: none; fill-opacity:0; stroke-width: 1; stroke: #000000" points="844.152,327.53 839.129,317.542 834.152,327.554 "/>
  </g>
  <g>
    <line style="fill: none; fill-opacity:0; stroke-width: 1; stroke: #000000" x1="839.298" y1="416.412" x2="839.392" y2="497.146"/>
    <polygon style="fill: #000000" points="834.392,497.152 839.403,507.146 844.392,497.14 "/>
    <polygon style="fill: none; fill-opacity:0; stroke-width: 1; stroke: #000000" points="834.392,497.152 839.403,507.146 844.392,497.14 "/>
  </g>
  <g>
    <path style="fill: #ffffff" d="M 227.318 211.29 L 410.618,211.29 L 410.618,235.29 C 373.958,231.29 355.628,231.29 318.968,235.29 C 282.308,239.29 263.978,239.29 227.318,235.29 L 227.318,211.29z"/>
    <path style="fill: none; fill-opacity:0; stroke-width: 0.02; stroke: #000000" d="M 227.318 211.29 L 410.618,211.29 L 410.618,235.29 C 373.958,231.29 355.628,231.29 318.968,235.29 C 282.308,239.29 263.978,239.29 227.318,235.29 L 227.318,211.29"/>
    <text font-size="12.8" style="fill: #000000;text-anchor:middle;font-family:monospace;font-style:normal;font-weight:700" x="318.968" y="223.69">
      <tspan x="318.968" y="223.69">RIP报文在IP数据报中的封装</tspan>
    </text>
  </g>
  <g>
    <rect style="fill: #ffffff" x="175.214" y="277.43" width="640.571" height="38.6806"/>
    <rect style="fill: none; fill-opacity:0; stroke-width: 2; stroke: #000000" x="175.214" y="277.43" width="640.571" height="38.6806"/>
    <text font-size="12.8" style="fill: #000000;text-anchor:middle;font-family:monospace;font-style:normal;font-weight:normal" x="495.499" y="299.42">
      <tspan x="495.499" y="299.42"></tspan>
    </text>
  </g>
  <g>
    <path style="fill: #ffffff" d="M 624.332 284.578 L 689.832,284.578 L 689.832,308.578 C 676.732,304.578 670.182,304.578 657.082,308.578 C 643.982,312.578 637.432,312.578 624.332,308.578 L 624.332,284.578z"/>
    <path style="fill: none; fill-opacity:0; stroke-width: 0.02; stroke: #000000" d="M 624.332 284.578 L 689.832,284.578 L 689.832,308.578 C 676.732,304.578 670.182,304.578 657.082,308.578 C 643.982,312.578 637.432,312.578 624.332,308.578 L 624.332,284.578"/>
    <text font-size="12.8" style="fill: #000000;text-anchor:middle;font-family:monospace;font-style:normal;font-weight:normal" x="657.082" y="297.778">
      <tspan x="657.082" y="297.778">(必须为0)</tspan>
    </text>
  </g>
  <line style="fill: none; fill-opacity:0; stroke-width: 2; stroke: #000000" x1="495.5" y1="277.43" x2="495.5" y2="316.112"/>
  <line style="fill: none; fill-opacity:0; stroke-width: 1; stroke: #000000" x1="179.907" y1="95.7838" x2="179.907" y2="108.226"/>
  <line style="fill: none; fill-opacity:0; stroke-width: 1; stroke: #000000" x1="478.638" y1="95.7576" x2="478.638" y2="108.2"/>
  <g>
    <line style="fill: none; fill-opacity:0; stroke-width: 1; stroke: #000000" x1="288.829" y1="102.032" x2="190.407" y2="102.008"/>
    <polygon style="fill: #000000" points="190.408,97.0076 180.407,102.005 190.406,107.008 "/>
    <polygon style="fill: none; fill-opacity:0; stroke-width: 1; stroke: #000000" points="190.408,97.0076 180.407,102.005 190.406,107.008 "/>
  </g>
  <g>
    <line style="fill: none; fill-opacity:0; stroke-width: 1; stroke: #000000" x1="354.47" y1="102.028" x2="468.138" y2="101.983"/>
    <polygon style="fill: #000000" points="468.14,106.983 478.138,101.979 468.136,96.9829 "/>
    <polygon style="fill: none; fill-opacity:0; stroke-width: 1; stroke: #000000" points="468.14,106.983 478.138,101.979 468.136,96.9829 "/>
  </g>
  <g>
    <path style="fill: #ffffff" d="M 343.93 108.835 L 409.579,108.835 L 409.579,132.835 C 396.45,128.835 389.885,128.835 376.755,132.835 C 363.625,136.835 357.06,136.835 343.93,132.835 L 343.93,108.835z"/>
    <path style="fill: none; fill-opacity:0; stroke-width: 0.02; stroke: #000000" d="M 343.93 108.835 L 409.579,108.835 L 409.579,132.835 C 396.45,128.835 389.885,128.835 376.755,132.835 C 363.625,136.835 357.06,136.835 343.93,132.835 L 343.93,108.835"/>
    <text font-size="12.8" style="fill: #000000;text-anchor:middle;font-family:monospace;font-style:normal;font-weight:normal" x="376.755" y="122.035">
      <tspan x="376.755" y="122.035">UDP数据报</tspan>
    </text>
  </g>
  <line style="fill: none; fill-opacity:0; stroke-width: 1; stroke: #000000" x1="279.868" y1="116.691" x2="279.868" y2="129.134"/>
  <line style="fill: none; fill-opacity:0; stroke-width: 1; stroke: #000000" x1="478.702" y1="116.696" x2="478.702" y2="129.138"/>
  <g>
    <line style="fill: none; fill-opacity:0; stroke-width: 1; stroke: #000000" x1="343.971" y1="122.861" x2="290.368" y2="122.904"/>
    <polygon style="fill: #000000" points="290.364,117.904 280.368,122.912 290.372,127.904 "/>
    <polygon style="fill: none; fill-opacity:0; stroke-width: 1; stroke: #000000" points="290.364,117.904 280.368,122.912 290.372,127.904 "/>
  </g>
  <g>
    <line style="fill: none; fill-opacity:0; stroke-width: 1; stroke: #000000" x1="409.572" y1="122.862" x2="468.202" y2="122.908"/>
    <polygon style="fill: #000000" points="468.198,127.908 478.202,122.916 468.206,117.908 "/>
    <polygon style="fill: none; fill-opacity:0; stroke-width: 1; stroke: #000000" points="468.198,127.908 478.202,122.916 468.206,117.908 "/>
  </g>
  <g>
    <path style="fill: #ffffff" d="M 216.246 183.932 L 234.246,183.932 L 234.246,207.932 C 230.646,203.932 228.846,203.932 225.246,207.932 C 221.646,211.932 219.846,211.932 216.246,207.932 L 216.246,183.932z"/>
    <path style="fill: none; fill-opacity:0; stroke-width: 0.02; stroke: #000000" d="M 216.246 183.932 L 234.246,183.932 L 234.246,207.932 C 230.646,203.932 228.846,203.932 225.246,207.932 C 221.646,211.932 219.846,211.932 216.246,207.932 L 216.246,183.932"/>
    <text font-size="12.8" style="fill: #000000;text-anchor:middle;font-family:sans-serif;font-style:normal;font-weight:normal" x="225.246" y="198.732">
      <tspan x="225.246" y="198.732">20</tspan>
    </text>
  </g>
  <g>
    <path style="fill: #ffffff" d="M 292.036 183.892 L 310.036,183.892 L 310.036,207.892 C 306.436,203.892 304.636,203.892 301.036,207.892 C 297.436,211.892 295.636,211.892 292.036,207.892 L 292.036,183.892z"/>
    <path style="fill: none; fill-opacity:0; stroke-width: 0.02; stroke: #000000" d="M 292.036 183.892 L 310.036,183.892 L 310.036,207.892 C 306.436,203.892 304.636,203.892 301.036,207.892 C 297.436,211.892 295.636,211.892 292.036,207.892 L 292.036,183.892"/>
    <text font-size="12.8" style="fill: #000000;text-anchor:middle;font-family:sans-serif;font-style:normal;font-weight:normal" x="301.036" y="198.692">
      <tspan x="301.036" y="198.692">8</tspan>
    </text>
  </g>
  <g>
    <rect style="fill: #ffffff" x="180.135" y="131.835" width="298.629" height="50.7836"/>
    <rect style="fill: none; fill-opacity:0; stroke-width: 2; stroke: #000000" x="180.135" y="131.835" width="298.629" height="50.7836"/>
    <text font-size="12.8" style="fill: #000000;text-anchor:middle;font-family:monospace;font-style:normal;font-weight:normal" x="329.449" y="159.877">
      <tspan x="329.449" y="159.877"></tspan>
    </text>
  </g>
  <g>
    <path style="fill: #ffffff" d="M 206.336 133.102 L 251.336,133.102 L 251.336,176.302 C 242.336,169.102 237.836,169.102 228.836,176.302 C 219.836,183.502 215.336,183.502 206.336,176.302 L 206.336,133.102z"/>
    <path style="fill: none; fill-opacity:0; stroke-width: 0.02; stroke: #000000" d="M 206.336 133.102 L 251.336,133.102 L 251.336,176.302 C 242.336,169.102 237.836,169.102 228.836,176.302 C 219.836,183.502 215.336,183.502 206.336,176.302 L 206.336,133.102"/>
    <text font-size="12.8" style="fill: #000000;text-anchor:middle;font-family:monospace;font-style:normal;font-weight:normal" x="228.836" y="146.302">
      <tspan x="228.836" y="146.302">IP</tspan>
      <tspan x="228.836" y="162.302">首部</tspan>
    </text>
  </g>
  <g>
    <path style="fill: #ffffff" d="M 367.558 133.202 L 427.958,133.202 L 427.958,176.402 C 415.878,169.202 409.838,169.202 397.758,176.402 C 385.678,183.602 379.638,183.602 367.558,176.402 L 367.558,133.202z"/>
    <path style="fill: none; fill-opacity:0; stroke-width: 0.02; stroke: #000000" d="M 367.558 133.202 L 427.958,133.202 L 427.958,176.402 C 415.878,169.202 409.838,169.202 397.758,176.402 C 385.678,183.602 379.638,183.602 367.558,176.402 L 367.558,133.202"/>
    <text font-size="12.8" style="fill: #000000;text-anchor:middle;font-family:monospace;font-style:normal;font-weight:normal" x="397.758" y="146.402">
      <tspan x="397.758" y="146.402">RIP</tspan>
      <tspan x="397.758" y="162.402">报文</tspan>
    </text>
  </g>
  <g>
    <path style="fill: #ffffff" d="M 283.036 132.995 L 317.836,132.995 L 317.836,176.195 C 310.876,168.995 307.396,168.995 300.436,176.195 C 293.476,183.395 289.996,183.395 283.036,176.195 L 283.036,132.995z"/>
    <path style="fill: none; fill-opacity:0; stroke-width: 0.02; stroke: #000000" d="M 283.036 132.995 L 317.836,132.995 L 317.836,176.195 C 310.876,168.995 307.396,168.995 300.436,176.195 C 293.476,183.395 289.996,183.395 283.036,176.195 L 283.036,132.995"/>
    <text font-size="12.8" style="fill: #000000;text-anchor:middle;font-family:monospace;font-style:normal;font-weight:normal" x="300.436" y="146.195">
      <tspan x="300.436" y="146.195">UDP</tspan>
      <tspan x="300.436" y="162.195">首部</tspan>
    </text>
  </g>
  <line style="fill: none; fill-opacity:0; stroke-width: 2; stroke: #000000" x1="279.904" y1="183.371" x2="279.874" y2="132.207"/>
  <line style="fill: none; fill-opacity:0; stroke-width: 2; stroke: #000000" x1="320.03" y1="182.87" x2="320.002" y2="131.705"/>
  <line style="fill: none; fill-opacity:0; stroke-width: 2; stroke: #000000" x1="334.038" y1="277.43" x2="334.038" y2="316.112"/>
  <g>
    <path style="fill: #ffffff" d="M 316.3 245.942 L 334.3,245.942 L 334.3,269.942 C 330.7,265.942 328.9,265.942 325.3,269.942 C 321.7,273.942 319.9,273.942 316.3,269.942 L 316.3,245.942z"/>
    <path style="fill: none; fill-opacity:0; stroke-width: 0.02; stroke: #000000" d="M 316.3 245.942 L 334.3,245.942 L 334.3,269.942 C 330.7,265.942 328.9,265.942 325.3,269.942 C 321.7,273.942 319.9,273.942 316.3,269.942 L 316.3,245.942"/>
    <text font-size="12.8" style="fill: #000000;text-anchor:middle;font-family:sans-serif;font-style:normal;font-weight:normal" x="325.3" y="260.742">
      <tspan x="325.3" y="260.742">7</tspan>
    </text>
  </g>
  <g>
    <path style="fill: #ffffff" d="M 335.314 245.32 L 353.314,245.32 L 353.314,269.32 C 349.714,265.32 347.914,265.32 344.314,269.32 C 340.714,273.32 338.914,273.32 335.314,269.32 L 335.314,245.32z"/>
    <path style="fill: none; fill-opacity:0; stroke-width: 0.02; stroke: #000000" d="M 335.314 245.32 L 353.314,245.32 L 353.314,269.32 C 349.714,265.32 347.914,265.32 344.314,269.32 C 340.714,273.32 338.914,273.32 335.314,269.32 L 335.314,245.32"/>
    <text font-size="12.8" style="fill: #000000;text-anchor:middle;font-family:sans-serif;font-style:normal;font-weight:normal" x="344.314" y="260.12">
      <tspan x="344.314" y="260.12">8</tspan>
    </text>
  </g>
  <g>
    <path style="fill: #ffffff" d="M 218.712 282.246 L 286.812,282.246 L 286.812,306.246 C 273.192,302.246 266.382,302.246 252.762,306.246 C 239.142,310.246 232.332,310.246 218.712,306.246 L 218.712,282.246z"/>
    <path style="fill: none; fill-opacity:0; stroke-width: 0.02; stroke: #000000" d="M 218.712 282.246 L 286.812,282.246 L 286.812,306.246 C 273.192,302.246 266.382,302.246 252.762,306.246 C 239.142,310.246 232.332,310.246 218.712,306.246 L 218.712,282.246"/>
    <text font-size="12.8" style="fill: #000000;text-anchor:middle;font-family:monospace;font-style:normal;font-weight:normal" x="252.762" y="295.446">
      <tspan x="252.762" y="295.446">命令(1-6)</tspan>
    </text>
  </g>
  <g>
    <path style="fill: #ffffff" d="M 375.646 282.906 L 443.746,282.906 L 443.746,306.906 C 430.126,302.906 423.316,302.906 409.696,306.906 C 396.076,310.906 389.266,310.906 375.646,306.906 L 375.646,282.906z"/>
    <path style="fill: none; fill-opacity:0; stroke-width: 0.02; stroke: #000000" d="M 375.646 282.906 L 443.746,282.906 L 443.746,306.906 C 430.126,302.906 423.316,302.906 409.696,306.906 C 396.076,310.906 389.266,310.906 375.646,306.906 L 375.646,282.906"/>
    <text font-size="12.8" style="fill: #000000;text-anchor:middle;font-family:monospace;font-style:normal;font-weight:normal" x="409.696" y="296.106">
      <tspan x="409.696" y="296.106">版本(1)</tspan>
    </text>
  </g>
  <line style="fill: none; fill-opacity:0; stroke-width: 2; stroke: #000000" x1="495.994" y1="315.556" x2="495.994" y2="354.238"/>
  <g>
    <path style="fill: #ffffff" d="M 622.916 323.128 L 688.416,323.128 L 688.416,347.128 C 675.316,343.128 668.766,343.128 655.666,347.128 C 642.566,351.128 636.016,351.128 622.916,347.128 L 622.916,323.128z"/>
    <path style="fill: none; fill-opacity:0; stroke-width: 0.02; stroke: #000000" d="M 622.916 323.128 L 688.416,323.128 L 688.416,347.128 C 675.316,343.128 668.766,343.128 655.666,347.128 C 642.566,351.128 636.016,351.128 622.916,347.128 L 622.916,323.128"/>
    <text font-size="12.8" style="fill: #000000;text-anchor:middle;font-family:monospace;font-style:normal;font-weight:normal" x="655.666" y="336.328">
      <tspan x="655.666" y="336.328">(必须为0)</tspan>
    </text>
  </g>
  <g>
    <path style="fill: #ffffff" d="M 462.026 399.618 L 527.526,399.618 L 527.526,423.618 C 514.426,419.618 507.876,419.618 494.776,423.618 C 481.676,427.618 475.126,427.618 462.026,423.618 L 462.026,399.618z"/>
    <path style="fill: none; fill-opacity:0; stroke-width: 0.02; stroke: #000000" d="M 462.026 399.618 L 527.526,399.618 L 527.526,423.618 C 514.426,419.618 507.876,419.618 494.776,423.618 C 481.676,427.618 475.126,427.618 462.026,423.618 L 462.026,399.618"/>
    <text font-size="12.8" style="fill: #000000;text-anchor:middle;font-family:monospace;font-style:normal;font-weight:normal" x="494.776" y="412.818">
      <tspan x="494.776" y="412.818">(必须为0)</tspan>
    </text>
  </g>
  <g>
    <path style="fill: #ffffff" d="M 462.684 437.862 L 528.184,437.862 L 528.184,461.862 C 515.084,457.862 508.534,457.862 495.434,461.862 C 482.334,465.862 475.784,465.862 462.684,461.862 L 462.684,437.862z"/>
    <path style="fill: none; fill-opacity:0; stroke-width: 0.02; stroke: #000000" d="M 462.684 437.862 L 528.184,437.862 L 528.184,461.862 C 515.084,457.862 508.534,457.862 495.434,461.862 C 482.334,465.862 475.784,465.862 462.684,461.862 L 462.684,437.862"/>
    <text font-size="12.8" style="fill: #000000;text-anchor:middle;font-family:monospace;font-style:normal;font-weight:normal" x="495.434" y="451.062">
      <tspan x="495.434" y="451.062">(必须为0)</tspan>
    </text>
  </g>
  <g>
    <path style="fill: #ffffff" d="M 458.194 478.084 L 533.994,478.084 L 533.994,502.084 C 518.834,498.084 511.254,498.084 496.094,502.084 C 480.934,506.084 473.354,506.084 458.194,502.084 L 458.194,478.084z"/>
    <path style="fill: none; fill-opacity:0; stroke-width: 0.02; stroke: #000000" d="M 458.194 478.084 L 533.994,478.084 L 533.994,502.084 C 518.834,498.084 511.254,498.084 496.094,502.084 C 480.934,506.084 473.354,506.084 458.194,502.084 L 458.194,478.084"/>
    <text font-size="12.8" style="fill: #000000;text-anchor:middle;font-family:monospace;font-style:normal;font-weight:normal" x="496.094" y="491.284">
      <tspan x="496.094" y="491.284">度量(1-16)</tspan>
    </text>
  </g>
  <g>
    <path style="fill: #ffffff" d="M 455.062 943.652 L 546.162,943.652 L 546.162,967.652 C 527.942,963.652 518.832,963.652 500.612,967.652 C 482.392,971.652 473.282,971.652 455.062,967.652 L 455.062,943.652z"/>
    <path style="fill: none; fill-opacity:0; stroke-width: 0.02; stroke: #000000" d="M 455.062 943.652 L 546.162,943.652 L 546.162,967.652 C 527.942,963.652 518.832,963.652 500.612,967.652 C 482.392,971.652 473.282,971.652 455.062,967.652 L 455.062,943.652"/>
    <text font-size="12.8" style="fill: #000000;text-anchor:middle;font-family:monospace;font-style:normal;font-weight:700" x="500.612" y="956.052">
      <tspan x="500.612" y="956.052">RIP(v2)报文</tspan>
    </text>
  </g>
  <g>
    <rect style="fill: #ffffff" x="178.93" y="796.782" width="640.277" height="38.6806"/>
    <rect style="fill: none; fill-opacity:0; stroke-width: 2; stroke: #000000" x="178.93" y="796.782" width="640.277" height="38.6806"/>
    <text font-size="12.8" style="fill: #000000;text-anchor:middle;font-family:monospace;font-style:normal;font-weight:normal" x="499.069" y="818.772">
      <tspan x="499.069" y="818.772"></tspan>
    </text>
  </g>
  <g>
    <rect style="fill: #ffffff" x="179.162" y="835.36" width="640.52" height="38.6806"/>
    <rect style="fill: none; fill-opacity:0; stroke-width: 2; stroke: #000000" x="179.162" y="835.36" width="640.52" height="38.6806"/>
    <text font-size="12.8" style="fill: #000000;text-anchor:middle;font-family:monospace;font-style:normal;font-weight:normal" x="499.422" y="857.35">
      <tspan x="499.422" y="857.35"></tspan>
    </text>
  </g>
  <g>
    <rect style="fill: #ffffff" x="179.162" y="873.926" width="640.928" height="66.2152"/>
    <rect style="fill: none; fill-opacity:0; stroke-width: 2; stroke: #000000" x="179.162" y="873.926" width="640.928" height="66.2152"/>
    <text font-size="12.8" style="fill: #000000;text-anchor:middle;font-family:monospace;font-style:normal;font-weight:normal" x="499.626" y="910.034">
      <tspan x="499.626" y="910.034">(最多可有24个另外的路由，与前20字节具有相同的格式)</tspan>
    </text>
  </g>
  <g>
    <rect style="fill: #ffffff" x="178.412" y="681.302" width="640.364" height="38.6806"/>
    <rect style="fill: none; fill-opacity:0; stroke-width: 2; stroke: #000000" x="178.412" y="681.302" width="640.364" height="38.6806"/>
    <text font-size="12.8" style="fill: #000000;text-anchor:middle;font-family:monospace;font-style:normal;font-weight:normal" x="498.594" y="703.292">
      <tspan x="498.594" y="703.292"></tspan>
    </text>
  </g>
  <g>
    <path style="fill: #ffffff" d="M 289.636 688.046 L 385.836,688.046 L 385.836,712.046 C 366.596,708.046 356.976,708.046 337.736,712.046 C 318.496,716.046 308.876,716.046 289.636,712.046 L 289.636,688.046z"/>
    <path style="fill: none; fill-opacity:0; stroke-width: 0.02; stroke: #000000" d="M 289.636 688.046 L 385.836,688.046 L 385.836,712.046 C 366.596,708.046 356.976,708.046 337.736,712.046 C 318.496,716.046 308.876,716.046 289.636,712.046 L 289.636,688.046"/>
    <text font-size="12.8" style="fill: #000000;text-anchor:middle;font-family:monospace;font-style:normal;font-weight:normal" x="337.736" y="701.246">
      <tspan x="337.736" y="701.246">地址类(2)</tspan>
    </text>
  </g>
  <g>
    <rect style="fill: #ffffff" x="178.55" y="719.88" width="640.226" height="38.6806"/>
    <rect style="fill: none; fill-opacity:0; stroke-width: 2; stroke: #000000" x="178.55" y="719.88" width="640.226" height="38.6806"/>
    <text font-size="12.8" style="fill: #000000;text-anchor:middle;font-family:monospace;font-style:normal;font-weight:normal" x="498.663" y="741.87">
      <tspan x="498.663" y="741.87"></tspan>
    </text>
  </g>
  <g>
    <path style="fill: #ffffff" d="M 448.628 726.11 L 547.428,726.11 L 547.428,750.11 C 527.668,746.11 517.788,746.11 498.028,750.11 C 478.268,754.11 468.388,754.11 448.628,750.11 L 448.628,726.11z"/>
    <path style="fill: none; fill-opacity:0; stroke-width: 0.02; stroke: #000000" d="M 448.628 726.11 L 547.428,726.11 L 547.428,750.11 C 527.668,746.11 517.788,746.11 498.028,750.11 C 478.268,754.11 468.388,754.11 448.628,750.11 L 448.628,726.11"/>
    <text font-size="12.8" style="fill: #000000;text-anchor:middle;font-family:monospace;font-style:normal;font-weight:normal" x="498.028" y="739.31">
      <tspan x="498.028" y="739.31">32IP地址</tspan>
    </text>
  </g>
  <g>
    <rect style="fill: #ffffff" x="178.55" y="758.738" width="640.226" height="38"/>
    <rect style="fill: none; fill-opacity:0; stroke-width: 2; stroke: #000000" x="178.55" y="758.738" width="640.226" height="38"/>
    <text font-size="12.8" style="fill: #000000;text-anchor:middle;font-family:monospace;font-style:normal;font-weight:normal" x="498.663" y="780.388">
      <tspan x="498.663" y="780.388"></tspan>
    </text>
  </g>
  <g>
    <path style="fill: #ffffff" d="M 174.532 613.236 L 185.532,613.236 L 185.532,637.236 C 183.332,633.236 182.232,633.236 180.032,637.236 C 177.832,641.236 176.732,641.236 174.532,637.236 L 174.532,613.236z"/>
    <path style="fill: none; fill-opacity:0; stroke-width: 0.02; stroke: #000000" d="M 174.532 613.236 L 185.532,613.236 L 185.532,637.236 C 183.332,633.236 182.232,633.236 180.032,637.236 C 177.832,641.236 176.732,641.236 174.532,637.236 L 174.532,613.236"/>
    <text font-size="12.8" style="fill: #000000;text-anchor:middle;font-family:sans-serif;font-style:normal;font-weight:normal" x="180.032" y="628.036">
      <tspan x="180.032" y="628.036">0</tspan>
    </text>
  </g>
  <g>
    <path style="fill: #ffffff" d="M 479.682 611.996 L 497.682,611.996 L 497.682,635.996 C 494.082,631.996 492.282,631.996 488.682,635.996 C 485.082,639.996 483.282,639.996 479.682,635.996 L 479.682,611.996z"/>
    <path style="fill: none; fill-opacity:0; stroke-width: 0.02; stroke: #000000" d="M 479.682 611.996 L 497.682,611.996 L 497.682,635.996 C 494.082,631.996 492.282,631.996 488.682,635.996 C 485.082,639.996 483.282,639.996 479.682,635.996 L 479.682,611.996"/>
    <text font-size="12.8" style="fill: #000000;text-anchor:middle;font-family:sans-serif;font-style:normal;font-weight:normal" x="488.682" y="626.796">
      <tspan x="488.682" y="626.796">15</tspan>
    </text>
  </g>
  <g>
    <path style="fill: #ffffff" d="M 498.696 611.374 L 516.696,611.374 L 516.696,635.374 C 513.096,631.374 511.296,631.374 507.696,635.374 C 504.096,639.374 502.296,639.374 498.696,635.374 L 498.696,611.374z"/>
    <path style="fill: none; fill-opacity:0; stroke-width: 0.02; stroke: #000000" d="M 498.696 611.374 L 516.696,611.374 L 516.696,635.374 C 513.096,631.374 511.296,631.374 507.696,635.374 C 504.096,639.374 502.296,639.374 498.696,635.374 L 498.696,611.374"/>
    <text font-size="12.8" style="fill: #000000;text-anchor:middle;font-family:sans-serif;font-style:normal;font-weight:normal" x="507.696" y="626.174">
      <tspan x="507.696" y="626.174">16</tspan>
    </text>
  </g>
  <g>
    <path style="fill: #ffffff" d="M 800.336 611.812 L 818.336,611.812 L 818.336,635.812 C 814.736,631.812 812.936,631.812 809.336,635.812 C 805.736,639.812 803.936,639.812 800.336,635.812 L 800.336,611.812z"/>
    <path style="fill: none; fill-opacity:0; stroke-width: 0.02; stroke: #000000" d="M 800.336 611.812 L 818.336,611.812 L 818.336,635.812 C 814.736,631.812 812.936,631.812 809.336,635.812 C 805.736,639.812 803.936,639.812 800.336,635.812 L 800.336,611.812"/>
    <text font-size="12.8" style="fill: #000000;text-anchor:middle;font-family:sans-serif;font-style:normal;font-weight:normal" x="809.336" y="626.612">
      <tspan x="809.336" y="626.612">31</tspan>
    </text>
  </g>
  <line style="fill: none; fill-opacity:0; stroke-width: 1; stroke: #000000" x1="834.724" y1="872.288" x2="849.348" y2="872.288"/>
  <line style="fill: none; fill-opacity:0; stroke-width: 1; stroke: #000000" x1="834.448" y1="681.684" x2="849.07" y2="681.684"/>
  <g>
    <path style="fill: #ffffff" d="M 820.114 748.242 L 863.714,748.242 L 863.714,781.146 C 854.994,775.662 850.634,775.662 841.914,781.146 C 833.194,786.63 828.834,786.63 820.114,781.146 L 820.114,748.242z"/>
    <path style="fill: none; fill-opacity:0; stroke-width: 0.02; stroke: #000000" d="M 820.114 748.242 L 863.714,748.242 L 863.714,781.146 C 854.994,775.662 850.634,775.662 841.914,781.146 C 833.194,786.63 828.834,786.63 820.114,781.146 L 820.114,748.242"/>
    <text font-size="12.8" style="fill: #000000;text-anchor:middle;font-family:sans-serif;font-style:normal;font-weight:normal" x="841.914" y="766.752">
      <tspan x="841.914" y="766.752">20字节</tspan>
    </text>
  </g>
  <g>
    <line style="fill: none; fill-opacity:0; stroke-width: 1; stroke: #000000" x1="841.914" y1="748.242" x2="841.784" y2="692.184"/>
    <polygon style="fill: #000000" points="846.784,692.172 841.761,682.184 836.784,692.196 "/>
    <polygon style="fill: none; fill-opacity:0; stroke-width: 1; stroke: #000000" points="846.784,692.172 841.761,682.184 836.784,692.196 "/>
  </g>
  <g>
    <line style="fill: none; fill-opacity:0; stroke-width: 1; stroke: #000000" x1="841.93" y1="781.054" x2="842.024" y2="861.788"/>
    <polygon style="fill: #000000" points="837.024,861.794 842.035,871.788 847.024,861.782 "/>
    <polygon style="fill: none; fill-opacity:0; stroke-width: 1; stroke: #000000" points="837.024,861.794 842.035,871.788 847.024,861.782 "/>
  </g>
  <g>
    <rect style="fill: #ffffff" x="177.846" y="642.072" width="640.571" height="38.6806"/>
    <rect style="fill: none; fill-opacity:0; stroke-width: 2; stroke: #000000" x="177.846" y="642.072" width="640.571" height="38.6806"/>
    <text font-size="12.8" style="fill: #000000;text-anchor:middle;font-family:monospace;font-style:normal;font-weight:normal" x="498.131" y="664.062">
      <tspan x="498.131" y="664.062"></tspan>
    </text>
  </g>
  <g>
    <path style="fill: #ffffff" d="M 626.964 649.22 L 692.464,649.22 L 692.464,673.22 C 679.364,669.22 672.814,669.22 659.714,673.22 C 646.614,677.22 640.064,677.22 626.964,673.22 L 626.964,649.22z"/>
    <path style="fill: none; fill-opacity:0; stroke-width: 0.02; stroke: #000000" d="M 626.964 649.22 L 692.464,649.22 L 692.464,673.22 C 679.364,669.22 672.814,669.22 659.714,673.22 C 646.614,677.22 640.064,677.22 626.964,673.22 L 626.964,649.22"/>
    <text font-size="12.8" style="fill: #000000;text-anchor:middle;font-family:monospace;font-style:normal;font-weight:normal" x="659.714" y="662.42">
      <tspan x="659.714" y="662.42">路由域</tspan>
    </text>
  </g>
  <line style="fill: none; fill-opacity:0; stroke-width: 2; stroke: #000000" x1="498.132" y1="642.072" x2="498.132" y2="680.754"/>
  <line style="fill: none; fill-opacity:0; stroke-width: 2; stroke: #000000" x1="337.988" y1="642.072" x2="337.988" y2="680.754"/>
  <g>
    <path style="fill: #ffffff" d="M 318.932 610.584 L 336.932,610.584 L 336.932,634.584 C 333.332,630.584 331.532,630.584 327.932,634.584 C 324.332,638.584 322.532,638.584 318.932,634.584 L 318.932,610.584z"/>
    <path style="fill: none; fill-opacity:0; stroke-width: 0.02; stroke: #000000" d="M 318.932 610.584 L 336.932,610.584 L 336.932,634.584 C 333.332,630.584 331.532,630.584 327.932,634.584 C 324.332,638.584 322.532,638.584 318.932,634.584 L 318.932,610.584"/>
    <text font-size="12.8" style="fill: #000000;text-anchor:middle;font-family:sans-serif;font-style:normal;font-weight:normal" x="327.932" y="625.384">
      <tspan x="327.932" y="625.384">7</tspan>
    </text>
  </g>
  <g>
    <path style="fill: #ffffff" d="M 337.946 609.962 L 355.946,609.962 L 355.946,633.962 C 352.346,629.962 350.546,629.962 346.946,633.962 C 343.346,637.962 341.546,637.962 337.946,633.962 L 337.946,609.962z"/>
    <path style="fill: none; fill-opacity:0; stroke-width: 0.02; stroke: #000000" d="M 337.946 609.962 L 355.946,609.962 L 355.946,633.962 C 352.346,629.962 350.546,629.962 346.946,633.962 C 343.346,637.962 341.546,637.962 337.946,633.962 L 337.946,609.962"/>
    <text font-size="12.8" style="fill: #000000;text-anchor:middle;font-family:sans-serif;font-style:normal;font-weight:normal" x="346.946" y="624.762">
      <tspan x="346.946" y="624.762">8</tspan>
    </text>
  </g>
  <g>
    <path style="fill: #ffffff" d="M 221.344 646.888 L 289.444,646.888 L 289.444,670.888 C 275.824,666.888 269.014,666.888 255.394,670.888 C 241.774,674.888 234.964,674.888 221.344,670.888 L 221.344,646.888z"/>
    <path style="fill: none; fill-opacity:0; stroke-width: 0.02; stroke: #000000" d="M 221.344 646.888 L 289.444,646.888 L 289.444,670.888 C 275.824,666.888 269.014,666.888 255.394,670.888 C 241.774,674.888 234.964,674.888 221.344,670.888 L 221.344,646.888"/>
    <text font-size="12.8" style="fill: #000000;text-anchor:middle;font-family:monospace;font-style:normal;font-weight:normal" x="255.394" y="660.088">
      <tspan x="255.394" y="660.088">命令(1-6)</tspan>
    </text>
  </g>
  <g>
    <path style="fill: #ffffff" d="M 378.278 647.548 L 446.378,647.548 L 446.378,671.548 C 432.758,667.548 425.948,667.548 412.328,671.548 C 398.708,675.548 391.898,675.548 378.278,671.548 L 378.278,647.548z"/>
    <path style="fill: none; fill-opacity:0; stroke-width: 0.02; stroke: #000000" d="M 378.278 647.548 L 446.378,647.548 L 446.378,671.548 C 432.758,667.548 425.948,667.548 412.328,671.548 C 398.708,675.548 391.898,675.548 378.278,671.548 L 378.278,647.548"/>
    <text font-size="12.8" style="fill: #000000;text-anchor:middle;font-family:monospace;font-style:normal;font-weight:normal" x="412.328" y="660.748">
      <tspan x="412.328" y="660.748">版本(2)</tspan>
    </text>
  </g>
  <line style="fill: none; fill-opacity:0; stroke-width: 2; stroke: #000000" x1="498.132" y1="680.754" x2="498.664" y2="719.88"/>
  <g>
    <path style="fill: #ffffff" d="M 625.548 687.77 L 691.048,687.77 L 691.048,711.77 C 677.948,707.77 671.398,707.77 658.298,711.77 C 645.198,715.77 638.648,715.77 625.548,711.77 L 625.548,687.77z"/>
    <path style="fill: none; fill-opacity:0; stroke-width: 0.02; stroke: #000000" d="M 625.548 687.77 L 691.048,687.77 L 691.048,711.77 C 677.948,707.77 671.398,707.77 658.298,711.77 C 645.198,715.77 638.648,715.77 625.548,711.77 L 625.548,687.77"/>
    <text font-size="12.8" style="fill: #000000;text-anchor:middle;font-family:monospace;font-style:normal;font-weight:normal" x="658.298" y="700.97">
      <tspan x="658.298" y="700.97">路由标记</tspan>
    </text>
  </g>
  <g>
    <path style="fill: #ffffff" d="M 455.708 764.26 L 539.108,764.26 L 539.108,788.26 C 522.428,784.26 514.088,784.26 497.408,788.26 C 480.728,792.26 472.388,792.26 455.708,788.26 L 455.708,764.26z"/>
    <path style="fill: none; fill-opacity:0; stroke-width: 0.02; stroke: #000000" d="M 455.708 764.26 L 539.108,764.26 L 539.108,788.26 C 522.428,784.26 514.088,784.26 497.408,788.26 C 480.728,792.26 472.388,792.26 455.708,788.26 L 455.708,764.26"/>
    <text font-size="12.8" style="fill: #000000;text-anchor:middle;font-family:monospace;font-style:normal;font-weight:normal" x="497.408" y="777.46">
      <tspan x="497.408" y="777.46">32位子网掩码</tspan>
    </text>
  </g>
  <g>
    <path style="fill: #ffffff" d="M 442.266 802.504 L 553.866,802.504 L 553.866,826.504 C 531.546,822.504 520.386,822.504 498.066,826.504 C 475.746,830.504 464.586,830.504 442.266,826.504 L 442.266,802.504z"/>
    <path style="fill: none; fill-opacity:0; stroke-width: 0.02; stroke: #000000" d="M 442.266 802.504 L 553.866,802.504 L 553.866,826.504 C 531.546,822.504 520.386,822.504 498.066,826.504 C 475.746,830.504 464.586,830.504 442.266,826.504 L 442.266,802.504"/>
    <text font-size="12.8" style="fill: #000000;text-anchor:middle;font-family:monospace;font-style:normal;font-weight:normal" x="498.066" y="815.704">
      <tspan x="498.066" y="815.704">32位下一站IP地址</tspan>
    </text>
  </g>
  <g>
    <path style="fill: #ffffff" d="M 460.826 842.726 L 536.626,842.726 L 536.626,866.726 C 521.466,862.726 513.886,862.726 498.726,866.726 C 483.566,870.726 475.986,870.726 460.826,866.726 L 460.826,842.726z"/>
    <path style="fill: none; fill-opacity:0; stroke-width: 0.02; stroke: #000000" d="M 460.826 842.726 L 536.626,842.726 L 536.626,866.726 C 521.466,862.726 513.886,862.726 498.726,866.726 C 483.566,870.726 475.986,870.726 460.826,866.726 L 460.826,842.726"/>
    <text font-size="12.8" style="fill: #000000;text-anchor:middle;font-family:monospace;font-style:normal;font-weight:normal" x="498.726" y="855.926">
      <tspan x="498.726" y="855.926">度量(1-16)</tspan>
    </text>
  </g>
</svg>
