<?xml version="1.0" encoding="UTF-8" standalone="no"?>
<!DOCTYPE svg PUBLIC "-//W3C//DTD SVG 1.0//EN" "http://www.w3.org/TR/2001/PR-SVG-20010719/DTD/svg10.dtd">
<svg width="31cm" height="11cm" viewBox="171 338 618 215" xmlns="http://www.w3.org/2000/svg" xmlns:xlink="http://www.w3.org/1999/xlink">
  <line style="fill: none; fill-opacity:0; stroke-width: 1; stroke: #000000" x1="200.948" y1="339" x2="200.926" y2="368.004"/>
  <g>
    <rect style="fill: #ffffff" x="200.848" y="374" width="498" height="38"/>
    <rect style="fill: none; fill-opacity:0; stroke-width: 2; stroke: #000000" x="200.848" y="374" width="498" height="38"/>
    <text font-size="12.8" style="fill: #000000;text-anchor:middle;font-family:sans-serif;font-style:normal;font-weight:normal" x="449.848" y="397.8">
      <tspan x="449.848" y="397.8"></tspan>
    </text>
  </g>
  <g>
    <path style="fill: #ffffff" d="M 400 340 L 497.125,340 L 497.125,364 C 477.7,360 467.987,360 448.562,364 C 429.137,368 419.425,368 400,364 L 400,340z"/>
    <path style="fill: none; fill-opacity:0; stroke-width: 0.02; stroke: #000000" d="M 400 340 L 497.125,340 L 497.125,364 C 477.7,360 467.987,360 448.562,364 C 429.137,368 419.425,368 400,364 L 400,340"/>
    <text font-size="12.8" style="fill: #000000;text-anchor:middle;font-family:sans-serif;font-style:normal;font-weight:normal" x="448.562" y="354.8">
      <tspan x="448.562" y="354.8">IP 数据报</tspan>
    </text>
  </g>
  <g>
    <line style="fill: none; fill-opacity:0; stroke-width: 1; stroke: #000000" x1="400.001" y1="353.902" x2="211.436" y2="353.523"/>
    <polygon style="fill: #000000" points="211.446,348.523 201.436,353.503 211.426,358.523 "/>
    <polygon style="fill: none; fill-opacity:0; stroke-width: 1; stroke: #000000" points="211.446,348.523 201.436,353.503 211.426,358.523 "/>
  </g>
  <line style="fill: none; fill-opacity:0; stroke-width: 1; stroke: #000000" x1="699.426" y1="339.1" x2="699.402" y2="368.104"/>
  <g>
    <line style="fill: none; fill-opacity:0; stroke-width: 1; stroke: #000000" x1="497.098" y1="353.923" x2="688.914" y2="353.619"/>
    <polygon style="fill: #000000" points="688.922,358.619 698.914,353.603 688.906,348.619 "/>
    <polygon style="fill: none; fill-opacity:0; stroke-width: 1; stroke: #000000" points="688.922,358.619 698.914,353.603 688.906,348.619 "/>
  </g>
  <g>
    <path style="fill: #ffffff" d="M 261 379.402 L 279.7,379.402 L 279.7,403.402 C 275.96,399.402 274.09,399.402 270.35,403.402 C 266.61,407.402 264.74,407.402 261,403.402 L 261,379.402z"/>
    <path style="fill: none; fill-opacity:0; stroke-width: 0.02; stroke: #000000" d="M 261 379.402 L 279.7,379.402 L 279.7,403.402 C 275.96,399.402 274.09,399.402 270.35,403.402 C 266.61,407.402 264.74,407.402 261,403.402 L 261,379.402"/>
    <text font-size="12.8" style="fill: #000000;text-anchor:middle;font-family:sans-serif;font-style:normal;font-weight:normal" x="270.35" y="394.202">
      <tspan x="270.35" y="394.202">C0</tspan>
    </text>
  </g>
  <line style="fill: none; fill-opacity:0; stroke-width: 2; stroke: #000000" x1="259.87" y1="374.666" x2="259.724" y2="411.226"/>
  <line style="fill: none; fill-opacity:0; stroke-width: 2; stroke: #000000" x1="288.392" y1="374.666" x2="288.246" y2="411.226"/>
  <g>
    <path style="fill: #ffffff" d="M 540.714 379.402 L 560.964,379.402 L 560.964,403.402 C 556.914,399.402 554.889,399.402 550.839,403.402 C 546.789,407.402 544.764,407.402 540.714,403.402 L 540.714,379.402z"/>
    <path style="fill: none; fill-opacity:0; stroke-width: 0.02; stroke: #000000" d="M 540.714 379.402 L 560.964,379.402 L 560.964,403.402 C 556.914,399.402 554.889,399.402 550.839,403.402 C 546.789,407.402 544.764,407.402 540.714,403.402 L 540.714,379.402"/>
    <text font-size="12.8" style="fill: #000000;text-anchor:middle;font-family:sans-serif;font-style:normal;font-weight:normal" x="550.839" y="394.202">
      <tspan x="550.839" y="394.202">DB</tspan>
    </text>
  </g>
  <line style="fill: none; fill-opacity:0; stroke-width: 2; stroke: #000000" x1="540.358" y1="374.666" x2="540.212" y2="411.226"/>
  <line style="fill: none; fill-opacity:0; stroke-width: 2; stroke: #000000" x1="561.394" y1="374.666" x2="561.248" y2="411.226"/>
  <line style="fill: none; fill-opacity:0; stroke-width: 1; stroke-dasharray: 4; stroke: #000000" x1="200.848" y1="413.96" x2="200.278" y2="482.46"/>
  <line style="fill: none; fill-opacity:0; stroke-width: 1; stroke-dasharray: 4; stroke: #000000" x1="698.848" y1="412" x2="758.25" y2="483.634"/>
  <line style="fill: none; fill-opacity:0; stroke-width: 1; stroke-dasharray: 4; stroke: #000000" x1="260.846" y1="414.78" x2="260.276" y2="483.28"/>
  <line style="fill: none; fill-opacity:0; stroke-width: 1; stroke-dasharray: 4; stroke: #000000" x1="289.452" y1="413.606" x2="314.28" y2="482.46"/>
  <g>
    <path style="fill: #ffffff" d="M 268.394 413.494 L 279.394,413.494 L 279.394,437.494 C 277.194,433.494 276.094,433.494 273.894,437.494 C 271.694,441.494 270.594,441.494 268.394,437.494 L 268.394,413.494z"/>
    <path style="fill: none; fill-opacity:0; stroke-width: 0.02; stroke: #000000" d="M 268.394 413.494 L 279.394,413.494 L 279.394,437.494 C 277.194,433.494 276.094,433.494 273.894,437.494 C 271.694,441.494 270.594,441.494 268.394,437.494 L 268.394,413.494"/>
    <text font-size="12.8" style="fill: #000000;text-anchor:middle;font-family:sans-serif;font-style:normal;font-weight:normal" x="273.894" y="428.294">
      <tspan x="273.894" y="428.294">1</tspan>
    </text>
  </g>
  <g>
    <path style="fill: #ffffff" d="M 759.816 465.086 L 788.266,465.086 L 788.266,489.086 C 782.576,485.086 779.731,485.086 774.041,489.086 C 768.351,493.086 765.506,493.086 759.816,489.086 L 759.816,465.086z"/>
    <path style="fill: none; fill-opacity:0; stroke-width: 0.02; stroke: #000000" d="M 759.816 465.086 L 788.266,465.086 L 788.266,489.086 C 782.576,485.086 779.731,485.086 774.041,489.086 C 768.351,493.086 765.506,493.086 759.816,489.086 L 759.816,465.086"/>
    <text font-size="12.8" style="fill: #000000;text-anchor:middle;font-family:sans-serif;font-style:normal;font-weight:normal" x="774.041" y="479.886">
      <tspan x="774.041" y="479.886">END</tspan>
    </text>
  </g>
  <g>
    <path style="fill: #ffffff" d="M 260.556 464.518 L 286.606,464.518 L 286.606,488.518 C 281.396,484.518 278.791,484.518 273.581,488.518 C 268.371,492.518 265.766,492.518 260.556,488.518 L 260.556,464.518z"/>
    <path style="fill: none; fill-opacity:0; stroke-width: 0.02; stroke: #000000" d="M 260.556 464.518 L 286.606,464.518 L 286.606,488.518 C 281.396,484.518 278.791,484.518 273.581,488.518 C 268.371,492.518 265.766,492.518 260.556,488.518 L 260.556,464.518"/>
    <text font-size="12.8" style="fill: #000000;text-anchor:middle;font-family:sans-serif;font-style:normal;font-weight:normal" x="273.581" y="479.318">
      <tspan x="273.581" y="479.318">ESC</tspan>
    </text>
  </g>
  <line style="fill: none; fill-opacity:0; stroke-width: 1; stroke-dasharray: 4; stroke: #000000" x1="540.088" y1="414.134" x2="539.518" y2="482.634"/>
  <line style="fill: none; fill-opacity:0; stroke-width: 1; stroke-dasharray: 4; stroke: #000000" x1="568.694" y1="412.958" x2="593.52" y2="481.812"/>
  <g>
    <path style="fill: #ffffff" d="M 547.634 412.846 L 558.634,412.846 L 558.634,436.846 C 556.434,432.846 555.334,432.846 553.134,436.846 C 550.934,440.846 549.834,440.846 547.634,436.846 L 547.634,412.846z"/>
    <path style="fill: none; fill-opacity:0; stroke-width: 0.02; stroke: #000000" d="M 547.634 412.846 L 558.634,412.846 L 558.634,436.846 C 556.434,432.846 555.334,432.846 553.134,436.846 C 550.934,440.846 549.834,440.846 547.634,436.846 L 547.634,412.846"/>
    <text font-size="12.8" style="fill: #000000;text-anchor:middle;font-family:sans-serif;font-style:normal;font-weight:normal" x="553.134" y="427.646">
      <tspan x="553.134" y="427.646">1</tspan>
    </text>
  </g>
  <g>
    <path style="fill: #ffffff" d="M 540.19 465.088 L 566.24,465.088 L 566.24,489.088 C 561.03,485.088 558.425,485.088 553.215,489.088 C 548.005,493.088 545.4,493.088 540.19,489.088 L 540.19,465.088z"/>
    <path style="fill: none; fill-opacity:0; stroke-width: 0.02; stroke: #000000" d="M 540.19 465.088 L 566.24,465.088 L 566.24,489.088 C 561.03,485.088 558.425,485.088 553.215,489.088 C 548.005,493.088 545.4,493.088 540.19,489.088 L 540.19,465.088"/>
    <text font-size="12.8" style="fill: #000000;text-anchor:middle;font-family:sans-serif;font-style:normal;font-weight:normal" x="553.215" y="479.888">
      <tspan x="553.215" y="479.888">ESC</tspan>
    </text>
  </g>
  <g>
    <path style="fill: #ffffff" d="M 171.199 464.708 L 199.649,464.708 L 199.649,488.708 C 193.959,484.708 191.114,484.708 185.424,488.708 C 179.734,492.708 176.889,492.708 171.199,488.708 L 171.199,464.708z"/>
    <path style="fill: none; fill-opacity:0; stroke-width: 0.02; stroke: #000000" d="M 171.199 464.708 L 199.649,464.708 L 199.649,488.708 C 193.959,484.708 191.114,484.708 185.424,488.708 C 179.734,492.708 176.889,492.708 171.199,488.708 L 171.199,464.708"/>
    <text font-size="12.8" style="fill: #000000;text-anchor:middle;font-family:sans-serif;font-style:normal;font-weight:normal" x="185.424" y="479.508">
      <tspan x="185.424" y="479.508">END</tspan>
    </text>
  </g>
  <g>
    <rect style="fill: #ffffff" x="172.036" y="484.754" width="615.21" height="38"/>
    <rect style="fill: none; fill-opacity:0; stroke-width: 2; stroke: #000000" x="172.036" y="484.754" width="615.21" height="38"/>
    <text font-size="12.8" style="fill: #000000;text-anchor:middle;font-family:sans-serif;font-style:normal;font-weight:normal" x="479.641" y="508.554">
      <tspan x="479.641" y="508.554"></tspan>
    </text>
  </g>
  <g>
    <path style="fill: #ffffff" d="M 264.698 490.156 L 285.098,490.156 L 285.098,514.156 C 281.018,510.156 278.978,510.156 274.898,514.156 C 270.818,518.156 268.778,518.156 264.698,514.156 L 264.698,490.156z"/>
    <path style="fill: none; fill-opacity:0; stroke-width: 0.02; stroke: #000000" d="M 264.698 490.156 L 285.098,490.156 L 285.098,514.156 C 281.018,510.156 278.978,510.156 274.898,514.156 C 270.818,518.156 268.778,518.156 264.698,514.156 L 264.698,490.156"/>
    <text font-size="12.8" style="fill: #000000;text-anchor:middle;font-family:sans-serif;font-style:normal;font-weight:normal" x="274.898" y="504.956">
      <tspan x="274.898" y="504.956">DB</tspan>
    </text>
  </g>
  <line style="fill: none; fill-opacity:0; stroke-width: 2; stroke: #000000" x1="260.89" y1="485.418" x2="260.744" y2="521.98"/>
  <line style="fill: none; fill-opacity:0; stroke-width: 2; stroke: #000000" x1="288.238" y1="485.418" x2="288.092" y2="521.98"/>
  <g>
    <path style="fill: #ffffff" d="M 292.034 490.546 L 312.434,490.546 L 312.434,514.546 C 308.354,510.546 306.314,510.546 302.234,514.546 C 298.154,518.546 296.114,518.546 292.034,514.546 L 292.034,490.546z"/>
    <path style="fill: none; fill-opacity:0; stroke-width: 0.02; stroke: #000000" d="M 292.034 490.546 L 312.434,490.546 L 312.434,514.546 C 308.354,510.546 306.314,510.546 302.234,514.546 C 298.154,518.546 296.114,518.546 292.034,514.546 L 292.034,490.546"/>
    <text font-size="12.8" style="fill: #000000;text-anchor:middle;font-family:sans-serif;font-style:normal;font-weight:normal" x="302.234" y="505.346">
      <tspan x="302.234" y="505.346">DC</tspan>
    </text>
  </g>
  <line style="fill: none; fill-opacity:0; stroke-width: 2; stroke: #000000" x1="315.968" y1="485.458" x2="315.822" y2="522.02"/>
  <line style="fill: none; fill-opacity:0; stroke-width: 2; stroke: #000000" x1="199.915" y1="485.458" x2="199.769" y2="522.02"/>
  <g>
    <path style="fill: #ffffff" d="M 176.615 490.064 L 195.315,490.064 L 195.315,514.064 C 191.575,510.064 189.705,510.064 185.965,514.064 C 182.225,518.064 180.355,518.064 176.615,514.064 L 176.615,490.064z"/>
    <path style="fill: none; fill-opacity:0; stroke-width: 0.02; stroke: #000000" d="M 176.615 490.064 L 195.315,490.064 L 195.315,514.064 C 191.575,510.064 189.705,510.064 185.965,514.064 C 182.225,518.064 180.355,518.064 176.615,514.064 L 176.615,490.064"/>
    <text font-size="12.8" style="fill: #000000;text-anchor:middle;font-family:sans-serif;font-style:normal;font-weight:normal" x="185.965" y="504.864">
      <tspan x="185.965" y="504.864">C0</tspan>
    </text>
  </g>
  <line style="fill: none; fill-opacity:0; stroke-width: 2; stroke: #000000" x1="759.78" y1="485.422" x2="759.634" y2="521.984"/>
  <g>
    <path style="fill: #ffffff" d="M 764.508 490.296 L 783.208,490.296 L 783.208,514.296 C 779.468,510.296 777.598,510.296 773.858,514.296 C 770.118,518.296 768.248,518.296 764.508,514.296 L 764.508,490.296z"/>
    <path style="fill: none; fill-opacity:0; stroke-width: 0.02; stroke: #000000" d="M 764.508 490.296 L 783.208,490.296 L 783.208,514.296 C 779.468,510.296 777.598,510.296 773.858,514.296 C 770.118,518.296 768.248,518.296 764.508,514.296 L 764.508,490.296"/>
    <text font-size="12.8" style="fill: #000000;text-anchor:middle;font-family:sans-serif;font-style:normal;font-weight:normal" x="773.858" y="505.096">
      <tspan x="773.858" y="505.096">C0</tspan>
    </text>
  </g>
  <g>
    <path style="fill: #ffffff" d="M 180.265 524.388 L 191.265,524.388 L 191.265,548.388 C 189.065,544.388 187.965,544.388 185.765,548.388 C 183.565,552.388 182.465,552.388 180.265,548.388 L 180.265,524.388z"/>
    <path style="fill: none; fill-opacity:0; stroke-width: 0.02; stroke: #000000" d="M 180.265 524.388 L 191.265,524.388 L 191.265,548.388 C 189.065,544.388 187.965,544.388 185.765,548.388 C 183.565,552.388 182.465,552.388 180.265,548.388 L 180.265,524.388"/>
    <text font-size="12.8" style="fill: #000000;text-anchor:middle;font-family:sans-serif;font-style:normal;font-weight:normal" x="185.765" y="539.188">
      <tspan x="185.765" y="539.188">1</tspan>
    </text>
  </g>
  <g>
    <path style="fill: #ffffff" d="M 769.534 524.388 L 780.534,524.388 L 780.534,548.388 C 778.334,544.388 777.234,544.388 775.034,548.388 C 772.834,552.388 771.734,552.388 769.534,548.388 L 769.534,524.388z"/>
    <path style="fill: none; fill-opacity:0; stroke-width: 0.02; stroke: #000000" d="M 769.534 524.388 L 780.534,524.388 L 780.534,548.388 C 778.334,544.388 777.234,544.388 775.034,548.388 C 772.834,552.388 771.734,552.388 769.534,548.388 L 769.534,524.388"/>
    <text font-size="12.8" style="fill: #000000;text-anchor:middle;font-family:sans-serif;font-style:normal;font-weight:normal" x="775.034" y="539.188">
      <tspan x="775.034" y="539.188">1</tspan>
    </text>
  </g>
  <g>
    <path style="fill: #ffffff" d="M 296.136 524.388 L 307.136,524.388 L 307.136,548.388 C 304.936,544.388 303.836,544.388 301.636,548.388 C 299.436,552.388 298.336,552.388 296.136,548.388 L 296.136,524.388z"/>
    <path style="fill: none; fill-opacity:0; stroke-width: 0.02; stroke: #000000" d="M 296.136 524.388 L 307.136,524.388 L 307.136,548.388 C 304.936,544.388 303.836,544.388 301.636,548.388 C 299.436,552.388 298.336,552.388 296.136,548.388 L 296.136,524.388"/>
    <text font-size="12.8" style="fill: #000000;text-anchor:middle;font-family:sans-serif;font-style:normal;font-weight:normal" x="301.636" y="539.188">
      <tspan x="301.636" y="539.188">1</tspan>
    </text>
  </g>
  <g>
    <path style="fill: #ffffff" d="M 267.1 524.388 L 278.1,524.388 L 278.1,548.388 C 275.9,544.388 274.8,544.388 272.6,548.388 C 270.4,552.388 269.3,552.388 267.1,548.388 L 267.1,524.388z"/>
    <path style="fill: none; fill-opacity:0; stroke-width: 0.02; stroke: #000000" d="M 267.1 524.388 L 278.1,524.388 L 278.1,548.388 C 275.9,544.388 274.8,544.388 272.6,548.388 C 270.4,552.388 269.3,552.388 267.1,548.388 L 267.1,524.388"/>
    <text font-size="12.8" style="fill: #000000;text-anchor:middle;font-family:sans-serif;font-style:normal;font-weight:normal" x="272.6" y="539.188">
      <tspan x="272.6" y="539.188">1</tspan>
    </text>
  </g>
  <g>
    <path style="fill: #ffffff" d="M 543.938 490.292 L 564.338,490.292 L 564.338,514.292 C 560.258,510.292 558.218,510.292 554.138,514.292 C 550.058,518.292 548.018,518.292 543.938,514.292 L 543.938,490.292z"/>
    <path style="fill: none; fill-opacity:0; stroke-width: 0.02; stroke: #000000" d="M 543.938 490.292 L 564.338,490.292 L 564.338,514.292 C 560.258,510.292 558.218,510.292 554.138,514.292 C 550.058,518.292 548.018,518.292 543.938,514.292 L 543.938,490.292"/>
    <text font-size="12.8" style="fill: #000000;text-anchor:middle;font-family:sans-serif;font-style:normal;font-weight:normal" x="554.138" y="505.092">
      <tspan x="554.138" y="505.092">DB</tspan>
    </text>
  </g>
  <line style="fill: none; fill-opacity:0; stroke-width: 2; stroke: #000000" x1="540.132" y1="485.554" x2="539.986" y2="522.116"/>
  <line style="fill: none; fill-opacity:0; stroke-width: 2; stroke: #000000" x1="567.48" y1="485.554" x2="567.334" y2="522.116"/>
  <g>
    <path style="fill: #ffffff" d="M 570.776 490.682 L 592.176,490.682 L 592.176,514.682 C 587.896,510.682 585.756,510.682 581.476,514.682 C 577.196,518.682 575.056,518.682 570.776,514.682 L 570.776,490.682z"/>
    <path style="fill: none; fill-opacity:0; stroke-width: 0.02; stroke: #000000" d="M 570.776 490.682 L 592.176,490.682 L 592.176,514.682 C 587.896,510.682 585.756,510.682 581.476,514.682 C 577.196,518.682 575.056,518.682 570.776,514.682 L 570.776,490.682"/>
    <text font-size="12.8" style="fill: #000000;text-anchor:middle;font-family:sans-serif;font-style:normal;font-weight:normal" x="581.476" y="505.482">
      <tspan x="581.476" y="505.482">DD</tspan>
    </text>
  </g>
  <line style="fill: none; fill-opacity:0; stroke-width: 2; stroke: #000000" x1="595.208" y1="485.594" x2="595.062" y2="522.156"/>
  <g>
    <path style="fill: #ffffff" d="M 575.378 524.524 L 586.378,524.524 L 586.378,548.524 C 584.178,544.524 583.078,544.524 580.878,548.524 C 578.678,552.524 577.578,552.524 575.378,548.524 L 575.378,524.524z"/>
    <path style="fill: none; fill-opacity:0; stroke-width: 0.02; stroke: #000000" d="M 575.378 524.524 L 586.378,524.524 L 586.378,548.524 C 584.178,544.524 583.078,544.524 580.878,548.524 C 578.678,552.524 577.578,552.524 575.378,548.524 L 575.378,524.524"/>
    <text font-size="12.8" style="fill: #000000;text-anchor:middle;font-family:sans-serif;font-style:normal;font-weight:normal" x="580.878" y="539.324">
      <tspan x="580.878" y="539.324">1</tspan>
    </text>
  </g>
  <g>
    <path style="fill: #ffffff" d="M 546.342 524.524 L 557.342,524.524 L 557.342,548.524 C 555.142,544.524 554.042,544.524 551.842,548.524 C 549.642,552.524 548.542,552.524 546.342,548.524 L 546.342,524.524z"/>
    <path style="fill: none; fill-opacity:0; stroke-width: 0.02; stroke: #000000" d="M 546.342 524.524 L 557.342,524.524 L 557.342,548.524 C 555.142,544.524 554.042,544.524 551.842,548.524 C 549.642,552.524 548.542,552.524 546.342,548.524 L 546.342,524.524"/>
    <text font-size="12.8" style="fill: #000000;text-anchor:middle;font-family:sans-serif;font-style:normal;font-weight:normal" x="551.842" y="539.324">
      <tspan x="551.842" y="539.324">1</tspan>
    </text>
  </g>
</svg>
