<?xml version="1.0" encoding="UTF-8" standalone="no"?>
<!DOCTYPE svg PUBLIC "-//W3C//DTD SVG 1.0//EN" "http://www.w3.org/TR/2001/PR-SVG-20010719/DTD/svg10.dtd">
<svg width="21cm" height="10cm" viewBox="162 86 403 187" xmlns="http://www.w3.org/2000/svg" xmlns:xlink="http://www.w3.org/1999/xlink">
  <line style="fill: none; fill-opacity:0; stroke-width: 2; stroke: #000000" x1="463.56" y1="87.5068" x2="463.525" y2="270.775"/>
  <g>
    <line style="fill: none; fill-opacity:0; stroke-width: 1; stroke: #000000" x1="264.871" y1="102.357" x2="457.274" y2="154.531"/>
    <polygon style="fill: #000000" points="456.488,157.427 463.064,156.102 458.059,151.636 "/>
    <polygon style="fill: none; fill-opacity:0; stroke-width: 1; stroke: #000000" points="456.488,157.427 463.064,156.102 458.059,151.636 "/>
  </g>
  <g>
    <line style="fill: none; fill-opacity:0; stroke-width: 1; stroke: #000000" x1="463.557" y1="102.779" x2="271.111" y2="161.876"/>
    <polygon style="fill: #000000" points="270.23,159.008 265.375,163.637 271.991,164.744 "/>
    <polygon style="fill: none; fill-opacity:0; stroke-width: 1; stroke: #000000" points="270.23,159.008 265.375,163.637 271.991,164.744 "/>
  </g>
  <line style="fill: none; fill-opacity:0; stroke-width: 2; stroke: #000000" x1="264.864" y1="87.0004" x2="264.943" y2="271.28"/>
  <g>
    <line style="fill: none; fill-opacity:0; stroke-width: 1; stroke: #000000" x1="264.904" y1="179.14" x2="457.318" y2="238.32"/>
    <polygon style="fill: #000000" points="456.437,241.187 463.053,240.083 458.2,235.452 "/>
    <polygon style="fill: none; fill-opacity:0; stroke-width: 1; stroke: #000000" points="456.437,241.187 463.053,240.083 458.2,235.452 "/>
  </g>
  <g>
    <path style="fill: none; fill-opacity:0; stroke-width: 1; stroke-linecap: round; stroke: #000000" d="M 325.584 114.822 L 325.533,115.037 L 323.746,114.669 L 323.731,114.495 L 324.053,114.572 C 324.053,114.572 324.12,114.531 324.294,114.515 C 324.253,114.449 324.319,114.408 324.452,114.326 L 325.409,108.875 C 325.368,108.808 325.327,108.742 325.352,108.634 C 325.286,108.675 325.245,108.609 325.096,108.517 L 324.881,108.466 L 324.933,108.251 L 328.853,108.956 L 329.084,110.374 L 328.91,110.389 C 328.705,110.057 328.5,109.724 328.295,109.391 C 327.998,109.207 327.743,109.089 327.446,108.905 L 326.412,108.716 C 326.279,108.798 326.171,108.772 326.105,108.813 C 326.038,108.854 326.013,108.962 326.013,108.962 L 325.598,111.419 L 326.806,111.592 C 327.062,111.71 327.236,111.695 327.436,111.572 C 327.502,111.531 327.595,111.382 327.671,111.06 L 327.722,110.845 L 327.937,110.896 L 327.533,113.071 L 327.318,113.02 L 327.344,112.913 C 327.313,112.565 327.298,112.391 327.282,112.217 C 327.201,112.084 327.052,111.992 326.796,111.874 L 325.547,111.634 L 325.056,114.413 C 324.923,114.495 324.923,114.495 325.072,114.587 C 325.005,114.628 325.154,114.72 325.369,114.771 L 325.584,114.822"/>
    <path style="fill: none; fill-opacity:0; stroke-width: 1; stroke-linecap: round; stroke: #000000" d="M 330.332 109.422 L 330.384,109.207 L 333.444,109.708 L 333.434,109.989 L 332.508,109.826 C 332.441,109.867 332.375,109.908 332.267,109.882 C 332.242,109.989 332.175,110.03 332.108,110.071 L 331.152,115.522 C 331.019,115.604 331.06,115.671 331.209,115.763 C 331.209,115.763 331.316,115.788 331.465,115.881 L 332.35,115.978 L 332.34,116.259 L 329.238,115.692 L 329.289,115.477 L 330.216,115.64 C 330.216,115.64 330.216,115.64 330.39,115.625 C 330.349,115.558 330.482,115.476 330.615,115.395 L 331.505,109.984 C 331.571,109.944 331.597,109.836 331.515,109.703 C 331.515,109.703 331.407,109.677 331.259,109.585 L 330.332,109.422"/>
    <path style="fill: none; fill-opacity:0; stroke-width: 1; stroke-linecap: round; stroke: #000000" d="M 337.33 115.573 L 337.437,115.598 L 338.23,111.074 C 338.23,111.074 338.189,111.007 338.215,110.899 C 338.107,110.874 338.066,110.807 337.918,110.715 L 337.636,110.705 L 337.687,110.49 L 339.218,110.741 L 339.167,110.956 L 338.844,110.879 C 338.778,110.92 338.711,110.961 338.604,110.935 C 338.511,111.084 338.445,111.125 338.445,111.125 L 337.427,117.072 L 337.146,117.062 L 335.267,110.88 L 335.226,110.813 L 334.321,116.049 C 334.254,116.09 334.228,116.197 334.336,116.223 C 334.31,116.331 334.418,116.356 334.592,116.341 L 334.914,116.417 L 334.863,116.632 L 333.333,116.382 L 333.384,116.167 L 333.706,116.244 C 333.773,116.203 333.839,116.162 333.947,116.187 C 333.973,116.08 334.039,116.039 334.106,115.998 L 335.062,110.547 C 335.062,110.547 335.021,110.48 335.005,110.306 C 334.939,110.347 334.831,110.322 334.749,110.189 L 334.535,110.138 L 334.586,109.923 L 335.686,110.071 L 337.33,115.573"/>
    <path style="fill: none; fill-opacity:0; stroke-width: 1; stroke-linecap: round; stroke: #000000" d="M 346.783 112.597 C 346.783,112.597 346.849,112.556 346.767,112.423 C 346.767,112.423 346.66,112.398 346.511,112.306 L 345.585,112.142 L 345.636,111.927 L 348.697,112.428 L 348.687,112.71 L 347.827,112.505 C 347.653,112.52 347.586,112.561 347.479,112.536 C 347.453,112.643 347.387,112.684 347.428,112.751 L 346.43,118.135 C 346.303,118.673 346.026,119.118 345.627,119.364 C 345.161,119.65 344.706,119.656 344.276,119.553 C 343.846,119.451 343.59,119.333 343.442,119.241 C 343.278,118.975 343.196,118.842 343.247,118.627 C 343.232,118.453 343.257,118.346 343.431,118.33 C 343.39,118.264 343.523,118.182 343.738,118.233 C 343.805,118.192 343.887,118.325 343.969,118.458 C 343.943,118.565 343.984,118.632 344.066,118.765 C 343.999,118.806 343.933,118.847 343.974,118.914 C 343.907,118.954 343.882,119.062 343.882,119.062 C 343.815,119.103 343.923,119.128 344.071,119.221 C 344.112,119.287 344.22,119.313 344.435,119.364 C 344.716,119.374 344.957,119.318 345.289,119.113 C 345.448,118.923 345.658,118.519 345.826,118.048 L 346.783,112.597"/>
  </g>
  <g>
    <path style="fill: none; fill-opacity:0; stroke-width: 1; stroke-linecap: round; stroke: #000000" d="M 291.361 181.446 C 290.918,181.293 290.574,181.092 290.403,180.868 C 290.158,180.619 290.087,180.346 290.214,179.977 C 290.267,179.582 290.542,179.264 291.112,179.047 C 291.484,178.927 292.299,178.959 293.583,179.07 L 293.661,178.601 C 293.638,178.428 293.64,178.181 293.643,177.934 C 293.52,177.81 293.324,177.659 292.955,177.532 C 292.512,177.38 292.191,177.352 291.992,177.449 C 291.793,177.546 291.669,177.668 291.692,177.842 C 291.666,177.915 291.641,177.989 291.715,178.015 C 291.616,178.063 291.59,178.137 291.565,178.211 C 291.466,178.259 291.392,178.234 291.318,178.209 C 291.17,178.158 291.096,178.132 291.048,178.033 C 290.974,178.008 290.925,177.908 291.05,177.786 C 291.052,177.539 291.276,177.368 291.722,177.274 C 292.02,177.128 292.514,177.133 293.031,177.311 C 293.474,177.463 293.744,177.639 293.989,177.888 C 294.16,178.112 294.206,178.458 294.178,178.779 L 293.513,181.194 C 293.437,181.416 293.386,181.564 293.46,181.589 C 293.435,181.663 293.508,181.688 293.682,181.665 C 293.73,181.765 293.829,181.716 293.954,181.594 C 293.979,181.52 294.104,181.397 294.18,181.176 L 294.427,181.178 C 294.3,181.548 294.15,181.744 294.026,181.866 C 293.827,181.963 293.654,181.986 293.506,181.935 C 293.259,181.933 293.111,181.882 293.063,181.783 C 292.94,181.658 292.892,181.559 292.968,181.337 C 292.596,181.457 292.349,181.455 292.176,181.478 C 291.904,181.55 291.657,181.547 291.361,181.446 L 291.361,181.446"/>
    <path style="fill: none; fill-opacity:0; stroke-width: 1; stroke-linecap: round; stroke: #000000" d="M 290.93 180.058 C 290.754,180.328 290.752,180.575 290.923,180.799 C 290.946,180.972 291.142,181.122 291.537,181.176 C 291.659,181.3 291.906,181.303 292.179,181.231 C 292.426,181.233 292.698,181.162 293.07,181.042 L 293.506,179.292 C 292.544,179.209 291.976,179.178 291.604,179.298 C 291.207,179.492 290.957,179.737 290.93,180.058 L 290.93,180.058"/>
    <path style="fill: none; fill-opacity:0; stroke-width: 1; stroke-linecap: round; stroke: #000000" d="M 298.343 179.881 C 298.343,179.881 298.369,179.807 298.468,179.759 C 298.369,179.807 298.394,179.733 298.519,179.611 C 298.47,179.512 298.422,179.412 298.399,179.239 C 298.276,179.115 298.08,178.964 297.859,178.888 C 297.415,178.736 297.044,178.856 296.769,179.174 C 296.346,179.442 296.12,179.86 295.991,180.476 C 295.787,181.067 295.783,181.562 296.002,181.885 C 296.096,182.33 296.415,182.605 296.958,182.709 C 297.253,182.811 297.599,182.765 297.897,182.619 C 298.195,182.474 298.419,182.303 298.62,181.959 L 298.842,182.035 C 298.542,182.428 298.218,182.647 297.969,182.892 C 297.572,183.086 297.225,183.132 296.782,182.979 C 296.166,182.85 295.699,182.524 295.457,182.028 C 295.189,181.605 295.145,181.012 295.399,180.273 C 295.455,179.631 295.781,179.165 296.376,178.874 C 296.824,178.533 297.418,178.489 298.034,178.618 C 298.378,178.819 298.648,178.995 298.893,179.244 C 299.038,179.542 299.11,179.814 299.107,180.061 C 298.983,180.184 298.932,180.331 298.932,180.331 C 298.807,180.454 298.66,180.403 298.611,180.304 C 298.438,180.327 298.364,180.301 298.341,180.128 C 298.267,180.103 298.292,180.029 298.343,179.881 L 298.343,179.881"/>
    <path style="fill: none; fill-opacity:0; stroke-width: 1; stroke-linecap: round; stroke: #000000" d="M 302.282 181.401 L 303.122,184.003 C 303.145,184.176 303.194,184.275 303.267,184.301 C 303.267,184.301 303.341,184.326 303.489,184.377 L 303.637,184.428 L 303.561,184.649 L 302.058,184.215 L 302.134,183.994 L 302.208,184.019 C 302.256,184.118 302.355,184.07 302.455,184.021 C 302.455,184.021 302.455,184.021 302.506,183.873 L 301.834,181.742 L 300.89,182.326 L 300.633,183.312 C 300.582,183.46 300.557,183.534 300.631,183.559 C 300.605,183.633 300.679,183.659 300.852,183.635 L 301.074,183.712 L 300.998,183.933 L 299.396,183.548 L 299.472,183.326 L 299.693,183.402 C 299.767,183.428 299.867,183.379 299.966,183.331 C 299.966,183.331 299.991,183.257 300.116,183.134 L 301.525,177.836 C 301.525,177.836 301.477,177.737 301.527,177.589 C 301.38,177.538 301.331,177.439 301.257,177.413 L 301.036,177.337 L 301.086,177.189 L 301.407,177.217 C 301.481,177.242 301.629,177.293 301.802,177.27 C 301.876,177.296 301.975,177.247 302.174,177.15 L 302.248,177.176 L 300.968,181.858 L 302.956,180.641 C 302.982,180.567 303.081,180.519 303.132,180.371 C 303.132,180.371 303.083,180.272 303.009,180.246 L 302.788,180.17 L 302.864,179.949 L 304.367,180.383 L 304.291,180.604 L 304.143,180.554 C 303.97,180.577 303.896,180.551 303.822,180.526 C 303.649,180.549 303.476,180.572 303.45,180.646 L 302.282,181.401"/>
    <path style="fill: none; fill-opacity:0; stroke-width: 1; stroke-linecap: round; stroke: #000000" d="M 313.172 187.211 L 311.595,186.751 L 311.671,186.53 L 311.819,186.581 C 311.867,186.68 311.967,186.631 312.091,186.509 C 312.043,186.41 312.094,186.262 312.071,186.089 L 311.556,183.02 L 310.734,183.729 L 310.171,185.848 C 310.12,185.996 310.094,186.07 310.168,186.095 C 310.143,186.169 310.217,186.195 310.39,186.172 L 310.611,186.248 L 310.535,186.47 L 308.859,186.058 L 308.935,185.837 L 309.157,185.913 C 309.231,185.938 309.33,185.89 309.429,185.841 C 309.429,185.841 309.455,185.768 309.58,185.645 L 310.989,180.347 C 310.915,180.321 310.94,180.247 310.991,180.1 C 310.917,180.074 310.869,179.975 310.721,179.924 L 310.474,179.922 L 310.55,179.7 L 312.3,180.137 L 312.224,180.358 L 312.002,180.282 C 311.829,180.305 311.755,180.28 311.755,180.28 C 311.582,180.303 311.556,180.377 311.605,180.476 L 310.838,183.186 L 313.253,181.208 C 313.378,181.086 313.429,180.938 313.454,180.864 C 313.406,180.765 313.332,180.739 313.21,180.615 L 313.062,180.564 L 313.064,180.317 L 314.715,180.802 L 314.639,181.024 L 314.565,180.998 C 314.417,180.947 314.244,180.97 314.145,181.019 C 313.971,181.042 313.798,181.065 313.674,181.187 L 312.055,182.531 L 312.784,186.417 C 312.708,186.638 312.756,186.738 312.904,186.788 C 312.953,186.888 313.026,186.913 313.1,186.939 L 313.248,186.989 L 313.172,187.211"/>
    <path style="fill: none; fill-opacity:0; stroke-width: 1; stroke-linecap: round; stroke: #000000" d="M 316.608 184.427 L 317.171,182.308 L 317.492,182.335 L 316.929,184.455 L 318.801,185.016 L 318.699,185.312 L 316.802,184.824 L 316.238,186.944 L 315.942,186.842 L 316.506,184.723 L 314.608,184.235 L 314.735,183.866 L 316.608,184.427"/>
    <path style="fill: none; fill-opacity:0; stroke-width: 1; stroke-linecap: round; stroke: #000000" d="M 322.602 182.853 L 321.065,188.521 C 320.915,188.717 320.938,188.89 321.135,189.041 C 321.183,189.14 321.379,189.29 321.626,189.292 L 321.996,189.419 L 321.92,189.641 L 319.209,188.874 L 319.285,188.652 L 319.581,188.754 C 319.803,188.83 319.976,188.807 320.174,188.71 C 320.274,188.662 320.398,188.539 320.474,188.318 L 321.678,183.857 C 321.604,183.832 321.629,183.758 321.606,183.585 C 321.532,183.559 321.484,183.46 321.41,183.435 L 320.745,183.206 L 320.821,182.984 L 321.117,183.086 C 321.339,183.162 321.586,183.165 321.858,183.093 C 322.031,183.07 322.23,182.973 322.454,182.802 L 322.602,182.853"/>
  </g>
  <g>
    <path style="fill: none; fill-opacity:0; stroke-width: 1; stroke-linecap: round; stroke: #000000" d="M 404.401 112.546 L 404.447,112.776 L 402.592,113.064 L 402.547,112.834 L 402.853,112.773 C 402.945,112.834 403.007,112.743 403.068,112.651 C 403.068,112.651 403.053,112.574 403.099,112.406 L 402.191,107.011 C 402.1,106.949 402.085,106.873 402.069,106.796 C 401.993,106.811 401.839,106.841 401.748,106.78 L 401.518,106.825 L 401.472,106.595 L 405.473,105.884 L 406.129,107.188 L 405.991,107.294 C 405.685,106.957 405.318,106.711 405.042,106.526 C 404.69,106.357 404.445,106.326 404.123,106.31 L 403.051,106.522 C 402.912,106.629 402.836,106.644 402.759,106.659 C 402.698,106.751 402.636,106.843 402.728,106.905 L 403.198,109.28 L 404.439,109.114 C 404.684,109.146 404.823,109.039 404.945,108.855 C 405.007,108.763 405.053,108.595 405.069,108.273 L 405.024,108.043 L 405.254,107.998 L 405.617,110.235 L 405.387,110.281 L 405.356,110.128 C 405.311,109.898 405.189,109.683 405.067,109.468 C 404.898,109.422 404.73,109.376 404.485,109.344 L 403.243,109.51 L 403.728,112.361 C 403.681,112.53 403.697,112.606 403.85,112.576 C 403.88,112.729 403.957,112.714 404.095,112.607 L 404.401,112.546"/>
    <path style="fill: none; fill-opacity:0; stroke-width: 1; stroke-linecap: round; stroke: #000000" d="M 407.051 105.811 L 407.005,105.581 L 410.01,105.066 L 410.055,105.296 L 409.197,105.386 C 409.059,105.493 408.905,105.523 408.905,105.523 C 408.767,105.63 408.783,105.707 408.874,105.768 L 409.874,111.225 C 409.904,111.378 409.92,111.455 409.996,111.44 C 410.026,111.593 410.103,111.578 410.241,111.471 L 411.084,111.304 L 411.13,111.534 L 408.126,112.049 L 408.08,111.819 L 408.938,111.729 C 409.03,111.79 409.183,111.76 409.23,111.591 C 409.23,111.591 409.215,111.515 409.261,111.346 L 408.261,105.89 C 408.169,105.828 408.154,105.752 408.139,105.675 C 408.062,105.69 407.986,105.705 407.894,105.644 L 407.051,105.811"/>
    <path style="fill: none; fill-opacity:0; stroke-width: 1; stroke-linecap: round; stroke: #000000" d="M 415.624 109.291 L 415.7,109.276 L 414.974,104.801 C 414.883,104.739 414.867,104.663 414.852,104.586 C 414.776,104.601 414.699,104.616 414.531,104.57 L 414.209,104.554 L 414.163,104.324 L 415.711,104.097 L 415.757,104.327 L 415.45,104.388 C 415.312,104.495 415.235,104.51 415.235,104.51 C 415.174,104.602 415.112,104.694 415.128,104.77 L 416.218,110.687 L 415.988,110.732 L 412.092,105.53 L 412.016,105.545 L 412.955,110.695 C 412.908,110.864 412.924,110.94 413,110.925 C 413.092,110.987 413.184,111.048 413.322,110.941 L 413.629,110.881 L 413.674,111.11 L 412.141,111.414 L 412.096,111.184 L 412.402,111.123 C 412.494,111.185 412.632,111.078 412.694,110.986 C 412.694,110.986 412.679,110.909 412.725,110.741 L 411.74,105.361 C 411.649,105.299 411.633,105.223 411.618,105.146 C 411.542,105.161 411.465,105.176 411.373,105.115 L 411.143,105.16 L 411.098,104.93 L 412.171,104.718 L 415.624,109.291"/>
    <path style="fill: none; fill-opacity:0; stroke-width: 1; stroke-linecap: round; stroke: #000000" d="M 426.518 108.809 L 424.909,109.127 L 424.863,108.897 L 424.94,108.882 C 425.032,108.943 425.093,108.852 425.14,108.683 C 425.125,108.607 425.109,108.53 424.987,108.315 L 423.2,105.722 L 422.754,106.686 L 423.102,108.847 C 423.132,109.001 423.147,109.077 423.224,109.062 C 423.316,109.124 423.407,109.185 423.561,109.155 L 423.791,109.109 L 423.836,109.339 L 422.058,109.611 L 422.013,109.381 L 422.243,109.336 C 422.334,109.397 422.396,109.306 422.457,109.214 C 422.534,109.199 422.519,109.122 422.565,108.954 L 421.581,103.574 C 421.565,103.497 421.474,103.435 421.458,103.359 C 421.305,103.389 421.229,103.404 421.213,103.328 L 420.983,103.373 L 420.938,103.143 L 422.624,102.81 L 422.67,103.04 L 422.44,103.085 C 422.302,103.192 422.225,103.207 422.225,103.207 C 422.163,103.299 422.102,103.391 422.194,103.452 L 422.663,106.226 L 424.002,103.334 C 424.063,103.242 424.11,103.073 424.079,102.92 C 423.988,102.859 423.834,102.889 423.666,102.843 L 423.513,102.873 L 423.467,102.643 L 425.168,102.386 L 425.214,102.616 L 425.137,102.631 C 424.922,102.753 424.784,102.86 424.708,102.875 C 424.585,103.059 424.523,103.151 424.447,103.166 L 423.477,105.11 L 425.784,108.317 C 425.814,108.47 425.921,108.608 425.998,108.593 C 426.105,108.731 426.182,108.716 426.243,108.624 L 426.473,108.579 L 426.518,108.809"/>
  </g>
  <g>
    <path style="fill: none; fill-opacity:0; stroke-width: 1; stroke-linecap: round; stroke: #000000" d="M 165.081 106.907 L 165.081,107.141 L 163.206,107.141 L 163.206,106.907 L 163.44,106.907 C 163.596,106.985 163.674,106.907 163.752,106.829 C 163.752,106.829 163.752,106.751 163.831,106.595 L 163.831,101.048 C 163.752,101.048 163.752,100.97 163.752,100.891 C 163.674,100.891 163.596,100.891 163.44,100.813 L 163.206,100.813 L 163.206,100.579 L 167.268,100.579 L 167.737,101.907 L 167.502,101.985 C 167.268,101.673 167.034,101.36 166.721,101.126 C 166.409,100.97 166.096,100.891 165.862,100.813 L 164.768,100.813 C 164.612,100.891 164.534,100.891 164.534,100.891 C 164.377,100.97 164.377,101.048 164.456,101.048 L 164.456,103.548 L 165.706,103.548 C 165.862,103.548 166.096,103.548 166.252,103.391 C 166.331,103.391 166.331,103.157 166.409,102.845 L 166.409,102.61 L 166.643,102.61 L 166.643,104.876 L 166.409,104.876 L 166.409,104.72 C 166.331,104.407 166.331,104.173 166.252,104.016 C 166.096,103.86 165.862,103.782 165.706,103.782 L 164.456,103.782 L 164.456,106.595 C 164.377,106.751 164.377,106.829 164.534,106.829 C 164.534,106.907 164.612,106.985 164.768,106.907 L 165.081,106.907"/>
    <path style="fill: none; fill-opacity:0; stroke-width: 1; stroke-linecap: round; stroke: #000000" d="M 168.831 100.813 L 168.831,100.579 L 171.877,100.579 L 171.877,100.813 L 171.018,100.813 C 170.862,100.891 170.784,100.891 170.784,100.891 C 170.706,100.97 170.706,101.048 170.706,101.048 L 170.706,106.595 C 170.706,106.751 170.706,106.829 170.784,106.829 C 170.784,106.907 170.862,106.985 171.018,106.907 L 171.877,106.907 L 171.877,107.141 L 168.831,107.141 L 168.831,106.907 L 169.69,106.907 C 169.768,106.985 169.924,106.907 170.002,106.829 C 170.002,106.829 170.002,106.751 170.081,106.595 L 170.081,101.048 C 170.002,101.048 170.002,100.97 170.002,100.891 C 169.924,100.891 169.768,100.891 169.69,100.813 L 168.831,100.813"/>
    <path style="fill: none; fill-opacity:0; stroke-width: 1; stroke-linecap: round; stroke: #000000" d="M 176.721 105.657 L 176.799,105.657 L 176.799,101.126 C 176.799,101.048 176.721,100.97 176.721,100.891 C 176.565,100.891 176.487,100.891 176.409,100.813 L 176.096,100.813 L 176.096,100.579 L 177.659,100.579 L 177.659,100.813 L 177.346,100.813 C 177.19,100.891 177.112,100.891 177.112,100.891 C 177.034,100.97 177.034,101.048 177.034,101.048 L 177.034,107.141 L 176.799,107.141 L 173.831,101.36 L 173.752,101.36 L 173.752,106.595 C 173.752,106.751 173.752,106.829 173.831,106.829 C 173.909,106.907 173.987,106.985 174.143,106.907 L 174.456,106.907 L 174.456,107.141 L 172.893,107.141 L 172.893,106.907 L 173.206,106.907 C 173.206,106.985 173.284,106.907 173.44,106.829 C 173.44,106.829 173.518,106.751 173.518,106.595 L 173.518,101.048 C 173.518,101.048 173.44,100.97 173.44,100.891 C 173.284,100.891 173.206,100.891 173.206,100.813 L 172.971,100.813 L 172.971,100.579 L 174.065,100.579 L 176.721,105.657"/>
    <path style="fill: none; fill-opacity:0; stroke-width: 1; stroke-linecap: round; stroke: #000000" d="M 177.815 108.626 L 177.815,108.391 L 182.737,108.391 L 182.737,108.626 L 177.815,108.626"/>
    <path style="fill: none; fill-opacity:0; stroke-width: 1; stroke-linecap: round; stroke: #000000" d="M 187.581 100.579 L 187.581,100.813 L 187.424,100.813 C 187.346,100.891 187.268,100.891 187.268,100.891 C 187.19,100.97 187.112,101.048 187.112,101.126 L 186.096,107.141 L 185.862,107.141 L 185.237,103.079 L 185.159,103.079 L 184.377,107.141 L 184.143,107.141 L 183.206,101.048 C 183.206,101.048 183.127,100.97 183.127,100.891 C 182.971,100.891 182.971,100.891 182.971,100.813 L 182.815,100.813 L 182.815,100.579 L 184.143,100.579 L 184.143,100.813 L 184.065,100.813 C 183.909,100.891 183.831,100.891 183.831,100.891 C 183.674,100.97 183.674,101.048 183.752,101.048 L 184.377,105.345 L 184.456,105.345 L 185.081,102.141 L 185.002,101.048 C 184.924,101.048 184.924,100.97 184.846,100.891 C 184.768,100.891 184.69,100.891 184.69,100.813 L 184.612,100.813 L 184.612,100.579 L 185.862,100.579 L 185.862,100.813 L 185.784,100.813 C 185.627,100.891 185.549,100.891 185.549,100.891 C 185.549,100.97 185.549,101.048 185.549,101.048 L 186.096,105.188 L 186.174,105.188 L 186.877,101.126 C 186.799,101.048 186.799,100.97 186.799,100.891 C 186.721,100.891 186.643,100.891 186.565,100.813 L 186.409,100.813 L 186.409,100.579 L 187.581,100.579"/>
    <path style="fill: none; fill-opacity:0; stroke-width: 1; stroke-linecap: round; stroke: #000000" d="M 190.784 104.641 L 189.065,104.641 L 188.674,106.126 C 188.596,106.282 188.596,106.438 188.674,106.438 C 188.596,106.595 188.596,106.673 188.674,106.751 C 188.674,106.907 188.831,106.985 189.065,106.907 L 189.143,106.907 L 189.143,107.141 L 187.737,107.141 L 187.737,106.907 L 187.815,106.907 C 187.815,106.985 187.893,106.907 188.049,106.829 C 188.049,106.829 188.127,106.751 188.284,106.516 L 189.768,100.579 L 190.393,100.423 L 191.799,106.516 C 191.799,106.751 191.877,106.829 191.956,106.829 C 192.034,106.907 192.112,106.985 192.268,106.907 L 192.424,106.907 L 192.424,107.141 L 190.784,107.141 L 190.784,106.907 L 190.862,106.907 C 190.94,106.985 191.018,106.907 191.096,106.829 C 191.096,106.829 191.174,106.829 191.174,106.673 C 191.174,106.673 191.174,106.516 191.174,106.36 L 190.784,104.641"/>
    <path style="fill: none; fill-opacity:0; stroke-width: 1; stroke-linecap: round; stroke: #000000" d="M 190.002 101.204 L 189.924,101.204 L 189.143,104.407 L 190.784,104.407 L 190.002,101.204"/>
    <path style="fill: none; fill-opacity:0; stroke-width: 1; stroke-linecap: round; stroke: #000000" d="M 193.518 100.813 L 193.518,100.579 L 196.565,100.579 L 196.565,100.813 L 195.706,100.813 C 195.549,100.891 195.471,100.891 195.471,100.891 C 195.393,100.97 195.393,101.048 195.393,101.048 L 195.393,106.595 C 195.393,106.751 195.393,106.829 195.471,106.829 C 195.471,106.907 195.549,106.985 195.706,106.907 L 196.565,106.907 L 196.565,107.141 L 193.518,107.141 L 193.518,106.907 L 194.377,106.907 C 194.456,106.985 194.612,106.907 194.69,106.829 C 194.69,106.829 194.69,106.751 194.768,106.595 L 194.768,101.048 C 194.69,101.048 194.69,100.97 194.69,100.891 C 194.612,100.891 194.456,100.891 194.377,100.813 L 193.518,100.813"/>
    <path style="fill: none; fill-opacity:0; stroke-width: 1; stroke-linecap: round; stroke: #000000" d="M 201.018 107.141 L 198.987,107.141 L 198.987,106.907 L 199.377,106.907 C 199.377,106.985 199.456,106.907 199.612,106.829 C 199.612,106.829 199.69,106.751 199.69,106.595 L 199.69,101.204 C 199.69,101.048 199.612,100.97 199.612,100.891 C 199.534,100.891 199.456,100.891 199.377,100.813 C 198.909,100.891 198.674,100.97 198.596,101.048 C 198.362,101.204 198.206,101.516 198.049,102.063 L 197.815,101.985 L 198.206,100.579 L 201.877,100.579 L 202.19,101.985 L 201.956,102.063 C 201.643,101.516 201.487,101.204 201.487,101.048 C 201.331,100.97 201.096,100.891 200.784,100.813 C 200.471,100.891 200.315,100.891 200.315,100.891 C 200.237,100.97 200.237,101.048 200.315,101.204 L 200.315,106.595 C 200.237,106.751 200.315,106.829 200.393,106.829 C 200.471,106.907 200.549,106.985 200.706,106.907 L 201.018,106.907 L 201.018,107.141"/>
    <path style="fill: none; fill-opacity:0; stroke-width: 1; stroke-linecap: round; stroke: #000000" d="M 202.502 108.626 L 202.502,108.391 L 207.424,108.391 L 207.424,108.626 L 202.502,108.626"/>
    <path style="fill: none; fill-opacity:0; stroke-width: 1; stroke-linecap: round; stroke: #000000" d="M 210.237 100.423 L 210.237,106.282 C 210.237,106.516 210.237,106.673 210.393,106.751 C 210.471,106.907 210.706,106.985 210.94,106.907 L 211.331,106.907 L 211.331,107.141 L 208.518,107.141 L 208.518,106.907 L 208.909,106.907 C 209.143,106.985 209.299,106.907 209.456,106.751 C 209.456,106.673 209.534,106.516 209.612,106.282 L 209.612,101.595 C 209.534,101.516 209.534,101.438 209.534,101.36 C 209.456,101.36 209.299,101.36 209.221,101.282 L 208.518,101.282 L 208.518,101.048 L 208.909,101.048 C 209.143,101.126 209.377,101.048 209.612,100.891 C 209.768,100.813 209.924,100.657 210.081,100.423 L 210.237,100.423"/>
    <path style="fill: none; fill-opacity:0; stroke-width: 1; stroke-linecap: round; stroke: #000000" d="M 216.799 99.5633 C 216.174,100.188 215.706,100.891 215.471,101.595 C 215.159,102.298 215.002,103.001 215.081,103.782 C 215.002,104.563 215.159,105.345 215.471,106.048 C 215.706,106.751 216.174,107.298 216.799,107.923 L 216.643,108.157 C 215.862,107.532 215.315,106.907 215.002,106.126 C 214.612,105.345 214.456,104.563 214.456,103.782 C 214.456,103.001 214.612,102.22 215.002,101.438 C 215.315,100.735 215.862,100.032 216.643,99.3289 L 216.799,99.5633"/>
    <path style="fill: none; fill-opacity:0; stroke-width: 1; stroke-linecap: round; stroke: #000000" d="M 221.018 99.407 C 221.721,99.8758 222.19,100.11 222.424,100.266 C 222.581,100.501 222.659,100.735 222.737,100.813 C 222.659,100.97 222.581,101.048 222.581,101.204 C 222.424,101.36 222.346,101.438 222.346,101.438 C 222.19,101.438 222.112,101.36 222.034,101.048 C 221.877,100.735 221.487,100.188 220.94,99.5633 L 221.018,99.407"/>
    <path style="fill: none; fill-opacity:0; stroke-width: 1; stroke-linecap: round; stroke: #000000" d="M 218.284 101.595 L 224.846,101.595 L 225.393,101.048 L 226.252,101.829 L 222.502,101.829 L 222.502,104.329 L 224.221,104.329 L 224.768,103.86 L 225.549,104.563 L 222.502,104.563 L 222.502,107.454 L 225.159,107.454 L 225.784,106.829 L 226.643,107.688 L 218.987,107.688 C 218.596,107.61 218.284,107.688 218.049,107.766 L 217.737,107.454 L 221.877,107.454 L 221.877,104.641 L 220.237,104.641 C 219.768,104.72 219.456,104.72 219.299,104.72 L 218.909,104.407 L 221.877,104.407 L 221.877,101.829 L 219.612,101.829 C 219.221,101.907 218.909,101.985 218.674,101.985 L 218.284,101.595"/>
    <path style="fill: none; fill-opacity:0; stroke-width: 1; stroke-linecap: round; stroke: #000000" d="M 236.409 101.907 L 236.096,102.141 C 236.018,104.954 235.862,106.673 235.784,107.141 C 235.627,107.688 235.315,107.923 234.69,108.157 C 234.612,107.845 234.221,107.61 233.518,107.298 L 233.518,107.063 C 233.987,107.22 234.377,107.298 234.768,107.298 C 234.846,107.298 235.002,107.298 235.159,107.22 C 235.237,107.141 235.315,106.829 235.393,106.204 C 235.393,105.657 235.393,104.251 235.549,101.985 L 233.909,101.985 C 233.831,103.079 233.752,103.938 233.596,104.641 C 233.362,105.501 233.049,106.204 232.581,106.673 C 232.034,107.298 231.331,107.766 230.549,108.235 L 230.471,108.157 C 231.252,107.532 231.799,107.063 232.268,106.438 C 232.581,105.97 232.893,105.266 233.127,104.485 C 233.284,103.782 233.362,103.001 233.44,101.985 L 232.737,101.985 L 232.268,102.063 L 231.956,101.751 L 233.44,101.751 C 233.362,100.813 233.362,99.9539 233.44,99.3289 L 234.221,99.7195 L 233.909,99.9539 L 233.909,101.751 L 235.471,101.751 L 235.784,101.438 L 236.409,101.907"/>
    <path style="fill: none; fill-opacity:0; stroke-width: 1; stroke-linecap: round; stroke: #000000" d="M 227.893 100.657 L 230.706,100.657 L 231.174,100.188 L 231.877,100.891 L 229.065,100.891 C 228.752,100.97 228.44,100.97 228.284,100.97 L 227.893,100.657"/>
    <path style="fill: none; fill-opacity:0; stroke-width: 1; stroke-linecap: round; stroke: #000000" d="M 227.581 102.61 L 231.252,102.61 L 231.721,102.141 L 232.424,102.845 L 229.846,102.845 L 230.393,103.313 C 230.081,103.47 229.768,103.86 229.456,104.407 C 228.909,105.11 228.518,105.657 228.206,105.97 L 231.252,105.579 C 230.94,105.11 230.706,104.641 230.471,104.173 L 230.549,104.095 C 231.409,105.032 231.877,105.579 232.034,105.813 C 232.034,106.126 232.034,106.36 231.877,106.438 C 231.721,106.595 231.643,106.595 231.721,106.595 C 231.565,106.595 231.487,106.516 231.565,106.36 C 231.409,106.204 231.331,106.048 231.331,105.813 C 229.377,106.204 228.362,106.516 228.127,106.751 L 227.659,105.97 C 227.971,105.97 228.284,105.501 228.752,104.72 C 229.143,103.938 229.456,103.313 229.612,102.845 L 228.362,102.845 L 227.893,102.923 L 227.581,102.61"/>
    <path style="fill: none; fill-opacity:0; stroke-width: 1; stroke-linecap: round; stroke: #000000" d="M 239.768 99.407 L 239.846,99.3289 C 240.315,99.6414 240.627,99.9539 240.94,100.11 C 241.096,100.423 241.252,100.579 241.331,100.735 C 241.252,100.891 241.174,101.048 241.174,101.204 C 241.018,101.36 241.018,101.438 241.018,101.36 C 240.862,101.438 240.706,101.282 240.706,100.891 C 240.393,100.423 240.081,99.9539 239.768,99.407 L 239.768,99.407"/>
    <path style="fill: none; fill-opacity:0; stroke-width: 1; stroke-linecap: round; stroke: #000000" d="M 242.268 101.907 C 242.19,102.61 242.112,103.313 242.112,104.016 L 245.081,104.016 L 245.627,103.391 L 246.487,104.173 L 242.659,104.173 C 242.815,104.876 243.206,105.501 243.831,106.126 C 244.456,106.751 245.315,107.22 246.487,107.532 L 246.487,107.61 C 246.018,107.61 245.706,107.766 245.627,108.157 C 244.846,107.688 244.221,107.298 243.674,106.751 C 243.049,106.204 242.659,105.345 242.424,104.173 L 242.112,104.173 C 241.799,105.188 241.331,106.048 240.549,106.673 C 239.768,107.376 238.752,107.845 237.581,108.235 L 237.581,108.079 C 238.831,107.532 239.768,106.985 240.393,106.282 C 240.94,105.579 241.331,104.876 241.487,104.173 L 238.831,104.173 C 238.44,104.251 238.127,104.329 237.893,104.329 L 237.581,104.016 L 241.565,104.016 C 241.565,103.47 241.565,102.766 241.643,101.907 L 239.377,101.907 C 238.987,101.907 238.674,101.985 238.44,101.985 L 238.049,101.673 L 242.424,101.673 C 242.581,101.36 242.737,100.97 242.971,100.423 C 243.127,100.032 243.284,99.6414 243.362,99.2508 L 244.299,99.8758 L 243.831,100.032 C 243.362,100.735 242.971,101.282 242.737,101.673 L 244.69,101.673 L 245.237,101.126 L 246.018,101.907 L 242.268,101.907"/>
    <path style="fill: none; fill-opacity:0; stroke-width: 1; stroke-linecap: round; stroke: #000000" d="M 252.346 102.532 C 252.346,101.985 252.346,101.36 252.346,100.735 L 253.284,101.204 L 252.893,101.438 L 252.893,102.532 L 253.831,102.532 L 254.221,102.063 L 254.924,102.766 L 252.893,102.766 L 252.893,106.36 C 252.815,106.673 252.737,106.907 252.659,106.985 C 252.424,107.141 252.19,107.22 252.034,107.22 C 251.877,106.985 251.565,106.751 251.018,106.438 L 251.018,106.282 C 251.409,106.438 251.721,106.516 251.956,106.438 C 252.19,106.516 252.346,106.36 252.346,106.048 L 252.346,102.923 C 251.565,104.407 250.471,105.501 249.143,106.282 L 249.143,106.126 C 250.393,105.11 251.331,104.016 251.877,102.766 L 250.627,102.766 C 250.159,102.845 249.846,102.845 249.69,102.845 L 249.377,102.532 L 252.346,102.532"/>
    <path style="fill: none; fill-opacity:0; stroke-width: 1; stroke-linecap: round; stroke: #000000" d="M 248.909 101.048 L 248.909,106.516 C 248.831,106.985 248.831,107.376 248.909,107.766 L 248.284,108.079 C 248.284,106.751 248.362,105.423 248.362,103.938 C 248.362,102.454 248.284,101.282 248.284,100.345 L 249.221,100.813 L 248.909,101.048"/>
    <path style="fill: none; fill-opacity:0; stroke-width: 1; stroke-linecap: round; stroke: #000000" d="M 253.596 107.298 L 253.596,107.141 C 254.377,107.298 254.846,107.298 254.924,107.298 C 255.002,107.298 255.002,107.22 255.081,106.907 L 255.081,100.423 L 252.346,100.423 C 251.956,100.501 251.643,100.501 251.409,100.501 L 251.018,100.188 L 255.002,100.188 L 255.393,99.7195 L 256.018,100.345 L 255.627,100.579 L 255.627,107.141 C 255.627,107.454 255.549,107.532 255.471,107.688 C 255.315,107.766 255.081,107.923 254.768,108.079 C 254.534,107.688 254.143,107.454 253.596,107.298 L 253.596,107.298"/>
    <path style="fill: none; fill-opacity:0; stroke-width: 1; stroke-linecap: round; stroke: #000000" d="M 249.143 99.2508 C 249.69,99.6414 250.081,99.8758 250.237,99.9539 C 250.315,100.188 250.315,100.345 250.393,100.345 C 250.315,100.579 250.315,100.735 250.237,100.813 C 250.081,100.97 250.002,100.97 250.081,100.97 C 249.924,100.97 249.846,100.891 249.846,100.579 C 249.612,100.266 249.377,99.7976 249.065,99.3289 L 249.143,99.2508"/>
    <path style="fill: none; fill-opacity:0; stroke-width: 1; stroke-linecap: round; stroke: #000000" d="M 257.19 99.5633 L 257.424,99.3289 C 258.049,100.032 258.596,100.735 259.065,101.438 C 259.377,102.22 259.612,103.001 259.612,103.782 C 259.612,104.563 259.377,105.345 259.065,106.126 C 258.596,106.907 258.049,107.532 257.424,108.157 L 257.19,107.923 C 257.737,107.298 258.206,106.751 258.518,106.048 C 258.752,105.345 258.909,104.563 258.987,103.782 C 258.909,103.001 258.752,102.298 258.518,101.595 C 258.206,100.891 257.737,100.188 257.19,99.5633 L 257.19,99.5633"/>
  </g>
  <g>
    <path style="fill: none; fill-opacity:0; stroke-width: 1; stroke-linecap: round; stroke: #000000" d="M 470.788 159.07 C 470.007,159.148 469.46,158.913 469.069,158.288 C 468.6,157.82 468.366,156.96 468.444,155.71 C 468.366,154.773 468.6,153.913 469.069,153.288 C 469.538,152.663 470.163,152.351 470.944,152.351 C 471.1,152.351 471.257,152.429 471.491,152.429 C 471.569,152.585 471.725,152.585 471.96,152.507 C 472.038,152.585 472.116,152.585 472.194,152.507 C 472.194,152.507 472.272,152.429 472.35,152.351 L 472.741,153.991 L 472.507,154.07 C 472.272,153.679 472.116,153.288 471.882,152.976 C 471.569,152.741 471.179,152.585 470.866,152.585 C 470.241,152.585 469.85,152.898 469.616,153.523 C 469.225,154.148 469.069,154.929 469.147,155.71 C 469.069,156.726 469.225,157.429 469.538,157.976 C 469.772,158.523 470.163,158.835 470.866,158.757 C 471.179,158.835 471.569,158.679 471.882,158.288 C 472.194,158.054 472.35,157.663 472.507,157.116 L 472.741,157.195 C 472.507,157.82 472.272,158.288 471.96,158.601 C 471.569,158.991 471.179,159.148 470.788,159.07 L 470.788,159.07"/>
    <path style="fill: none; fill-opacity:0; stroke-width: 1; stroke-linecap: round; stroke: #000000" d="M 474.616 158.445 C 474.538,158.601 474.616,158.679 474.694,158.679 C 474.694,158.757 474.772,158.835 474.929,158.757 L 476.022,158.757 C 476.257,158.835 476.569,158.679 476.882,158.445 C 477.116,158.288 477.35,157.976 477.507,157.429 L 477.663,157.507 L 477.35,158.991 L 473.366,158.991 L 473.366,158.757 L 473.6,158.757 C 473.679,158.835 473.757,158.757 473.913,158.679 C 473.913,158.679 473.991,158.601 473.991,158.445 L 473.991,152.898 C 473.991,152.898 473.913,152.82 473.913,152.741 C 473.757,152.741 473.679,152.741 473.6,152.663 L 473.366,152.663 L 473.366,152.429 L 475.241,152.429 L 475.241,152.663 L 474.929,152.663 C 474.772,152.741 474.694,152.741 474.694,152.741 C 474.616,152.82 474.538,152.898 474.616,152.898 L 474.616,158.445"/>
    <path style="fill: none; fill-opacity:0; stroke-width: 1; stroke-linecap: round; stroke: #000000" d="M 479.069 155.71 C 478.991,156.882 479.147,157.663 479.46,158.132 C 479.694,158.679 480.007,158.913 480.475,158.835 C 480.788,158.913 481.179,158.679 481.491,158.132 C 481.725,157.741 481.804,156.96 481.882,155.71 C 481.804,154.851 481.725,154.07 481.569,153.445 C 481.335,152.898 480.944,152.585 480.475,152.585 C 480.007,152.585 479.694,152.898 479.46,153.366 C 479.147,153.991 478.991,154.773 479.069,155.71 L 479.069,155.71"/>
    <path style="fill: none; fill-opacity:0; stroke-width: 1; stroke-linecap: round; stroke: #000000" d="M 482.663 155.71 C 482.663,156.804 482.429,157.585 482.038,158.21 C 481.569,158.835 481.022,159.148 480.475,159.07 C 479.85,159.148 479.382,158.835 478.913,158.132 C 478.444,157.585 478.21,156.804 478.288,155.71 C 478.21,154.773 478.444,153.913 478.913,153.288 C 479.304,152.663 479.772,152.351 480.475,152.351 C 481.1,152.351 481.647,152.741 482.038,153.366 C 482.429,154.07 482.663,154.851 482.663,155.71 L 482.663,155.71"/>
    <path style="fill: none; fill-opacity:0; stroke-width: 1; stroke-linecap: round; stroke: #000000" d="M 485.319 155.866 C 484.538,155.554 483.991,155.32 483.835,155.085 C 483.522,154.851 483.444,154.46 483.444,153.913 C 483.444,153.601 483.6,153.288 483.913,152.898 C 484.225,152.585 484.694,152.351 485.319,152.351 C 485.554,152.351 485.788,152.429 486.1,152.429 C 486.257,152.585 486.413,152.585 486.569,152.585 C 486.569,152.585 486.647,152.585 486.725,152.585 C 486.804,152.585 486.882,152.507 486.96,152.351 L 487.116,153.913 L 486.882,153.991 C 486.569,153.445 486.335,153.132 486.179,152.898 C 485.866,152.741 485.554,152.585 485.241,152.585 C 484.694,152.585 484.382,152.741 484.225,152.976 C 483.991,153.288 483.913,153.601 483.991,153.835 C 483.913,154.226 483.991,154.46 484.225,154.538 C 484.304,154.773 484.772,155.007 485.632,155.32 C 486.179,155.554 486.569,155.866 486.882,156.179 C 487.116,156.57 487.272,156.882 487.35,157.273 C 487.272,157.741 487.116,158.21 486.804,158.523 C 486.413,158.991 485.944,159.148 485.475,159.07 C 485.163,159.148 484.929,159.07 484.772,158.913 C 484.46,158.913 484.304,158.913 484.225,158.835 C 484.069,158.913 483.991,158.913 483.913,158.913 C 483.835,158.991 483.757,159.07 483.679,159.07 L 483.366,157.195 L 483.6,157.116 C 483.757,157.82 484.069,158.21 484.382,158.445 C 484.694,158.757 485.007,158.913 485.475,158.835 C 485.788,158.913 486.1,158.757 486.413,158.445 C 486.569,158.21 486.725,157.82 486.804,157.273 C 486.725,157.038 486.569,156.804 486.413,156.57 C 486.1,156.335 485.788,156.101 485.319,155.866 L 485.319,155.866"/>
    <path style="fill: none; fill-opacity:0; stroke-width: 1; stroke-linecap: round; stroke: #000000" d="M 488.835 152.663 L 488.835,152.429 L 491.882,152.429 L 491.882,152.663 L 491.022,152.663 C 490.866,152.741 490.788,152.741 490.788,152.741 C 490.71,152.82 490.71,152.898 490.71,152.898 L 490.71,158.445 C 490.71,158.601 490.71,158.679 490.788,158.679 C 490.788,158.757 490.866,158.835 491.022,158.757 L 491.882,158.757 L 491.882,158.991 L 488.835,158.991 L 488.835,158.757 L 489.694,158.757 C 489.772,158.835 489.929,158.757 490.007,158.679 C 490.007,158.679 490.007,158.601 490.085,158.445 L 490.085,152.898 C 490.007,152.898 490.007,152.82 490.007,152.741 C 489.929,152.741 489.772,152.741 489.694,152.663 L 488.835,152.663"/>
    <path style="fill: none; fill-opacity:0; stroke-width: 1; stroke-linecap: round; stroke: #000000" d="M 496.725 157.507 L 496.804,157.507 L 496.804,152.976 C 496.804,152.898 496.725,152.82 496.725,152.741 C 496.569,152.741 496.491,152.741 496.413,152.663 L 496.1,152.663 L 496.1,152.429 L 497.663,152.429 L 497.663,152.663 L 497.35,152.663 C 497.194,152.741 497.116,152.741 497.116,152.741 C 497.038,152.82 497.038,152.898 497.038,152.898 L 497.038,158.991 L 496.804,158.991 L 493.835,153.21 L 493.757,153.21 L 493.757,158.445 C 493.757,158.601 493.757,158.679 493.835,158.679 C 493.913,158.757 493.991,158.835 494.147,158.757 L 494.46,158.757 L 494.46,158.991 L 492.897,158.991 L 492.897,158.757 L 493.21,158.757 C 493.21,158.835 493.288,158.757 493.444,158.679 C 493.444,158.679 493.522,158.601 493.522,158.445 L 493.522,152.898 C 493.522,152.898 493.444,152.82 493.444,152.741 C 493.288,152.741 493.21,152.741 493.21,152.663 L 492.975,152.663 L 492.975,152.429 L 494.069,152.429 L 496.725,157.507"/>
    <path style="fill: none; fill-opacity:0; stroke-width: 1; stroke-linecap: round; stroke: #000000" d="M 500.241 152.585 C 499.772,152.585 499.46,152.898 499.147,153.366 C 498.835,153.991 498.679,154.773 498.679,155.788 C 498.679,156.57 498.757,157.273 499.069,157.898 C 499.225,158.601 499.694,158.913 500.319,158.835 C 500.554,158.913 500.71,158.835 500.944,158.679 C 501.022,158.523 501.179,158.366 501.257,158.132 L 501.257,156.804 C 501.257,156.648 501.179,156.57 501.1,156.491 C 501.022,156.413 500.944,156.335 500.788,156.335 L 500.554,156.335 L 500.554,156.101 L 502.507,156.101 L 502.507,156.335 L 502.272,156.335 C 502.116,156.335 502.038,156.413 501.96,156.491 C 501.882,156.57 501.804,156.648 501.882,156.726 L 501.882,158.679 C 501.725,158.679 501.725,158.679 501.725,158.679 C 501.647,158.679 501.569,158.679 501.569,158.601 C 501.491,158.679 501.413,158.679 501.413,158.679 C 501.257,158.679 501.257,158.757 501.257,158.757 C 501.1,158.913 500.944,158.991 500.788,158.991 C 500.632,159.148 500.397,159.148 500.241,159.07 C 499.382,159.148 498.835,158.835 498.522,158.054 C 498.132,157.429 497.975,156.648 497.975,155.788 C 497.975,154.929 498.132,154.148 498.6,153.366 C 498.991,152.741 499.538,152.351 500.241,152.351 C 500.319,152.351 500.554,152.429 500.788,152.429 C 500.944,152.585 501.022,152.585 501.179,152.585 C 501.179,152.585 501.257,152.585 501.335,152.507 C 501.413,152.507 501.491,152.429 501.569,152.351 L 501.882,154.07 L 501.647,154.148 C 501.413,153.601 501.257,153.21 501.1,152.976 C 500.866,152.741 500.554,152.585 500.241,152.585 L 500.241,152.585"/>
  </g>
  <g>
    <path style="fill: none; fill-opacity:0; stroke-width: 1; stroke-linecap: round; stroke: #000000" d="M 219.683 250.067 L 217.652,250.067 L 217.652,249.832 L 218.042,249.832 C 218.042,249.911 218.12,249.832 218.277,249.754 C 218.277,249.754 218.355,249.676 218.355,249.52 L 218.355,244.129 C 218.355,243.973 218.277,243.895 218.277,243.817 C 218.199,243.817 218.12,243.817 218.042,243.739 C 217.574,243.817 217.339,243.895 217.261,243.973 C 217.027,244.129 216.87,244.442 216.714,244.989 L 216.48,244.911 L 216.87,243.504 L 220.542,243.504 L 220.855,244.911 L 220.62,244.989 C 220.308,244.442 220.152,244.129 220.152,243.973 C 219.995,243.895 219.761,243.817 219.449,243.739 C 219.136,243.817 218.98,243.817 218.98,243.817 C 218.902,243.895 218.902,243.973 218.98,244.129 L 218.98,249.52 C 218.902,249.676 218.98,249.754 219.058,249.754 C 219.136,249.832 219.214,249.911 219.37,249.832 L 219.683,249.832 L 219.683,250.067"/>
    <path style="fill: none; fill-opacity:0; stroke-width: 1; stroke-linecap: round; stroke: #000000" d="M 222.105 243.739 L 222.105,243.504 L 225.152,243.504 L 225.152,243.739 L 224.292,243.739 C 224.136,243.817 224.058,243.817 224.058,243.817 C 223.98,243.895 223.98,243.973 223.98,243.973 L 223.98,249.52 C 223.98,249.676 223.98,249.754 224.058,249.754 C 224.058,249.832 224.136,249.911 224.292,249.832 L 225.152,249.832 L 225.152,250.067 L 222.105,250.067 L 222.105,249.832 L 222.964,249.832 C 223.042,249.911 223.199,249.832 223.277,249.754 C 223.277,249.754 223.277,249.676 223.355,249.52 L 223.355,243.973 C 223.277,243.973 223.277,243.895 223.277,243.817 C 223.199,243.817 223.042,243.817 222.964,243.739 L 222.105,243.739"/>
    <path style="fill: none; fill-opacity:0; stroke-width: 1; stroke-linecap: round; stroke: #000000" d="M 230.386 249.52 C 230.308,249.676 230.308,249.754 230.464,249.754 C 230.464,249.832 230.62,249.911 230.777,249.832 L 230.933,249.832 L 230.933,250.067 L 229.214,250.067 L 229.214,249.832 L 229.449,249.832 C 229.527,249.911 229.605,249.832 229.683,249.754 C 229.683,249.754 229.683,249.676 229.761,249.52 L 229.761,244.52 L 229.683,244.52 L 228.433,250.067 L 228.199,250.067 L 226.949,244.598 L 226.87,244.598 L 226.87,249.52 C 226.792,249.676 226.792,249.754 226.949,249.754 C 226.949,249.832 227.105,249.911 227.261,249.832 L 227.339,249.832 L 227.339,250.067 L 226.167,250.067 L 226.167,249.832 L 226.324,249.832 C 226.402,249.911 226.48,249.832 226.558,249.754 C 226.558,249.754 226.558,249.676 226.636,249.52 L 226.636,243.973 C 226.558,243.973 226.558,243.895 226.558,243.817 C 226.48,243.817 226.402,243.817 226.324,243.739 L 226.167,243.739 L 226.167,243.504 L 227.261,243.504 L 228.433,248.582 L 228.511,248.582 L 229.683,243.504 L 230.933,243.504 L 230.933,243.739 L 230.777,243.739 C 230.62,243.817 230.464,243.817 230.464,243.817 C 230.308,243.895 230.308,243.973 230.386,243.973 L 230.386,249.52"/>
    <path style="fill: none; fill-opacity:0; stroke-width: 1; stroke-linecap: round; stroke: #000000" d="M 231.402 243.739 L 231.402,243.504 L 235.152,243.504 L 235.62,244.754 L 235.386,244.832 C 235.152,244.52 234.917,244.286 234.683,244.051 C 234.449,243.895 234.214,243.817 233.98,243.739 L 232.886,243.739 C 232.73,243.817 232.652,243.817 232.652,243.817 C 232.495,243.895 232.495,243.973 232.574,243.973 L 232.574,246.395 L 233.667,246.395 C 233.902,246.473 234.058,246.395 234.214,246.239 C 234.292,246.082 234.37,245.926 234.37,245.614 L 234.37,245.379 L 234.605,245.379 L 234.605,247.645 L 234.37,247.645 L 234.37,247.489 C 234.37,247.332 234.292,247.098 234.214,246.864 C 234.058,246.786 233.902,246.707 233.667,246.629 L 232.574,246.629 L 232.574,249.52 C 232.495,249.676 232.495,249.754 232.652,249.754 C 232.652,249.832 232.73,249.911 232.886,249.832 L 233.902,249.832 C 234.214,249.911 234.527,249.754 234.839,249.52 C 235.152,249.364 235.386,249.051 235.542,248.504 L 235.699,248.582 L 235.308,250.067 L 231.324,250.067 L 231.324,249.832 L 231.558,249.832 C 231.714,249.911 231.792,249.832 231.87,249.754 C 231.87,249.754 231.87,249.676 231.949,249.52 L 231.949,243.973 C 231.87,243.973 231.87,243.895 231.87,243.817 C 231.792,243.817 231.714,243.817 231.558,243.739 L 231.402,243.739"/>
    <path style="fill: none; fill-opacity:0; stroke-width: 1; stroke-linecap: round; stroke: #000000" d="M 236.011 251.551 L 236.011,251.317 L 240.933,251.317 L 240.933,251.551 L 236.011,251.551"/>
    <path style="fill: none; fill-opacity:0; stroke-width: 1; stroke-linecap: round; stroke: #000000" d="M 245.777 243.504 L 245.777,243.739 L 245.62,243.739 C 245.542,243.817 245.464,243.817 245.464,243.817 C 245.386,243.895 245.308,243.973 245.308,244.051 L 244.292,250.067 L 244.058,250.067 L 243.433,246.004 L 243.355,246.004 L 242.574,250.067 L 242.339,250.067 L 241.402,243.973 C 241.402,243.973 241.324,243.895 241.324,243.817 C 241.167,243.817 241.167,243.817 241.167,243.739 L 241.011,243.739 L 241.011,243.504 L 242.339,243.504 L 242.339,243.739 L 242.261,243.739 C 242.105,243.817 242.027,243.817 242.027,243.817 C 241.87,243.895 241.87,243.973 241.949,243.973 L 242.574,248.27 L 242.652,248.27 L 243.277,245.067 L 243.199,243.973 C 243.12,243.973 243.12,243.895 243.042,243.817 C 242.964,243.817 242.886,243.817 242.886,243.739 L 242.808,243.739 L 242.808,243.504 L 244.058,243.504 L 244.058,243.739 L 243.98,243.739 C 243.824,243.817 243.745,243.817 243.745,243.817 C 243.745,243.895 243.745,243.973 243.745,243.973 L 244.292,248.114 L 244.37,248.114 L 245.074,244.051 C 244.995,243.973 244.995,243.895 244.995,243.817 C 244.917,243.817 244.839,243.817 244.761,243.739 L 244.605,243.739 L 244.605,243.504 L 245.777,243.504"/>
    <path style="fill: none; fill-opacity:0; stroke-width: 1; stroke-linecap: round; stroke: #000000" d="M 248.98 247.567 L 247.261,247.567 L 246.87,249.051 C 246.792,249.207 246.792,249.364 246.87,249.364 C 246.792,249.52 246.792,249.598 246.87,249.676 C 246.87,249.832 247.027,249.911 247.261,249.832 L 247.339,249.832 L 247.339,250.067 L 245.933,250.067 L 245.933,249.832 L 246.011,249.832 C 246.011,249.911 246.089,249.832 246.245,249.754 C 246.245,249.754 246.324,249.676 246.48,249.442 L 247.964,243.504 L 248.589,243.348 L 249.995,249.442 C 249.995,249.676 250.074,249.754 250.152,249.754 C 250.23,249.832 250.308,249.911 250.464,249.832 L 250.62,249.832 L 250.62,250.067 L 248.98,250.067 L 248.98,249.832 L 249.058,249.832 C 249.136,249.911 249.214,249.832 249.292,249.754 C 249.292,249.754 249.37,249.754 249.37,249.598 C 249.37,249.598 249.37,249.442 249.37,249.286 L 248.98,247.567"/>
    <path style="fill: none; fill-opacity:0; stroke-width: 1; stroke-linecap: round; stroke: #000000" d="M 248.199 244.129 L 248.12,244.129 L 247.339,247.332 L 248.98,247.332 L 248.199,244.129"/>
    <path style="fill: none; fill-opacity:0; stroke-width: 1; stroke-linecap: round; stroke: #000000" d="M 251.792 243.739 L 251.792,243.504 L 254.839,243.504 L 254.839,243.739 L 253.98,243.739 C 253.824,243.817 253.745,243.817 253.745,243.817 C 253.667,243.895 253.667,243.973 253.667,243.973 L 253.667,249.52 C 253.667,249.676 253.667,249.754 253.745,249.754 C 253.745,249.832 253.824,249.911 253.98,249.832 L 254.839,249.832 L 254.839,250.067 L 251.792,250.067 L 251.792,249.832 L 252.652,249.832 C 252.73,249.911 252.886,249.832 252.964,249.754 C 252.964,249.754 252.964,249.676 253.042,249.52 L 253.042,243.973 C 252.964,243.973 252.964,243.895 252.964,243.817 C 252.886,243.817 252.73,243.817 252.652,243.739 L 251.792,243.739"/>
    <path style="fill: none; fill-opacity:0; stroke-width: 1; stroke-linecap: round; stroke: #000000" d="M 259.214 250.067 L 257.183,250.067 L 257.183,249.832 L 257.574,249.832 C 257.574,249.911 257.652,249.832 257.808,249.754 C 257.808,249.754 257.886,249.676 257.886,249.52 L 257.886,244.129 C 257.886,243.973 257.808,243.895 257.808,243.817 C 257.73,243.817 257.652,243.817 257.574,243.739 C 257.105,243.817 256.87,243.895 256.792,243.973 C 256.558,244.129 256.402,244.442 256.245,244.989 L 256.011,244.911 L 256.402,243.504 L 260.074,243.504 L 260.386,244.911 L 260.152,244.989 C 259.839,244.442 259.683,244.129 259.683,243.973 C 259.527,243.895 259.292,243.817 258.98,243.739 C 258.667,243.817 258.511,243.817 258.511,243.817 C 258.433,243.895 258.433,243.973 258.511,244.129 L 258.511,249.52 C 258.433,249.676 258.511,249.754 258.589,249.754 C 258.667,249.832 258.745,249.911 258.902,249.832 L 259.214,249.832 L 259.214,250.067"/>
  </g>
  <g>
    <line style="fill: none; fill-opacity:0; stroke-width: 1; stroke: #000000" x1="463.543" y1="179.141" x2="271.072" y2="246.109"/>
    <polygon style="fill: #000000" points="270.086,243.276 265.405,248.081 272.058,248.943 "/>
    <polygon style="fill: none; fill-opacity:0; stroke-width: 1; stroke: #000000" points="270.086,243.276 265.405,248.081 272.058,248.943 "/>
  </g>
  <g>
    <path style="fill: none; fill-opacity:0; stroke-width: 1; stroke-linecap: round; stroke: #000000" d="M 383.417 196.043 C 382.856,196.097 382.47,196.156 382.195,196.008 C 381.882,195.929 381.75,195.681 381.654,195.363 C 381.595,194.977 381.711,194.596 381.933,194.183 C 382.292,193.844 382.969,193.409 384.1,192.952 L 384.01,192.46 C 383.84,192.281 383.845,192.106 383.675,191.926 C 383.538,191.852 383.188,191.842 382.839,191.832 C 382.379,192.029 382.131,192.161 381.951,192.331 C 381.84,192.537 381.835,192.712 381.904,192.749 C 382.005,192.892 382.005,192.892 382.005,192.892 C 381.968,192.961 382,193.066 381.963,193.135 C 381.995,193.241 381.889,193.273 381.714,193.268 C 381.64,193.406 381.535,193.437 381.434,193.295 C 381.328,193.327 381.296,193.221 381.301,193.046 C 381.306,192.872 381.417,192.665 381.602,192.321 C 381.924,192.051 382.247,191.78 382.67,191.653 C 383.23,191.599 383.649,191.646 383.929,191.619 C 384.204,191.767 384.374,191.946 384.538,192.301 L 385.166,194.765 C 385.124,195.009 385.225,195.152 385.331,195.12 C 385.294,195.189 385.294,195.189 385.506,195.125 C 385.506,195.125 385.648,195.024 385.722,194.886 C 385.69,194.781 385.658,194.675 385.7,194.431 L 385.843,194.331 C 385.902,194.717 385.929,194.997 385.855,195.135 C 385.744,195.341 385.601,195.442 385.427,195.437 C 385.215,195.501 385.041,195.496 384.972,195.459 C 384.797,195.454 384.696,195.311 384.701,195.137 C 384.416,195.338 384.199,195.576 384.125,195.714 C 383.84,195.916 383.628,195.979 383.417,196.043 L 383.417,196.043"/>
    <path style="fill: none; fill-opacity:0; stroke-width: 1; stroke-linecap: round; stroke: #000000" d="M 382.326 195.103 C 382.352,195.383 382.416,195.595 382.623,195.706 C 382.792,195.885 383.073,195.859 383.39,195.763 C 383.602,195.699 383.744,195.598 383.993,195.466 C 384.067,195.328 384.315,195.195 384.638,194.925 L 384.164,193.164 C 383.281,193.488 382.816,193.859 382.562,194.166 C 382.309,194.473 382.23,194.786 382.326,195.103 L 382.326,195.103"/>
    <path style="fill: none; fill-opacity:0; stroke-width: 1; stroke-linecap: round; stroke: #000000" d="M 388.659 191.231 C 388.59,191.194 388.627,191.125 388.664,191.056 C 388.664,191.056 388.664,191.056 388.669,190.882 C 388.669,190.882 388.637,190.776 388.43,190.665 C 388.293,190.591 388.049,190.549 387.7,190.539 C 387.415,190.741 387.092,191.011 386.908,191.355 C 386.718,191.874 386.703,192.398 386.899,192.858 C 387.091,193.493 387.324,193.884 387.562,194.101 C 387.833,194.423 388.251,194.47 388.849,194.347 C 389.166,194.252 389.414,194.119 389.599,193.775 C 389.747,193.499 389.863,193.118 389.942,192.806 L 390.116,192.811 C 390.069,193.229 389.953,193.61 389.769,193.954 C 389.584,194.299 389.193,194.532 388.77,194.66 C 388.135,194.851 387.648,194.767 387.272,194.477 C 386.79,194.218 386.525,193.721 386.301,192.981 C 386.179,192.383 386.263,191.896 386.489,191.308 C 386.711,190.895 387.107,190.487 387.742,190.296 C 388.165,190.168 388.583,190.215 388.859,190.363 C 389.134,190.511 389.198,190.722 389.33,190.971 C 389.325,191.145 389.357,191.251 389.32,191.32 C 389.283,191.389 389.178,191.421 389.072,191.453 C 388.966,191.485 388.897,191.448 388.828,191.411 C 388.691,191.337 388.622,191.3 388.659,191.231 L 388.659,191.231"/>
    <path style="fill: none; fill-opacity:0; stroke-width: 1; stroke-linecap: round; stroke: #000000" d="M 392.838 190.548 L 394.883,192.354 C 394.846,192.423 394.878,192.529 395.053,192.534 C 395.053,192.534 395.158,192.502 395.333,192.507 L 395.508,192.512 L 395.571,192.724 L 394.022,193.133 L 393.958,192.922 L 394.064,192.89 C 394.101,192.821 394.206,192.789 394.312,192.757 C 394.243,192.72 394.211,192.614 394.248,192.546 L 392.579,191.03 L 392.062,191.993 L 392.312,193.014 C 392.344,193.12 392.413,193.157 392.482,193.194 C 392.551,193.231 392.62,193.268 392.725,193.236 L 392.937,193.172 L 393.001,193.384 L 391.414,193.862 L 391.387,193.582 L 391.562,193.587 C 391.562,193.587 391.668,193.555 391.742,193.417 C 391.742,193.417 391.71,193.311 391.784,193.174 L 390.4,187.821 C 390.331,187.784 390.262,187.747 390.23,187.641 C 390.193,187.71 390.125,187.673 389.987,187.599 L 389.775,187.663 L 389.711,187.452 L 390.029,187.356 C 390.203,187.361 390.309,187.329 390.383,187.191 C 390.558,187.196 390.632,187.059 390.637,186.884 L 391.935,191.57 L 393.043,189.505 C 393.08,189.436 393.117,189.367 393.085,189.261 C 393.085,189.261 392.979,189.293 392.841,189.219 L 392.63,189.283 L 392.566,189.072 L 394.153,188.593 L 394.179,188.874 L 394.005,188.869 C 393.899,188.9 393.862,188.969 393.756,189.001 C 393.682,189.139 393.609,189.277 393.503,189.308 L 392.838,190.548"/>
    <path style="fill: none; fill-opacity:0; stroke-width: 1; stroke-linecap: round; stroke: #000000" d="M 401.777 184.793 C 401.708,184.756 401.676,184.651 401.607,184.614 C 401.607,184.614 401.502,184.646 401.327,184.641 L 400.412,184.859 L 400.385,184.579 L 403.448,183.828 L 403.511,184.039 L 402.596,184.258 C 402.559,184.327 402.523,184.395 402.417,184.427 C 402.343,184.565 402.306,184.634 402.375,184.671 L 403.795,189.955 C 403.849,190.516 403.765,191.002 403.58,191.347 C 403.184,191.755 402.862,192.025 402.402,192.221 C 402.016,192.28 401.703,192.201 401.46,192.159 C 401.253,192.049 401.116,191.975 401.052,191.763 C 400.951,191.62 400.919,191.515 401.062,191.414 C 401.03,191.308 401.136,191.276 401.347,191.212 C 401.416,191.249 401.522,191.217 401.66,191.291 C 401.728,191.328 401.76,191.434 401.898,191.508 C 401.824,191.646 401.893,191.682 401.893,191.682 C 401.856,191.751 401.819,191.82 401.819,191.82 C 401.851,191.926 401.92,191.963 402.094,191.968 C 402.163,192.005 402.269,191.973 402.481,191.909 C 402.729,191.777 402.978,191.644 403.194,191.405 C 403.236,191.162 403.214,190.707 403.198,190.077 L 401.777,184.793"/>
    <path style="fill: none; fill-opacity:0; stroke-width: 1; stroke-linecap: round; stroke: #000000" d="M 406.705 186.019 L 406.136,183.94 L 406.453,183.845 L 407.022,185.923 L 408.889,185.418 L 408.985,185.735 L 407.118,186.241 L 407.65,188.388 L 407.333,188.484 L 406.801,186.336 L 404.934,186.842 L 404.838,186.524 L 406.705,186.019"/>
    <path style="fill: none; fill-opacity:0; stroke-width: 1; stroke-linecap: round; stroke: #000000" d="M 411.133 181.568 L 412.612,187.238 C 412.57,187.481 412.671,187.624 412.914,187.666 C 412.983,187.703 413.226,187.745 413.544,187.649 L 413.861,187.554 L 413.925,187.765 L 411.212,188.526 L 411.148,188.314 L 411.465,188.218 C 411.677,188.155 411.819,188.054 411.999,187.884 C 411.967,187.779 412.041,187.641 412.083,187.397 L 410.849,182.923 C 410.886,182.854 410.817,182.817 410.716,182.674 C 410.679,182.743 410.542,182.669 410.367,182.664 L 409.732,182.856 L 409.668,182.644 L 409.986,182.548 C 410.335,182.558 410.584,182.426 410.694,182.219 C 410.906,182.155 411.017,181.949 410.99,181.669 L 411.133,181.568"/>
  </g>
  <g>
    <path style="fill: none; fill-opacity:0; stroke-width: 1; stroke-linecap: round; stroke: #000000" d="M 227.547 167.165 C 226.765,167.243 226.218,167.009 225.828,166.384 C 225.359,165.915 225.125,165.056 225.203,163.806 C 225.125,162.868 225.359,162.009 225.828,161.384 C 226.297,160.759 226.922,160.447 227.703,160.447 C 227.859,160.447 228.015,160.525 228.25,160.525 C 228.328,160.681 228.484,160.681 228.718,160.603 C 228.797,160.681 228.875,160.681 228.953,160.603 C 228.953,160.603 229.031,160.525 229.109,160.447 L 229.5,162.087 L 229.265,162.165 C 229.031,161.775 228.875,161.384 228.64,161.072 C 228.328,160.837 227.937,160.681 227.625,160.681 C 227,160.681 226.609,160.993 226.375,161.618 C 225.984,162.243 225.828,163.025 225.906,163.806 C 225.828,164.822 225.984,165.525 226.297,166.072 C 226.531,166.618 226.922,166.931 227.625,166.853 C 227.937,166.931 228.328,166.775 228.64,166.384 C 228.953,166.15 229.109,165.759 229.265,165.212 L 229.5,165.29 C 229.265,165.915 229.031,166.384 228.718,166.697 C 228.328,167.087 227.937,167.243 227.547,167.165 L 227.547,167.165"/>
    <path style="fill: none; fill-opacity:0; stroke-width: 1; stroke-linecap: round; stroke: #000000" d="M 231.375 166.54 C 231.297,166.697 231.375,166.775 231.453,166.775 C 231.453,166.853 231.531,166.931 231.687,166.853 L 232.781,166.853 C 233.015,166.931 233.328,166.775 233.64,166.54 C 233.875,166.384 234.109,166.072 234.265,165.525 L 234.422,165.603 L 234.109,167.087 L 230.125,167.087 L 230.125,166.853 L 230.359,166.853 C 230.437,166.931 230.515,166.853 230.672,166.775 C 230.672,166.775 230.75,166.697 230.75,166.54 L 230.75,160.993 C 230.75,160.993 230.672,160.915 230.672,160.837 C 230.515,160.837 230.437,160.837 230.359,160.759 L 230.125,160.759 L 230.125,160.525 L 232,160.525 L 232,160.759 L 231.687,160.759 C 231.531,160.837 231.453,160.837 231.453,160.837 C 231.375,160.915 231.297,160.993 231.375,160.993 L 231.375,166.54"/>
    <path style="fill: none; fill-opacity:0; stroke-width: 1; stroke-linecap: round; stroke: #000000" d="M 235.828 163.806 C 235.75,164.978 235.906,165.759 236.218,166.228 C 236.453,166.775 236.765,167.009 237.234,166.931 C 237.547,167.009 237.937,166.775 238.25,166.228 C 238.484,165.837 238.562,165.056 238.64,163.806 C 238.562,162.947 238.484,162.165 238.328,161.54 C 238.093,160.993 237.703,160.681 237.234,160.681 C 236.765,160.681 236.453,160.993 236.218,161.462 C 235.906,162.087 235.75,162.868 235.828,163.806 L 235.828,163.806"/>
    <path style="fill: none; fill-opacity:0; stroke-width: 1; stroke-linecap: round; stroke: #000000" d="M 239.422 163.806 C 239.422,164.9 239.187,165.681 238.797,166.306 C 238.328,166.931 237.781,167.243 237.234,167.165 C 236.609,167.243 236.14,166.931 235.672,166.228 C 235.203,165.681 234.968,164.9 235.047,163.806 C 234.968,162.868 235.203,162.009 235.672,161.384 C 236.062,160.759 236.531,160.447 237.234,160.447 C 237.859,160.447 238.406,160.837 238.797,161.462 C 239.187,162.165 239.422,162.947 239.422,163.806 L 239.422,163.806"/>
    <path style="fill: none; fill-opacity:0; stroke-width: 1; stroke-linecap: round; stroke: #000000" d="M 242.078 163.962 C 241.297,163.65 240.75,163.415 240.593,163.181 C 240.281,162.947 240.203,162.556 240.203,162.009 C 240.203,161.697 240.359,161.384 240.672,160.993 C 240.984,160.681 241.453,160.447 242.078,160.447 C 242.312,160.447 242.547,160.525 242.859,160.525 C 243.015,160.681 243.172,160.681 243.328,160.681 C 243.328,160.681 243.406,160.681 243.484,160.681 C 243.562,160.681 243.64,160.603 243.718,160.447 L 243.875,162.009 L 243.64,162.087 C 243.328,161.54 243.093,161.228 242.937,160.993 C 242.625,160.837 242.312,160.681 242,160.681 C 241.453,160.681 241.14,160.837 240.984,161.072 C 240.75,161.384 240.672,161.697 240.75,161.931 C 240.672,162.322 240.75,162.556 240.984,162.634 C 241.062,162.868 241.531,163.103 242.39,163.415 C 242.937,163.65 243.328,163.962 243.64,164.275 C 243.875,164.665 244.031,164.978 244.109,165.368 C 244.031,165.837 243.875,166.306 243.562,166.618 C 243.172,167.087 242.703,167.243 242.234,167.165 C 241.922,167.243 241.687,167.165 241.531,167.009 C 241.218,167.009 241.062,167.009 240.984,166.931 C 240.828,167.009 240.75,167.009 240.672,167.009 C 240.593,167.087 240.515,167.165 240.437,167.165 L 240.125,165.29 L 240.359,165.212 C 240.515,165.915 240.828,166.306 241.14,166.54 C 241.453,166.853 241.765,167.009 242.234,166.931 C 242.547,167.009 242.859,166.853 243.172,166.54 C 243.328,166.306 243.484,165.915 243.562,165.368 C 243.484,165.134 243.328,164.9 243.172,164.665 C 242.859,164.431 242.547,164.197 242.078,163.962 L 242.078,163.962"/>
    <path style="fill: none; fill-opacity:0; stroke-width: 1; stroke-linecap: round; stroke: #000000" d="M 245.593 160.759 L 245.593,160.525 L 248.64,160.525 L 248.64,160.759 L 247.781,160.759 C 247.625,160.837 247.547,160.837 247.547,160.837 C 247.468,160.915 247.468,160.993 247.468,160.993 L 247.468,166.54 C 247.468,166.697 247.468,166.775 247.547,166.775 C 247.547,166.853 247.625,166.931 247.781,166.853 L 248.64,166.853 L 248.64,167.087 L 245.593,167.087 L 245.593,166.853 L 246.453,166.853 C 246.531,166.931 246.687,166.853 246.765,166.775 C 246.765,166.775 246.765,166.697 246.843,166.54 L 246.843,160.993 C 246.765,160.993 246.765,160.915 246.765,160.837 C 246.687,160.837 246.531,160.837 246.453,160.759 L 245.593,160.759"/>
    <path style="fill: none; fill-opacity:0; stroke-width: 1; stroke-linecap: round; stroke: #000000" d="M 253.484 165.603 L 253.562,165.603 L 253.562,161.072 C 253.562,160.993 253.484,160.915 253.484,160.837 C 253.328,160.837 253.25,160.837 253.172,160.759 L 252.859,160.759 L 252.859,160.525 L 254.422,160.525 L 254.422,160.759 L 254.109,160.759 C 253.953,160.837 253.875,160.837 253.875,160.837 C 253.797,160.915 253.797,160.993 253.797,160.993 L 253.797,167.087 L 253.562,167.087 L 250.593,161.306 L 250.515,161.306 L 250.515,166.54 C 250.515,166.697 250.515,166.775 250.593,166.775 C 250.672,166.853 250.75,166.931 250.906,166.853 L 251.218,166.853 L 251.218,167.087 L 249.656,167.087 L 249.656,166.853 L 249.968,166.853 C 249.968,166.931 250.047,166.853 250.203,166.775 C 250.203,166.775 250.281,166.697 250.281,166.54 L 250.281,160.993 C 250.281,160.993 250.203,160.915 250.203,160.837 C 250.047,160.837 249.968,160.837 249.968,160.759 L 249.734,160.759 L 249.734,160.525 L 250.828,160.525 L 253.484,165.603"/>
    <path style="fill: none; fill-opacity:0; stroke-width: 1; stroke-linecap: round; stroke: #000000" d="M 257 160.681 C 256.531,160.681 256.218,160.993 255.906,161.462 C 255.593,162.087 255.437,162.868 255.437,163.884 C 255.437,164.665 255.515,165.368 255.828,165.993 C 255.984,166.697 256.453,167.009 257.078,166.931 C 257.312,167.009 257.468,166.931 257.703,166.775 C 257.781,166.618 257.937,166.462 258.015,166.228 L 258.015,164.9 C 258.015,164.743 257.937,164.665 257.859,164.587 C 257.781,164.509 257.703,164.431 257.547,164.431 L 257.312,164.431 L 257.312,164.197 L 259.265,164.197 L 259.265,164.431 L 259.031,164.431 C 258.875,164.431 258.797,164.509 258.718,164.587 C 258.64,164.665 258.562,164.743 258.64,164.822 L 258.64,166.775 C 258.484,166.775 258.484,166.775 258.484,166.775 C 258.406,166.775 258.328,166.775 258.328,166.697 C 258.25,166.775 258.172,166.775 258.172,166.775 C 258.015,166.775 258.015,166.853 258.015,166.853 C 257.859,167.009 257.703,167.087 257.547,167.087 C 257.39,167.243 257.156,167.243 257,167.165 C 256.14,167.243 255.593,166.931 255.281,166.15 C 254.89,165.525 254.734,164.743 254.734,163.884 C 254.734,163.025 254.89,162.243 255.359,161.462 C 255.75,160.837 256.297,160.447 257,160.447 C 257.078,160.447 257.312,160.525 257.547,160.525 C 257.703,160.681 257.781,160.681 257.937,160.681 C 257.937,160.681 258.015,160.681 258.093,160.603 C 258.172,160.603 258.25,160.525 258.328,160.447 L 258.64,162.165 L 258.406,162.243 C 258.172,161.697 258.015,161.306 257.859,161.072 C 257.625,160.837 257.312,160.681 257,160.681 L 257,160.681"/>
  </g>
  <g>
    <path style="fill: none; fill-opacity:0; stroke-width: 1; stroke-linecap: round; stroke: #000000" d="M 470.376 109.262 L 470.376,109.496 L 468.501,109.496 L 468.501,109.262 L 468.735,109.262 C 468.892,109.34 468.97,109.262 469.048,109.184 C 469.048,109.184 469.048,109.106 469.126,108.949 L 469.126,103.403 C 469.048,103.403 469.048,103.324 469.048,103.246 C 468.97,103.246 468.892,103.246 468.735,103.168 L 468.501,103.168 L 468.501,102.934 L 472.564,102.934 L 473.032,104.262 L 472.798,104.34 C 472.564,104.028 472.329,103.715 472.017,103.481 C 471.704,103.324 471.392,103.246 471.157,103.168 L 470.064,103.168 C 469.907,103.246 469.829,103.246 469.829,103.246 C 469.673,103.324 469.673,103.403 469.751,103.403 L 469.751,105.903 L 471.001,105.903 C 471.157,105.903 471.392,105.903 471.548,105.746 C 471.626,105.746 471.626,105.512 471.704,105.199 L 471.704,104.965 L 471.939,104.965 L 471.939,107.231 L 471.704,107.231 L 471.704,107.074 C 471.626,106.762 471.626,106.528 471.548,106.371 C 471.392,106.215 471.157,106.137 471.001,106.137 L 469.751,106.137 L 469.751,108.949 C 469.673,109.106 469.673,109.184 469.829,109.184 C 469.829,109.262 469.907,109.34 470.064,109.262 L 470.376,109.262"/>
    <path style="fill: none; fill-opacity:0; stroke-width: 1; stroke-linecap: round; stroke: #000000" d="M 474.126 103.168 L 474.126,102.934 L 477.173,102.934 L 477.173,103.168 L 476.314,103.168 C 476.157,103.246 476.079,103.246 476.079,103.246 C 476.001,103.324 476.001,103.403 476.001,103.403 L 476.001,108.949 C 476.001,109.106 476.001,109.184 476.079,109.184 C 476.079,109.262 476.157,109.34 476.314,109.262 L 477.173,109.262 L 477.173,109.496 L 474.126,109.496 L 474.126,109.262 L 474.985,109.262 C 475.064,109.34 475.22,109.262 475.298,109.184 C 475.298,109.184 475.298,109.106 475.376,108.949 L 475.376,103.403 C 475.298,103.403 475.298,103.324 475.298,103.246 C 475.22,103.246 475.064,103.246 474.985,103.168 L 474.126,103.168"/>
    <path style="fill: none; fill-opacity:0; stroke-width: 1; stroke-linecap: round; stroke: #000000" d="M 482.017 108.012 L 482.095,108.012 L 482.095,103.481 C 482.095,103.403 482.017,103.324 482.017,103.246 C 481.86,103.246 481.782,103.246 481.704,103.168 L 481.392,103.168 L 481.392,102.934 L 482.954,102.934 L 482.954,103.168 L 482.642,103.168 C 482.485,103.246 482.407,103.246 482.407,103.246 C 482.329,103.324 482.329,103.403 482.329,103.403 L 482.329,109.496 L 482.095,109.496 L 479.126,103.715 L 479.048,103.715 L 479.048,108.949 C 479.048,109.106 479.048,109.184 479.126,109.184 C 479.204,109.262 479.282,109.34 479.439,109.262 L 479.751,109.262 L 479.751,109.496 L 478.189,109.496 L 478.189,109.262 L 478.501,109.262 C 478.501,109.34 478.579,109.262 478.735,109.184 C 478.735,109.184 478.814,109.106 478.814,108.949 L 478.814,103.403 C 478.814,103.403 478.735,103.324 478.735,103.246 C 478.579,103.246 478.501,103.246 478.501,103.168 L 478.267,103.168 L 478.267,102.934 L 479.36,102.934 L 482.017,108.012"/>
    <path style="fill: none; fill-opacity:0; stroke-width: 1; stroke-linecap: round; stroke: #000000" d="M 483.11 110.981 L 483.11,110.746 L 488.032,110.746 L 488.032,110.981 L 483.11,110.981"/>
    <path style="fill: none; fill-opacity:0; stroke-width: 1; stroke-linecap: round; stroke: #000000" d="M 492.876 102.934 L 492.876,103.168 L 492.72,103.168 C 492.642,103.246 492.564,103.246 492.564,103.246 C 492.485,103.324 492.407,103.403 492.407,103.481 L 491.392,109.496 L 491.157,109.496 L 490.532,105.434 L 490.454,105.434 L 489.673,109.496 L 489.439,109.496 L 488.501,103.403 C 488.501,103.403 488.423,103.324 488.423,103.246 C 488.267,103.246 488.267,103.246 488.267,103.168 L 488.11,103.168 L 488.11,102.934 L 489.439,102.934 L 489.439,103.168 L 489.36,103.168 C 489.204,103.246 489.126,103.246 489.126,103.246 C 488.97,103.324 488.97,103.403 489.048,103.403 L 489.673,107.699 L 489.751,107.699 L 490.376,104.496 L 490.298,103.403 C 490.22,103.403 490.22,103.324 490.142,103.246 C 490.064,103.246 489.985,103.246 489.985,103.168 L 489.907,103.168 L 489.907,102.934 L 491.157,102.934 L 491.157,103.168 L 491.079,103.168 C 490.923,103.246 490.845,103.246 490.845,103.246 C 490.845,103.324 490.845,103.403 490.845,103.403 L 491.392,107.543 L 491.47,107.543 L 492.173,103.481 C 492.095,103.403 492.095,103.324 492.095,103.246 C 492.017,103.246 491.939,103.246 491.86,103.168 L 491.704,103.168 L 491.704,102.934 L 492.876,102.934"/>
    <path style="fill: none; fill-opacity:0; stroke-width: 1; stroke-linecap: round; stroke: #000000" d="M 496.079 106.996 L 494.36,106.996 L 493.97,108.481 C 493.892,108.637 493.892,108.793 493.97,108.793 C 493.892,108.949 493.892,109.028 493.97,109.106 C 493.97,109.262 494.126,109.34 494.36,109.262 L 494.439,109.262 L 494.439,109.496 L 493.032,109.496 L 493.032,109.262 L 493.11,109.262 C 493.11,109.34 493.189,109.262 493.345,109.184 C 493.345,109.184 493.423,109.106 493.579,108.871 L 495.064,102.934 L 495.689,102.778 L 497.095,108.871 C 497.095,109.106 497.173,109.184 497.251,109.184 C 497.329,109.262 497.407,109.34 497.564,109.262 L 497.72,109.262 L 497.72,109.496 L 496.079,109.496 L 496.079,109.262 L 496.157,109.262 C 496.235,109.34 496.314,109.262 496.392,109.184 C 496.392,109.184 496.47,109.184 496.47,109.028 C 496.47,109.028 496.47,108.871 496.47,108.715 L 496.079,106.996"/>
    <path style="fill: none; fill-opacity:0; stroke-width: 1; stroke-linecap: round; stroke: #000000" d="M 495.298 103.559 L 495.22,103.559 L 494.439,106.762 L 496.079,106.762 L 495.298,103.559"/>
    <path style="fill: none; fill-opacity:0; stroke-width: 1; stroke-linecap: round; stroke: #000000" d="M 498.814 103.168 L 498.814,102.934 L 501.86,102.934 L 501.86,103.168 L 501.001,103.168 C 500.845,103.246 500.767,103.246 500.767,103.246 C 500.689,103.324 500.689,103.403 500.689,103.403 L 500.689,108.949 C 500.689,109.106 500.689,109.184 500.767,109.184 C 500.767,109.262 500.845,109.34 501.001,109.262 L 501.86,109.262 L 501.86,109.496 L 498.814,109.496 L 498.814,109.262 L 499.673,109.262 C 499.751,109.34 499.907,109.262 499.985,109.184 C 499.985,109.184 499.985,109.106 500.064,108.949 L 500.064,103.403 C 499.985,103.403 499.985,103.324 499.985,103.246 C 499.907,103.246 499.751,103.246 499.673,103.168 L 498.814,103.168"/>
    <path style="fill: none; fill-opacity:0; stroke-width: 1; stroke-linecap: round; stroke: #000000" d="M 506.314 109.496 L 504.282,109.496 L 504.282,109.262 L 504.673,109.262 C 504.673,109.34 504.751,109.262 504.907,109.184 C 504.907,109.184 504.985,109.106 504.985,108.949 L 504.985,103.559 C 504.985,103.403 504.907,103.324 504.907,103.246 C 504.829,103.246 504.751,103.246 504.673,103.168 C 504.204,103.246 503.97,103.324 503.892,103.403 C 503.657,103.559 503.501,103.871 503.345,104.418 L 503.11,104.34 L 503.501,102.934 L 507.173,102.934 L 507.485,104.34 L 507.251,104.418 C 506.939,103.871 506.782,103.559 506.782,103.403 C 506.626,103.324 506.392,103.246 506.079,103.168 C 505.767,103.246 505.61,103.246 505.61,103.246 C 505.532,103.324 505.532,103.403 505.61,103.559 L 505.61,108.949 C 505.532,109.106 505.61,109.184 505.689,109.184 C 505.767,109.262 505.845,109.34 506.001,109.262 L 506.314,109.262 L 506.314,109.496"/>
    <path style="fill: none; fill-opacity:0; stroke-width: 1; stroke-linecap: round; stroke: #000000" d="M 507.798 110.981 L 507.798,110.746 L 512.72,110.746 L 512.72,110.981 L 507.798,110.981"/>
    <path style="fill: none; fill-opacity:0; stroke-width: 1; stroke-linecap: round; stroke: #000000" d="M 515.532 102.778 L 515.532,108.637 C 515.532,108.871 515.532,109.028 515.689,109.106 C 515.767,109.262 516.001,109.34 516.235,109.262 L 516.626,109.262 L 516.626,109.496 L 513.814,109.496 L 513.814,109.262 L 514.204,109.262 C 514.439,109.34 514.595,109.262 514.751,109.106 C 514.751,109.028 514.829,108.871 514.907,108.637 L 514.907,103.949 C 514.829,103.871 514.829,103.793 514.829,103.715 C 514.751,103.715 514.595,103.715 514.517,103.637 L 513.814,103.637 L 513.814,103.403 L 514.204,103.403 C 514.439,103.481 514.673,103.403 514.907,103.246 C 515.064,103.168 515.22,103.012 515.376,102.778 L 515.532,102.778"/>
    <path style="fill: none; fill-opacity:0; stroke-width: 1; stroke-linecap: round; stroke: #000000" d="M 522.095 101.918 C 521.47,102.543 521.001,103.246 520.767,103.949 C 520.454,104.653 520.298,105.356 520.376,106.137 C 520.298,106.918 520.454,107.699 520.767,108.403 C 521.001,109.106 521.47,109.653 522.095,110.278 L 521.939,110.512 C 521.157,109.887 520.61,109.262 520.298,108.481 C 519.907,107.699 519.751,106.918 519.751,106.137 C 519.751,105.356 519.907,104.574 520.298,103.793 C 520.61,103.09 521.157,102.387 521.939,101.684 L 522.095,101.918"/>
    <path style="fill: none; fill-opacity:0; stroke-width: 1; stroke-linecap: round; stroke: #000000" d="M 526.314 101.762 C 527.017,102.231 527.485,102.465 527.72,102.621 C 527.876,102.856 527.954,103.09 528.032,103.168 C 527.954,103.324 527.876,103.403 527.876,103.559 C 527.72,103.715 527.642,103.793 527.642,103.793 C 527.485,103.793 527.407,103.715 527.329,103.403 C 527.173,103.09 526.782,102.543 526.235,101.918 L 526.314,101.762"/>
    <path style="fill: none; fill-opacity:0; stroke-width: 1; stroke-linecap: round; stroke: #000000" d="M 523.579 103.949 L 530.142,103.949 L 530.689,103.403 L 531.548,104.184 L 527.798,104.184 L 527.798,106.684 L 529.517,106.684 L 530.064,106.215 L 530.845,106.918 L 527.798,106.918 L 527.798,109.809 L 530.454,109.809 L 531.079,109.184 L 531.939,110.043 L 524.282,110.043 C 523.892,109.965 523.579,110.043 523.345,110.121 L 523.032,109.809 L 527.173,109.809 L 527.173,106.996 L 525.532,106.996 C 525.064,107.074 524.751,107.074 524.595,107.074 L 524.204,106.762 L 527.173,106.762 L 527.173,104.184 L 524.907,104.184 C 524.517,104.262 524.204,104.34 523.97,104.34 L 523.579,103.949"/>
    <path style="fill: none; fill-opacity:0; stroke-width: 1; stroke-linecap: round; stroke: #000000" d="M 541.704 104.262 L 541.392,104.496 C 541.314,107.309 541.157,109.028 541.079,109.496 C 540.923,110.043 540.61,110.278 539.985,110.512 C 539.907,110.199 539.517,109.965 538.814,109.653 L 538.814,109.418 C 539.282,109.574 539.673,109.653 540.064,109.653 C 540.142,109.653 540.298,109.653 540.454,109.574 C 540.532,109.496 540.61,109.184 540.689,108.559 C 540.689,108.012 540.689,106.606 540.845,104.34 L 539.204,104.34 C 539.126,105.434 539.048,106.293 538.892,106.996 C 538.657,107.856 538.345,108.559 537.876,109.028 C 537.329,109.653 536.626,110.121 535.845,110.59 L 535.767,110.512 C 536.548,109.887 537.095,109.418 537.564,108.793 C 537.876,108.324 538.189,107.621 538.423,106.84 C 538.579,106.137 538.657,105.356 538.735,104.34 L 538.032,104.34 L 537.564,104.418 L 537.251,104.106 L 538.735,104.106 C 538.657,103.168 538.657,102.309 538.735,101.684 L 539.517,102.074 L 539.204,102.309 L 539.204,104.106 L 540.767,104.106 L 541.079,103.793 L 541.704,104.262"/>
    <path style="fill: none; fill-opacity:0; stroke-width: 1; stroke-linecap: round; stroke: #000000" d="M 533.189 103.012 L 536.001,103.012 L 536.47,102.543 L 537.173,103.246 L 534.36,103.246 C 534.048,103.324 533.735,103.324 533.579,103.324 L 533.189,103.012"/>
    <path style="fill: none; fill-opacity:0; stroke-width: 1; stroke-linecap: round; stroke: #000000" d="M 532.876 104.965 L 536.548,104.965 L 537.017,104.496 L 537.72,105.199 L 535.142,105.199 L 535.689,105.668 C 535.376,105.824 535.064,106.215 534.751,106.762 C 534.204,107.465 533.814,108.012 533.501,108.324 L 536.548,107.934 C 536.235,107.465 536.001,106.996 535.767,106.528 L 535.845,106.449 C 536.704,107.387 537.173,107.934 537.329,108.168 C 537.329,108.481 537.329,108.715 537.173,108.793 C 537.017,108.949 536.939,108.949 537.017,108.949 C 536.86,108.949 536.782,108.871 536.86,108.715 C 536.704,108.559 536.626,108.403 536.626,108.168 C 534.673,108.559 533.657,108.871 533.423,109.106 L 532.954,108.324 C 533.267,108.324 533.579,107.856 534.048,107.074 C 534.439,106.293 534.751,105.668 534.907,105.199 L 533.657,105.199 L 533.189,105.278 L 532.876,104.965"/>
    <path style="fill: none; fill-opacity:0; stroke-width: 1; stroke-linecap: round; stroke: #000000" d="M 545.064 101.762 L 545.142,101.684 C 545.61,101.996 545.923,102.309 546.235,102.465 C 546.392,102.778 546.548,102.934 546.626,103.09 C 546.548,103.246 546.47,103.403 546.47,103.559 C 546.314,103.715 546.314,103.793 546.314,103.715 C 546.157,103.793 546.001,103.637 546.001,103.246 C 545.689,102.778 545.376,102.309 545.064,101.762 L 545.064,101.762"/>
    <path style="fill: none; fill-opacity:0; stroke-width: 1; stroke-linecap: round; stroke: #000000" d="M 547.564 104.262 C 547.485,104.965 547.407,105.668 547.407,106.371 L 550.376,106.371 L 550.923,105.746 L 551.782,106.528 L 547.954,106.528 C 548.11,107.231 548.501,107.856 549.126,108.481 C 549.751,109.106 550.61,109.574 551.782,109.887 L 551.782,109.965 C 551.314,109.965 551.001,110.121 550.923,110.512 C 550.142,110.043 549.517,109.653 548.97,109.106 C 548.345,108.559 547.954,107.699 547.72,106.528 L 547.407,106.528 C 547.095,107.543 546.626,108.403 545.845,109.028 C 545.064,109.731 544.048,110.199 542.876,110.59 L 542.876,110.434 C 544.126,109.887 545.064,109.34 545.689,108.637 C 546.235,107.934 546.626,107.231 546.782,106.528 L 544.126,106.528 C 543.735,106.606 543.423,106.684 543.189,106.684 L 542.876,106.371 L 546.86,106.371 C 546.86,105.824 546.86,105.121 546.939,104.262 L 544.673,104.262 C 544.282,104.262 543.97,104.34 543.735,104.34 L 543.345,104.028 L 547.72,104.028 C 547.876,103.715 548.032,103.324 548.267,102.778 C 548.423,102.387 548.579,101.996 548.657,101.606 L 549.595,102.231 L 549.126,102.387 C 548.657,103.09 548.267,103.637 548.032,104.028 L 549.985,104.028 L 550.532,103.481 L 551.314,104.262 L 547.564,104.262"/>
    <path style="fill: none; fill-opacity:0; stroke-width: 1; stroke-linecap: round; stroke: #000000" d="M 557.642 104.887 C 557.642,104.34 557.642,103.715 557.642,103.09 L 558.579,103.559 L 558.189,103.793 L 558.189,104.887 L 559.126,104.887 L 559.517,104.418 L 560.22,105.121 L 558.189,105.121 L 558.189,108.715 C 558.11,109.028 558.032,109.262 557.954,109.34 C 557.72,109.496 557.485,109.574 557.329,109.574 C 557.173,109.34 556.86,109.106 556.314,108.793 L 556.314,108.637 C 556.704,108.793 557.017,108.871 557.251,108.793 C 557.485,108.871 557.642,108.715 557.642,108.403 L 557.642,105.278 C 556.86,106.762 555.767,107.856 554.439,108.637 L 554.439,108.481 C 555.689,107.465 556.626,106.371 557.173,105.121 L 555.923,105.121 C 555.454,105.199 555.142,105.199 554.985,105.199 L 554.673,104.887 L 557.642,104.887"/>
    <path style="fill: none; fill-opacity:0; stroke-width: 1; stroke-linecap: round; stroke: #000000" d="M 554.204 103.403 L 554.204,108.871 C 554.126,109.34 554.126,109.731 554.204,110.121 L 553.579,110.434 C 553.579,109.106 553.657,107.778 553.657,106.293 C 553.657,104.809 553.579,103.637 553.579,102.699 L 554.517,103.168 L 554.204,103.403"/>
    <path style="fill: none; fill-opacity:0; stroke-width: 1; stroke-linecap: round; stroke: #000000" d="M 558.892 109.653 L 558.892,109.496 C 559.673,109.653 560.142,109.653 560.22,109.653 C 560.298,109.653 560.298,109.574 560.376,109.262 L 560.376,102.778 L 557.642,102.778 C 557.251,102.856 556.939,102.856 556.704,102.856 L 556.314,102.543 L 560.298,102.543 L 560.689,102.074 L 561.314,102.699 L 560.923,102.934 L 560.923,109.496 C 560.923,109.809 560.845,109.887 560.767,110.043 C 560.61,110.121 560.376,110.278 560.064,110.434 C 559.829,110.043 559.439,109.809 558.892,109.653 L 558.892,109.653"/>
    <path style="fill: none; fill-opacity:0; stroke-width: 1; stroke-linecap: round; stroke: #000000" d="M 554.439 101.606 C 554.985,101.996 555.376,102.231 555.532,102.309 C 555.61,102.543 555.61,102.699 555.689,102.699 C 555.61,102.934 555.61,103.09 555.532,103.168 C 555.376,103.324 555.298,103.324 555.376,103.324 C 555.22,103.324 555.142,103.246 555.142,102.934 C 554.907,102.621 554.673,102.153 554.36,101.684 L 554.439,101.606"/>
    <path style="fill: none; fill-opacity:0; stroke-width: 1; stroke-linecap: round; stroke: #000000" d="M 562.485 101.918 L 562.72,101.684 C 563.345,102.387 563.892,103.09 564.36,103.793 C 564.673,104.574 564.907,105.356 564.907,106.137 C 564.907,106.918 564.673,107.699 564.36,108.481 C 563.892,109.262 563.345,109.887 562.72,110.512 L 562.485,110.278 C 563.032,109.653 563.501,109.106 563.814,108.403 C 564.048,107.699 564.204,106.918 564.282,106.137 C 564.204,105.356 564.048,104.653 563.814,103.949 C 563.501,103.246 563.032,102.543 562.485,101.918 L 562.485,101.918"/>
  </g>
  <g>
    <path style="fill: none; fill-opacity:0; stroke-width: 1; stroke-linecap: round; stroke: #000000" d="M 471.94 243.412 L 469.909,243.412 L 469.909,243.177 L 470.299,243.177 C 470.299,243.256 470.377,243.177 470.534,243.099 C 470.534,243.099 470.612,243.021 470.612,242.865 L 470.612,237.474 C 470.612,237.318 470.534,237.24 470.534,237.162 C 470.456,237.162 470.377,237.162 470.299,237.084 C 469.831,237.162 469.596,237.24 469.518,237.318 C 469.284,237.474 469.127,237.787 468.971,238.334 L 468.737,238.256 L 469.127,236.849 L 472.799,236.849 L 473.112,238.256 L 472.877,238.334 C 472.565,237.787 472.409,237.474 472.409,237.318 C 472.252,237.24 472.018,237.162 471.706,237.084 C 471.393,237.162 471.237,237.162 471.237,237.162 C 471.159,237.24 471.159,237.318 471.237,237.474 L 471.237,242.865 C 471.159,243.021 471.237,243.099 471.315,243.099 C 471.393,243.177 471.471,243.256 471.627,243.177 L 471.94,243.177 L 471.94,243.412"/>
    <path style="fill: none; fill-opacity:0; stroke-width: 1; stroke-linecap: round; stroke: #000000" d="M 474.362 237.084 L 474.362,236.849 L 477.409,236.849 L 477.409,237.084 L 476.549,237.084 C 476.393,237.162 476.315,237.162 476.315,237.162 C 476.237,237.24 476.237,237.318 476.237,237.318 L 476.237,242.865 C 476.237,243.021 476.237,243.099 476.315,243.099 C 476.315,243.177 476.393,243.256 476.549,243.177 L 477.409,243.177 L 477.409,243.412 L 474.362,243.412 L 474.362,243.177 L 475.221,243.177 C 475.299,243.256 475.456,243.177 475.534,243.099 C 475.534,243.099 475.534,243.021 475.612,242.865 L 475.612,237.318 C 475.534,237.318 475.534,237.24 475.534,237.162 C 475.456,237.162 475.299,237.162 475.221,237.084 L 474.362,237.084"/>
    <path style="fill: none; fill-opacity:0; stroke-width: 1; stroke-linecap: round; stroke: #000000" d="M 482.643 242.865 C 482.565,243.021 482.565,243.099 482.721,243.099 C 482.721,243.177 482.877,243.256 483.034,243.177 L 483.19,243.177 L 483.19,243.412 L 481.471,243.412 L 481.471,243.177 L 481.706,243.177 C 481.784,243.256 481.862,243.177 481.94,243.099 C 481.94,243.099 481.94,243.021 482.018,242.865 L 482.018,237.865 L 481.94,237.865 L 480.69,243.412 L 480.456,243.412 L 479.206,237.943 L 479.127,237.943 L 479.127,242.865 C 479.049,243.021 479.049,243.099 479.206,243.099 C 479.206,243.177 479.362,243.256 479.518,243.177 L 479.596,243.177 L 479.596,243.412 L 478.424,243.412 L 478.424,243.177 L 478.581,243.177 C 478.659,243.256 478.737,243.177 478.815,243.099 C 478.815,243.099 478.815,243.021 478.893,242.865 L 478.893,237.318 C 478.815,237.318 478.815,237.24 478.815,237.162 C 478.737,237.162 478.659,237.162 478.581,237.084 L 478.424,237.084 L 478.424,236.849 L 479.518,236.849 L 480.69,241.927 L 480.768,241.927 L 481.94,236.849 L 483.19,236.849 L 483.19,237.084 L 483.034,237.084 C 482.877,237.162 482.721,237.162 482.721,237.162 C 482.565,237.24 482.565,237.318 482.643,237.318 L 482.643,242.865"/>
    <path style="fill: none; fill-opacity:0; stroke-width: 1; stroke-linecap: round; stroke: #000000" d="M 483.659 237.084 L 483.659,236.849 L 487.409,236.849 L 487.877,238.099 L 487.643,238.177 C 487.409,237.865 487.174,237.631 486.94,237.396 C 486.706,237.24 486.471,237.162 486.237,237.084 L 485.143,237.084 C 484.987,237.162 484.909,237.162 484.909,237.162 C 484.752,237.24 484.752,237.318 484.831,237.318 L 484.831,239.74 L 485.924,239.74 C 486.159,239.818 486.315,239.74 486.471,239.584 C 486.549,239.427 486.627,239.271 486.627,238.959 L 486.627,238.724 L 486.862,238.724 L 486.862,240.99 L 486.627,240.99 L 486.627,240.834 C 486.627,240.677 486.549,240.443 486.471,240.209 C 486.315,240.131 486.159,240.052 485.924,239.974 L 484.831,239.974 L 484.831,242.865 C 484.752,243.021 484.752,243.099 484.909,243.099 C 484.909,243.177 484.987,243.256 485.143,243.177 L 486.159,243.177 C 486.471,243.256 486.784,243.099 487.096,242.865 C 487.409,242.709 487.643,242.396 487.799,241.849 L 487.956,241.927 L 487.565,243.412 L 483.581,243.412 L 483.581,243.177 L 483.815,243.177 C 483.971,243.256 484.049,243.177 484.127,243.099 C 484.127,243.099 484.127,243.021 484.206,242.865 L 484.206,237.318 C 484.127,237.318 484.127,237.24 484.127,237.162 C 484.049,237.162 483.971,237.162 483.815,237.084 L 483.659,237.084"/>
    <path style="fill: none; fill-opacity:0; stroke-width: 1; stroke-linecap: round; stroke: #000000" d="M 488.268 244.896 L 488.268,244.662 L 493.19,244.662 L 493.19,244.896 L 488.268,244.896"/>
    <path style="fill: none; fill-opacity:0; stroke-width: 1; stroke-linecap: round; stroke: #000000" d="M 498.034 236.849 L 498.034,237.084 L 497.877,237.084 C 497.799,237.162 497.721,237.162 497.721,237.162 C 497.643,237.24 497.565,237.318 497.565,237.396 L 496.549,243.412 L 496.315,243.412 L 495.69,239.349 L 495.612,239.349 L 494.831,243.412 L 494.596,243.412 L 493.659,237.318 C 493.659,237.318 493.581,237.24 493.581,237.162 C 493.424,237.162 493.424,237.162 493.424,237.084 L 493.268,237.084 L 493.268,236.849 L 494.596,236.849 L 494.596,237.084 L 494.518,237.084 C 494.362,237.162 494.284,237.162 494.284,237.162 C 494.127,237.24 494.127,237.318 494.206,237.318 L 494.831,241.615 L 494.909,241.615 L 495.534,238.412 L 495.456,237.318 C 495.377,237.318 495.377,237.24 495.299,237.162 C 495.221,237.162 495.143,237.162 495.143,237.084 L 495.065,237.084 L 495.065,236.849 L 496.315,236.849 L 496.315,237.084 L 496.237,237.084 C 496.081,237.162 496.002,237.162 496.002,237.162 C 496.002,237.24 496.002,237.318 496.002,237.318 L 496.549,241.459 L 496.627,241.459 L 497.331,237.396 C 497.252,237.318 497.252,237.24 497.252,237.162 C 497.174,237.162 497.096,237.162 497.018,237.084 L 496.862,237.084 L 496.862,236.849 L 498.034,236.849"/>
    <path style="fill: none; fill-opacity:0; stroke-width: 1; stroke-linecap: round; stroke: #000000" d="M 501.237 240.912 L 499.518,240.912 L 499.127,242.396 C 499.049,242.552 499.049,242.709 499.127,242.709 C 499.049,242.865 499.049,242.943 499.127,243.021 C 499.127,243.177 499.284,243.256 499.518,243.177 L 499.596,243.177 L 499.596,243.412 L 498.19,243.412 L 498.19,243.177 L 498.268,243.177 C 498.268,243.256 498.346,243.177 498.502,243.099 C 498.502,243.099 498.581,243.021 498.737,242.787 L 500.221,236.849 L 500.846,236.693 L 502.252,242.787 C 502.252,243.021 502.331,243.099 502.409,243.099 C 502.487,243.177 502.565,243.256 502.721,243.177 L 502.877,243.177 L 502.877,243.412 L 501.237,243.412 L 501.237,243.177 L 501.315,243.177 C 501.393,243.256 501.471,243.177 501.549,243.099 C 501.549,243.099 501.627,243.099 501.627,242.943 C 501.627,242.943 501.627,242.787 501.627,242.631 L 501.237,240.912"/>
    <path style="fill: none; fill-opacity:0; stroke-width: 1; stroke-linecap: round; stroke: #000000" d="M 500.456 237.474 L 500.377,237.474 L 499.596,240.677 L 501.237,240.677 L 500.456,237.474"/>
    <path style="fill: none; fill-opacity:0; stroke-width: 1; stroke-linecap: round; stroke: #000000" d="M 504.049 237.084 L 504.049,236.849 L 507.096,236.849 L 507.096,237.084 L 506.237,237.084 C 506.081,237.162 506.002,237.162 506.002,237.162 C 505.924,237.24 505.924,237.318 505.924,237.318 L 505.924,242.865 C 505.924,243.021 505.924,243.099 506.002,243.099 C 506.002,243.177 506.081,243.256 506.237,243.177 L 507.096,243.177 L 507.096,243.412 L 504.049,243.412 L 504.049,243.177 L 504.909,243.177 C 504.987,243.256 505.143,243.177 505.221,243.099 C 505.221,243.099 505.221,243.021 505.299,242.865 L 505.299,237.318 C 505.221,237.318 505.221,237.24 505.221,237.162 C 505.143,237.162 504.987,237.162 504.909,237.084 L 504.049,237.084"/>
    <path style="fill: none; fill-opacity:0; stroke-width: 1; stroke-linecap: round; stroke: #000000" d="M 511.471 243.412 L 509.44,243.412 L 509.44,243.177 L 509.831,243.177 C 509.831,243.256 509.909,243.177 510.065,243.099 C 510.065,243.099 510.143,243.021 510.143,242.865 L 510.143,237.474 C 510.143,237.318 510.065,237.24 510.065,237.162 C 509.987,237.162 509.909,237.162 509.831,237.084 C 509.362,237.162 509.127,237.24 509.049,237.318 C 508.815,237.474 508.659,237.787 508.502,238.334 L 508.268,238.256 L 508.659,236.849 L 512.331,236.849 L 512.643,238.256 L 512.409,238.334 C 512.096,237.787 511.94,237.474 511.94,237.318 C 511.784,237.24 511.549,237.162 511.237,237.084 C 510.924,237.162 510.768,237.162 510.768,237.162 C 510.69,237.24 510.69,237.318 510.768,237.474 L 510.768,242.865 C 510.69,243.021 510.768,243.099 510.846,243.099 C 510.924,243.177 511.002,243.256 511.159,243.177 L 511.471,243.177 L 511.471,243.412"/>
  </g>
</svg>
