<?xml version="1.0" encoding="UTF-8" standalone="no"?>
<!DOCTYPE svg PUBLIC "-//W3C//DTD SVG 1.0//EN" "http://www.w3.org/TR/2001/PR-SVG-20010719/DTD/svg10.dtd">
<svg width="26cm" height="26cm" viewBox="1 -156 514 520" xmlns="http://www.w3.org/2000/svg" xmlns:xlink="http://www.w3.org/1999/xlink">
  <g>
    <rect style="fill: #ffffff" x="22.173" y="-135.852" width="75.9998" height="57.9999"/>
    <rect style="fill: none; fill-opacity:0; stroke-width: 2; stroke: #000000" x="22.173" y="-135.852" width="75.9998" height="57.9999"/>
    <text font-size="12.8" style="fill: #000000;text-anchor:middle;font-family:monospace;font-style:normal;font-weight:normal" x="60.1729" y="-111.852">
      <tspan x="60.1729" y="-111.852">用户</tspan>
      <tspan x="60.1729" y="-95.8519">进程</tspan>
    </text>
  </g>
  <g>
    <rect style="fill: #ffffff" x="141.844" y="-137.081" width="75.9998" height="57.9999"/>
    <rect style="fill: none; fill-opacity:0; stroke-width: 2; stroke: #000000" x="141.844" y="-137.081" width="75.9998" height="57.9999"/>
    <text font-size="12.8" style="fill: #000000;text-anchor:middle;font-family:monospace;font-style:normal;font-weight:normal" x="179.844" y="-113.081">
      <tspan x="179.844" y="-113.081">用户</tspan>
      <tspan x="179.844" y="-97.0807">进程</tspan>
    </text>
  </g>
  <g>
    <rect style="fill: #ffffff" x="244.386" y="-137.623" width="75.9998" height="57.9999"/>
    <rect style="fill: none; fill-opacity:0; stroke-width: 2; stroke: #000000" x="244.386" y="-137.623" width="75.9998" height="57.9999"/>
    <text font-size="12.8" style="fill: #000000;text-anchor:middle;font-family:monospace;font-style:normal;font-weight:normal" x="282.386" y="-113.623">
      <tspan x="282.386" y="-113.623">用户</tspan>
      <tspan x="282.386" y="-97.6229">进程</tspan>
    </text>
  </g>
  <g>
    <rect style="fill: #ffffff" x="347.37" y="-139.852" width="75.9998" height="57.9999"/>
    <rect style="fill: none; fill-opacity:0; stroke-width: 2; stroke: #000000" x="347.37" y="-139.852" width="75.9998" height="57.9999"/>
    <text font-size="12.8" style="fill: #000000;text-anchor:middle;font-family:monospace;font-style:normal;font-weight:normal" x="385.37" y="-115.852">
      <tspan x="385.37" y="-115.852">用户</tspan>
      <tspan x="385.37" y="-99.8517">进程</tspan>
    </text>
  </g>
  <g>
    <rect style="fill: #ffffff" x="122.386" y="-14.503" width="75.9998" height="57.9999"/>
    <rect style="fill: none; fill-opacity:0; stroke-width: 2; stroke: #000000" x="122.386" y="-14.503" width="75.9998" height="57.9999"/>
    <text font-size="12.8" style="fill: #000000;text-anchor:middle;font-family:monospace;font-style:normal;font-weight:normal" x="160.386" y="17.147">
      <tspan x="160.386" y="17.147">TCP</tspan>
    </text>
  </g>
  <g>
    <rect style="fill: #ffffff" x="281.386" y="-13.503" width="75.9998" height="57.9999"/>
    <rect style="fill: none; fill-opacity:0; stroke-width: 2; stroke: #000000" x="281.386" y="-13.503" width="75.9998" height="57.9999"/>
    <text font-size="12.8" style="fill: #000000;text-anchor:middle;font-family:monospace;font-style:normal;font-weight:normal" x="319.386" y="18.147">
      <tspan x="319.386" y="18.147">UDP</tspan>
    </text>
  </g>
  <g>
    <rect style="fill: #ffffff" x="60.5908" y="116.339" width="75.9998" height="57.9999"/>
    <rect style="fill: none; fill-opacity:0; stroke-width: 2; stroke: #000000" x="60.5908" y="116.339" width="75.9998" height="57.9999"/>
    <text font-size="12.8" style="fill: #000000;text-anchor:middle;font-family:monospace;font-style:normal;font-weight:normal" x="98.5907" y="147.989">
      <tspan x="98.5907" y="147.989">ICMP</tspan>
    </text>
  </g>
  <g>
    <rect style="fill: #ffffff" x="320.614" y="115.388" width="75.9998" height="57.9999"/>
    <rect style="fill: none; fill-opacity:0; stroke-width: 2; stroke: #000000" x="320.614" y="115.388" width="75.9998" height="57.9999"/>
    <text font-size="12.8" style="fill: #000000;text-anchor:middle;font-family:monospace;font-style:normal;font-weight:normal" x="358.614" y="147.038">
      <tspan x="358.614" y="147.038">IGMP</tspan>
    </text>
  </g>
  <g>
    <rect style="fill: #ffffff" x="58.6134" y="236.184" width="75.9998" height="57.9999"/>
    <rect style="fill: none; fill-opacity:0; stroke-width: 2; stroke: #000000" x="58.6134" y="236.184" width="75.9998" height="57.9999"/>
    <text font-size="12.8" style="fill: #000000;text-anchor:middle;font-family:monospace;font-style:normal;font-weight:normal" x="96.6133" y="267.834">
      <tspan x="96.6133" y="267.834">ARP</tspan>
    </text>
  </g>
  <g>
    <rect style="fill: #ffffff" x="319.9" y="238.954" width="75.9998" height="57.9999"/>
    <rect style="fill: none; fill-opacity:0; stroke-width: 2; stroke: #000000" x="319.9" y="238.954" width="75.9998" height="57.9999"/>
    <text font-size="12.8" style="fill: #000000;text-anchor:middle;font-family:monospace;font-style:normal;font-weight:normal" x="357.9" y="270.604">
      <tspan x="357.9" y="270.604">RARP</tspan>
    </text>
  </g>
  <g>
    <rect style="fill: #ffffff" x="188.337" y="237.184" width="75.9998" height="57.9999"/>
    <rect style="fill: none; fill-opacity:0; stroke-width: 2; stroke: #000000" x="188.337" y="237.184" width="75.9998" height="57.9999"/>
    <text font-size="12.8" style="fill: #000000;text-anchor:middle;font-family:monospace;font-style:normal;font-weight:normal" x="226.337" y="261.184">
      <tspan x="226.337" y="261.184">硬件</tspan>
      <tspan x="226.337" y="277.184">接口</tspan>
    </text>
  </g>
  <g>
    <line style="fill: none; fill-opacity:0; stroke-width: 2; stroke: #000000" x1="92.364" y1="104.465" x2="66.3996" y2="-65.9773"/>
    <polygon style="fill: #000000" points="87.4211,105.218 93.87,114.351 97.307,103.712 "/>
    <polygon style="fill: none; fill-opacity:0; stroke-width: 2; stroke: #000000" points="87.4211,105.218 93.87,114.351 97.307,103.712 "/>
    <polygon style="fill: #000000" points="71.3426,-66.7303 64.8936,-75.8632 61.4566,-65.2243 "/>
    <polygon style="fill: none; fill-opacity:0; stroke-width: 2; stroke: #000000" points="71.3426,-66.7303 64.8936,-75.8632 61.4566,-65.2243 "/>
  </g>
  <g>
    <line style="fill: none; fill-opacity:0; stroke-width: 2; stroke: #000000" x1="180.14" y1="54.3536" x2="206.227" y2="106.986"/>
    <polygon style="fill: #000000" points="184.62,52.1332 175.7,45.3938 175.661,56.5741 "/>
    <polygon style="fill: none; fill-opacity:0; stroke-width: 2; stroke: #000000" points="184.62,52.1332 175.7,45.3938 175.661,56.5741 "/>
    <polygon style="fill: #000000" points="201.747,109.207 210.668,115.946 210.707,104.766 "/>
    <polygon style="fill: none; fill-opacity:0; stroke-width: 2; stroke: #000000" points="201.747,109.207 210.668,115.946 210.707,104.766 "/>
  </g>
  <g>
    <line style="fill: none; fill-opacity:0; stroke-width: 2; stroke: #000000" x1="291.758" y1="54.3478" x2="253.61" y2="107.992"/>
    <polygon style="fill: #000000" points="295.833,57.2455 297.553,46.1983 287.683,51.4501 "/>
    <polygon style="fill: none; fill-opacity:0; stroke-width: 2; stroke: #000000" points="295.833,57.2455 297.553,46.1983 287.683,51.4501 "/>
    <polygon style="fill: #000000" points="249.535,105.095 247.815,116.142 257.685,110.89 "/>
    <polygon style="fill: none; fill-opacity:0; stroke-width: 2; stroke: #000000" points="249.535,105.095 247.815,116.142 257.685,110.89 "/>
  </g>
  <g>
    <line style="fill: none; fill-opacity:0; stroke-width: 2; stroke: #000000" x1="179.697" y1="144.668" x2="148.594" y2="144.926"/>
    <polygon style="fill: #000000" points="179.738,149.668 189.696,144.586 179.655,139.669 "/>
    <polygon style="fill: none; fill-opacity:0; stroke-width: 2; stroke: #000000" points="179.738,149.668 189.696,144.586 179.655,139.669 "/>
    <polygon style="fill: #000000" points="148.552,139.926 138.594,145.008 148.635,149.925 "/>
    <polygon style="fill: none; fill-opacity:0; stroke-width: 2; stroke: #000000" points="148.552,139.926 138.594,145.008 148.635,149.925 "/>
  </g>
  <g>
    <line style="fill: none; fill-opacity:0; stroke-width: 2; stroke: #000000" x1="275.983" y1="145.918" x2="308.613" y2="145.314"/>
    <polygon style="fill: #000000" points="275.89,140.918 265.984,146.103 276.075,150.917 "/>
    <polygon style="fill: none; fill-opacity:0; stroke-width: 2; stroke: #000000" points="275.89,140.918 265.984,146.103 276.075,150.917 "/>
    <polygon style="fill: #000000" points="308.706,150.313 318.611,145.128 308.521,140.314 "/>
    <polygon style="fill: none; fill-opacity:0; stroke-width: 2; stroke: #000000" points="308.706,150.313 318.611,145.128 308.521,140.314 "/>
  </g>
  <g>
    <line style="fill: none; fill-opacity:0; stroke-width: 2; stroke: #000000" x1="146.378" y1="265.568" x2="176.572" y2="265.801"/>
    <polygon style="fill: #000000" points="146.417,260.568 136.378,265.491 146.34,270.568 "/>
    <polygon style="fill: none; fill-opacity:0; stroke-width: 2; stroke: #000000" points="146.417,260.568 136.378,265.491 146.34,270.568 "/>
    <polygon style="fill: #000000" points="176.534,270.801 186.572,265.878 176.611,260.801 "/>
    <polygon style="fill: none; fill-opacity:0; stroke-width: 2; stroke: #000000" points="176.534,270.801 186.572,265.878 176.611,260.801 "/>
  </g>
  <g>
    <line style="fill: none; fill-opacity:0; stroke-width: 2; stroke: #000000" x1="276.338" y1="266.857" x2="307.899" y2="267.282"/>
    <polygon style="fill: #000000" points="276.405,261.858 266.339,266.723 276.27,271.857 "/>
    <polygon style="fill: none; fill-opacity:0; stroke-width: 2; stroke: #000000" points="276.405,261.858 266.339,266.723 276.27,271.857 "/>
    <polygon style="fill: #000000" points="307.832,272.281 317.899,267.416 307.967,262.282 "/>
    <polygon style="fill: none; fill-opacity:0; stroke-width: 2; stroke: #000000" points="307.832,272.281 317.899,267.416 307.967,262.282 "/>
  </g>
  <g>
    <line style="fill: none; fill-opacity:0; stroke-width: 2; stroke: #000000" x1="168.863" y1="-26.2696" x2="177.604" y2="-68.311"/>
    <polygon style="fill: #000000" points="163.967,-27.2875 166.827,-16.479 173.758,-25.2517 "/>
    <polygon style="fill: none; fill-opacity:0; stroke-width: 2; stroke: #000000" points="163.967,-27.2875 166.827,-16.479 173.758,-25.2517 "/>
    <polygon style="fill: #000000" points="182.5,-67.2931 179.64,-78.1015 172.709,-69.3288 "/>
    <polygon style="fill: none; fill-opacity:0; stroke-width: 2; stroke: #000000" points="182.5,-67.2931 179.64,-78.1015 172.709,-69.3288 "/>
  </g>
  <g>
    <line style="fill: none; fill-opacity:0; stroke-width: 2; stroke: #000000" x1="340.144" y1="-24.252" x2="364.611" y2="-71.1027"/>
    <polygon style="fill: #000000" points="335.712,-26.5666 335.515,-15.388 344.576,-21.9374 "/>
    <polygon style="fill: none; fill-opacity:0; stroke-width: 2; stroke: #000000" points="335.712,-26.5666 335.515,-15.388 344.576,-21.9374 "/>
    <polygon style="fill: #000000" points="369.044,-68.7881 369.241,-79.9667 360.179,-73.4172 "/>
    <polygon style="fill: none; fill-opacity:0; stroke-width: 2; stroke: #000000" points="369.044,-68.7881 369.241,-79.9667 360.179,-73.4172 "/>
  </g>
  <g>
    <line style="fill: none; fill-opacity:0; stroke-width: 2; stroke: #000000" x1="234.979" y1="106.094" x2="273.389" y2="-67.874"/>
    <polygon style="fill: #000000" points="230.096,105.016 232.823,115.859 239.861,107.172 "/>
    <polygon style="fill: none; fill-opacity:0; stroke-width: 2; stroke: #000000" points="230.096,105.016 232.823,115.859 239.861,107.172 "/>
    <polygon style="fill: #000000" points="278.271,-66.796 275.545,-77.6388 268.507,-68.9519 "/>
    <polygon style="fill: none; fill-opacity:0; stroke-width: 2; stroke: #000000" points="278.271,-66.796 275.545,-77.6388 268.507,-68.9519 "/>
  </g>
  <g>
    <line style="fill: none; fill-opacity:0; stroke-width: 2; stroke: #000000" x1="226.104" y1="187.824" x2="226.215" y2="225.203"/>
    <polygon style="fill: #000000" points="231.104,187.809 226.074,177.824 221.104,187.839 "/>
    <polygon style="fill: none; fill-opacity:0; stroke-width: 2; stroke: #000000" points="231.104,187.809 226.074,177.824 221.104,187.839 "/>
    <polygon style="fill: #000000" points="221.215,225.218 226.245,235.203 231.215,225.189 "/>
    <polygon style="fill: none; fill-opacity:0; stroke-width: 2; stroke: #000000" points="221.215,225.218 226.245,235.203 231.215,225.189 "/>
  </g>
  <g>
    <rect style="fill: #ffffff" x="187.982" y="117.843" width="75.9998" height="57.9999"/>
    <rect style="fill: none; fill-opacity:0; stroke-width: 2; stroke: #000000" x="187.982" y="117.843" width="75.9998" height="57.9999"/>
    <text font-size="12.8" style="fill: #000000;text-anchor:middle;font-family:monospace;font-style:normal;font-weight:normal" x="225.982" y="149.493">
      <tspan x="225.982" y="149.493">IP</tspan>
    </text>
  </g>
  <g>
    <line style="fill: none; fill-opacity:0; stroke-width: 2; stroke: #000000" x1="226.412" y1="307.189" x2="226.444" y2="324.6"/>
    <polygon style="fill: #000000" points="231.412,307.18 226.394,297.189 221.412,307.198 "/>
    <polygon style="fill: none; fill-opacity:0; stroke-width: 2; stroke: #000000" points="231.412,307.18 226.394,297.189 221.412,307.198 "/>
    <polygon style="fill: #000000" points="221.444,324.609 226.462,334.6 231.444,324.59 "/>
    <polygon style="fill: none; fill-opacity:0; stroke-width: 2; stroke: #000000" points="221.444,324.609 226.462,334.6 231.444,324.59 "/>
  </g>
  <g>
    <rect style="fill: none; fill-opacity:0; stroke-width: 2; stroke-dasharray: 4; stroke: #bfbfbf" x="5.36476" y="214.85" width="440.998" height="102.042"/>
    <text font-size="12.8" style="fill: #000000;text-anchor:middle;font-family:monospace;font-style:normal;font-weight:normal" x="225.864" y="268.521">
      <tspan x="225.864" y="268.521"></tspan>
    </text>
  </g>
  <g>
    <rect style="fill: none; fill-opacity:0; stroke-width: 2; stroke-dasharray: 4; stroke: #bfbfbf" x="6.26476" y="94.5752" width="440.998" height="105.393"/>
    <text font-size="12.8" style="fill: #000000;text-anchor:middle;font-family:monospace;font-style:normal;font-weight:normal" x="226.764" y="149.922">
      <tspan x="226.764" y="149.922"></tspan>
    </text>
  </g>
  <g>
    <rect style="fill: none; fill-opacity:0; stroke-width: 2; stroke-dasharray: 4; stroke: #bfbfbf" x="100.264" y="-34.4244" width="283.099" height="99.9996"/>
    <text font-size="12.8" style="fill: #000000;text-anchor:middle;font-family:monospace;font-style:normal;font-weight:normal" x="241.814" y="18.2254">
      <tspan x="241.814" y="18.2254"></tspan>
    </text>
  </g>
  <g>
    <rect style="fill: none; fill-opacity:0; stroke-width: 2; stroke-dasharray: 4; stroke: #bfbfbf" x="2.26476" y="-154.424" width="440.998" height="99.9996"/>
    <text font-size="12.8" style="fill: #000000;text-anchor:middle;font-family:monospace;font-style:normal;font-weight:normal" x="222.764" y="-101.774">
      <tspan x="222.764" y="-101.774"></tspan>
    </text>
  </g>
  <g>
    <path style="fill: #ffffff" d="M 464.164 -138.424 L 506.564,-138.424 L 506.564,-104.138 C 498.084,-109.853 493.844,-109.853 485.364,-104.138 C 476.884,-98.424 472.644,-98.424 464.164,-104.138 L 464.164,-138.424z"/>
    <path style="fill: none; fill-opacity:0; stroke-width: 0.02; stroke: #000000" d="M 464.164 -138.424 L 506.564,-138.424 L 506.564,-104.138 C 498.084,-109.853 493.844,-109.853 485.364,-104.138 C 476.884,-98.424 472.644,-98.424 464.164,-104.138 L 464.164,-138.424"/>
    <text font-size="12.8" style="fill: #000000;text-anchor:middle;font-family:monospace;font-style:normal;font-weight:normal" x="485.364" y="-120.938">
      <tspan x="485.364" y="-120.938">应用层</tspan>
    </text>
  </g>
  <g>
    <path style="fill: #ffffff" d="M 407.264 -9.62444 L 449.664,-9.62444 L 449.664,33.5756 C 441.184,26.3756 436.944,26.3756 428.464,33.5756 C 419.984,40.7756 415.744,40.7756 407.264,33.5756 L 407.264,-9.62444z"/>
    <path style="fill: none; fill-opacity:0; stroke-width: 0.02; stroke: #000000" d="M 407.264 -9.62444 L 449.664,-9.62444 L 449.664,33.5756 C 441.184,26.3756 436.944,26.3756 428.464,33.5756 C 419.984,40.7756 415.744,40.7756 407.264,33.5756 L 407.264,-9.62444"/>
    <text font-size="12.8" style="fill: #000000;text-anchor:middle;font-family:monospace;font-style:normal;font-weight:normal" x="428.464" y="11.5756">
      <tspan x="428.464" y="11.5756">传输层</tspan>
    </text>
  </g>
  <g>
    <path style="fill: #ffffff" d="M 472.264 127.575 L 514.664,127.575 L 514.664,170.775 C 506.184,163.575 501.944,163.575 493.464,170.775 C 484.984,177.975 480.744,177.975 472.264,170.775 L 472.264,127.575z"/>
    <path style="fill: none; fill-opacity:0; stroke-width: 0.02; stroke: #000000" d="M 472.264 127.575 L 514.664,127.575 L 514.664,170.775 C 506.184,163.575 501.944,163.575 493.464,170.775 C 484.984,177.975 480.744,177.975 472.264,170.775 L 472.264,127.575"/>
    <text font-size="12.8" style="fill: #000000;text-anchor:middle;font-family:monospace;font-style:normal;font-weight:normal" x="493.464" y="148.775">
      <tspan x="493.464" y="148.775">网络层</tspan>
    </text>
  </g>
  <g>
    <path style="fill: #ffffff" d="M 472.264 238.07 L 514.664,238.07 L 514.664,281.27 C 506.184,274.07 501.944,274.07 493.464,281.27 C 484.984,288.47 480.744,288.47 472.264,281.27 L 472.264,238.07z"/>
    <path style="fill: none; fill-opacity:0; stroke-width: 0.02; stroke: #000000" d="M 472.264 238.07 L 514.664,238.07 L 514.664,281.27 C 506.184,274.07 501.944,274.07 493.464,281.27 C 484.984,288.47 480.744,288.47 472.264,281.27 L 472.264,238.07"/>
    <text font-size="12.8" style="fill: #000000;text-anchor:middle;font-family:monospace;font-style:normal;font-weight:normal" x="493.464" y="259.27">
      <tspan x="493.464" y="259.27">链路层</tspan>
    </text>
  </g>
  <g>
    <path style="fill: #ffffff" d="M 205.264 335.6 L 247.664,335.6 L 247.664,359.6 C 239.184,355.6 234.944,355.6 226.464,359.6 C 217.984,363.6 213.744,363.6 205.264,359.6 L 205.264,335.6z"/>
    <path style="fill: none; fill-opacity:0; stroke-width: 0.02; stroke: #000000" d="M 205.264 335.6 L 247.664,335.6 L 247.664,359.6 C 239.184,355.6 234.944,355.6 226.464,359.6 C 217.984,363.6 213.744,363.6 205.264,359.6 L 205.264,335.6"/>
    <text font-size="12.8" style="fill: #000000;text-anchor:middle;font-family:monospace;font-style:normal;font-weight:normal" x="226.464" y="348.8">
      <tspan x="226.464" y="348.8">媒体</tspan>
    </text>
  </g>
</svg>
