<?xml version="1.0" encoding="UTF-8" standalone="no"?>
<!DOCTYPE svg PUBLIC "-//W3C//DTD SVG 1.0//EN" "http://www.w3.org/TR/2001/PR-SVG-20010719/DTD/svg10.dtd">
<svg width="39cm" height="20cm" viewBox="4 2 774 383" xmlns="http://www.w3.org/2000/svg" xmlns:xlink="http://www.w3.org/1999/xlink">
  <g>
    <rect style="fill: #ffffff" x="106.343" y="16.8786" width="101.106" height="56.7712"/>
    <rect style="fill: none; fill-opacity:0; stroke-width: 2; stroke: #000000" x="106.343" y="16.8786" width="101.106" height="56.7712"/>
    <text font-size="12.8" style="fill: #000000;text-anchor:middle;font-family:monospace;font-style:normal;font-weight:normal" x="156.896" y="40.0892">
      <tspan x="156.896" y="40.0892">HTTP</tspan>
      <tspan x="156.896" y="56.0892">客户</tspan>
    </text>
  </g>
  <g>
    <rect style="fill: #ffffff" x="408.682" y="15.1652" width="97.5806" height="54.4072"/>
    <rect style="fill: none; fill-opacity:0; stroke-width: 2; stroke: #000000" x="408.682" y="15.1652" width="97.5806" height="54.4072"/>
    <text font-size="12.8" style="fill: #000000;text-anchor:middle;font-family:monospace;font-style:normal;font-weight:normal" x="457.472" y="37.1938">
      <tspan x="457.472" y="37.1938">HTTP</tspan>
      <tspan x="457.472" y="53.1938">服务器</tspan>
    </text>
  </g>
  <g>
    <rect style="fill: #ffffff" x="108.384" y="114.812" width="96.1559" height="38"/>
    <rect style="fill: none; fill-opacity:0; stroke-width: 2; stroke: #000000" x="108.384" y="114.812" width="96.1559" height="38"/>
    <text font-size="12.8" style="fill: #000000;text-anchor:middle;font-family:monospace;font-style:normal;font-weight:normal" x="156.462" y="136.462">
      <tspan x="156.462" y="136.462">TCP</tspan>
    </text>
  </g>
  <g>
    <rect style="fill: #ffffff" x="409.61" y="115.076" width="96.1559" height="38"/>
    <rect style="fill: none; fill-opacity:0; stroke-width: 2; stroke: #000000" x="409.61" y="115.076" width="96.1559" height="38"/>
    <text font-size="12.8" style="fill: #000000;text-anchor:middle;font-family:monospace;font-style:normal;font-weight:normal" x="457.688" y="136.726">
      <tspan x="457.688" y="136.726">TCP</tspan>
    </text>
  </g>
  <g>
    <rect style="fill: #ffffff" x="108.384" y="192.858" width="96.1559" height="38"/>
    <rect style="fill: none; fill-opacity:0; stroke-width: 2; stroke: #000000" x="108.384" y="192.858" width="96.1559" height="38"/>
    <text font-size="12.8" style="fill: #000000;text-anchor:middle;font-family:monospace;font-style:normal;font-weight:normal" x="156.462" y="214.508">
      <tspan x="156.462" y="214.508">IP</tspan>
    </text>
  </g>
  <g>
    <rect style="fill: #ffffff" x="409.61" y="192.858" width="96.1559" height="38"/>
    <rect style="fill: none; fill-opacity:0; stroke-width: 2; stroke: #000000" x="409.61" y="192.858" width="96.1559" height="38"/>
    <text font-size="12.8" style="fill: #000000;text-anchor:middle;font-family:monospace;font-style:normal;font-weight:normal" x="457.688" y="214.508">
      <tspan x="457.688" y="214.508">IP</tspan>
    </text>
  </g>
  <g>
    <rect style="fill: #ffffff" x="107.676" y="275.368" width="96.1559" height="54"/>
    <rect style="fill: none; fill-opacity:0; stroke-width: 2; stroke: #000000" x="107.676" y="275.368" width="96.1559" height="54"/>
    <text font-size="12.8" style="fill: #000000;text-anchor:middle;font-family:monospace;font-style:normal;font-weight:normal" x="155.754" y="297.368">
      <tspan x="155.754" y="297.368">以太网驱</tspan>
      <tspan x="155.754" y="313.368">动程序</tspan>
    </text>
  </g>
  <g>
    <rect style="fill: #ffffff" x="408.904" y="274.882" width="96.1559" height="54"/>
    <rect style="fill: none; fill-opacity:0; stroke-width: 2; stroke: #000000" x="408.904" y="274.882" width="96.1559" height="54"/>
    <text font-size="12.8" style="fill: #000000;text-anchor:middle;font-family:monospace;font-style:normal;font-weight:normal" x="456.982" y="296.882">
      <tspan x="456.982" y="296.882">以太网驱</tspan>
      <tspan x="456.982" y="312.882">动程序</tspan>
    </text>
  </g>
  <g>
    <line style="fill: none; fill-opacity:0; stroke-width: 2; stroke: #000000" x1="156.817" y1="84.6495" x2="156.686" y2="102.822"/>
    <polygon style="fill: #000000" points="161.817,84.6856 156.889,74.6498 151.817,84.6134 "/>
    <polygon style="fill: none; fill-opacity:0; stroke-width: 2; stroke: #000000" points="161.817,84.6856 156.889,74.6498 151.817,84.6134 "/>
    <polygon style="fill: #000000" points="151.686,102.786 156.613,112.822 161.685,102.858 "/>
    <polygon style="fill: none; fill-opacity:0; stroke-width: 2; stroke: #000000" points="151.686,102.786 156.613,112.822 161.685,102.858 "/>
  </g>
  <g>
    <line style="fill: none; fill-opacity:0; stroke-width: 2; stroke: #000000" x1="156.462" y1="164.792" x2="156.462" y2="181.858"/>
    <polygon style="fill: #000000" points="161.462,164.792 156.462,154.792 151.462,164.792 "/>
    <polygon style="fill: none; fill-opacity:0; stroke-width: 2; stroke: #000000" points="161.462,164.792 156.462,154.792 151.462,164.792 "/>
    <polygon style="fill: #000000" points="151.462,181.858 156.462,191.858 161.462,181.858 "/>
    <polygon style="fill: none; fill-opacity:0; stroke-width: 2; stroke: #000000" points="151.462,181.858 156.462,191.858 161.462,181.858 "/>
  </g>
  <g>
    <line style="fill: none; fill-opacity:0; stroke-width: 2; stroke: #000000" x1="156.287" y1="241.857" x2="155.929" y2="264.369"/>
    <polygon style="fill: #000000" points="161.286,241.936 156.446,231.858 151.288,241.777 "/>
    <polygon style="fill: none; fill-opacity:0; stroke-width: 2; stroke: #000000" points="161.286,241.936 156.446,231.858 151.288,241.777 "/>
    <polygon style="fill: #000000" points="150.93,264.29 155.77,274.368 160.928,264.449 "/>
    <polygon style="fill: none; fill-opacity:0; stroke-width: 2; stroke: #000000" points="150.93,264.29 155.77,274.368 160.928,264.449 "/>
  </g>
  <g>
    <line style="fill: none; fill-opacity:0; stroke-width: 2; stroke: #000000" x1="457.524" y1="80.5723" x2="457.636" y2="104.076"/>
    <polygon style="fill: #000000" points="462.524,80.5485 457.477,70.5724 452.524,80.596 "/>
    <polygon style="fill: none; fill-opacity:0; stroke-width: 2; stroke: #000000" points="462.524,80.5485 457.477,70.5724 452.524,80.596 "/>
    <polygon style="fill: #000000" points="452.636,104.1 457.683,114.076 462.636,104.052 "/>
    <polygon style="fill: none; fill-opacity:0; stroke-width: 2; stroke: #000000" points="452.636,104.1 457.683,114.076 462.636,104.052 "/>
  </g>
  <g>
    <line style="fill: none; fill-opacity:0; stroke-width: 2; stroke: #000000" x1="457.688" y1="164.076" x2="457.688" y2="181.858"/>
    <polygon style="fill: #000000" points="462.688,164.076 457.688,154.076 452.688,164.076 "/>
    <polygon style="fill: none; fill-opacity:0; stroke-width: 2; stroke: #000000" points="462.688,164.076 457.688,154.076 452.688,164.076 "/>
    <polygon style="fill: #000000" points="452.688,181.858 457.688,191.858 462.688,181.858 "/>
    <polygon style="fill: none; fill-opacity:0; stroke-width: 2; stroke: #000000" points="452.688,181.858 457.688,191.858 462.688,181.858 "/>
  </g>
  <g>
    <line style="fill: none; fill-opacity:0; stroke-width: 2; stroke: #000000" x1="457.341" y1="242.829" x2="457.105" y2="263.883"/>
    <polygon style="fill: #000000" points="462.341,242.885 457.453,232.83 452.341,242.773 "/>
    <polygon style="fill: none; fill-opacity:0; stroke-width: 2; stroke: #000000" points="462.341,242.885 457.453,232.83 452.341,242.773 "/>
    <polygon style="fill: #000000" points="452.106,263.827 456.993,273.882 462.105,263.939 "/>
    <polygon style="fill: none; fill-opacity:0; stroke-width: 2; stroke: #000000" points="452.106,263.827 456.993,273.882 462.105,263.939 "/>
  </g>
  <g>
    <line style="fill: none; fill-opacity:0; stroke-width: 2; stroke-dasharray: 4; stroke: #000000" x1="219.456" y1="44.6616" x2="396.673" y2="42.9545"/>
    <polygon style="fill: #000000" points="219.408,39.6618 209.457,44.7579 219.504,49.6613 "/>
    <polygon style="fill: none; fill-opacity:0; stroke-width: 2; stroke: #000000" points="219.408,39.6618 209.457,44.7579 219.504,49.6613 "/>
    <polygon style="fill: #000000" points="396.722,47.9542 406.673,42.8581 396.625,37.9547 "/>
    <polygon style="fill: none; fill-opacity:0; stroke-width: 2; stroke: #000000" points="396.722,47.9542 406.673,42.8581 396.625,37.9547 "/>
  </g>
  <g>
    <line style="fill: none; fill-opacity:0; stroke-width: 2; stroke-dasharray: 4; stroke: #000000" x1="215.54" y1="133.826" x2="398.61" y2="134.062"/>
    <polygon style="fill: #000000" points="215.546,128.826 205.54,133.813 215.534,138.826 "/>
    <polygon style="fill: none; fill-opacity:0; stroke-width: 2; stroke: #000000" points="215.546,128.826 205.54,133.813 215.534,138.826 "/>
    <polygon style="fill: #000000" points="398.604,139.062 408.61,134.075 398.616,129.062 "/>
    <polygon style="fill: none; fill-opacity:0; stroke-width: 2; stroke: #000000" points="398.604,139.062 408.61,134.075 398.616,129.062 "/>
  </g>
  <g>
    <line style="fill: none; fill-opacity:0; stroke-width: 2; stroke-dasharray: 4; stroke: #000000" x1="216.542" y1="211.858" x2="398.61" y2="211.858"/>
    <polygon style="fill: #000000" points="216.542,206.858 206.542,211.858 216.542,216.858 "/>
    <polygon style="fill: none; fill-opacity:0; stroke-width: 2; stroke: #000000" points="216.542,206.858 206.542,211.858 216.542,216.858 "/>
    <polygon style="fill: #000000" points="398.61,216.858 408.61,211.858 398.61,206.858 "/>
    <polygon style="fill: none; fill-opacity:0; stroke-width: 2; stroke: #000000" points="398.61,216.858 408.61,211.858 398.61,206.858 "/>
  </g>
  <g>
    <line style="fill: none; fill-opacity:0; stroke-width: 2; stroke-dasharray: 4; stroke: #000000" x1="214.832" y1="302.342" x2="397.904" y2="301.908"/>
    <polygon style="fill: #000000" points="214.82,297.342 204.832,302.366 214.844,307.342 "/>
    <polygon style="fill: none; fill-opacity:0; stroke-width: 2; stroke: #000000" points="214.82,297.342 204.832,302.366 214.844,307.342 "/>
    <polygon style="fill: #000000" points="397.916,306.908 407.904,301.884 397.892,296.908 "/>
    <polygon style="fill: none; fill-opacity:0; stroke-width: 2; stroke: #000000" points="397.916,306.908 407.904,301.884 397.892,296.908 "/>
  </g>
  <g>
    <path style="fill: #ffffff" d="M 20.263 27.9604 L 64.663,27.9604 L 64.663,62.2461 C 55.783,56.5318 51.343,56.5318 42.463,62.2461 C 33.583,67.9604 29.143,67.9604 20.263,62.2461 L 20.263,27.9604z"/>
    <path style="fill: none; fill-opacity:0; stroke-width: 2.35099e-037; stroke: #000000" d="M 20.263 27.9604 L 64.663,27.9604 L 64.663,62.2461 C 55.783,56.5318 51.343,56.5318 42.463,62.2461 C 33.583,67.9604 29.143,67.9604 20.263,62.2461 L 20.263,27.9604"/>
    <text font-size="12.8" style="fill: #000000;text-anchor:middle;font-family:monospace;font-style:normal;font-weight:normal" x="42.463" y="45.4461">
      <tspan x="42.463" y="45.4461">应用层</tspan>
    </text>
  </g>
  <g>
    <path style="fill: #ffffff" d="M 22.1966 118.744 L 66.5966,118.744 L 66.5966,153.03 C 57.7166,147.315 53.2766,147.315 44.3966,153.03 C 35.5166,158.744 31.0766,158.744 22.1966,153.03 L 22.1966,118.744z"/>
    <path style="fill: none; fill-opacity:0; stroke-width: 2.35099e-037; stroke: #000000" d="M 22.1966 118.744 L 66.5966,118.744 L 66.5966,153.03 C 57.7166,147.315 53.2766,147.315 44.3966,153.03 C 35.5166,158.744 31.0766,158.744 22.1966,153.03 L 22.1966,118.744"/>
    <text font-size="12.8" style="fill: #000000;text-anchor:middle;font-family:monospace;font-style:normal;font-weight:normal" x="44.3966" y="136.23">
      <tspan x="44.3966" y="136.23">传输层</tspan>
    </text>
  </g>
  <g>
    <path style="fill: #ffffff" d="M 22.105 196.688 L 66.505,196.688 L 66.505,230.974 C 57.625,225.259 53.185,225.259 44.305,230.974 C 35.425,236.688 30.985,236.688 22.105,230.974 L 22.105,196.688z"/>
    <path style="fill: none; fill-opacity:0; stroke-width: 2.35099e-037; stroke: #000000" d="M 22.105 196.688 L 66.505,196.688 L 66.505,230.974 C 57.625,225.259 53.185,225.259 44.305,230.974 C 35.425,236.688 30.985,236.688 22.105,230.974 L 22.105,196.688"/>
    <text font-size="12.8" style="fill: #000000;text-anchor:middle;font-family:monospace;font-style:normal;font-weight:normal" x="44.305" y="214.174">
      <tspan x="44.305" y="214.174">网络层</tspan>
    </text>
  </g>
  <g>
    <path style="fill: #ffffff" d="M 20.1792 291.14 L 64.5792,291.14 L 64.5792,325.426 C 55.6992,319.711 51.2592,319.711 42.3792,325.426 C 33.4992,331.14 29.0592,331.14 20.1792,325.426 L 20.1792,291.14z"/>
    <path style="fill: none; fill-opacity:0; stroke-width: 2.35099e-037; stroke: #000000" d="M 20.1792 291.14 L 64.5792,291.14 L 64.5792,325.426 C 55.6992,319.711 51.2592,319.711 42.3792,325.426 C 33.4992,331.14 29.0592,331.14 20.1792,325.426 L 20.1792,291.14"/>
    <text font-size="12.8" style="fill: #000000;text-anchor:middle;font-family:monospace;font-style:normal;font-weight:normal" x="42.3792" y="308.626">
      <tspan x="42.3792" y="308.626">链路层</tspan>
    </text>
  </g>
  <g>
    <line style="fill: none; fill-opacity:0; stroke-width: 2; stroke: #000000" x1="640.513" y1="60.7064" x2="640.468" y2="104.568"/>
    <polygon style="fill: #000000" points="645.513,60.7115 640.523,50.7064 635.513,60.7013 "/>
    <polygon style="fill: none; fill-opacity:0; stroke-width: 2; stroke: #000000" points="645.513,60.7115 640.523,50.7064 635.513,60.7013 "/>
    <polygon style="fill: #000000" points="635.468,104.563 640.458,114.568 645.468,104.573 "/>
    <polygon style="fill: none; fill-opacity:0; stroke-width: 2; stroke: #000000" points="635.468,104.563 640.458,114.568 645.468,104.573 "/>
  </g>
  <g>
    <path style="fill: #ffffff" d="M 608.428 15.1224 L 672.618,15.1224 L 672.618,49.7065 C 659.78,43.9425 653.361,43.9425 640.523,49.7065 C 627.685,55.4705 621.266,55.4705 608.428,49.7065 L 608.428,15.1224z"/>
    <path style="fill: none; fill-opacity:0; stroke-width: 2.35099e-037; stroke: #000000" d="M 608.428 15.1224 L 672.618,15.1224 L 672.618,49.7065 C 659.78,43.9425 653.361,43.9425 640.523,49.7065 C 627.685,55.4705 621.266,55.4705 608.428,49.7065 L 608.428,15.1224"/>
    <text font-size="12.8" style="fill: #000000;text-anchor:middle;font-family:monospace;font-style:normal;font-weight:normal" x="640.523" y="32.7324">
      <tspan x="640.523" y="32.7324">用户进程</tspan>
    </text>
  </g>
  <g>
    <path style="fill: #ffffff" d="M 608.336 115.552 L 672.526,115.552 L 672.526,158.752 C 659.688,151.552 653.269,151.552 640.431,158.752 C 627.593,165.952 621.174,165.952 608.336,158.752 L 608.336,115.552z"/>
    <path style="fill: none; fill-opacity:0; stroke-width: 2.35099e-037; stroke: #000000" d="M 608.336 115.552 L 672.526,115.552 L 672.526,158.752 C 659.688,151.552 653.269,151.552 640.431,158.752 C 627.593,165.952 621.174,165.952 608.336,158.752 L 608.336,115.552"/>
    <text font-size="12.8" style="fill: #000000;text-anchor:middle;font-family:monospace;font-style:normal;font-weight:normal" x="640.431" y="136.752">
      <tspan x="640.431" y="136.752">内核</tspan>
    </text>
  </g>
  <line style="fill: none; fill-opacity:0; stroke-width: 2; stroke: #000000" x1="623.1" y1="81.1464" x2="656.112" y2="80.2294"/>
  <g>
    <line style="fill: none; fill-opacity:0; stroke-width: 2; stroke: #000000" x1="746.518" y1="70.7984" x2="746.477" y2="108.648"/>
    <polygon style="fill: #000000" points="751.518,70.8038 746.529,60.7984 741.518,70.793 "/>
    <polygon style="fill: none; fill-opacity:0; stroke-width: 2; stroke: #000000" points="751.518,70.8038 746.529,60.7984 741.518,70.793 "/>
    <polygon style="fill: #000000" points="741.478,108.643 746.467,118.648 751.477,108.654 "/>
    <polygon style="fill: none; fill-opacity:0; stroke-width: 2; stroke: #000000" points="741.478,108.643 746.467,118.648 751.477,108.654 "/>
  </g>
  <g>
    <path style="fill: #ffffff" d="M 714.434 14.1984 L 778.624,14.1984 L 778.624,59.7984 C 765.786,52.1984 759.367,52.1984 746.529,59.7984 C 733.691,67.3984 727.272,67.3984 714.434,59.7984 L 714.434,14.1984z"/>
    <path style="fill: none; fill-opacity:0; stroke-width: 2.35099e-037; stroke: #000000" d="M 714.434 14.1984 L 778.624,14.1984 L 778.624,59.7984 C 765.786,52.1984 759.367,52.1984 746.529,59.7984 C 733.691,67.3984 727.272,67.3984 714.434,59.7984 L 714.434,14.1984"/>
    <text font-size="12.8" style="fill: #000000;text-anchor:middle;font-family:monospace;font-style:normal;font-weight:normal" x="746.529" y="28.3984">
      <tspan x="746.529" y="28.3984">处理应用</tspan>
      <tspan x="746.529" y="44.3984">程序细节</tspan>
    </text>
  </g>
  <g>
    <path style="fill: #ffffff" d="M 714.342 119.654 L 778.532,119.654 L 778.532,165.254 C 765.694,157.654 759.275,157.654 746.437,165.254 C 733.599,172.854 727.18,172.854 714.342,165.254 L 714.342,119.654z"/>
    <path style="fill: none; fill-opacity:0; stroke-width: 2.35099e-037; stroke: #000000" d="M 714.342 119.654 L 778.532,119.654 L 778.532,165.254 C 765.694,157.654 759.275,157.654 746.437,165.254 C 733.599,172.854 727.18,172.854 714.342,165.254 L 714.342,119.654"/>
    <text font-size="12.8" style="fill: #000000;text-anchor:middle;font-family:monospace;font-style:normal;font-weight:normal" x="746.437" y="133.854">
      <tspan x="746.437" y="133.854">处理</tspan>
      <tspan x="746.437" y="149.854">通信细节</tspan>
    </text>
  </g>
  <g>
    <line style="fill: none; fill-opacity:0; stroke-width: 2; stroke: #000000" x1="155.688" y1="340.368" x2="155.494" y2="372.758"/>
    <polygon style="fill: #000000" points="160.688,340.398 155.748,330.368 150.688,340.338 "/>
    <polygon style="fill: none; fill-opacity:0; stroke-width: 2; stroke: #000000" points="160.688,340.398 155.748,330.368 150.688,340.338 "/>
    <polygon style="fill: #000000" points="150.494,372.728 155.434,382.758 160.494,372.788 "/>
    <polygon style="fill: none; fill-opacity:0; stroke-width: 2; stroke: #000000" points="150.494,372.728 155.434,382.758 160.494,372.788 "/>
  </g>
  <g>
    <line style="fill: none; fill-opacity:0; stroke-width: 2; stroke: #000000" x1="457.011" y1="339.882" x2="457.093" y2="370.924"/>
    <polygon style="fill: #000000" points="462.011,339.869 456.985,329.882 452.011,339.895 "/>
    <polygon style="fill: none; fill-opacity:0; stroke-width: 2; stroke: #000000" points="462.011,339.869 456.985,329.882 452.011,339.895 "/>
    <polygon style="fill: #000000" points="452.093,370.937 457.119,380.924 462.093,370.911 "/>
    <polygon style="fill: none; fill-opacity:0; stroke-width: 2; stroke: #000000" points="452.093,370.937 457.119,380.924 462.093,370.911 "/>
  </g>
  <line style="fill: none; fill-opacity:0; stroke-width: 4; stroke: #000000" x1="6.874" y1="382.84" x2="546.072" y2="382.84"/>
  <g>
    <path style="fill: #ffffff" d="M 260.884 2.7114 L 352.584,2.7114 L 352.584,26.7114 C 334.244,22.7114 325.074,22.7114 306.734,26.7114 C 288.394,30.7114 279.224,30.7114 260.884,26.7114 L 260.884,2.7114z"/>
    <path style="fill: none; fill-opacity:0; stroke-width: 0.02; stroke: #000000" d="M 260.884 2.7114 L 352.584,2.7114 L 352.584,26.7114 C 334.244,22.7114 325.074,22.7114 306.734,26.7114 C 288.394,30.7114 279.224,30.7114 260.884,26.7114 L 260.884,2.7114"/>
    <text font-size="12.8" style="fill: #000000;text-anchor:middle;font-family:monospace;font-style:normal;font-weight:normal" x="306.734" y="15.9114">
      <tspan x="306.734" y="15.9114">HTTP 协议</tspan>
    </text>
  </g>
  <g>
    <path style="fill: #ffffff" d="M 260.792 98.9966 L 352.492,98.9966 L 352.492,122.997 C 334.152,118.997 324.982,118.997 306.642,122.997 C 288.302,126.997 279.132,126.997 260.792,122.997 L 260.792,98.9966z"/>
    <path style="fill: none; fill-opacity:0; stroke-width: 0.02; stroke: #000000" d="M 260.792 98.9966 L 352.492,98.9966 L 352.492,122.997 C 334.152,118.997 324.982,118.997 306.642,122.997 C 288.302,126.997 279.132,126.997 260.792,122.997 L 260.792,98.9966"/>
    <text font-size="12.8" style="fill: #000000;text-anchor:middle;font-family:monospace;font-style:normal;font-weight:normal" x="306.642" y="112.197">
      <tspan x="306.642" y="112.197">TCP 协议</tspan>
    </text>
  </g>
  <g>
    <path style="fill: #ffffff" d="M 260.792 176.298 L 352.492,176.298 L 352.492,200.298 C 334.152,196.298 324.982,196.298 306.642,200.298 C 288.302,204.298 279.132,204.298 260.792,200.298 L 260.792,176.298z"/>
    <path style="fill: none; fill-opacity:0; stroke-width: 0.02; stroke: #000000" d="M 260.792 176.298 L 352.492,176.298 L 352.492,200.298 C 334.152,196.298 324.982,196.298 306.642,200.298 C 288.302,204.298 279.132,204.298 260.792,200.298 L 260.792,176.298"/>
    <text font-size="12.8" style="fill: #000000;text-anchor:middle;font-family:monospace;font-style:normal;font-weight:normal" x="306.642" y="189.498">
      <tspan x="306.642" y="189.498">IP 协议</tspan>
    </text>
  </g>
  <g>
    <path style="fill: #ffffff" d="M 260.792 267.998 L 352.492,267.998 L 352.492,291.998 C 334.152,287.998 324.982,287.998 306.642,291.998 C 288.302,295.998 279.132,295.998 260.792,291.998 L 260.792,267.998z"/>
    <path style="fill: none; fill-opacity:0; stroke-width: 0.02; stroke: #000000" d="M 260.792 267.998 L 352.492,267.998 L 352.492,291.998 C 334.152,287.998 324.982,287.998 306.642,291.998 C 288.302,295.998 279.132,295.998 260.792,291.998 L 260.792,267.998"/>
    <text font-size="12.8" style="fill: #000000;text-anchor:middle;font-family:monospace;font-style:normal;font-weight:normal" x="306.642" y="281.198">
      <tspan x="306.642" y="281.198">以太网协议</tspan>
    </text>
  </g>
  <line style="fill: none; fill-opacity:0; stroke-width: 2; stroke: #000000" x1="730.408" y1="87.6758" x2="763.42" y2="86.7588"/>
</svg>
