<?xml version="1.0" encoding="UTF-8" standalone="no"?>
<!DOCTYPE svg PUBLIC "-//W3C//DTD SVG 1.0//EN" "http://www.w3.org/TR/2001/PR-SVG-20010719/DTD/svg10.dtd">
<svg width="35cm" height="27cm" viewBox="297 39 690 522" xmlns="http://www.w3.org/2000/svg" xmlns:xlink="http://www.w3.org/1999/xlink">
  <g>
    <path style="fill: #ffffff" d="M 578.068 532.304 L 669.168,532.304 L 669.168,556.304 C 650.948,552.304 641.838,552.304 623.618,556.304 C 605.398,560.304 596.288,560.304 578.068,556.304 L 578.068,532.304z"/>
    <path style="fill: none; fill-opacity:0; stroke-width: 0.02; stroke: #000000" d="M 578.068 532.304 L 669.168,532.304 L 669.168,556.304 C 650.948,552.304 641.838,552.304 623.618,556.304 C 605.398,560.304 596.288,560.304 578.068,556.304 L 578.068,532.304"/>
    <text font-size="12.8" style="fill: #000000;text-anchor:middle;font-family:monospace;font-style:normal;font-weight:700" x="623.618" y="544.704">
      <tspan x="623.618" y="544.704">TCP报文段首部</tspan>
    </text>
  </g>
  <line style="fill: none; fill-opacity:0; stroke-width: 1; stroke: #000000" x1="300.783" y1="47.0369" x2="300.783" y2="59.4793"/>
  <line style="fill: none; fill-opacity:0; stroke-width: 1; stroke: #000000" x1="599.515" y1="47.0107" x2="599.515" y2="59.4531"/>
  <g>
    <path style="fill: #ffffff" d="M 409.704 39.2934 L 475.353,39.2934 L 475.353,63.2934 C 462.223,59.2934 455.658,59.2934 442.528,63.2934 C 429.399,67.2934 422.834,67.2934 409.704,63.2934 L 409.704,39.2934z"/>
    <path style="fill: none; fill-opacity:0; stroke-width: 0.02; stroke: #000000" d="M 409.704 39.2934 L 475.353,39.2934 L 475.353,63.2934 C 462.223,59.2934 455.658,59.2934 442.528,63.2934 C 429.399,67.2934 422.834,67.2934 409.704,63.2934 L 409.704,39.2934"/>
    <text font-size="12.8" style="fill: #000000;text-anchor:middle;font-family:monospace;font-style:normal;font-weight:normal" x="442.528" y="52.4934">
      <tspan x="442.528" y="52.4934">IP数据报</tspan>
    </text>
  </g>
  <g>
    <line style="fill: none; fill-opacity:0; stroke-width: 1; stroke: #000000" x1="409.705" y1="53.2852" x2="311.283" y2="53.2607"/>
    <polygon style="fill: #000000" points="311.284,48.2607 301.283,53.2582 311.281,58.2607 "/>
    <polygon style="fill: none; fill-opacity:0; stroke-width: 1; stroke: #000000" points="311.284,48.2607 301.283,53.2582 311.281,58.2607 "/>
  </g>
  <g>
    <line style="fill: none; fill-opacity:0; stroke-width: 1; stroke: #000000" x1="475.346" y1="53.2805" x2="589.015" y2="53.236"/>
    <polygon style="fill: #000000" points="589.016,58.236 599.015,53.2321 589.013,48.236 "/>
    <polygon style="fill: none; fill-opacity:0; stroke-width: 1; stroke: #000000" points="589.016,58.236 599.015,53.2321 589.013,48.236 "/>
  </g>
  <g>
    <path style="fill: #ffffff" d="M 460.033 60.0883 L 525.682,60.0883 L 525.682,84.0883 C 512.552,80.0883 505.987,80.0883 492.857,84.0883 C 479.727,88.0883 473.162,88.0883 460.033,84.0883 L 460.033,60.0883z"/>
    <path style="fill: none; fill-opacity:0; stroke-width: 0.02; stroke: #000000" d="M 460.033 60.0883 L 525.682,60.0883 L 525.682,84.0883 C 512.552,80.0883 505.987,80.0883 492.857,84.0883 C 479.727,88.0883 473.162,88.0883 460.033,84.0883 L 460.033,60.0883"/>
    <text font-size="12.8" style="fill: #000000;text-anchor:middle;font-family:monospace;font-style:normal;font-weight:normal" x="492.857" y="73.2883">
      <tspan x="492.857" y="73.2883">TCP报文段</tspan>
    </text>
  </g>
  <g>
    <rect style="fill: #ffffff" x="301.01" y="83.0878" width="298.629" height="38"/>
    <rect style="fill: none; fill-opacity:0; stroke-width: 2; stroke: #000000" x="301.01" y="83.0878" width="298.629" height="38"/>
    <text font-size="12.8" style="fill: #000000;text-anchor:middle;font-family:monospace;font-style:normal;font-weight:normal" x="450.324" y="104.738">
      <tspan x="450.324" y="104.738"></tspan>
    </text>
  </g>
  <g>
    <path style="fill: #ffffff" d="M 302.133 89.456 L 347.133,89.456 L 347.133,113.456 C 338.133,109.456 333.633,109.456 324.633,113.456 C 315.633,117.456 311.133,117.456 302.133,113.456 L 302.133,89.456z"/>
    <path style="fill: none; fill-opacity:0; stroke-width: 0.02; stroke: #000000" d="M 302.133 89.456 L 347.133,89.456 L 347.133,113.456 C 338.133,109.456 333.633,109.456 324.633,113.456 C 315.633,117.456 311.133,117.456 302.133,113.456 L 302.133,89.456"/>
    <text font-size="12.8" style="fill: #000000;text-anchor:middle;font-family:monospace;font-style:normal;font-weight:normal" x="324.633" y="102.656">
      <tspan x="324.633" y="102.656">IP首部</tspan>
    </text>
  </g>
  <line style="fill: none; fill-opacity:0; stroke-width: 2; stroke: #000000" x1="360.078" y1="121.902" x2="360.07" y2="82.9962"/>
  <g>
    <path style="fill: #ffffff" d="M 476.302 88.4466 L 536.702,88.4466 L 536.702,112.447 C 524.622,108.447 518.582,108.447 506.502,112.447 C 494.422,116.447 488.382,116.447 476.302,112.447 L 476.302,88.4466z"/>
    <path style="fill: none; fill-opacity:0; stroke-width: 0.02; stroke: #000000" d="M 476.302 88.4466 L 536.702,88.4466 L 536.702,112.447 C 524.622,108.447 518.582,108.447 506.502,112.447 C 494.422,116.447 488.382,116.447 476.302,112.447 L 476.302,88.4466"/>
    <text font-size="12.8" style="fill: #000000;text-anchor:middle;font-family:monospace;font-style:normal;font-weight:normal" x="506.502" y="101.647">
      <tspan x="506.502" y="101.647">TCP数据</tspan>
    </text>
  </g>
  <line style="fill: none; fill-opacity:0; stroke-width: 1; stroke: #000000" x1="360.163" y1="67.9442" x2="360.163" y2="80.3866"/>
  <line style="fill: none; fill-opacity:0; stroke-width: 1; stroke: #000000" x1="599.577" y1="67.7649" x2="599.577" y2="80.2073"/>
  <g>
    <line style="fill: none; fill-opacity:0; stroke-width: 1; stroke: #000000" x1="460.032" y1="74.1074" x2="370.663" y2="74.1593"/>
    <polygon style="fill: #000000" points="370.66,69.1593 360.663,74.1651 370.666,79.1593 "/>
    <polygon style="fill: none; fill-opacity:0; stroke-width: 1; stroke: #000000" points="370.66,69.1593 360.663,74.1651 370.666,79.1593 "/>
  </g>
  <g>
    <line style="fill: none; fill-opacity:0; stroke-width: 1; stroke: #000000" x1="525.634" y1="74.0569" x2="589.077" y2="73.9962"/>
    <polygon style="fill: #000000" points="589.082,78.9962 599.077,73.9866 589.073,68.9962 "/>
    <polygon style="fill: none; fill-opacity:0; stroke-width: 1; stroke: #000000" points="589.082,78.9962 599.077,73.9866 589.073,68.9962 "/>
  </g>
  <g>
    <path style="fill: #ffffff" d="M 363.574 89.4162 L 416.274,89.4162 L 416.274,113.416 C 405.734,109.416 400.464,109.416 389.924,113.416 C 379.384,117.416 374.114,117.416 363.574,113.416 L 363.574,89.4162z"/>
    <path style="fill: none; fill-opacity:0; stroke-width: 0.02; stroke: #000000" d="M 363.574 89.4162 L 416.274,89.4162 L 416.274,113.416 C 405.734,109.416 400.464,109.416 389.924,113.416 C 379.384,117.416 374.114,117.416 363.574,113.416 L 363.574,89.4162"/>
    <text font-size="12.8" style="fill: #000000;text-anchor:middle;font-family:monospace;font-style:normal;font-weight:normal" x="389.924" y="102.616">
      <tspan x="389.924" y="102.616">TCP首部</tspan>
    </text>
  </g>
  <g>
    <rect style="fill: #ffffff" x="301.937" y="385.433" width="640.277" height="38.6806"/>
    <rect style="fill: none; fill-opacity:0; stroke-width: 2; stroke: #000000" x="301.937" y="385.433" width="640.277" height="38.6806"/>
    <text font-size="12.8" style="fill: #000000;text-anchor:middle;font-family:monospace;font-style:normal;font-weight:normal" x="622.076" y="407.424">
      <tspan x="622.076" y="407.424"></tspan>
    </text>
  </g>
  <g>
    <path style="fill: #ffffff" d="M 734.119 392.478 L 830.319,392.478 L 830.319,416.478 C 811.079,412.478 801.459,412.478 782.219,416.478 C 762.979,420.478 753.359,420.478 734.119,416.478 L 734.119,392.478z"/>
    <path style="fill: none; fill-opacity:0; stroke-width: 0.02; stroke: #000000" d="M 734.119 392.478 L 830.319,392.478 L 830.319,416.478 C 811.079,412.478 801.459,412.478 782.219,416.478 C 762.979,420.478 753.359,420.478 734.119,416.478 L 734.119,392.478"/>
    <text font-size="12.8" style="fill: #000000;text-anchor:middle;font-family:monospace;font-style:normal;font-weight:normal" x="782.219" y="405.678">
      <tspan x="782.219" y="405.678">16位紧急指针</tspan>
    </text>
  </g>
  <g>
    <rect style="fill: #ffffff" x="302.169" y="424.012" width="640.52" height="38.6806"/>
    <rect style="fill: none; fill-opacity:0; stroke-width: 2; stroke: #000000" x="302.169" y="424.012" width="640.52" height="38.6806"/>
    <text font-size="12.8" style="fill: #000000;text-anchor:middle;font-family:monospace;font-style:normal;font-weight:normal" x="622.429" y="446.352">
      <tspan x="622.429" y="446.352">选项</tspan>
    </text>
  </g>
  <g>
    <rect style="fill: #ffffff" x="302.169" y="462.578" width="640.928" height="66.2152"/>
    <rect style="fill: none; fill-opacity:0; stroke-width: 2; stroke: #000000" x="302.169" y="462.578" width="640.928" height="66.2152"/>
    <text font-size="12.8" style="fill: #000000;text-anchor:middle;font-family:monospace;font-style:normal;font-weight:normal" x="622.633" y="498.686">
      <tspan x="622.633" y="498.686">数据(如果有)</tspan>
    </text>
  </g>
  <g>
    <rect style="fill: #ffffff" x="301.419" y="269.954" width="640.364" height="38.6806"/>
    <rect style="fill: none; fill-opacity:0; stroke-width: 2; stroke: #000000" x="301.419" y="269.954" width="640.364" height="38.6806"/>
    <text font-size="12.8" style="fill: #000000;text-anchor:middle;font-family:monospace;font-style:normal;font-weight:normal" x="621.601" y="291.944">
      <tspan x="621.601" y="291.944"></tspan>
    </text>
  </g>
  <g>
    <path style="fill: #ffffff" d="M 573.532 275.378 L 669.732,275.378 L 669.732,299.378 C 650.492,295.378 640.872,295.378 621.632,299.378 C 602.392,303.378 592.772,303.378 573.532,299.378 L 573.532,275.378z"/>
    <path style="fill: none; fill-opacity:0; stroke-width: 0.02; stroke: #000000" d="M 573.532 275.378 L 669.732,275.378 L 669.732,299.378 C 650.492,295.378 640.872,295.378 621.632,299.378 C 602.392,303.378 592.772,303.378 573.532,299.378 L 573.532,275.378"/>
    <text font-size="12.8" style="fill: #000000;text-anchor:middle;font-family:monospace;font-style:normal;font-weight:normal" x="621.632" y="288.578">
      <tspan x="621.632" y="288.578">32位序号</tspan>
    </text>
  </g>
  <g>
    <rect style="fill: #ffffff" x="301.557" y="308.532" width="640.226" height="38.6806"/>
    <rect style="fill: none; fill-opacity:0; stroke-width: 2; stroke: #000000" x="301.557" y="308.532" width="640.226" height="38.6806"/>
    <text font-size="12.8" style="fill: #000000;text-anchor:middle;font-family:monospace;font-style:normal;font-weight:normal" x="621.67" y="330.523">
      <tspan x="621.67" y="330.523"></tspan>
    </text>
  </g>
  <g>
    <path style="fill: #ffffff" d="M 571.635 314.761 L 670.435,314.761 L 670.435,338.761 C 650.675,334.761 640.795,334.761 621.035,338.761 C 601.275,342.761 591.395,342.761 571.635,338.761 L 571.635,314.761z"/>
    <path style="fill: none; fill-opacity:0; stroke-width: 0.02; stroke: #000000" d="M 571.635 314.761 L 670.435,314.761 L 670.435,338.761 C 650.675,334.761 640.795,334.761 621.035,338.761 C 601.275,342.761 591.395,342.761 571.635,338.761 L 571.635,314.761"/>
    <text font-size="12.8" style="fill: #000000;text-anchor:middle;font-family:monospace;font-style:normal;font-weight:normal" x="621.035" y="327.961">
      <tspan x="621.035" y="327.961">32位确认序号</tspan>
    </text>
  </g>
  <g>
    <rect style="fill: #ffffff" x="301.557" y="347.391" width="640.226" height="38"/>
    <rect style="fill: none; fill-opacity:0; stroke-width: 2; stroke: #000000" x="301.557" y="347.391" width="640.226" height="38"/>
    <text font-size="12.8" style="fill: #000000;text-anchor:middle;font-family:monospace;font-style:normal;font-weight:normal" x="621.67" y="369.041">
      <tspan x="621.67" y="369.041"></tspan>
    </text>
  </g>
  <g>
    <path style="fill: #ffffff" d="M 297.539 201.889 L 308.539,201.889 L 308.539,225.889 C 306.339,221.889 305.239,221.889 303.039,225.889 C 300.839,229.889 299.739,229.889 297.539,225.889 L 297.539,201.889z"/>
    <path style="fill: none; fill-opacity:0; stroke-width: 0.02; stroke: #000000" d="M 297.539 201.889 L 308.539,201.889 L 308.539,225.889 C 306.339,221.889 305.239,221.889 303.039,225.889 C 300.839,229.889 299.739,229.889 297.539,225.889 L 297.539,201.889"/>
    <text font-size="12.7998" style="fill: #000000;text-anchor:middle;font-family:sans-serif;font-style:normal;font-weight:normal" x="303.039" y="216.889">
      <tspan x="303.039" y="216.889">0</tspan>
    </text>
  </g>
  <g>
    <path style="fill: #ffffff" d="M 602.689 200.647 L 620.689,200.647 L 620.689,224.647 C 617.089,220.647 615.289,220.647 611.689,224.647 C 608.089,228.647 606.289,228.647 602.689,224.647 L 602.689,200.647z"/>
    <path style="fill: none; fill-opacity:0; stroke-width: 0.02; stroke: #000000" d="M 602.689 200.647 L 620.689,200.647 L 620.689,224.647 C 617.089,220.647 615.289,220.647 611.689,224.647 C 608.089,228.647 606.289,228.647 602.689,224.647 L 602.689,200.647"/>
    <text font-size="12.7998" style="fill: #000000;text-anchor:middle;font-family:sans-serif;font-style:normal;font-weight:normal" x="611.689" y="215.647">
      <tspan x="611.689" y="215.647">15</tspan>
    </text>
  </g>
  <g>
    <path style="fill: #ffffff" d="M 621.702 200.027 L 639.702,200.027 L 639.702,224.027 C 636.102,220.027 634.302,220.027 630.702,224.027 C 627.102,228.027 625.302,228.027 621.702,224.027 L 621.702,200.027z"/>
    <path style="fill: none; fill-opacity:0; stroke-width: 0.02; stroke: #000000" d="M 621.702 200.027 L 639.702,200.027 L 639.702,224.027 C 636.102,220.027 634.302,220.027 630.702,224.027 C 627.102,228.027 625.302,228.027 621.702,224.027 L 621.702,200.027"/>
    <text font-size="12.7998" style="fill: #000000;text-anchor:middle;font-family:sans-serif;font-style:normal;font-weight:normal" x="630.702" y="215.027">
      <tspan x="630.702" y="215.027">16</tspan>
    </text>
  </g>
  <g>
    <path style="fill: #ffffff" d="M 923.343 200.464 L 941.343,200.464 L 941.343,224.464 C 937.743,220.464 935.943,220.464 932.343,224.464 C 928.743,228.464 926.943,228.464 923.343,224.464 L 923.343,200.464z"/>
    <path style="fill: none; fill-opacity:0; stroke-width: 0.02; stroke: #000000" d="M 923.343 200.464 L 941.343,200.464 L 941.343,224.464 C 937.743,220.464 935.943,220.464 932.343,224.464 C 928.743,228.464 926.943,228.464 923.343,224.464 L 923.343,200.464"/>
    <text font-size="12.7998" style="fill: #000000;text-anchor:middle;font-family:sans-serif;font-style:normal;font-weight:normal" x="932.343" y="215.464">
      <tspan x="932.343" y="215.464">31</tspan>
    </text>
  </g>
  <line style="fill: none; fill-opacity:0; stroke-width: 2; stroke: #000000" x1="621.67" y1="347.213" x2="621.67" y2="385.391"/>
  <line style="fill: none; fill-opacity:0; stroke-width: 2; stroke: #000000" x1="500.12" y1="347.505" x2="500.12" y2="385.683"/>
  <g>
    <path style="fill: #ffffff" d="M 719.638 353.403 L 841.538,353.403 L 841.538,377.403 C 817.158,373.403 804.968,373.403 780.588,377.403 C 756.208,381.403 744.018,381.403 719.638,377.403 L 719.638,353.403z"/>
    <path style="fill: none; fill-opacity:0; stroke-width: 0.02; stroke: #000000" d="M 719.638 353.403 L 841.538,353.403 L 841.538,377.403 C 817.158,373.403 804.968,373.403 780.588,377.403 C 756.208,381.403 744.018,381.403 719.638,377.403 L 719.638,353.403"/>
    <text font-size="12.8" style="fill: #000000;text-anchor:middle;font-family:monospace;font-style:normal;font-weight:normal" x="780.588" y="366.603">
      <tspan x="780.588" y="366.603">16位窗口大小</tspan>
    </text>
  </g>
  <line style="fill: none; fill-opacity:0; stroke-width: 1; stroke: #000000" x1="957.731" y1="422.693" x2="972.355" y2="422.693"/>
  <line style="fill: none; fill-opacity:0; stroke-width: 1; stroke: #000000" x1="957.454" y1="232.09" x2="972.076" y2="232.09"/>
  <g>
    <path style="fill: #ffffff" d="M 943.119 286.78 L 986.719,286.78 L 986.719,319.684 C 977.999,314.2 973.639,314.2 964.919,319.684 C 956.199,325.168 951.839,325.168 943.119,319.684 L 943.119,286.78z"/>
    <path style="fill: none; fill-opacity:0; stroke-width: 0.02; stroke: #000000" d="M 943.119 286.78 L 986.719,286.78 L 986.719,319.684 C 977.999,314.2 973.639,314.2 964.919,319.684 C 956.199,325.168 951.839,325.168 943.119,319.684 L 943.119,286.78"/>
    <text font-size="12.8" style="fill: #000000;text-anchor:middle;font-family:sans-serif;font-style:normal;font-weight:normal" x="964.919" y="305.29">
      <tspan x="964.919" y="305.29">20字节</tspan>
    </text>
  </g>
  <g>
    <line style="fill: none; fill-opacity:0; stroke-width: 1; stroke: #000000" x1="964.919" y1="286.78" x2="964.794" y2="242.59"/>
    <polygon style="fill: #000000" points="969.794,242.576 964.766,232.59 959.794,242.605 "/>
    <polygon style="fill: none; fill-opacity:0; stroke-width: 1; stroke: #000000" points="969.794,242.576 964.766,232.59 959.794,242.605 "/>
  </g>
  <g>
    <line style="fill: none; fill-opacity:0; stroke-width: 1; stroke: #000000" x1="964.934" y1="319.666" x2="965.031" y2="412.193"/>
    <polygon style="fill: #000000" points="960.031,412.199 965.042,422.193 970.031,412.188 "/>
    <polygon style="fill: none; fill-opacity:0; stroke-width: 1; stroke: #000000" points="960.031,412.199 965.042,422.193 970.031,412.188 "/>
  </g>
  <g>
    <path style="fill: #ffffff" d="M 318.815 122.144 L 336.815,122.144 L 336.815,146.144 C 333.215,142.144 331.415,142.144 327.815,146.144 C 324.215,150.144 322.415,150.144 318.815,146.144 L 318.815,122.144z"/>
    <path style="fill: none; fill-opacity:0; stroke-width: 0.02; stroke: #000000" d="M 318.815 122.144 L 336.815,122.144 L 336.815,146.144 C 333.215,142.144 331.415,142.144 327.815,146.144 C 324.215,150.144 322.415,150.144 318.815,146.144 L 318.815,122.144"/>
    <text font-size="12.7998" style="fill: #000000;text-anchor:middle;font-family:sans-serif;font-style:normal;font-weight:normal" x="327.815" y="137.144">
      <tspan x="327.815" y="137.144">20</tspan>
    </text>
  </g>
  <line style="fill: none; fill-opacity:0; stroke-width: 2; stroke: #000000" x1="420.005" y1="121.617" x2="419.997" y2="82.711"/>
  <g>
    <path style="fill: #ffffff" d="M 380.618 122.104 L 398.618,122.104 L 398.618,146.104 C 395.018,142.104 393.218,142.104 389.618,146.104 C 386.018,150.104 384.218,150.104 380.618,146.104 L 380.618,122.104z"/>
    <path style="fill: none; fill-opacity:0; stroke-width: 0.02; stroke: #000000" d="M 380.618 122.104 L 398.618,122.104 L 398.618,146.104 C 395.018,142.104 393.218,142.104 389.618,146.104 C 386.018,150.104 384.218,150.104 380.618,146.104 L 380.618,122.104"/>
    <text font-size="12.7998" style="fill: #000000;text-anchor:middle;font-family:sans-serif;font-style:normal;font-weight:normal" x="389.618" y="137.104">
      <tspan x="389.618" y="137.104">20</tspan>
    </text>
  </g>
  <g>
    <path style="fill: #ffffff" d="M 348.195 143.482 L 531.495,143.482 L 531.495,167.482 C 494.835,163.482 476.505,163.482 439.845,167.482 C 403.185,171.482 384.855,171.482 348.195,167.482 L 348.195,143.482z"/>
    <path style="fill: none; fill-opacity:0; stroke-width: 0.02; stroke: #000000" d="M 348.195 143.482 L 531.495,143.482 L 531.495,167.482 C 494.835,163.482 476.505,163.482 439.845,167.482 C 403.185,171.482 384.855,171.482 348.195,167.482 L 348.195,143.482"/>
    <text font-size="12.8" style="fill: #000000;text-anchor:middle;font-family:monospace;font-style:normal;font-weight:700" x="439.845" y="155.882">
      <tspan x="439.845" y="155.882">TCP数据在IP数据报中的封装</tspan>
    </text>
  </g>
  <g>
    <rect style="fill: #ffffff" x="300.852" y="230.725" width="640.571" height="38.6806"/>
    <rect style="fill: none; fill-opacity:0; stroke-width: 2; stroke: #000000" x="300.852" y="230.725" width="640.571" height="38.6806"/>
    <text font-size="12.8" style="fill: #000000;text-anchor:middle;font-family:monospace;font-style:normal;font-weight:normal" x="621.137" y="252.715">
      <tspan x="621.137" y="252.715"></tspan>
    </text>
  </g>
  <g>
    <path style="fill: #ffffff" d="M 423.709 238.79 L 507.109,238.79 L 507.109,262.79 C 490.429,258.79 482.089,258.79 465.409,262.79 C 448.729,266.79 440.389,266.79 423.709,262.79 L 423.709,238.79z"/>
    <path style="fill: none; fill-opacity:0; stroke-width: 0.02; stroke: #000000" d="M 423.709 238.79 L 507.109,238.79 L 507.109,262.79 C 490.429,258.79 482.089,258.79 465.409,262.79 C 448.729,266.79 440.389,266.79 423.709,262.79 L 423.709,238.79"/>
    <text font-size="12.8" style="fill: #000000;text-anchor:middle;font-family:monospace;font-style:normal;font-weight:normal" x="465.409" y="251.99">
      <tspan x="465.409" y="251.99">16位源端口号</tspan>
    </text>
  </g>
  <g>
    <path style="fill: #ffffff" d="M 761.18 237.872 L 857.38,237.872 L 857.38,261.872 C 838.14,257.872 828.52,257.872 809.28,261.872 C 790.04,265.872 780.42,265.872 761.18,261.872 L 761.18,237.872z"/>
    <path style="fill: none; fill-opacity:0; stroke-width: 0.02; stroke: #000000" d="M 761.18 237.872 L 857.38,237.872 L 857.38,261.872 C 838.14,257.872 828.52,257.872 809.28,261.872 C 790.04,265.872 780.42,265.872 761.18,261.872 L 761.18,237.872"/>
    <text font-size="12.8" style="fill: #000000;text-anchor:middle;font-family:monospace;font-style:normal;font-weight:normal" x="809.28" y="251.072">
      <tspan x="809.28" y="251.072">16位目的端口号</tspan>
    </text>
  </g>
  <line style="fill: none; fill-opacity:0; stroke-width: 2; stroke: #000000" x1="621.137" y1="230.725" x2="621.137" y2="269.406"/>
  <line style="fill: none; fill-opacity:0; stroke-width: 2; stroke: #000000" x1="383.648" y1="346.871" x2="383.648" y2="385.048"/>
  <g>
    <path style="fill: #ffffff" d="M 304.486 352.213 L 380.186,352.213 L 380.186,376.213 C 365.046,372.213 357.476,372.213 342.336,376.213 C 327.196,380.213 319.626,380.213 304.486,376.213 L 304.486,352.213z"/>
    <path style="fill: none; fill-opacity:0; stroke-width: 0.02; stroke: #000000" d="M 304.486 352.213 L 380.186,352.213 L 380.186,376.213 C 365.046,372.213 357.476,372.213 342.336,376.213 C 327.196,380.213 319.626,380.213 304.486,376.213 L 304.486,352.213"/>
    <text font-size="12.8" style="fill: #000000;text-anchor:middle;font-family:monospace;font-style:normal;font-weight:normal" x="342.336" y="365.413">
      <tspan x="342.336" y="365.413">4位首部长度</tspan>
    </text>
  </g>
  <g>
    <path style="fill: #ffffff" d="M 406.206 352.213 L 471.706,352.213 L 471.706,376.213 C 458.606,372.213 452.056,372.213 438.956,376.213 C 425.856,380.213 419.306,380.213 406.206,376.213 L 406.206,352.213z"/>
    <path style="fill: none; fill-opacity:0; stroke-width: 0.02; stroke: #000000" d="M 406.206 352.213 L 471.706,352.213 L 471.706,376.213 C 458.606,372.213 452.056,372.213 438.956,376.213 C 425.856,380.213 419.306,380.213 406.206,376.213 L 406.206,352.213"/>
    <text font-size="12.8" style="fill: #000000;text-anchor:middle;font-family:monospace;font-style:normal;font-weight:normal" x="438.956" y="365.413">
      <tspan x="438.956" y="365.413">保留(6位)</tspan>
    </text>
  </g>
  <line style="fill: none; fill-opacity:0; stroke-width: 2; stroke: #000000" x1="521.37" y1="346.871" x2="521.37" y2="385.048"/>
  <line style="fill: none; fill-opacity:0; stroke-width: 2; stroke: #000000" x1="581.327" y1="347.103" x2="581.327" y2="385.28"/>
  <line style="fill: none; fill-opacity:0; stroke-width: 2; stroke: #000000" x1="561.591" y1="347.082" x2="561.591" y2="385.259"/>
  <line style="fill: none; fill-opacity:0; stroke-width: 2; stroke: #000000" x1="542.145" y1="347.023" x2="542.145" y2="385.201"/>
  <line style="fill: none; fill-opacity:0; stroke-width: 2; stroke: #000000" x1="600.938" y1="346.946" x2="600.938" y2="385.124"/>
  <g>
    <path style="fill: #ffffff" d="M 414.001 392.712 L 508.801,392.712 L 508.801,416.712 C 489.841,412.712 480.361,412.712 461.401,416.712 C 442.441,420.712 432.961,420.712 414.001,416.712 L 414.001,392.712z"/>
    <path style="fill: none; fill-opacity:0; stroke-width: 0.02; stroke: #000000" d="M 414.001 392.712 L 508.801,392.712 L 508.801,416.712 C 489.841,412.712 480.361,412.712 461.401,416.712 C 442.441,420.712 432.961,420.712 414.001,416.712 L 414.001,392.712"/>
    <text font-size="12.8" style="fill: #000000;text-anchor:middle;font-family:monospace;font-style:normal;font-weight:normal" x="461.401" y="405.912">
      <tspan x="461.401" y="405.912">16位校验和</tspan>
    </text>
  </g>
  <line style="fill: none; fill-opacity:0; stroke-width: 2; stroke: #000000" x1="621.223" y1="385.765" x2="621.223" y2="423.943"/>
  <g>
    <path style="fill: none; fill-opacity:0; stroke-width: 0.4; stroke-linecap: round; stroke: #000000" d="M 514.563 372.428 C 514.553,371.953 514.481,371.569 514.086,371.166 C 513.875,370.888 513.448,370.731 512.881,370.679 L 507.074,370.663 C 507.089,370.74 507.012,370.754 506.858,370.783 C 506.873,370.86 506.825,371.028 506.686,371.134 L 506.73,371.364 L 506.423,371.422 L 506.396,369.598 L 506.717,369.617 L 506.699,369.939 C 506.805,370.078 506.819,370.155 506.834,370.231 C 506.939,370.37 507.031,370.433 507.093,370.341 L 512.9,370.357 C 513.543,370.395 513.985,370.629 514.379,371.032 C 514.711,371.525 514.966,372.034 514.976,372.509 C 514.953,373.229 514.81,373.733 514.484,374.113 C 514.173,374.569 513.665,374.824 512.945,374.801 L 507.138,374.785 C 507.061,374.8 506.907,374.829 506.831,374.843 C 506.768,374.935 506.797,375.088 506.735,375.179 L 506.716,375.501 L 506.395,375.482 L 506.372,373.26 L 506.694,373.279 L 506.737,373.509 C 506.781,373.74 506.795,373.816 506.81,373.893 C 506.901,373.955 506.993,374.018 507.146,373.989 L 512.953,374.004 C 513.673,374.027 514.119,373.863 514.306,373.59 C 514.569,373.301 514.574,372.903 514.563,372.428 L 514.563,372.428"/>
    <path style="fill: none; fill-opacity:0; stroke-width: 0.4; stroke-linecap: round; stroke: #000000" d="M 508.389 363.736 C 509.185,363.744 509.69,363.888 509.992,364.228 C 510.387,364.63 510.55,365.076 510.546,365.475 L 514.239,363.982 C 514.316,363.967 514.47,363.938 514.517,363.77 C 514.517,363.77 514.503,363.693 514.627,363.511 L 514.569,363.204 L 514.891,363.223 L 514.907,364.571 L 510.614,366.257 L 510.587,367.375 L 514.172,367.413 C 514.417,367.447 514.556,367.341 514.542,367.264 C 514.681,367.158 514.666,367.081 514.56,366.942 L 514.579,366.621 L 514.901,366.64 L 514.861,368.953 L 514.616,368.92 L 514.558,368.613 C 514.697,368.507 514.682,368.43 514.5,368.305 C 514.5,368.305 514.332,368.258 514.164,368.21 L 507.085,368.196 C 507.085,368.196 507.008,368.211 506.855,368.24 C 506.869,368.316 506.821,368.484 506.682,368.59 L 506.664,368.912 L 506.419,368.879 L 506.372,366.105 C 506.395,365.385 506.6,364.789 506.912,364.333 C 507.314,363.939 507.837,363.761 508.389,363.736 L 508.389,363.736"/>
    <path style="fill: none; fill-opacity:0; stroke-width: 0.4; stroke-linecap: round; stroke: #000000" d="M 510.342 367.342 L 510.307,366.315 C 510.374,365.825 510.21,365.379 509.907,365.039 C 509.619,364.775 509.115,364.632 508.457,364.518 C 507.982,364.528 507.613,364.678 507.196,364.995 C 506.932,365.283 506.774,365.711 506.737,366.354 L 506.685,366.92 C 506.805,367.136 506.82,367.213 506.834,367.289 C 506.925,367.352 507.017,367.414 507.093,367.399 L 510.342,367.342"/>
    <path style="fill: none; fill-opacity:0; stroke-width: 0.4; stroke-linecap: round; stroke: #000000" d="M 506.67 359.688 C 506.771,360.225 507.103,360.719 507.651,361.093 C 508.381,361.591 509.375,361.8 510.785,361.693 C 511.75,361.749 512.671,361.575 513.396,361.199 C 514.302,360.949 514.599,360.415 514.622,359.696 C 514.564,359.389 514.52,359.158 514.386,358.866 C 514.28,358.727 514.083,358.525 513.747,358.43 L 512.077,358.427 C 511.923,358.456 511.77,358.485 511.63,358.591 C 511.491,358.697 511.444,358.865 511.473,359.019 L 511.454,359.34 L 511.132,359.321 L 511.143,356.855 L 511.465,356.873 L 511.432,357.118 C 511.552,357.334 511.581,357.487 511.658,357.473 C 511.763,357.612 511.932,357.66 512.008,357.645 L 514.475,357.656 C 514.351,357.839 514.351,357.839 514.351,357.839 C 514.365,357.915 514.38,357.992 514.38,357.992 C 514.394,358.069 514.409,358.146 514.423,358.223 C 514.438,358.299 514.452,358.376 514.529,358.362 C 514.664,358.654 514.784,358.87 514.813,359.023 C 514.871,359.33 514.915,359.561 514.944,359.714 C 514.993,360.818 514.572,361.534 513.694,361.938 C 512.831,362.419 511.91,362.593 510.792,362.566 C 509.611,362.63 508.541,362.435 507.628,361.812 C 506.821,361.329 506.369,360.619 506.286,359.76 C 506.334,359.592 506.367,359.347 506.462,359.011 C 506.587,358.829 506.635,358.661 506.606,358.507 C 506.591,358.43 506.577,358.354 506.548,358.2 C 506.548,358.2 506.456,358.138 506.274,358.013 L 508.5,357.593 L 508.635,357.885 C 507.958,358.093 507.45,358.348 507.11,358.65 C 506.846,358.939 506.751,359.275 506.67,359.688 L 506.67,359.688"/>
  </g>
  <g>
    <path style="fill: none; fill-opacity:0; stroke-width: 0.4; stroke-linecap: round; stroke: #000000" d="M 532.261 371.881 L 532.298,374.18 L 534.132,374.628 C 534.391,374.738 534.545,374.709 534.53,374.632 C 534.775,374.666 534.929,374.637 535.005,374.622 C 535.159,374.593 535.207,374.425 535.149,374.118 L 535.12,373.965 L 535.441,373.983 L 535.468,375.807 L 535.161,375.865 L 535.132,375.711 C 535.194,375.62 535.165,375.467 535.059,375.328 C 534.968,375.265 534.877,375.203 534.632,375.17 L 527.022,373.189 L 526.8,372.436 L 534.635,370.558 C 534.803,370.606 534.865,370.514 534.99,370.332 C 534.975,370.255 535.037,370.164 535.162,369.981 L 535.133,369.828 L 535.454,369.846 L 535.462,371.992 L 535.141,371.973 L 535.174,371.728 C 535.068,371.589 534.977,371.527 534.962,371.45 C 534.809,371.479 534.809,371.479 534.794,371.402 C 534.718,371.417 534.626,371.354 534.473,371.383 L 532.261,371.881"/>
    <path style="fill: none; fill-opacity:0; stroke-width: 0.4; stroke-linecap: round; stroke: #000000" d="M 527.852 372.953 L 527.867,373.029 L 531.962,374.084 L 531.954,371.939 L 527.852,372.953"/>
    <path style="fill: none; fill-opacity:0; stroke-width: 0.4; stroke-linecap: round; stroke: #000000" d="M 535.555 366.17 C 535.499,367.135 535.231,367.821 534.536,368.35 C 533.855,368.956 532.718,369.25 531.201,369.219 C 530.006,369.206 528.998,368.92 528.162,368.283 C 527.341,367.722 526.874,366.936 526.854,365.986 C 526.887,365.741 526.92,365.496 526.953,365.251 C 527.078,365.069 527.126,364.901 527.082,364.67 C 527.144,364.579 527.207,364.488 527.101,364.349 C 527.101,364.349 526.995,364.21 526.889,364.071 L 529.039,363.665 L 529.174,363.957 C 528.588,364.227 528.08,364.482 527.74,364.785 C 527.414,365.164 527.256,365.592 527.19,366.081 C 527.32,366.772 527.667,367.343 528.368,367.687 C 529.175,368.171 530.154,368.304 531.181,368.269 C 532.453,368.267 533.374,368.093 534.098,367.717 C 534.837,367.419 535.133,366.886 535.065,366.104 C 535.055,365.628 534.968,365.168 534.574,364.765 C 534.256,364.348 533.738,364.128 532.989,363.952 L 533.176,363.678 C 533.925,363.854 534.381,364.166 534.852,364.554 C 535.275,365.11 535.53,365.618 535.555,366.17 L 535.555,366.17"/>
    <path style="fill: none; fill-opacity:0; stroke-width: 0.4; stroke-linecap: round; stroke: #000000" d="M 535.436 357.129 L 535.444,359.274 L 535.123,359.255 L 535.17,359.087 C 535.065,358.948 534.959,358.809 534.944,358.732 C 534.791,358.761 534.714,358.776 534.421,358.91 L 530.757,360.557 L 531.944,361.366 L 534.732,361.396 C 534.977,361.429 535.13,361.4 535.101,361.247 C 535.255,361.218 535.226,361.064 535.12,360.925 L 535.139,360.604 L 535.46,360.622 L 535.421,362.936 L 535.099,362.917 L 535.118,362.595 C 535.242,362.413 535.228,362.336 535.06,362.288 C 535.045,362.211 534.877,362.164 534.724,362.193 L 527.645,362.179 C 527.645,362.179 527.568,362.193 527.415,362.222 C 527.444,362.376 527.381,362.467 527.257,362.65 L 527.224,362.894 L 526.993,362.938 L 526.956,360.639 L 527.278,360.658 L 527.245,360.903 C 527.365,361.119 527.394,361.272 527.394,361.272 C 527.423,361.426 527.5,361.411 527.653,361.382 L 531.224,361.343 L 527.923,359.025 C 527.741,358.901 527.573,358.853 527.419,358.882 C 527.372,359.05 527.309,359.141 527.262,359.309 L 527.228,359.554 L 526.984,359.521 L 526.976,357.376 L 527.22,357.409 L 527.235,357.486 C 527.355,357.702 527.384,357.855 527.413,358.009 C 527.534,358.224 527.639,358.363 527.822,358.488 L 530.027,360.059 L 534.554,357.931 C 534.785,357.888 534.847,357.796 534.971,357.614 C 534.957,357.537 535.019,357.446 535.158,357.34 L 535.115,357.11 L 535.436,357.129"/>
  </g>
  <g>
    <path style="fill: none; fill-opacity:0; stroke-width: 0.4; stroke-linecap: round; stroke: #000000" d="M 551.795 373.626 L 555.058,373.646 C 555.318,373.756 555.471,373.727 555.442,373.573 C 555.596,373.544 555.567,373.391 555.446,373.175 L 555.465,372.853 L 555.787,372.872 L 555.761,375.262 L 555.44,375.243 L 555.458,374.922 C 555.583,374.739 555.568,374.662 555.4,374.615 C 555.386,374.538 555.218,374.49 555.05,374.442 L 547.971,374.429 C 547.971,374.429 547.909,374.52 547.755,374.549 C 547.784,374.702 547.722,374.794 547.583,374.899 L 547.564,375.221 L 547.319,375.188 L 547.32,372.246 C 547.42,371.511 547.611,370.839 547.922,370.383 C 548.401,369.974 548.924,369.796 549.462,369.694 C 550.35,369.765 550.945,369.971 551.277,370.464 C 551.685,370.944 551.878,371.543 551.826,372.11 L 551.795,373.626"/>
    <path style="fill: none; fill-opacity:0; stroke-width: 0.4; stroke-linecap: round; stroke: #000000" d="M 551.486 372.413 C 551.567,372 551.403,371.554 551.086,371.137 C 550.86,370.782 550.341,370.562 549.544,370.553 C 548.901,370.516 548.455,370.68 548.038,370.997 C 547.789,371.362 547.646,371.866 547.608,372.509 L 547.585,373.229 C 547.691,373.368 547.706,373.445 547.72,373.522 C 547.826,373.661 547.917,373.723 547.979,373.632 L 551.488,373.684 L 551.486,372.413"/>
    <path style="fill: none; fill-opacity:0; stroke-width: 0.4; stroke-linecap: round; stroke: #000000" d="M 551.659 366.178 C 551.358,367.11 550.999,367.734 550.659,368.037 C 550.41,368.402 549.964,368.566 549.244,368.543 C 548.846,368.539 548.342,368.395 547.856,367.931 C 547.462,367.528 547.269,366.928 547.201,366.146 C 547.234,365.901 547.253,365.58 547.348,365.244 C 547.458,364.984 547.568,364.725 547.539,364.572 C 547.602,364.48 547.587,364.404 547.496,364.341 C 547.481,364.265 547.39,364.202 547.208,364.078 L 549.232,363.854 L 549.291,364.161 C 548.643,364.522 548.226,364.839 547.948,365.051 C 547.776,365.402 547.603,365.752 547.537,366.242 C 547.576,366.87 547.817,367.302 548.105,367.566 C 548.47,367.815 548.821,367.987 549.205,367.914 C 549.618,367.995 549.91,367.86 550.02,367.601 C 550.298,367.39 550.58,366.78 551.035,365.819 C 551.365,365.041 551.739,364.494 552.141,364.1 C 552.558,363.782 553.081,363.604 553.556,363.594 C 554.276,363.617 554.718,363.851 555.189,364.239 C 555.597,364.718 555.867,365.304 555.844,366.023 C 555.84,366.422 555.744,366.758 555.697,366.926 C 555.601,367.262 555.63,367.416 555.506,367.598 C 555.611,367.737 555.64,367.891 555.64,367.891 C 555.746,368.03 555.761,368.106 555.866,368.245 L 553.395,368.633 L 553.337,368.326 C 554.182,368.166 554.752,367.82 555.064,367.364 C 555.39,366.984 555.456,366.494 555.508,365.928 C 555.421,365.467 555.348,365.084 555.046,364.743 C 554.757,364.48 554.253,364.336 553.61,364.299 C 553.288,364.28 552.996,364.415 552.579,364.732 C 552.33,365.097 552.018,365.554 551.659,366.178 L 551.659,366.178"/>
    <path style="fill: none; fill-opacity:0; stroke-width: 0.4; stroke-linecap: round; stroke: #000000" d="M 555.093 357.42 C 555.107,357.496 555.184,357.482 555.308,357.299 C 555.308,357.299 555.356,357.131 555.481,356.949 L 555.437,356.718 L 555.759,356.737 L 555.767,358.882 L 555.46,358.94 L 555.478,358.619 C 555.373,358.48 555.358,358.403 555.344,358.326 C 555.252,358.264 555.161,358.202 555.084,358.216 L 551.422,358.193 L 551.422,361.135 L 555.084,361.158 C 555.252,361.206 555.314,361.115 555.376,361.023 C 555.438,360.932 555.501,360.841 555.472,360.687 L 555.428,360.457 L 555.75,360.476 L 555.758,362.621 L 555.436,362.602 L 555.469,362.357 C 555.532,362.266 555.44,362.204 555.335,362.065 C 555.335,362.065 555.243,362.003 555.075,361.955 L 547.996,361.941 C 547.92,361.956 547.766,361.985 547.689,361.999 C 547.627,362.09 547.656,362.244 547.594,362.335 L 547.561,362.58 L 547.239,362.561 L 547.246,360.493 L 547.567,360.511 L 547.596,360.665 C 547.64,360.895 547.654,360.972 547.669,361.049 C 547.76,361.111 547.851,361.173 548.005,361.144 L 551.1,361.116 L 551.115,358.251 L 548.005,358.202 C 547.943,358.294 547.79,358.323 547.713,358.337 C 547.651,358.429 547.588,358.52 547.541,358.688 L 547.57,358.841 L 547.248,358.823 L 547.255,356.754 L 547.576,356.773 L 547.529,356.941 C 547.649,357.157 547.678,357.31 547.678,357.31 C 547.784,357.449 547.86,357.435 547.937,357.42 L 555.093,357.42"/>
  </g>
  <g>
    <path style="fill: none; fill-opacity:0; stroke-width: 0.4; stroke-linecap: round; stroke: #000000" d="M 568.869 370.696 C 569.665,370.704 570.169,370.847 570.472,371.188 C 570.866,371.59 571.03,372.036 571.026,372.435 L 574.719,370.942 C 574.796,370.927 574.949,370.898 574.997,370.73 C 574.997,370.73 574.983,370.653 575.107,370.471 L 575.049,370.164 L 575.371,370.182 L 575.387,371.531 L 571.094,373.217 L 571.067,374.335 L 574.652,374.373 C 574.897,374.406 575.036,374.301 575.021,374.224 C 575.16,374.118 575.146,374.041 575.04,373.902 L 575.059,373.581 L 575.38,373.599 L 575.341,375.913 L 575.096,375.879 L 575.038,375.572 C 575.177,375.467 575.162,375.39 574.98,375.265 C 574.98,375.265 574.812,375.218 574.644,375.17 L 567.565,375.156 C 567.565,375.156 567.488,375.17 567.335,375.199 C 567.349,375.276 567.301,375.444 567.162,375.55 L 567.144,375.872 L 566.899,375.838 L 566.852,373.064 C 566.875,372.345 567.08,371.749 567.391,371.293 C 567.794,370.899 568.317,370.72 568.869,370.696 L 568.869,370.696"/>
    <path style="fill: none; fill-opacity:0; stroke-width: 0.4; stroke-linecap: round; stroke: #000000" d="M 570.822 374.302 L 570.787,373.275 C 570.854,372.785 570.69,372.339 570.387,371.999 C 570.099,371.735 569.595,371.592 568.937,371.478 C 568.462,371.488 568.092,371.637 567.675,371.955 C 567.412,372.243 567.254,372.67 567.217,373.314 L 567.165,373.88 C 567.285,374.096 567.299,374.172 567.314,374.249 C 567.405,374.311 567.497,374.374 567.573,374.359 L 570.822,374.302"/>
    <path style="fill: none; fill-opacity:0; stroke-width: 0.4; stroke-linecap: round; stroke: #000000" d="M 571.253 366.906 C 570.952,367.837 570.593,368.462 570.253,368.764 C 570.004,369.129 569.558,369.293 568.838,369.27 C 568.439,369.266 567.935,369.123 567.45,368.658 C 567.056,368.255 566.863,367.656 566.795,366.874 C 566.828,366.629 566.847,366.307 566.942,365.971 C 567.052,365.712 567.162,365.453 567.133,365.299 C 567.195,365.208 567.181,365.131 567.09,365.069 C 567.075,364.992 566.984,364.93 566.801,364.805 L 568.826,364.582 L 568.884,364.889 C 568.237,365.249 567.82,365.567 567.542,365.778 C 567.37,366.129 567.197,366.48 567.131,366.969 C 567.17,367.598 567.411,368.029 567.699,368.293 C 568.064,368.542 568.415,368.714 568.798,368.642 C 569.211,368.723 569.504,368.588 569.614,368.329 C 569.892,368.117 570.174,367.507 570.629,366.547 C 570.959,365.769 571.332,365.221 571.735,364.827 C 572.152,364.51 572.675,364.331 573.15,364.321 C 573.87,364.344 574.312,364.578 574.783,364.967 C 575.191,365.446 575.461,366.031 575.438,366.751 C 575.434,367.149 575.338,367.485 575.29,367.653 C 575.195,367.989 575.224,368.143 575.099,368.326 C 575.205,368.465 575.234,368.618 575.234,368.618 C 575.34,368.757 575.354,368.834 575.46,368.973 L 572.989,369.36 L 572.931,369.053 C 573.776,368.894 574.346,368.547 574.658,368.091 C 574.983,367.711 575.05,367.222 575.102,366.655 C 575.015,366.195 574.942,365.811 574.639,365.471 C 574.351,365.207 573.847,365.064 573.204,365.026 C 572.882,365.008 572.59,365.142 572.173,365.46 C 571.924,365.825 571.612,366.281 571.253,366.906 L 571.253,366.906"/>
    <path style="fill: none; fill-opacity:0; stroke-width: 0.4; stroke-linecap: round; stroke: #000000" d="M 575.35 359.135 L 575.354,361.678 L 575.047,361.736 L 575.036,361.261 C 575.084,361.093 575.07,361.016 574.978,360.954 C 574.964,360.877 574.873,360.815 574.642,360.859 L 567.717,360.816 C 567.564,360.845 567.41,360.874 567.256,360.903 C 567.271,360.98 567.209,361.071 567.238,361.224 C 567.263,361.776 567.397,362.069 567.503,362.208 C 567.7,362.409 568.142,362.644 568.829,362.911 L 568.719,363.171 L 566.885,362.722 L 566.873,358.033 L 568.792,357.671 L 568.836,357.901 C 568.251,358.171 567.819,358.411 567.527,358.546 C 567.402,358.729 567.292,358.988 567.211,359.401 C 567.284,359.785 567.327,360.015 567.327,360.015 C 567.418,360.077 567.495,360.063 567.726,360.019 L 574.651,360.062 C 574.819,360.11 574.896,360.095 574.943,359.927 C 575.02,359.913 575.068,359.745 575.039,359.591 L 575.029,359.116 L 575.35,359.135"/>
  </g>
  <g>
    <path style="fill: none; fill-opacity:0; stroke-width: 0.4; stroke-linecap: round; stroke: #000000" d="M 590.947 372.782 C 590.646,373.713 590.287,374.338 589.947,374.641 C 589.698,375.006 589.252,375.17 588.532,375.147 C 588.134,375.142 587.629,374.999 587.144,374.534 C 586.75,374.132 586.557,373.532 586.489,372.75 C 586.522,372.505 586.541,372.184 586.636,371.847 C 586.746,371.588 586.856,371.329 586.827,371.175 C 586.89,371.084 586.875,371.007 586.784,370.945 C 586.769,370.868 586.678,370.806 586.495,370.681 L 588.52,370.458 L 588.578,370.765 C 587.931,371.126 587.514,371.443 587.236,371.655 C 587.064,372.005 586.891,372.356 586.825,372.845 C 586.864,373.474 587.105,373.906 587.393,374.169 C 587.758,374.418 588.109,374.591 588.493,374.518 C 588.905,374.599 589.198,374.464 589.308,374.205 C 589.586,373.993 589.868,373.383 590.323,372.423 C 590.653,371.645 591.027,371.097 591.429,370.703 C 591.846,370.386 592.369,370.208 592.844,370.197 C 593.564,370.22 594.006,370.455 594.477,370.843 C 594.885,371.322 595.155,371.907 595.132,372.627 C 595.128,373.026 595.032,373.362 594.985,373.53 C 594.889,373.866 594.918,374.019 594.794,374.202 C 594.899,374.341 594.928,374.494 594.928,374.494 C 595.034,374.633 595.049,374.71 595.154,374.849 L 592.683,375.237 L 592.625,374.93 C 593.47,374.77 594.04,374.424 594.352,373.967 C 594.677,373.588 594.744,373.098 594.796,372.532 C 594.709,372.071 594.636,371.687 594.334,371.347 C 594.045,371.083 593.541,370.94 592.898,370.903 C 592.576,370.884 592.284,371.019 591.867,371.336 C 591.618,371.701 591.306,372.158 590.947,372.782 L 590.947,372.782"/>
    <path style="fill: none; fill-opacity:0; stroke-width: 0.4; stroke-linecap: round; stroke: #000000" d="M 587.432 364.7 C 587.279,364.729 587.202,364.744 587.049,364.773 C 586.986,364.864 586.862,365.047 586.829,365.292 L 586.843,365.368 L 586.521,365.35 L 586.557,363.435 L 586.879,363.453 L 586.816,363.545 C 586.937,363.76 586.966,363.914 587.072,364.053 C 587.177,364.192 587.36,364.317 587.528,364.364 L 591.48,365.923 L 594.345,365.938 C 594.513,365.986 594.59,365.972 594.638,365.803 C 594.714,365.789 594.762,365.621 594.733,365.467 L 594.723,364.992 L 595.044,365.011 L 595.048,367.555 L 594.741,367.613 L 594.731,367.138 C 594.778,366.969 594.764,366.893 594.673,366.83 C 594.658,366.754 594.567,366.691 594.337,366.735 L 591.778,366.662 L 587.409,368.362 C 587.284,368.545 587.222,368.636 587.069,368.665 C 587.021,368.833 586.882,368.939 586.819,369.03 L 586.834,369.107 L 586.604,369.15 L 586.581,366.928 L 586.826,366.962 L 586.884,367.269 C 586.928,367.499 586.942,367.576 587.019,367.561 C 587.187,367.609 587.341,367.58 587.494,367.551 L 591.14,366.226 L 591.111,366.072 L 587.432,364.7"/>
    <path style="fill: none; fill-opacity:0; stroke-width: 0.4; stroke-linecap: round; stroke: #000000" d="M 593.096 358.065 L 593.081,357.988 L 587.274,357.972 C 587.197,357.987 587.12,358.001 586.967,358.03 C 586.996,358.184 586.934,358.275 586.871,358.366 L 586.867,358.765 L 586.56,358.823 L 586.581,356.831 L 586.812,356.787 L 586.807,357.186 C 586.928,357.402 586.957,357.555 586.957,357.555 C 587.062,357.694 587.139,357.68 587.216,357.665 L 595.015,357.702 L 595.058,357.932 L 587.587,361.729 L 587.601,361.806 L 594.358,361.801 C 594.526,361.849 594.603,361.835 594.665,361.743 C 594.728,361.652 594.79,361.561 594.761,361.407 L 594.765,361.009 L 594.995,360.965 L 595.051,362.943 L 594.744,363.001 L 594.748,362.602 C 594.873,362.42 594.844,362.266 594.676,362.218 C 594.661,362.142 594.508,362.171 594.34,362.123 L 587.261,362.109 C 587.198,362.2 587.045,362.229 586.968,362.244 C 586.906,362.335 586.935,362.489 586.873,362.58 L 586.854,362.902 L 586.532,362.883 L 586.578,361.443 L 593.096,358.065"/>
  </g>
  <g>
    <path style="fill: none; fill-opacity:0; stroke-width: 0.4; stroke-linecap: round; stroke: #000000" d="M 615.537 373.442 L 615.859,373.46 L 615.834,375.85 L 615.512,375.832 L 615.531,375.51 C 615.655,375.328 615.641,375.251 615.473,375.203 C 615.458,375.126 615.29,375.079 615.122,375.031 L 608.043,375.017 C 608.043,375.017 607.981,375.108 607.828,375.137 C 607.857,375.291 607.794,375.382 607.655,375.488 L 607.637,375.809 L 607.392,375.776 L 607.37,370.612 L 609.169,370.034 L 609.212,370.264 C 608.781,370.505 608.44,370.807 608.115,371.187 C 607.866,371.552 607.708,371.979 607.627,372.392 L 607.658,373.818 C 607.763,373.957 607.778,374.033 607.792,374.11 C 607.898,374.249 607.99,374.311 608.052,374.22 L 611.239,374.254 L 611.241,372.584 C 611.274,372.339 611.231,372.109 611.034,371.908 C 610.928,371.769 610.669,371.659 610.27,371.654 L 610.04,371.698 L 610.059,371.376 L 612.924,371.391 L 612.89,371.636 L 612.737,371.665 C 612.353,371.738 612.046,371.796 611.83,371.916 C 611.706,372.099 611.596,372.358 611.563,372.603 L 611.56,374.273 L 615.131,374.234 C 615.39,374.344 615.543,374.315 615.514,374.162 C 615.668,374.133 615.639,373.979 615.519,373.763 L 615.537,373.442"/>
    <path style="fill: none; fill-opacity:0; stroke-width: 0.4; stroke-linecap: round; stroke: #000000" d="M 607.621 368.577 L 607.377,368.544 L 607.342,364.575 L 607.664,364.594 L 607.651,365.789 C 607.68,365.942 607.771,366.004 607.786,366.081 C 607.968,366.206 608.06,366.268 608.045,366.191 L 615.124,366.205 C 615.292,366.253 615.354,366.162 615.417,366.07 C 615.493,366.056 615.556,365.964 615.512,365.734 L 615.539,364.616 L 615.861,364.635 L 615.818,368.618 L 615.574,368.585 L 615.51,367.404 C 615.572,367.313 615.557,367.236 615.452,367.097 C 615.452,367.097 615.36,367.035 615.115,367.002 L 608.037,366.988 C 607.96,367.002 607.898,367.094 607.821,367.108 C 607.773,367.276 607.711,367.367 607.649,367.459 L 607.621,368.577"/>
    <path style="fill: none; fill-opacity:0; stroke-width: 0.4; stroke-linecap: round; stroke: #000000" d="M 613.889 358.408 L 613.874,358.331 L 608.067,358.316 C 607.991,358.33 607.914,358.345 607.76,358.374 C 607.789,358.527 607.727,358.619 607.665,358.71 L 607.661,359.108 L 607.354,359.166 L 607.375,357.174 L 607.605,357.131 L 607.601,357.529 C 607.721,357.745 607.75,357.899 607.75,357.899 C 607.856,358.038 607.933,358.023 608.009,358.009 L 615.808,358.045 L 615.852,358.276 L 608.38,362.073 L 608.394,362.15 L 615.152,362.145 C 615.32,362.193 615.397,362.178 615.459,362.087 C 615.521,361.996 615.583,361.904 615.554,361.751 L 615.559,361.352 L 615.789,361.309 L 615.844,363.286 L 615.537,363.344 L 615.542,362.946 C 615.666,362.763 615.637,362.61 615.469,362.562 C 615.455,362.485 615.301,362.514 615.133,362.466 L 608.054,362.453 C 607.992,362.544 607.838,362.573 607.762,362.587 C 607.699,362.679 607.728,362.832 607.666,362.923 L 607.647,363.245 L 607.326,363.226 L 607.372,361.787 L 613.889,358.408"/>
  </g>
</svg>
