<?xml version="1.0" encoding="UTF-8" standalone="no"?>
<!DOCTYPE svg PUBLIC "-//W3C//DTD SVG 1.0//EN" "http://www.w3.org/TR/2001/PR-SVG-20010719/DTD/svg10.dtd">
<svg width="35cm" height="27cm" viewBox="297 39 690 522" xmlns="http://www.w3.org/2000/svg" xmlns:xlink="http://www.w3.org/1999/xlink">
  <g>
    <path style="fill: #ffffff" d="M 578.068 532.304 L 669.168,532.304 L 669.168,556.304 C 650.948,552.304 641.838,552.304 623.618,556.304 C 605.398,560.304 596.288,560.304 578.068,556.304 L 578.068,532.304z"/>
    <path style="fill: none; fill-opacity:0; stroke-width: 0.02; stroke: #000000" d="M 578.068 532.304 L 669.168,532.304 L 669.168,556.304 C 650.948,552.304 641.838,552.304 623.618,556.304 C 605.398,560.304 596.288,560.304 578.068,556.304 L 578.068,532.304"/>
    <text font-size="12.8" style="fill: #000000;text-anchor:middle;font-family:monospace;font-style:normal;font-weight:700" x="623.618" y="544.704">
      <tspan x="623.618" y="544.704">TCP报文段首部</tspan>
    </text>
  </g>
  <line style="fill: none; fill-opacity:0; stroke-width: 1; stroke: #000000" x1="300.782" y1="47.0368" x2="300.782" y2="59.4792"/>
  <line style="fill: none; fill-opacity:0; stroke-width: 1; stroke: #000000" x1="599.514" y1="47.0106" x2="599.514" y2="59.453"/>
  <g>
    <path style="fill: #ffffff" d="M 409.704 39.2934 L 475.353,39.2934 L 475.353,63.2934 C 462.223,59.2934 455.658,59.2934 442.529,63.2934 C 429.399,67.2934 422.834,67.2934 409.704,63.2934 L 409.704,39.2934z"/>
    <path style="fill: none; fill-opacity:0; stroke-width: 0.02; stroke: #000000" d="M 409.704 39.2934 L 475.353,39.2934 L 475.353,63.2934 C 462.223,59.2934 455.658,59.2934 442.529,63.2934 C 429.399,67.2934 422.834,67.2934 409.704,63.2934 L 409.704,39.2934"/>
    <text font-size="12.8" style="fill: #000000;text-anchor:middle;font-family:monospace;font-style:normal;font-weight:normal" x="442.529" y="52.4934">
      <tspan x="442.529" y="52.4934">IP数据报</tspan>
    </text>
  </g>
  <g>
    <line style="fill: none; fill-opacity:0; stroke-width: 1; stroke: #000000" x1="409.705" y1="53.2852" x2="311.282" y2="53.2606"/>
    <polygon style="fill: #000000" points="311.283,48.2606 301.282,53.2581 311.281,58.2606 "/>
    <polygon style="fill: none; fill-opacity:0; stroke-width: 1; stroke: #000000" points="311.283,48.2606 301.282,53.2581 311.281,58.2606 "/>
  </g>
  <g>
    <line style="fill: none; fill-opacity:0; stroke-width: 1; stroke: #000000" x1="475.346" y1="53.2805" x2="589.014" y2="53.2359"/>
    <polygon style="fill: #000000" points="589.016,58.2359 599.014,53.232 589.012,48.2359 "/>
    <polygon style="fill: none; fill-opacity:0; stroke-width: 1; stroke: #000000" points="589.016,58.2359 599.014,53.232 589.012,48.2359 "/>
  </g>
  <g>
    <path style="fill: #ffffff" d="M 460.032 60.0884 L 525.681,60.0884 L 525.681,84.0884 C 512.551,80.0884 505.986,80.0884 492.857,84.0884 C 479.727,88.0884 473.162,88.0884 460.032,84.0884 L 460.032,60.0884z"/>
    <path style="fill: none; fill-opacity:0; stroke-width: 0.02; stroke: #000000" d="M 460.032 60.0884 L 525.681,60.0884 L 525.681,84.0884 C 512.551,80.0884 505.986,80.0884 492.857,84.0884 C 479.727,88.0884 473.162,88.0884 460.032,84.0884 L 460.032,60.0884"/>
    <text font-size="12.8" style="fill: #000000;text-anchor:middle;font-family:monospace;font-style:normal;font-weight:normal" x="492.857" y="73.2884">
      <tspan x="492.857" y="73.2884">TCP报文段</tspan>
    </text>
  </g>
  <g>
    <rect style="fill: #ffffff" x="301.01" y="83.0878" width="298.629" height="38"/>
    <rect style="fill: none; fill-opacity:0; stroke-width: 2; stroke: #000000" x="301.01" y="83.0878" width="298.629" height="38"/>
    <text font-size="12.8" style="fill: #000000;text-anchor:middle;font-family:monospace;font-style:normal;font-weight:normal" x="450.325" y="104.738">
      <tspan x="450.325" y="104.738"></tspan>
    </text>
  </g>
  <g>
    <path style="fill: #ffffff" d="M 302.132 89.456 L 347.132,89.456 L 347.132,113.456 C 338.132,109.456 333.632,109.456 324.632,113.456 C 315.632,117.456 311.132,117.456 302.132,113.456 L 302.132,89.456z"/>
    <path style="fill: none; fill-opacity:0; stroke-width: 0.02; stroke: #000000" d="M 302.132 89.456 L 347.132,89.456 L 347.132,113.456 C 338.132,109.456 333.632,109.456 324.632,113.456 C 315.632,117.456 311.132,117.456 302.132,113.456 L 302.132,89.456"/>
    <text font-size="12.8" style="fill: #000000;text-anchor:middle;font-family:monospace;font-style:normal;font-weight:normal" x="324.632" y="102.656">
      <tspan x="324.632" y="102.656">IP首部</tspan>
    </text>
  </g>
  <line style="fill: none; fill-opacity:0; stroke-width: 2; stroke: #000000" x1="360.078" y1="121.902" x2="360.07" y2="82.9962"/>
  <g>
    <path style="fill: #ffffff" d="M 476.302 88.4466 L 536.702,88.4466 L 536.702,112.447 C 524.622,108.447 518.582,108.447 506.502,112.447 C 494.422,116.447 488.382,116.447 476.302,112.447 L 476.302,88.4466z"/>
    <path style="fill: none; fill-opacity:0; stroke-width: 0.02; stroke: #000000" d="M 476.302 88.4466 L 536.702,88.4466 L 536.702,112.447 C 524.622,108.447 518.582,108.447 506.502,112.447 C 494.422,116.447 488.382,116.447 476.302,112.447 L 476.302,88.4466"/>
    <text font-size="12.8" style="fill: #000000;text-anchor:middle;font-family:monospace;font-style:normal;font-weight:normal" x="506.502" y="101.647">
      <tspan x="506.502" y="101.647">TCP数据</tspan>
    </text>
  </g>
  <line style="fill: none; fill-opacity:0; stroke-width: 1; stroke: #000000" x1="360.162" y1="67.9442" x2="360.162" y2="80.3866"/>
  <line style="fill: none; fill-opacity:0; stroke-width: 1; stroke: #000000" x1="599.578" y1="67.765" x2="599.578" y2="80.2074"/>
  <g>
    <line style="fill: none; fill-opacity:0; stroke-width: 1; stroke: #000000" x1="460.031" y1="74.1074" x2="370.662" y2="74.1593"/>
    <polygon style="fill: #000000" points="370.659,69.1593 360.662,74.1651 370.665,79.1593 "/>
    <polygon style="fill: none; fill-opacity:0; stroke-width: 1; stroke: #000000" points="370.659,69.1593 360.662,74.1651 370.665,79.1593 "/>
  </g>
  <g>
    <line style="fill: none; fill-opacity:0; stroke-width: 1; stroke: #000000" x1="525.634" y1="74.057" x2="589.078" y2="73.9963"/>
    <polygon style="fill: #000000" points="589.083,78.9963 599.078,73.9867 589.073,68.9963 "/>
    <polygon style="fill: none; fill-opacity:0; stroke-width: 1; stroke: #000000" points="589.083,78.9963 599.078,73.9867 589.073,68.9963 "/>
  </g>
  <g>
    <path style="fill: #ffffff" d="M 363.574 89.4162 L 416.274,89.4162 L 416.274,113.416 C 405.734,109.416 400.464,109.416 389.924,113.416 C 379.384,117.416 374.114,117.416 363.574,113.416 L 363.574,89.4162z"/>
    <path style="fill: none; fill-opacity:0; stroke-width: 0.02; stroke: #000000" d="M 363.574 89.4162 L 416.274,89.4162 L 416.274,113.416 C 405.734,109.416 400.464,109.416 389.924,113.416 C 379.384,117.416 374.114,117.416 363.574,113.416 L 363.574,89.4162"/>
    <text font-size="12.8" style="fill: #000000;text-anchor:middle;font-family:monospace;font-style:normal;font-weight:normal" x="389.924" y="102.616">
      <tspan x="389.924" y="102.616">TCP首部</tspan>
    </text>
  </g>
  <g>
    <rect style="fill: #ffffff" x="301.936" y="385.434" width="640.277" height="38.6806"/>
    <rect style="fill: none; fill-opacity:0; stroke-width: 2; stroke: #000000" x="301.936" y="385.434" width="640.277" height="38.6806"/>
    <text font-size="12.8" style="fill: #000000;text-anchor:middle;font-family:monospace;font-style:normal;font-weight:normal" x="622.075" y="407.424">
      <tspan x="622.075" y="407.424"></tspan>
    </text>
  </g>
  <g>
    <path style="fill: #ffffff" d="M 734.12 392.478 L 830.32,392.478 L 830.32,416.478 C 811.08,412.478 801.46,412.478 782.22,416.478 C 762.98,420.478 753.36,420.478 734.12,416.478 L 734.12,392.478z"/>
    <path style="fill: none; fill-opacity:0; stroke-width: 0.02; stroke: #000000" d="M 734.12 392.478 L 830.32,392.478 L 830.32,416.478 C 811.08,412.478 801.46,412.478 782.22,416.478 C 762.98,420.478 753.36,420.478 734.12,416.478 L 734.12,392.478"/>
    <text font-size="12.8" style="fill: #000000;text-anchor:middle;font-family:monospace;font-style:normal;font-weight:normal" x="782.22" y="405.678">
      <tspan x="782.22" y="405.678">16位紧急指针</tspan>
    </text>
  </g>
  <g>
    <rect style="fill: #ffffff" x="302.168" y="424.012" width="640.52" height="38.6806"/>
    <rect style="fill: none; fill-opacity:0; stroke-width: 2; stroke: #000000" x="302.168" y="424.012" width="640.52" height="38.6806"/>
    <text font-size="12.8" style="fill: #000000;text-anchor:middle;font-family:monospace;font-style:normal;font-weight:normal" x="622.428" y="446.352">
      <tspan x="622.428" y="446.352">选项(如果有)</tspan>
    </text>
  </g>
  <g>
    <rect style="fill: #ffffff" x="302.168" y="462.578" width="640.928" height="66.2152"/>
    <rect style="fill: none; fill-opacity:0; stroke-width: 2; stroke: #000000" x="302.168" y="462.578" width="640.928" height="66.2152"/>
    <text font-size="12.8" style="fill: #000000;text-anchor:middle;font-family:monospace;font-style:normal;font-weight:normal" x="622.632" y="498.686">
      <tspan x="622.632" y="498.686">数据</tspan>
    </text>
  </g>
  <g>
    <rect style="fill: #ffffff" x="301.418" y="269.954" width="640.364" height="38.6806"/>
    <rect style="fill: none; fill-opacity:0; stroke-width: 2; stroke: #000000" x="301.418" y="269.954" width="640.364" height="38.6806"/>
    <text font-size="12.8" style="fill: #000000;text-anchor:middle;font-family:monospace;font-style:normal;font-weight:normal" x="621.6" y="291.944">
      <tspan x="621.6" y="291.944"></tspan>
    </text>
  </g>
  <g>
    <path style="fill: #ffffff" d="M 573.532 275.378 L 669.732,275.378 L 669.732,299.378 C 650.492,295.378 640.872,295.378 621.632,299.378 C 602.392,303.378 592.772,303.378 573.532,299.378 L 573.532,275.378z"/>
    <path style="fill: none; fill-opacity:0; stroke-width: 0.02; stroke: #000000" d="M 573.532 275.378 L 669.732,275.378 L 669.732,299.378 C 650.492,295.378 640.872,295.378 621.632,299.378 C 602.392,303.378 592.772,303.378 573.532,299.378 L 573.532,275.378"/>
    <text font-size="12.8" style="fill: #000000;text-anchor:middle;font-family:monospace;font-style:normal;font-weight:normal" x="621.632" y="288.578">
      <tspan x="621.632" y="288.578">32位序号</tspan>
    </text>
  </g>
  <g>
    <rect style="fill: #ffffff" x="301.556" y="308.532" width="640.226" height="38.6806"/>
    <rect style="fill: none; fill-opacity:0; stroke-width: 2; stroke: #000000" x="301.556" y="308.532" width="640.226" height="38.6806"/>
    <text font-size="12.8" style="fill: #000000;text-anchor:middle;font-family:monospace;font-style:normal;font-weight:normal" x="621.669" y="330.522">
      <tspan x="621.669" y="330.522"></tspan>
    </text>
  </g>
  <g>
    <path style="fill: #ffffff" d="M 571.634 314.762 L 670.434,314.762 L 670.434,338.762 C 650.674,334.762 640.794,334.762 621.034,338.762 C 601.274,342.762 591.394,342.762 571.634,338.762 L 571.634,314.762z"/>
    <path style="fill: none; fill-opacity:0; stroke-width: 0.02; stroke: #000000" d="M 571.634 314.762 L 670.434,314.762 L 670.434,338.762 C 650.674,334.762 640.794,334.762 621.034,338.762 C 601.274,342.762 591.394,342.762 571.634,338.762 L 571.634,314.762"/>
    <text font-size="12.8" style="fill: #000000;text-anchor:middle;font-family:monospace;font-style:normal;font-weight:normal" x="621.034" y="327.962">
      <tspan x="621.034" y="327.962">32位确认序号</tspan>
    </text>
  </g>
  <g>
    <rect style="fill: #ffffff" x="301.556" y="347.39" width="640.226" height="38"/>
    <rect style="fill: none; fill-opacity:0; stroke-width: 2; stroke: #000000" x="301.556" y="347.39" width="640.226" height="38"/>
    <text font-size="12.8" style="fill: #000000;text-anchor:middle;font-family:monospace;font-style:normal;font-weight:normal" x="621.669" y="369.04">
      <tspan x="621.669" y="369.04"></tspan>
    </text>
  </g>
  <g>
    <path style="fill: #ffffff" d="M 297.538 201.888 L 308.538,201.888 L 308.538,225.888 C 306.338,221.888 305.238,221.888 303.038,225.888 C 300.838,229.888 299.738,229.888 297.538,225.888 L 297.538,201.888z"/>
    <path style="fill: none; fill-opacity:0; stroke-width: 0.02; stroke: #000000" d="M 297.538 201.888 L 308.538,201.888 L 308.538,225.888 C 306.338,221.888 305.238,221.888 303.038,225.888 C 300.838,229.888 299.738,229.888 297.538,225.888 L 297.538,201.888"/>
    <text font-size="12.8" style="fill: #000000;text-anchor:middle;font-family:sans-serif;font-style:normal;font-weight:normal" x="303.038" y="216.688">
      <tspan x="303.038" y="216.688">0</tspan>
    </text>
  </g>
  <g>
    <path style="fill: #ffffff" d="M 602.688 200.648 L 620.688,200.648 L 620.688,224.648 C 617.088,220.648 615.288,220.648 611.688,224.648 C 608.088,228.648 606.288,228.648 602.688,224.648 L 602.688,200.648z"/>
    <path style="fill: none; fill-opacity:0; stroke-width: 0.02; stroke: #000000" d="M 602.688 200.648 L 620.688,200.648 L 620.688,224.648 C 617.088,220.648 615.288,220.648 611.688,224.648 C 608.088,228.648 606.288,228.648 602.688,224.648 L 602.688,200.648"/>
    <text font-size="12.8" style="fill: #000000;text-anchor:middle;font-family:sans-serif;font-style:normal;font-weight:normal" x="611.688" y="215.448">
      <tspan x="611.688" y="215.448">15</tspan>
    </text>
  </g>
  <g>
    <path style="fill: #ffffff" d="M 621.702 200.026 L 639.702,200.026 L 639.702,224.026 C 636.102,220.026 634.302,220.026 630.702,224.026 C 627.102,228.026 625.302,228.026 621.702,224.026 L 621.702,200.026z"/>
    <path style="fill: none; fill-opacity:0; stroke-width: 0.02; stroke: #000000" d="M 621.702 200.026 L 639.702,200.026 L 639.702,224.026 C 636.102,220.026 634.302,220.026 630.702,224.026 C 627.102,228.026 625.302,228.026 621.702,224.026 L 621.702,200.026"/>
    <text font-size="12.8" style="fill: #000000;text-anchor:middle;font-family:sans-serif;font-style:normal;font-weight:normal" x="630.702" y="214.826">
      <tspan x="630.702" y="214.826">16</tspan>
    </text>
  </g>
  <g>
    <path style="fill: #ffffff" d="M 923.342 200.464 L 941.342,200.464 L 941.342,224.464 C 937.742,220.464 935.942,220.464 932.342,224.464 C 928.742,228.464 926.942,228.464 923.342,224.464 L 923.342,200.464z"/>
    <path style="fill: none; fill-opacity:0; stroke-width: 0.02; stroke: #000000" d="M 923.342 200.464 L 941.342,200.464 L 941.342,224.464 C 937.742,220.464 935.942,220.464 932.342,224.464 C 928.742,228.464 926.942,228.464 923.342,224.464 L 923.342,200.464"/>
    <text font-size="12.8" style="fill: #000000;text-anchor:middle;font-family:sans-serif;font-style:normal;font-weight:normal" x="932.342" y="215.264">
      <tspan x="932.342" y="215.264">31</tspan>
    </text>
  </g>
  <line style="fill: none; fill-opacity:0; stroke-width: 2; stroke: #000000" x1="621.67" y1="347.212" x2="621.67" y2="385.39"/>
  <line style="fill: none; fill-opacity:0; stroke-width: 2; stroke: #000000" x1="500.12" y1="347.504" x2="500.12" y2="385.682"/>
  <g>
    <path style="fill: #ffffff" d="M 719.638 353.404 L 841.538,353.404 L 841.538,377.404 C 817.158,373.404 804.968,373.404 780.588,377.404 C 756.208,381.404 744.018,381.404 719.638,377.404 L 719.638,353.404z"/>
    <path style="fill: none; fill-opacity:0; stroke-width: 0.02; stroke: #000000" d="M 719.638 353.404 L 841.538,353.404 L 841.538,377.404 C 817.158,373.404 804.968,373.404 780.588,377.404 C 756.208,381.404 744.018,381.404 719.638,377.404 L 719.638,353.404"/>
    <text font-size="12.8" style="fill: #000000;text-anchor:middle;font-family:monospace;font-style:normal;font-weight:normal" x="780.588" y="366.604">
      <tspan x="780.588" y="366.604">16位窗口大小</tspan>
    </text>
  </g>
  <line style="fill: none; fill-opacity:0; stroke-width: 1; stroke: #000000" x1="957.73" y1="422.694" x2="972.354" y2="422.694"/>
  <line style="fill: none; fill-opacity:0; stroke-width: 1; stroke: #000000" x1="957.454" y1="232.09" x2="972.076" y2="232.09"/>
  <g>
    <path style="fill: #ffffff" d="M 943.12 286.78 L 986.72,286.78 L 986.72,319.684 C 978,314.2 973.64,314.2 964.92,319.684 C 956.2,325.168 951.84,325.168 943.12,319.684 L 943.12,286.78z"/>
    <path style="fill: none; fill-opacity:0; stroke-width: 0.02; stroke: #000000" d="M 943.12 286.78 L 986.72,286.78 L 986.72,319.684 C 978,314.2 973.64,314.2 964.92,319.684 C 956.2,325.168 951.84,325.168 943.12,319.684 L 943.12,286.78"/>
    <text font-size="12.8" style="fill: #000000;text-anchor:middle;font-family:sans-serif;font-style:normal;font-weight:normal" x="964.92" y="305.29">
      <tspan x="964.92" y="305.29">20字节</tspan>
    </text>
  </g>
  <g>
    <line style="fill: none; fill-opacity:0; stroke-width: 1; stroke: #000000" x1="964.92" y1="286.78" x2="964.794" y2="242.59"/>
    <polygon style="fill: #000000" points="969.794,242.576 964.765,232.59 959.794,242.604 "/>
    <polygon style="fill: none; fill-opacity:0; stroke-width: 1; stroke: #000000" points="969.794,242.576 964.765,232.59 959.794,242.604 "/>
  </g>
  <g>
    <line style="fill: none; fill-opacity:0; stroke-width: 1; stroke: #000000" x1="964.934" y1="319.666" x2="965.031" y2="412.194"/>
    <polygon style="fill: #000000" points="960.031,412.199 965.041,422.194 970.031,412.189 "/>
    <polygon style="fill: none; fill-opacity:0; stroke-width: 1; stroke: #000000" points="960.031,412.199 965.041,422.194 970.031,412.189 "/>
  </g>
  <g>
    <path style="fill: #ffffff" d="M 318.814 122.144 L 336.814,122.144 L 336.814,146.144 C 333.214,142.144 331.414,142.144 327.814,146.144 C 324.214,150.144 322.414,150.144 318.814,146.144 L 318.814,122.144z"/>
    <path style="fill: none; fill-opacity:0; stroke-width: 0.02; stroke: #000000" d="M 318.814 122.144 L 336.814,122.144 L 336.814,146.144 C 333.214,142.144 331.414,142.144 327.814,146.144 C 324.214,150.144 322.414,150.144 318.814,146.144 L 318.814,122.144"/>
    <text font-size="12.8" style="fill: #000000;text-anchor:middle;font-family:sans-serif;font-style:normal;font-weight:normal" x="327.814" y="136.944">
      <tspan x="327.814" y="136.944">20</tspan>
    </text>
  </g>
  <line style="fill: none; fill-opacity:0; stroke-width: 2; stroke: #000000" x1="420.004" y1="121.617" x2="419.998" y2="82.711"/>
  <g>
    <path style="fill: #ffffff" d="M 380.618 122.104 L 398.618,122.104 L 398.618,146.104 C 395.018,142.104 393.218,142.104 389.618,146.104 C 386.018,150.104 384.218,150.104 380.618,146.104 L 380.618,122.104z"/>
    <path style="fill: none; fill-opacity:0; stroke-width: 0.02; stroke: #000000" d="M 380.618 122.104 L 398.618,122.104 L 398.618,146.104 C 395.018,142.104 393.218,142.104 389.618,146.104 C 386.018,150.104 384.218,150.104 380.618,146.104 L 380.618,122.104"/>
    <text font-size="12.8" style="fill: #000000;text-anchor:middle;font-family:sans-serif;font-style:normal;font-weight:normal" x="389.618" y="136.904">
      <tspan x="389.618" y="136.904">20</tspan>
    </text>
  </g>
  <g>
    <path style="fill: #ffffff" d="M 348.194 143.482 L 531.494,143.482 L 531.494,167.482 C 494.834,163.482 476.504,163.482 439.844,167.482 C 403.184,171.482 384.854,171.482 348.194,167.482 L 348.194,143.482z"/>
    <path style="fill: none; fill-opacity:0; stroke-width: 0.02; stroke: #000000" d="M 348.194 143.482 L 531.494,143.482 L 531.494,167.482 C 494.834,163.482 476.504,163.482 439.844,167.482 C 403.184,171.482 384.854,171.482 348.194,167.482 L 348.194,143.482"/>
    <text font-size="12.8" style="fill: #000000;text-anchor:middle;font-family:monospace;font-style:normal;font-weight:700" x="439.844" y="155.882">
      <tspan x="439.844" y="155.882">TCP数据在IP数据报中的封装</tspan>
    </text>
  </g>
  <g>
    <rect style="fill: #ffffff" x="300.852" y="230.724" width="640.571" height="38.6806"/>
    <rect style="fill: none; fill-opacity:0; stroke-width: 2; stroke: #000000" x="300.852" y="230.724" width="640.571" height="38.6806"/>
    <text font-size="12.8" style="fill: #000000;text-anchor:middle;font-family:monospace;font-style:normal;font-weight:normal" x="621.137" y="252.714">
      <tspan x="621.137" y="252.714"></tspan>
    </text>
  </g>
  <g>
    <path style="fill: #ffffff" d="M 423.71 238.79 L 507.11,238.79 L 507.11,262.79 C 490.43,258.79 482.09,258.79 465.41,262.79 C 448.73,266.79 440.39,266.79 423.71,262.79 L 423.71,238.79z"/>
    <path style="fill: none; fill-opacity:0; stroke-width: 0.02; stroke: #000000" d="M 423.71 238.79 L 507.11,238.79 L 507.11,262.79 C 490.43,258.79 482.09,258.79 465.41,262.79 C 448.73,266.79 440.39,266.79 423.71,262.79 L 423.71,238.79"/>
    <text font-size="12.8" style="fill: #000000;text-anchor:middle;font-family:monospace;font-style:normal;font-weight:normal" x="465.41" y="251.99">
      <tspan x="465.41" y="251.99">16位源端口号</tspan>
    </text>
  </g>
  <g>
    <path style="fill: #ffffff" d="M 761.18 237.872 L 857.38,237.872 L 857.38,261.872 C 838.14,257.872 828.52,257.872 809.28,261.872 C 790.04,265.872 780.42,265.872 761.18,261.872 L 761.18,237.872z"/>
    <path style="fill: none; fill-opacity:0; stroke-width: 0.02; stroke: #000000" d="M 761.18 237.872 L 857.38,237.872 L 857.38,261.872 C 838.14,257.872 828.52,257.872 809.28,261.872 C 790.04,265.872 780.42,265.872 761.18,261.872 L 761.18,237.872"/>
    <text font-size="12.8" style="fill: #000000;text-anchor:middle;font-family:monospace;font-style:normal;font-weight:normal" x="809.28" y="251.072">
      <tspan x="809.28" y="251.072">16位目的端口号</tspan>
    </text>
  </g>
  <line style="fill: none; fill-opacity:0; stroke-width: 2; stroke: #000000" x1="621.138" y1="230.724" x2="621.138" y2="269.406"/>
  <line style="fill: none; fill-opacity:0; stroke-width: 2; stroke: #000000" x1="383.648" y1="346.87" x2="383.648" y2="385.048"/>
  <g>
    <path style="fill: #ffffff" d="M 304.486 352.214 L 380.186,352.214 L 380.186,376.214 C 365.046,372.214 357.476,372.214 342.336,376.214 C 327.196,380.214 319.626,380.214 304.486,376.214 L 304.486,352.214z"/>
    <path style="fill: none; fill-opacity:0; stroke-width: 0.02; stroke: #000000" d="M 304.486 352.214 L 380.186,352.214 L 380.186,376.214 C 365.046,372.214 357.476,372.214 342.336,376.214 C 327.196,380.214 319.626,380.214 304.486,376.214 L 304.486,352.214"/>
    <text font-size="12.8" style="fill: #000000;text-anchor:middle;font-family:monospace;font-style:normal;font-weight:normal" x="342.336" y="365.414">
      <tspan x="342.336" y="365.414">4位首部长度</tspan>
    </text>
  </g>
  <g>
    <path style="fill: #ffffff" d="M 406.206 352.214 L 471.706,352.214 L 471.706,376.214 C 458.606,372.214 452.056,372.214 438.956,376.214 C 425.856,380.214 419.306,380.214 406.206,376.214 L 406.206,352.214z"/>
    <path style="fill: none; fill-opacity:0; stroke-width: 0.02; stroke: #000000" d="M 406.206 352.214 L 471.706,352.214 L 471.706,376.214 C 458.606,372.214 452.056,372.214 438.956,376.214 C 425.856,380.214 419.306,380.214 406.206,376.214 L 406.206,352.214"/>
    <text font-size="12.8" style="fill: #000000;text-anchor:middle;font-family:monospace;font-style:normal;font-weight:normal" x="438.956" y="365.414">
      <tspan x="438.956" y="365.414">保留(6位)</tspan>
    </text>
  </g>
  <line style="fill: none; fill-opacity:0; stroke-width: 2; stroke: #000000" x1="521.37" y1="346.87" x2="521.37" y2="385.048"/>
  <line style="fill: none; fill-opacity:0; stroke-width: 2; stroke: #000000" x1="581.326" y1="347.102" x2="581.326" y2="385.28"/>
  <line style="fill: none; fill-opacity:0; stroke-width: 2; stroke: #000000" x1="561.59" y1="347.082" x2="561.59" y2="385.26"/>
  <line style="fill: none; fill-opacity:0; stroke-width: 2; stroke: #000000" x1="542.146" y1="347.024" x2="542.146" y2="385.202"/>
  <line style="fill: none; fill-opacity:0; stroke-width: 2; stroke: #000000" x1="600.938" y1="346.946" x2="600.938" y2="385.124"/>
  <g>
    <path style="fill: #ffffff" d="M 414.002 392.712 L 508.802,392.712 L 508.802,416.712 C 489.842,412.712 480.362,412.712 461.402,416.712 C 442.442,420.712 432.962,420.712 414.002,416.712 L 414.002,392.712z"/>
    <path style="fill: none; fill-opacity:0; stroke-width: 0.02; stroke: #000000" d="M 414.002 392.712 L 508.802,392.712 L 508.802,416.712 C 489.842,412.712 480.362,412.712 461.402,416.712 C 442.442,420.712 432.962,420.712 414.002,416.712 L 414.002,392.712"/>
    <text font-size="12.8" style="fill: #000000;text-anchor:middle;font-family:monospace;font-style:normal;font-weight:normal" x="461.402" y="405.912">
      <tspan x="461.402" y="405.912">16位校验和</tspan>
    </text>
  </g>
  <line style="fill: none; fill-opacity:0; stroke-width: 2; stroke: #000000" x1="621.224" y1="385.764" x2="621.224" y2="423.942"/>
  <g>
    <path style="fill: none; fill-opacity:0; stroke-width: 0.4; stroke-linecap: round; stroke: #000000" d="M 514.563 372.427 C 514.553,371.952 514.481,371.568 514.086,371.166 C 513.875,370.888 513.448,370.73 512.881,370.678 L 507.074,370.662 C 507.089,370.739 507.012,370.753 506.858,370.782 C 506.873,370.859 506.825,371.027 506.686,371.133 L 506.73,371.363 L 506.423,371.421 L 506.396,369.598 L 506.718,369.616 L 506.699,369.938 C 506.805,370.077 506.819,370.154 506.834,370.231 C 506.939,370.37 507.031,370.432 507.093,370.341 L 512.9,370.356 C 513.543,370.394 513.985,370.628 514.379,371.031 C 514.711,371.525 514.966,372.033 514.976,372.508 C 514.953,373.228 514.81,373.732 514.484,374.112 C 514.173,374.568 513.665,374.823 512.945,374.8 L 507.138,374.785 C 507.061,374.799 506.907,374.828 506.831,374.843 C 506.768,374.934 506.797,375.087 506.735,375.179 L 506.716,375.5 L 506.395,375.481 L 506.372,373.26 L 506.694,373.278 L 506.737,373.509 C 506.781,373.739 506.796,373.816 506.81,373.892 C 506.901,373.955 506.993,374.017 507.146,373.988 L 512.953,374.004 C 513.673,374.027 514.119,373.863 514.306,373.589 C 514.569,373.301 514.574,372.902 514.563,372.427 L 514.563,372.427"/>
    <path style="fill: none; fill-opacity:0; stroke-width: 0.4; stroke-linecap: round; stroke: #000000" d="M 508.389 363.735 C 509.186,363.743 509.69,363.887 509.992,364.227 C 510.387,364.63 510.55,365.076 510.546,365.474 L 514.239,363.981 C 514.316,363.967 514.47,363.938 514.517,363.769 C 514.517,363.769 514.503,363.693 514.627,363.51 L 514.569,363.203 L 514.891,363.222 L 514.907,364.57 L 510.614,366.256 L 510.587,367.374 L 514.172,367.413 C 514.417,367.446 514.556,367.34 514.542,367.263 C 514.681,367.157 514.666,367.081 514.56,366.942 L 514.579,366.62 L 514.901,366.639 L 514.861,368.952 L 514.616,368.919 L 514.558,368.612 C 514.697,368.506 514.682,368.429 514.5,368.305 C 514.5,368.305 514.332,368.257 514.164,368.209 L 507.085,368.195 C 507.085,368.195 507.008,368.21 506.855,368.239 C 506.869,368.316 506.821,368.484 506.682,368.589 L 506.664,368.911 L 506.419,368.878 L 506.372,366.104 C 506.395,365.384 506.6,364.789 506.912,364.332 C 507.314,363.938 507.837,363.76 508.389,363.735 L 508.389,363.735"/>
    <path style="fill: none; fill-opacity:0; stroke-width: 0.4; stroke-linecap: round; stroke: #000000" d="M 510.342 367.341 L 510.307,366.314 C 510.374,365.825 510.21,365.379 509.907,365.038 C 509.619,364.775 509.115,364.631 508.457,364.517 C 507.982,364.527 507.613,364.677 507.196,364.994 C 506.932,365.282 506.774,365.71 506.737,366.353 L 506.685,366.919 C 506.805,367.135 506.82,367.212 506.834,367.289 C 506.925,367.351 507.017,367.413 507.093,367.399 L 510.342,367.341"/>
    <path style="fill: none; fill-opacity:0; stroke-width: 0.4; stroke-linecap: round; stroke: #000000" d="M 506.67 359.687 C 506.771,360.224 507.103,360.718 507.651,361.092 C 508.381,361.59 509.375,361.8 510.785,361.692 C 511.75,361.748 512.671,361.574 513.396,361.199 C 514.302,360.948 514.599,360.415 514.622,359.695 C 514.564,359.388 514.52,359.157 514.386,358.865 C 514.28,358.726 514.083,358.525 513.747,358.429 L 512.077,358.427 C 511.923,358.456 511.77,358.485 511.631,358.59 C 511.491,358.696 511.444,358.864 511.473,359.018 L 511.454,359.339 L 511.132,359.321 L 511.143,356.854 L 511.465,356.873 L 511.432,357.117 C 511.552,357.333 511.581,357.487 511.658,357.472 C 511.763,357.611 511.932,357.659 512.008,357.644 L 514.475,357.655 C 514.351,357.838 514.351,357.838 514.351,357.838 C 514.365,357.915 514.38,357.991 514.38,357.991 C 514.394,358.068 514.409,358.145 514.423,358.222 C 514.438,358.299 514.452,358.375 514.529,358.361 C 514.664,358.653 514.784,358.869 514.813,359.023 C 514.871,359.33 514.915,359.56 514.944,359.714 C 514.993,360.817 514.572,361.533 513.694,361.937 C 512.831,362.419 511.91,362.593 510.792,362.565 C 509.611,362.629 508.541,362.434 507.628,361.812 C 506.821,361.328 506.369,360.618 506.286,359.76 C 506.334,359.591 506.367,359.347 506.462,359.011 C 506.587,358.828 506.635,358.66 506.606,358.506 C 506.591,358.43 506.577,358.353 506.548,358.199 C 506.548,358.199 506.456,358.137 506.274,358.013 L 508.5,357.592 L 508.635,357.884 C 507.958,358.092 507.45,358.347 507.11,358.65 C 506.846,358.938 506.751,359.274 506.67,359.687 L 506.67,359.687"/>
  </g>
  <g>
    <path style="fill: none; fill-opacity:0; stroke-width: 0.4; stroke-linecap: round; stroke: #000000" d="M 532.261 371.88 L 532.298,374.179 L 534.132,374.627 C 534.391,374.737 534.545,374.708 534.53,374.632 C 534.775,374.665 534.928,374.636 535.005,374.621 C 535.159,374.592 535.207,374.424 535.149,374.117 L 535.119,373.964 L 535.441,373.982 L 535.468,375.806 L 535.161,375.864 L 535.132,375.711 C 535.194,375.619 535.165,375.466 535.059,375.327 C 534.968,375.264 534.877,375.202 534.632,375.169 L 527.022,373.188 L 526.8,372.435 L 534.635,370.557 C 534.803,370.605 534.865,370.513 534.99,370.331 C 534.975,370.254 535.037,370.163 535.162,369.98 L 535.133,369.827 L 535.454,369.845 L 535.462,371.991 L 535.141,371.972 L 535.174,371.727 C 535.068,371.588 534.977,371.526 534.962,371.449 C 534.809,371.478 534.809,371.478 534.794,371.401 C 534.718,371.416 534.626,371.354 534.473,371.383 L 532.261,371.88"/>
    <path style="fill: none; fill-opacity:0; stroke-width: 0.4; stroke-linecap: round; stroke: #000000" d="M 527.852 372.952 L 527.867,373.029 L 531.962,374.083 L 531.954,371.938 L 527.852,372.952"/>
    <path style="fill: none; fill-opacity:0; stroke-width: 0.4; stroke-linecap: round; stroke: #000000" d="M 535.555 366.169 C 535.498,367.134 535.231,367.821 534.536,368.349 C 533.855,368.955 532.718,369.249 531.201,369.218 C 530.006,369.205 528.998,368.919 528.162,368.282 C 527.341,367.721 526.874,366.935 526.853,365.985 C 526.887,365.74 526.92,365.495 526.953,365.25 C 527.078,365.068 527.125,364.9 527.082,364.67 C 527.144,364.578 527.206,364.487 527.101,364.348 C 527.101,364.348 526.995,364.209 526.889,364.07 L 529.039,363.664 L 529.173,363.956 C 528.588,364.226 528.08,364.481 527.74,364.784 C 527.414,365.163 527.256,365.591 527.19,366.08 C 527.32,366.771 527.666,367.342 528.368,367.686 C 529.175,368.17 530.154,368.303 531.181,368.268 C 532.453,368.266 533.374,368.092 534.098,367.717 C 534.837,367.418 535.133,366.885 535.065,366.103 C 535.055,365.628 534.968,365.167 534.574,364.764 C 534.256,364.347 533.738,364.127 532.989,363.951 L 533.176,363.677 C 533.924,363.853 534.381,364.165 534.852,364.553 C 535.275,365.109 535.53,365.617 535.555,366.169 L 535.555,366.169"/>
    <path style="fill: none; fill-opacity:0; stroke-width: 0.4; stroke-linecap: round; stroke: #000000" d="M 535.436 357.128 L 535.444,359.273 L 535.122,359.254 L 535.17,359.086 C 535.064,358.947 534.959,358.808 534.944,358.731 C 534.791,358.76 534.714,358.775 534.421,358.91 L 530.757,360.556 L 531.944,361.366 L 534.732,361.395 C 534.977,361.428 535.13,361.399 535.101,361.246 C 535.255,361.217 535.226,361.063 535.12,360.924 L 535.139,360.603 L 535.46,360.621 L 535.42,362.935 L 535.099,362.916 L 535.118,362.594 C 535.242,362.412 535.228,362.335 535.06,362.287 C 535.045,362.211 534.877,362.163 534.724,362.192 L 527.645,362.178 C 527.645,362.178 527.568,362.192 527.414,362.221 C 527.443,362.375 527.381,362.466 527.257,362.649 L 527.223,362.894 L 526.993,362.937 L 526.956,360.638 L 527.278,360.657 L 527.245,360.902 C 527.365,361.118 527.394,361.271 527.394,361.271 C 527.423,361.425 527.5,361.41 527.653,361.381 L 531.224,361.343 L 527.923,359.024 C 527.741,358.9 527.573,358.852 527.419,358.881 C 527.371,359.049 527.309,359.141 527.261,359.309 L 527.228,359.553 L 526.983,359.52 L 526.976,357.375 L 527.22,357.408 L 527.235,357.485 C 527.355,357.701 527.384,357.854 527.413,358.008 C 527.533,358.224 527.639,358.363 527.822,358.487 L 530.027,360.058 L 534.554,357.93 C 534.785,357.887 534.847,357.796 534.971,357.613 C 534.957,357.536 535.019,357.445 535.158,357.339 L 535.115,357.109 L 535.436,357.128"/>
  </g>
  <g>
    <path style="fill: none; fill-opacity:0; stroke-width: 0.4; stroke-linecap: round; stroke: #000000" d="M 551.795 373.626 L 555.058,373.645 C 555.318,373.755 555.471,373.726 555.442,373.572 C 555.596,373.543 555.567,373.39 555.446,373.174 L 555.465,372.853 L 555.787,372.871 L 555.761,375.261 L 555.44,375.243 L 555.459,374.921 C 555.583,374.738 555.569,374.662 555.401,374.614 C 555.386,374.537 555.218,374.489 555.05,374.442 L 547.971,374.428 C 547.971,374.428 547.909,374.519 547.755,374.548 C 547.784,374.702 547.722,374.793 547.583,374.899 L 547.564,375.22 L 547.32,375.187 L 547.32,372.245 C 547.42,371.511 547.611,370.839 547.922,370.382 C 548.401,369.974 548.924,369.795 549.462,369.694 C 550.35,369.764 550.945,369.97 551.277,370.464 C 551.686,370.943 551.878,371.543 551.826,372.109 L 551.795,373.626"/>
    <path style="fill: none; fill-opacity:0; stroke-width: 0.4; stroke-linecap: round; stroke: #000000" d="M 551.486 372.412 C 551.567,371.999 551.403,371.553 551.086,371.136 C 550.86,370.781 550.341,370.561 549.545,370.553 C 548.901,370.515 548.455,370.679 548.038,370.996 C 547.789,371.361 547.646,371.865 547.608,372.509 L 547.585,373.229 C 547.691,373.368 547.706,373.444 547.72,373.521 C 547.826,373.66 547.917,373.722 547.98,373.631 L 551.488,373.684 L 551.486,372.412"/>
    <path style="fill: none; fill-opacity:0; stroke-width: 0.4; stroke-linecap: round; stroke: #000000" d="M 551.66 366.178 C 551.358,367.109 550.999,367.733 550.659,368.036 C 550.41,368.401 549.964,368.565 549.244,368.542 C 548.846,368.538 548.342,368.395 547.856,367.93 C 547.462,367.527 547.269,366.928 547.201,366.145 C 547.234,365.901 547.253,365.579 547.349,365.243 C 547.459,364.984 547.569,364.724 547.54,364.571 C 547.602,364.48 547.587,364.403 547.496,364.341 C 547.481,364.264 547.39,364.202 547.208,364.077 L 549.233,363.853 L 549.291,364.16 C 548.643,364.521 548.226,364.839 547.948,365.05 C 547.776,365.401 547.604,365.751 547.537,366.241 C 547.576,366.87 547.817,367.301 548.105,367.565 C 548.47,367.814 548.821,367.986 549.205,367.914 C 549.618,367.995 549.91,367.86 550.02,367.6 C 550.298,367.389 550.581,366.779 551.035,365.818 C 551.365,365.041 551.739,364.493 552.141,364.099 C 552.558,363.781 553.081,363.603 553.556,363.593 C 554.276,363.616 554.718,363.85 555.189,364.238 C 555.598,364.718 555.867,365.303 555.844,366.023 C 555.84,366.421 555.744,366.757 555.697,366.925 C 555.601,367.261 555.63,367.415 555.506,367.597 C 555.611,367.736 555.64,367.89 555.64,367.89 C 555.746,368.029 555.761,368.106 555.867,368.245 L 553.396,368.632 L 553.337,368.325 C 554.182,368.166 554.753,367.819 555.064,367.363 C 555.39,366.983 555.456,366.494 555.508,365.927 C 555.421,365.467 555.349,365.083 555.046,364.743 C 554.757,364.479 554.253,364.336 553.61,364.298 C 553.289,364.279 552.996,364.414 552.579,364.732 C 552.33,365.097 552.019,365.553 551.66,366.178 L 551.66,366.178"/>
    <path style="fill: none; fill-opacity:0; stroke-width: 0.4; stroke-linecap: round; stroke: #000000" d="M 555.093 357.419 C 555.107,357.496 555.184,357.481 555.309,357.299 C 555.309,357.299 555.356,357.131 555.481,356.948 L 555.437,356.718 L 555.759,356.736 L 555.767,358.882 L 555.46,358.94 L 555.478,358.618 C 555.373,358.479 555.358,358.402 555.344,358.326 C 555.252,358.263 555.161,358.201 555.084,358.216 L 551.423,358.192 L 551.422,361.134 L 555.084,361.157 C 555.252,361.205 555.314,361.114 555.376,361.023 C 555.439,360.931 555.501,360.84 555.472,360.687 L 555.428,360.456 L 555.75,360.475 L 555.758,362.62 L 555.436,362.602 L 555.469,362.357 C 555.532,362.265 555.44,362.203 555.335,362.064 C 555.335,362.064 555.243,362.002 555.075,361.954 L 547.996,361.94 C 547.92,361.955 547.766,361.984 547.689,361.998 C 547.627,362.09 547.656,362.243 547.594,362.334 L 547.561,362.579 L 547.239,362.56 L 547.246,360.492 L 547.567,360.511 L 547.596,360.664 C 547.64,360.895 547.654,360.971 547.669,361.048 C 547.76,361.11 547.851,361.173 548.005,361.144 L 551.1,361.115 L 551.115,358.25 L 548.006,358.202 C 547.943,358.293 547.79,358.322 547.713,358.336 C 547.651,358.428 547.588,358.519 547.541,358.687 L 547.57,358.841 L 547.248,358.822 L 547.255,356.753 L 547.576,356.772 L 547.529,356.94 C 547.649,357.156 547.678,357.31 547.678,357.31 C 547.784,357.449 547.86,357.434 547.937,357.42 L 555.093,357.419"/>
  </g>
  <g>
    <path style="fill: none; fill-opacity:0; stroke-width: 0.4; stroke-linecap: round; stroke: #000000" d="M 568.869 370.695 C 569.665,370.703 570.169,370.846 570.472,371.187 C 570.866,371.589 571.03,372.035 571.026,372.434 L 574.719,370.941 C 574.796,370.926 574.95,370.897 574.997,370.729 C 574.997,370.729 574.983,370.652 575.107,370.47 L 575.049,370.163 L 575.371,370.182 L 575.387,371.53 L 571.094,373.216 L 571.067,374.334 L 574.652,374.372 C 574.897,374.405 575.036,374.3 575.021,374.223 C 575.161,374.117 575.146,374.04 575.04,373.901 L 575.059,373.58 L 575.381,373.599 L 575.341,375.912 L 575.096,375.879 L 575.038,375.571 C 575.177,375.466 575.162,375.389 574.98,375.264 C 574.98,375.264 574.812,375.217 574.644,375.169 L 567.565,375.155 C 567.565,375.155 567.488,375.17 567.335,375.199 C 567.349,375.275 567.301,375.443 567.162,375.549 L 567.144,375.871 L 566.899,375.837 L 566.852,373.064 C 566.875,372.344 567.08,371.748 567.391,371.292 C 567.794,370.898 568.317,370.72 568.869,370.695 L 568.869,370.695"/>
    <path style="fill: none; fill-opacity:0; stroke-width: 0.4; stroke-linecap: round; stroke: #000000" d="M 570.822 374.301 L 570.787,373.274 C 570.854,372.784 570.69,372.338 570.387,371.998 C 570.099,371.734 569.595,371.591 568.937,371.477 C 568.462,371.487 568.093,371.636 567.675,371.954 C 567.412,372.242 567.254,372.67 567.217,373.313 L 567.165,373.879 C 567.285,374.095 567.3,374.172 567.314,374.248 C 567.405,374.311 567.497,374.373 567.573,374.358 L 570.822,374.301"/>
    <path style="fill: none; fill-opacity:0; stroke-width: 0.4; stroke-linecap: round; stroke: #000000" d="M 571.253 366.905 C 570.952,367.836 570.593,368.461 570.253,368.763 C 570.004,369.129 569.558,369.292 568.838,369.269 C 568.44,369.265 567.935,369.122 567.45,368.657 C 567.056,368.255 566.863,367.655 566.795,366.873 C 566.828,366.628 566.847,366.306 566.942,365.97 C 567.052,365.711 567.162,365.452 567.133,365.298 C 567.196,365.207 567.181,365.13 567.09,365.068 C 567.075,364.991 566.984,364.929 566.801,364.804 L 568.826,364.581 L 568.884,364.888 C 568.237,365.249 567.82,365.566 567.542,365.777 C 567.37,366.128 567.197,366.479 567.131,366.968 C 567.17,367.597 567.411,368.028 567.699,368.292 C 568.064,368.541 568.415,368.713 568.799,368.641 C 569.211,368.722 569.504,368.587 569.614,368.328 C 569.892,368.116 570.174,367.506 570.629,366.546 C 570.959,365.768 571.332,365.22 571.735,364.826 C 572.152,364.509 572.675,364.33 573.15,364.32 C 573.87,364.343 574.312,364.578 574.783,364.966 C 575.191,365.445 575.461,366.03 575.438,366.75 C 575.434,367.148 575.338,367.484 575.29,367.652 C 575.195,367.989 575.224,368.142 575.099,368.325 C 575.205,368.464 575.234,368.617 575.234,368.617 C 575.34,368.756 575.355,368.833 575.46,368.972 L 572.989,369.359 L 572.931,369.052 C 573.776,368.893 574.346,368.546 574.658,368.09 C 574.983,367.711 575.05,367.221 575.102,366.655 C 575.015,366.194 574.942,365.81 574.639,365.47 C 574.351,365.206 573.847,365.063 573.204,365.026 C 572.882,365.007 572.59,365.142 572.173,365.459 C 571.924,365.824 571.612,366.28 571.253,366.905 L 571.253,366.905"/>
    <path style="fill: none; fill-opacity:0; stroke-width: 0.4; stroke-linecap: round; stroke: #000000" d="M 575.35 359.134 L 575.354,361.677 L 575.047,361.735 L 575.037,361.26 C 575.084,361.092 575.07,361.016 574.979,360.953 C 574.964,360.876 574.873,360.814 574.642,360.858 L 567.717,360.815 C 567.564,360.844 567.41,360.873 567.257,360.902 C 567.271,360.979 567.209,361.07 567.238,361.223 C 567.263,361.775 567.397,362.068 567.503,362.207 C 567.7,362.408 568.142,362.643 568.829,362.911 L 568.719,363.17 L 566.885,362.721 L 566.873,358.033 L 568.792,357.67 L 568.836,357.9 C 568.251,358.17 567.819,358.41 567.527,358.545 C 567.402,358.728 567.292,358.987 567.211,359.4 C 567.284,359.784 567.327,360.014 567.327,360.014 C 567.419,360.076 567.495,360.062 567.726,360.018 L 574.651,360.061 C 574.819,360.109 574.896,360.094 574.943,359.926 C 575.02,359.912 575.068,359.744 575.039,359.59 L 575.029,359.115 L 575.35,359.134"/>
  </g>
  <g>
    <path style="fill: none; fill-opacity:0; stroke-width: 0.4; stroke-linecap: round; stroke: #000000" d="M 590.947 372.781 C 590.646,373.713 590.287,374.337 589.947,374.64 C 589.698,375.005 589.252,375.169 588.532,375.146 C 588.134,375.142 587.629,374.998 587.144,374.534 C 586.75,374.131 586.557,373.531 586.489,372.749 C 586.522,372.504 586.541,372.183 586.636,371.847 C 586.746,371.587 586.856,371.328 586.827,371.175 C 586.89,371.083 586.875,371.007 586.784,370.944 C 586.769,370.868 586.678,370.805 586.496,370.681 L 588.52,370.457 L 588.578,370.764 C 587.931,371.125 587.514,371.442 587.236,371.654 C 587.064,372.005 586.891,372.355 586.825,372.845 C 586.864,373.473 587.105,373.905 587.393,374.168 C 587.758,374.418 588.109,374.59 588.493,374.517 C 588.906,374.598 589.198,374.463 589.308,374.204 C 589.586,373.993 589.868,373.383 590.323,372.422 C 590.653,371.644 591.027,371.097 591.429,370.702 C 591.846,370.385 592.369,370.207 592.844,370.197 C 593.564,370.22 594.006,370.454 594.477,370.842 C 594.885,371.321 595.155,371.907 595.132,372.626 C 595.128,373.025 595.032,373.361 594.985,373.529 C 594.889,373.865 594.918,374.019 594.794,374.201 C 594.899,374.34 594.928,374.494 594.928,374.494 C 595.034,374.633 595.049,374.709 595.154,374.848 L 592.683,375.236 L 592.625,374.929 C 593.47,374.769 594.04,374.423 594.352,373.967 C 594.677,373.587 594.744,373.097 594.796,372.531 C 594.709,372.07 594.636,371.687 594.334,371.346 C 594.045,371.083 593.541,370.939 592.898,370.902 C 592.576,370.883 592.284,371.018 591.867,371.335 C 591.618,371.7 591.306,372.157 590.947,372.781 L 590.947,372.781"/>
    <path style="fill: none; fill-opacity:0; stroke-width: 0.4; stroke-linecap: round; stroke: #000000" d="M 587.432 364.7 C 587.279,364.729 587.202,364.743 587.049,364.772 C 586.986,364.863 586.862,365.046 586.829,365.291 L 586.843,365.368 L 586.521,365.349 L 586.557,363.434 L 586.879,363.453 L 586.816,363.544 C 586.937,363.76 586.966,363.913 587.072,364.052 C 587.177,364.191 587.36,364.316 587.528,364.364 L 591.48,365.922 L 594.345,365.938 C 594.513,365.985 594.59,365.971 594.638,365.803 C 594.714,365.788 594.762,365.62 594.733,365.467 L 594.723,364.992 L 595.044,365.01 L 595.048,367.554 L 594.741,367.612 L 594.731,367.137 C 594.778,366.969 594.764,366.892 594.673,366.83 C 594.658,366.753 594.567,366.691 594.337,366.734 L 591.778,366.661 L 587.409,368.361 C 587.284,368.544 587.222,368.635 587.069,368.664 C 587.021,368.832 586.882,368.938 586.819,369.029 L 586.834,369.106 L 586.604,369.15 L 586.581,366.928 L 586.826,366.961 L 586.884,367.268 C 586.928,367.498 586.942,367.575 587.019,367.561 C 587.187,367.608 587.341,367.579 587.494,367.55 L 591.14,366.225 L 591.111,366.072 L 587.432,364.7"/>
    <path style="fill: none; fill-opacity:0; stroke-width: 0.4; stroke-linecap: round; stroke: #000000" d="M 593.096 358.064 L 593.081,357.987 L 587.274,357.971 C 587.197,357.986 587.12,358 586.967,358.029 C 586.996,358.183 586.934,358.274 586.871,358.365 L 586.867,358.764 L 586.56,358.822 L 586.581,356.83 L 586.812,356.787 L 586.807,357.185 C 586.928,357.401 586.957,357.554 586.957,357.554 C 587.062,357.693 587.139,357.679 587.216,357.664 L 595.015,357.701 L 595.058,357.931 L 587.587,361.729 L 587.601,361.805 L 594.358,361.801 C 594.526,361.848 594.603,361.834 594.665,361.743 C 594.728,361.651 594.79,361.56 594.761,361.406 L 594.765,361.008 L 594.995,360.965 L 595.051,362.942 L 594.744,363 L 594.748,362.602 C 594.873,362.419 594.844,362.265 594.676,362.218 C 594.661,362.141 594.508,362.17 594.34,362.122 L 587.261,362.108 C 587.198,362.2 587.045,362.229 586.968,362.243 C 586.906,362.334 586.935,362.488 586.873,362.579 L 586.854,362.901 L 586.532,362.882 L 586.578,361.442 L 593.096,358.064"/>
  </g>
  <g>
    <path style="fill: none; fill-opacity:0; stroke-width: 0.4; stroke-linecap: round; stroke: #000000" d="M 615.537 373.441 L 615.859,373.46 L 615.833,375.85 L 615.512,375.831 L 615.531,375.509 C 615.655,375.327 615.641,375.25 615.473,375.202 C 615.458,375.125 615.29,375.078 615.122,375.03 L 608.043,375.016 C 608.043,375.016 607.981,375.107 607.827,375.136 C 607.856,375.29 607.794,375.381 607.655,375.487 L 607.636,375.808 L 607.391,375.775 L 607.37,370.611 L 609.169,370.033 L 609.212,370.263 C 608.781,370.504 608.44,370.807 608.114,371.186 C 607.865,371.551 607.708,371.979 607.627,372.391 L 607.657,373.817 C 607.763,373.956 607.778,374.033 607.792,374.109 C 607.898,374.248 607.989,374.311 608.052,374.219 L 611.238,374.253 L 611.241,372.583 C 611.274,372.338 611.23,372.108 611.033,371.907 C 610.928,371.768 610.668,371.658 610.27,371.653 L 610.04,371.697 L 610.058,371.375 L 612.923,371.39 L 612.89,371.635 L 612.737,371.664 C 612.353,371.737 612.046,371.795 611.83,371.915 C 611.706,372.098 611.595,372.357 611.562,372.602 L 611.56,374.272 L 615.13,374.233 C 615.39,374.343 615.543,374.314 615.514,374.161 C 615.668,374.132 615.639,373.978 615.518,373.762 L 615.537,373.441"/>
    <path style="fill: none; fill-opacity:0; stroke-width: 0.4; stroke-linecap: round; stroke: #000000" d="M 607.621 368.576 L 607.376,368.543 L 607.342,364.574 L 607.663,364.593 L 607.651,365.788 C 607.68,365.941 607.771,366.004 607.786,366.08 C 607.968,366.205 608.059,366.267 608.045,366.19 L 615.124,366.204 C 615.292,366.252 615.354,366.161 615.416,366.069 C 615.493,366.055 615.555,365.964 615.512,365.733 L 615.539,364.615 L 615.861,364.634 L 615.818,368.617 L 615.573,368.584 L 615.509,367.403 C 615.572,367.312 615.557,367.235 615.451,367.096 C 615.451,367.096 615.36,367.034 615.115,367.001 L 608.036,366.987 C 607.96,367.002 607.897,367.093 607.821,367.107 C 607.773,367.275 607.711,367.367 607.648,367.458 L 607.621,368.576"/>
    <path style="fill: none; fill-opacity:0; stroke-width: 0.4; stroke-linecap: round; stroke: #000000" d="M 613.889 358.407 L 613.874,358.331 L 608.067,358.315 C 607.99,358.329 607.914,358.344 607.76,358.373 C 607.789,358.526 607.727,358.618 607.665,358.709 L 607.66,359.107 L 607.353,359.165 L 607.374,357.174 L 607.605,357.13 L 607.601,357.528 C 607.721,357.744 607.75,357.898 607.75,357.898 C 607.856,358.037 607.932,358.022 608.009,358.008 L 615.808,358.045 L 615.851,358.275 L 608.38,362.072 L 608.394,362.149 L 615.151,362.144 C 615.32,362.192 615.396,362.177 615.459,362.086 C 615.521,361.995 615.583,361.903 615.554,361.75 L 615.558,361.352 L 615.789,361.308 L 615.844,363.285 L 615.537,363.343 L 615.541,362.945 C 615.666,362.762 615.637,362.609 615.469,362.561 C 615.454,362.484 615.301,362.513 615.133,362.466 L 608.054,362.452 C 607.992,362.543 607.838,362.572 607.761,362.587 C 607.699,362.678 607.728,362.831 607.666,362.923 L 607.647,363.244 L 607.326,363.225 L 607.371,361.786 L 613.889,358.407"/>
  </g>
</svg>
