<?xml version="1.0" encoding="UTF-8" standalone="no"?>
<!DOCTYPE svg PUBLIC "-//W3C//DTD SVG 1.0//EN" "http://www.w3.org/TR/2001/PR-SVG-20010719/DTD/svg10.dtd">
<svg width="44cm" height="38cm" viewBox="294 69 873 742" xmlns="http://www.w3.org/2000/svg" xmlns:xlink="http://www.w3.org/1999/xlink">
  <g>
    <rect style="fill: #ffffff" x="300.664" y="256.484" width="797" height="38.6806"/>
    <rect style="fill: none; fill-opacity:0; stroke-width: 2; stroke: #000000" x="300.664" y="256.484" width="797" height="38.6806"/>
    <text font-size="12.8" style="fill: #000000;text-anchor:middle;font-family:monospace;font-style:normal;font-weight:normal" x="699.164" y="278.474">
      <tspan x="699.164" y="278.474"></tspan>
    </text>
  </g>
  <g>
    <path style="fill: #ffffff" d="M 455.808 262.138 L 539.208,262.138 L 539.208,286.138 C 522.528,282.138 514.188,282.138 497.508,286.138 C 480.828,290.138 472.488,290.138 455.808,286.138 L 455.808,262.138z"/>
    <path style="fill: none; fill-opacity:0; stroke-width: 0.02; stroke: #000000" d="M 455.808 262.138 L 539.208,262.138 L 539.208,286.138 C 522.528,282.138 514.188,282.138 497.508,286.138 C 480.828,290.138 472.488,290.138 455.808,286.138 L 455.808,262.138"/>
    <text font-size="12.8" style="fill: #000000;text-anchor:middle;font-family:monospace;font-style:normal;font-weight:normal" x="497.508" y="275.338">
      <tspan x="497.508" y="275.338">16位源端口号</tspan>
    </text>
  </g>
  <g>
    <path style="fill: #ffffff" d="M 841.524 261.218 L 937.724,261.218 L 937.724,285.218 C 918.484,281.218 908.864,281.218 889.624,285.218 C 870.384,289.218 860.764,289.218 841.524,285.218 L 841.524,261.218z"/>
    <path style="fill: none; fill-opacity:0; stroke-width: 0.02; stroke: #000000" d="M 841.524 261.218 L 937.724,261.218 L 937.724,285.218 C 918.484,281.218 908.864,281.218 889.624,285.218 C 870.384,289.218 860.764,289.218 841.524,285.218 L 841.524,261.218"/>
    <text font-size="12.8" style="fill: #000000;text-anchor:middle;font-family:monospace;font-style:normal;font-weight:normal" x="889.624" y="274.418">
      <tspan x="889.624" y="274.418">16位目的端口号</tspan>
    </text>
  </g>
  <line style="fill: none; fill-opacity:0; stroke-width: 2; stroke: #000000" x1="699.164" y1="256.484" x2="698.682" y2="295.064"/>
  <g>
    <rect style="fill: #ffffff" x="300.182" y="295.064" width="797" height="38.6806"/>
    <rect style="fill: none; fill-opacity:0; stroke-width: 2; stroke: #000000" x="300.182" y="295.064" width="797" height="38.6806"/>
    <text font-size="12.8" style="fill: #000000;text-anchor:middle;font-family:monospace;font-style:normal;font-weight:normal" x="698.682" y="317.054">
      <tspan x="698.682" y="317.054"></tspan>
    </text>
  </g>
  <g>
    <path style="fill: #ffffff" d="M 436.696 300.716 L 558.596,300.716 L 558.596,324.716 C 534.216,320.716 522.026,320.716 497.646,324.716 C 473.266,328.716 461.076,328.716 436.696,324.716 L 436.696,300.716z"/>
    <path style="fill: none; fill-opacity:0; stroke-width: 0.02; stroke: #000000" d="M 436.696 300.716 L 558.596,300.716 L 558.596,324.716 C 534.216,320.716 522.026,320.716 497.646,324.716 C 473.266,328.716 461.076,328.716 436.696,324.716 L 436.696,300.716"/>
    <text font-size="12.8" style="fill: #000000;text-anchor:middle;font-family:monospace;font-style:normal;font-weight:normal" x="497.646" y="313.916">
      <tspan x="497.646" y="313.916">16位UDP长度(字节)</tspan>
    </text>
  </g>
  <g>
    <path style="fill: #ffffff" d="M 842.362 299.798 L 937.162,299.798 L 937.162,323.798 C 918.202,319.798 908.722,319.798 889.762,323.798 C 870.802,327.798 861.322,327.798 842.362,323.798 L 842.362,299.798z"/>
    <path style="fill: none; fill-opacity:0; stroke-width: 0.02; stroke: #000000" d="M 842.362 299.798 L 937.162,299.798 L 937.162,323.798 C 918.202,319.798 908.722,319.798 889.762,323.798 C 870.802,327.798 861.322,327.798 842.362,323.798 L 842.362,299.798"/>
    <text font-size="12.8" style="fill: #000000;text-anchor:middle;font-family:monospace;font-style:normal;font-weight:normal" x="889.762" y="312.998">
      <tspan x="889.762" y="312.998">16位UDP校验和</tspan>
    </text>
  </g>
  <line style="fill: none; fill-opacity:0; stroke-width: 2; stroke: #000000" x1="698.682" y1="295.064" x2="698.682" y2="333.744"/>
  <g>
    <rect style="fill: #ffffff" x="300.182" y="333.63" width="797" height="66.2152"/>
    <rect style="fill: none; fill-opacity:0; stroke-width: 2; stroke: #000000" x="300.182" y="333.63" width="797" height="66.2152"/>
    <text font-size="12.8" style="fill: #000000;text-anchor:middle;font-family:monospace;font-style:normal;font-weight:normal" x="698.682" y="369.738">
      <tspan x="698.682" y="369.738">数据</tspan>
    </text>
  </g>
  <g>
    <path style="fill: #ffffff" d="M 667.18 403.336 L 727.58,403.336 L 727.58,427.336 C 715.5,423.336 709.46,423.336 697.38,427.336 C 685.3,431.336 679.26,431.336 667.18,427.336 L 667.18,403.336z"/>
    <path style="fill: none; fill-opacity:0; stroke-width: 0.02; stroke: #000000" d="M 667.18 403.336 L 727.58,403.336 L 727.58,427.336 C 715.5,423.336 709.46,423.336 697.38,427.336 C 685.3,431.336 679.26,431.336 667.18,427.336 L 667.18,403.336"/>
    <text font-size="12.8" style="fill: #000000;text-anchor:middle;font-family:monospace;font-style:normal;font-weight:700" x="697.38" y="415.736">
      <tspan x="697.38" y="415.736">UDP 首部</tspan>
    </text>
  </g>
  <line style="fill: none; fill-opacity:0; stroke-width: 1; stroke: #000000" x1="300.782" y1="76.7884" x2="300.782" y2="89.2308"/>
  <line style="fill: none; fill-opacity:0; stroke-width: 1; stroke: #000000" x1="598.964" y1="77.4966" x2="598.964" y2="89.939"/>
  <g>
    <path style="fill: #ffffff" d="M 458.916 69.4122 L 524.565,69.4122 L 524.565,93.4122 C 511.435,89.4122 504.87,89.4122 491.741,93.4122 C 478.611,97.4122 472.046,97.4122 458.916,93.4122 L 458.916,69.4122z"/>
    <path style="fill: none; fill-opacity:0; stroke-width: 0.02; stroke: #000000" d="M 458.916 69.4122 L 524.565,69.4122 L 524.565,93.4122 C 511.435,89.4122 504.87,89.4122 491.741,93.4122 C 478.611,97.4122 472.046,97.4122 458.916,93.4122 L 458.916,69.4122"/>
    <text font-size="12.8" style="fill: #000000;text-anchor:middle;font-family:monospace;font-style:normal;font-weight:normal" x="491.741" y="82.6122">
      <tspan x="491.741" y="82.6122">IP数据报</tspan>
    </text>
  </g>
  <g>
    <line style="fill: none; fill-opacity:0; stroke-width: 1; stroke: #000000" x1="458.908" y1="83.343" x2="311.282" y2="83.0317"/>
    <polygon style="fill: #000000" points="311.293,78.0317 301.282,83.0107 311.271,88.0317 "/>
    <polygon style="fill: none; fill-opacity:0; stroke-width: 1; stroke: #000000" points="311.293,78.0317 301.282,83.0107 311.271,88.0317 "/>
  </g>
  <g>
    <line style="fill: none; fill-opacity:0; stroke-width: 1; stroke: #000000" x1="524.541" y1="83.5057" x2="588.464" y2="83.6879"/>
    <polygon style="fill: #000000" points="588.45,88.6879 598.464,83.7164 588.478,78.6879 "/>
    <polygon style="fill: none; fill-opacity:0; stroke-width: 1; stroke: #000000" points="588.45,88.6879 598.464,83.7164 588.478,78.6879 "/>
  </g>
  <g>
    <path style="fill: #ffffff" d="M 473.622 89.8398 L 539.271,89.8398 L 539.271,113.84 C 526.141,109.84 519.576,109.84 506.447,113.84 C 493.317,117.84 486.752,117.84 473.622,113.84 L 473.622,89.8398z"/>
    <path style="fill: none; fill-opacity:0; stroke-width: 0.02; stroke: #000000" d="M 473.622 89.8398 L 539.271,89.8398 L 539.271,113.84 C 526.141,109.84 519.576,109.84 506.447,113.84 C 493.317,117.84 486.752,117.84 473.622,113.84 L 473.622,89.8398"/>
    <text font-size="12.8" style="fill: #000000;text-anchor:middle;font-family:monospace;font-style:normal;font-weight:normal" x="506.447" y="103.04">
      <tspan x="506.447" y="103.04">UDP数据报</tspan>
    </text>
  </g>
  <g>
    <rect style="fill: #ffffff" x="301.01" y="112.839" width="298.629" height="50.4987"/>
    <rect style="fill: none; fill-opacity:0; stroke-width: 2; stroke: #000000" x="301.01" y="112.839" width="298.629" height="50.4987"/>
    <text font-size="12.8" style="fill: #000000;text-anchor:middle;font-family:monospace;font-style:normal;font-weight:normal" x="450.325" y="140.739">
      <tspan x="450.325" y="140.739"></tspan>
    </text>
  </g>
  <g>
    <path style="fill: #ffffff" d="M 324.156 114.078 L 353.756,114.078 L 353.756,157.278 C 347.836,150.078 344.876,150.078 338.956,157.278 C 333.036,164.478 330.076,164.478 324.156,157.278 L 324.156,114.078z"/>
    <path style="fill: none; fill-opacity:0; stroke-width: 0.02; stroke: #000000" d="M 324.156 114.078 L 353.756,114.078 L 353.756,157.278 C 347.836,150.078 344.876,150.078 338.956,157.278 C 333.036,164.478 330.076,164.478 324.156,157.278 L 324.156,114.078"/>
    <text font-size="12.8" style="fill: #000000;text-anchor:middle;font-family:monospace;font-style:normal;font-weight:normal" x="338.956" y="127.278">
      <tspan x="338.956" y="127.278">IP</tspan>
      <tspan x="338.956" y="143.278">首部</tspan>
    </text>
  </g>
  <line style="fill: none; fill-opacity:0; stroke-width: 2; stroke: #000000" x1="401.028" y1="163.773" x2="401.028" y2="112.438"/>
  <g>
    <path style="fill: #ffffff" d="M 481.444 124.27 L 541.844,124.27 L 541.844,148.27 C 529.764,144.27 523.724,144.27 511.644,148.27 C 499.564,152.27 493.524,152.27 481.444,148.27 L 481.444,124.27z"/>
    <path style="fill: none; fill-opacity:0; stroke-width: 0.02; stroke: #000000" d="M 481.444 124.27 L 541.844,124.27 L 541.844,148.27 C 529.764,144.27 523.724,144.27 511.644,148.27 C 499.564,152.27 493.524,152.27 481.444,148.27 L 481.444,124.27"/>
    <text font-size="12.8" style="fill: #000000;text-anchor:middle;font-family:monospace;font-style:normal;font-weight:normal" x="511.644" y="137.47">
      <tspan x="511.644" y="137.47">UDP数据</tspan>
    </text>
  </g>
  <line style="fill: none; fill-opacity:0; stroke-width: 1; stroke: #000000" x1="401.296" y1="97.3284" x2="401.296" y2="109.771"/>
  <line style="fill: none; fill-opacity:0; stroke-width: 1; stroke: #000000" x1="598.66" y1="97.1492" x2="598.66" y2="109.592"/>
  <g>
    <line style="fill: none; fill-opacity:0; stroke-width: 1; stroke: #000000" x1="473.626" y1="103.749" x2="411.796" y2="103.579"/>
    <polygon style="fill: #000000" points="411.81,98.5786 401.796,103.551 411.782,108.579 "/>
    <polygon style="fill: none; fill-opacity:0; stroke-width: 1; stroke: #000000" points="411.81,98.5786 401.796,103.551 411.782,108.579 "/>
  </g>
  <g>
    <line style="fill: none; fill-opacity:0; stroke-width: 1; stroke: #000000" x1="539.276" y1="103.673" x2="588.16" y2="103.424"/>
    <polygon style="fill: #000000" points="588.186,108.424 598.16,103.373 588.135,98.4239 "/>
    <polygon style="fill: none; fill-opacity:0; stroke-width: 1; stroke: #000000" points="588.186,108.424 598.16,103.373 588.135,98.4239 "/>
  </g>
  <g>
    <path style="fill: #ffffff" d="M 405.424 113.854 L 435.024,113.854 L 435.024,157.054 C 429.104,149.854 426.144,149.854 420.224,157.054 C 414.304,164.254 411.344,164.254 405.424,157.054 L 405.424,113.854z"/>
    <path style="fill: none; fill-opacity:0; stroke-width: 0.02; stroke: #000000" d="M 405.424 113.854 L 435.024,113.854 L 435.024,157.054 C 429.104,149.854 426.144,149.854 420.224,157.054 C 414.304,164.254 411.344,164.254 405.424,157.054 L 405.424,113.854"/>
    <text font-size="12.8" style="fill: #000000;text-anchor:middle;font-family:monospace;font-style:normal;font-weight:normal" x="420.224" y="127.054">
      <tspan x="420.224" y="127.054">UDP</tspan>
      <tspan x="420.224" y="143.054">首部</tspan>
    </text>
  </g>
  <line style="fill: none; fill-opacity:0; stroke-width: 2; stroke: #000000" x1="440.504" y1="163.468" x2="440.504" y2="112.133"/>
  <g>
    <rect style="fill: #ffffff" x="302.03" y="598.36" width="797" height="38.6806"/>
    <rect style="fill: none; fill-opacity:0; stroke-width: 2; stroke: #000000" x="302.03" y="598.36" width="797" height="38.6806"/>
    <text font-size="12.8" style="fill: #000000;text-anchor:middle;font-family:monospace;font-style:normal;font-weight:normal" x="700.53" y="620.35">
      <tspan x="700.53" y="620.35"></tspan>
    </text>
  </g>
  <g>
    <path style="fill: #ffffff" d="M 457.796 604.012 L 541.196,604.012 L 541.196,628.012 C 524.516,624.012 516.176,624.012 499.496,628.012 C 482.816,632.012 474.476,632.012 457.796,628.012 L 457.796,604.012z"/>
    <path style="fill: none; fill-opacity:0; stroke-width: 0.02; stroke: #000000" d="M 457.796 604.012 L 541.196,604.012 L 541.196,628.012 C 524.516,624.012 516.176,624.012 499.496,628.012 C 482.816,632.012 474.476,632.012 457.796,628.012 L 457.796,604.012"/>
    <text font-size="12.8" style="fill: #000000;text-anchor:middle;font-family:monospace;font-style:normal;font-weight:normal" x="499.496" y="617.212">
      <tspan x="499.496" y="617.212">16位源端口号</tspan>
    </text>
  </g>
  <g>
    <path style="fill: #ffffff" d="M 843.512 603.094 L 939.712,603.094 L 939.712,627.094 C 920.472,623.094 910.852,623.094 891.612,627.094 C 872.372,631.094 862.752,631.094 843.512,627.094 L 843.512,603.094z"/>
    <path style="fill: none; fill-opacity:0; stroke-width: 0.02; stroke: #000000" d="M 843.512 603.094 L 939.712,603.094 L 939.712,627.094 C 920.472,623.094 910.852,623.094 891.612,627.094 C 872.372,631.094 862.752,631.094 843.512,627.094 L 843.512,603.094"/>
    <text font-size="12.8" style="fill: #000000;text-anchor:middle;font-family:monospace;font-style:normal;font-weight:normal" x="891.612" y="616.294">
      <tspan x="891.612" y="616.294">16位目的端口号</tspan>
    </text>
  </g>
  <line style="fill: none; fill-opacity:0; stroke-width: 2; stroke: #000000" x1="700.53" y1="598.36" x2="700.668" y2="636.938"/>
  <g>
    <rect style="fill: #ffffff" x="302.168" y="636.938" width="797" height="38.6806"/>
    <rect style="fill: none; fill-opacity:0; stroke-width: 2; stroke: #000000" x="302.168" y="636.938" width="797" height="38.6806"/>
    <text font-size="12.8" style="fill: #000000;text-anchor:middle;font-family:monospace;font-style:normal;font-weight:normal" x="700.668" y="658.928">
      <tspan x="700.668" y="658.928"></tspan>
    </text>
  </g>
  <g>
    <path style="fill: #ffffff" d="M 438.682 642.592 L 560.582,642.592 L 560.582,666.592 C 536.202,662.592 524.012,662.592 499.632,666.592 C 475.252,670.592 463.062,670.592 438.682,666.592 L 438.682,642.592z"/>
    <path style="fill: none; fill-opacity:0; stroke-width: 0.02; stroke: #000000" d="M 438.682 642.592 L 560.582,642.592 L 560.582,666.592 C 536.202,662.592 524.012,662.592 499.632,666.592 C 475.252,670.592 463.062,670.592 438.682,666.592 L 438.682,642.592"/>
    <text font-size="12.8" style="fill: #000000;text-anchor:middle;font-family:monospace;font-style:normal;font-weight:normal" x="499.632" y="655.792">
      <tspan x="499.632" y="655.792">16位UDP长度(字节)</tspan>
    </text>
  </g>
  <g>
    <path style="fill: #ffffff" d="M 844.348 641.672 L 939.148,641.672 L 939.148,665.672 C 920.188,661.672 910.708,661.672 891.748,665.672 C 872.788,669.672 863.308,669.672 844.348,665.672 L 844.348,641.672z"/>
    <path style="fill: none; fill-opacity:0; stroke-width: 0.02; stroke: #000000" d="M 844.348 641.672 L 939.148,641.672 L 939.148,665.672 C 920.188,661.672 910.708,661.672 891.748,665.672 C 872.788,669.672 863.308,669.672 844.348,665.672 L 844.348,641.672"/>
    <text font-size="12.8" style="fill: #000000;text-anchor:middle;font-family:monospace;font-style:normal;font-weight:normal" x="891.748" y="654.872">
      <tspan x="891.748" y="654.872">16位UDP校验和</tspan>
    </text>
  </g>
  <line style="fill: none; fill-opacity:0; stroke-width: 2; stroke: #000000" x1="700.668" y1="636.938" x2="700.668" y2="675.618"/>
  <g>
    <rect style="fill: #ffffff" x="302.168" y="675.504" width="797" height="66.2152"/>
    <rect style="fill: none; fill-opacity:0; stroke-width: 2; stroke: #000000" x="302.168" y="675.504" width="797" height="66.2152"/>
    <text font-size="12.8" style="fill: #000000;text-anchor:middle;font-family:monospace;font-style:normal;font-weight:normal" x="700.668" y="711.612">
      <tspan x="700.668" y="711.612">数据</tspan>
    </text>
  </g>
  <g>
    <path style="fill: #ffffff" d="M 585.102 783.158 L 804.202,783.158 L 804.202,807.158 C 760.382,803.158 738.472,803.158 694.652,807.158 C 650.832,811.158 628.922,811.158 585.102,807.158 L 585.102,783.158z"/>
    <path style="fill: none; fill-opacity:0; stroke-width: 0.02; stroke: #000000" d="M 585.102 783.158 L 804.202,783.158 L 804.202,807.158 C 760.382,803.158 738.472,803.158 694.652,807.158 C 650.832,811.158 628.922,811.158 585.102,807.158 L 585.102,783.158"/>
    <text font-size="12.8" style="fill: #000000;text-anchor:middle;font-family:monospace;font-style:normal;font-weight:700" x="694.652" y="795.558">
      <tspan x="694.652" y="795.558">UDP校验和计算过程中使用的各个字段</tspan>
    </text>
  </g>
  <g>
    <rect style="fill: #ffffff" x="301.418" y="482.88" width="797" height="38.6806"/>
    <rect style="fill: none; fill-opacity:0; stroke-width: 2; stroke: #000000" x="301.418" y="482.88" width="797" height="38.6806"/>
    <text font-size="12.8" style="fill: #000000;text-anchor:middle;font-family:monospace;font-style:normal;font-weight:normal" x="699.918" y="504.87">
      <tspan x="699.918" y="504.87"></tspan>
    </text>
  </g>
  <g>
    <path style="fill: #ffffff" d="M 649.92 490.716 L 746.12,490.716 L 746.12,514.716 C 726.88,510.716 717.26,510.716 698.02,514.716 C 678.78,518.716 669.16,518.716 649.92,514.716 L 649.92,490.716z"/>
    <path style="fill: none; fill-opacity:0; stroke-width: 0.02; stroke: #000000" d="M 649.92 490.716 L 746.12,490.716 L 746.12,514.716 C 726.88,510.716 717.26,510.716 698.02,514.716 C 678.78,518.716 669.16,518.716 649.92,514.716 L 649.92,490.716"/>
    <text font-size="12.8" style="fill: #000000;text-anchor:middle;font-family:monospace;font-style:normal;font-weight:normal" x="698.02" y="503.916">
      <tspan x="698.02" y="503.916">32位源IP地址</tspan>
    </text>
  </g>
  <g>
    <rect style="fill: #ffffff" x="301.556" y="521.458" width="797" height="38.6806"/>
    <rect style="fill: none; fill-opacity:0; stroke-width: 2; stroke: #000000" x="301.556" y="521.458" width="797" height="38.6806"/>
    <text font-size="12.8" style="fill: #000000;text-anchor:middle;font-family:monospace;font-style:normal;font-weight:normal" x="700.056" y="543.448">
      <tspan x="700.056" y="543.448"></tspan>
    </text>
  </g>
  <g>
    <path style="fill: #ffffff" d="M 651.24 529.296 L 750.04,529.296 L 750.04,553.296 C 730.28,549.296 720.4,549.296 700.64,553.296 C 680.88,557.296 671,557.296 651.24,553.296 L 651.24,529.296z"/>
    <path style="fill: none; fill-opacity:0; stroke-width: 0.02; stroke: #000000" d="M 651.24 529.296 L 750.04,529.296 L 750.04,553.296 C 730.28,549.296 720.4,549.296 700.64,553.296 C 680.88,557.296 671,557.296 651.24,553.296 L 651.24,529.296"/>
    <text font-size="12.8" style="fill: #000000;text-anchor:middle;font-family:monospace;font-style:normal;font-weight:normal" x="700.64" y="542.496">
      <tspan x="700.64" y="542.496">32位目的IP地址</tspan>
    </text>
  </g>
  <g>
    <rect style="fill: #ffffff" x="301.556" y="560.316" width="797" height="38"/>
    <rect style="fill: none; fill-opacity:0; stroke-width: 2; stroke: #000000" x="301.556" y="560.316" width="797" height="38"/>
    <text font-size="12.8" style="fill: #000000;text-anchor:middle;font-family:monospace;font-style:normal;font-weight:normal" x="700.056" y="581.966">
      <tspan x="700.056" y="581.966"></tspan>
    </text>
  </g>
  <g>
    <path style="fill: #ffffff" d="M 294.972 226.778 L 305.972,226.778 L 305.972,250.778 C 303.772,246.778 302.672,246.778 300.472,250.778 C 298.272,254.778 297.172,254.778 294.972,250.778 L 294.972,226.778z"/>
    <path style="fill: none; fill-opacity:0; stroke-width: 0.02; stroke: #000000" d="M 294.972 226.778 L 305.972,226.778 L 305.972,250.778 C 303.772,246.778 302.672,246.778 300.472,250.778 C 298.272,254.778 297.172,254.778 294.972,250.778 L 294.972,226.778"/>
    <text font-size="12.8" style="fill: #000000;text-anchor:middle;font-family:sans-serif;font-style:normal;font-weight:normal" x="300.472" y="241.578">
      <tspan x="300.472" y="241.578">0</tspan>
    </text>
  </g>
  <g>
    <path style="fill: #ffffff" d="M 680.532 225.538 L 698.532,225.538 L 698.532,249.538 C 694.932,245.538 693.132,245.538 689.532,249.538 C 685.932,253.538 684.132,253.538 680.532,249.538 L 680.532,225.538z"/>
    <path style="fill: none; fill-opacity:0; stroke-width: 0.02; stroke: #000000" d="M 680.532 225.538 L 698.532,225.538 L 698.532,249.538 C 694.932,245.538 693.132,245.538 689.532,249.538 C 685.932,253.538 684.132,253.538 680.532,249.538 L 680.532,225.538"/>
    <text font-size="12.8" style="fill: #000000;text-anchor:middle;font-family:sans-serif;font-style:normal;font-weight:normal" x="689.532" y="240.338">
      <tspan x="689.532" y="240.338">15</tspan>
    </text>
  </g>
  <g>
    <path style="fill: #ffffff" d="M 699.544 224.918 L 717.544,224.918 L 717.544,248.918 C 713.944,244.918 712.144,244.918 708.544,248.918 C 704.944,252.918 703.144,252.918 699.544,248.918 L 699.544,224.918z"/>
    <path style="fill: none; fill-opacity:0; stroke-width: 0.02; stroke: #000000" d="M 699.544 224.918 L 717.544,224.918 L 717.544,248.918 C 713.944,244.918 712.144,244.918 708.544,248.918 C 704.944,252.918 703.144,252.918 699.544,248.918 L 699.544,224.918"/>
    <text font-size="12.8" style="fill: #000000;text-anchor:middle;font-family:sans-serif;font-style:normal;font-weight:normal" x="708.544" y="239.718">
      <tspan x="708.544" y="239.718">16</tspan>
    </text>
  </g>
  <g>
    <path style="fill: #ffffff" d="M 1082.4 226.158 L 1100.4,226.158 L 1100.4,250.158 C 1096.8,246.158 1095,246.158 1091.4,250.158 C 1087.8,254.158 1086,254.158 1082.4,250.158 L 1082.4,226.158z"/>
    <path style="fill: none; fill-opacity:0; stroke-width: 0.02; stroke: #000000" d="M 1082.4 226.158 L 1100.4,226.158 L 1100.4,250.158 C 1096.8,246.158 1095,246.158 1091.4,250.158 C 1087.8,254.158 1086,254.158 1082.4,250.158 L 1082.4,226.158"/>
    <text font-size="12.8" style="fill: #000000;text-anchor:middle;font-family:sans-serif;font-style:normal;font-weight:normal" x="1091.4" y="240.958">
      <tspan x="1091.4" y="240.958">31</tspan>
    </text>
  </g>
  <g>
    <path style="fill: #ffffff" d="M 296.214 453.944 L 307.214,453.944 L 307.214,477.944 C 305.014,473.944 303.914,473.944 301.714,477.944 C 299.514,481.944 298.414,481.944 296.214,477.944 L 296.214,453.944z"/>
    <path style="fill: none; fill-opacity:0; stroke-width: 0.02; stroke: #000000" d="M 296.214 453.944 L 307.214,453.944 L 307.214,477.944 C 305.014,473.944 303.914,473.944 301.714,477.944 C 299.514,481.944 298.414,481.944 296.214,477.944 L 296.214,453.944"/>
    <text font-size="12.8" style="fill: #000000;text-anchor:middle;font-family:sans-serif;font-style:normal;font-weight:normal" x="301.714" y="468.744">
      <tspan x="301.714" y="468.744">0</tspan>
    </text>
  </g>
  <g>
    <path style="fill: #ffffff" d="M 681.772 452.704 L 699.772,452.704 L 699.772,476.704 C 696.172,472.704 694.372,472.704 690.772,476.704 C 687.172,480.704 685.372,480.704 681.772,476.704 L 681.772,452.704z"/>
    <path style="fill: none; fill-opacity:0; stroke-width: 0.02; stroke: #000000" d="M 681.772 452.704 L 699.772,452.704 L 699.772,476.704 C 696.172,472.704 694.372,472.704 690.772,476.704 C 687.172,480.704 685.372,480.704 681.772,476.704 L 681.772,452.704"/>
    <text font-size="12.8" style="fill: #000000;text-anchor:middle;font-family:sans-serif;font-style:normal;font-weight:normal" x="690.772" y="467.504">
      <tspan x="690.772" y="467.504">15</tspan>
    </text>
  </g>
  <g>
    <path style="fill: #ffffff" d="M 700.786 452.082 L 718.786,452.082 L 718.786,476.082 C 715.186,472.082 713.386,472.082 709.786,476.082 C 706.186,480.082 704.386,480.082 700.786,476.082 L 700.786,452.082z"/>
    <path style="fill: none; fill-opacity:0; stroke-width: 0.02; stroke: #000000" d="M 700.786 452.082 L 718.786,452.082 L 718.786,476.082 C 715.186,472.082 713.386,472.082 709.786,476.082 C 706.186,480.082 704.386,480.082 700.786,476.082 L 700.786,452.082"/>
    <text font-size="12.8" style="fill: #000000;text-anchor:middle;font-family:sans-serif;font-style:normal;font-weight:normal" x="709.786" y="466.882">
      <tspan x="709.786" y="466.882">16</tspan>
    </text>
  </g>
  <g>
    <path style="fill: #ffffff" d="M 1083.64 453.324 L 1101.64,453.324 L 1101.64,477.324 C 1098.04,473.324 1096.24,473.324 1092.64,477.324 C 1089.04,481.324 1087.24,481.324 1083.64,477.324 L 1083.64,453.324z"/>
    <path style="fill: none; fill-opacity:0; stroke-width: 0.02; stroke: #000000" d="M 1083.64 453.324 L 1101.64,453.324 L 1101.64,477.324 C 1098.04,473.324 1096.24,473.324 1092.64,477.324 C 1089.04,481.324 1087.24,481.324 1083.64,477.324 L 1083.64,453.324"/>
    <text font-size="12.8" style="fill: #000000;text-anchor:middle;font-family:sans-serif;font-style:normal;font-weight:normal" x="1092.64" y="468.124">
      <tspan x="1092.64" y="468.124">31</tspan>
    </text>
  </g>
  <line style="fill: none; fill-opacity:0; stroke-width: 2; stroke: #000000" x1="700.056" y1="560.14" x2="700.056" y2="598.316"/>
  <line style="fill: none; fill-opacity:0; stroke-width: 2; stroke: #000000" x1="500.12" y1="560.432" x2="500.12" y2="598.608"/>
  <g>
    <path style="fill: #ffffff" d="M 357.644 565.636 L 441.044,565.636 L 441.044,589.636 C 424.364,585.636 416.024,585.636 399.344,589.636 C 382.664,593.636 374.324,593.636 357.644,589.636 L 357.644,565.636z"/>
    <path style="fill: none; fill-opacity:0; stroke-width: 0.02; stroke: #000000" d="M 357.644 565.636 L 441.044,565.636 L 441.044,589.636 C 424.364,585.636 416.024,585.636 399.344,589.636 C 382.664,593.636 374.324,593.636 357.644,589.636 L 357.644,565.636"/>
    <text font-size="12.8" style="fill: #000000;text-anchor:middle;font-family:monospace;font-style:normal;font-weight:normal" x="399.344" y="578.836">
      <tspan x="399.344" y="578.836">0</tspan>
    </text>
  </g>
  <g>
    <path style="fill: #ffffff" d="M 545.658 566.256 L 629.058,566.256 L 629.058,590.256 C 612.378,586.256 604.038,586.256 587.358,590.256 C 570.678,594.256 562.338,594.256 545.658,590.256 L 545.658,566.256z"/>
    <path style="fill: none; fill-opacity:0; stroke-width: 0.02; stroke: #000000" d="M 545.658 566.256 L 629.058,566.256 L 629.058,590.256 C 612.378,586.256 604.038,586.256 587.358,590.256 C 570.678,594.256 562.338,594.256 545.658,590.256 L 545.658,566.256"/>
    <text font-size="12.8" style="fill: #000000;text-anchor:middle;font-family:monospace;font-style:normal;font-weight:normal" x="587.358" y="579.456">
      <tspan x="587.358" y="579.456">8位协议(17)</tspan>
    </text>
  </g>
  <g>
    <path style="fill: #ffffff" d="M 831.332 565.016 L 953.232,565.016 L 953.232,589.016 C 928.852,585.016 916.662,585.016 892.282,589.016 C 867.902,593.016 855.712,593.016 831.332,589.016 L 831.332,565.016z"/>
    <path style="fill: none; fill-opacity:0; stroke-width: 0.02; stroke: #000000" d="M 831.332 565.016 L 953.232,565.016 L 953.232,589.016 C 928.852,585.016 916.662,585.016 892.282,589.016 C 867.902,593.016 855.712,593.016 831.332,589.016 L 831.332,565.016"/>
    <text font-size="12.8" style="fill: #000000;text-anchor:middle;font-family:monospace;font-style:normal;font-weight:normal" x="892.282" y="578.216">
      <tspan x="892.282" y="578.216">16位UDP长度(字节)</tspan>
    </text>
  </g>
  <line style="fill: none; fill-opacity:0; stroke-width: 1; stroke: #000000" x1="1112.67" y1="333.792" x2="1127.29" y2="333.792"/>
  <line style="fill: none; fill-opacity:0; stroke-width: 1; stroke: #000000" x1="1112.62" y1="256.45" x2="1127.24" y2="256.45"/>
  <g>
    <path style="fill: #ffffff" d="M 1101.48 280.614 L 1138.08,280.614 L 1138.08,304.614 C 1130.76,300.614 1127.1,300.614 1119.78,304.614 C 1112.46,308.614 1108.8,308.614 1101.48,304.614 L 1101.48,280.614z"/>
    <path style="fill: none; fill-opacity:0; stroke-width: 0.02; stroke: #000000" d="M 1101.48 280.614 L 1138.08,280.614 L 1138.08,304.614 C 1130.76,300.614 1127.1,300.614 1119.78,304.614 C 1112.46,308.614 1108.8,308.614 1101.48,304.614 L 1101.48,280.614"/>
    <text font-size="12.8" style="fill: #000000;text-anchor:middle;font-family:sans-serif;font-style:normal;font-weight:normal" x="1119.78" y="295.414">
      <tspan x="1119.78" y="295.414">8字节</tspan>
    </text>
  </g>
  <g>
    <line style="fill: none; fill-opacity:0; stroke-width: 1; stroke: #000000" x1="1119.78" y1="280.614" x2="1119.87" y2="266.95"/>
    <polygon style="fill: #000000" points="1124.87,266.98 1119.93,256.95 1114.87,266.92 "/>
    <polygon style="fill: none; fill-opacity:0; stroke-width: 1; stroke: #000000" points="1124.87,266.98 1119.93,256.95 1114.87,266.92 "/>
  </g>
  <g>
    <line style="fill: none; fill-opacity:0; stroke-width: 1; stroke: #000000" x1="1119.83" y1="304.581" x2="1119.93" y2="323.292"/>
    <polygon style="fill: #000000" points="1114.93,323.317 1119.98,333.292 1124.93,323.267 "/>
    <polygon style="fill: none; fill-opacity:0; stroke-width: 1; stroke: #000000" points="1114.93,323.317 1119.98,333.292 1124.93,323.267 "/>
  </g>
  <line style="fill: none; fill-opacity:0; stroke-width: 1; stroke: #000000" x1="1128.02" y1="595.99" x2="1142.64" y2="595.99"/>
  <line style="fill: none; fill-opacity:0; stroke-width: 1; stroke: #000000" x1="1126.31" y1="480.396" x2="1140.94" y2="480.396"/>
  <g>
    <path style="fill: #ffffff" d="M 1100.72 521.416 L 1167.27,521.416 L 1167.27,565.21 C 1153.96,557.911 1147.31,557.911 1134,565.21 C 1120.69,572.509 1114.03,572.509 1100.72,565.21 L 1100.72,521.416z"/>
    <path style="fill: none; fill-opacity:0; stroke-width: 0.02; stroke: #000000" d="M 1100.72 521.416 L 1167.27,521.416 L 1167.27,565.21 C 1153.96,557.911 1147.31,557.911 1134,565.21 C 1120.69,572.509 1114.03,572.509 1100.72,565.21 L 1100.72,521.416"/>
    <text font-size="12.8" style="fill: #000000;text-anchor:middle;font-family:sans-serif;font-style:normal;font-weight:normal" x="1134" y="544.464">
      <tspan x="1134" y="544.464">UDP伪首部</tspan>
    </text>
  </g>
  <g>
    <line style="fill: none; fill-opacity:0; stroke-width: 1; stroke: #000000" x1="1134" y1="521.416" x2="1133.72" y2="490.896"/>
    <polygon style="fill: #000000" points="1138.72,490.85 1133.63,480.896 1128.72,490.941 "/>
    <polygon style="fill: none; fill-opacity:0; stroke-width: 1; stroke: #000000" points="1138.72,490.85 1133.63,480.896 1128.72,490.941 "/>
  </g>
  <g>
    <line style="fill: none; fill-opacity:0; stroke-width: 1; stroke: #000000" x1="1134.48" y1="564.773" x2="1135.04" y2="585.494"/>
    <polygon style="fill: #000000" points="1130.05,585.63 1135.32,595.49 1140.04,585.358 "/>
    <polygon style="fill: none; fill-opacity:0; stroke-width: 1; stroke: #000000" points="1130.05,585.63 1135.32,595.49 1140.04,585.358 "/>
  </g>
  <line style="fill: none; fill-opacity:0; stroke-width: 1; stroke: #000000" x1="1128.85" y1="671.144" x2="1143.48" y2="671.144"/>
  <g>
    <path style="fill: #ffffff" d="M 1108.95 614.704 L 1162.7,614.704 L 1162.7,638.704 C 1151.95,634.704 1146.57,634.704 1135.82,638.704 C 1125.07,642.704 1119.7,642.704 1108.95,638.704 L 1108.95,614.704z"/>
    <path style="fill: none; fill-opacity:0; stroke-width: 0.02; stroke: #000000" d="M 1108.95 614.704 L 1162.7,614.704 L 1162.7,638.704 C 1151.95,634.704 1146.57,634.704 1135.82,638.704 C 1125.07,642.704 1119.7,642.704 1108.95,638.704 L 1108.95,614.704"/>
    <text font-size="12.8" style="fill: #000000;text-anchor:middle;font-family:sans-serif;font-style:normal;font-weight:normal" x="1135.82" y="629.504">
      <tspan x="1135.82" y="629.504">UDP首部</tspan>
    </text>
  </g>
  <g>
    <line style="fill: none; fill-opacity:0; stroke-width: 1; stroke: #000000" x1="1135.82" y1="614.704" x2="1135.61" y2="606.486"/>
    <polygon style="fill: #000000" points="1140.6,606.355 1135.34,596.49 1130.61,606.618 "/>
    <polygon style="fill: none; fill-opacity:0; stroke-width: 1; stroke: #000000" points="1140.6,606.355 1135.34,596.49 1130.61,606.618 "/>
  </g>
  <g>
    <line style="fill: none; fill-opacity:0; stroke-width: 1; stroke: #000000" x1="1135.9" y1="638.672" x2="1136.08" y2="660.644"/>
    <polygon style="fill: #000000" points="1131.08,660.685 1136.16,670.644 1141.08,660.604 "/>
    <polygon style="fill: none; fill-opacity:0; stroke-width: 1; stroke: #000000" points="1131.08,660.685 1136.16,670.644 1141.08,660.604 "/>
  </g>
  <g>
    <rect style="fill: #ffffff" x="301.892" y="740.802" width="399.768" height="38"/>
    <rect style="fill: none; fill-opacity:0; stroke-width: 2; stroke: #000000" x="301.892" y="740.802" width="399.768" height="38"/>
    <text font-size="12.8" style="fill: #000000;text-anchor:middle;font-family:monospace;font-style:normal;font-weight:normal" x="501.776" y="762.452">
      <tspan x="501.776" y="762.452"></tspan>
    </text>
  </g>
  <line style="fill: none; fill-opacity:0; stroke-width: 2; stroke: #000000" x1="500.72" y1="740.236" x2="500.72" y2="778.918"/>
  <g>
    <path style="fill: #ffffff" d="M 547.118 746.96 L 641.918,746.96 L 641.918,770.96 C 622.958,766.96 613.478,766.96 594.518,770.96 C 575.558,774.96 566.078,774.96 547.118,770.96 L 547.118,746.96z"/>
    <path style="fill: none; fill-opacity:0; stroke-width: 0.02; stroke: #000000" d="M 547.118 746.96 L 641.918,746.96 L 641.918,770.96 C 622.958,766.96 613.478,766.96 594.518,770.96 C 575.558,774.96 566.078,774.96 547.118,770.96 L 547.118,746.96"/>
    <text font-size="12.8" style="fill: #000000;text-anchor:middle;font-family:monospace;font-style:normal;font-weight:normal" x="594.518" y="760.16">
      <tspan x="594.518" y="760.16">填充字节(0)</tspan>
    </text>
  </g>
  <g>
    <path style="fill: #ffffff" d="M 345.624 165.484 L 363.624,165.484 L 363.624,189.484 C 360.024,185.484 358.224,185.484 354.624,189.484 C 351.024,193.484 349.224,193.484 345.624,189.484 L 345.624,165.484z"/>
    <path style="fill: none; fill-opacity:0; stroke-width: 0.02; stroke: #000000" d="M 345.624 165.484 L 363.624,165.484 L 363.624,189.484 C 360.024,185.484 358.224,185.484 354.624,189.484 C 351.024,193.484 349.224,193.484 345.624,189.484 L 345.624,165.484"/>
    <text font-size="12.8" style="fill: #000000;text-anchor:middle;font-family:sans-serif;font-style:normal;font-weight:normal" x="354.624" y="180.284">
      <tspan x="354.624" y="180.284">20</tspan>
    </text>
  </g>
  <g>
    <path style="fill: #ffffff" d="M 412.732 166.345 L 423.732,166.345 L 423.732,190.345 C 421.532,186.345 420.432,186.345 418.232,190.345 C 416.032,194.345 414.932,194.345 412.732,190.345 L 412.732,166.345z"/>
    <path style="fill: none; fill-opacity:0; stroke-width: 0.02; stroke: #000000" d="M 412.732 166.345 L 423.732,166.345 L 423.732,190.345 C 421.532,186.345 420.432,186.345 418.232,190.345 C 416.032,194.345 414.932,194.345 412.732,190.345 L 412.732,166.345"/>
    <text font-size="12.8" style="fill: #000000;text-anchor:middle;font-family:sans-serif;font-style:normal;font-weight:normal" x="418.232" y="181.145">
      <tspan x="418.232" y="181.145">8</tspan>
    </text>
  </g>
  <g>
    <path style="fill: #ffffff" d="M 348.194 186.825 L 531.494,186.825 L 531.494,210.825 C 494.834,206.825 476.504,206.825 439.844,210.825 C 403.184,214.825 384.854,214.825 348.194,210.825 L 348.194,186.825z"/>
    <path style="fill: none; fill-opacity:0; stroke-width: 0.02; stroke: #000000" d="M 348.194 186.825 L 531.494,186.825 L 531.494,210.825 C 494.834,206.825 476.504,206.825 439.844,210.825 C 403.184,214.825 384.854,214.825 348.194,210.825 L 348.194,186.825"/>
    <text font-size="12.8" style="fill: #000000;text-anchor:middle;font-family:monospace;font-style:normal;font-weight:700" x="439.844" y="199.225">
      <tspan x="439.844" y="199.225">UDP数据报封装在IP数据报文内</tspan>
    </text>
  </g>
  <g>
    <path style="fill: #ffffff" d="M 481.532 451.774 L 499.532,451.774 L 499.532,475.774 C 495.932,471.774 494.132,471.774 490.532,475.774 C 486.932,479.774 485.132,479.774 481.532,475.774 L 481.532,451.774z"/>
    <path style="fill: none; fill-opacity:0; stroke-width: 0.02; stroke: #000000" d="M 481.532 451.774 L 499.532,451.774 L 499.532,475.774 C 495.932,471.774 494.132,471.774 490.532,475.774 C 486.932,479.774 485.132,479.774 481.532,475.774 L 481.532,451.774"/>
    <text font-size="12.8" style="fill: #000000;text-anchor:middle;font-family:sans-serif;font-style:normal;font-weight:normal" x="490.532" y="466.574">
      <tspan x="490.532" y="466.574">7</tspan>
    </text>
  </g>
  <g>
    <path style="fill: #ffffff" d="M 500.546 451.152 L 518.546,451.152 L 518.546,475.152 C 514.946,471.152 513.146,471.152 509.546,475.152 C 505.946,479.152 504.146,479.152 500.546,475.152 L 500.546,451.152z"/>
    <path style="fill: none; fill-opacity:0; stroke-width: 0.02; stroke: #000000" d="M 500.546 451.152 L 518.546,451.152 L 518.546,475.152 C 514.946,471.152 513.146,471.152 509.546,475.152 C 505.946,479.152 504.146,479.152 500.546,475.152 L 500.546,451.152"/>
    <text font-size="12.8" style="fill: #000000;text-anchor:middle;font-family:sans-serif;font-style:normal;font-weight:normal" x="509.546" y="465.952">
      <tspan x="509.546" y="465.952">8</tspan>
    </text>
  </g>
</svg>
