<?xml version="1.0" encoding="UTF-8" standalone="no"?>
<!DOCTYPE svg PUBLIC "-//W3C//DTD SVG 1.0//EN" "http://www.w3.org/TR/2001/PR-SVG-20010719/DTD/svg10.dtd">
<svg width="44cm" height="38cm" viewBox="294 69 873 742" xmlns="http://www.w3.org/2000/svg" xmlns:xlink="http://www.w3.org/1999/xlink">
  <g>
    <rect style="fill: #ffffff" x="300.665" y="256.484" width="797" height="38.6806"/>
    <rect style="fill: none; fill-opacity:0; stroke-width: 2; stroke: #000000" x="300.665" y="256.484" width="797" height="38.6806"/>
    <text font-size="12.8" style="fill: #000000;text-anchor:middle;font-family:monospace;font-style:normal;font-weight:normal" x="699.165" y="278.475">
      <tspan x="699.165" y="278.475"></tspan>
    </text>
  </g>
  <g>
    <path style="fill: #ffffff" d="M 455.808 262.137 L 539.208,262.137 L 539.208,286.137 C 522.528,282.137 514.188,282.137 497.508,286.137 C 480.828,290.137 472.488,290.137 455.808,286.137 L 455.808,262.137z"/>
    <path style="fill: none; fill-opacity:0; stroke-width: 0.02; stroke: #000000" d="M 455.808 262.137 L 539.208,262.137 L 539.208,286.137 C 522.528,282.137 514.188,282.137 497.508,286.137 C 480.828,290.137 472.488,290.137 455.808,286.137 L 455.808,262.137"/>
    <text font-size="12.8" style="fill: #000000;text-anchor:middle;font-family:monospace;font-style:normal;font-weight:normal" x="497.508" y="275.337">
      <tspan x="497.508" y="275.337">16位源端口号</tspan>
    </text>
  </g>
  <g>
    <path style="fill: #ffffff" d="M 841.524 261.219 L 937.724,261.219 L 937.724,285.219 C 918.484,281.219 908.864,281.219 889.624,285.219 C 870.384,289.219 860.764,289.219 841.524,285.219 L 841.524,261.219z"/>
    <path style="fill: none; fill-opacity:0; stroke-width: 0.02; stroke: #000000" d="M 841.524 261.219 L 937.724,261.219 L 937.724,285.219 C 918.484,281.219 908.864,281.219 889.624,285.219 C 870.384,289.219 860.764,289.219 841.524,285.219 L 841.524,261.219"/>
    <text font-size="12.8" style="fill: #000000;text-anchor:middle;font-family:monospace;font-style:normal;font-weight:normal" x="889.624" y="274.419">
      <tspan x="889.624" y="274.419">16位目的端口号</tspan>
    </text>
  </g>
  <line style="fill: none; fill-opacity:0; stroke-width: 2; stroke: #000000" x1="699.165" y1="256.484" x2="698.682" y2="295.063"/>
  <g>
    <rect style="fill: #ffffff" x="300.182" y="295.063" width="797" height="38.6806"/>
    <rect style="fill: none; fill-opacity:0; stroke-width: 2; stroke: #000000" x="300.182" y="295.063" width="797" height="38.6806"/>
    <text font-size="12.8" style="fill: #000000;text-anchor:middle;font-family:monospace;font-style:normal;font-weight:normal" x="698.682" y="317.053">
      <tspan x="698.682" y="317.053"></tspan>
    </text>
  </g>
  <g>
    <path style="fill: #ffffff" d="M 436.696 300.716 L 558.596,300.716 L 558.596,324.716 C 534.216,320.716 522.026,320.716 497.646,324.716 C 473.266,328.716 461.076,328.716 436.696,324.716 L 436.696,300.716z"/>
    <path style="fill: none; fill-opacity:0; stroke-width: 0.02; stroke: #000000" d="M 436.696 300.716 L 558.596,300.716 L 558.596,324.716 C 534.216,320.716 522.026,320.716 497.646,324.716 C 473.266,328.716 461.076,328.716 436.696,324.716 L 436.696,300.716"/>
    <text font-size="12.8" style="fill: #000000;text-anchor:middle;font-family:monospace;font-style:normal;font-weight:normal" x="497.646" y="313.916">
      <tspan x="497.646" y="313.916">16位UDP长度(字节)</tspan>
    </text>
  </g>
  <g>
    <path style="fill: #ffffff" d="M 842.362 299.798 L 937.162,299.798 L 937.162,323.798 C 918.202,319.798 908.722,319.798 889.762,323.798 C 870.802,327.798 861.322,327.798 842.362,323.798 L 842.362,299.798z"/>
    <path style="fill: none; fill-opacity:0; stroke-width: 0.02; stroke: #000000" d="M 842.362 299.798 L 937.162,299.798 L 937.162,323.798 C 918.202,319.798 908.722,319.798 889.762,323.798 C 870.802,327.798 861.322,327.798 842.362,323.798 L 842.362,299.798"/>
    <text font-size="12.8" style="fill: #000000;text-anchor:middle;font-family:monospace;font-style:normal;font-weight:normal" x="889.762" y="312.998">
      <tspan x="889.762" y="312.998">16位UDP校验和</tspan>
    </text>
  </g>
  <line style="fill: none; fill-opacity:0; stroke-width: 2; stroke: #000000" x1="698.682" y1="295.063" x2="698.682" y2="333.744"/>
  <g>
    <rect style="fill: #ffffff" x="300.182" y="333.629" width="797" height="66.2152"/>
    <rect style="fill: none; fill-opacity:0; stroke-width: 2; stroke: #000000" x="300.182" y="333.629" width="797" height="66.2152"/>
    <text font-size="12.8" style="fill: #000000;text-anchor:middle;font-family:monospace;font-style:normal;font-weight:normal" x="698.682" y="369.737">
      <tspan x="698.682" y="369.737">数据(如果有)</tspan>
    </text>
  </g>
  <g>
    <path style="fill: #ffffff" d="M 667.179 403.336 L 727.579,403.336 L 727.579,427.336 C 715.499,423.336 709.459,423.336 697.379,427.336 C 685.299,431.336 679.259,431.336 667.179,427.336 L 667.179,403.336z"/>
    <path style="fill: none; fill-opacity:0; stroke-width: 0.02; stroke: #000000" d="M 667.179 403.336 L 727.579,403.336 L 727.579,427.336 C 715.499,423.336 709.459,423.336 697.379,427.336 C 685.299,431.336 679.259,431.336 667.179,427.336 L 667.179,403.336"/>
    <text font-size="12.8" style="fill: #000000;text-anchor:middle;font-family:monospace;font-style:normal;font-weight:700" x="697.379" y="415.736">
      <tspan x="697.379" y="415.736">UDP 首部</tspan>
    </text>
  </g>
  <line style="fill: none; fill-opacity:0; stroke-width: 1; stroke: #000000" x1="300.783" y1="76.7884" x2="300.783" y2="89.2308"/>
  <line style="fill: none; fill-opacity:0; stroke-width: 1; stroke: #000000" x1="598.964" y1="77.4967" x2="598.964" y2="89.9391"/>
  <g>
    <path style="fill: #ffffff" d="M 458.917 69.4121 L 524.566,69.4121 L 524.566,93.4121 C 511.436,89.4121 504.871,89.4121 491.741,93.4121 C 478.612,97.4121 472.047,97.4121 458.917,93.4121 L 458.917,69.4121z"/>
    <path style="fill: none; fill-opacity:0; stroke-width: 0.02; stroke: #000000" d="M 458.917 69.4121 L 524.566,69.4121 L 524.566,93.4121 C 511.436,89.4121 504.871,89.4121 491.741,93.4121 C 478.612,97.4121 472.047,97.4121 458.917,93.4121 L 458.917,69.4121"/>
    <text font-size="12.8" style="fill: #000000;text-anchor:middle;font-family:monospace;font-style:normal;font-weight:normal" x="491.741" y="82.6121">
      <tspan x="491.741" y="82.6121">IP数据报</tspan>
    </text>
  </g>
  <g>
    <line style="fill: none; fill-opacity:0; stroke-width: 1; stroke: #000000" x1="458.909" y1="83.3429" x2="311.283" y2="83.0317"/>
    <polygon style="fill: #000000" points="311.293,78.0317 301.283,83.0106 311.272,88.0317 "/>
    <polygon style="fill: none; fill-opacity:0; stroke-width: 1; stroke: #000000" points="311.293,78.0317 301.283,83.0106 311.272,88.0317 "/>
  </g>
  <g>
    <line style="fill: none; fill-opacity:0; stroke-width: 1; stroke: #000000" x1="524.542" y1="83.5056" x2="588.464" y2="83.6879"/>
    <polygon style="fill: #000000" points="588.449,88.6879 598.464,83.7164 588.478,78.6879 "/>
    <polygon style="fill: none; fill-opacity:0; stroke-width: 1; stroke: #000000" points="588.449,88.6879 598.464,83.7164 588.478,78.6879 "/>
  </g>
  <g>
    <path style="fill: #ffffff" d="M 473.621 89.8398 L 539.27,89.8398 L 539.27,113.84 C 526.141,109.84 519.576,109.84 506.446,113.84 C 493.316,117.84 486.751,117.84 473.621,113.84 L 473.621,89.8398z"/>
    <path style="fill: none; fill-opacity:0; stroke-width: 0.02; stroke: #000000" d="M 473.621 89.8398 L 539.27,89.8398 L 539.27,113.84 C 526.141,109.84 519.576,109.84 506.446,113.84 C 493.316,117.84 486.751,117.84 473.621,113.84 L 473.621,89.8398"/>
    <text font-size="12.8" style="fill: #000000;text-anchor:middle;font-family:monospace;font-style:normal;font-weight:normal" x="506.446" y="103.04">
      <tspan x="506.446" y="103.04">UDP数据报</tspan>
    </text>
  </g>
  <g>
    <rect style="fill: #ffffff" x="301.01" y="112.839" width="298.629" height="50.4987"/>
    <rect style="fill: none; fill-opacity:0; stroke-width: 2; stroke: #000000" x="301.01" y="112.839" width="298.629" height="50.4987"/>
    <text font-size="12.8" style="fill: #000000;text-anchor:middle;font-family:monospace;font-style:normal;font-weight:normal" x="450.324" y="140.739">
      <tspan x="450.324" y="140.739"></tspan>
    </text>
  </g>
  <g>
    <path style="fill: #ffffff" d="M 324.156 114.078 L 353.756,114.078 L 353.756,157.278 C 347.836,150.078 344.876,150.078 338.956,157.278 C 333.036,164.478 330.076,164.478 324.156,157.278 L 324.156,114.078z"/>
    <path style="fill: none; fill-opacity:0; stroke-width: 0.02; stroke: #000000" d="M 324.156 114.078 L 353.756,114.078 L 353.756,157.278 C 347.836,150.078 344.876,150.078 338.956,157.278 C 333.036,164.478 330.076,164.478 324.156,157.278 L 324.156,114.078"/>
    <text font-size="12.8" style="fill: #000000;text-anchor:middle;font-family:monospace;font-style:normal;font-weight:normal" x="338.956" y="127.278">
      <tspan x="338.956" y="127.278">IP</tspan>
      <tspan x="338.956" y="143.278">首部</tspan>
    </text>
  </g>
  <line style="fill: none; fill-opacity:0; stroke-width: 2; stroke: #000000" x1="401.027" y1="163.773" x2="401.027" y2="112.438"/>
  <g>
    <path style="fill: #ffffff" d="M 481.444 124.27 L 541.844,124.27 L 541.844,148.27 C 529.764,144.27 523.724,144.27 511.644,148.27 C 499.564,152.27 493.524,152.27 481.444,148.27 L 481.444,124.27z"/>
    <path style="fill: none; fill-opacity:0; stroke-width: 0.02; stroke: #000000" d="M 481.444 124.27 L 541.844,124.27 L 541.844,148.27 C 529.764,144.27 523.724,144.27 511.644,148.27 C 499.564,152.27 493.524,152.27 481.444,148.27 L 481.444,124.27"/>
    <text font-size="12.8" style="fill: #000000;text-anchor:middle;font-family:monospace;font-style:normal;font-weight:normal" x="511.644" y="137.47">
      <tspan x="511.644" y="137.47">UDP数据</tspan>
    </text>
  </g>
  <line style="fill: none; fill-opacity:0; stroke-width: 1; stroke: #000000" x1="401.296" y1="97.3284" x2="401.296" y2="109.771"/>
  <line style="fill: none; fill-opacity:0; stroke-width: 1; stroke: #000000" x1="598.659" y1="97.1492" x2="598.659" y2="109.592"/>
  <g>
    <line style="fill: none; fill-opacity:0; stroke-width: 1; stroke: #000000" x1="473.625" y1="103.749" x2="411.796" y2="103.579"/>
    <polygon style="fill: #000000" points="411.81,98.5786 401.796,103.551 411.782,108.579 "/>
    <polygon style="fill: none; fill-opacity:0; stroke-width: 1; stroke: #000000" points="411.81,98.5786 401.796,103.551 411.782,108.579 "/>
  </g>
  <g>
    <line style="fill: none; fill-opacity:0; stroke-width: 1; stroke: #000000" x1="539.275" y1="103.673" x2="588.159" y2="103.424"/>
    <polygon style="fill: #000000" points="588.185,108.424 598.159,103.373 588.134,98.4239 "/>
    <polygon style="fill: none; fill-opacity:0; stroke-width: 1; stroke: #000000" points="588.185,108.424 598.159,103.373 588.134,98.4239 "/>
  </g>
  <g>
    <path style="fill: #ffffff" d="M 405.423 113.854 L 435.023,113.854 L 435.023,157.054 C 429.103,149.854 426.143,149.854 420.223,157.054 C 414.303,164.254 411.343,164.254 405.423,157.054 L 405.423,113.854z"/>
    <path style="fill: none; fill-opacity:0; stroke-width: 0.02; stroke: #000000" d="M 405.423 113.854 L 435.023,113.854 L 435.023,157.054 C 429.103,149.854 426.143,149.854 420.223,157.054 C 414.303,164.254 411.343,164.254 405.423,157.054 L 405.423,113.854"/>
    <text font-size="12.8" style="fill: #000000;text-anchor:middle;font-family:monospace;font-style:normal;font-weight:normal" x="420.223" y="127.054">
      <tspan x="420.223" y="127.054">UDP</tspan>
      <tspan x="420.223" y="143.054">首部</tspan>
    </text>
  </g>
  <line style="fill: none; fill-opacity:0; stroke-width: 2; stroke: #000000" x1="440.503" y1="163.468" x2="440.503" y2="112.133"/>
  <g>
    <rect style="fill: #ffffff" x="302.031" y="598.359" width="797" height="38.6806"/>
    <rect style="fill: none; fill-opacity:0; stroke-width: 2; stroke: #000000" x="302.031" y="598.359" width="797" height="38.6806"/>
    <text font-size="12.8" style="fill: #000000;text-anchor:middle;font-family:monospace;font-style:normal;font-weight:normal" x="700.531" y="620.35">
      <tspan x="700.531" y="620.35"></tspan>
    </text>
  </g>
  <g>
    <path style="fill: #ffffff" d="M 457.795 604.012 L 541.195,604.012 L 541.195,628.012 C 524.515,624.012 516.175,624.012 499.495,628.012 C 482.815,632.012 474.475,632.012 457.795,628.012 L 457.795,604.012z"/>
    <path style="fill: none; fill-opacity:0; stroke-width: 0.02; stroke: #000000" d="M 457.795 604.012 L 541.195,604.012 L 541.195,628.012 C 524.515,624.012 516.175,624.012 499.495,628.012 C 482.815,632.012 474.475,632.012 457.795,628.012 L 457.795,604.012"/>
    <text font-size="12.8" style="fill: #000000;text-anchor:middle;font-family:monospace;font-style:normal;font-weight:normal" x="499.495" y="617.212">
      <tspan x="499.495" y="617.212">16位源端口号</tspan>
    </text>
  </g>
  <g>
    <path style="fill: #ffffff" d="M 843.511 603.094 L 939.711,603.094 L 939.711,627.094 C 920.471,623.094 910.851,623.094 891.611,627.094 C 872.371,631.094 862.751,631.094 843.511,627.094 L 843.511,603.094z"/>
    <path style="fill: none; fill-opacity:0; stroke-width: 0.02; stroke: #000000" d="M 843.511 603.094 L 939.711,603.094 L 939.711,627.094 C 920.471,623.094 910.851,623.094 891.611,627.094 C 872.371,631.094 862.751,631.094 843.511,627.094 L 843.511,603.094"/>
    <text font-size="12.8" style="fill: #000000;text-anchor:middle;font-family:monospace;font-style:normal;font-weight:normal" x="891.611" y="616.294">
      <tspan x="891.611" y="616.294">16位目的端口号</tspan>
    </text>
  </g>
  <line style="fill: none; fill-opacity:0; stroke-width: 2; stroke: #000000" x1="700.531" y1="598.359" x2="700.669" y2="636.938"/>
  <g>
    <rect style="fill: #ffffff" x="302.169" y="636.938" width="797" height="38.6806"/>
    <rect style="fill: none; fill-opacity:0; stroke-width: 2; stroke: #000000" x="302.169" y="636.938" width="797" height="38.6806"/>
    <text font-size="12.8" style="fill: #000000;text-anchor:middle;font-family:monospace;font-style:normal;font-weight:normal" x="700.669" y="658.928">
      <tspan x="700.669" y="658.928"></tspan>
    </text>
  </g>
  <g>
    <path style="fill: #ffffff" d="M 438.683 642.591 L 560.583,642.591 L 560.583,666.591 C 536.203,662.591 524.013,662.591 499.633,666.591 C 475.253,670.591 463.063,670.591 438.683,666.591 L 438.683,642.591z"/>
    <path style="fill: none; fill-opacity:0; stroke-width: 0.02; stroke: #000000" d="M 438.683 642.591 L 560.583,642.591 L 560.583,666.591 C 536.203,662.591 524.013,662.591 499.633,666.591 C 475.253,670.591 463.063,670.591 438.683,666.591 L 438.683,642.591"/>
    <text font-size="12.8" style="fill: #000000;text-anchor:middle;font-family:monospace;font-style:normal;font-weight:normal" x="499.633" y="655.791">
      <tspan x="499.633" y="655.791">16位UDP长度(字节)</tspan>
    </text>
  </g>
  <g>
    <path style="fill: #ffffff" d="M 844.349 641.673 L 939.149,641.673 L 939.149,665.673 C 920.189,661.673 910.709,661.673 891.749,665.673 C 872.789,669.673 863.309,669.673 844.349,665.673 L 844.349,641.673z"/>
    <path style="fill: none; fill-opacity:0; stroke-width: 0.02; stroke: #000000" d="M 844.349 641.673 L 939.149,641.673 L 939.149,665.673 C 920.189,661.673 910.709,661.673 891.749,665.673 C 872.789,669.673 863.309,669.673 844.349,665.673 L 844.349,641.673"/>
    <text font-size="12.8" style="fill: #000000;text-anchor:middle;font-family:monospace;font-style:normal;font-weight:normal" x="891.749" y="654.873">
      <tspan x="891.749" y="654.873">16位UDP校验和</tspan>
    </text>
  </g>
  <line style="fill: none; fill-opacity:0; stroke-width: 2; stroke: #000000" x1="700.669" y1="636.938" x2="700.669" y2="675.619"/>
  <g>
    <rect style="fill: #ffffff" x="302.169" y="675.504" width="797" height="66.2152"/>
    <rect style="fill: none; fill-opacity:0; stroke-width: 2; stroke: #000000" x="302.169" y="675.504" width="797" height="66.2152"/>
    <text font-size="12.8" style="fill: #000000;text-anchor:middle;font-family:monospace;font-style:normal;font-weight:normal" x="700.669" y="711.612">
      <tspan x="700.669" y="711.612">数据(如果有)</tspan>
    </text>
  </g>
  <g>
    <path style="fill: #ffffff" d="M 585.102 783.159 L 804.202,783.159 L 804.202,807.159 C 760.382,803.159 738.472,803.159 694.652,807.159 C 650.832,811.159 628.922,811.159 585.102,807.159 L 585.102,783.159z"/>
    <path style="fill: none; fill-opacity:0; stroke-width: 0.02; stroke: #000000" d="M 585.102 783.159 L 804.202,783.159 L 804.202,807.159 C 760.382,803.159 738.472,803.159 694.652,807.159 C 650.832,811.159 628.922,811.159 585.102,807.159 L 585.102,783.159"/>
    <text font-size="12.8" style="fill: #000000;text-anchor:middle;font-family:monospace;font-style:normal;font-weight:700" x="694.652" y="795.559">
      <tspan x="694.652" y="795.559">UDP校验和计算过程中使用的各个字段</tspan>
    </text>
  </g>
  <g>
    <rect style="fill: #ffffff" x="301.419" y="482.88" width="797" height="38.6806"/>
    <rect style="fill: none; fill-opacity:0; stroke-width: 2; stroke: #000000" x="301.419" y="482.88" width="797" height="38.6806"/>
    <text font-size="12.8" style="fill: #000000;text-anchor:middle;font-family:monospace;font-style:normal;font-weight:normal" x="699.919" y="504.87">
      <tspan x="699.919" y="504.87"></tspan>
    </text>
  </g>
  <g>
    <path style="fill: #ffffff" d="M 649.921 490.717 L 746.121,490.717 L 746.121,514.717 C 726.881,510.717 717.261,510.717 698.021,514.717 C 678.781,518.717 669.161,518.717 649.921,514.717 L 649.921,490.717z"/>
    <path style="fill: none; fill-opacity:0; stroke-width: 0.02; stroke: #000000" d="M 649.921 490.717 L 746.121,490.717 L 746.121,514.717 C 726.881,510.717 717.261,510.717 698.021,514.717 C 678.781,518.717 669.161,518.717 649.921,514.717 L 649.921,490.717"/>
    <text font-size="12.8" style="fill: #000000;text-anchor:middle;font-family:monospace;font-style:normal;font-weight:normal" x="698.021" y="503.917">
      <tspan x="698.021" y="503.917">32位源IP地址</tspan>
    </text>
  </g>
  <g>
    <rect style="fill: #ffffff" x="301.557" y="521.459" width="797" height="38.6806"/>
    <rect style="fill: none; fill-opacity:0; stroke-width: 2; stroke: #000000" x="301.557" y="521.459" width="797" height="38.6806"/>
    <text font-size="12.8" style="fill: #000000;text-anchor:middle;font-family:monospace;font-style:normal;font-weight:normal" x="700.057" y="543.449">
      <tspan x="700.057" y="543.449"></tspan>
    </text>
  </g>
  <g>
    <path style="fill: #ffffff" d="M 651.24 529.295 L 750.04,529.295 L 750.04,553.295 C 730.28,549.295 720.4,549.295 700.64,553.295 C 680.88,557.295 671,557.295 651.24,553.295 L 651.24,529.295z"/>
    <path style="fill: none; fill-opacity:0; stroke-width: 0.02; stroke: #000000" d="M 651.24 529.295 L 750.04,529.295 L 750.04,553.295 C 730.28,549.295 720.4,549.295 700.64,553.295 C 680.88,557.295 671,557.295 651.24,553.295 L 651.24,529.295"/>
    <text font-size="12.8" style="fill: #000000;text-anchor:middle;font-family:monospace;font-style:normal;font-weight:normal" x="700.64" y="542.495">
      <tspan x="700.64" y="542.495">32位目的IP地址</tspan>
    </text>
  </g>
  <g>
    <rect style="fill: #ffffff" x="301.557" y="560.317" width="797" height="38"/>
    <rect style="fill: none; fill-opacity:0; stroke-width: 2; stroke: #000000" x="301.557" y="560.317" width="797" height="38"/>
    <text font-size="12.8" style="fill: #000000;text-anchor:middle;font-family:monospace;font-style:normal;font-weight:normal" x="700.057" y="581.967">
      <tspan x="700.057" y="581.967"></tspan>
    </text>
  </g>
  <g>
    <path style="fill: #ffffff" d="M 294.972 226.779 L 305.972,226.779 L 305.972,250.779 C 303.772,246.779 302.672,246.779 300.472,250.779 C 298.272,254.779 297.172,254.779 294.972,250.779 L 294.972,226.779z"/>
    <path style="fill: none; fill-opacity:0; stroke-width: 0.02; stroke: #000000" d="M 294.972 226.779 L 305.972,226.779 L 305.972,250.779 C 303.772,246.779 302.672,246.779 300.472,250.779 C 298.272,254.779 297.172,254.779 294.972,250.779 L 294.972,226.779"/>
    <text font-size="12.7998" style="fill: #000000;text-anchor:middle;font-family:sans-serif;font-style:normal;font-weight:normal" x="300.472" y="241.779">
      <tspan x="300.472" y="241.779">0</tspan>
    </text>
  </g>
  <g>
    <path style="fill: #ffffff" d="M 680.532 225.538 L 698.532,225.538 L 698.532,249.538 C 694.932,245.538 693.132,245.538 689.532,249.538 C 685.932,253.538 684.132,253.538 680.532,249.538 L 680.532,225.538z"/>
    <path style="fill: none; fill-opacity:0; stroke-width: 0.02; stroke: #000000" d="M 680.532 225.538 L 698.532,225.538 L 698.532,249.538 C 694.932,245.538 693.132,245.538 689.532,249.538 C 685.932,253.538 684.132,253.538 680.532,249.538 L 680.532,225.538"/>
    <text font-size="12.7998" style="fill: #000000;text-anchor:middle;font-family:sans-serif;font-style:normal;font-weight:normal" x="689.532" y="240.538">
      <tspan x="689.532" y="240.538">15</tspan>
    </text>
  </g>
  <g>
    <path style="fill: #ffffff" d="M 699.544 224.917 L 717.544,224.917 L 717.544,248.917 C 713.944,244.917 712.144,244.917 708.544,248.917 C 704.944,252.917 703.144,252.917 699.544,248.917 L 699.544,224.917z"/>
    <path style="fill: none; fill-opacity:0; stroke-width: 0.02; stroke: #000000" d="M 699.544 224.917 L 717.544,224.917 L 717.544,248.917 C 713.944,244.917 712.144,244.917 708.544,248.917 C 704.944,252.917 703.144,252.917 699.544,248.917 L 699.544,224.917"/>
    <text font-size="12.7998" style="fill: #000000;text-anchor:middle;font-family:sans-serif;font-style:normal;font-weight:normal" x="708.544" y="239.917">
      <tspan x="708.544" y="239.917">16</tspan>
    </text>
  </g>
  <g>
    <path style="fill: #ffffff" d="M 1082.4 226.158 L 1100.4,226.158 L 1100.4,250.158 C 1096.8,246.158 1095,246.158 1091.4,250.158 C 1087.8,254.158 1086,254.158 1082.4,250.158 L 1082.4,226.158z"/>
    <path style="fill: none; fill-opacity:0; stroke-width: 0.02; stroke: #000000" d="M 1082.4 226.158 L 1100.4,226.158 L 1100.4,250.158 C 1096.8,246.158 1095,246.158 1091.4,250.158 C 1087.8,254.158 1086,254.158 1082.4,250.158 L 1082.4,226.158"/>
    <text font-size="12.7998" style="fill: #000000;text-anchor:middle;font-family:sans-serif;font-style:normal;font-weight:normal" x="1091.4" y="241.158">
      <tspan x="1091.4" y="241.158">31</tspan>
    </text>
  </g>
  <g>
    <path style="fill: #ffffff" d="M 296.213 453.944 L 307.213,453.944 L 307.213,477.944 C 305.013,473.944 303.913,473.944 301.713,477.944 C 299.513,481.944 298.413,481.944 296.213,477.944 L 296.213,453.944z"/>
    <path style="fill: none; fill-opacity:0; stroke-width: 0.02; stroke: #000000" d="M 296.213 453.944 L 307.213,453.944 L 307.213,477.944 C 305.013,473.944 303.913,473.944 301.713,477.944 C 299.513,481.944 298.413,481.944 296.213,477.944 L 296.213,453.944"/>
    <text font-size="12.7998" style="fill: #000000;text-anchor:middle;font-family:sans-serif;font-style:normal;font-weight:normal" x="301.713" y="468.944">
      <tspan x="301.713" y="468.944">0</tspan>
    </text>
  </g>
  <g>
    <path style="fill: #ffffff" d="M 681.773 452.703 L 699.773,452.703 L 699.773,476.703 C 696.173,472.703 694.373,472.703 690.773,476.703 C 687.173,480.703 685.373,480.703 681.773,476.703 L 681.773,452.703z"/>
    <path style="fill: none; fill-opacity:0; stroke-width: 0.02; stroke: #000000" d="M 681.773 452.703 L 699.773,452.703 L 699.773,476.703 C 696.173,472.703 694.373,472.703 690.773,476.703 C 687.173,480.703 685.373,480.703 681.773,476.703 L 681.773,452.703"/>
    <text font-size="12.7998" style="fill: #000000;text-anchor:middle;font-family:sans-serif;font-style:normal;font-weight:normal" x="690.773" y="467.703">
      <tspan x="690.773" y="467.703">15</tspan>
    </text>
  </g>
  <g>
    <path style="fill: #ffffff" d="M 700.785 452.083 L 718.785,452.083 L 718.785,476.083 C 715.185,472.083 713.385,472.083 709.785,476.083 C 706.185,480.083 704.385,480.083 700.785,476.083 L 700.785,452.083z"/>
    <path style="fill: none; fill-opacity:0; stroke-width: 0.02; stroke: #000000" d="M 700.785 452.083 L 718.785,452.083 L 718.785,476.083 C 715.185,472.083 713.385,472.083 709.785,476.083 C 706.185,480.083 704.385,480.083 700.785,476.083 L 700.785,452.083"/>
    <text font-size="12.7998" style="fill: #000000;text-anchor:middle;font-family:sans-serif;font-style:normal;font-weight:normal" x="709.785" y="467.083">
      <tspan x="709.785" y="467.083">16</tspan>
    </text>
  </g>
  <g>
    <path style="fill: #ffffff" d="M 1083.64 453.324 L 1101.64,453.324 L 1101.64,477.324 C 1098.04,473.324 1096.24,473.324 1092.64,477.324 C 1089.04,481.324 1087.24,481.324 1083.64,477.324 L 1083.64,453.324z"/>
    <path style="fill: none; fill-opacity:0; stroke-width: 0.02; stroke: #000000" d="M 1083.64 453.324 L 1101.64,453.324 L 1101.64,477.324 C 1098.04,473.324 1096.24,473.324 1092.64,477.324 C 1089.04,481.324 1087.24,481.324 1083.64,477.324 L 1083.64,453.324"/>
    <text font-size="12.7998" style="fill: #000000;text-anchor:middle;font-family:sans-serif;font-style:normal;font-weight:normal" x="1092.64" y="468.324">
      <tspan x="1092.64" y="468.324">31</tspan>
    </text>
  </g>
  <line style="fill: none; fill-opacity:0; stroke-width: 2; stroke: #000000" x1="700.057" y1="560.139" x2="700.057" y2="598.317"/>
  <line style="fill: none; fill-opacity:0; stroke-width: 2; stroke: #000000" x1="500.12" y1="560.431" x2="500.12" y2="598.609"/>
  <g>
    <path style="fill: #ffffff" d="M 357.644 565.636 L 441.044,565.636 L 441.044,589.636 C 424.364,585.636 416.024,585.636 399.344,589.636 C 382.664,593.636 374.324,593.636 357.644,589.636 L 357.644,565.636z"/>
    <path style="fill: none; fill-opacity:0; stroke-width: 0.02; stroke: #000000" d="M 357.644 565.636 L 441.044,565.636 L 441.044,589.636 C 424.364,585.636 416.024,585.636 399.344,589.636 C 382.664,593.636 374.324,593.636 357.644,589.636 L 357.644,565.636"/>
    <text font-size="12.8" style="fill: #000000;text-anchor:middle;font-family:monospace;font-style:normal;font-weight:normal" x="399.344" y="578.836">
      <tspan x="399.344" y="578.836">0</tspan>
    </text>
  </g>
  <g>
    <path style="fill: #ffffff" d="M 545.658 566.257 L 629.058,566.257 L 629.058,590.257 C 612.378,586.257 604.038,586.257 587.358,590.257 C 570.678,594.257 562.338,594.257 545.658,590.257 L 545.658,566.257z"/>
    <path style="fill: none; fill-opacity:0; stroke-width: 0.02; stroke: #000000" d="M 545.658 566.257 L 629.058,566.257 L 629.058,590.257 C 612.378,586.257 604.038,586.257 587.358,590.257 C 570.678,594.257 562.338,594.257 545.658,590.257 L 545.658,566.257"/>
    <text font-size="12.8" style="fill: #000000;text-anchor:middle;font-family:monospace;font-style:normal;font-weight:normal" x="587.358" y="579.457">
      <tspan x="587.358" y="579.457">8位协议(17)</tspan>
    </text>
  </g>
  <g>
    <path style="fill: #ffffff" d="M 831.332 565.016 L 953.232,565.016 L 953.232,589.016 C 928.852,585.016 916.662,585.016 892.282,589.016 C 867.902,593.016 855.712,593.016 831.332,589.016 L 831.332,565.016z"/>
    <path style="fill: none; fill-opacity:0; stroke-width: 0.02; stroke: #000000" d="M 831.332 565.016 L 953.232,565.016 L 953.232,589.016 C 928.852,585.016 916.662,585.016 892.282,589.016 C 867.902,593.016 855.712,593.016 831.332,589.016 L 831.332,565.016"/>
    <text font-size="12.8" style="fill: #000000;text-anchor:middle;font-family:monospace;font-style:normal;font-weight:normal" x="892.282" y="578.216">
      <tspan x="892.282" y="578.216">16位UDP长度(字节)</tspan>
    </text>
  </g>
  <line style="fill: none; fill-opacity:0; stroke-width: 1; stroke: #000000" x1="1112.67" y1="333.793" x2="1127.29" y2="333.793"/>
  <line style="fill: none; fill-opacity:0; stroke-width: 1; stroke: #000000" x1="1112.62" y1="256.45" x2="1127.24" y2="256.45"/>
  <g>
    <path style="fill: #ffffff" d="M 1101.48 280.614 L 1138.08,280.614 L 1138.08,304.614 C 1130.76,300.614 1127.1,300.614 1119.78,304.614 C 1112.46,308.614 1108.8,308.614 1101.48,304.614 L 1101.48,280.614z"/>
    <path style="fill: none; fill-opacity:0; stroke-width: 0.02; stroke: #000000" d="M 1101.48 280.614 L 1138.08,280.614 L 1138.08,304.614 C 1130.76,300.614 1127.1,300.614 1119.78,304.614 C 1112.46,308.614 1108.8,308.614 1101.48,304.614 L 1101.48,280.614"/>
    <text font-size="12.8" style="fill: #000000;text-anchor:middle;font-family:sans-serif;font-style:normal;font-weight:normal" x="1119.78" y="295.414">
      <tspan x="1119.78" y="295.414">8字节</tspan>
    </text>
  </g>
  <g>
    <line style="fill: none; fill-opacity:0; stroke-width: 1; stroke: #000000" x1="1119.78" y1="280.614" x2="1119.86" y2="266.949"/>
    <polygon style="fill: #000000" points="1124.86,266.979 1119.92,256.95 1114.86,266.92 "/>
    <polygon style="fill: none; fill-opacity:0; stroke-width: 1; stroke: #000000" points="1124.86,266.979 1119.92,256.95 1114.86,266.92 "/>
  </g>
  <g>
    <line style="fill: none; fill-opacity:0; stroke-width: 1; stroke: #000000" x1="1119.83" y1="304.581" x2="1119.93" y2="323.293"/>
    <polygon style="fill: #000000" points="1114.93,323.318 1119.98,333.293 1124.93,323.268 "/>
    <polygon style="fill: none; fill-opacity:0; stroke-width: 1; stroke: #000000" points="1114.93,323.318 1119.98,333.293 1124.93,323.268 "/>
  </g>
  <line style="fill: none; fill-opacity:0; stroke-width: 1; stroke: #000000" x1="1128.02" y1="595.99" x2="1142.64" y2="595.99"/>
  <line style="fill: none; fill-opacity:0; stroke-width: 1; stroke: #000000" x1="1126.31" y1="480.397" x2="1140.94" y2="480.397"/>
  <g>
    <path style="fill: #ffffff" d="M 1100.72 521.417 L 1167.27,521.417 L 1167.27,565.211 C 1153.96,557.912 1147.31,557.912 1134,565.211 C 1120.69,572.51 1114.03,572.51 1100.72,565.211 L 1100.72,521.417z"/>
    <path style="fill: none; fill-opacity:0; stroke-width: 0.02; stroke: #000000" d="M 1100.72 521.417 L 1167.27,521.417 L 1167.27,565.211 C 1153.96,557.912 1147.31,557.912 1134,565.211 C 1120.69,572.51 1114.03,572.51 1100.72,565.211 L 1100.72,521.417"/>
    <text font-size="12.8" style="fill: #000000;text-anchor:middle;font-family:sans-serif;font-style:normal;font-weight:normal" x="1134" y="544.465">
      <tspan x="1134" y="544.465">UDP伪首部</tspan>
    </text>
  </g>
  <g>
    <line style="fill: none; fill-opacity:0; stroke-width: 1; stroke: #000000" x1="1134" y1="521.417" x2="1133.72" y2="490.896"/>
    <polygon style="fill: #000000" points="1138.72,490.851 1133.63,480.897 1128.72,490.942 "/>
    <polygon style="fill: none; fill-opacity:0; stroke-width: 1; stroke: #000000" points="1138.72,490.851 1133.63,480.897 1128.72,490.942 "/>
  </g>
  <g>
    <line style="fill: none; fill-opacity:0; stroke-width: 1; stroke: #000000" x1="1134.48" y1="564.774" x2="1135.05" y2="585.494"/>
    <polygon style="fill: #000000" points="1130.05,585.63 1135.32,595.491 1140.04,585.358 "/>
    <polygon style="fill: none; fill-opacity:0; stroke-width: 1; stroke: #000000" points="1130.05,585.63 1135.32,595.491 1140.04,585.358 "/>
  </g>
  <line style="fill: none; fill-opacity:0; stroke-width: 1; stroke: #000000" x1="1128.85" y1="671.144" x2="1143.48" y2="671.144"/>
  <g>
    <path style="fill: #ffffff" d="M 1108.95 614.704 L 1162.7,614.704 L 1162.7,638.704 C 1151.95,634.704 1146.57,634.704 1135.82,638.704 C 1125.07,642.704 1119.7,642.704 1108.95,638.704 L 1108.95,614.704z"/>
    <path style="fill: none; fill-opacity:0; stroke-width: 0.02; stroke: #000000" d="M 1108.95 614.704 L 1162.7,614.704 L 1162.7,638.704 C 1151.95,634.704 1146.57,634.704 1135.82,638.704 C 1125.07,642.704 1119.7,642.704 1108.95,638.704 L 1108.95,614.704"/>
    <text font-size="12.8" style="fill: #000000;text-anchor:middle;font-family:sans-serif;font-style:normal;font-weight:normal" x="1135.82" y="629.504">
      <tspan x="1135.82" y="629.504">UDP首部</tspan>
    </text>
  </g>
  <g>
    <line style="fill: none; fill-opacity:0; stroke-width: 1; stroke: #000000" x1="1135.82" y1="614.704" x2="1135.61" y2="606.487"/>
    <polygon style="fill: #000000" points="1140.6,606.355 1135.34,596.49 1130.61,606.618 "/>
    <polygon style="fill: none; fill-opacity:0; stroke-width: 1; stroke: #000000" points="1140.6,606.355 1135.34,596.49 1130.61,606.618 "/>
  </g>
  <g>
    <line style="fill: none; fill-opacity:0; stroke-width: 1; stroke: #000000" x1="1135.9" y1="638.671" x2="1136.08" y2="660.644"/>
    <polygon style="fill: #000000" points="1131.08,660.684 1136.16,670.644 1141.08,660.604 "/>
    <polygon style="fill: none; fill-opacity:0; stroke-width: 1; stroke: #000000" points="1131.08,660.684 1136.16,670.644 1141.08,660.604 "/>
  </g>
  <g>
    <rect style="fill: #ffffff" x="301.891" y="740.802" width="399.768" height="38"/>
    <rect style="fill: none; fill-opacity:0; stroke-width: 2; stroke: #000000" x="301.891" y="740.802" width="399.768" height="38"/>
    <text font-size="12.8" style="fill: #000000;text-anchor:middle;font-family:monospace;font-style:normal;font-weight:normal" x="501.775" y="762.452">
      <tspan x="501.775" y="762.452"></tspan>
    </text>
  </g>
  <line style="fill: none; fill-opacity:0; stroke-width: 2; stroke: #000000" x1="500.721" y1="740.237" x2="500.721" y2="778.917"/>
  <g>
    <path style="fill: #ffffff" d="M 547.117 746.96 L 641.917,746.96 L 641.917,770.96 C 622.957,766.96 613.477,766.96 594.517,770.96 C 575.557,774.96 566.077,774.96 547.117,770.96 L 547.117,746.96z"/>
    <path style="fill: none; fill-opacity:0; stroke-width: 0.02; stroke: #000000" d="M 547.117 746.96 L 641.917,746.96 L 641.917,770.96 C 622.957,766.96 613.477,766.96 594.517,770.96 C 575.557,774.96 566.077,774.96 547.117,770.96 L 547.117,746.96"/>
    <text font-size="12.8" style="fill: #000000;text-anchor:middle;font-family:monospace;font-style:normal;font-weight:normal" x="594.517" y="760.16">
      <tspan x="594.517" y="760.16">填充字节(0)</tspan>
    </text>
  </g>
  <g>
    <path style="fill: #ffffff" d="M 345.625 165.484 L 363.625,165.484 L 363.625,189.484 C 360.025,185.484 358.225,185.484 354.625,189.484 C 351.025,193.484 349.225,193.484 345.625,189.484 L 345.625,165.484z"/>
    <path style="fill: none; fill-opacity:0; stroke-width: 0.02; stroke: #000000" d="M 345.625 165.484 L 363.625,165.484 L 363.625,189.484 C 360.025,185.484 358.225,185.484 354.625,189.484 C 351.025,193.484 349.225,193.484 345.625,189.484 L 345.625,165.484"/>
    <text font-size="12.7998" style="fill: #000000;text-anchor:middle;font-family:sans-serif;font-style:normal;font-weight:normal" x="354.625" y="180.484">
      <tspan x="354.625" y="180.484">20</tspan>
    </text>
  </g>
  <g>
    <path style="fill: #ffffff" d="M 412.731 166.345 L 423.731,166.345 L 423.731,190.345 C 421.531,186.345 420.431,186.345 418.231,190.345 C 416.031,194.345 414.931,194.345 412.731,190.345 L 412.731,166.345z"/>
    <path style="fill: none; fill-opacity:0; stroke-width: 0.02; stroke: #000000" d="M 412.731 166.345 L 423.731,166.345 L 423.731,190.345 C 421.531,186.345 420.431,186.345 418.231,190.345 C 416.031,194.345 414.931,194.345 412.731,190.345 L 412.731,166.345"/>
    <text font-size="12.7998" style="fill: #000000;text-anchor:middle;font-family:sans-serif;font-style:normal;font-weight:normal" x="418.231" y="181.345">
      <tspan x="418.231" y="181.345">8</tspan>
    </text>
  </g>
  <g>
    <path style="fill: #ffffff" d="M 348.195 186.825 L 531.495,186.825 L 531.495,210.825 C 494.835,206.825 476.505,206.825 439.845,210.825 C 403.185,214.825 384.855,214.825 348.195,210.825 L 348.195,186.825z"/>
    <path style="fill: none; fill-opacity:0; stroke-width: 0.02; stroke: #000000" d="M 348.195 186.825 L 531.495,186.825 L 531.495,210.825 C 494.835,206.825 476.505,206.825 439.845,210.825 C 403.185,214.825 384.855,214.825 348.195,210.825 L 348.195,186.825"/>
    <text font-size="12.8" style="fill: #000000;text-anchor:middle;font-family:monospace;font-style:normal;font-weight:700" x="439.845" y="199.225">
      <tspan x="439.845" y="199.225">UDP数据报封装在IP数据报文内</tspan>
    </text>
  </g>
  <g>
    <path style="fill: #ffffff" d="M 481.533 451.773 L 499.533,451.773 L 499.533,475.773 C 495.933,471.773 494.133,471.773 490.533,475.773 C 486.933,479.773 485.133,479.773 481.533,475.773 L 481.533,451.773z"/>
    <path style="fill: none; fill-opacity:0; stroke-width: 0.02; stroke: #000000" d="M 481.533 451.773 L 499.533,451.773 L 499.533,475.773 C 495.933,471.773 494.133,471.773 490.533,475.773 C 486.933,479.773 485.133,479.773 481.533,475.773 L 481.533,451.773"/>
    <text font-size="12.7998" style="fill: #000000;text-anchor:middle;font-family:sans-serif;font-style:normal;font-weight:normal" x="490.533" y="466.773">
      <tspan x="490.533" y="466.773">7</tspan>
    </text>
  </g>
  <g>
    <path style="fill: #ffffff" d="M 500.546 451.153 L 518.546,451.153 L 518.546,475.153 C 514.946,471.153 513.146,471.153 509.546,475.153 C 505.946,479.153 504.146,479.153 500.546,475.153 L 500.546,451.153z"/>
    <path style="fill: none; fill-opacity:0; stroke-width: 0.02; stroke: #000000" d="M 500.546 451.153 L 518.546,451.153 L 518.546,475.153 C 514.946,471.153 513.146,471.153 509.546,475.153 C 505.946,479.153 504.146,479.153 500.546,475.153 L 500.546,451.153"/>
    <text font-size="12.7998" style="fill: #000000;text-anchor:middle;font-family:sans-serif;font-style:normal;font-weight:normal" x="509.546" y="466.153">
      <tspan x="509.546" y="466.153">8</tspan>
    </text>
  </g>
</svg>
