<?xml version="1.0" encoding="UTF-8" standalone="no"?>
<!DOCTYPE svg PUBLIC "-//W3C//DTD SVG 1.0//EN" "http://www.w3.org/TR/2001/PR-SVG-20010719/DTD/svg10.dtd">
<svg width="49cm" height="32cm" viewBox="0 -120 966 633" xmlns="http://www.w3.org/2000/svg" xmlns:xlink="http://www.w3.org/1999/xlink">
  <g>
    <rect style="fill: #ffffff" x="57.3372" y="138.886" width="79.1613" height="38"/>
    <rect style="fill: none; fill-opacity:0; stroke-width: 2; stroke: #000000" x="57.3372" y="138.886" width="79.1613" height="38"/>
    <text font-size="12.8" style="fill: #000000;text-anchor:middle;font-family:monospace;font-style:normal;font-weight:normal" x="96.9179" y="160.886">
      <tspan x="96.9179" y="160.886">接口卡</tspan>
    </text>
  </g>
  <g>
    <rect style="fill: #ffffff" x="57.3094" y="45.8378" width="79.1892" height="54"/>
    <rect style="fill: none; fill-opacity:0; stroke-width: 2; stroke: #000000" x="57.3094" y="45.8378" width="79.1892" height="54"/>
    <text font-size="12.8" style="fill: #000000;text-anchor:middle;font-family:monospace;font-style:normal;font-weight:normal" x="96.904" y="67.8378">
      <tspan x="96.904" y="67.8378">设备驱</tspan>
      <tspan x="96.904" y="83.8378">动程序</tspan>
    </text>
  </g>
  <g>
    <rect style="fill: #ffffff" x="57.4532" y="-118.057" width="79.5754" height="38"/>
    <rect style="fill: none; fill-opacity:0; stroke-width: 2; stroke: #000000" x="57.4532" y="-118.057" width="79.5754" height="38"/>
    <text font-size="12.8" style="fill: #000000;text-anchor:middle;font-family:monospace;font-style:normal;font-weight:normal" x="97.2409" y="-95.1572">
      <tspan x="97.2409" y="-95.1572">IP</tspan>
    </text>
  </g>
  <g>
    <rect style="fill: #ffffff" x="57.5214" y="-36.251" width="79.5071" height="38"/>
    <rect style="fill: none; fill-opacity:0; stroke-width: 2; stroke: #000000" x="57.5214" y="-36.251" width="79.5071" height="38"/>
    <text font-size="12.8" style="fill: #000000;text-anchor:middle;font-family:monospace;font-style:normal;font-weight:normal" x="97.2749" y="-13.351">
      <tspan x="97.2749" y="-13.351">UDP</tspan>
    </text>
  </g>
  <line style="fill: none; fill-opacity:0; stroke-width: 4; stroke: #000000" x1="17.101" y1="222.67" x2="176.848" y2="222.904"/>
  <g>
    <line style="fill: none; fill-opacity:0; stroke-width: 2; stroke: #000000" x1="96.9746" y1="222.786" x2="96.945" y2="188.89"/>
    <polygon style="fill: #000000" points="101.945,188.886 96.9362,178.89 91.945,188.894 "/>
    <polygon style="fill: none; fill-opacity:0; stroke-width: 2; stroke: #000000" points="101.945,188.886 96.9362,178.89 91.945,188.894 "/>
  </g>
  <g>
    <line style="fill: none; fill-opacity:0; stroke-width: 2; stroke: #000000" x1="96.9146" y1="137.911" x2="96.9104" y2="111.838"/>
    <polygon style="fill: #000000" points="101.91,111.837 96.9087,101.838 91.9104,111.839 "/>
    <polygon style="fill: none; fill-opacity:0; stroke-width: 2; stroke: #000000" points="101.91,111.837 96.9087,101.838 91.9104,111.839 "/>
  </g>
  <g>
    <line style="fill: none; fill-opacity:0; stroke-width: 2; stroke: #000000" x1="97.0193" y1="44.8335" x2="97.1473" y2="13.7418"/>
    <polygon style="fill: #000000" points="102.147,13.7623 97.1885,3.74184 92.1474,13.7212 "/>
    <polygon style="fill: none; fill-opacity:0; stroke-width: 2; stroke: #000000" points="102.147,13.7623 97.1885,3.74184 92.1474,13.7212 "/>
  </g>
  <g>
    <line style="fill: none; fill-opacity:0; stroke-width: 2; stroke: #000000" x1="97.2666" y1="-37.2432" x2="97.2538" y2="-68.065"/>
    <polygon style="fill: #000000" points="102.254,-68.0671 97.2496,-78.065 92.2538,-68.0629 "/>
    <polygon style="fill: none; fill-opacity:0; stroke-width: 2; stroke: #000000" points="102.254,-68.0671 97.2496,-78.065 92.2538,-68.0629 "/>
  </g>
  <g>
    <path style="fill: #ffffff" d="M 6.8065 234.596 L 190.707,234.596 L 190.707,258.596 C 153.927,254.596 135.536,254.596 98.7565,258.596 C 61.9765,262.596 43.5865,262.596 6.8065,258.596 L 6.8065,234.596z"/>
    <path style="fill: none; fill-opacity:0; stroke-width: 0.02; stroke: #000000" d="M 6.8065 234.596 L 190.707,234.596 L 190.707,258.596 C 153.927,254.596 135.536,254.596 98.7565,258.596 C 61.9765,262.596 43.5865,262.596 6.8065,258.596 L 6.8065,234.596"/>
    <text font-size="12.8" style="fill: #000000;text-anchor:middle;font-family:monospace;font-style:normal;font-weight:700" x="98.7565" y="248.596">
      <tspan x="98.7565" y="248.596">协议栈各层对收到帧的过滤过程</tspan>
    </text>
  </g>
  <g>
    <rect style="fill: #ffffff" x="1.5744" y="420.674" width="959.346" height="38"/>
    <rect style="fill: none; fill-opacity:0; stroke-width: 2; stroke: #000000" x="1.5744" y="420.674" width="959.346" height="38"/>
    <text font-size="12.8" style="fill: #000000;text-anchor:middle;font-family:monospace;font-style:normal;font-weight:normal" x="481.247" y="443.574">
      <tspan x="481.247" y="443.574"></tspan>
    </text>
  </g>
  <path style="fill: none; fill-opacity:0; stroke-width: 1; stroke-linecap: round; stroke: #000000" d="M 153.448 446.138 L 152.042,446.138 L 152.042,437.154 C 151.651,437.545 151.182,437.857 150.713,438.17 C 150.088,438.482 149.62,438.717 149.229,438.873 L 149.229,437.545 C 149.932,437.232 150.635,436.763 151.26,436.138 C 151.885,435.67 152.276,435.123 152.588,434.654 L 153.448,434.654 L 153.448,446.138"/>
  <g>
    <path style="fill: none; fill-opacity:0; stroke-width: 1; stroke-linecap: round; stroke: #000000" d="M 7.69046 441.343 C 7.69046,440.015 7.76858,438.922 8.08108,438.062 C 8.23733,437.281 8.62796,436.656 9.25296,436.187 C 9.72171,435.718 10.4248,435.484 11.3623,435.484 C 11.9092,435.484 12.4561,435.64 13.003,435.875 C 13.3936,436.109 13.7842,436.422 14.1748,436.89 C 14.4092,437.359 14.6436,437.984 14.878,438.609 C 14.9561,439.39 15.0342,440.25 15.1123,441.343 C 15.0342,442.672 14.9561,443.765 14.7217,444.547 C 14.4092,445.406 13.9405,446.031 13.4717,446.5 C 12.8467,446.968 12.1436,447.203 11.3623,447.203 C 10.1905,447.203 9.33108,446.812 8.78421,445.953 C 8.00296,445.093 7.69046,443.531 7.69046,441.343 L 7.69046,441.343"/>
    <path style="fill: none; fill-opacity:0; stroke-width: 1; stroke-linecap: round; stroke: #000000" d="M 9.09671 441.343 C 9.09671,443.218 9.25296,444.468 9.72171,445.093 C 10.1123,445.718 10.6592,446.031 11.3623,446.031 C 11.9873,446.031 12.5342,445.718 13.003,445.093 C 13.3936,444.468 13.628,443.218 13.7061,441.343 C 13.628,439.468 13.3936,438.218 13.003,437.593 C 12.5342,436.968 11.9873,436.656 11.3623,436.656 C 10.6592,436.656 10.1905,436.968 9.79983,437.437 C 9.33108,438.218 9.09671,439.468 9.09671,441.343 L 9.09671,441.343"/>
  </g>
  <line style="fill: none; fill-opacity:0; stroke-width: 2; stroke: #000000" x1="160.883" y1="421.108" x2="160.883" y2="459.45"/>
  <line style="fill: none; fill-opacity:0; stroke-width: 2; stroke: #000000" x1="320.936" y1="420.19" x2="320.936" y2="458.532"/>
  <line style="fill: none; fill-opacity:0; stroke-width: 2; stroke: #000000" x1="481.248" y1="420.674" x2="481.248" y2="458.674"/>
  <line style="fill: none; fill-opacity:0; stroke-width: 2; stroke: #000000" x1="641.694" y1="419.926" x2="641.694" y2="458.268"/>
  <line style="fill: none; fill-opacity:0; stroke-width: 2; stroke: #000000" x1="802.664" y1="420.692" x2="802.664" y2="459.034"/>
  <line style="fill: none; fill-opacity:0; stroke-width: 2; stroke: #000000" x1="20.5962" y1="454.144" x2="20.5858" y2="458.304"/>
  <line style="fill: none; fill-opacity:0; stroke-width: 2; stroke: #000000" x1="40.5626" y1="454.266" x2="40.5522" y2="458.426"/>
  <line style="fill: none; fill-opacity:0; stroke-width: 2; stroke: #000000" x1="60.8516" y1="454.328" x2="60.8412" y2="458.488"/>
  <line style="fill: none; fill-opacity:0; stroke-width: 2; stroke: #000000" x1="81.4068" y1="454.328" x2="81.3964" y2="458.488"/>
  <line style="fill: none; fill-opacity:0; stroke-width: 2; stroke: #000000" x1="101.168" y1="454.328" x2="101.158" y2="458.488"/>
  <line style="fill: none; fill-opacity:0; stroke-width: 2; stroke: #000000" x1="121.226" y1="454.032" x2="121.215" y2="458.192"/>
  <line style="fill: none; fill-opacity:0; stroke-width: 2; stroke: #000000" x1="141.283" y1="454.622" x2="141.272" y2="458.782"/>
  <g>
    <path style="fill: none; fill-opacity:0; stroke-width: 1; stroke-linecap: round; stroke: #000000" d="M 26.8668 441.369 C 26.8668,440.041 26.9449,438.947 27.2574,438.088 C 27.4137,437.307 27.8043,436.682 28.4293,436.213 C 28.898,435.744 29.6012,435.51 30.5387,435.51 C 31.0855,435.51 31.6324,435.666 32.1793,435.901 C 32.5699,436.135 32.9605,436.447 33.3512,436.916 C 33.5855,437.385 33.8199,438.01 34.0543,438.635 C 34.1324,439.416 34.2105,440.276 34.2887,441.369 C 34.2105,442.697 34.1324,443.791 33.898,444.572 C 33.5855,445.432 33.1168,446.057 32.648,446.526 C 32.023,446.994 31.3199,447.229 30.5387,447.229 C 29.3668,447.229 28.5074,446.838 27.9605,445.979 C 27.1793,445.119 26.8668,443.557 26.8668,441.369 L 26.8668,441.369"/>
    <path style="fill: none; fill-opacity:0; stroke-width: 1; stroke-linecap: round; stroke: #000000" d="M 28.273 441.369 C 28.273,443.244 28.4293,444.494 28.898,445.119 C 29.2887,445.744 29.8355,446.057 30.5387,446.057 C 31.1637,446.057 31.7105,445.744 32.1793,445.119 C 32.5699,444.494 32.8043,443.244 32.8824,441.369 C 32.8043,439.494 32.5699,438.244 32.1793,437.619 C 31.7105,436.994 31.1637,436.682 30.5387,436.682 C 29.8355,436.682 29.3668,436.994 28.9762,437.463 C 28.5074,438.244 28.273,439.494 28.273,441.369 L 28.273,441.369"/>
  </g>
  <g>
    <path style="fill: none; fill-opacity:0; stroke-width: 1; stroke-linecap: round; stroke: #000000" d="M 48.135 441.961 C 48.135,440.633 48.2131,439.539 48.5256,438.68 C 48.6819,437.899 49.0725,437.274 49.6975,436.805 C 50.1663,436.336 50.8694,436.102 51.8069,436.102 C 52.3538,436.102 52.9006,436.258 53.4475,436.493 C 53.8381,436.727 54.2288,437.039 54.6194,437.508 C 54.8538,437.977 55.0881,438.602 55.3225,439.227 C 55.4006,440.008 55.4788,440.868 55.5569,441.961 C 55.4788,443.289 55.4006,444.383 55.1663,445.164 C 54.8538,446.024 54.385,446.649 53.9163,447.118 C 53.2913,447.586 52.5881,447.821 51.8069,447.821 C 50.635,447.821 49.7756,447.43 49.2288,446.571 C 48.4475,445.711 48.135,444.149 48.135,441.961 L 48.135,441.961"/>
    <path style="fill: none; fill-opacity:0; stroke-width: 1; stroke-linecap: round; stroke: #000000" d="M 49.5413 441.961 C 49.5413,443.836 49.6975,445.086 50.1663,445.711 C 50.5569,446.336 51.1038,446.649 51.8069,446.649 C 52.4319,446.649 52.9788,446.336 53.4475,445.711 C 53.8381,445.086 54.0725,443.836 54.1506,441.961 C 54.0725,440.086 53.8381,438.836 53.4475,438.211 C 52.9788,437.586 52.4319,437.274 51.8069,437.274 C 51.1038,437.274 50.635,437.586 50.2444,438.055 C 49.7756,438.836 49.5413,440.086 49.5413,441.961 L 49.5413,441.961"/>
  </g>
  <g>
    <path style="fill: none; fill-opacity:0; stroke-width: 1; stroke-linecap: round; stroke: #000000" d="M 68.2216 441.075 C 68.2216,439.747 68.2997,438.654 68.6122,437.794 C 68.7685,437.013 69.1591,436.388 69.7841,435.919 C 70.2528,435.45 70.956,435.216 71.8935,435.216 C 72.4403,435.216 72.9872,435.372 73.5341,435.607 C 73.9247,435.841 74.3153,436.154 74.706,436.622 C 74.9403,437.091 75.1747,437.716 75.4091,438.341 C 75.4872,439.122 75.5653,439.982 75.6435,441.075 C 75.5653,442.404 75.4872,443.497 75.2528,444.279 C 74.9403,445.138 74.4716,445.763 74.0028,446.232 C 73.3778,446.7 72.6747,446.935 71.8935,446.935 C 70.7216,446.935 69.8622,446.544 69.3153,445.685 C 68.5341,444.825 68.2216,443.263 68.2216,441.075 L 68.2216,441.075"/>
    <path style="fill: none; fill-opacity:0; stroke-width: 1; stroke-linecap: round; stroke: #000000" d="M 69.6278 441.075 C 69.6278,442.95 69.7841,444.2 70.2528,444.825 C 70.6435,445.45 71.1903,445.763 71.8935,445.763 C 72.5185,445.763 73.0653,445.45 73.5341,444.825 C 73.9247,444.2 74.1591,442.95 74.2372,441.075 C 74.1591,439.2 73.9247,437.95 73.5341,437.325 C 73.0653,436.7 72.5185,436.388 71.8935,436.388 C 71.1903,436.388 70.7216,436.7 70.331,437.169 C 69.8622,437.95 69.6278,439.2 69.6278,441.075 L 69.6278,441.075"/>
  </g>
  <g>
    <path style="fill: none; fill-opacity:0; stroke-width: 1; stroke-linecap: round; stroke: #000000" d="M 89.1944 441.369 C 89.1944,440.041 89.2725,438.947 89.585,438.088 C 89.7413,437.307 90.1319,436.682 90.7569,436.213 C 91.2257,435.744 91.9288,435.51 92.8663,435.51 C 93.4132,435.51 93.96,435.666 94.5069,435.901 C 94.8975,436.135 95.2882,436.447 95.6788,436.916 C 95.9132,437.385 96.1475,438.01 96.3819,438.635 C 96.46,439.416 96.5382,440.276 96.6163,441.369 C 96.5382,442.697 96.46,443.791 96.2257,444.572 C 95.9132,445.432 95.4444,446.057 94.9757,446.526 C 94.3507,446.994 93.6475,447.229 92.8663,447.229 C 91.6944,447.229 90.835,446.838 90.2882,445.979 C 89.5069,445.119 89.1944,443.557 89.1944,441.369 L 89.1944,441.369"/>
    <path style="fill: none; fill-opacity:0; stroke-width: 1; stroke-linecap: round; stroke: #000000" d="M 90.6007 441.369 C 90.6007,443.244 90.7569,444.494 91.2257,445.119 C 91.6163,445.744 92.1632,446.057 92.8663,446.057 C 93.4913,446.057 94.0382,445.744 94.5069,445.119 C 94.8975,444.494 95.1319,443.244 95.21,441.369 C 95.1319,439.494 94.8975,438.244 94.5069,437.619 C 94.0382,436.994 93.4913,436.682 92.8663,436.682 C 92.1632,436.682 91.6944,436.994 91.3038,437.463 C 90.835,438.244 90.6007,439.494 90.6007,441.369 L 90.6007,441.369"/>
  </g>
  <g>
    <path style="fill: none; fill-opacity:0; stroke-width: 1; stroke-linecap: round; stroke: #000000" d="M 108.661 440.779 C 108.661,439.451 108.739,438.357 109.051,437.498 C 109.208,436.717 109.598,436.092 110.223,435.623 C 110.692,435.154 111.395,434.92 112.333,434.92 C 112.88,434.92 113.426,435.076 113.973,435.311 C 114.364,435.545 114.755,435.857 115.145,436.326 C 115.38,436.795 115.614,437.42 115.848,438.045 C 115.926,438.826 116.005,439.686 116.083,440.779 C 116.005,442.107 115.926,443.201 115.692,443.982 C 115.38,444.842 114.911,445.467 114.442,445.936 C 113.817,446.404 113.114,446.639 112.333,446.639 C 111.161,446.639 110.301,446.248 109.755,445.389 C 108.973,444.529 108.661,442.967 108.661,440.779 L 108.661,440.779"/>
    <path style="fill: none; fill-opacity:0; stroke-width: 1; stroke-linecap: round; stroke: #000000" d="M 110.067 440.779 C 110.067,442.654 110.223,443.904 110.692,444.529 C 111.083,445.154 111.63,445.467 112.333,445.467 C 112.958,445.467 113.505,445.154 113.973,444.529 C 114.364,443.904 114.598,442.654 114.676,440.779 C 114.598,438.904 114.364,437.654 113.973,437.029 C 113.505,436.404 112.958,436.092 112.333,436.092 C 111.63,436.092 111.161,436.404 110.77,436.873 C 110.301,437.654 110.067,438.904 110.067,440.779 L 110.067,440.779"/>
  </g>
  <g>
    <path style="fill: none; fill-opacity:0; stroke-width: 1; stroke-linecap: round; stroke: #000000" d="M 128.422 440.483 C 128.422,439.155 128.501,438.062 128.813,437.202 C 128.969,436.421 129.36,435.796 129.985,435.327 C 130.454,434.858 131.157,434.624 132.094,434.624 C 132.641,434.624 133.188,434.78 133.735,435.015 C 134.126,435.249 134.516,435.562 134.907,436.03 C 135.141,436.499 135.376,437.124 135.61,437.749 C 135.688,438.53 135.766,439.39 135.844,440.483 C 135.766,441.812 135.688,442.905 135.454,443.687 C 135.141,444.546 134.672,445.171 134.204,445.64 C 133.579,446.108 132.876,446.343 132.094,446.343 C 130.922,446.343 130.063,445.952 129.516,445.093 C 128.735,444.233 128.422,442.671 128.422,440.483 L 128.422,440.483"/>
    <path style="fill: none; fill-opacity:0; stroke-width: 1; stroke-linecap: round; stroke: #000000" d="M 129.829 440.483 C 129.829,442.358 129.985,443.608 130.454,444.233 C 130.844,444.858 131.391,445.171 132.094,445.171 C 132.719,445.171 133.266,444.858 133.735,444.233 C 134.126,443.608 134.36,442.358 134.438,440.483 C 134.36,438.608 134.126,437.358 133.735,436.733 C 133.266,436.108 132.719,435.796 132.094,435.796 C 131.391,435.796 130.922,436.108 130.532,436.577 C 130.063,437.358 129.829,438.608 129.829,440.483 L 129.829,440.483"/>
  </g>
  <g>
    <path style="fill: none; fill-opacity:0; stroke-width: 1; stroke-linecap: round; stroke: #000000" d="M 167.473 440.735 C 167.473,439.407 167.551,438.313 167.864,437.454 C 168.02,436.673 168.411,436.048 169.036,435.579 C 169.504,435.11 170.208,434.876 171.145,434.876 C 171.692,434.876 172.239,435.032 172.786,435.267 C 173.176,435.501 173.567,435.813 173.958,436.282 C 174.192,436.751 174.426,437.376 174.661,438.001 C 174.739,438.782 174.817,439.642 174.895,440.735 C 174.817,442.063 174.739,443.157 174.504,443.938 C 174.192,444.798 173.723,445.423 173.254,445.892 C 172.629,446.36 171.926,446.595 171.145,446.595 C 169.973,446.595 169.114,446.204 168.567,445.345 C 167.786,444.485 167.473,442.923 167.473,440.735 L 167.473,440.735"/>
    <path style="fill: none; fill-opacity:0; stroke-width: 1; stroke-linecap: round; stroke: #000000" d="M 168.879 440.735 C 168.879,442.61 169.036,443.86 169.504,444.485 C 169.895,445.11 170.442,445.423 171.145,445.423 C 171.77,445.423 172.317,445.11 172.786,444.485 C 173.176,443.86 173.411,442.61 173.489,440.735 C 173.411,438.86 173.176,437.61 172.786,436.985 C 172.317,436.36 171.77,436.048 171.145,436.048 C 170.442,436.048 169.973,436.36 169.583,436.829 C 169.114,437.61 168.879,438.86 168.879,440.735 L 168.879,440.735"/>
  </g>
  <line style="fill: none; fill-opacity:0; stroke-width: 2; stroke: #000000" x1="180.379" y1="453.538" x2="180.369" y2="457.698"/>
  <line style="fill: none; fill-opacity:0; stroke-width: 2; stroke: #000000" x1="200.346" y1="453.658" x2="200.334" y2="457.818"/>
  <line style="fill: none; fill-opacity:0; stroke-width: 2; stroke: #000000" x1="220.634" y1="453.72" x2="220.624" y2="457.88"/>
  <line style="fill: none; fill-opacity:0; stroke-width: 2; stroke: #000000" x1="241.19" y1="453.72" x2="241.41" y2="458.674"/>
  <line style="fill: none; fill-opacity:0; stroke-width: 2; stroke: #000000" x1="260.952" y1="453.72" x2="260.94" y2="457.88"/>
  <line style="fill: none; fill-opacity:0; stroke-width: 2; stroke: #000000" x1="281.008" y1="453.426" x2="280.998" y2="457.586"/>
  <line style="fill: none; fill-opacity:0; stroke-width: 2; stroke: #000000" x1="301.066" y1="454.016" x2="301.056" y2="458.176"/>
  <g>
    <path style="fill: none; fill-opacity:0; stroke-width: 1; stroke-linecap: round; stroke: #000000" d="M 207.918 441.353 C 207.918,440.025 207.996,438.931 208.309,438.072 C 208.465,437.291 208.855,436.666 209.48,436.197 C 209.949,435.728 210.652,435.494 211.59,435.494 C 212.137,435.494 212.684,435.65 213.23,435.885 C 213.621,436.119 214.012,436.431 214.402,436.9 C 214.637,437.369 214.871,437.994 215.105,438.619 C 215.184,439.4 215.262,440.26 215.34,441.353 C 215.262,442.681 215.184,443.775 214.949,444.556 C 214.637,445.416 214.168,446.041 213.699,446.51 C 213.074,446.978 212.371,447.213 211.59,447.213 C 210.418,447.213 209.559,446.822 209.012,445.963 C 208.23,445.103 207.918,443.541 207.918,441.353 L 207.918,441.353"/>
    <path style="fill: none; fill-opacity:0; stroke-width: 1; stroke-linecap: round; stroke: #000000" d="M 209.324 441.353 C 209.324,443.228 209.48,444.478 209.949,445.103 C 210.34,445.728 210.887,446.041 211.59,446.041 C 212.215,446.041 212.762,445.728 213.23,445.103 C 213.621,444.478 213.855,443.228 213.934,441.353 C 213.855,439.478 213.621,438.228 213.23,437.603 C 212.762,436.978 212.215,436.666 211.59,436.666 C 210.887,436.666 210.418,436.978 210.027,437.447 C 209.559,438.228 209.324,439.478 209.324,441.353 L 209.324,441.353"/>
  </g>
  <g>
    <path style="fill: none; fill-opacity:0; stroke-width: 1; stroke-linecap: round; stroke: #000000" d="M 228.004 440.467 C 228.004,439.139 228.082,438.046 228.395,437.186 C 228.551,436.405 228.941,435.78 229.566,435.311 C 230.035,434.842 230.738,434.608 231.676,434.608 C 232.223,434.608 232.77,434.764 233.316,434.999 C 233.707,435.233 234.098,435.546 234.488,436.014 C 234.723,436.483 234.957,437.108 235.191,437.733 C 235.27,438.514 235.348,439.374 235.426,440.467 C 235.348,441.796 235.27,442.889 235.035,443.671 C 234.723,444.53 234.254,445.155 233.785,445.624 C 233.16,446.092 232.457,446.327 231.676,446.327 C 230.504,446.327 229.645,445.936 229.098,445.077 C 228.316,444.217 228.004,442.655 228.004,440.467 L 228.004,440.467"/>
    <path style="fill: none; fill-opacity:0; stroke-width: 1; stroke-linecap: round; stroke: #000000" d="M 229.41 440.467 C 229.41,442.342 229.566,443.592 230.035,444.217 C 230.426,444.842 230.973,445.155 231.676,445.155 C 232.301,445.155 232.848,444.842 233.316,444.217 C 233.707,443.592 233.941,442.342 234.02,440.467 C 233.941,438.592 233.707,437.342 233.316,436.717 C 232.848,436.092 232.301,435.78 231.676,435.78 C 230.973,435.78 230.504,436.092 230.113,436.561 C 229.645,437.342 229.41,438.592 229.41,440.467 L 229.41,440.467"/>
  </g>
  <g>
    <path style="fill: none; fill-opacity:0; stroke-width: 1; stroke-linecap: round; stroke: #000000" d="M 248.978 440.763 C 248.978,439.435 249.056,438.342 249.369,437.482 C 249.525,436.701 249.916,436.076 250.541,435.607 C 251.009,435.138 251.712,434.904 252.65,434.904 C 253.197,434.904 253.744,435.06 254.291,435.295 C 254.681,435.529 255.072,435.842 255.462,436.31 C 255.697,436.779 255.931,437.404 256.166,438.029 C 256.244,438.81 256.322,439.67 256.4,440.763 C 256.322,442.092 256.244,443.185 256.009,443.967 C 255.697,444.826 255.228,445.451 254.759,445.92 C 254.134,446.388 253.431,446.623 252.65,446.623 C 251.478,446.623 250.619,446.232 250.072,445.373 C 249.291,444.513 248.978,442.951 248.978,440.763 L 248.978,440.763"/>
    <path style="fill: none; fill-opacity:0; stroke-width: 1; stroke-linecap: round; stroke: #000000" d="M 250.384 440.763 C 250.384,442.638 250.541,443.888 251.009,444.513 C 251.4,445.138 251.947,445.451 252.65,445.451 C 253.275,445.451 253.822,445.138 254.291,444.513 C 254.681,443.888 254.916,442.638 254.994,440.763 C 254.916,438.888 254.681,437.638 254.291,437.013 C 253.822,436.388 253.275,436.076 252.65,436.076 C 251.947,436.076 251.478,436.388 251.087,436.857 C 250.619,437.638 250.384,438.888 250.384,440.763 L 250.384,440.763"/>
  </g>
  <g>
    <path style="fill: none; fill-opacity:0; stroke-width: 1; stroke-linecap: round; stroke: #000000" d="M 268.444 440.171 C 268.444,438.843 268.522,437.749 268.835,436.89 C 268.991,436.109 269.382,435.484 270.007,435.015 C 270.475,434.546 271.178,434.312 272.116,434.312 C 272.663,434.312 273.21,434.468 273.757,434.703 C 274.147,434.937 274.538,435.249 274.928,435.718 C 275.163,436.187 275.397,436.812 275.632,437.437 C 275.71,438.218 275.788,439.078 275.866,440.171 C 275.788,441.499 275.71,442.593 275.475,443.374 C 275.163,444.234 274.694,444.859 274.225,445.328 C 273.6,445.796 272.897,446.031 272.116,446.031 C 270.944,446.031 270.085,445.64 269.538,444.781 C 268.757,443.921 268.444,442.359 268.444,440.171 L 268.444,440.171"/>
    <path style="fill: none; fill-opacity:0; stroke-width: 1; stroke-linecap: round; stroke: #000000" d="M 269.85 440.171 C 269.85,442.046 270.007,443.296 270.475,443.921 C 270.866,444.546 271.413,444.859 272.116,444.859 C 272.741,444.859 273.288,444.546 273.757,443.921 C 274.147,443.296 274.382,442.046 274.46,440.171 C 274.382,438.296 274.147,437.046 273.757,436.421 C 273.288,435.796 272.741,435.484 272.116,435.484 C 271.413,435.484 270.944,435.796 270.553,436.265 C 270.085,437.046 269.85,438.296 269.85,440.171 L 269.85,440.171"/>
  </g>
  <g>
    <path style="fill: none; fill-opacity:0; stroke-width: 1; stroke-linecap: round; stroke: #000000" d="M 288.206 439.877 C 288.206,438.549 288.284,437.456 288.597,436.596 C 288.753,435.815 289.144,435.19 289.769,434.721 C 290.237,434.252 290.94,434.018 291.878,434.018 C 292.425,434.018 292.972,434.174 293.519,434.409 C 293.909,434.643 294.3,434.956 294.69,435.424 C 294.925,435.893 295.159,436.518 295.394,437.143 C 295.472,437.924 295.55,438.784 295.628,439.877 C 295.55,441.206 295.472,442.299 295.237,443.081 C 294.925,443.94 294.456,444.565 293.987,445.034 C 293.362,445.502 292.659,445.737 291.878,445.737 C 290.706,445.737 289.847,445.346 289.3,444.487 C 288.519,443.627 288.206,442.065 288.206,439.877 L 288.206,439.877"/>
    <path style="fill: none; fill-opacity:0; stroke-width: 1; stroke-linecap: round; stroke: #000000" d="M 289.612 439.877 C 289.612,441.752 289.769,443.002 290.237,443.627 C 290.628,444.252 291.175,444.565 291.878,444.565 C 292.503,444.565 293.05,444.252 293.519,443.627 C 293.909,443.002 294.144,441.752 294.222,439.877 C 294.144,438.002 293.909,436.752 293.519,436.127 C 293.05,435.502 292.503,435.19 291.878,435.19 C 291.175,435.19 290.706,435.502 290.315,435.971 C 289.847,436.752 289.612,438.002 289.612,439.877 L 289.612,439.877"/>
  </g>
  <line style="fill: none; fill-opacity:0; stroke-width: 2; stroke: #000000" x1="340.364" y1="453.616" x2="340.354" y2="457.776"/>
  <line style="fill: none; fill-opacity:0; stroke-width: 2; stroke: #000000" x1="360.33" y1="453.736" x2="360.32" y2="457.896"/>
  <line style="fill: none; fill-opacity:0; stroke-width: 2; stroke: #000000" x1="380.62" y1="453.798" x2="380.608" y2="457.958"/>
  <line style="fill: none; fill-opacity:0; stroke-width: 2; stroke: #000000" x1="401.174" y1="453.798" x2="401.164" y2="457.958"/>
  <line style="fill: none; fill-opacity:0; stroke-width: 2; stroke: #000000" x1="420.936" y1="453.798" x2="420.926" y2="457.958"/>
  <line style="fill: none; fill-opacity:0; stroke-width: 2; stroke: #000000" x1="440.994" y1="453.504" x2="440.982" y2="457.664"/>
  <line style="fill: none; fill-opacity:0; stroke-width: 2; stroke: #000000" x1="461.05" y1="454.094" x2="461.04" y2="458.254"/>
  <line style="fill: none; fill-opacity:0; stroke-width: 2; stroke: #000000" x1="502.344" y1="453.592" x2="502.334" y2="457.752"/>
  <line style="fill: none; fill-opacity:0; stroke-width: 2; stroke: #000000" x1="522.31" y1="453.714" x2="522.3" y2="457.874"/>
  <line style="fill: none; fill-opacity:0; stroke-width: 2; stroke: #000000" x1="542.6" y1="453.776" x2="542.59" y2="457.936"/>
  <line style="fill: none; fill-opacity:0; stroke-width: 2; stroke: #000000" x1="563.154" y1="453.776" x2="563.144" y2="457.936"/>
  <line style="fill: none; fill-opacity:0; stroke-width: 2; stroke: #000000" x1="582.916" y1="453.776" x2="582.906" y2="457.936"/>
  <line style="fill: none; fill-opacity:0; stroke-width: 2; stroke: #000000" x1="602.974" y1="453.48" x2="602.964" y2="457.64"/>
  <line style="fill: none; fill-opacity:0; stroke-width: 2; stroke: #000000" x1="623.03" y1="454.07" x2="623.02" y2="458.23"/>
  <line style="fill: none; fill-opacity:0; stroke-width: 2; stroke: #000000" x1="662.126" y1="452.986" x2="662.116" y2="457.146"/>
  <line style="fill: none; fill-opacity:0; stroke-width: 2; stroke: #000000" x1="682.094" y1="453.106" x2="682.082" y2="457.266"/>
  <line style="fill: none; fill-opacity:0; stroke-width: 2; stroke: #000000" x1="702.382" y1="453.168" x2="702.372" y2="457.328"/>
  <line style="fill: none; fill-opacity:0; stroke-width: 2; stroke: #000000" x1="722.616" y1="452.546" x2="721.084" y2="458.674"/>
  <line style="fill: none; fill-opacity:0; stroke-width: 2; stroke: #000000" x1="742.7" y1="453.168" x2="742.688" y2="457.328"/>
  <line style="fill: none; fill-opacity:0; stroke-width: 2; stroke: #000000" x1="762.756" y1="452.874" x2="762.746" y2="457.034"/>
  <line style="fill: none; fill-opacity:0; stroke-width: 2; stroke: #000000" x1="782.814" y1="453.464" x2="782.802" y2="457.624"/>
  <line style="fill: none; fill-opacity:0; stroke-width: 2; stroke: #000000" x1="822.112" y1="453.064" x2="822.102" y2="457.224"/>
  <line style="fill: none; fill-opacity:0; stroke-width: 2; stroke: #000000" x1="842.078" y1="453.184" x2="842.068" y2="457.344"/>
  <line style="fill: none; fill-opacity:0; stroke-width: 2; stroke: #000000" x1="862.368" y1="453.246" x2="862.356" y2="457.406"/>
  <line style="fill: none; fill-opacity:0; stroke-width: 2; stroke: #000000" x1="882.922" y1="453.246" x2="882.912" y2="457.406"/>
  <line style="fill: none; fill-opacity:0; stroke-width: 2; stroke: #000000" x1="902.684" y1="453.246" x2="902.674" y2="457.406"/>
  <line style="fill: none; fill-opacity:0; stroke-width: 2; stroke: #000000" x1="922.742" y1="452.952" x2="922.73" y2="457.112"/>
  <line style="fill: none; fill-opacity:0; stroke-width: 2; stroke: #000000" x1="942.798" y1="453.542" x2="942.788" y2="457.702"/>
  <g>
    <path style="fill: none; fill-opacity:0; stroke-width: 1; stroke-linecap: round; stroke: #000000" d="M 187.786 441.335 C 187.786,440.007 187.864,438.914 188.176,438.054 C 188.332,437.273 188.723,436.648 189.348,436.179 C 189.817,435.71 190.52,435.476 191.457,435.476 C 192.004,435.476 192.551,435.632 193.098,435.867 C 193.489,436.101 193.879,436.414 194.27,436.882 C 194.504,437.351 194.739,437.976 194.973,438.601 C 195.051,439.382 195.129,440.242 195.207,441.335 C 195.129,442.664 195.051,443.757 194.817,444.539 C 194.504,445.398 194.036,446.023 193.567,446.492 C 192.942,446.96 192.239,447.195 191.457,447.195 C 190.286,447.195 189.426,446.804 188.879,445.945 C 188.098,445.085 187.786,443.523 187.786,441.335 L 187.786,441.335"/>
    <path style="fill: none; fill-opacity:0; stroke-width: 1; stroke-linecap: round; stroke: #000000" d="M 189.192 441.335 C 189.192,443.21 189.348,444.46 189.817,445.085 C 190.207,445.71 190.754,446.023 191.457,446.023 C 192.082,446.023 192.629,445.71 193.098,445.085 C 193.489,444.46 193.723,443.21 193.801,441.335 C 193.723,439.46 193.489,438.21 193.098,437.585 C 192.629,436.96 192.082,436.648 191.457,436.648 C 190.754,436.648 190.286,436.96 189.895,437.429 C 189.426,438.21 189.192,439.46 189.192,441.335 L 189.192,441.335"/>
  </g>
  <g>
    <path style="fill: none; fill-opacity:0; stroke-width: 1; stroke-linecap: round; stroke: #000000" d="M 306.99 440.749 C 306.99,439.421 307.068,438.327 307.381,437.468 C 307.537,436.687 307.928,436.062 308.553,435.593 C 309.021,435.124 309.724,434.89 310.662,434.89 C 311.209,434.89 311.756,435.046 312.303,435.281 C 312.693,435.515 313.084,435.827 313.474,436.296 C 313.709,436.765 313.943,437.39 314.178,438.015 C 314.256,438.796 314.334,439.656 314.412,440.749 C 314.334,442.077 314.256,443.171 314.021,443.952 C 313.709,444.812 313.24,445.437 312.771,445.906 C 312.146,446.374 311.443,446.609 310.662,446.609 C 309.49,446.609 308.631,446.218 308.084,445.359 C 307.303,444.499 306.99,442.937 306.99,440.749 L 306.99,440.749"/>
    <path style="fill: none; fill-opacity:0; stroke-width: 1; stroke-linecap: round; stroke: #000000" d="M 308.396 440.749 C 308.396,442.624 308.553,443.874 309.021,444.499 C 309.412,445.124 309.959,445.437 310.662,445.437 C 311.287,445.437 311.834,445.124 312.303,444.499 C 312.693,443.874 312.928,442.624 313.006,440.749 C 312.928,438.874 312.693,437.624 312.303,436.999 C 311.834,436.374 311.287,436.062 310.662,436.062 C 309.959,436.062 309.49,436.374 309.099,436.843 C 308.631,437.624 308.396,438.874 308.396,440.749 L 308.396,440.749"/>
  </g>
  <g>
    <path style="fill: none; fill-opacity:0; stroke-width: 1; stroke-linecap: round; stroke: #000000" d="M 327.896 441.939 C 327.896,440.611 327.974,439.517 328.287,438.658 C 328.443,437.877 328.834,437.252 329.459,436.783 C 329.927,436.314 330.63,436.08 331.568,436.08 C 332.115,436.08 332.662,436.236 333.209,436.471 C 333.599,436.705 333.99,437.017 334.38,437.486 C 334.615,437.955 334.849,438.58 335.084,439.205 C 335.162,439.986 335.24,440.846 335.318,441.939 C 335.24,443.267 335.162,444.361 334.927,445.142 C 334.615,446.002 334.146,446.627 333.677,447.096 C 333.052,447.564 332.349,447.799 331.568,447.799 C 330.396,447.799 329.537,447.408 328.99,446.549 C 328.209,445.689 327.896,444.127 327.896,441.939 L 327.896,441.939"/>
    <path style="fill: none; fill-opacity:0; stroke-width: 1; stroke-linecap: round; stroke: #000000" d="M 329.302 441.939 C 329.302,443.814 329.459,445.064 329.927,445.689 C 330.318,446.314 330.865,446.627 331.568,446.627 C 332.193,446.627 332.74,446.314 333.209,445.689 C 333.599,445.064 333.834,443.814 333.912,441.939 C 333.834,440.064 333.599,438.814 333.209,438.189 C 332.74,437.564 332.193,437.252 331.568,437.252 C 330.865,437.252 330.396,437.564 330.005,438.033 C 329.537,438.814 329.302,440.064 329.302,441.939 L 329.302,441.939"/>
  </g>
  <g>
    <path style="fill: none; fill-opacity:0; stroke-width: 1; stroke-linecap: round; stroke: #000000" d="M 366.946 442.191 C 366.946,440.863 367.024,439.769 367.337,438.91 C 367.493,438.129 367.884,437.504 368.509,437.035 C 368.977,436.566 369.68,436.332 370.618,436.332 C 371.165,436.332 371.712,436.488 372.259,436.723 C 372.649,436.957 373.04,437.269 373.43,437.738 C 373.665,438.207 373.899,438.832 374.134,439.457 C 374.212,440.238 374.29,441.098 374.368,442.191 C 374.29,443.519 374.212,444.613 373.977,445.394 C 373.665,446.254 373.196,446.879 372.727,447.348 C 372.102,447.816 371.399,448.051 370.618,448.051 C 369.446,448.051 368.587,447.66 368.04,446.801 C 367.259,445.941 366.946,444.379 366.946,442.191 L 366.946,442.191"/>
    <path style="fill: none; fill-opacity:0; stroke-width: 1; stroke-linecap: round; stroke: #000000" d="M 368.352 442.191 C 368.352,444.066 368.509,445.316 368.977,445.941 C 369.368,446.566 369.915,446.879 370.618,446.879 C 371.243,446.879 371.79,446.566 372.259,445.941 C 372.649,445.316 372.884,444.066 372.962,442.191 C 372.884,440.316 372.649,439.066 372.259,438.441 C 371.79,437.816 371.243,437.504 370.618,437.504 C 369.915,437.504 369.446,437.816 369.055,438.285 C 368.587,439.066 368.352,440.316 368.352,442.191 L 368.352,442.191"/>
  </g>
  <g>
    <path style="fill: none; fill-opacity:0; stroke-width: 1; stroke-linecap: round; stroke: #000000" d="M 466.82 442.511 C 466.82,441.183 466.898,440.089 467.211,439.23 C 467.367,438.449 467.758,437.824 468.383,437.355 C 468.851,436.886 469.554,436.652 470.492,436.652 C 471.039,436.652 471.586,436.808 472.133,437.043 C 472.523,437.277 472.914,437.589 473.304,438.058 C 473.539,438.527 473.773,439.152 474.008,439.777 C 474.086,440.558 474.164,441.418 474.242,442.511 C 474.164,443.839 474.086,444.933 473.851,445.714 C 473.539,446.574 473.07,447.199 472.601,447.668 C 471.976,448.136 471.273,448.371 470.492,448.371 C 469.32,448.371 468.461,447.98 467.914,447.121 C 467.133,446.261 466.82,444.699 466.82,442.511 L 466.82,442.511"/>
    <path style="fill: none; fill-opacity:0; stroke-width: 1; stroke-linecap: round; stroke: #000000" d="M 468.226 442.511 C 468.226,444.386 468.383,445.636 468.851,446.261 C 469.242,446.886 469.789,447.199 470.492,447.199 C 471.117,447.199 471.664,446.886 472.133,446.261 C 472.523,445.636 472.758,444.386 472.836,442.511 C 472.758,440.636 472.523,439.386 472.133,438.761 C 471.664,438.136 471.117,437.824 470.492,437.824 C 469.789,437.824 469.32,438.136 468.929,438.605 C 468.461,439.386 468.226,440.636 468.226,442.511 L 468.226,442.511"/>
  </g>
  <path style="fill: none; fill-opacity:0; stroke-width: 1; stroke-linecap: round; stroke: #000000" d="M 352.667 449.31 L 351.26,449.31 L 351.26,440.326 C 350.87,440.717 350.401,441.029 349.932,441.342 C 349.307,441.654 348.839,441.889 348.448,442.045 L 348.448,440.717 C 349.151,440.404 349.854,439.935 350.479,439.31 C 351.104,438.842 351.495,438.295 351.807,437.826 L 352.667,437.826 L 352.667,449.31"/>
  <path style="fill: none; fill-opacity:0; stroke-width: 1; stroke-linecap: round; stroke: #000000" d="M 393.067 449.896 L 391.66,449.896 L 391.66,440.912 C 391.27,441.303 390.801,441.615 390.332,441.928 C 389.707,442.24 389.239,442.475 388.848,442.631 L 388.848,441.303 C 389.551,440.99 390.254,440.521 390.879,439.896 C 391.504,439.428 391.895,438.881 392.207,438.412 L 393.067,438.412 L 393.067,449.896"/>
  <path style="fill: none; fill-opacity:0; stroke-width: 1; stroke-linecap: round; stroke: #000000" d="M 411.799 448.722 L 410.393,448.722 L 410.393,439.738 C 410.002,440.129 409.533,440.441 409.064,440.754 C 408.439,441.066 407.971,441.3 407.58,441.457 L 407.58,440.129 C 408.283,439.816 408.986,439.347 409.611,438.722 C 410.236,438.254 410.627,437.707 410.939,437.238 L 411.799,437.238 L 411.799,448.722"/>
  <path style="fill: none; fill-opacity:0; stroke-width: 1; stroke-linecap: round; stroke: #000000" d="M 431.647 448.722 L 430.241,448.722 L 430.241,439.738 C 429.85,440.129 429.381,440.441 428.912,440.754 C 428.287,441.066 427.819,441.3 427.428,441.457 L 427.428,440.129 C 428.131,439.816 428.834,439.347 429.459,438.722 C 430.084,438.254 430.475,437.707 430.787,437.238 L 431.647,437.238 L 431.647,448.722"/>
  <path style="fill: none; fill-opacity:0; stroke-width: 1; stroke-linecap: round; stroke: #000000" d="M 453.315 448.722 L 451.909,448.722 L 451.909,439.738 C 451.518,440.129 451.049,440.441 450.58,440.754 C 449.955,441.066 449.487,441.3 449.096,441.457 L 449.096,440.129 C 449.799,439.816 450.502,439.347 451.127,438.722 C 451.752,438.254 452.143,437.707 452.455,437.238 L 453.315,437.238 L 453.315,448.722"/>
  <g>
    <rect style="fill: #ffffff" x="321.042" y="276.538" width="639.749" height="38"/>
    <rect style="fill: none; fill-opacity:0; stroke-width: 2; stroke-linecap: round; stroke: #000000" x="321.042" y="276.538" width="639.749" height="38"/>
    <text font-size="12.8" style="fill: #000000;text-anchor:middle;font-family:monospace;font-style:normal;font-weight:normal" x="640.917" y="299.438">
      <tspan x="640.917" y="299.438"></tspan>
    </text>
  </g>
  <line style="fill: none; fill-opacity:0; stroke-width: 2; stroke: #000000" x1="480.98" y1="276.538" x2="480.98" y2="314.538"/>
  <line style="fill: none; fill-opacity:0; stroke-width: 2; stroke: #000000" x1="640.918" y1="276.538" x2="640.918" y2="314.538"/>
  <line style="fill: none; fill-opacity:0; stroke-width: 2; stroke: #000000" x1="800.854" y1="276.538" x2="800.854" y2="314.538"/>
  <line style="fill: none; fill-opacity:0; stroke-width: 2; stroke: #000000" x1="340.064" y1="310.006" x2="340.054" y2="314.166"/>
  <line style="fill: none; fill-opacity:0; stroke-width: 2; stroke: #000000" x1="360.03" y1="310.128" x2="360.02" y2="314.288"/>
  <line style="fill: none; fill-opacity:0; stroke-width: 2; stroke: #000000" x1="380.32" y1="310.19" x2="380.31" y2="314.35"/>
  <line style="fill: none; fill-opacity:0; stroke-width: 2; stroke: #000000" x1="400.874" y1="310.19" x2="400.864" y2="314.35"/>
  <line style="fill: none; fill-opacity:0; stroke-width: 2; stroke: #000000" x1="420.636" y1="310.19" x2="420.626" y2="314.35"/>
  <line style="fill: none; fill-opacity:0; stroke-width: 2; stroke: #000000" x1="440.694" y1="309.894" x2="440.684" y2="314.054"/>
  <line style="fill: none; fill-opacity:0; stroke-width: 2; stroke: #000000" x1="460.75" y1="310.486" x2="460.74" y2="314.646"/>
  <line style="fill: none; fill-opacity:0; stroke-width: 2; stroke: #000000" x1="499.846" y1="309.4" x2="499.836" y2="313.56"/>
  <line style="fill: none; fill-opacity:0; stroke-width: 2; stroke: #000000" x1="519.814" y1="309.52" x2="519.802" y2="313.68"/>
  <line style="fill: none; fill-opacity:0; stroke-width: 2; stroke: #000000" x1="540.102" y1="309.584" x2="540.092" y2="313.744"/>
  <line style="fill: none; fill-opacity:0; stroke-width: 2; stroke: #000000" x1="560.658" y1="309.584" x2="560.648" y2="313.744"/>
  <line style="fill: none; fill-opacity:0; stroke-width: 2; stroke: #000000" x1="580.42" y1="309.584" x2="580.408" y2="313.744"/>
  <line style="fill: none; fill-opacity:0; stroke-width: 2; stroke: #000000" x1="600.476" y1="309.288" x2="600.466" y2="313.448"/>
  <line style="fill: none; fill-opacity:0; stroke-width: 2; stroke: #000000" x1="620.534" y1="309.878" x2="620.522" y2="314.038"/>
  <line style="fill: none; fill-opacity:0; stroke-width: 2; stroke: #000000" x1="659.832" y1="309.478" x2="659.822" y2="313.638"/>
  <line style="fill: none; fill-opacity:0; stroke-width: 2; stroke: #000000" x1="679.798" y1="309.6" x2="679.788" y2="313.76"/>
  <line style="fill: none; fill-opacity:0; stroke-width: 2; stroke: #000000" x1="700.088" y1="309.662" x2="700.076" y2="313.822"/>
  <line style="fill: none; fill-opacity:0; stroke-width: 2; stroke: #000000" x1="720.642" y1="309.662" x2="720.632" y2="313.822"/>
  <line style="fill: none; fill-opacity:0; stroke-width: 2; stroke: #000000" x1="740.404" y1="309.662" x2="740.394" y2="313.822"/>
  <line style="fill: none; fill-opacity:0; stroke-width: 2; stroke: #000000" x1="760.462" y1="309.366" x2="760.45" y2="313.526"/>
  <line style="fill: none; fill-opacity:0; stroke-width: 2; stroke: #000000" x1="780.518" y1="309.956" x2="780.508" y2="314.116"/>
  <line style="fill: none; fill-opacity:0; stroke-width: 2; stroke: #000000" x1="820.816" y1="309.374" x2="820.806" y2="313.534"/>
  <line style="fill: none; fill-opacity:0; stroke-width: 2; stroke: #000000" x1="840.782" y1="309.496" x2="840.772" y2="313.656"/>
  <line style="fill: none; fill-opacity:0; stroke-width: 2; stroke: #000000" x1="861.07" y1="309.558" x2="861.06" y2="313.718"/>
  <line style="fill: none; fill-opacity:0; stroke-width: 2; stroke: #000000" x1="881.626" y1="309.558" x2="881.616" y2="313.718"/>
  <line style="fill: none; fill-opacity:0; stroke-width: 2; stroke: #000000" x1="901.388" y1="309.558" x2="901.378" y2="313.718"/>
  <line style="fill: none; fill-opacity:0; stroke-width: 2; stroke: #000000" x1="921.444" y1="309.262" x2="921.434" y2="313.422"/>
  <line style="fill: none; fill-opacity:0; stroke-width: 2; stroke: #000000" x1="941.502" y1="309.852" x2="941.492" y2="314.012"/>
  <path style="fill: none; fill-opacity:0; stroke-width: 1; stroke-linecap: round; stroke: #000000" d="M 334.201 302.04 L 332.794,302.04 L 332.794,293.056 C 332.404,293.447 331.935,293.759 331.466,294.072 C 330.841,294.384 330.373,294.618 329.982,294.775 L 329.982,293.447 C 330.685,293.134 331.388,292.665 332.013,292.04 C 332.638,291.572 333.029,291.025 333.341,290.556 L 334.201,290.556 L 334.201,302.04"/>
  <path style="fill: none; fill-opacity:0; stroke-width: 1; stroke-linecap: round; stroke: #000000" d="M 352.347 303.802 L 350.941,303.802 L 350.941,294.818 C 350.55,295.209 350.081,295.521 349.612,295.834 C 348.987,296.146 348.519,296.38 348.128,296.537 L 348.128,295.209 C 348.831,294.896 349.534,294.427 350.159,293.802 C 350.784,293.334 351.175,292.787 351.487,292.318 L 352.347,292.318 L 352.347,303.802"/>
  <path style="fill: none; fill-opacity:0; stroke-width: 1; stroke-linecap: round; stroke: #000000" d="M 370.491 302.04 L 369.085,302.04 L 369.085,293.056 C 368.694,293.447 368.225,293.759 367.756,294.072 C 367.131,294.384 366.663,294.618 366.272,294.775 L 366.272,293.447 C 366.975,293.134 367.678,292.665 368.303,292.04 C 368.928,291.572 369.319,291.025 369.631,290.556 L 370.491,290.556 L 370.491,302.04"/>
  <g>
    <path style="fill: none; fill-opacity:0; stroke-width: 1; stroke-linecap: round; stroke: #000000" d="M 386.942 297.003 C 386.942,295.675 387.02,294.582 387.333,293.722 C 387.489,292.941 387.88,292.316 388.505,291.847 C 388.973,291.378 389.676,291.144 390.614,291.144 C 391.161,291.144 391.708,291.3 392.255,291.535 C 392.645,291.769 393.036,292.082 393.426,292.55 C 393.661,293.019 393.895,293.644 394.13,294.269 C 394.208,295.05 394.286,295.91 394.364,297.003 C 394.286,298.332 394.208,299.425 393.973,300.207 C 393.661,301.066 393.192,301.691 392.723,302.16 C 392.098,302.628 391.395,302.863 390.614,302.863 C 389.442,302.863 388.583,302.472 388.036,301.613 C 387.255,300.753 386.942,299.191 386.942,297.003 L 386.942,297.003"/>
    <path style="fill: none; fill-opacity:0; stroke-width: 1; stroke-linecap: round; stroke: #000000" d="M 388.348 297.003 C 388.348,298.878 388.505,300.128 388.973,300.753 C 389.364,301.378 389.911,301.691 390.614,301.691 C 391.239,301.691 391.786,301.378 392.255,300.753 C 392.645,300.128 392.88,298.878 392.958,297.003 C 392.88,295.128 392.645,293.878 392.255,293.253 C 391.786,292.628 391.239,292.316 390.614,292.316 C 389.911,292.316 389.442,292.628 389.051,293.097 C 388.583,293.878 388.348,295.128 388.348,297.003 L 388.348,297.003"/>
  </g>
  <g>
    <path style="fill: none; fill-opacity:0; stroke-width: 1; stroke-linecap: round; stroke: #000000" d="M 320 260.009 C 320,258.681 320.078,257.587 320.391,256.728 C 320.547,255.947 320.938,255.322 321.563,254.853 C 322.031,254.384 322.734,254.15 323.672,254.15 C 324.219,254.15 324.766,254.306 325.313,254.541 C 325.703,254.775 326.094,255.087 326.484,255.556 C 326.719,256.025 326.953,256.65 327.188,257.275 C 327.266,258.056 327.344,258.916 327.422,260.009 C 327.344,261.337 327.266,262.431 327.031,263.212 C 326.719,264.072 326.25,264.697 325.781,265.166 C 325.156,265.634 324.453,265.869 323.672,265.869 C 322.5,265.869 321.641,265.478 321.094,264.619 C 320.313,263.759 320,262.197 320,260.009 L 320,260.009"/>
    <path style="fill: none; fill-opacity:0; stroke-width: 1; stroke-linecap: round; stroke: #000000" d="M 321.406 260.009 C 321.406,261.884 321.563,263.134 322.031,263.759 C 322.422,264.384 322.969,264.697 323.672,264.697 C 324.297,264.697 324.844,264.384 325.313,263.759 C 325.703,263.134 325.938,261.884 326.016,260.009 C 325.938,258.134 325.703,256.884 325.313,256.259 C 324.844,255.634 324.297,255.322 323.672,255.322 C 322.969,255.322 322.5,255.634 322.109,256.103 C 321.641,256.884 321.406,258.134 321.406,260.009 L 321.406,260.009"/>
  </g>
  <path style="fill: none; fill-opacity:0; stroke-width: 1; stroke-linecap: round; stroke: #000000" d="M 469.738 259.078 L 469.738,257.672 L 477.16,257.672 L 477.16,258.766 C 476.379,259.625 475.597,260.641 474.972,261.891 C 474.191,263.219 473.644,264.547 473.332,265.875 C 472.941,266.891 472.785,267.906 472.785,269 L 471.3,269 C 471.3,268.141 471.457,267.125 471.847,265.797 C 472.16,264.547 472.629,263.297 473.332,262.047 C 473.879,260.953 474.582,259.938 475.363,259.078 L 469.738,259.078"/>
  <g>
    <path style="fill: none; fill-opacity:0; stroke-width: 1; stroke-linecap: round; stroke: #000000" d="M 486.606 262.906 C 485.981,262.75 485.512,262.438 485.277,262.047 C 484.965,261.656 484.809,261.188 484.887,260.641 C 484.809,259.859 485.121,259.156 485.746,258.531 C 486.293,257.984 487.074,257.672 488.168,257.672 C 489.106,257.672 489.965,257.984 490.59,258.531 C 491.215,259.156 491.527,259.859 491.527,260.641 C 491.527,261.188 491.371,261.656 491.059,262.047 C 490.746,262.438 490.277,262.75 489.809,262.906 C 490.434,263.219 490.981,263.609 491.449,264.078 C 491.762,264.625 491.996,265.172 491.996,265.875 C 491.996,266.891 491.606,267.75 490.902,268.375 C 490.199,269.078 489.34,269.391 488.246,269.391 C 487.074,269.391 486.137,269.078 485.434,268.375 C 484.731,267.75 484.34,266.891 484.418,265.875 C 484.34,265.094 484.574,264.469 484.965,264 C 485.356,263.531 485.902,263.219 486.606,262.906 L 486.606,262.906"/>
    <path style="fill: none; fill-opacity:0; stroke-width: 1; stroke-linecap: round; stroke: #000000" d="M 486.371 260.563 C 486.371,261.188 486.527,261.578 486.84,261.891 C 487.152,262.281 487.621,262.516 488.246,262.438 C 488.715,262.516 489.106,262.281 489.496,261.891 C 489.809,261.578 489.965,261.188 490.043,260.641 C 489.965,260.172 489.809,259.781 489.496,259.391 C 489.106,259.078 488.715,258.844 488.246,258.844 C 487.621,258.844 487.152,259.078 486.84,259.391 C 486.527,259.781 486.371,260.172 486.371,260.563 L 486.371,260.563"/>
    <path style="fill: none; fill-opacity:0; stroke-width: 1; stroke-linecap: round; stroke: #000000" d="M 485.902 265.875 C 485.902,266.266 485.981,266.656 486.137,267.047 C 486.293,267.438 486.527,267.75 486.996,267.906 C 487.309,268.141 487.777,268.219 488.246,268.219 C 488.871,268.219 489.418,268.063 489.887,267.594 C 490.356,267.203 490.59,266.578 490.59,265.875 C 490.59,265.25 490.356,264.703 489.887,264.234 C 489.418,263.766 488.793,263.531 488.168,263.531 C 487.465,263.531 486.918,263.766 486.527,264.234 C 486.059,264.703 485.902,265.25 485.902,265.875 L 485.902,265.875"/>
  </g>
  <g>
    <path style="fill: none; fill-opacity:0; stroke-width: 1; stroke-linecap: round; stroke: #000000" d="M 625.399 268.57 L 623.993,268.57 L 623.993,259.586 C 623.602,259.977 623.133,260.289 622.664,260.602 C 622.039,260.914 621.571,261.149 621.18,261.305 L 621.18,259.977 C 621.883,259.664 622.586,259.195 623.211,258.57 C 623.836,258.102 624.227,257.555 624.539,257.086 L 625.399,257.086 L 625.399,268.57"/>
    <path style="fill: none; fill-opacity:0; stroke-width: 1; stroke-linecap: round; stroke: #000000" d="M 629.071 265.602 L 630.477,265.445 C 630.633,266.227 630.868,266.774 631.258,267.086 C 631.649,267.477 632.118,267.633 632.743,267.633 C 633.368,267.633 633.993,267.399 634.461,266.852 C 634.93,266.383 635.164,265.68 635.164,264.82 C 635.164,264.039 634.93,263.414 634.461,262.945 C 633.993,262.477 633.368,262.242 632.664,262.242 C 632.196,262.242 631.805,262.399 631.493,262.555 C 631.102,262.867 630.789,263.102 630.633,263.336 L 629.305,263.18 L 630.399,257.242 L 636.102,257.242 L 636.102,258.649 L 631.493,258.649 L 630.868,261.695 C 631.493,261.305 632.274,261.07 633.055,260.992 C 633.993,261.07 634.774,261.383 635.555,262.008 C 636.18,262.711 636.571,263.649 636.649,264.664 C 636.571,265.758 636.258,266.617 635.711,267.399 C 634.93,268.336 633.914,268.805 632.743,268.805 C 631.649,268.805 630.789,268.57 630.164,267.945 C 629.383,267.399 629.071,266.617 629.071,265.602 L 629.071,265.602"/>
  </g>
  <g>
    <path style="fill: none; fill-opacity:0; stroke-width: 1; stroke-linecap: round; stroke: #000000" d="M 646.479 269.744 L 645.072,269.744 L 645.072,260.76 C 644.682,261.151 644.213,261.463 643.744,261.776 C 643.119,262.088 642.651,262.322 642.26,262.479 L 642.26,261.151 C 642.963,260.838 643.666,260.369 644.291,259.744 C 644.916,259.276 645.307,258.729 645.619,258.26 L 646.479,258.26 L 646.479,269.744"/>
    <path style="fill: none; fill-opacity:0; stroke-width: 1; stroke-linecap: round; stroke: #000000" d="M 657.416 261.072 L 656.01,261.229 C 655.854,260.682 655.619,260.291 655.463,259.979 C 654.994,259.666 654.526,259.432 654.057,259.432 C 653.588,259.432 653.197,259.588 652.885,259.744 C 652.416,260.213 652.104,260.682 651.869,261.229 C 651.557,261.854 651.401,262.713 651.479,263.807 C 651.713,263.338 652.104,262.947 652.651,262.713 C 653.119,262.479 653.666,262.401 654.213,262.322 C 655.072,262.401 655.854,262.713 656.635,263.338 C 657.26,264.041 657.651,264.901 657.651,265.994 C 657.651,266.776 657.494,267.479 657.182,268.026 C 656.869,268.729 656.401,269.197 655.854,269.51 C 655.307,269.822 654.682,269.979 654.057,269.979 C 652.807,269.979 651.869,269.588 651.166,268.651 C 650.385,267.869 649.994,266.385 650.072,264.354 C 649.994,262.166 650.385,260.604 651.244,259.588 C 651.869,258.729 652.885,258.26 654.135,258.26 C 655.072,258.26 655.776,258.572 656.401,259.041 C 656.869,259.588 657.26,260.213 657.416,261.072 L 657.416,261.072"/>
    <path style="fill: none; fill-opacity:0; stroke-width: 1; stroke-linecap: round; stroke: #000000" d="M 651.635 265.994 C 651.557,266.541 651.635,267.088 651.947,267.479 C 652.104,267.947 652.416,268.26 652.807,268.494 C 653.197,268.729 653.588,268.807 653.979,268.807 C 654.526,268.807 655.072,268.572 655.541,268.104 C 655.932,267.635 656.088,267.01 656.166,266.072 C 656.088,265.369 655.932,264.744 655.541,264.276 C 655.072,263.885 654.526,263.651 653.979,263.572 C 653.276,263.651 652.729,263.885 652.26,264.276 C 651.791,264.744 651.557,265.291 651.635,265.994 L 651.635,265.994"/>
  </g>
  <g>
    <path style="fill: none; fill-opacity:0; stroke-width: 1; stroke-linecap: round; stroke: #000000" d="M 789.536 267.828 L 789.536,269.156 L 781.958,269.156 C 781.958,268.844 781.958,268.531 782.114,268.141 C 782.271,267.75 782.583,267.281 783.052,266.656 C 783.364,266.188 783.989,265.563 784.927,264.938 C 786.099,263.922 786.958,263.141 787.427,262.516 C 787.817,261.969 788.052,261.422 788.052,260.797 C 788.052,260.328 787.817,259.859 787.427,259.391 C 787.036,259.078 786.567,258.844 785.942,258.844 C 785.239,258.844 784.692,259.078 784.302,259.469 C 783.833,259.859 783.599,260.406 783.677,261.109 L 782.271,260.953 C 782.349,259.859 782.739,259.078 783.364,258.531 C 783.989,257.984 784.849,257.672 785.942,257.672 C 787.036,257.672 787.896,257.984 788.521,258.609 C 789.146,259.234 789.458,260.016 789.536,260.797 C 789.458,261.344 789.38,261.813 789.224,262.203 C 789.067,262.672 788.755,263.141 788.286,263.609 C 787.817,264.156 787.114,264.781 786.177,265.563 C 785.239,266.344 784.614,266.813 784.458,267.047 C 784.146,267.359 783.989,267.672 783.911,267.828 L 789.536,267.828"/>
    <path style="fill: none; fill-opacity:0; stroke-width: 1; stroke-linecap: round; stroke: #000000" d="M 791.099 266.109 L 792.505,265.953 C 792.661,266.813 792.896,267.359 793.286,267.672 C 793.677,268.063 794.146,268.219 794.692,268.219 C 795.317,268.219 795.864,267.984 796.411,267.516 C 796.802,267.047 797.036,266.5 797.114,265.797 C 797.036,265.25 796.802,264.703 796.411,264.234 C 795.942,263.844 795.474,263.688 794.849,263.609 C 794.536,263.688 794.146,263.688 793.833,263.766 L 793.989,262.516 C 794.067,262.594 794.146,262.594 794.224,262.516 C 794.771,262.594 795.317,262.438 795.864,262.047 C 796.255,261.813 796.489,261.344 796.567,260.563 C 796.489,260.172 796.333,259.781 796.021,259.391 C 795.708,259.078 795.239,258.844 794.692,258.844 C 794.067,258.844 793.599,259.078 793.286,259.391 C 792.896,259.781 792.661,260.25 792.583,260.875 L 791.177,260.641 C 791.333,259.781 791.724,259.078 792.349,258.453 C 792.896,257.984 793.677,257.672 794.692,257.672 C 795.239,257.672 795.786,257.828 796.411,258.063 C 796.88,258.375 797.271,258.766 797.583,259.156 C 797.739,259.703 797.896,260.172 797.974,260.641 C 797.896,261.188 797.739,261.656 797.583,261.969 C 797.271,262.438 796.88,262.75 796.411,262.984 C 797.036,263.219 797.583,263.531 797.974,263.922 C 798.364,264.469 798.599,265.094 798.599,265.797 C 798.599,266.813 798.208,267.672 797.505,268.375 C 796.724,269.078 795.786,269.391 794.692,269.391 C 793.677,269.391 792.817,269.156 792.192,268.531 C 791.411,267.984 791.099,267.125 791.099,266.109 L 791.099,266.109"/>
  </g>
  <g>
    <path style="fill: none; fill-opacity:0; stroke-width: 1; stroke-linecap: round; stroke: #000000" d="M 812.966 269.002 L 812.966,270.33 L 805.388,270.33 C 805.388,270.018 805.388,269.705 805.544,269.315 C 805.7,268.924 806.013,268.455 806.482,267.83 C 806.794,267.362 807.419,266.737 808.357,266.112 C 809.529,265.096 810.388,264.315 810.857,263.69 C 811.247,263.143 811.482,262.596 811.482,261.971 C 811.482,261.502 811.247,261.034 810.857,260.565 C 810.466,260.252 809.997,260.018 809.372,260.018 C 808.669,260.018 808.122,260.252 807.732,260.643 C 807.263,261.034 807.029,261.58 807.107,262.284 L 805.7,262.127 C 805.779,261.034 806.169,260.252 806.794,259.705 C 807.419,259.159 808.279,258.846 809.372,258.846 C 810.466,258.846 811.325,259.159 811.95,259.784 C 812.575,260.409 812.888,261.19 812.966,261.971 C 812.888,262.518 812.81,262.987 812.654,263.377 C 812.497,263.846 812.185,264.315 811.716,264.784 C 811.247,265.33 810.544,265.955 809.607,266.737 C 808.669,267.518 808.044,267.987 807.888,268.221 C 807.575,268.534 807.419,268.846 807.341,269.002 L 812.966,269.002"/>
    <path style="fill: none; fill-opacity:0; stroke-width: 1; stroke-linecap: round; stroke: #000000" d="M 818.982 270.33 L 818.982,267.596 L 814.06,267.596 L 814.06,266.268 L 819.294,258.846 L 820.388,258.846 L 820.388,266.268 L 821.95,266.268 L 821.95,267.596 L 820.388,267.596 L 820.388,270.33 L 818.982,270.33"/>
    <path style="fill: none; fill-opacity:0; stroke-width: 1; stroke-linecap: round; stroke: #000000" d="M 818.982 266.268 L 818.982,261.112 L 815.388,266.268 L 818.982,266.268"/>
  </g>
  <g>
    <path style="fill: none; fill-opacity:0; stroke-width: 1; stroke-linecap: round; stroke: #000000" d="M 947.14 268.459 L 948.546,268.303 C 948.702,269.163 948.937,269.709 949.327,270.022 C 949.718,270.413 950.187,270.569 950.734,270.569 C 951.359,270.569 951.906,270.334 952.452,269.866 C 952.843,269.397 953.077,268.85 953.156,268.147 C 953.077,267.6 952.843,267.053 952.452,266.584 C 951.984,266.194 951.515,266.038 950.89,265.959 C 950.577,266.038 950.187,266.038 949.874,266.116 L 950.031,264.866 C 950.109,264.944 950.187,264.944 950.265,264.866 C 950.812,264.944 951.359,264.788 951.906,264.397 C 952.296,264.163 952.531,263.694 952.609,262.913 C 952.531,262.522 952.374,262.131 952.062,261.741 C 951.749,261.428 951.281,261.194 950.734,261.194 C 950.109,261.194 949.64,261.428 949.327,261.741 C 948.937,262.131 948.702,262.6 948.624,263.225 L 947.218,262.991 C 947.374,262.131 947.765,261.428 948.39,260.803 C 948.937,260.334 949.718,260.022 950.734,260.022 C 951.281,260.022 951.827,260.178 952.452,260.413 C 952.921,260.725 953.312,261.116 953.624,261.506 C 953.781,262.053 953.937,262.522 954.015,262.991 C 953.937,263.538 953.781,264.006 953.624,264.319 C 953.312,264.788 952.921,265.1 952.452,265.334 C 953.077,265.569 953.624,265.881 954.015,266.272 C 954.406,266.819 954.64,267.444 954.64,268.147 C 954.64,269.163 954.249,270.022 953.546,270.725 C 952.765,271.428 951.827,271.741 950.734,271.741 C 949.718,271.741 948.859,271.506 948.234,270.881 C 947.452,270.334 947.14,269.475 947.14,268.459 L 947.14,268.459"/>
    <path style="fill: none; fill-opacity:0; stroke-width: 1; stroke-linecap: round; stroke: #000000" d="M 961.281 271.506 L 959.874,271.506 L 959.874,262.522 C 959.484,262.913 959.015,263.225 958.546,263.538 C 957.921,263.85 957.452,264.084 957.062,264.241 L 957.062,262.913 C 957.765,262.6 958.468,262.131 959.093,261.506 C 959.718,261.038 960.109,260.491 960.421,260.022 L 961.281,260.022 L 961.281,271.506"/>
  </g>
  <g>
    <line style="fill: none; fill-opacity:0; stroke-width: 1; stroke-dasharray: 4; stroke: #000000" x1="499.11" y1="322.908" x2="499.11" y2="405.878"/>
    <polygon style="fill: #000000" points="494.11,405.878 499.11,415.878 504.11,405.878 "/>
    <polygon style="fill: none; fill-opacity:0; stroke-width: 1; stroke: #000000" points="494.11,405.878 499.11,415.878 504.11,405.878 "/>
  </g>
  <g>
    <path style="fill: none; fill-opacity:0; stroke-width: 1; stroke-linecap: round; stroke: #000000" d="M 488.04 441.891 C 488.04,440.563 488.118,439.47 488.431,438.61 C 488.587,437.829 488.978,437.204 489.603,436.735 C 490.071,436.266 490.774,436.032 491.712,436.032 C 492.259,436.032 492.806,436.188 493.353,436.423 C 493.743,436.657 494.134,436.97 494.524,437.438 C 494.759,437.907 494.993,438.532 495.228,439.157 C 495.306,439.938 495.384,440.798 495.462,441.891 C 495.384,443.22 495.306,444.313 495.071,445.095 C 494.759,445.954 494.29,446.579 493.821,447.048 C 493.196,447.516 492.493,447.751 491.712,447.751 C 490.54,447.751 489.681,447.36 489.134,446.501 C 488.353,445.641 488.04,444.079 488.04,441.891 L 488.04,441.891"/>
    <path style="fill: none; fill-opacity:0; stroke-width: 1; stroke-linecap: round; stroke: #000000" d="M 489.446 441.891 C 489.446,443.766 489.603,445.016 490.071,445.641 C 490.462,446.266 491.009,446.579 491.712,446.579 C 492.337,446.579 492.884,446.266 493.353,445.641 C 493.743,445.016 493.978,443.766 494.056,441.891 C 493.978,440.016 493.743,438.766 493.353,438.141 C 492.884,437.516 492.337,437.204 491.712,437.204 C 491.009,437.204 490.54,437.516 490.149,437.985 C 489.681,438.766 489.446,440.016 489.446,441.891 L 489.446,441.891"/>
  </g>
  <g>
    <path style="fill: #ffffff" d="M 657.858 350.652 L 830.858,350.652 L 830.858,393.852 C 796.258,386.652 778.958,386.652 744.358,393.852 C 709.758,401.052 692.458,401.052 657.858,393.852 L 657.858,350.652z"/>
    <path style="fill: none; fill-opacity:0; stroke-width: 0.02; stroke: #000000" d="M 657.858 350.652 L 830.858,350.652 L 830.858,393.852 C 796.258,386.652 778.958,386.652 744.358,393.852 C 709.758,401.052 692.458,401.052 657.858,393.852 L 657.858,350.652"/>
    <text font-size="12.8" style="fill: #000000;text-anchor:middle;font-family:monospace;font-style:normal;font-weight:normal" x="744.358" y="364.652">
      <tspan x="744.358" y="364.652">多播组地址中的低23位复制到</tspan>
      <tspan x="744.358" y="380.652">对应的以太网地址中</tspan>
    </text>
  </g>
  <line style="fill: none; fill-opacity:0; stroke-width: 1; stroke-dasharray: 4; stroke: #000000" x1="499.11" y1="369.642" x2="959.98" y2="369.876"/>
  <g>
    <line style="fill: none; fill-opacity:0; stroke-width: 1; stroke-dasharray: 4; stroke: #000000" x1="959.98" y1="323.142" x2="959.98" y2="406.112"/>
    <polygon style="fill: #000000" points="954.98,406.112 959.98,416.112 964.98,406.112 "/>
    <polygon style="fill: none; fill-opacity:0; stroke-width: 1; stroke: #000000" points="954.98,406.112 959.98,416.112 964.98,406.112 "/>
  </g>
  <g>
    <line style="fill: none; fill-opacity:0; stroke-width: 1; stroke: #000000" x1="409.388" y1="240.927" x2="495.4" y2="240.987"/>
    <polygon style="fill: #000000" points="409.39,237.927 403.388,240.922 409.386,243.927 "/>
    <polygon style="fill: none; fill-opacity:0; stroke-width: 1; stroke: #000000" points="409.39,237.927 403.388,240.922 409.386,243.927 "/>
    <polygon style="fill: #000000" points="495.398,243.987 501.4,240.992 495.402,237.987 "/>
    <polygon style="fill: none; fill-opacity:0; stroke-width: 1; stroke: #000000" points="495.398,243.987 501.4,240.992 495.402,237.987 "/>
  </g>
  <line style="fill: none; fill-opacity:0; stroke-width: 1; stroke-dasharray: 4; stroke: #000000" x1="401.348" y1="245.1" x2="401.366" y2="272.606"/>
  <line style="fill: none; fill-opacity:0; stroke-width: 1; stroke-dasharray: 4; stroke: #000000" x1="501.122" y1="244.916" x2="501.14" y2="272.422"/>
  <path style="fill: none; fill-opacity:0; stroke-width: 1; stroke-dasharray: 4; stroke: #000000" d="M 516.66,186.333 A 95.9543,95.9543 0 0 0 451.596,237.582"/>
  <g>
    <path style="fill: #ffffff" d="M 516.66 164.613 L 669.36,164.613 L 669.36,208.053 C 638.82,200.813 623.55,200.813 593.01,208.053 C 562.47,215.293 547.2,215.293 516.66,208.053 L 516.66,164.613z"/>
    <path style="fill: none; fill-opacity:0; stroke-width: 0.2; stroke-dasharray: 4; stroke: #000000" d="M 516.66 164.613 L 669.36,164.613 L 669.36,208.053 C 638.82,200.813 623.55,200.813 593.01,208.053 C 562.47,215.293 547.2,215.293 516.66,208.053 L 516.66,164.613"/>
    <text font-size="12.8" style="fill: #000000;text-anchor:middle;font-family:monospace;font-style:normal;font-weight:normal" x="593.01" y="178.713">
      <tspan x="593.01" y="178.713">多播组地址中的这5位未用</tspan>
      <tspan x="593.01" y="194.713">作形成以太网地址</tspan>
    </text>
  </g>
  <g>
    <path style="fill: #ffffff" d="M 434.1 461.988 L 531.5,461.988 L 531.5,496.274 C 512.02,490.559 502.28,490.559 482.8,496.274 C 463.32,501.988 453.58,501.988 434.1,496.274 L 434.1,461.988z"/>
    <path style="fill: none; fill-opacity:0; stroke-width: 0.02; stroke: #000000" d="M 434.1 461.988 L 531.5,461.988 L 531.5,496.274 C 512.02,490.559 502.28,490.559 482.8,496.274 C 463.32,501.988 453.58,501.988 434.1,496.274 L 434.1,461.988"/>
    <text font-size="12.8" style="fill: #000000;text-anchor:middle;font-family:monospace;font-style:normal;font-weight:700" x="482.8" y="480.274">
      <tspan x="482.8" y="480.274">48位以太网地址</tspan>
    </text>
  </g>
  <g>
    <path style="fill: #ffffff" d="M 378.444 485.224 L 586.644,485.224 L 586.644,509.224 C 545.004,505.224 524.184,505.224 482.544,509.224 C 440.904,513.224 420.084,513.224 378.444,509.224 L 378.444,485.224z"/>
    <path style="fill: none; fill-opacity:0; stroke-width: 0.02; stroke: #000000" d="M 378.444 485.224 L 586.644,485.224 L 586.644,509.224 C 545.004,505.224 524.184,505.224 482.544,509.224 C 440.904,513.224 420.084,513.224 378.444,509.224 L 378.444,485.224"/>
    <text font-size="12.8" style="fill: #000000;text-anchor:middle;font-family:monospace;font-style:normal;font-weight:700" x="482.544" y="499.224">
      <tspan x="482.544" y="499.224">D类IP地址到以太网多播地址的映射</tspan>
    </text>
  </g>
  <g>
    <path style="fill: #ffffff" d="M 5.44324 287.668 L 276.243,287.668 L 276.243,388.708 C 222.083,371.868 195.003,371.868 140.843,388.708 C 86.6832,405.548 59.6032,405.548 5.44324,388.708 L 5.44324,287.668z"/>
    <path style="fill: none; fill-opacity:0; stroke-width: 0.2; stroke-dasharray: 4; stroke: #000000" d="M 5.44324 287.668 L 276.243,287.668 L 276.243,388.708 C 222.083,371.868 195.003,371.868 140.843,388.708 C 86.6832,405.548 59.6032,405.548 5.44324,388.708 L 5.44324,287.668"/>
    <text font-size="12.8" style="fill: #000000;text-anchor:middle;font-family:monospace;font-style:normal;font-weight:normal" x="140.843" y="301.768">
      <tspan x="140.843" y="301.768">最高字节的最低位设置为1时表示地址是</tspan>
      <tspan x="140.843" y="317.768">一个多播地址，</tspan>
      <tspan x="140.843" y="333.768">用十六进制可以表示为 01:00:5e:00:00:00</tspan>
      <tspan x="140.843" y="349.768"> (以太网广播地址 ff:ff:ff:ff:ff:ff </tspan>
      <tspan x="140.843" y="365.768">可以看作是以太网多播地址的特例)</tspan>
    </text>
  </g>
  <g>
    <line style="fill: none; fill-opacity:0; stroke-width: 1; stroke-dasharray: 4; stroke: #000000" x1="153.811" y1="411.916" x2="148.761" y2="386.484"/>
    <polygon style="fill: #000000" points="150.868,412.501 154.979,417.802 156.753,411.332 "/>
    <polygon style="fill: none; fill-opacity:0; stroke-width: 1; stroke: #000000" points="150.868,412.501 154.979,417.802 156.753,411.332 "/>
  </g>
  <text font-size="12.7998" style="fill: #000000;text-anchor:start;font-family:sans-serif;font-style:normal;font-weight:normal" x="140.843" y="346.608">
    <tspan x="140.843" y="346.608"></tspan>
  </text>
</svg>
