<?xml version="1.0" encoding="UTF-8" standalone="no"?>
<!DOCTYPE svg PUBLIC "-//W3C//DTD SVG 1.0//EN" "http://www.w3.org/TR/2001/PR-SVG-20010719/DTD/svg10.dtd">
<svg width="49cm" height="32cm" viewBox="0 -120 966 633" xmlns="http://www.w3.org/2000/svg" xmlns:xlink="http://www.w3.org/1999/xlink">
  <g>
    <rect style="fill: #ffffff" x="57.3373" y="138.886" width="79.1613" height="38"/>
    <rect style="fill: none; fill-opacity:0; stroke-width: 2; stroke: #000000" x="57.3373" y="138.886" width="79.1613" height="38"/>
    <text font-size="12.8" style="fill: #000000;text-anchor:middle;font-family:monospace;font-style:normal;font-weight:normal" x="96.9179" y="160.886">
      <tspan x="96.9179" y="160.886">接口卡</tspan>
    </text>
  </g>
  <g>
    <rect style="fill: #ffffff" x="57.3094" y="45.8377" width="79.1892" height="54"/>
    <rect style="fill: none; fill-opacity:0; stroke-width: 2; stroke: #000000" x="57.3094" y="45.8377" width="79.1892" height="54"/>
    <text font-size="12.8" style="fill: #000000;text-anchor:middle;font-family:monospace;font-style:normal;font-weight:normal" x="96.904" y="67.8377">
      <tspan x="96.904" y="67.8377">设备驱</tspan>
      <tspan x="96.904" y="83.8377">动程序</tspan>
    </text>
  </g>
  <g>
    <rect style="fill: #ffffff" x="57.4531" y="-118.057" width="79.5754" height="38"/>
    <rect style="fill: none; fill-opacity:0; stroke-width: 2; stroke: #000000" x="57.4531" y="-118.057" width="79.5754" height="38"/>
    <text font-size="12.8" style="fill: #000000;text-anchor:middle;font-family:monospace;font-style:normal;font-weight:normal" x="97.2408" y="-96.4073">
      <tspan x="97.2408" y="-96.4073">IP</tspan>
    </text>
  </g>
  <g>
    <rect style="fill: #ffffff" x="57.5214" y="-36.251" width="79.5071" height="38"/>
    <rect style="fill: none; fill-opacity:0; stroke-width: 2; stroke: #000000" x="57.5214" y="-36.251" width="79.5071" height="38"/>
    <text font-size="12.8" style="fill: #000000;text-anchor:middle;font-family:monospace;font-style:normal;font-weight:normal" x="97.275" y="-14.601">
      <tspan x="97.275" y="-14.601">UDP</tspan>
    </text>
  </g>
  <line style="fill: none; fill-opacity:0; stroke-width: 4; stroke: #000000" x1="17.101" y1="222.669" x2="176.848" y2="222.903"/>
  <g>
    <line style="fill: none; fill-opacity:0; stroke-width: 2; stroke: #000000" x1="96.9746" y1="222.786" x2="96.945" y2="188.89"/>
    <polygon style="fill: #000000" points="101.945,188.886 96.9363,178.89 91.945,188.895 "/>
    <polygon style="fill: none; fill-opacity:0; stroke-width: 2; stroke: #000000" points="101.945,188.886 96.9363,178.89 91.945,188.895 "/>
  </g>
  <g>
    <line style="fill: none; fill-opacity:0; stroke-width: 2; stroke: #000000" x1="96.9147" y1="137.911" x2="96.9104" y2="111.838"/>
    <polygon style="fill: #000000" points="101.91,111.837 96.9087,101.838 91.9104,111.839 "/>
    <polygon style="fill: none; fill-opacity:0; stroke-width: 2; stroke: #000000" points="101.91,111.837 96.9087,101.838 91.9104,111.839 "/>
  </g>
  <g>
    <line style="fill: none; fill-opacity:0; stroke-width: 2; stroke: #000000" x1="97.0193" y1="44.8335" x2="97.1473" y2="13.7417"/>
    <polygon style="fill: #000000" points="102.147,13.7623 97.1885,3.74182 92.1474,13.7211 "/>
    <polygon style="fill: none; fill-opacity:0; stroke-width: 2; stroke: #000000" points="102.147,13.7623 97.1885,3.74182 92.1474,13.7211 "/>
  </g>
  <g>
    <line style="fill: none; fill-opacity:0; stroke-width: 2; stroke: #000000" x1="97.2666" y1="-37.2432" x2="97.2538" y2="-68.0651"/>
    <polygon style="fill: #000000" points="102.254,-68.0672 97.2496,-78.0651 92.2538,-68.063 "/>
    <polygon style="fill: none; fill-opacity:0; stroke-width: 2; stroke: #000000" points="102.254,-68.0672 97.2496,-78.0651 92.2538,-68.063 "/>
  </g>
  <g>
    <path style="fill: #ffffff" d="M 6.8065 234.597 L 190.707,234.597 L 190.707,258.597 C 153.927,254.597 135.537,254.597 98.7565,258.597 C 61.9765,262.597 43.5865,262.597 6.8065,258.597 L 6.8065,234.597z"/>
    <path style="fill: none; fill-opacity:0; stroke-width: 0.02; stroke: #000000" d="M 6.8065 234.597 L 190.707,234.597 L 190.707,258.597 C 153.927,254.597 135.537,254.597 98.7565,258.597 C 61.9765,262.597 43.5865,262.597 6.8065,258.597 L 6.8065,234.597"/>
    <text font-size="12.8" style="fill: #000000;text-anchor:middle;font-family:monospace;font-style:normal;font-weight:700" x="98.7565" y="246.997">
      <tspan x="98.7565" y="246.997">协议栈各层对收到帧的过滤过程</tspan>
    </text>
  </g>
  <g>
    <rect style="fill: #ffffff" x="1.5744" y="420.674" width="959.346" height="38"/>
    <rect style="fill: none; fill-opacity:0; stroke-width: 2; stroke: #000000" x="1.5744" y="420.674" width="959.346" height="38"/>
    <text font-size="12.8" style="fill: #000000;text-anchor:middle;font-family:monospace;font-style:normal;font-weight:normal" x="481.247" y="442.324">
      <tspan x="481.247" y="442.324"></tspan>
    </text>
  </g>
  <path style="fill: none; fill-opacity:0; stroke-width: 1; stroke-linecap: round; stroke: #000000" d="M 151.963 434.654 L 151.963,444.107 C 151.885,444.498 151.963,444.81 152.276,444.888 C 152.432,445.123 152.745,445.201 153.213,445.123 L 153.838,445.123 L 153.838,445.513 L 149.229,445.513 L 149.229,445.123 L 149.776,445.123 C 150.167,445.201 150.479,445.123 150.713,444.888 C 150.87,444.81 150.948,444.498 151.026,444.107 L 151.026,436.529 C 150.948,436.451 150.87,436.295 150.87,436.138 C 150.713,436.06 150.557,436.06 150.401,435.982 L 149.229,435.982 L 149.229,435.591 L 149.776,435.591 C 150.245,435.67 150.635,435.591 151.026,435.357 C 151.26,435.279 151.495,435.045 151.729,434.654 L 151.963,434.654"/>
  <g>
    <path style="fill: none; fill-opacity:0; stroke-width: 1; stroke-linecap: round; stroke: #000000" d="M 10.8936 436.03 C 10.2686,436.03 9.7217,436.499 9.4092,437.358 C 8.94045,438.296 8.7842,439.467 8.86233,440.952 C 8.7842,442.514 8.94045,443.764 9.4092,444.624 C 9.7217,445.561 10.2686,446.03 10.8936,445.952 C 11.5186,446.03 11.9873,445.561 12.378,444.624 C 12.6905,443.764 12.8467,442.514 12.9248,440.952 C 12.8467,439.467 12.6905,438.296 12.378,437.358 C 11.9873,436.499 11.5186,436.03 10.8936,436.03 L 10.8936,436.03"/>
    <path style="fill: none; fill-opacity:0; stroke-width: 1; stroke-linecap: round; stroke: #000000" d="M 10.8936 446.421 C 9.95608,446.499 9.17483,446.03 8.62795,445.014 C 7.92483,444.155 7.61233,442.749 7.69045,440.952 C 7.61233,439.389 7.92483,438.139 8.54983,437.046 C 9.17483,436.108 9.95608,435.561 10.8936,435.483 C 11.8311,435.561 12.5342,436.03 13.1592,436.967 C 13.7061,437.905 14.0186,439.233 14.0967,440.952 C 14.0186,442.671 13.7061,444.077 13.1592,445.014 C 12.5342,446.03 11.8311,446.499 10.8936,446.421 L 10.8936,446.421"/>
  </g>
  <line style="fill: none; fill-opacity:0; stroke-width: 2; stroke: #000000" x1="160.883" y1="421.108" x2="160.883" y2="459.449"/>
  <line style="fill: none; fill-opacity:0; stroke-width: 2; stroke: #000000" x1="320.937" y1="420.191" x2="320.937" y2="458.532"/>
  <line style="fill: none; fill-opacity:0; stroke-width: 2; stroke: #000000" x1="481.247" y1="420.674" x2="481.247" y2="458.674"/>
  <line style="fill: none; fill-opacity:0; stroke-width: 2; stroke: #000000" x1="641.694" y1="419.926" x2="641.694" y2="458.267"/>
  <line style="fill: none; fill-opacity:0; stroke-width: 2; stroke: #000000" x1="802.663" y1="420.692" x2="802.663" y2="459.034"/>
  <line style="fill: none; fill-opacity:0; stroke-width: 2; stroke: #000000" x1="20.5962" y1="454.144" x2="20.5859" y2="458.304"/>
  <line style="fill: none; fill-opacity:0; stroke-width: 2; stroke: #000000" x1="40.5626" y1="454.265" x2="40.5523" y2="458.425"/>
  <line style="fill: none; fill-opacity:0; stroke-width: 2; stroke: #000000" x1="60.8516" y1="454.327" x2="60.8413" y2="458.487"/>
  <line style="fill: none; fill-opacity:0; stroke-width: 2; stroke: #000000" x1="81.4068" y1="454.327" x2="81.3964" y2="458.487"/>
  <line style="fill: none; fill-opacity:0; stroke-width: 2; stroke: #000000" x1="101.168" y1="454.327" x2="101.158" y2="458.487"/>
  <line style="fill: none; fill-opacity:0; stroke-width: 2; stroke: #000000" x1="121.226" y1="454.032" x2="121.215" y2="458.192"/>
  <line style="fill: none; fill-opacity:0; stroke-width: 2; stroke: #000000" x1="141.283" y1="454.623" x2="141.272" y2="458.783"/>
  <g>
    <path style="fill: none; fill-opacity:0; stroke-width: 1; stroke-linecap: round; stroke: #000000" d="M 30.0699 436.058 C 29.4449,436.058 28.8981,436.526 28.5856,437.386 C 28.1168,438.323 27.9606,439.495 28.0387,440.979 C 27.9606,442.542 28.1168,443.792 28.5856,444.651 C 28.8981,445.589 29.4449,446.058 30.0699,445.979 C 30.6949,446.058 31.1637,445.589 31.5543,444.651 C 31.8668,443.792 32.0231,442.542 32.1012,440.979 C 32.0231,439.495 31.8668,438.323 31.5543,437.386 C 31.1637,436.526 30.6949,436.058 30.0699,436.058 L 30.0699,436.058"/>
    <path style="fill: none; fill-opacity:0; stroke-width: 1; stroke-linecap: round; stroke: #000000" d="M 30.0699 446.448 C 29.1324,446.526 28.3512,446.058 27.8043,445.042 C 27.1012,444.183 26.7887,442.776 26.8668,440.979 C 26.7887,439.417 27.1012,438.167 27.7262,437.073 C 28.3512,436.136 29.1324,435.589 30.0699,435.511 C 31.0074,435.589 31.7106,436.058 32.3356,436.995 C 32.8824,437.933 33.1949,439.261 33.2731,440.979 C 33.1949,442.698 32.8824,444.104 32.3356,445.042 C 31.7106,446.058 31.0074,446.526 30.0699,446.448 L 30.0699,446.448"/>
  </g>
  <g>
    <path style="fill: none; fill-opacity:0; stroke-width: 1; stroke-linecap: round; stroke: #000000" d="M 51.3381 436.648 C 50.7131,436.648 50.1663,437.117 49.8538,437.976 C 49.385,438.914 49.2288,440.086 49.3069,441.57 C 49.2288,443.133 49.385,444.383 49.8538,445.242 C 50.1663,446.18 50.7131,446.648 51.3381,446.57 C 51.9631,446.648 52.4319,446.18 52.8225,445.242 C 53.135,444.383 53.2913,443.133 53.3694,441.57 C 53.2913,440.086 53.135,438.914 52.8225,437.976 C 52.4319,437.117 51.9631,436.648 51.3381,436.648 L 51.3381,436.648"/>
    <path style="fill: none; fill-opacity:0; stroke-width: 1; stroke-linecap: round; stroke: #000000" d="M 51.3381 447.039 C 50.4006,447.117 49.6194,446.648 49.0725,445.633 C 48.3694,444.773 48.0569,443.367 48.135,441.57 C 48.0569,440.008 48.3694,438.758 48.9944,437.664 C 49.6194,436.726 50.4006,436.18 51.3381,436.101 C 52.2756,436.18 52.9788,436.648 53.6038,437.586 C 54.1506,438.523 54.4631,439.851 54.5413,441.57 C 54.4631,443.289 54.1506,444.695 53.6038,445.633 C 52.9788,446.648 52.2756,447.117 51.3381,447.039 L 51.3381,447.039"/>
  </g>
  <g>
    <path style="fill: none; fill-opacity:0; stroke-width: 1; stroke-linecap: round; stroke: #000000" d="M 71.4248 435.762 C 70.7998,435.762 70.2529,436.231 69.9404,437.09 C 69.4716,438.028 69.3154,439.2 69.3935,440.684 C 69.3154,442.246 69.4716,443.496 69.9404,444.356 C 70.2529,445.293 70.7998,445.762 71.4248,445.684 C 72.0498,445.762 72.5185,445.293 72.9091,444.356 C 73.2216,443.496 73.3779,442.246 73.456,440.684 C 73.3779,439.2 73.2216,438.028 72.9091,437.09 C 72.5185,436.231 72.0498,435.762 71.4248,435.762 L 71.4248,435.762"/>
    <path style="fill: none; fill-opacity:0; stroke-width: 1; stroke-linecap: round; stroke: #000000" d="M 71.4248 446.153 C 70.4873,446.231 69.706,445.762 69.1591,444.746 C 68.456,443.887 68.1435,442.481 68.2216,440.684 C 68.1435,439.121 68.456,437.871 69.081,436.778 C 69.706,435.84 70.4873,435.293 71.4248,435.215 C 72.3623,435.293 73.0654,435.762 73.6904,436.7 C 74.2373,437.637 74.5498,438.965 74.6279,440.684 C 74.5498,442.403 74.2373,443.809 73.6904,444.746 C 73.0654,445.762 72.3623,446.231 71.4248,446.153 L 71.4248,446.153"/>
  </g>
  <g>
    <path style="fill: none; fill-opacity:0; stroke-width: 1; stroke-linecap: round; stroke: #000000" d="M 92.3976 436.058 C 91.7726,436.058 91.2257,436.526 90.9132,437.386 C 90.4444,438.323 90.2882,439.495 90.3663,440.979 C 90.2882,442.542 90.4444,443.792 90.9132,444.651 C 91.2257,445.589 91.7726,446.058 92.3976,445.979 C 93.0226,446.058 93.4913,445.589 93.8819,444.651 C 94.1944,443.792 94.3507,442.542 94.4288,440.979 C 94.3507,439.495 94.1944,438.323 93.8819,437.386 C 93.4913,436.526 93.0226,436.058 92.3976,436.058 L 92.3976,436.058"/>
    <path style="fill: none; fill-opacity:0; stroke-width: 1; stroke-linecap: round; stroke: #000000" d="M 92.3976 446.448 C 91.4601,446.526 90.6788,446.058 90.1319,445.042 C 89.4288,444.183 89.1163,442.776 89.1944,440.979 C 89.1163,439.417 89.4288,438.167 90.0538,437.073 C 90.6788,436.136 91.4601,435.589 92.3976,435.511 C 93.3351,435.589 94.0382,436.058 94.6632,436.995 C 95.2101,437.933 95.5226,439.261 95.6007,440.979 C 95.5226,442.698 95.2101,444.104 94.6632,445.042 C 94.0382,446.058 93.3351,446.526 92.3976,446.448 L 92.3976,446.448"/>
  </g>
  <g>
    <path style="fill: none; fill-opacity:0; stroke-width: 1; stroke-linecap: round; stroke: #000000" d="M 111.864 435.467 C 111.239,435.467 110.692,435.935 110.379,436.795 C 109.911,437.732 109.754,438.904 109.833,440.389 C 109.754,441.951 109.911,443.201 110.379,444.06 C 110.692,444.998 111.239,445.467 111.864,445.389 C 112.489,445.467 112.958,444.998 113.348,444.06 C 113.661,443.201 113.817,441.951 113.895,440.389 C 113.817,438.904 113.661,437.732 113.348,436.795 C 112.958,435.935 112.489,435.467 111.864,435.467 L 111.864,435.467"/>
    <path style="fill: none; fill-opacity:0; stroke-width: 1; stroke-linecap: round; stroke: #000000" d="M 111.864 445.857 C 110.926,445.935 110.145,445.467 109.598,444.451 C 108.895,443.592 108.583,442.185 108.661,440.389 C 108.583,438.826 108.895,437.576 109.52,436.482 C 110.145,435.545 110.926,434.998 111.864,434.92 C 112.801,434.998 113.504,435.467 114.129,436.404 C 114.676,437.342 114.989,438.67 115.067,440.389 C 114.989,442.107 114.676,443.514 114.129,444.451 C 113.504,445.467 112.801,445.935 111.864,445.857 L 111.864,445.857"/>
  </g>
  <g>
    <path style="fill: none; fill-opacity:0; stroke-width: 1; stroke-linecap: round; stroke: #000000" d="M 131.626 435.171 C 131.001,435.171 130.454,435.64 130.141,436.499 C 129.672,437.437 129.516,438.609 129.594,440.093 C 129.516,441.656 129.672,442.906 130.141,443.765 C 130.454,444.703 131.001,445.171 131.626,445.093 C 132.251,445.171 132.719,444.703 133.11,443.765 C 133.422,442.906 133.579,441.656 133.657,440.093 C 133.579,438.609 133.422,437.437 133.11,436.499 C 132.719,435.64 132.251,435.171 131.626,435.171 L 131.626,435.171"/>
    <path style="fill: none; fill-opacity:0; stroke-width: 1; stroke-linecap: round; stroke: #000000" d="M 131.626 445.562 C 130.688,445.64 129.907,445.171 129.36,444.156 C 128.657,443.296 128.344,441.89 128.422,440.093 C 128.344,438.531 128.657,437.281 129.282,436.187 C 129.907,435.249 130.688,434.703 131.626,434.624 C 132.563,434.703 133.266,435.171 133.891,436.109 C 134.438,437.046 134.751,438.374 134.829,440.093 C 134.751,441.812 134.438,443.218 133.891,444.156 C 133.266,445.171 132.563,445.64 131.626,445.562 L 131.626,445.562"/>
  </g>
  <g>
    <path style="fill: none; fill-opacity:0; stroke-width: 1; stroke-linecap: round; stroke: #000000" d="M 170.676 435.423 C 170.051,435.423 169.504,435.892 169.192,436.751 C 168.723,437.689 168.567,438.86 168.645,440.345 C 168.567,441.907 168.723,443.157 169.192,444.017 C 169.504,444.954 170.051,445.423 170.676,445.345 C 171.301,445.423 171.77,444.954 172.161,444.017 C 172.473,443.157 172.629,441.907 172.708,440.345 C 172.629,438.86 172.473,437.689 172.161,436.751 C 171.77,435.892 171.301,435.423 170.676,435.423 L 170.676,435.423"/>
    <path style="fill: none; fill-opacity:0; stroke-width: 1; stroke-linecap: round; stroke: #000000" d="M 170.676 445.814 C 169.739,445.892 168.958,445.423 168.411,444.407 C 167.708,443.548 167.395,442.142 167.473,440.345 C 167.395,438.782 167.708,437.532 168.333,436.439 C 168.958,435.501 169.739,434.954 170.676,434.876 C 171.614,434.954 172.317,435.423 172.942,436.36 C 173.489,437.298 173.801,438.626 173.879,440.345 C 173.801,442.064 173.489,443.47 172.942,444.407 C 172.317,445.423 171.614,445.892 170.676,445.814 L 170.676,445.814"/>
  </g>
  <line style="fill: none; fill-opacity:0; stroke-width: 2; stroke: #000000" x1="180.379" y1="453.537" x2="180.369" y2="457.697"/>
  <line style="fill: none; fill-opacity:0; stroke-width: 2; stroke: #000000" x1="200.345" y1="453.658" x2="200.335" y2="457.818"/>
  <line style="fill: none; fill-opacity:0; stroke-width: 2; stroke: #000000" x1="220.634" y1="453.72" x2="220.624" y2="457.88"/>
  <line style="fill: none; fill-opacity:0; stroke-width: 2; stroke: #000000" x1="241.19" y1="453.72" x2="241.411" y2="458.674"/>
  <line style="fill: none; fill-opacity:0; stroke-width: 2; stroke: #000000" x1="260.951" y1="453.72" x2="260.941" y2="457.88"/>
  <line style="fill: none; fill-opacity:0; stroke-width: 2; stroke: #000000" x1="281.008" y1="453.425" x2="280.998" y2="457.585"/>
  <line style="fill: none; fill-opacity:0; stroke-width: 2; stroke: #000000" x1="301.065" y1="454.016" x2="301.055" y2="458.176"/>
  <g>
    <path style="fill: none; fill-opacity:0; stroke-width: 1; stroke-linecap: round; stroke: #000000" d="M 211.121 436.041 C 210.496,436.041 209.949,436.51 209.636,437.369 C 209.168,438.307 209.011,439.479 209.09,440.963 C 209.011,442.526 209.168,443.776 209.636,444.635 C 209.949,445.573 210.496,446.041 211.121,445.963 C 211.746,446.041 212.215,445.573 212.605,444.635 C 212.918,443.776 213.074,442.526 213.152,440.963 C 213.074,439.479 212.918,438.307 212.605,437.369 C 212.215,436.51 211.746,436.041 211.121,436.041 L 211.121,436.041"/>
    <path style="fill: none; fill-opacity:0; stroke-width: 1; stroke-linecap: round; stroke: #000000" d="M 211.121 446.432 C 210.183,446.51 209.402,446.041 208.855,445.026 C 208.152,444.166 207.84,442.76 207.918,440.963 C 207.84,439.401 208.152,438.151 208.777,437.057 C 209.402,436.119 210.183,435.573 211.121,435.494 C 212.058,435.573 212.761,436.041 213.386,436.979 C 213.933,437.916 214.246,439.244 214.324,440.963 C 214.246,442.682 213.933,444.088 213.386,445.026 C 212.761,446.041 212.058,446.51 211.121,446.432 L 211.121,446.432"/>
  </g>
  <g>
    <path style="fill: none; fill-opacity:0; stroke-width: 1; stroke-linecap: round; stroke: #000000" d="M 231.207 435.155 C 230.582,435.155 230.036,435.624 229.723,436.483 C 229.254,437.421 229.098,438.593 229.176,440.077 C 229.098,441.64 229.254,442.89 229.723,443.749 C 230.036,444.686 230.582,445.155 231.207,445.077 C 231.832,445.155 232.301,444.686 232.692,443.749 C 233.004,442.89 233.161,441.64 233.239,440.077 C 233.161,438.593 233.004,437.421 232.692,436.483 C 232.301,435.624 231.832,435.155 231.207,435.155 L 231.207,435.155"/>
    <path style="fill: none; fill-opacity:0; stroke-width: 1; stroke-linecap: round; stroke: #000000" d="M 231.207 445.546 C 230.27,445.624 229.489,445.155 228.942,444.14 C 228.239,443.28 227.926,441.874 228.004,440.077 C 227.926,438.515 228.239,437.265 228.864,436.171 C 229.489,435.233 230.27,434.686 231.207,434.608 C 232.145,434.686 232.848,435.155 233.473,436.093 C 234.02,437.03 234.332,438.358 234.411,440.077 C 234.332,441.796 234.02,443.202 233.473,444.14 C 232.848,445.155 232.145,445.624 231.207,445.546 L 231.207,445.546"/>
  </g>
  <g>
    <path style="fill: none; fill-opacity:0; stroke-width: 1; stroke-linecap: round; stroke: #000000" d="M 252.18 435.451 C 251.555,435.451 251.008,435.919 250.696,436.779 C 250.227,437.716 250.071,438.888 250.149,440.372 C 250.071,441.935 250.227,443.185 250.696,444.044 C 251.008,444.982 251.555,445.451 252.18,445.372 C 252.805,445.451 253.274,444.982 253.665,444.044 C 253.977,443.185 254.133,441.935 254.212,440.372 C 254.133,438.888 253.977,437.716 253.665,436.779 C 253.274,435.919 252.805,435.451 252.18,435.451 L 252.18,435.451"/>
    <path style="fill: none; fill-opacity:0; stroke-width: 1; stroke-linecap: round; stroke: #000000" d="M 252.18 445.841 C 251.243,445.919 250.462,445.451 249.915,444.435 C 249.212,443.576 248.899,442.169 248.977,440.372 C 248.899,438.81 249.212,437.56 249.837,436.466 C 250.462,435.529 251.243,434.982 252.18,434.904 C 253.118,434.982 253.821,435.451 254.446,436.388 C 254.993,437.326 255.305,438.654 255.383,440.372 C 255.305,442.091 254.993,443.497 254.446,444.435 C 253.821,445.451 253.118,445.919 252.18,445.841 L 252.18,445.841"/>
  </g>
  <g>
    <path style="fill: none; fill-opacity:0; stroke-width: 1; stroke-linecap: round; stroke: #000000" d="M 271.647 434.86 C 271.022,434.86 270.475,435.329 270.162,436.188 C 269.693,437.125 269.537,438.297 269.615,439.782 C 269.537,441.344 269.693,442.594 270.162,443.454 C 270.475,444.391 271.022,444.86 271.647,444.782 C 272.272,444.86 272.74,444.391 273.131,443.454 C 273.443,442.594 273.6,441.344 273.678,439.782 C 273.6,438.297 273.443,437.125 273.131,436.188 C 272.74,435.329 272.272,434.86 271.647,434.86 L 271.647,434.86"/>
    <path style="fill: none; fill-opacity:0; stroke-width: 1; stroke-linecap: round; stroke: #000000" d="M 271.647 445.25 C 270.709,445.329 269.928,444.86 269.381,443.844 C 268.678,442.985 268.365,441.579 268.443,439.782 C 268.365,438.219 268.678,436.969 269.303,435.875 C 269.928,434.938 270.709,434.391 271.647,434.313 C 272.584,434.391 273.287,434.86 273.912,435.797 C 274.459,436.735 274.772,438.063 274.85,439.782 C 274.772,441.5 274.459,442.907 273.912,443.844 C 273.287,444.86 272.584,445.329 271.647,445.25 L 271.647,445.25"/>
  </g>
  <g>
    <path style="fill: none; fill-opacity:0; stroke-width: 1; stroke-linecap: round; stroke: #000000" d="M 291.408 434.564 C 290.783,434.564 290.236,435.033 289.924,435.893 C 289.455,436.83 289.299,438.002 289.377,439.486 C 289.299,441.049 289.455,442.299 289.924,443.158 C 290.236,444.096 290.783,444.564 291.408,444.486 C 292.033,444.564 292.502,444.096 292.893,443.158 C 293.205,442.299 293.361,441.049 293.44,439.486 C 293.361,438.002 293.205,436.83 292.893,435.893 C 292.502,435.033 292.033,434.564 291.408,434.564 L 291.408,434.564"/>
    <path style="fill: none; fill-opacity:0; stroke-width: 1; stroke-linecap: round; stroke: #000000" d="M 291.408 444.955 C 290.471,445.033 289.69,444.564 289.143,443.549 C 288.44,442.689 288.127,441.283 288.205,439.486 C 288.127,437.924 288.44,436.674 289.065,435.58 C 289.69,434.643 290.471,434.096 291.408,434.018 C 292.346,434.096 293.049,434.564 293.674,435.502 C 294.221,436.439 294.533,437.768 294.611,439.486 C 294.533,441.205 294.221,442.611 293.674,443.549 C 293.049,444.564 292.346,445.033 291.408,444.955 L 291.408,444.955"/>
  </g>
  <line style="fill: none; fill-opacity:0; stroke-width: 2; stroke: #000000" x1="340.364" y1="453.616" x2="340.353" y2="457.776"/>
  <line style="fill: none; fill-opacity:0; stroke-width: 2; stroke: #000000" x1="360.33" y1="453.737" x2="360.32" y2="457.897"/>
  <line style="fill: none; fill-opacity:0; stroke-width: 2; stroke: #000000" x1="380.619" y1="453.799" x2="380.609" y2="457.959"/>
  <line style="fill: none; fill-opacity:0; stroke-width: 2; stroke: #000000" x1="401.174" y1="453.799" x2="401.164" y2="457.959"/>
  <line style="fill: none; fill-opacity:0; stroke-width: 2; stroke: #000000" x1="420.936" y1="453.799" x2="420.926" y2="457.959"/>
  <line style="fill: none; fill-opacity:0; stroke-width: 2; stroke: #000000" x1="440.993" y1="453.503" x2="440.983" y2="457.663"/>
  <line style="fill: none; fill-opacity:0; stroke-width: 2; stroke: #000000" x1="461.05" y1="454.094" x2="461.04" y2="458.254"/>
  <line style="fill: none; fill-opacity:0; stroke-width: 2; stroke: #000000" x1="502.344" y1="453.592" x2="502.334" y2="457.752"/>
  <line style="fill: none; fill-opacity:0; stroke-width: 2; stroke: #000000" x1="522.31" y1="453.713" x2="522.3" y2="457.873"/>
  <line style="fill: none; fill-opacity:0; stroke-width: 2; stroke: #000000" x1="542.599" y1="453.775" x2="542.589" y2="457.935"/>
  <line style="fill: none; fill-opacity:0; stroke-width: 2; stroke: #000000" x1="563.155" y1="453.775" x2="563.144" y2="457.935"/>
  <line style="fill: none; fill-opacity:0; stroke-width: 2; stroke: #000000" x1="582.916" y1="453.775" x2="582.906" y2="457.935"/>
  <line style="fill: none; fill-opacity:0; stroke-width: 2; stroke: #000000" x1="602.973" y1="453.48" x2="602.963" y2="457.64"/>
  <line style="fill: none; fill-opacity:0; stroke-width: 2; stroke: #000000" x1="623.03" y1="454.071" x2="623.02" y2="458.231"/>
  <line style="fill: none; fill-opacity:0; stroke-width: 2; stroke: #000000" x1="662.127" y1="452.985" x2="662.116" y2="457.145"/>
  <line style="fill: none; fill-opacity:0; stroke-width: 2; stroke: #000000" x1="682.093" y1="453.106" x2="682.083" y2="457.266"/>
  <line style="fill: none; fill-opacity:0; stroke-width: 2; stroke: #000000" x1="702.382" y1="453.168" x2="702.372" y2="457.328"/>
  <line style="fill: none; fill-opacity:0; stroke-width: 2; stroke: #000000" x1="722.616" y1="452.545" x2="721.084" y2="458.674"/>
  <line style="fill: none; fill-opacity:0; stroke-width: 2; stroke: #000000" x1="742.699" y1="453.168" x2="742.689" y2="457.328"/>
  <line style="fill: none; fill-opacity:0; stroke-width: 2; stroke: #000000" x1="762.756" y1="452.873" x2="762.746" y2="457.033"/>
  <line style="fill: none; fill-opacity:0; stroke-width: 2; stroke: #000000" x1="782.813" y1="453.464" x2="782.803" y2="457.624"/>
  <line style="fill: none; fill-opacity:0; stroke-width: 2; stroke: #000000" x1="822.112" y1="453.064" x2="822.101" y2="457.224"/>
  <line style="fill: none; fill-opacity:0; stroke-width: 2; stroke: #000000" x1="842.078" y1="453.185" x2="842.068" y2="457.345"/>
  <line style="fill: none; fill-opacity:0; stroke-width: 2; stroke: #000000" x1="862.367" y1="453.247" x2="862.357" y2="457.407"/>
  <line style="fill: none; fill-opacity:0; stroke-width: 2; stroke: #000000" x1="882.922" y1="453.247" x2="882.912" y2="457.407"/>
  <line style="fill: none; fill-opacity:0; stroke-width: 2; stroke: #000000" x1="902.684" y1="453.247" x2="902.674" y2="457.407"/>
  <line style="fill: none; fill-opacity:0; stroke-width: 2; stroke: #000000" x1="922.741" y1="452.951" x2="922.731" y2="457.111"/>
  <line style="fill: none; fill-opacity:0; stroke-width: 2; stroke: #000000" x1="942.798" y1="453.542" x2="942.788" y2="457.702"/>
  <g>
    <path style="fill: none; fill-opacity:0; stroke-width: 1; stroke-linecap: round; stroke: #000000" d="M 190.989 436.024 C 190.364,436.024 189.817,436.492 189.504,437.352 C 189.036,438.289 188.879,439.461 188.957,440.946 C 188.879,442.508 189.036,443.758 189.504,444.617 C 189.817,445.555 190.364,446.024 190.989,445.946 C 191.614,446.024 192.082,445.555 192.473,444.617 C 192.786,443.758 192.942,442.508 193.02,440.946 C 192.942,439.461 192.786,438.289 192.473,437.352 C 192.082,436.492 191.614,436.024 190.989,436.024 L 190.989,436.024"/>
    <path style="fill: none; fill-opacity:0; stroke-width: 1; stroke-linecap: round; stroke: #000000" d="M 190.989 446.414 C 190.051,446.492 189.27,446.024 188.723,445.008 C 188.02,444.149 187.707,442.742 187.786,440.946 C 187.707,439.383 188.02,438.133 188.645,437.039 C 189.27,436.102 190.051,435.555 190.989,435.477 C 191.926,435.555 192.629,436.024 193.254,436.961 C 193.801,437.899 194.114,439.227 194.192,440.946 C 194.114,442.664 193.801,444.071 193.254,445.008 C 192.629,446.024 191.926,446.492 190.989,446.414 L 190.989,446.414"/>
  </g>
  <g>
    <path style="fill: none; fill-opacity:0; stroke-width: 1; stroke-linecap: round; stroke: #000000" d="M 310.192 435.436 C 309.567,435.436 309.02,435.905 308.708,436.765 C 308.239,437.702 308.083,438.874 308.161,440.358 C 308.083,441.921 308.239,443.171 308.708,444.03 C 309.02,444.968 309.567,445.436 310.192,445.358 C 310.817,445.436 311.286,444.968 311.677,444.03 C 311.989,443.171 312.145,441.921 312.223,440.358 C 312.145,438.874 311.989,437.702 311.677,436.765 C 311.286,435.905 310.817,435.436 310.192,435.436 L 310.192,435.436"/>
    <path style="fill: none; fill-opacity:0; stroke-width: 1; stroke-linecap: round; stroke: #000000" d="M 310.192 445.827 C 309.255,445.905 308.473,445.436 307.927,444.421 C 307.223,443.561 306.911,442.155 306.989,440.358 C 306.911,438.796 307.223,437.546 307.848,436.452 C 308.473,435.515 309.255,434.968 310.192,434.89 C 311.13,434.968 311.833,435.436 312.458,436.374 C 313.005,437.311 313.317,438.64 313.395,440.358 C 313.317,442.077 313.005,443.483 312.458,444.421 C 311.833,445.436 311.13,445.905 310.192,445.827 L 310.192,445.827"/>
  </g>
  <g>
    <path style="fill: none; fill-opacity:0; stroke-width: 1; stroke-linecap: round; stroke: #000000" d="M 331.098 436.627 C 330.473,436.627 329.926,437.096 329.614,437.955 C 329.145,438.893 328.989,440.065 329.067,441.549 C 328.989,443.111 329.145,444.361 329.614,445.221 C 329.926,446.158 330.473,446.627 331.098,446.549 C 331.723,446.627 332.192,446.158 332.583,445.221 C 332.895,444.361 333.051,443.111 333.13,441.549 C 333.051,440.065 332.895,438.893 332.583,437.955 C 332.192,437.096 331.723,436.627 331.098,436.627 L 331.098,436.627"/>
    <path style="fill: none; fill-opacity:0; stroke-width: 1; stroke-linecap: round; stroke: #000000" d="M 331.098 447.018 C 330.161,447.096 329.38,446.627 328.833,445.611 C 328.13,444.752 327.817,443.346 327.895,441.549 C 327.817,439.986 328.13,438.736 328.755,437.643 C 329.38,436.705 330.161,436.158 331.098,436.08 C 332.036,436.158 332.739,436.627 333.364,437.565 C 333.911,438.502 334.223,439.83 334.301,441.549 C 334.223,443.268 333.911,444.674 333.364,445.611 C 332.739,446.627 332.036,447.096 331.098,447.018 L 331.098,447.018"/>
  </g>
  <g>
    <path style="fill: none; fill-opacity:0; stroke-width: 1; stroke-linecap: round; stroke: #000000" d="M 370.149 436.879 C 369.524,436.879 368.977,437.347 368.665,438.207 C 368.196,439.144 368.04,440.316 368.118,441.801 C 368.04,443.363 368.196,444.613 368.665,445.472 C 368.977,446.41 369.524,446.879 370.149,446.801 C 370.774,446.879 371.243,446.41 371.633,445.472 C 371.946,444.613 372.102,443.363 372.18,441.801 C 372.102,440.316 371.946,439.144 371.633,438.207 C 371.243,437.347 370.774,436.879 370.149,436.879 L 370.149,436.879"/>
    <path style="fill: none; fill-opacity:0; stroke-width: 1; stroke-linecap: round; stroke: #000000" d="M 370.149 447.269 C 369.212,447.347 368.43,446.879 367.883,445.863 C 367.18,445.004 366.868,443.597 366.946,441.801 C 366.868,440.238 367.18,438.988 367.805,437.894 C 368.43,436.957 369.212,436.41 370.149,436.332 C 371.087,436.41 371.79,436.879 372.415,437.816 C 372.962,438.754 373.274,440.082 373.352,441.801 C 373.274,443.519 372.962,444.926 372.415,445.863 C 371.79,446.879 371.087,447.347 370.149,447.269 L 370.149,447.269"/>
  </g>
  <g>
    <path style="fill: none; fill-opacity:0; stroke-width: 1; stroke-linecap: round; stroke: #000000" d="M 470.023 437.198 C 469.398,437.198 468.851,437.667 468.539,438.526 C 468.07,439.464 467.914,440.636 467.992,442.12 C 467.914,443.682 468.07,444.932 468.539,445.792 C 468.851,446.729 469.398,447.198 470.023,447.12 C 470.648,447.198 471.117,446.729 471.508,445.792 C 471.82,444.932 471.976,443.682 472.055,442.12 C 471.976,440.636 471.82,439.464 471.508,438.526 C 471.117,437.667 470.648,437.198 470.023,437.198 L 470.023,437.198"/>
    <path style="fill: none; fill-opacity:0; stroke-width: 1; stroke-linecap: round; stroke: #000000" d="M 470.023 447.589 C 469.086,447.667 468.305,447.198 467.758,446.182 C 467.055,445.323 466.742,443.917 466.82,442.12 C 466.742,440.557 467.055,439.307 467.68,438.214 C 468.305,437.276 469.086,436.729 470.023,436.651 C 470.961,436.729 471.664,437.198 472.289,438.136 C 472.836,439.073 473.148,440.401 473.226,442.12 C 473.148,443.839 472.836,445.245 472.289,446.182 C 471.664,447.198 470.961,447.667 470.023,447.589 L 470.023,447.589"/>
  </g>
  <path style="fill: none; fill-opacity:0; stroke-width: 1; stroke-linecap: round; stroke: #000000" d="M 351.182 437.826 L 351.182,447.279 C 351.104,447.669 351.182,447.982 351.494,448.06 C 351.651,448.294 351.963,448.373 352.432,448.294 L 353.057,448.294 L 353.057,448.685 L 348.448,448.685 L 348.448,448.294 L 348.994,448.294 C 349.385,448.373 349.698,448.294 349.932,448.06 C 350.088,447.982 350.166,447.669 350.244,447.279 L 350.244,439.701 C 350.166,439.623 350.088,439.466 350.088,439.31 C 349.932,439.232 349.776,439.232 349.619,439.154 L 348.448,439.154 L 348.448,438.763 L 348.994,438.763 C 349.463,438.841 349.854,438.763 350.244,438.529 C 350.479,438.451 350.713,438.216 350.948,437.826 L 351.182,437.826"/>
  <path style="fill: none; fill-opacity:0; stroke-width: 1; stroke-linecap: round; stroke: #000000" d="M 391.582 438.413 L 391.582,447.866 C 391.504,448.257 391.582,448.569 391.894,448.647 C 392.051,448.882 392.363,448.96 392.832,448.882 L 393.457,448.882 L 393.457,449.272 L 388.848,449.272 L 388.848,448.882 L 389.394,448.882 C 389.785,448.96 390.098,448.882 390.332,448.647 C 390.488,448.569 390.566,448.257 390.644,447.866 L 390.644,440.288 C 390.566,440.21 390.488,440.053 390.488,439.897 C 390.332,439.819 390.176,439.819 390.019,439.741 L 388.848,439.741 L 388.848,439.35 L 389.394,439.35 C 389.863,439.428 390.254,439.35 390.644,439.116 C 390.879,439.038 391.113,438.803 391.348,438.413 L 391.582,438.413"/>
  <path style="fill: none; fill-opacity:0; stroke-width: 1; stroke-linecap: round; stroke: #000000" d="M 410.314 437.238 L 410.314,446.692 C 410.236,447.082 410.314,447.395 410.626,447.473 C 410.783,447.707 411.095,447.785 411.564,447.707 L 412.189,447.707 L 412.189,448.098 L 407.58,448.098 L 407.58,447.707 L 408.126,447.707 C 408.517,447.785 408.83,447.707 409.064,447.473 C 409.22,447.395 409.298,447.082 409.376,446.692 L 409.376,439.113 C 409.298,439.035 409.22,438.879 409.22,438.723 C 409.064,438.645 408.908,438.645 408.751,438.567 L 407.58,438.567 L 407.58,438.176 L 408.126,438.176 C 408.595,438.254 408.986,438.176 409.376,437.942 C 409.611,437.863 409.845,437.629 410.08,437.238 L 410.314,437.238"/>
  <path style="fill: none; fill-opacity:0; stroke-width: 1; stroke-linecap: round; stroke: #000000" d="M 430.162 437.238 L 430.162,446.692 C 430.084,447.082 430.162,447.395 430.474,447.473 C 430.63,447.707 430.943,447.785 431.412,447.707 L 432.037,447.707 L 432.037,448.098 L 427.427,448.098 L 427.427,447.707 L 427.974,447.707 C 428.365,447.785 428.677,447.707 428.912,447.473 C 429.068,447.395 429.146,447.082 429.224,446.692 L 429.224,439.113 C 429.146,439.035 429.068,438.879 429.068,438.723 C 428.912,438.645 428.755,438.645 428.599,438.567 L 427.427,438.567 L 427.427,438.176 L 427.974,438.176 C 428.443,438.254 428.834,438.176 429.224,437.942 C 429.459,437.863 429.693,437.629 429.927,437.238 L 430.162,437.238"/>
  <path style="fill: none; fill-opacity:0; stroke-width: 1; stroke-linecap: round; stroke: #000000" d="M 451.83 437.238 L 451.83,446.692 C 451.752,447.082 451.83,447.395 452.142,447.473 C 452.298,447.707 452.611,447.785 453.08,447.707 L 453.705,447.707 L 453.705,448.098 L 449.095,448.098 L 449.095,447.707 L 449.642,447.707 C 450.033,447.785 450.345,447.707 450.58,447.473 C 450.736,447.395 450.814,447.082 450.892,446.692 L 450.892,439.113 C 450.814,439.035 450.736,438.879 450.736,438.723 C 450.58,438.645 450.423,438.645 450.267,438.567 L 449.095,438.567 L 449.095,438.176 L 449.642,438.176 C 450.111,438.254 450.502,438.176 450.892,437.942 C 451.127,437.863 451.361,437.629 451.595,437.238 L 451.83,437.238"/>
  <g>
    <rect style="fill: #ffffff" x="321.042" y="276.537" width="639.749" height="38"/>
    <rect style="fill: none; fill-opacity:0; stroke-width: 2; stroke-linecap: round; stroke: #000000" x="321.042" y="276.537" width="639.749" height="38"/>
    <text font-size="12.8" style="fill: #000000;text-anchor:middle;font-family:monospace;font-style:normal;font-weight:normal" x="640.917" y="298.187">
      <tspan x="640.917" y="298.187"></tspan>
    </text>
  </g>
  <line style="fill: none; fill-opacity:0; stroke-width: 2; stroke: #000000" x1="480.98" y1="276.537" x2="480.98" y2="314.537"/>
  <line style="fill: none; fill-opacity:0; stroke-width: 2; stroke: #000000" x1="640.917" y1="276.537" x2="640.917" y2="314.537"/>
  <line style="fill: none; fill-opacity:0; stroke-width: 2; stroke: #000000" x1="800.854" y1="276.537" x2="800.854" y2="314.537"/>
  <line style="fill: none; fill-opacity:0; stroke-width: 2; stroke: #000000" x1="340.064" y1="310.007" x2="340.054" y2="314.167"/>
  <line style="fill: none; fill-opacity:0; stroke-width: 2; stroke: #000000" x1="360.03" y1="310.128" x2="360.02" y2="314.288"/>
  <line style="fill: none; fill-opacity:0; stroke-width: 2; stroke: #000000" x1="380.32" y1="310.19" x2="380.309" y2="314.35"/>
  <line style="fill: none; fill-opacity:0; stroke-width: 2; stroke: #000000" x1="400.875" y1="310.19" x2="400.864" y2="314.35"/>
  <line style="fill: none; fill-opacity:0; stroke-width: 2; stroke: #000000" x1="420.636" y1="310.19" x2="420.626" y2="314.35"/>
  <line style="fill: none; fill-opacity:0; stroke-width: 2; stroke: #000000" x1="440.693" y1="309.895" x2="440.683" y2="314.055"/>
  <line style="fill: none; fill-opacity:0; stroke-width: 2; stroke: #000000" x1="460.751" y1="310.485" x2="460.74" y2="314.645"/>
  <line style="fill: none; fill-opacity:0; stroke-width: 2; stroke: #000000" x1="499.847" y1="309.4" x2="499.836" y2="313.56"/>
  <line style="fill: none; fill-opacity:0; stroke-width: 2; stroke: #000000" x1="519.813" y1="309.521" x2="519.803" y2="313.681"/>
  <line style="fill: none; fill-opacity:0; stroke-width: 2; stroke: #000000" x1="540.102" y1="309.583" x2="540.092" y2="313.743"/>
  <line style="fill: none; fill-opacity:0; stroke-width: 2; stroke: #000000" x1="560.657" y1="309.583" x2="560.647" y2="313.743"/>
  <line style="fill: none; fill-opacity:0; stroke-width: 2; stroke: #000000" x1="580.419" y1="309.583" x2="580.409" y2="313.743"/>
  <line style="fill: none; fill-opacity:0; stroke-width: 2; stroke: #000000" x1="600.476" y1="309.288" x2="600.466" y2="313.448"/>
  <line style="fill: none; fill-opacity:0; stroke-width: 2; stroke: #000000" x1="620.533" y1="309.878" x2="620.523" y2="314.038"/>
  <line style="fill: none; fill-opacity:0; stroke-width: 2; stroke: #000000" x1="659.832" y1="309.478" x2="659.821" y2="313.638"/>
  <line style="fill: none; fill-opacity:0; stroke-width: 2; stroke: #000000" x1="679.798" y1="309.599" x2="679.788" y2="313.759"/>
  <line style="fill: none; fill-opacity:0; stroke-width: 2; stroke: #000000" x1="700.087" y1="309.661" x2="700.077" y2="313.821"/>
  <line style="fill: none; fill-opacity:0; stroke-width: 2; stroke: #000000" x1="720.642" y1="309.661" x2="720.632" y2="313.821"/>
  <line style="fill: none; fill-opacity:0; stroke-width: 2; stroke: #000000" x1="740.404" y1="309.661" x2="740.394" y2="313.821"/>
  <line style="fill: none; fill-opacity:0; stroke-width: 2; stroke: #000000" x1="760.461" y1="309.366" x2="760.451" y2="313.526"/>
  <line style="fill: none; fill-opacity:0; stroke-width: 2; stroke: #000000" x1="780.518" y1="309.957" x2="780.508" y2="314.117"/>
  <line style="fill: none; fill-opacity:0; stroke-width: 2; stroke: #000000" x1="820.816" y1="309.374" x2="820.805" y2="313.534"/>
  <line style="fill: none; fill-opacity:0; stroke-width: 2; stroke: #000000" x1="840.782" y1="309.495" x2="840.772" y2="313.655"/>
  <line style="fill: none; fill-opacity:0; stroke-width: 2; stroke: #000000" x1="861.071" y1="309.557" x2="861.061" y2="313.717"/>
  <line style="fill: none; fill-opacity:0; stroke-width: 2; stroke: #000000" x1="881.626" y1="309.557" x2="881.616" y2="313.717"/>
  <line style="fill: none; fill-opacity:0; stroke-width: 2; stroke: #000000" x1="901.388" y1="309.557" x2="901.377" y2="313.717"/>
  <line style="fill: none; fill-opacity:0; stroke-width: 2; stroke: #000000" x1="921.445" y1="309.262" x2="921.435" y2="313.422"/>
  <line style="fill: none; fill-opacity:0; stroke-width: 2; stroke: #000000" x1="941.502" y1="309.853" x2="941.492" y2="314.013"/>
  <path style="fill: none; fill-opacity:0; stroke-width: 1; stroke-linecap: round; stroke: #000000" d="M 332.717 290.556 L 332.717,300.009 C 332.639,300.4 332.717,300.712 333.03,300.79 C 333.186,301.025 333.498,301.103 333.967,301.025 L 334.592,301.025 L 334.592,301.415 L 329.983,301.415 L 329.983,301.025 L 330.53,301.025 C 330.92,301.103 331.233,301.025 331.467,300.79 C 331.623,300.712 331.701,300.4 331.78,300.009 L 331.78,292.431 C 331.701,292.353 331.623,292.197 331.623,292.04 C 331.467,291.962 331.311,291.962 331.155,291.884 L 329.983,291.884 L 329.983,291.494 L 330.53,291.494 C 330.998,291.572 331.389,291.494 331.78,291.259 C 332.014,291.181 332.248,290.947 332.483,290.556 L 332.717,290.556"/>
  <path style="fill: none; fill-opacity:0; stroke-width: 1; stroke-linecap: round; stroke: #000000" d="M 350.862 292.318 L 350.862,301.771 C 350.784,302.161 350.862,302.474 351.174,302.552 C 351.331,302.786 351.643,302.865 352.112,302.786 L 352.737,302.786 L 352.737,303.177 L 348.127,303.177 L 348.127,302.786 L 348.674,302.786 C 349.065,302.865 349.377,302.786 349.612,302.552 C 349.768,302.474 349.846,302.161 349.924,301.771 L 349.924,294.193 C 349.846,294.115 349.768,293.958 349.768,293.802 C 349.612,293.724 349.456,293.724 349.299,293.646 L 348.127,293.646 L 348.127,293.255 L 348.674,293.255 C 349.143,293.333 349.534,293.255 349.924,293.021 C 350.159,292.943 350.393,292.708 350.627,292.318 L 350.862,292.318"/>
  <path style="fill: none; fill-opacity:0; stroke-width: 1; stroke-linecap: round; stroke: #000000" d="M 369.007 290.556 L 369.007,300.009 C 368.928,300.4 369.007,300.712 369.319,300.79 C 369.475,301.025 369.788,301.103 370.257,301.025 L 370.882,301.025 L 370.882,301.415 L 366.272,301.415 L 366.272,301.025 L 366.819,301.025 C 367.21,301.103 367.522,301.025 367.757,300.79 C 367.913,300.712 367.991,300.4 368.069,300.009 L 368.069,292.431 C 367.991,292.353 367.913,292.197 367.913,292.04 C 367.757,291.962 367.6,291.962 367.444,291.884 L 366.272,291.884 L 366.272,291.494 L 366.819,291.494 C 367.288,291.572 367.678,291.494 368.069,291.259 C 368.303,291.181 368.538,290.947 368.772,290.556 L 369.007,290.556"/>
  <g>
    <path style="fill: none; fill-opacity:0; stroke-width: 1; stroke-linecap: round; stroke: #000000" d="M 390.145 291.69 C 389.52,291.69 388.973,292.159 388.661,293.018 C 388.192,293.956 388.036,295.128 388.114,296.612 C 388.036,298.174 388.192,299.424 388.661,300.284 C 388.973,301.221 389.52,301.69 390.145,301.612 C 390.77,301.69 391.239,301.221 391.63,300.284 C 391.942,299.424 392.098,298.174 392.176,296.612 C 392.098,295.128 391.942,293.956 391.63,293.018 C 391.239,292.159 390.77,291.69 390.145,291.69 L 390.145,291.69"/>
    <path style="fill: none; fill-opacity:0; stroke-width: 1; stroke-linecap: round; stroke: #000000" d="M 390.145 302.081 C 389.208,302.159 388.426,301.69 387.88,300.674 C 387.176,299.815 386.864,298.409 386.942,296.612 C 386.864,295.049 387.176,293.799 387.801,292.706 C 388.426,291.768 389.208,291.221 390.145,291.143 C 391.083,291.221 391.786,291.69 392.411,292.628 C 392.958,293.565 393.27,294.893 393.348,296.612 C 393.27,298.331 392.958,299.737 392.411,300.674 C 391.786,301.69 391.083,302.159 390.145,302.081 L 390.145,302.081"/>
  </g>
  <g>
    <path style="fill: none; fill-opacity:0; stroke-width: 1; stroke-linecap: round; stroke: #000000" d="M 323.203 254.696 C 322.578,254.696 322.031,255.165 321.719,256.024 C 321.25,256.962 321.094,258.133 321.172,259.618 C 321.094,261.18 321.25,262.43 321.719,263.29 C 322.031,264.227 322.578,264.696 323.203,264.618 C 323.828,264.696 324.297,264.227 324.688,263.29 C 325,262.43 325.156,261.18 325.234,259.618 C 325.156,258.133 325,256.962 324.688,256.024 C 324.297,255.165 323.828,254.696 323.203,254.696 L 323.203,254.696"/>
    <path style="fill: none; fill-opacity:0; stroke-width: 1; stroke-linecap: round; stroke: #000000" d="M 323.203 265.087 C 322.266,265.165 321.484,264.696 320.938,263.68 C 320.234,262.821 319.922,261.415 320,259.618 C 319.922,258.055 320.234,256.805 320.859,255.712 C 321.484,254.774 322.266,254.227 323.203,254.149 C 324.141,254.227 324.844,254.696 325.469,255.633 C 326.016,256.571 326.328,257.899 326.406,259.618 C 326.328,261.337 326.016,262.743 325.469,263.68 C 324.844,264.696 324.141,265.165 323.203,265.087 L 323.203,265.087"/>
  </g>
  <path style="fill: none; fill-opacity:0; stroke-width: 1; stroke-linecap: round; stroke: #000000" d="M 475.754 258.141 C 474.895,259.625 474.192,260.954 473.723,262.282 C 473.176,263.688 472.942,264.86 472.942,265.797 C 472.942,265.954 472.942,266.188 472.942,266.5 C 472.942,266.813 472.942,267.204 472.942,267.594 C 472.942,267.985 472.864,268.219 472.785,268.297 C 472.629,268.454 472.473,268.532 472.317,268.454 C 472.082,268.532 471.926,268.454 471.77,268.297 C 471.614,268.219 471.535,267.985 471.535,267.516 C 471.535,266.735 471.692,265.719 472.082,264.547 C 472.395,263.454 473.332,261.5 474.895,258.61 L 471.77,258.61 C 471.301,258.688 470.91,258.844 470.676,259.079 C 470.364,259.391 470.207,259.782 470.129,260.329 L 469.739,260.329 L 470.129,257.672 L 475.754,257.672 L 475.754,258.141"/>
  <g>
    <path style="fill: none; fill-opacity:0; stroke-width: 1; stroke-linecap: round; stroke: #000000" d="M 485.278 265.954 C 485.2,266.657 485.434,267.204 485.903,267.594 C 486.294,268.063 486.841,268.297 487.622,268.219 C 488.325,268.297 488.872,268.063 489.263,267.594 C 489.575,267.204 489.809,266.735 489.809,266.032 C 489.809,265.563 489.497,265.016 489.028,264.469 C 488.481,264 487.778,263.532 486.841,263.063 C 486.294,263.454 485.903,263.922 485.669,264.391 C 485.356,264.938 485.2,265.407 485.278,265.954 L 485.278,265.954"/>
    <path style="fill: none; fill-opacity:0; stroke-width: 1; stroke-linecap: round; stroke: #000000" d="M 490.747 265.797 C 490.747,266.735 490.434,267.36 489.888,267.829 C 489.263,268.375 488.481,268.688 487.622,268.61 C 486.684,268.688 485.981,268.375 485.356,267.829 C 484.731,267.36 484.419,266.735 484.419,265.954 C 484.419,265.25 484.575,264.704 484.888,264.157 C 485.2,263.688 485.669,263.219 486.45,262.829 C 485.825,262.594 485.434,262.204 485.122,261.735 C 484.809,261.344 484.653,260.875 484.653,260.25 C 484.653,259.625 484.888,259 485.434,258.454 C 485.981,257.985 486.763,257.75 487.7,257.672 C 488.559,257.75 489.263,257.985 489.809,258.454 C 490.356,259 490.591,259.625 490.669,260.25 C 490.591,260.797 490.434,261.266 490.2,261.735 C 489.809,262.204 489.341,262.594 488.716,262.829 C 489.419,263.297 489.966,263.766 490.278,264.235 C 490.591,264.782 490.747,265.329 490.747,265.797 L 490.747,265.797"/>
    <path style="fill: none; fill-opacity:0; stroke-width: 1; stroke-linecap: round; stroke: #000000" d="M 489.809 260.329 C 489.809,259.782 489.575,259.313 489.263,258.844 C 488.872,258.454 488.403,258.219 487.7,258.141 C 486.919,258.219 486.294,258.454 485.981,258.766 C 485.591,259.235 485.434,259.625 485.513,260.094 C 485.434,260.563 485.669,261.032 486.216,261.422 C 486.684,261.891 487.388,262.282 488.247,262.594 C 488.716,262.36 489.106,262.047 489.419,261.657 C 489.653,261.344 489.809,260.875 489.809,260.329 L 489.809,260.329"/>
  </g>
  <g>
    <path style="fill: none; fill-opacity:0; stroke-width: 1; stroke-linecap: round; stroke: #000000" d="M 623.914 257.085 L 623.914,266.538 C 623.836,266.929 623.914,267.241 624.227,267.319 C 624.383,267.554 624.696,267.632 625.164,267.554 L 625.789,267.554 L 625.789,267.944 L 621.18,267.944 L 621.18,267.554 L 621.727,267.554 C 622.117,267.632 622.43,267.554 622.664,267.319 C 622.821,267.241 622.899,266.929 622.977,266.538 L 622.977,258.96 C 622.899,258.882 622.821,258.726 622.821,258.569 C 622.664,258.491 622.508,258.491 622.352,258.413 L 621.18,258.413 L 621.18,258.023 L 621.727,258.023 C 622.196,258.101 622.586,258.023 622.977,257.788 C 623.211,257.71 623.446,257.476 623.68,257.085 L 623.914,257.085"/>
    <path style="fill: none; fill-opacity:0; stroke-width: 1; stroke-linecap: round; stroke: #000000" d="M 631.649 261.069 C 632.352,261.148 632.977,261.46 633.602,262.007 C 634.071,262.632 634.383,263.413 634.383,264.351 C 634.383,265.523 634.071,266.46 633.602,267.085 C 632.977,267.788 632.196,268.101 631.18,268.023 C 630.321,268.101 629.617,267.866 629.149,267.398 C 628.524,267.007 628.289,266.46 628.289,265.835 C 628.289,265.601 628.367,265.444 628.524,265.21 C 628.68,265.054 628.836,264.898 629.071,264.898 C 629.305,264.898 629.461,264.976 629.539,265.132 C 629.617,265.288 629.696,265.444 629.696,265.523 C 629.696,265.835 629.617,266.069 629.539,266.148 C 629.383,266.382 629.305,266.538 629.383,266.616 C 629.305,267.007 629.539,267.241 629.93,267.398 C 630.321,267.632 630.711,267.71 631.258,267.632 C 631.805,267.71 632.352,267.476 632.742,266.851 C 633.055,266.382 633.211,265.601 633.289,264.507 C 633.211,263.726 633.055,263.023 632.821,262.476 C 632.43,262.007 631.961,261.773 631.414,261.694 C 630.867,261.773 630.477,261.851 630.164,261.929 C 629.852,262.163 629.539,262.476 629.305,263.023 L 628.758,262.944 L 629.071,257.241 L 634.149,257.241 L 633.992,258.179 L 629.461,258.179 L 629.227,262.319 C 629.617,261.773 630.008,261.46 630.399,261.304 C 630.789,261.226 631.18,261.148 631.649,261.069 L 631.649,261.069"/>
  </g>
  <g>
    <path style="fill: none; fill-opacity:0; stroke-width: 1; stroke-linecap: round; stroke: #000000" d="M 644.995 258.26 L 644.995,267.713 C 644.917,268.103 644.995,268.416 645.308,268.494 C 645.464,268.728 645.776,268.806 646.245,268.728 L 646.87,268.728 L 646.87,269.119 L 642.261,269.119 L 642.261,268.728 L 642.808,268.728 C 643.198,268.806 643.511,268.728 643.745,268.494 C 643.901,268.416 643.979,268.103 644.058,267.713 L 644.058,260.135 C 643.979,260.056 643.901,259.9 643.901,259.744 C 643.745,259.666 643.589,259.666 643.433,259.588 L 642.261,259.588 L 642.261,259.197 L 642.808,259.197 C 643.276,259.275 643.667,259.197 644.058,258.963 C 644.292,258.885 644.526,258.65 644.761,258.26 L 644.995,258.26"/>
    <path style="fill: none; fill-opacity:0; stroke-width: 1; stroke-linecap: round; stroke: #000000" d="M 650.386 264.822 C 650.308,266.15 650.542,267.166 651.011,267.791 C 651.479,268.572 652.026,268.885 652.651,268.806 C 653.276,268.885 653.745,268.65 654.058,268.103 C 654.37,267.713 654.526,266.853 654.526,265.525 C 654.526,264.744 654.292,264.119 653.979,263.65 C 653.589,263.26 653.198,263.025 652.729,262.947 C 652.183,263.025 651.714,263.181 651.401,263.338 C 650.933,263.65 650.62,264.119 650.386,264.822 L 650.386,264.822"/>
    <path style="fill: none; fill-opacity:0; stroke-width: 1; stroke-linecap: round; stroke: #000000" d="M 652.808 262.322 C 653.745,262.322 654.448,262.713 654.917,263.338 C 655.308,264.041 655.542,264.744 655.62,265.525 C 655.542,266.853 655.229,267.791 654.683,268.338 C 654.058,268.963 653.433,269.275 652.651,269.197 C 651.479,269.275 650.62,268.806 650.073,267.947 C 649.448,267.166 649.136,265.916 649.214,264.197 C 649.136,262.322 649.448,260.916 650.229,259.822 C 650.854,258.885 651.87,258.338 653.12,258.26 C 653.667,258.338 654.136,258.494 654.526,258.806 C 654.839,259.119 654.995,259.431 655.073,259.666 C 654.995,259.978 654.917,260.213 654.917,260.291 C 654.761,260.447 654.604,260.447 654.37,260.447 C 654.136,260.447 653.979,260.447 653.901,260.291 C 653.745,260.291 653.667,260.135 653.745,259.822 C 653.667,259.822 653.745,259.666 653.823,259.51 C 653.823,259.51 653.823,259.431 653.823,259.275 C 653.823,259.119 653.745,259.041 653.589,258.885 C 653.433,258.885 653.198,258.806 652.964,258.728 C 652.183,258.806 651.558,259.119 651.089,259.744 C 650.542,260.369 650.308,261.775 650.386,263.885 C 650.62,263.416 650.933,263.025 651.401,262.713 C 651.714,262.478 652.183,262.322 652.808,262.322 L 652.808,262.322"/>
  </g>
  <g>
    <path style="fill: none; fill-opacity:0; stroke-width: 1; stroke-linecap: round; stroke: #000000" d="M 786.958 260.485 C 786.88,259.782 786.724,259.235 786.489,258.766 C 786.099,258.454 785.63,258.219 785.005,258.141 C 784.458,258.219 783.989,258.375 783.677,258.532 C 783.286,258.844 783.13,259.157 783.208,259.547 C 783.13,259.86 783.208,260.094 783.442,260.172 C 783.442,260.485 783.52,260.641 783.599,260.719 C 783.52,260.954 783.442,261.11 783.442,261.188 C 783.286,261.344 783.13,261.422 782.974,261.344 C 782.661,261.422 782.505,261.344 782.349,261.11 C 782.192,261.032 782.114,260.797 782.192,260.407 C 782.114,259.625 782.427,258.922 783.13,258.375 C 783.677,257.985 784.302,257.75 785.083,257.672 C 786.02,257.75 786.802,257.985 787.349,258.454 C 787.739,259 787.974,259.625 788.052,260.329 C 787.974,260.875 787.817,261.422 787.661,261.891 C 787.349,262.438 787.036,262.907 786.645,263.297 C 785.317,264.469 784.38,265.407 783.833,266.11 C 783.13,266.891 782.739,267.36 782.661,267.594 L 786.333,267.594 C 786.724,267.594 787.036,267.516 787.27,267.204 C 787.505,266.969 787.661,266.5 787.817,265.797 L 788.208,265.797 L 787.817,268.532 L 781.958,268.532 L 781.958,267.672 C 782.114,267.36 782.427,266.891 782.974,266.266 C 783.442,265.797 784.145,265.094 784.927,264.235 C 785.63,263.532 786.099,262.829 786.489,262.204 C 786.724,261.579 786.88,261.032 786.958,260.485 L 786.958,260.485"/>
    <path style="fill: none; fill-opacity:0; stroke-width: 1; stroke-linecap: round; stroke: #000000" d="M 796.177 265.641 C 796.177,266.5 795.864,267.204 795.239,267.75 C 794.614,268.375 793.755,268.688 792.817,268.61 C 792.036,268.688 791.411,268.454 790.864,267.985 C 790.317,267.594 790.083,267.125 790.083,266.579 C 790.083,266.344 790.161,266.11 790.317,265.954 C 790.474,265.797 790.63,265.719 790.864,265.641 C 791.02,265.719 791.177,265.797 791.333,265.954 C 791.411,266.11 791.489,266.266 791.489,266.422 C 791.489,266.657 791.411,266.813 791.411,266.891 C 791.255,267.047 791.255,267.204 791.255,267.36 C 791.255,267.594 791.411,267.829 791.724,267.985 C 792.036,268.219 792.349,268.297 792.739,268.219 C 793.442,268.297 793.989,268.063 794.458,267.594 C 794.77,267.125 795.005,266.422 795.005,265.485 C 795.005,264.782 794.77,264.235 794.38,263.688 C 793.989,263.297 793.286,263.063 792.192,262.985 L 792.192,262.594 C 792.974,262.672 793.52,262.516 793.989,262.047 C 794.302,261.735 794.536,261.11 794.614,260.329 C 794.536,259.782 794.38,259.313 794.145,258.844 C 793.755,258.454 793.286,258.219 792.739,258.141 C 792.349,258.219 792.036,258.297 791.724,258.375 C 791.411,258.61 791.255,258.844 791.255,259.079 C 791.255,259.469 791.255,259.704 791.411,259.704 C 791.411,259.86 791.489,259.938 791.489,260.016 C 791.489,260.25 791.411,260.407 791.333,260.563 C 791.255,260.719 791.099,260.797 790.942,260.719 C 790.708,260.797 790.552,260.719 790.474,260.563 C 790.239,260.407 790.161,260.172 790.239,259.86 C 790.161,259.235 790.474,258.766 791.02,258.297 C 791.567,257.985 792.192,257.75 792.974,257.672 C 793.755,257.75 794.38,257.985 794.927,258.454 C 795.395,259 795.708,259.625 795.708,260.172 C 795.708,260.875 795.552,261.344 795.239,261.735 C 794.927,262.204 794.38,262.516 793.755,262.672 C 794.614,263.063 795.239,263.532 795.63,264.079 C 795.942,264.625 796.177,265.172 796.177,265.641 L 796.177,265.641"/>
  </g>
  <g>
    <path style="fill: none; fill-opacity:0; stroke-width: 1; stroke-linecap: round; stroke: #000000" d="M 810.388 261.659 C 810.309,260.956 810.153,260.409 809.919,259.94 C 809.528,259.628 809.059,259.394 808.434,259.315 C 807.888,259.394 807.419,259.55 807.106,259.706 C 806.716,260.019 806.559,260.331 806.638,260.722 C 806.559,261.034 806.638,261.269 806.872,261.347 C 806.872,261.659 806.95,261.815 807.028,261.894 C 806.95,262.128 806.872,262.284 806.872,262.362 C 806.716,262.519 806.559,262.597 806.403,262.519 C 806.091,262.597 805.934,262.519 805.778,262.284 C 805.622,262.206 805.544,261.972 805.622,261.581 C 805.544,260.8 805.856,260.097 806.559,259.55 C 807.106,259.159 807.731,258.925 808.513,258.847 C 809.45,258.925 810.231,259.159 810.778,259.628 C 811.169,260.175 811.403,260.8 811.481,261.503 C 811.403,262.05 811.247,262.597 811.091,263.065 C 810.778,263.612 810.466,264.081 810.075,264.472 C 808.747,265.644 807.809,266.581 807.263,267.284 C 806.559,268.065 806.169,268.534 806.091,268.769 L 809.763,268.769 C 810.153,268.769 810.466,268.69 810.7,268.378 C 810.934,268.144 811.091,267.675 811.247,266.972 L 811.638,266.972 L 811.247,269.706 L 805.388,269.706 L 805.388,268.847 C 805.544,268.534 805.856,268.065 806.403,267.44 C 806.872,266.972 807.575,266.269 808.356,265.409 C 809.059,264.706 809.528,264.003 809.919,263.378 C 810.153,262.753 810.309,262.206 810.388,261.659 L 810.388,261.659"/>
    <path style="fill: none; fill-opacity:0; stroke-width: 1; stroke-linecap: round; stroke: #000000" d="M 818.356 268.534 C 818.278,268.847 818.356,269.081 818.591,269.159 C 818.669,269.315 818.903,269.394 819.294,269.315 L 819.841,269.315 L 819.841,269.706 L 815.7,269.706 L 815.7,269.315 L 816.403,269.315 C 816.638,269.394 816.872,269.315 817.106,269.159 C 817.184,269.081 817.263,268.847 817.341,268.534 L 817.341,266.425 L 813.122,266.425 L 813.122,266.112 L 817.731,258.847 L 818.356,258.847 L 818.356,266.034 L 819.997,266.034 L 819.997,266.425 L 818.356,266.425 L 818.356,268.534"/>
    <path style="fill: none; fill-opacity:0; stroke-width: 1; stroke-linecap: round; stroke: #000000" d="M 817.263 260.409 L 813.669,266.034 L 817.341,266.034 L 817.341,260.409 L 817.263,260.409"/>
  </g>
  <g>
    <path style="fill: none; fill-opacity:0; stroke-width: 1; stroke-linecap: round; stroke: #000000" d="M 953.234 267.99 C 953.234,268.849 952.921,269.552 952.296,270.099 C 951.671,270.724 950.812,271.037 949.874,270.959 C 949.093,271.037 948.468,270.802 947.921,270.334 C 947.374,269.943 947.14,269.474 947.14,268.927 C 947.14,268.693 947.218,268.459 947.374,268.302 C 947.531,268.146 947.687,268.068 947.921,267.99 C 948.077,268.068 948.234,268.146 948.39,268.302 C 948.468,268.459 948.546,268.615 948.546,268.771 C 948.546,269.006 948.468,269.162 948.468,269.24 C 948.312,269.396 948.312,269.552 948.312,269.709 C 948.312,269.943 948.468,270.177 948.781,270.334 C 949.093,270.568 949.406,270.646 949.796,270.568 C 950.499,270.646 951.046,270.412 951.515,269.943 C 951.827,269.474 952.062,268.771 952.062,267.834 C 952.062,267.131 951.827,266.584 951.437,266.037 C 951.046,265.646 950.343,265.412 949.249,265.334 L 949.249,264.943 C 950.031,265.021 950.577,264.865 951.046,264.396 C 951.359,264.084 951.593,263.459 951.671,262.677 C 951.593,262.131 951.437,261.662 951.202,261.193 C 950.812,260.802 950.343,260.568 949.796,260.49 C 949.406,260.568 949.093,260.646 948.781,260.724 C 948.468,260.959 948.312,261.193 948.312,261.427 C 948.312,261.818 948.312,262.052 948.468,262.052 C 948.468,262.209 948.546,262.287 948.546,262.365 C 948.546,262.599 948.468,262.756 948.39,262.912 C 948.312,263.068 948.156,263.146 947.999,263.068 C 947.765,263.146 947.609,263.068 947.531,262.912 C 947.296,262.756 947.218,262.521 947.296,262.209 C 947.218,261.584 947.531,261.115 948.077,260.646 C 948.624,260.334 949.249,260.099 950.031,260.021 C 950.812,260.099 951.437,260.334 951.984,260.802 C 952.452,261.349 952.765,261.974 952.765,262.521 C 952.765,263.224 952.609,263.693 952.296,264.084 C 951.984,264.552 951.437,264.865 950.812,265.021 C 951.671,265.412 952.296,265.881 952.687,266.427 C 952.999,266.974 953.234,267.521 953.234,267.99 L 953.234,267.99"/>
    <path style="fill: none; fill-opacity:0; stroke-width: 1; stroke-linecap: round; stroke: #000000" d="M 958.702 260.021 L 958.702,269.474 C 958.624,269.865 958.702,270.177 959.015,270.256 C 959.171,270.49 959.484,270.568 959.952,270.49 L 960.577,270.49 L 960.577,270.881 L 955.968,270.881 L 955.968,270.49 L 956.515,270.49 C 956.906,270.568 957.218,270.49 957.452,270.256 C 957.609,270.177 957.687,269.865 957.765,269.474 L 957.765,261.896 C 957.687,261.818 957.609,261.662 957.609,261.506 C 957.452,261.427 957.296,261.427 957.14,261.349 L 955.968,261.349 L 955.968,260.959 L 956.515,260.959 C 956.984,261.037 957.374,260.959 957.765,260.724 C 957.999,260.646 958.234,260.412 958.468,260.021 L 958.702,260.021"/>
  </g>
  <g>
    <line style="fill: none; fill-opacity:0; stroke-width: 1; stroke-dasharray: 4; stroke: #000000" x1="499.109" y1="322.907" x2="499.109" y2="405.878"/>
    <polygon style="fill: #000000" points="494.109,405.878 499.109,415.878 504.109,405.878 "/>
    <polygon style="fill: none; fill-opacity:0; stroke-width: 1; stroke: #000000" points="494.109,405.878 499.109,415.878 504.109,405.878 "/>
  </g>
  <g>
    <path style="fill: none; fill-opacity:0; stroke-width: 1; stroke-linecap: round; stroke: #000000" d="M 491.244 436.579 C 490.619,436.579 490.072,437.047 489.759,437.907 C 489.29,438.844 489.134,440.016 489.212,441.5 C 489.134,443.063 489.29,444.313 489.759,445.172 C 490.072,446.11 490.619,446.579 491.244,446.5 C 491.869,446.579 492.337,446.11 492.728,445.172 C 493.04,444.313 493.197,443.063 493.275,441.5 C 493.197,440.016 493.04,438.844 492.728,437.907 C 492.337,437.047 491.869,436.579 491.244,436.579 L 491.244,436.579"/>
    <path style="fill: none; fill-opacity:0; stroke-width: 1; stroke-linecap: round; stroke: #000000" d="M 491.244 446.969 C 490.306,447.047 489.525,446.579 488.978,445.563 C 488.275,444.704 487.962,443.297 488.04,441.5 C 487.962,439.938 488.275,438.688 488.9,437.594 C 489.525,436.657 490.306,436.11 491.244,436.032 C 492.181,436.11 492.884,436.579 493.509,437.516 C 494.056,438.454 494.369,439.782 494.447,441.5 C 494.369,443.219 494.056,444.625 493.509,445.563 C 492.884,446.579 492.181,447.047 491.244,446.969 L 491.244,446.969"/>
  </g>
  <g>
    <path style="fill: #ffffff" d="M 657.858 350.652 L 830.858,350.652 L 830.858,393.852 C 796.258,386.652 778.958,386.652 744.358,393.852 C 709.758,401.052 692.458,401.052 657.858,393.852 L 657.858,350.652z"/>
    <path style="fill: none; fill-opacity:0; stroke-width: 0.02; stroke: #000000" d="M 657.858 350.652 L 830.858,350.652 L 830.858,393.852 C 796.258,386.652 778.958,386.652 744.358,393.852 C 709.758,401.052 692.458,401.052 657.858,393.852 L 657.858,350.652"/>
    <text font-size="12.8" style="fill: #000000;text-anchor:middle;font-family:monospace;font-style:normal;font-weight:normal" x="744.358" y="363.852">
      <tspan x="744.358" y="363.852">多播组地址中的低23位复制到</tspan>
      <tspan x="744.358" y="379.852">对应的以太网地址中</tspan>
    </text>
  </g>
  <line style="fill: none; fill-opacity:0; stroke-width: 1; stroke-dasharray: 4; stroke: #000000" x1="499.109" y1="369.643" x2="959.979" y2="369.876"/>
  <g>
    <line style="fill: none; fill-opacity:0; stroke-width: 1; stroke-dasharray: 4; stroke: #000000" x1="959.979" y1="323.141" x2="959.979" y2="406.112"/>
    <polygon style="fill: #000000" points="954.979,406.112 959.979,416.112 964.979,406.112 "/>
    <polygon style="fill: none; fill-opacity:0; stroke-width: 1; stroke: #000000" points="954.979,406.112 959.979,416.112 964.979,406.112 "/>
  </g>
  <g>
    <line style="fill: none; fill-opacity:0; stroke-width: 1; stroke: #000000" x1="409.388" y1="240.926" x2="495.4" y2="240.988"/>
    <polygon style="fill: #000000" points="409.39,237.926 403.388,240.922 409.386,243.926 "/>
    <polygon style="fill: none; fill-opacity:0; stroke-width: 1; stroke: #000000" points="409.39,237.926 403.388,240.922 409.386,243.926 "/>
    <polygon style="fill: #000000" points="495.398,243.988 501.4,240.993 495.402,237.988 "/>
    <polygon style="fill: none; fill-opacity:0; stroke-width: 1; stroke: #000000" points="495.398,243.988 501.4,240.993 495.402,237.988 "/>
  </g>
  <line style="fill: none; fill-opacity:0; stroke-width: 1; stroke-dasharray: 4; stroke: #000000" x1="401.348" y1="245.099" x2="401.366" y2="272.607"/>
  <line style="fill: none; fill-opacity:0; stroke-width: 1; stroke-dasharray: 4; stroke: #000000" x1="501.122" y1="244.915" x2="501.14" y2="272.423"/>
  <path style="fill: none; fill-opacity:0; stroke-width: 1; stroke-dasharray: 4; stroke: #000000" d="M 516.659,186.333 A 95.9523,95.9523 0 0 0 451.597,237.582"/>
  <g>
    <path style="fill: #ffffff" d="M 516.659 164.613 L 669.359,164.613 L 669.359,208.053 C 638.819,200.813 623.549,200.813 593.009,208.053 C 562.469,215.293 547.199,215.293 516.659,208.053 L 516.659,164.613z"/>
    <path style="fill: none; fill-opacity:0; stroke-width: 0.2; stroke-dasharray: 4; stroke: #000000" d="M 516.659 164.613 L 669.359,164.613 L 669.359,208.053 C 638.819,200.813 623.549,200.813 593.009,208.053 C 562.469,215.293 547.199,215.293 516.659,208.053 L 516.659,164.613"/>
    <text font-size="12.8" style="fill: #000000;text-anchor:middle;font-family:monospace;font-style:normal;font-weight:normal" x="593.009" y="177.913">
      <tspan x="593.009" y="177.913">多播组地址中的这5位未用</tspan>
      <tspan x="593.009" y="193.913">作形成以太网地址</tspan>
    </text>
  </g>
  <g>
    <path style="fill: #ffffff" d="M 434.1 461.989 L 531.5,461.989 L 531.5,496.275 C 512.02,490.56 502.28,490.56 482.8,496.275 C 463.32,501.989 453.58,501.989 434.1,496.275 L 434.1,461.989z"/>
    <path style="fill: none; fill-opacity:0; stroke-width: 0.02; stroke: #000000" d="M 434.1 461.989 L 531.5,461.989 L 531.5,496.275 C 512.02,490.56 502.28,490.56 482.8,496.275 C 463.32,501.989 453.58,501.989 434.1,496.275 L 434.1,461.989"/>
    <text font-size="12.8" style="fill: #000000;text-anchor:middle;font-family:monospace;font-style:normal;font-weight:700" x="482.8" y="478.675">
      <tspan x="482.8" y="478.675">48位以太网地址</tspan>
    </text>
  </g>
  <g>
    <path style="fill: #ffffff" d="M 378.444 485.224 L 586.644,485.224 L 586.644,509.224 C 545.004,505.224 524.184,505.224 482.544,509.224 C 440.904,513.224 420.084,513.224 378.444,509.224 L 378.444,485.224z"/>
    <path style="fill: none; fill-opacity:0; stroke-width: 0.02; stroke: #000000" d="M 378.444 485.224 L 586.644,485.224 L 586.644,509.224 C 545.004,505.224 524.184,505.224 482.544,509.224 C 440.904,513.224 420.084,513.224 378.444,509.224 L 378.444,485.224"/>
    <text font-size="12.8" style="fill: #000000;text-anchor:middle;font-family:monospace;font-style:normal;font-weight:700" x="482.544" y="497.624">
      <tspan x="482.544" y="497.624">D类IP地址到以太网多播地址的映射</tspan>
    </text>
  </g>
  <g>
    <path style="fill: #ffffff" d="M 5.44324 287.669 L 276.243,287.669 L 276.243,388.709 C 222.083,371.869 195.003,371.869 140.843,388.709 C 86.6832,405.549 59.6032,405.549 5.44324,388.709 L 5.44324,287.669z"/>
    <path style="fill: none; fill-opacity:0; stroke-width: 0.2; stroke-dasharray: 4; stroke: #000000" d="M 5.44324 287.669 L 276.243,287.669 L 276.243,388.709 C 222.083,371.869 195.003,371.869 140.843,388.709 C 86.6832,405.549 59.6032,405.549 5.44324,388.709 L 5.44324,287.669"/>
    <text font-size="12.8" style="fill: #000000;text-anchor:middle;font-family:monospace;font-style:normal;font-weight:normal" x="140.843" y="300.969">
      <tspan x="140.843" y="300.969">最高字节的最低位设置为1时表示地址是</tspan>
      <tspan x="140.843" y="316.969">一个多播地址，</tspan>
      <tspan x="140.843" y="332.969">用十六进制可以表示为 01:00:00:00:00:00</tspan>
      <tspan x="140.843" y="348.969"> (以太网广播地址 ff:ff:ff:ff:ff:ff </tspan>
      <tspan x="140.843" y="364.969">可以看作是以太网多播地址的特例)</tspan>
    </text>
  </g>
  <g>
    <line style="fill: none; fill-opacity:0; stroke-width: 1; stroke-dasharray: 4; stroke: #000000" x1="153.811" y1="411.916" x2="148.761" y2="386.484"/>
    <polygon style="fill: #000000" points="150.868,412.5 154.979,417.801 156.753,411.332 "/>
    <polygon style="fill: none; fill-opacity:0; stroke-width: 1; stroke: #000000" points="150.868,412.5 154.979,417.801 156.753,411.332 "/>
  </g>
</svg>
